<?xml version="1.0" encoding="UTF-8" standalone="no"?>
<!-- Created with Inkscape (http://www.inkscape.org/) -->

<svg
   xmlns:dc="http://purl.org/dc/elements/1.1/"
   xmlns:cc="http://creativecommons.org/ns#"
   xmlns:rdf="http://www.w3.org/1999/02/22-rdf-syntax-ns#"
   xmlns:svg="http://www.w3.org/2000/svg"
   xmlns="http://www.w3.org/2000/svg"
   xmlns:sodipodi="http://sodipodi.sourceforge.net/DTD/sodipodi-0.dtd"
   xmlns:inkscape="http://www.inkscape.org/namespaces/inkscape"
   width="225"
   height="90"
   id="svg2"
   version="1.1"
   inkscape:version="0.48.2 r9819"
   sodipodi:docname="wtd-na-2014-sticker.svg"
   inkscape:export-filename="/Users/thoward/github/writethedocs/writethedocs.github.com/img/stickers/wtd-na-2014-sticker-high-res.png"
   inkscape:export-xdpi="300"
   inkscape:export-ydpi="300">
  <defs
     id="defs4" />
  <sodipodi:namedview
     id="base"
     pagecolor="#ffffff"
     bordercolor="#666666"
     borderopacity="1.0"
     inkscape:pageopacity="0.0"
     inkscape:pageshadow="2"
     inkscape:zoom="2.8"
     inkscape:cx="152.47049"
     inkscape:cy="75.889855"
     inkscape:document-units="px"
     inkscape:current-layer="layer1"
     showgrid="false"
     showguides="false"
     inkscape:guide-bbox="true"
     inkscape:window-width="1280"
     inkscape:window-height="747"
     inkscape:window-x="0"
     inkscape:window-y="0"
     inkscape:window-maximized="0"
     units="in">
    <sodipodi:guide
       orientation="1,0"
       position="262.85714,857.14286"
       id="guide3788" />
    <sodipodi:guide
       orientation="1,0"
       position="488.57143,934.28571"
       id="guide3790" />
    <sodipodi:guide
       orientation="1,0"
       position="250.51783,990.95965"
       id="guide3855" />
    <sodipodi:guide
       orientation="1,0"
       position="509.11688,978.83782"
       id="guide3857" />
    <sodipodi:guide
       orientation="0,1"
       position="38.571429,77.857143"
       id="guide3878" />
    <sodipodi:guide
       orientation="0,1"
       position="132.14286,12.142857"
       id="guide3887" />
    <sodipodi:guide
       orientation="1,0"
       position="165.35714,67.5"
       id="guide3925" />
  </sodipodi:namedview>
  <metadata
     id="metadata7">
    <rdf:RDF>
      <cc:Work
         rdf:about="">
        <dc:format>image/svg+xml</dc:format>
        <dc:type
           rdf:resource="http://purl.org/dc/dcmitype/StillImage" />
        <dc:title></dc:title>
      </cc:Work>
    </rdf:RDF>
  </metadata>
  <g
     inkscape:label="Layer 1"
     inkscape:groupmode="layer"
     id="layer1"
     transform="translate(0,-962.36)">
    <rect
       style="fill:#ee6f44;fill-opacity:1;stroke:none"
       id="rect3889"
       width="59.642868"
       height="90"
       x="165.35715"
       y="962.35999" />
    <rect
       style="fill:#363948;fill-opacity:1;stroke:none"
       id="rect3860"
       width="165"
       height="90"
       x="0"
       y="962.35999" />
    <path
       inkscape:connector-curvature="0"
       id="path3001"
       style="font-size:67.58887482000000091px;font-style:normal;font-variant:normal;font-weight:bold;font-stretch:normal;line-height:125%;letter-spacing:0px;word-spacing:0px;fill:#ee6f44;fill-opacity:1;stroke:none;font-family:Aleo;-inkscape-font-specification:Aleo Bold"
       d="m 10.388434,977.03633 0,-2.5311 1.464275,0 1.778045,0 3.074973,0 5.250467,0 0,2.5311 c -1.2e-5,0.75309 -0.355621,1.19934 -1.066826,1.33877 -0.01394,2e-5 -0.09066,0.0139 -0.230103,0.0418 -0.08369,0.014 -0.237081,0.0558 -0.460198,0.12551 -0.08369,0.0279 -0.216165,0.0627 -0.397449,0.10459 -0.181297,0.0279 -0.299838,0.0488 -0.355609,0.0628 l 4.455576,15.64681 c 0.153383,0.58572 0.271923,1.08078 0.355609,1.48519 0.111549,0.51599 0.216139,1.08078 0.313776,1.69437 0.06971,-0.40441 0.188243,-0.9692 0.355609,-1.69437 0.111542,-0.50203 0.257972,-0.99709 0.439281,-1.48519 l 6.087192,-18.53352 c 0.0976,-0.30677 0.327694,-0.60659 0.690301,-0.89948 0.348611,-0.27888 0.753032,-0.41833 1.213256,-0.41836 l 1.694372,0 c 0.488062,3e-5 0.906427,0.11856 1.255089,0.35561 0.306772,0.20921 0.529902,0.52995 0.669385,0.96223 l 6.045351,18.53352 c 0.320716,0.93435 0.592652,1.9454 0.815814,3.03313 0.139419,-0.72515 0.244009,-1.26205 0.313769,-1.6107 0.01394,-0.0697 0.125475,-0.54386 0.334693,-1.42243 l 4.434659,-15.60497 c -0.474188,-0.11154 -1.066871,-0.23705 -1.778051,-0.37653 -0.71125,-0.13942 -1.066858,-0.58568 -1.066827,-1.33876 l 0,-2.5311 5.58516,0 2.740281,0 1.778045,0 1.464275,0 0,2.5311 c -5.1e-5,0.75308 -0.35566,1.19934 -1.066827,1.33876 -0.01401,3e-5 -0.0419,0.007 -0.08367,0.0209 -0.02795,2e-5 -0.08372,0.007 -0.167346,0.0209 -0.08372,0.014 -0.160418,0.0279 -0.230102,0.0418 -0.08372,0.0139 -0.265008,0.0488 -0.543872,0.10459 -0.265008,0.0418 -0.488138,0.0767 -0.669385,0.10459 l -8.325434,26.81716 -5.208634,0 -6.756569,-21.16925 c -2.5e-5,-0.0139 -0.0419,-0.13246 -0.125513,-0.35561 -0.06975,-0.22311 -0.118559,-0.39743 -0.146429,-0.52295 -0.01394,-0.0418 -0.05578,-0.18127 -0.125507,-0.41837 -0.06975,-0.25099 -0.118559,-0.44623 -0.146429,-0.58571 -0.02789,0.13948 -0.07672,0.33472 -0.146423,0.58571 -0.06975,0.2371 -0.111588,0.37655 -0.125513,0.41837 -0.02789,0.11158 -0.06975,0.26498 -0.125506,0.4602 -0.05584,0.19525 -0.09764,0.33471 -0.125513,0.41836 l -6.840243,21.16925 -5.208633,0 -8.325435,-26.81716 c -0.44626,-0.0836 -0.857653,-0.15337 -1.234173,-0.20918 -0.26497,-0.0558 -0.418365,-0.0837 -0.460205,-0.0837 -0.711217,-0.13942 -1.066826,-0.58568 -1.066826,-1.33876" />
    <path
       inkscape:connector-curvature="0"
       id="path3003"
       style="font-size:67.58887482000000091px;font-style:normal;font-variant:normal;font-weight:bold;font-stretch:normal;line-height:125%;letter-spacing:0px;word-spacing:0px;fill:#fdedcc;fill-opacity:1;stroke:none;font-family:Aleo;-inkscape-font-specification:Aleo Bold"
       d="m 59.127816,1005.4851 0,-2.5102 c 0,-0.7531 0.355609,-1.1993 1.066827,-1.3388 0.06972,-0.028 0.160367,-0.049 0.271936,-0.063 0.02789,0 0.07669,-0.01 0.146429,-0.021 0.06972,-0.014 0.146423,-0.028 0.230096,-0.042 0.08367,-0.014 0.174319,-0.028 0.271936,-0.042 0.09762,-0.014 0.28588,-0.042 0.564795,-0.084 0.278902,-0.056 0.509004,-0.1046 0.690301,-0.1464 l 0,-22.48706 c -0.195241,-0.0418 -0.432316,-0.0836 -0.711224,-0.12551 -0.264964,-0.0418 -0.446254,-0.0697 -0.543872,-0.0837 -0.348637,-0.0697 -0.564788,-0.11154 -0.648461,-0.12552 -0.02789,3e-5 -0.06275,3e-5 -0.10459,0 -0.04183,-0.0139 -0.0767,-0.0209 -0.10459,-0.0209 -0.02789,-0.014 -0.04881,-0.0209 -0.06275,-0.0209 -0.711218,-0.13943 -1.066827,-0.58568 -1.066827,-1.33876 l 0,-2.5311 3.24232,0 9.141249,0 c 2.091801,3e-5 3.904707,0.22315 5.438723,0.66938 1.54793,0.44628 2.782102,1.05291 3.702525,1.81988 0.934323,0.78098 1.638562,1.72229 2.112737,2.82395 0.460173,1.08778 0.690276,2.28708 0.690301,3.59793 -2.5e-5,1.04594 -0.160399,2.03606 -0.481122,2.97039 -0.334717,0.96225 -0.773999,1.79898 -1.317846,2.51018 -0.641514,0.8228 -1.352732,1.49218 -2.133653,2.00815 -0.878583,0.58572 -1.847792,1.03894 -2.907628,1.35968 0.739088,0.41837 1.366633,1.01105 1.882635,1.77804 l 4.873941,7.19587 c 0.223099,0.042 0.495034,0.091 0.815808,0.1464 0.320716,0.056 0.488062,0.084 0.502038,0.084 0.111537,0.014 0.216126,0.028 0.313769,0.042 0.09759,0.014 0.188238,0.028 0.271936,0.042 0.08365,0.014 0.139432,0.021 0.167346,0.021 0.167321,0.028 0.278883,0.049 0.334692,0.063 0.711193,0.1395 1.066802,0.5857 1.066827,1.3388 l 0,2.5102 -0.585711,0 -2.656609,0 -2.531102,0 c -0.516002,0 -0.941339,-0.098 -1.276006,-0.2929 -0.362607,-0.2092 -0.662431,-0.495 -0.899481,-0.8576 l -6.505563,-9.91525 c -0.251032,-0.36257 -0.515995,-0.62754 -0.794891,-0.7949 -0.292871,-0.16733 -0.725181,-0.251 -1.296929,-0.25101 l -2.154576,0 0,7.86526 c 0.34863,0.056 0.766989,0.1325 1.255096,0.2301 0.0976,0.014 0.181277,0.028 0.251012,0.042 0.08367,0.014 0.160362,0.028 0.230103,0.042 0.06972,0.014 0.118528,0.021 0.146429,0.021 0.11155,0.014 0.202195,0.035 0.271936,0.063 0.711205,0.1395 1.066814,0.5857 1.066827,1.3388 l 0,2.5102 -3.221403,0 -5.773416,0 -3.24232,0 m 9.015736,-16.23256 3.284159,0 c 1.059836,2e-5 2.008128,-0.13943 2.844872,-0.41836 0.822767,-0.2789 1.485173,-0.64845 1.98723,-1.10867 0.529908,-0.48807 0.920378,-1.05983 1.171417,-1.71529 0.251,-0.65541 0.376506,-1.3736 0.376525,-2.15457 -1.9e-5,-1.57581 -0.516002,-2.78209 -1.547942,-3.61885 -1.059874,-0.85064 -2.642683,-1.27598 -4.748429,-1.276 l -3.367832,0 0,10.29174" />
    <path
       inkscape:connector-curvature="0"
       id="path3005"
       style="font-size:67.58887482000000091px;font-style:normal;font-variant:normal;font-weight:bold;font-stretch:normal;line-height:125%;letter-spacing:0px;word-spacing:0px;fill:#fdedcc;fill-opacity:1;stroke:none;font-family:Aleo;-inkscape-font-specification:Aleo Bold"
       d="m 88.496952,1005.4851 0,-2.5102 c 0,-0.7531 0.355609,-1.1993 1.066827,-1.3388 0.06973,-0.028 0.160374,-0.049 0.271936,-0.063 0.02789,0 0.0767,-0.01 0.146429,-0.021 0.06972,-0.014 0.146423,-0.028 0.230096,-0.042 0.08367,-0.014 0.174318,-0.028 0.271942,-0.042 0.09761,-0.014 0.285874,-0.042 0.564789,-0.084 0.278908,-0.056 0.509004,-0.1046 0.690301,-0.1464 l 0,-22.48706 c -0.195242,-0.0418 -0.432316,-0.0836 -0.711218,-0.12551 -0.26497,-0.0418 -0.446261,-0.0697 -0.543872,-0.0837 -0.348643,-0.0697 -0.564794,-0.11154 -0.648467,-0.12552 -0.167347,-0.0279 -0.257992,-0.0418 -0.271936,-0.0418 -0.711218,-0.13943 -1.066827,-0.58568 -1.066827,-1.33876 l 0,-2.5311 3.24232,0 5.794339,0 3.242319,0 0,2.5311 c -1e-5,0.73914 -0.3626,1.18539 -1.087749,1.33876 l -0.251019,0.0418 c -0.08368,0.014 -0.299838,0.0558 -0.648462,0.12552 -0.09763,0.0139 -0.285893,0.0418 -0.564788,0.0837 -0.264977,0.0419 -0.495079,0.0837 -0.690301,0.12551 l 0,22.48706 c 0.181277,0.042 0.41138,0.091 0.690301,0.1464 0.278895,0.042 0.467158,0.07 0.564788,0.084 0.0976,0.014 0.18825,0.028 0.271936,0.042 0.08366,0.014 0.160361,0.028 0.230102,0.042 0.06972,0.014 0.118522,0.021 0.146424,0.021 0.08366,0.014 0.167333,0.035 0.251019,0.063 0.725149,0.1534 1.087739,0.5997 1.087749,1.3388 l 0,2.5102 -3.242319,0 -5.794339,0 -3.24232,0" />
    <path
       inkscape:connector-curvature="0"
       id="path3007"
       style="font-size:67.58887482000000091px;font-style:normal;font-variant:normal;font-weight:bold;font-stretch:normal;line-height:125%;letter-spacing:0px;word-spacing:0px;fill:#fdedcc;fill-opacity:1;stroke:none;font-family:Aleo;-inkscape-font-specification:Aleo Bold"
       d="m 102.30296,981.84751 0,-7.34228 0.62754,0 0.0628,0 24.34877,0 0.0209,0 0.6903,0 0,7.34228 -0.18826,0 -0.52296,0 -1.75713,0 c -0.55784,3e-5 -0.89253,-0.27191 -1.00407,-0.8158 -0.0279,-0.13944 -0.0976,-0.73211 -0.20918,-1.77805 l -6.31729,0 0,21.98504 c 0.18127,0.042 0.41137,0.091 0.6903,0.1464 0.27889,0.042 0.46715,0.07 0.56479,0.084 0.0976,0.014 0.18824,0.028 0.27194,0.042 0.0837,0.014 0.16035,0.028 0.2301,0.042 0.0697,0.014 0.11851,0.021 0.14642,0.021 0.11155,0.014 0.2022,0.035 0.27194,0.063 0.7112,0.1395 1.06681,0.5857 1.06682,1.3388 l 0,2.5102 -3.24231,0 -5.7525,0 -3.24232,0 0,-2.5102 c -10e-6,-0.7531 0.3556,-1.1993 1.06682,-1.3388 0.0697,-0.028 0.16037,-0.049 0.27194,-0.063 l 0.62755,-0.1046 c 0.0976,-0.014 0.28587,-0.042 0.56479,-0.084 0.2789,-0.056 0.51597,-0.1046 0.71122,-0.1464 l 0,-21.98505 -6.3173,0 c -0.0837,0.79492 -0.16037,1.3876 -0.23009,1.77805 -0.11157,0.5439 -0.43929,0.81583 -0.98316,0.81581 l -1.77805,0 -0.50204,0 -0.18826,0" />
    <path
       inkscape:connector-curvature="0"
       id="path3009"
       style="font-size:67.58887482000000091px;font-style:normal;font-variant:normal;font-weight:bold;font-stretch:normal;line-height:125%;letter-spacing:0px;word-spacing:0px;fill:#fdedcc;fill-opacity:1;stroke:none;font-family:Aleo;-inkscape-font-specification:Aleo Bold"
       d="m 129.58027,1005.4851 0,-2.5102 c 0,-0.7531 0.3556,-1.1993 1.06683,-1.3388 0.0697,-0.028 0.16037,-0.049 0.27193,-0.063 0.0279,0 0.0767,-0.01 0.14643,-0.021 0.0697,-0.014 0.14643,-0.028 0.2301,-0.042 0.0837,-0.014 0.17432,-0.028 0.27194,-0.042 0.0976,-0.014 0.28588,-0.042 0.56479,-0.084 0.2789,-0.056 0.509,-0.1046 0.6903,-0.1464 l 0,-22.48706 c -0.19524,-0.0418 -0.43231,-0.0836 -0.71122,-0.12551 -0.26497,-0.0418 -0.44626,-0.0697 -0.54387,-0.0837 -0.34864,-0.0697 -0.5648,-0.11154 -0.64847,-0.12552 -0.0279,3e-5 -0.0627,3e-5 -0.10459,0 -0.0418,-0.0139 -0.0767,-0.0209 -0.10459,-0.0209 -0.0279,-0.014 -0.0488,-0.0209 -0.0627,-0.0209 -0.71123,-0.13943 -1.06683,-0.58568 -1.06683,-1.33876 l 0,-2.5311 3.24232,0 19.53759,0 0,2.9913 0,1.58978 0,3.55609 -0.18826,0 -0.52296,0 -1.75713,0 c -0.55784,2e-5 -0.89253,-0.26494 -1.00407,-0.79489 -0.0558,-0.33467 -0.1604,-1.25507 -0.31377,-2.7612 l -9.93614,0 0,8.59737 10.45909,0 0,4.43466 -10.45909,0 0,8.76474 9.93614,0 c 0.15337,-1.50612 0.25796,-2.42652 0.31377,-2.76122 0.11154,-0.52992 0.44623,-0.79488 1.00407,-0.79489 l 1.75713,0 0.52296,0 0.18826,0 0,3.55611 0,1.5898 0,3.0122 -19.53759,0 -3.24232,0" />
    <path
       inkscape:connector-curvature="0"
       id="path3012"
       style="font-size:46.03571319999999645px;font-style:normal;font-variant:normal;font-weight:300;font-stretch:normal;text-align:start;line-height:125%;letter-spacing:0px;word-spacing:0px;writing-mode:lr-tb;text-anchor:start;fill:#fdedcc;fill-opacity:1;stroke:#f1f1f1;stroke-width:0.63383877000000000;stroke-opacity:1;font-family:Aleo;-inkscape-font-specification:Aleo Light"
       d="m 11.115514,1023.5385 0,-4.2886 0.199464,0 0.427435,0 15.202255,0 0.413187,0 0.213712,0 0,4.2886 -0.712385,0 c -0.389448,0 -0.598419,-0.2374 -0.626897,-0.7124 -1.3e-5,-0.019 -0.0051,-0.1044 -0.01426,-0.2565 -0.0095,-0.1614 -0.02377,-0.4368 -0.04273,-0.8263 -0.01901,-0.3989 -0.03804,-0.8073 -0.05698,-1.2253 l -6.012519,0 0,18.2228 c 0.104475,0 0.265945,0 0.484423,0.015 0.218454,0 0.375176,0 0.470169,0.015 0.189962,0.01 0.403674,0.015 0.641148,0.015 0.05698,0 0.113971,0 0.170971,0.015 0.06648,0 0.104469,0 0.113984,0 0.379922,0.01 0.56989,0.1805 0.569902,0.513 l 0,0.5841 -2.450597,0 -1.496006,0 -2.450597,0 0,-0.5841 c -7e-6,-0.3325 0.189961,-0.5034 0.569909,-0.513 0.0095,0 0.04272,0 0.09973,0 0.06648,-0.01 0.128221,-0.015 0.185215,-0.015 0.237454,0 0.451172,0 0.641146,-0.015 0.09498,-0.01 0.251704,-0.015 0.470176,-0.015 0.218452,-0.01 0.37993,-0.015 0.484417,-0.015 l 0,-18.2228 -6.041009,0 c -0.01901,0.3799 -0.03797,0.7551 -0.05698,1.1255 -0.01901,0.361 -0.03328,0.6365 -0.04273,0.8264 -0.0095,0.1806 -0.01426,0.2993 -0.01426,0.3562 -0.02852,0.475 -0.237461,0.7124 -0.626892,0.7124 l -0.712384,0" />
    <path
       inkscape:connector-curvature="0"
       id="path3014"
       style="font-size:46.03571319999999645px;font-style:normal;font-variant:normal;font-weight:300;font-stretch:normal;text-align:start;line-height:125%;letter-spacing:0px;word-spacing:0px;writing-mode:lr-tb;text-anchor:start;fill:#fdedcc;fill-opacity:1;stroke:#f1f1f1;stroke-width:0.63383877000000000;stroke-opacity:1;font-family:Aleo;-inkscape-font-specification:Aleo Light"
       d="m 29.879691,1039.8948 0,-0.5841 c 0,-0.323 0.194715,-0.4939 0.584152,-0.5129 0.0095,0 0.04272,0 0.09973,0 0.05698,-0.01 0.113977,-0.015 0.170972,-0.015 0.246956,0 0.465422,0 0.655396,-0.015 0.09498,-0.01 0.251703,-0.015 0.470169,-0.015 0.218458,-0.01 0.379935,-0.015 0.484424,-0.015 l 0,-18.3368 c -0.104489,0 -0.265966,0 -0.484424,0 -0.218466,-0.01 -0.375188,-0.019 -0.470169,-0.029 -0.189974,-0.01 -0.40844,-0.014 -0.655396,-0.015 -0.05698,0 -0.113984,0 -0.170972,0 -0.05698,-0.01 -0.09024,-0.015 -0.09973,-0.015 -0.389437,-0.019 -0.584152,-0.1901 -0.584152,-0.513 l 0,-0.5699 2.464847,0 1.496006,0 2.464846,0 0,0.5699 c -1.3e-5,0.3229 -0.194728,0.4939 -0.584159,0.513 -0.0095,0 -0.04272,0.01 -0.09973,0.015 -0.05698,0 -0.11399,0 -0.170972,0 -0.246963,0 -0.465427,0.01 -0.655389,0.015 -0.09499,0.01 -0.251716,0.019 -0.470176,0.029 -0.218471,0 -0.379942,0 -0.484416,0 l 0,8.4774 12.936877,0 0,-8.4774 c -0.104501,0 -0.265972,0 -0.484418,0 -0.218484,-0.01 -0.375207,-0.019 -0.470174,-0.029 -0.189988,-0.01 -0.408453,-0.014 -0.655397,-0.015 -0.05698,0 -0.113995,0 -0.170972,0 -0.05698,-0.01 -0.09024,-0.015 -0.09973,-0.015 -0.389456,-0.019 -0.584171,-0.1901 -0.584158,-0.513 l 0,-0.5699 2.464847,0 1.496005,0 2.464847,0 0,0.5699 c -2.5e-5,0.3229 -0.194741,0.4939 -0.584152,0.513 -0.0095,0 -0.04279,0.01 -0.09974,0.015 -0.05698,0 -0.114002,0 -0.170972,0 -0.246982,0 -0.465446,0.01 -0.655395,0.015 -0.09501,0.01 -0.25173,0.019 -0.470169,0.029 -0.218485,0 -0.379962,0 -0.484424,0 l 0,18.3368 c 0.104462,0 0.265939,0 0.484424,0.015 0.218439,0 0.375163,0 0.470169,0.015 0.189949,0.01 0.408413,0.015 0.655395,0.015 0.05698,0 0.113958,0.01 0.170972,0.015 0.05698,0 0.09022,0 0.09974,0 0.389411,0.019 0.584127,0.1899 0.584152,0.5129 l 0,0.5841 -2.464847,0 -1.496005,0 -2.464847,0 0,-0.5841 c -1.3e-5,-0.323 0.194702,-0.4939 0.584158,-0.5129 0.0095,0 0.04272,0 0.09973,0 0.05698,-0.01 0.113966,-0.015 0.170972,-0.015 0.246944,0 0.465409,0 0.655397,-0.015 0.09497,-0.01 0.25169,-0.015 0.470174,-0.015 0.218446,-0.01 0.379917,-0.015 0.484418,-0.015 l 0,-8.7339 -12.936877,0 0,8.7339 c 0.104474,0 0.265945,0 0.484416,0.015 0.21846,0 0.375182,0 0.470176,0.015 0.189962,0.01 0.408426,0.015 0.655389,0.015 0.05698,0 0.113977,0.01 0.170972,0.015 0.05698,0 0.09022,0 0.09973,0 0.389431,0.019 0.584146,0.1899 0.584159,0.5129 l 0,0.5841 -2.464846,0 -1.496006,0 -2.464847,0" />
    <path
       inkscape:connector-curvature="0"
       id="path3016"
       style="font-size:46.03571319999999645px;font-style:normal;font-variant:normal;font-weight:300;font-stretch:normal;text-align:start;line-height:125%;letter-spacing:0px;word-spacing:0px;writing-mode:lr-tb;text-anchor:start;fill:#fdedcc;fill-opacity:1;stroke:#f1f1f1;stroke-width:0.63383877000000000;stroke-opacity:1;font-family:Aleo;-inkscape-font-specification:Aleo Light"
       d="m 53.530815,1039.8948 0,-0.5841 c -7e-6,-0.323 0.194715,-0.4939 0.584151,-0.5129 0.0095,0 0.04272,0 0.09973,0 0.05698,-0.01 0.113977,-0.015 0.170971,-0.015 0.246957,0 0.465422,0 0.655391,-0.015 0.09498,-0.01 0.251709,-0.015 0.470174,-0.015 0.218459,-0.01 0.379936,-0.015 0.484424,-0.015 l 0,-18.3368 c -0.104488,0 -0.265965,0 -0.484424,0 -0.218465,-0.01 -0.375194,-0.019 -0.470174,-0.029 -0.189969,-0.01 -0.408434,-0.014 -0.655391,-0.015 -0.05697,0 -0.113983,0 -0.170971,0 -0.05698,-0.01 -0.09024,-0.015 -0.09973,-0.015 -0.389436,-0.019 -0.584158,-0.1901 -0.584151,-0.513 l 0,-0.5699 2.464846,0 12.366976,0 0,1.2253 0,3.0348 -0.712385,0 c -0.389457,0 -0.598421,-0.2375 -0.626899,-0.7125 -0.04754,-0.8738 -0.0855,-1.648 -0.113983,-2.3223 l -9.41771,0 0,8.3491 8.220908,0 0,1.2111 -8.220908,0 0,8.6056 9.41771,0 c -1.3e-5,-0.057 0.0044,-0.1425 0.01427,-0.2564 0.0095,-0.1235 0.01895,-0.247 0.02852,-0.3705 0.0095,-0.1329 0.0142,-0.2613 0.01426,-0.3847 0.01895,-0.4275 0.03321,-0.7409 0.04273,-0.9404 0.0095,-0.1329 0.01419,-0.2565 0.01427,-0.3704 0.02846,-0.4749 0.237442,-0.7124 0.626898,-0.7124 l 0.712385,0 0,3.0348 0,1.2395 -12.366974,0 -2.464848,0" />
    <path
       inkscape:connector-curvature="0"
       id="path3018"
       style="font-size:46.03571319999999645px;font-style:normal;font-variant:normal;font-weight:bold;font-stretch:normal;line-height:125%;letter-spacing:0px;word-spacing:0px;fill:#ee6f44;fill-opacity:1;stroke:none;font-family:Aleo;-inkscape-font-specification:Aleo Bold"
       d="m 77.837335,1039.8948 0,-1.7097 c 0,-0.5129 0.242211,-0.8168 0.726634,-0.9118 0.04745,-0.019 0.109228,-0.034 0.185216,-0.043 0.019,0 0.05225,0 0.09974,-0.015 0.04745,-0.01 0.09973,-0.019 0.156725,-0.028 0.05698,-0.01 0.11873,-0.019 0.185222,-0.029 0.06648,-0.01 0.194714,-0.029 0.384682,-0.057 0.189968,-0.038 0.346693,-0.072 0.470174,-0.1 l 0,-15.3162 c -0.132979,-0.028 -0.294456,-0.057 -0.484417,-0.086 -0.180471,-0.028 -0.303958,-0.047 -0.370439,-0.057 -0.237465,-0.047 -0.384693,-0.076 -0.441683,-0.086 -0.01899,0 -0.04272,0 -0.07124,0 -0.02852,-0.01 -0.05225,-0.014 -0.07123,-0.015 -0.01899,-0.01 -0.03319,-0.014 -0.04273,-0.015 -0.484423,-0.095 -0.726635,-0.3989 -0.726635,-0.9118 l 0,-1.724 2.208389,0 7.736483,0 c 1.605229,0 3.05849,0.2612 4.359784,0.7837 1.31078,0.5319 2.43634,1.2585 3.37671,2.1798 0.94032,0.9214 1.66694,2.0326 2.17989,3.334 0.51289,1.3013 0.76935,2.7212 0.76938,4.2601 -3e-5,1.5388 -0.25649,2.9587 -0.76938,4.26 -0.50344,1.2728 -1.23008,2.3841 -2.17989,3.334 -0.94037,0.9403 -2.06593,1.667 -3.37671,2.1798 -1.310795,0.513 -2.764056,0.7695 -4.359784,0.7695 l -7.736483,0 -2.208389,0 m 6.169242,-3.1203 3.77563,0 c 1.025825,0 1.951926,-0.171 2.7783,-0.5129 0.835853,-0.3419 1.533974,-0.8312 2.094404,-1.4675 0.57939,-0.6459 1.02107,-1.4248 1.32503,-2.3367 0.31344,-0.9309 0.47016,-1.9661 0.47018,-3.1059 -2e-5,-1.1589 -0.15674,-2.1989 -0.47018,-3.1203 -0.30396,-0.9118 -0.74564,-1.6907 -1.32503,-2.3366 -0.56043,-0.6364 -1.258551,-1.1256 -2.094404,-1.4675 -0.826374,-0.3419 -1.752475,-0.5129 -2.7783,-0.5129 l -3.77563,0 0,14.8603" />
    <path
       inkscape:connector-curvature="0"
       id="path3020"
       style="font-size:46.03571319999999645px;font-style:normal;font-variant:normal;font-weight:bold;font-stretch:normal;line-height:125%;letter-spacing:0px;word-spacing:0px;fill:#ee6f44;fill-opacity:1;stroke:none;font-family:Aleo;-inkscape-font-specification:Aleo Bold"
       d="m 99.32282,1029.3516 c 0,-1.5578 0.25645,-2.992 0.76937,-4.3028 0.50342,-1.3013 1.23004,-2.4412 2.17988,-3.4194 0.93085,-0.9594 2.06117,-1.7098 3.39096,-2.2512 1.32977,-0.5414 2.78304,-0.812 4.35978,-0.8121 1.59573,10e-5 3.04899,0.2707 4.35979,0.8121 1.30127,0.5414 2.42683,1.2918 3.37669,2.2512 0.93083,0.9498 1.65746,2.0896 2.1799,3.4194 0.51289,1.3297 0.76935,2.764 0.76937,4.3028 -2e-5,1.5387 -0.25648,2.9682 -0.76937,4.2885 -0.50344,1.3013 -1.23007,2.4411 -2.1799,3.4195 -0.94036,0.9688 -2.06593,1.724 -3.37669,2.2654 -1.29181,0.5319 -2.74506,0.7979 -4.35979,0.7979 -1.60525,0 -3.0585,-0.266 -4.35978,-0.7979 -1.3203,-0.5414 -2.4506,-1.2966 -3.39096,-2.2654 -0.94984,-0.9784 -1.67646,-2.1182 -2.17988,-3.4195 -0.51292,-1.3203 -0.76937,-2.7498 -0.76937,-4.2885 m 4.00359,0 c 0,1.1398 0.15672,2.1751 0.47018,3.1059 0.31344,0.9214 0.75986,1.7003 1.33928,2.3366 0.57939,0.6364 1.28228,1.1256 2.10865,1.4676 0.82635,0.3419 1.75245,0.5129 2.77829,0.5129 1.02582,0 1.95192,-0.171 2.77829,-0.5129 0.83586,-0.342 1.53399,-0.8312 2.09442,-1.4676 0.57937,-0.6458 1.02106,-1.4247 1.32502,-2.3366 0.30394,-0.9023 0.45591,-1.9376 0.45593,-3.1059 -2e-5,-1.1779 -0.15199,-2.2179 -0.45593,-3.1203 -0.30396,-0.9118 -0.74565,-1.6906 -1.32502,-2.3366 -0.57943,-0.6459 -1.27757,-1.1398 -2.09442,-1.4817 -0.82637,-0.3419 -1.75247,-0.513 -2.77829,-0.513 -1.02584,0 -1.95194,0.1711 -2.77829,0.513 -0.80738,0.3324 -1.51026,0.8264 -2.10865,1.4817 -0.57942,0.6364 -1.02584,1.4153 -1.33928,2.3366 -0.31346,0.9213 -0.47018,1.9615 -0.47018,3.1203" />
    <path
       inkscape:connector-curvature="0"
       id="path3022"
       style="font-size:46.03571319999999645px;font-style:normal;font-variant:normal;font-weight:bold;font-stretch:normal;line-height:125%;letter-spacing:0px;word-spacing:0px;fill:#ee6f44;fill-opacity:1;stroke:none;font-family:Aleo;-inkscape-font-specification:Aleo Bold"
       d="m 121.54918,1029.3516 c 0,-1.6053 0.2612,-3.0585 0.78361,-4.3599 0.52242,-1.3107 1.2633,-2.4458 2.22265,-3.4051 0.94983,-0.9594 2.08965,-1.7003 3.41944,-2.2226 1.33927,-0.532 2.80203,-0.7978 4.38827,-0.7979 1.7572,10e-5 3.96558,0.5082 6.62516,1.5245 l 0,5.3714 -1.68122,0 c -0.37995,0 -0.60791,-0.1805 -0.68389,-0.5415 -0.0476,-0.2943 -0.13299,-1.0637 -0.25645,-2.308 -1.61475,-0.475 -2.95878,-0.7125 -4.03209,-0.7125 -0.97835,0 -1.89021,0.1757 -2.73556,0.5272 -0.81686,0.342 -1.52925,0.8359 -2.13714,1.4817 -0.58891,0.6269 -1.05433,1.4059 -1.39626,2.3366 -0.34196,0.931 -0.51293,1.9662 -0.51293,3.1061 0,1.1778 0.17097,2.2321 0.51293,3.1629 0.35142,0.9498 0.8026,1.7288 1.35351,2.3366 0.56991,0.6269 1.24904,1.1114 2.03742,1.4533 0.75987,0.3324 1.59573,0.4987 2.50758,0.4987 0.5414,0 1.02582,-0.028 1.45328,-0.086 0.40842,-0.057 0.80734,-0.152 1.19679,-0.2849 0.35145,-0.1235 0.69338,-0.2851 1.02584,-0.4845 0.31343,-0.1899 0.63637,-0.4369 0.96884,-0.7409 0.076,-0.066 0.18045,-0.1377 0.31345,-0.2137 0.095,-0.047 0.20895,-0.072 0.34195,-0.072 0.21844,10e-5 0.40365,0.081 0.55565,0.2423 l 1.553,1.6811 c -0.85488,1.0545 -1.90921,1.8665 -3.16298,2.4365 -1.23483,0.5604 -2.73557,0.8406 -4.50227,0.8406 -1.57675,0 -2.98252,-0.266 -4.21732,-0.7979 -1.26328,-0.5414 -2.33186,-1.287 -3.20571,-2.2369 -0.89286,-0.9689 -1.572,-2.1039 -2.03742,-3.4052 -0.46542,-1.3107 -0.69813,-2.7545 -0.69813,-4.3313" />
    <path
       inkscape:connector-curvature="0"
       id="path3024"
       style="font-size:46.03571319999999645px;font-style:normal;font-variant:normal;font-weight:bold;font-stretch:normal;line-height:125%;letter-spacing:0px;word-spacing:0px;fill:#ee6f44;fill-opacity:1;stroke:none;font-family:Aleo;-inkscape-font-specification:Aleo Bold"
       d="m 140.22786,1039.0115 0,-0.5272 0,-4.9012 0.12824,0 0.34194,0 1.21104,0 c 0.37045,0 0.59365,0.1805 0.66964,0.5414 0.0664,0.4275 0.15673,1.2301 0.27071,2.4079 0.83586,0.2565 2.16564,0.3847 3.98935,0.3847 1.11131,0 1.97567,-0.266 2.59307,-0.7979 0.6079,-0.5224 0.91185,-1.2822 0.91185,-2.2796 0,-0.5414 -0.13773,-0.9926 -0.41317,-1.3535 -0.25648,-0.3325 -0.62216,-0.627 -1.09708,-0.8834 -0.42743,-0.228 -0.94985,-0.4322 -1.56725,-0.6127 -1.09233,-0.3229 -1.68596,-0.4986 -1.78095,-0.5271 -0.57941,-0.1899 -1.17307,-0.4275 -1.78096,-0.7124 -0.5984,-0.2754 -1.11606,-0.627 -1.55299,-1.0543 -0.45592,-0.4465 -0.82162,-0.9974 -1.09708,-1.6528 -0.28495,-0.6933 -0.42742,-1.5008 -0.42742,-2.4221 0,-0.7788 0.15671,-1.5291 0.47017,-2.2512 0.28495,-0.7027 0.73138,-1.3487 1.33928,-1.9376 0.56041,-0.5508 1.28228,-1.002 2.16565,-1.3535 0.85485,-0.3419 1.8332,-0.5128 2.93502,-0.5129 2.07064,10e-5 4.08907,0.3989 6.05525,1.1968 l 0,5.3998 -0.12823,0 -0.35619,0 -1.1968,0 c -0.37996,10e-5 -0.60791,-0.1804 -0.68389,-0.5414 -0.0475,-0.2754 -0.13298,-1.0637 -0.25645,-2.3651 -0.7504,-0.3323 -1.88071,-0.4987 -3.39096,-0.4987 -0.53191,0 -1.00683,0.066 -1.42476,0.1996 -0.40844,0.1329 -0.75038,0.3134 -1.02583,0.5414 -0.25646,0.2184 -0.46068,0.4986 -0.61265,0.8406 -0.14248,0.3229 -0.21371,0.6839 -0.21371,1.0827 0,0.4845 0.14247,0.8977 0.42742,1.2396 0.27545,0.3325 0.64114,0.6127 1.09707,0.8406 0.47493,0.2375 0.99733,0.4464 1.56726,0.6269 0.4844,0.152 1.07804,0.3515 1.78095,0.5985 0.56989,0.1994 1.16354,0.4416 1.78095,0.7266 0.60789,0.2754 1.13031,0.6221 1.56724,1.04 0.45592,0.4274 0.82162,0.9499 1.09707,1.5673 0.27545,0.6269 0.41318,1.3678 0.41318,2.2226 0,0.9689 -0.16147,1.8617 -0.48441,2.6785 -0.34195,0.8549 -0.81688,1.5816 -1.42477,2.18 -0.63639,0.6174 -1.40103,1.1018 -2.29387,1.4533 -0.88336,0.3514 -1.92344,0.5272 -3.12023,0.5272 l -0.42744,0 c -1.87119,0 -3.88961,-0.3705 -6.05526,-1.1114" />
    <path
       style="fill:#fdedcc;fill-opacity:1;stroke:none"
       d="m 163.55589,1052.36 0,-90 3.31679,0 0,90 z"
       id="rect3869"
       inkscape:connector-curvature="0" />
    <text
       transform="matrix(0,-1.0951951,0.91307931,0,0,0)"
       sodipodi:linespacing="125%"
       id="text3874"
       y="228.22252"
       x="-949.72717"
       style="font-size:39.34480286px;font-style:normal;font-variant:normal;font-weight:normal;font-stretch:normal;line-height:125%;letter-spacing:0px;word-spacing:0px;fill:#363948;fill-opacity:1;stroke:#363948;stroke-width:0.76965332;stroke-opacity:1;font-family:Sans;-inkscape-font-specification:Aleo Bold"
       xml:space="preserve"><tspan
         style="font-style:normal;font-variant:normal;font-weight:normal;font-stretch:normal;fill:#363948;fill-opacity:1;stroke:#363948;stroke-width:0.76965332;stroke-opacity:1;font-family:Aleo;-inkscape-font-specification:Aleo"
         y="228.22252"
         x="-949.72717"
         id="tspan3876"
         sodipodi:role="line">NA</tspan></text>
  </g>
</svg>
