<?xml version="1.0" encoding="UTF-8"?>
<svg width="24px" height="24px" viewBox="0 0 24 24" version="1.1" xmlns="http://www.w3.org/2000/svg" xmlns:xlink="http://www.w3.org/1999/xlink">
    <!-- Generator: Sketch 48.2 (47327) - http://www.bohemiancoding.com/sketch -->
    <title>Page 1</title>
    <desc>Created with Sketch.</desc>
    <defs></defs>
    <g id="Mobile-Footer" stroke="none" stroke-width="1" fill="none" fill-rule="evenodd" transform="translate(-130.000000, -951.000000)">
        <g fill="#FFFFFF" id="Group-2">
            <g transform="translate(17.000000, 951.000000)">
                <g id="Page-1" transform="translate(113.000000, 0.000000)">
                    <path d="M20.25,0 C22.32,0 24,1.68 24,3.75 L24,20.25 C24,22.321 22.32,24 20.25,24 L3.75,24 C1.68,24 0,22.321 0,20.25 L0,3.75 C0,1.68 1.68,0 3.75,0 L20.25,0 Z M12.605086,9.26989826 C12.9812484,10.3892482 13.351518,11.4840294 13.7296447,12.6063276 C12.6168717,12.9817374 11.5178488,13.3522333 10.3972187,13.7315741 C10.0200741,12.6151724 9.64784024,11.5144946 9.27069565,10.3961274 C10.3844508,10.0207177 11.4795451,9.65120448 12.605086,9.26989826 Z M8.38283443,7.71322547 C8.36024504,7.66801907 8.34256638,7.64050212 8.33372706,7.61200243 C8.16970845,7.10981822 8.00568984,6.60763401 7.84363552,6.10544979 C7.60792015,5.37133706 6.8830954,4.94187619 6.18184217,5.12073632 C5.40201717,5.32023416 4.95219367,6.00717499 5.10540866,6.78944238 C5.14862314,7.00957793 5.23505211,7.21988599 5.30576672,7.43412505 C5.43246373,7.81739676 5.56210719,8.19968572 5.69175064,8.58983667 C5.63773253,8.61145712 5.60335738,8.62619834 5.56898222,8.63799132 C5.01406895,8.82864442 4.45915569,9.01340104 3.90915317,9.21093339 C3.29629321,9.43008618 2.92013077,10.0865618 3.01441691,10.7440202 C3.10968521,11.3985304 3.66361632,11.9007146 4.32067291,11.9400245 C4.72924622,11.9636105 5.08576571,11.7827848 5.45898171,11.6678033 C5.83710845,11.5528218 6.2113066,11.4230991 6.59532622,11.2973073 C6.97148866,12.4156745 7.34175822,13.5124213 7.71497422,14.61703 C7.66193826,14.6425814 7.62363451,14.6651846 7.58336647,14.6789431 C7.08148916,14.8440448 6.57961186,15.0071809 6.0787167,15.1722826 C5.36764201,15.4071594 4.94924723,16.1255481 5.12210517,16.8164199 C5.3136239,17.5888599 5.99719847,18.0527169 6.76621986,17.900391 C7.07166769,17.8394606 7.36729405,17.7185826 7.66783114,17.6203078 C7.97622542,17.5210502 8.28363754,17.416879 8.5979247,17.3127077 C8.8031935,17.9121839 8.99373009,18.485126 9.19703459,19.0551198 C9.46417868,19.8059393 10.2273072,20.1705388 10.9973107,19.9228863 C11.7015104,19.6948888 12.0933872,18.9332591 11.8802612,18.1961981 C11.8144573,17.9731143 11.7358855,17.7549443 11.6641888,17.5348087 C11.5424025,17.16333 11.4215984,16.7908685 11.2958835,16.410545 C12.4145494,16.0331698 13.5145544,15.6616911 14.6273274,15.2852986 C14.8129532,15.8444822 14.9926862,16.3810626 15.1684906,16.9186257 C15.4032238,17.6321008 16.1152807,18.0546824 16.803766,17.8876152 C17.5826088,17.6979449 18.0452002,17.0041248 17.8959138,16.2267712 C17.8526993,16.0017219 17.7643061,15.7835518 17.6926093,15.5624335 C17.5668945,15.1801446 17.437251,14.7988384 17.3066254,14.4067219 C17.9126103,14.1983793 18.496988,14.0037952 19.0784193,13.7944699 C19.8523514,13.5163523 20.2186924,12.6082931 19.8641372,11.8682839 C19.5331535,11.1754466 18.8152038,10.9042081 18.030468,11.1685673 C17.4951977,11.349393 16.9589452,11.5243221 16.4069784,11.7071132 C16.0298338,10.5916943 15.6585821,9.49101656 15.2853661,8.38247684 C15.3344735,8.35889089 15.3678665,8.33923593 15.4032238,8.32744296 C15.904119,8.16332405 16.4069784,8.00215338 16.9078736,7.83606897 C17.4510011,7.65622609 17.8016277,7.28573011 17.8890388,6.72163277 C17.9823428,6.12117376 17.7613596,5.62685153 17.2486787,5.28878623 C16.8067124,4.99887557 16.3401924,5.02639252 15.8589402,5.2023044 C15.384563,5.37821629 14.8993822,5.52562849 14.411255,5.68876465 C14.3896477,5.63667901 14.3749155,5.60326558 14.3621476,5.56788665 C14.171611,5.01361679 13.9879495,4.45836419 13.7895557,3.90605983 C13.5292866,3.18177457 12.7661581,2.83191629 12.0059761,3.07858604 C11.305705,3.30658356 10.9020424,4.07116149 11.1151684,4.78561926 C11.2084724,5.09223663 11.3194551,5.39590575 11.4225805,5.70055763 C11.5217774,5.99636477 11.6209743,6.29217191 11.7240998,6.59289279 C10.592666,6.9722335 9.48971451,7.34174674 8.38283443,7.71322547 Z" id="Combined-Shape"></path>
                </g>
            </g>
        </g>
    </g>
</svg>