<svg width="660" height="669" viewBox="0 0 660 669" fill="none" xmlns="http://www.w3.org/2000/svg">
<style type="text/css">
  <![CDATA[
    @font-face{font-family:"tabular-numbers";src:local("charter"),local("cambria");unicode-range:U+0030-0039}
    text{font-family:'tabular-numbers',georgia,bitstream charter,serif !important}
  ]]>
</style>
<g id="work-location-unchanged">
<g id="Legend">
<g id="Positive">
<rect id="Rectangle 1" x="106" y="570" width="20" height="20" fill="#1E73BE"/>
<text id="Remote - Required (45%) or Not Required (38.7%) : 83.7%" fill="black" xml:space="preserve" style="white-space: pre" font-family="Georgia" font-size="16" letter-spacing="0em"><tspan x="136" y="584.582">Remote - Required (45%) or Not Required (38.7%) : 83.7%</tspan></text>
</g>
<g id="Neutral">
<rect id="Rectangle 1_2" x="106" y="600" width="20" height="20" fill="#F35DA3"/>
<text id="Partially Remote and Partially Onsite: 6.3%" fill="black" xml:space="preserve" style="white-space: pre" font-family="Georgia" font-size="16" letter-spacing="0em"><tspan x="136" y="614.582">Partially Remote and Partially Onsite: 6.3%</tspan></text>
</g>
<g id="Negative">
<rect id="Rectangle 1_3" x="106" y="630" width="20" height="20" fill="#FFA600"/>
<text id="Onsite - Required (5%) or Not Required (5%) : 10%" fill="black" xml:space="preserve" style="white-space: pre" font-family="Georgia" font-size="16" letter-spacing="0em"><tspan x="136" y="644.582">Onsite - Required (5%) or Not Required (5%) : 10%</tspan></text>
</g>
</g>
<g id="Labels">
<g id="Remote">
<g id="Label">
<g id="Frame 1">
<circle id="end point" cx="622" cy="500" r="4" transform="rotate(-180 622 500)" fill="#1E73BE"/>
<g id="connector-frame">
<path id="connector" d="M618 500.5H457V499.5H618V500.5ZM436.5 480V461H437.5V480H436.5ZM457 500.5C445.678 500.5 436.5 491.322 436.5 480H437.5C437.5 490.77 446.23 499.5 457 499.5V500.5Z" fill="#1E73BE"/>
</g>
</g>
<circle id="start point" cx="437" cy="453" r="8" transform="rotate(-180 437 453)" fill="#1E73BE"/>
</g>
<g id="Frame 2">
<g id="83.7%">
<text fill="black" xml:space="preserve" style="white-space: pre" font-family="Georgia" font-size="26" letter-spacing="0em"><tspan x="523.42" y="490.071">83.7</tspan></text>
<text fill="black" xml:space="preserve" style="white-space: pre" font-family="Georgia" font-size="26" letter-spacing="0em"><tspan x="574.328" y="490.071">%</tspan></text>
</g>
<text id="Remote_2" fill="black" xml:space="preserve" style="white-space: pre" font-family="Georgia" font-size="20" letter-spacing="0em"><tspan x="525.154" y="527.478">Remote</tspan></text>
</g>
</g>
<g id="Negative_2">
<g id="Label_2">
<g id="Frame 1_2">
<circle id="end point_2" r="4" transform="matrix(-1 0 0 1 479 60)" fill="#FFA600"/>
<g id="connector-frame_2">
<path id="connector_2" d="M475 59.5H314V60.5H475V59.5ZM293.5 80V99H294.5V80H293.5ZM314 59.5C302.678 59.5 293.5 68.6782 293.5 80H294.5C294.5 69.2304 303.23 60.5 314 60.5V59.5Z" fill="#FFA600"/>
</g>
</g>
<circle id="start point_2" r="8" transform="matrix(-1 0 0 1 294 107)" fill="#FFA600"/>
</g>
<g id="Frame 2_2">
<text id="Onsite" fill="black" xml:space="preserve" style="white-space: pre" font-family="Georgia" font-size="20" letter-spacing="0em"><tspan x="380.604" y="48.4775">Onsite</tspan></text>
<g id="10%">
<text fill="black" xml:space="preserve" style="white-space: pre" font-family="Georgia" font-size="26" letter-spacing="0em"><tspan x="385.785" y="90.0708">10</tspan></text>
<text fill="black" xml:space="preserve" style="white-space: pre" font-family="Georgia" font-size="26" letter-spacing="0em"><tspan x="411.963" y="90.0708">%</tspan></text>
</g>
</g>
</g>
<g id="Partial">
<g id="Frame 2_3">
<text id="Partial_2" fill="black" xml:space="preserve" style="white-space: pre" font-family="Georgia" font-size="20" letter-spacing="0em"><tspan x="66.9688" y="97.4775">Partial</tspan></text>
<text id="6.3%" fill="black" xml:space="preserve" style="white-space: pre" font-family="Georgia" font-size="26" letter-spacing="0em"><tspan x="67.834" y="139.071">6.3%</tspan></text>
</g>
<circle id="start point_3" r="8" transform="matrix(1 0 0 -1 204 151)" fill="#F35DA3"/>
<g id="connector-frame_3">
<path id="connector_3" d="M50 108.5H183V109.5H50V108.5ZM203.5 129V148H202.5V129H203.5ZM183 108.5C194.322 108.5 203.5 117.678 203.5 129H202.5C202.5 118.23 193.77 109.5 183 109.5V108.5Z" fill="#F35DA3"/>
</g>
<g id="Label_3">
<g id="Frame 1_3">
<circle id="end point_3" r="4" transform="matrix(1 0 0 -1 48 109)" fill="#F35DA3"/>
</g>
</g>
</g>
</g>
<g id="Donut chart">
<path id="Donut_1" d="M329.5 101C372.066 101 413.431 115.108 447.126 141.118C480.821 167.127 504.945 203.571 515.725 244.749C526.504 285.927 523.332 329.517 506.704 368.7C490.075 407.884 460.929 440.451 423.823 461.308C386.718 482.164 343.745 490.135 301.628 483.972C259.511 477.809 220.624 457.86 191.05 427.246C161.476 396.632 142.883 357.079 138.179 314.774C133.475 272.469 142.925 229.798 165.052 193.435L267.565 255.813C259.232 269.508 255.672 285.579 257.444 301.512C259.216 317.445 266.218 332.342 277.357 343.872C288.495 355.402 303.141 362.915 319.003 365.236C334.865 367.557 351.049 364.555 365.024 356.7C378.999 348.845 389.976 336.58 396.239 321.822C402.502 307.065 403.696 290.648 399.637 275.139C395.577 259.631 386.491 245.905 373.801 236.109C361.11 226.313 345.531 221 329.5 221L329.5 101Z" fill="#1E73BE"/>
<path id="Donut_2" d="M165.052 193.435C186.183 158.707 217.767 131.56 255.275 115.885L301.545 226.606C287.419 232.51 275.524 242.734 267.565 255.813L165.052 193.435Z" fill="#F35DA3"/>
<path id="Donut_3" d="M255.275 115.885C278.788 106.06 304.017 101 329.5 101V221C319.902 221 310.401 222.906 301.545 226.606L255.275 115.885Z" fill="#FFA600"/>
</g>
</g>
</svg>
