<?xml version="1.0" encoding="UTF-8" standalone="no"?>
<!-- Created with Inkscape (http://www.inkscape.org/) -->

<svg
   xmlns:dc="http://purl.org/dc/elements/1.1/"
   xmlns:cc="http://creativecommons.org/ns#"
   xmlns:rdf="http://www.w3.org/1999/02/22-rdf-syntax-ns#"
   xmlns:svg="http://www.w3.org/2000/svg"
   xmlns="http://www.w3.org/2000/svg"
   xmlns:xlink="http://www.w3.org/1999/xlink"
   xmlns:sodipodi="http://sodipodi.sourceforge.net/DTD/sodipodi-0.dtd"
   xmlns:inkscape="http://www.inkscape.org/namespaces/inkscape"
   width="1500"
   height="400"
   id="svg2"
   version="1.1"
   inkscape:version="0.48.5 r10040"
   sodipodi:docname="email-eu-logo-composition.svg"
   inkscape:export-filename="/home/anthony/sync/Dropbox/Write the Docs/assets/2015/site-logo.png"
   inkscape:export-xdpi="90"
   inkscape:export-ydpi="90">
  <defs
     id="defs4">
    <linearGradient
       id="linearGradient7009">
      <stop
         style="stop-color:#f2f0eb;stop-opacity:1;"
         offset="0"
         id="stop7011" />
      <stop
         style="stop-color:#f2f0eb;stop-opacity:0;"
         offset="1"
         id="stop7013" />
    </linearGradient>
    <linearGradient
       id="linearGradient3902">
      <stop
         style="stop-color:#ad7878;stop-opacity:1;"
         offset="0"
         id="stop3904" />
      <stop
         style="stop-color:#b58579;stop-opacity:1;"
         offset="1"
         id="stop3906" />
    </linearGradient>
    <linearGradient
       id="linearGradient3779">
      <stop
         style="stop-color:#bab3c3;stop-opacity:1;"
         offset="0"
         id="stop3781" />
      <stop
         style="stop-color:#b0b2c7;stop-opacity:1;"
         offset="1"
         id="stop3783" />
    </linearGradient>
    <linearGradient
       inkscape:collect="always"
       xlink:href="#linearGradient3779"
       id="linearGradient3785"
       x1="895.00568"
       y1="332.82974"
       x2="903.14038"
       y2="461.40115"
       gradientUnits="userSpaceOnUse"
       gradientTransform="matrix(3.1356151,0,0,3.1356151,-1786.9243,-458.78499)" />
    <linearGradient
       inkscape:collect="always"
       xlink:href="#linearGradient3902"
       id="linearGradient3908"
       x1="637.91107"
       y1="903.00262"
       x2="721.3111"
       y2="903.00262"
       gradientUnits="userSpaceOnUse" />
    <linearGradient
       inkscape:collect="always"
       xlink:href="#linearGradient3902"
       id="linearGradient3910"
       x1="550.28607"
       y1="909.00262"
       x2="627.08606"
       y2="909.00262"
       gradientUnits="userSpaceOnUse" />
    <linearGradient
       inkscape:collect="always"
       xlink:href="#linearGradient3902"
       id="linearGradient3912"
       x1="446.50562"
       y1="908.70264"
       x2="539.3056"
       y2="908.70264"
       gradientUnits="userSpaceOnUse" />
    <linearGradient
       inkscape:collect="always"
       xlink:href="#linearGradient3902"
       id="linearGradient3914"
       x1="354.63214"
       y1="907.70264"
       x2="434.43213"
       y2="907.70264"
       gradientUnits="userSpaceOnUse"
       gradientTransform="translate(0,-252.36218)" />
    <linearGradient
       inkscape:collect="always"
       xlink:href="#linearGradient3779"
       id="linearGradient4341"
       gradientUnits="userSpaceOnUse"
       gradientTransform="matrix(3.1356151,0,0,3.1356151,-1786.9243,-458.78499)"
       x1="895.00568"
       y1="332.82974"
       x2="903.14038"
       y2="461.40115" />
    <linearGradient
       inkscape:collect="always"
       xlink:href="#linearGradient3779"
       id="linearGradient4343"
       gradientUnits="userSpaceOnUse"
       gradientTransform="matrix(3.1356151,0,0,3.1356151,-1786.9243,-458.78499)"
       x1="895.00568"
       y1="332.82974"
       x2="903.14038"
       y2="461.40115" />
    <linearGradient
       inkscape:collect="always"
       xlink:href="#linearGradient3779"
       id="linearGradient4345"
       gradientUnits="userSpaceOnUse"
       gradientTransform="matrix(3.1356151,0,0,3.1356151,-1786.9243,-458.78499)"
       x1="895.00568"
       y1="332.82974"
       x2="903.14038"
       y2="461.40115" />
    <linearGradient
       inkscape:collect="always"
       xlink:href="#linearGradient3779"
       id="linearGradient4347"
       gradientUnits="userSpaceOnUse"
       gradientTransform="matrix(3.1356151,0,0,3.1356151,-1786.9243,-458.78499)"
       x1="895.00568"
       y1="332.82974"
       x2="903.14038"
       y2="461.40115" />
    <linearGradient
       inkscape:collect="always"
       xlink:href="#linearGradient3779"
       id="linearGradient4349"
       gradientUnits="userSpaceOnUse"
       gradientTransform="matrix(3.1356151,0,0,3.1356151,-1786.9243,-458.78499)"
       x1="895.00568"
       y1="332.82974"
       x2="903.14038"
       y2="461.40115" />
    <linearGradient
       inkscape:collect="always"
       xlink:href="#linearGradient3779"
       id="linearGradient4351"
       gradientUnits="userSpaceOnUse"
       gradientTransform="matrix(3.1356151,0,0,3.1356151,-1786.9243,-458.78499)"
       x1="895.00568"
       y1="332.82974"
       x2="903.14038"
       y2="461.40115" />
    <linearGradient
       inkscape:collect="always"
       xlink:href="#linearGradient3779"
       id="linearGradient4353"
       gradientUnits="userSpaceOnUse"
       gradientTransform="matrix(3.1356151,0,0,3.1356151,-1786.9243,-458.78499)"
       x1="895.00568"
       y1="332.82974"
       x2="903.14038"
       y2="461.40115" />
    <linearGradient
       inkscape:collect="always"
       xlink:href="#linearGradient3779"
       id="linearGradient4355"
       gradientUnits="userSpaceOnUse"
       gradientTransform="matrix(3.1356151,0,0,3.1356151,-1786.9243,-458.78499)"
       x1="895.00568"
       y1="332.82974"
       x2="903.14038"
       y2="461.40115" />
    <linearGradient
       inkscape:collect="always"
       xlink:href="#linearGradient3779"
       id="linearGradient4357"
       gradientUnits="userSpaceOnUse"
       gradientTransform="matrix(3.1356151,0,0,3.1356151,-1786.9243,-458.78499)"
       x1="895.00568"
       y1="332.82974"
       x2="903.14038"
       y2="461.40115" />
    <linearGradient
       inkscape:collect="always"
       xlink:href="#linearGradient3779"
       id="linearGradient4359"
       gradientUnits="userSpaceOnUse"
       gradientTransform="matrix(3.1356151,0,0,3.1356151,-1786.9243,-458.78499)"
       x1="895.00568"
       y1="332.82974"
       x2="903.14038"
       y2="461.40115" />
    <linearGradient
       inkscape:collect="always"
       xlink:href="#linearGradient3779"
       id="linearGradient4361"
       gradientUnits="userSpaceOnUse"
       gradientTransform="matrix(3.1356151,0,0,3.1356151,-1786.9243,-458.78499)"
       x1="895.00568"
       y1="332.82974"
       x2="903.14038"
       y2="461.40115" />
    <linearGradient
       inkscape:collect="always"
       xlink:href="#linearGradient3779"
       id="linearGradient4363"
       gradientUnits="userSpaceOnUse"
       gradientTransform="matrix(3.1356151,0,0,3.1356151,-1786.9243,-458.78499)"
       x1="895.00568"
       y1="332.82974"
       x2="903.14038"
       y2="461.40115" />
    <linearGradient
       inkscape:collect="always"
       xlink:href="#linearGradient3779"
       id="linearGradient4365"
       gradientUnits="userSpaceOnUse"
       gradientTransform="matrix(3.1356151,0,0,3.1356151,-1786.9243,-458.78499)"
       x1="895.00568"
       y1="332.82974"
       x2="903.14038"
       y2="461.40115" />
    <linearGradient
       inkscape:collect="always"
       xlink:href="#linearGradient3779"
       id="linearGradient4367"
       gradientUnits="userSpaceOnUse"
       gradientTransform="matrix(3.1356151,0,0,3.1356151,-1786.9243,-458.78499)"
       x1="895.00568"
       y1="332.82974"
       x2="903.14038"
       y2="461.40115" />
    <linearGradient
       inkscape:collect="always"
       xlink:href="#linearGradient3779"
       id="linearGradient4369"
       gradientUnits="userSpaceOnUse"
       gradientTransform="matrix(3.1356151,0,0,3.1356151,-1786.9243,-458.78499)"
       x1="895.00568"
       y1="332.82974"
       x2="903.14038"
       y2="461.40115" />
    <linearGradient
       inkscape:collect="always"
       xlink:href="#linearGradient3779"
       id="linearGradient4371"
       gradientUnits="userSpaceOnUse"
       gradientTransform="matrix(3.1356151,0,0,3.1356151,-1786.9243,-458.78499)"
       x1="895.00568"
       y1="332.82974"
       x2="903.14038"
       y2="461.40115" />
    <linearGradient
       inkscape:collect="always"
       xlink:href="#linearGradient3779"
       id="linearGradient4373"
       gradientUnits="userSpaceOnUse"
       gradientTransform="matrix(3.1356151,0,0,3.1356151,-1786.9243,-458.78499)"
       x1="895.00568"
       y1="332.82974"
       x2="903.14038"
       y2="461.40115" />
    <linearGradient
       inkscape:collect="always"
       xlink:href="#linearGradient3779"
       id="linearGradient4375"
       gradientUnits="userSpaceOnUse"
       gradientTransform="matrix(3.1356151,0,0,3.1356151,-1786.9243,-458.78499)"
       x1="895.00568"
       y1="332.82974"
       x2="903.14038"
       y2="461.40115" />
    <linearGradient
       inkscape:collect="always"
       xlink:href="#linearGradient3779"
       id="linearGradient4377"
       gradientUnits="userSpaceOnUse"
       gradientTransform="matrix(3.1356151,0,0,3.1356151,-1786.9243,-458.78499)"
       x1="895.00568"
       y1="332.82974"
       x2="903.14038"
       y2="461.40115" />
    <linearGradient
       inkscape:collect="always"
       xlink:href="#linearGradient3779"
       id="linearGradient4379"
       gradientUnits="userSpaceOnUse"
       gradientTransform="matrix(3.1356151,0,0,3.1356151,-1786.9243,-458.78499)"
       x1="895.00568"
       y1="332.82974"
       x2="903.14038"
       y2="461.40115" />
    <linearGradient
       inkscape:collect="always"
       xlink:href="#linearGradient3779"
       id="linearGradient4381"
       gradientUnits="userSpaceOnUse"
       gradientTransform="matrix(3.1356151,0,0,3.1356151,-1786.9243,-458.78499)"
       x1="895.00568"
       y1="332.82974"
       x2="903.14038"
       y2="461.40115" />
    <linearGradient
       inkscape:collect="always"
       xlink:href="#linearGradient3779"
       id="linearGradient4383"
       gradientUnits="userSpaceOnUse"
       gradientTransform="matrix(3.1356151,0,0,3.1356151,-1786.9243,-458.78499)"
       x1="895.00568"
       y1="332.82974"
       x2="903.14038"
       y2="461.40115" />
    <linearGradient
       inkscape:collect="always"
       xlink:href="#linearGradient3779"
       id="linearGradient4919"
       x1="133.19279"
       y1="915.35468"
       x2="1366.8073"
       y2="915.35468"
       gradientUnits="userSpaceOnUse" />
    <linearGradient
       inkscape:collect="always"
       xlink:href="#linearGradient3779"
       id="linearGradient5014"
       gradientUnits="userSpaceOnUse"
       x1="133.19279"
       y1="915.35468"
       x2="1366.8073"
       y2="915.35468"
       gradientTransform="matrix(0.99236306,0,0,0.99236306,5.5650495,7.3891079)" />
    <linearGradient
       inkscape:collect="always"
       xlink:href="#linearGradient3779"
       id="linearGradient5040"
       gradientUnits="userSpaceOnUse"
       gradientTransform="matrix(0.7376871,0,0,0.7376871,41.726388,246.90525)"
       x1="133.19279"
       y1="915.35468"
       x2="1366.8073"
       y2="915.35468" />
    <linearGradient
       inkscape:collect="always"
       xlink:href="#linearGradient3902"
       id="linearGradient7015"
       x1="1315.302"
       y1="778.05615"
       x2="1317.4005"
       y2="842.11865"
       gradientUnits="userSpaceOnUse" />
  </defs>
  <sodipodi:namedview
     id="base"
     pagecolor="#424670"
     bordercolor="#666666"
     borderopacity="1.0"
     inkscape:pageopacity="1"
     inkscape:pageshadow="2"
     inkscape:zoom="0.64"
     inkscape:cx="806.66296"
     inkscape:cy="76.355519"
     inkscape:document-units="px"
     inkscape:current-layer="layer1"
     showgrid="false"
     showguides="true"
     inkscape:guide-bbox="true"
     inkscape:window-width="1914"
     inkscape:window-height="1035"
     inkscape:window-x="0"
     inkscape:window-y="26"
     inkscape:window-maximized="0"
     inkscape:snap-nodes="true"
     inkscape:snap-to-guides="false">
    <sodipodi:guide
       orientation="1,0"
       position="137.17872,251.52798"
       id="guide5012" />
    <sodipodi:guide
       orientation="1,0"
       position="1361.8877,224.85996"
       id="guide5016" />
  </sodipodi:namedview>
  <metadata
     id="metadata7">
    <rdf:RDF>
      <cc:Work
         rdf:about="">
        <dc:format>image/svg+xml</dc:format>
        <dc:type
           rdf:resource="http://purl.org/dc/dcmitype/StillImage" />
        <dc:title></dc:title>
      </cc:Work>
    </rdf:RDF>
  </metadata>
  <g
     inkscape:label="Layer 1"
     inkscape:groupmode="layer"
     id="layer1"
     transform="translate(0,-652.36218)">
    <g
       id="g5018"
       transform="translate(0,11.152121)">
      <g
         transform="translate(-74.114,-24.881011)"
         id="g4901">
        <g
           id="text4385"
           style="font-size:128px;font-style:normal;font-variant:normal;font-weight:normal;font-stretch:normal;line-height:125%;letter-spacing:0px;word-spacing:0px;fill:#f2f0eb;fill-opacity:1;stroke:none;font-family:Bree Serif;-inkscape-font-specification:Bree Serif">
          <path
             id="path4922"
             d="m 325.64,779.61018 -4.224,0.384 c -2.21877,0.17074 -3.62677,1.70674 -4.224,4.608 l -16.128,69.76 -17.536,0 -13.44,-56.96 -0.384,0 -13.056,56.96 -18.048,0 -17.664,-73.856 -7.296,-0.384 0,-10.88 31.744,0 0,10.368 -4.224,0.384 c -2.64536,0.25608 -3.96802,1.36541 -3.968,3.328 -2e-5,0.34141 0.0426,0.72541 0.128,1.152 l 11.136,49.408 0.512,0 13.312,-57.856 16.512,0 13.824,58.112 0.256,0 10.88,-53.504 -6.912,-0.512 0,-10.88 28.8,0 0,10.368"
             inkscape:connector-curvature="0" />
          <path
             id="path4924"
             d="m 330.346,854.36218 0,-10.368 4.224,-0.384 c 2.47466,-0.25599 3.71199,-1.45065 3.712,-3.584 l 0,-59.52 -7.296,-0.384 0,-10.88 34.944,0 c 9.89862,9e-5 17.49328,1.83475 22.784,5.504 5.2906,3.66941 7.93593,9.68541 7.936,18.048 -7e-5,5.80273 -1.53607,10.58139 -4.608,14.336 -2.98673,3.75471 -6.57073,6.48538 -10.752,8.192 3.07194,1.10937 5.50394,3.71204 7.296,7.808 l 9.216,20.096 7.296,0.256 0,10.88 -31.616,0 0,-10.368 3.712,-0.384 c 1.96261,-0.25599 2.94395,-1.02399 2.944,-2.304 -5e-5,-0.51198 -0.17072,-1.10932 -0.512,-1.792 l -6.016,-12.8 c -0.93871,-2.1333 -2.00538,-3.62663 -3.2,-4.48 -1.10938,-0.93863 -2.73071,-1.40796 -4.864,-1.408 l -11.648,0 0,22.272 8.32,0.384 0,10.88 -31.872,0 m 23.552,-45.696 11.136,0 c 10.49595,5e-5 15.74395,-4.69328 15.744,-14.08 -5e-5,-5.37593 -1.40805,-8.8746 -4.224,-10.496 -2.73071,-1.62126 -7.16804,-2.43192 -13.312,-2.432 l -9.344,0 0,27.008"
             inkscape:connector-curvature="0" />
          <path
             id="path4926"
             d="m 418.532,839.38618 0,-58.88 -7.296,-0.384 0,-10.88 30.976,0 0,10.368 -4.224,0.384 c -2.4747,0.25608 -3.71203,1.62141 -3.712,4.096 l 0,59.008 7.296,0.384 0,10.88 -30.976,0 0,-10.368 4.224,-0.384 c 1.27999,-0.17065 2.21866,-0.51199 2.816,-1.024 0.59732,-0.59732 0.89599,-1.66398 0.896,-3.2"
             inkscape:connector-curvature="0" />
          <path
             id="path4928"
             d="m 473.654,840.02618 0,-58.112 -9.984,0 c -1.96268,8e-5 -2.94401,1.32274 -2.944,3.968 l 0,6.016 -13.056,-0.896 0,-21.76 66.944,0 0,21.76 -13.056,0.896 0,-6.016 c -6e-5,-1.45059 -0.21339,-2.47459 -0.64,-3.072 -0.42672,-0.59726 -1.45072,-0.89592 -3.072,-0.896 l -8.704,0 0,61.184 10.112,0.384 0,10.88 -36.096,0 0,-10.368 6.784,-0.384 c 2.47464,-0.25599 3.71197,-1.45065 3.712,-3.584"
             inkscape:connector-curvature="0" />
          <path
             id="path4930"
             d="m 581.652,854.36218 -60.8,0 0,-10.368 4.224,-0.384 c 2.47466,-0.25599 3.71199,-1.45065 3.712,-3.584 l 0,-59.52 -7.296,-0.384 0,-10.88 58.624,0 0,21.248 -13.056,0.896 0,-5.12 c -5e-5,-1.45059 -0.21338,-2.47459 -0.64,-3.072 -0.42672,-0.59726 -1.45072,-0.89593 -3.072,-0.896 l -18.944,0 0,21.888 29.568,0 0,13.056 -29.568,0 0,23.936 20.608,0 c 1.53595,2e-5 2.51728,-0.29865 2.944,-0.896 0.42661,-0.68265 0.63995,-1.74931 0.64,-3.2 l 0,-6.4 13.056,0.896 0,22.784"
             inkscape:connector-curvature="0" />
          <path
             id="path4932"
             d="m 640.154,840.02618 0,-58.112 -9.984,0 c -1.96268,8e-5 -2.94401,1.32274 -2.944,3.968 l 0,6.016 -13.056,-0.896 0,-21.76 66.944,0 0,21.76 -13.056,0.896 0,-6.016 c -6e-5,-1.45059 -0.21339,-2.47459 -0.64,-3.072 -0.42672,-0.59726 -1.45072,-0.89592 -3.072,-0.896 l -8.704,0 0,61.184 10.112,0.384 0,10.88 -36.096,0 0,-10.368 6.784,-0.384 c 2.47464,-0.25599 3.71197,-1.45065 3.712,-3.584"
             inkscape:connector-curvature="0" />
          <path
             id="path4934"
             d="m 746.872,839.38618 0,-22.144 -36.224,0 0,25.856 7.424,0.384 0,10.88 -30.976,0 0,-10.368 4.224,-0.384 c 2.47466,-0.25599 3.71199,-1.45065 3.712,-3.584 l 0,-59.52 -7.296,-0.384 0,-10.88 30.976,0 0,10.368 -4.224,0.384 c -1.36536,0.17074 -2.3467,0.55474 -2.944,1.152 -0.59736,0.51208 -0.89603,1.53607 -0.896,3.072 l 0,19.84 36.224,0 0,-23.552 -7.296,-0.384 0,-10.88 30.976,0 0,10.368 -4.224,0.384 c -2.47475,0.25608 -3.71208,1.62141 -3.712,4.096 l 0,59.008 7.296,0.384 0,10.88 -30.976,0 0,-10.368 4.224,-0.384 c 1.27994,-0.17065 2.2186,-0.51199 2.816,-1.024 0.59727,-0.59732 0.89594,-1.66398 0.896,-3.2"
             inkscape:connector-curvature="0" />
          <path
             id="path4936"
             d="m 837.402,854.36218 -60.8,0 0,-10.368 4.224,-0.384 c 2.47466,-0.25599 3.71199,-1.45065 3.712,-3.584 l 0,-59.52 -7.296,-0.384 0,-10.88 58.624,0 0,21.248 -13.056,0.896 0,-5.12 c -5e-5,-1.45059 -0.21338,-2.47459 -0.64,-3.072 -0.42672,-0.59726 -1.45072,-0.89593 -3.072,-0.896 l -18.944,0 0,21.888 29.568,0 0,13.056 -29.568,0 0,23.936 20.608,0 c 1.53595,2e-5 2.51728,-0.29865 2.944,-0.896 0.42661,-0.68265 0.63995,-1.74931 0.64,-3.2 l 0,-6.4 13.056,0.896 0,22.784"
             inkscape:connector-curvature="0" />
          <path
             id="path4938"
             d="m 872.352,854.36218 0,-10.368 4.224,-0.384 c 2.47466,-0.25599 3.71199,-1.45065 3.712,-3.584 l 0,-59.52 -7.296,-0.384 0,-10.88 35.072,0 c 12.54395,9e-5 22.3146,3.32808 29.312,9.984 7.08259,6.65607 10.62392,16.51206 10.624,29.568 -8e-5,8.10671 -1.06675,15.18937 -3.2,21.248 -2.13341,5.97335 -5.03474,10.66668 -8.704,14.08 -7.33873,6.82667 -16.46938,10.24 -27.392,10.24 l -36.352,0 m 23.552,-72.704 0,60.416 13.056,0 c 7.33862,1e-5 13.05595,-2.64532 17.152,-7.936 4.09594,-5.29064 6.14394,-12.97063 6.144,-23.04 -6e-5,-19.6266 -8.32006,-29.43992 -24.96,-29.44 l -11.392,0"
             inkscape:connector-curvature="0" />
          <path
             id="path4940"
             d="m 993.16,767.70618 c 10.1546,9e-5 18.6453,3.58409 25.472,10.752 6.8266,7.16807 10.2399,18.13339 10.24,32.896 -10e-5,14.67736 -3.4134,25.81335 -10.24,33.408 -6.7414,7.50934 -15.9147,11.264 -27.52,11.264 -11.52003,0 -20.56535,-3.75466 -27.136,-11.264 -6.57068,-7.50931 -9.85601,-18.43197 -9.856,-32.768 -10e-6,-7.85061 1.15199,-14.71994 3.456,-20.608 2.30399,-5.97326 5.33332,-10.58126 9.088,-13.824 7.59464,-6.57058 16.42663,-9.85591 26.496,-9.856 m -23.04,43.648 c -2e-5,21.16269 7.33864,31.74401 22.016,31.744 7.85062,1e-5 13.3546,-3.24265 16.512,-9.728 2.9013,-5.7173 4.3519,-12.71463 4.352,-20.992 -10e-5,-7.42395 -1.2801,-14.25061 -3.84,-20.48 -1.4507,-3.41326 -3.6694,-6.10126 -6.656,-8.064 -2.90138,-1.96259 -6.69871,-2.94392 -11.392,-2.944 -4.69337,8e-5 -8.7467,1.53607 -12.16,4.608 -3.32803,3.07207 -5.63202,6.78406 -6.912,11.136 -1.28002,4.35206 -1.92002,9.25872 -1.92,14.72"
             inkscape:connector-curvature="0" />
          <path
             id="path4942"
             d="m 1085.808,782.81018 c -0.9387,-1.62126 -4.4374,-2.43192 -10.496,-2.432 -7.936,8e-5 -13.952,2.68807 -18.048,8.064 -4.096,5.37606 -6.144,13.14139 -6.144,23.296 0,21.07736 7.8933,31.61601 23.68,31.616 0.256,10e-6 1.3653,10e-6 3.328,0 2.0479,10e-6 3.9679,-0.25599 5.76,-0.768 1.7919,-0.59732 2.8586,-1.19465 3.2,-1.792 0.3413,-0.59732 0.5119,-1.53598 0.512,-2.816 l 0,-10.24 13.056,0.896 0,22.144 c -6.6561,3.49867 -15.1041,5.248 -25.344,5.248 -13.056,0 -23.04,-3.66933 -29.952,-11.008 -6.8267,-7.33865 -10.24,-18.2613 -10.24,-32.768 0,-8.02128 1.152,-15.01861 3.456,-20.992 2.304,-5.97326 5.4187,-10.62392 9.344,-13.952 7.68,-6.39991 16.8106,-9.59991 27.392,-9.6 8.5333,9e-5 16.5546,1.74942 24.064,5.248 l 0,21.76 -13.056,0.896 0,-9.984 c -10e-5,-1.27993 -0.1707,-2.21859 -0.512,-2.816"
             inkscape:connector-curvature="0" />
          <path
             id="path4944"
             d="m 1133.848,842.84218 c 10.24,10e-6 15.36,-4.09598 15.36,-12.288 0,-4.26664 -2.2614,-7.42397 -6.784,-9.472 -2.3894,-1.19463 -5.504,-2.30396 -9.344,-3.328 -3.7547,-1.02396 -6.912,-2.04796 -9.472,-3.072 -2.4747,-1.10929 -4.992,-2.60262 -7.552,-4.48 -5.0347,-3.75462 -7.552,-9.51461 -7.552,-17.28 0,-7.85059 2.688,-13.99459 8.064,-18.432 5.4613,-4.52258 12.544,-6.78391 21.248,-6.784 8.7893,9e-5 16.9386,1.74942 24.448,5.248 l 0,19.2 -13.056,0.896 0,-7.424 c 0,-1.27993 -0.1707,-2.21859 -0.512,-2.816 -0.9387,-1.62126 -3.968,-2.43192 -9.088,-2.432 -5.0347,8e-5 -8.7894,0.89608 -11.264,2.688 -2.3894,1.79207 -3.584,4.5654 -3.584,8.32 0,2.73073 1.024,5.12006 3.072,7.168 1.3653,1.36539 3.3706,2.51739 6.016,3.456 2.7306,0.85339 5.5893,1.74939 8.576,2.688 3.072,0.93872 5.76,1.96272 8.064,3.072 2.3893,1.10938 4.8639,2.64538 7.424,4.608 5.2053,3.84004 7.8079,9.7707 7.808,17.792 -10e-5,8.02135 -2.9014,14.33601 -8.704,18.944 -5.7174,4.608 -13.312,6.912 -22.784,6.912 -9.3867,0 -17.8347,-1.74933 -25.344,-5.248 l 0,-20.224 13.056,-0.896 0,7.808 c 0,1.28002 0.1706,2.21868 0.512,2.816 0.3413,0.59735 1.3653,1.19468 3.072,1.792 1.792,0.51201 4.5653,0.76801 8.32,0.768"
             inkscape:connector-curvature="0" />
          <g
             id="g6495"
             style="fill-opacity:1.0;fill:url(#linearGradient7015)">
            <path
               inkscape:connector-curvature="0"
               d="m 1202.802,854.36218 0,-9.856 25.472,-32.128 c 2.6453,-3.41329 4.3946,-5.67462 5.248,-6.784 0.8533,-1.19461 1.664,-2.81595 2.432,-4.864 0.8533,-2.13327 1.28,-4.65061 1.28,-7.552 0,-2.9866 -1.024,-5.4186 -3.072,-7.296 -1.9627,-1.87726 -4.5227,-2.81593 -7.68,-2.816 -3.072,7e-5 -5.4187,0.25607 -7.04,0.768 -1.536,0.51207 -2.4747,1.10941 -2.816,1.792 -0.256,0.5974 -0.384,1.57874 -0.384,2.944 l 0,9.088 -13.056,-0.896 0,-20.48 c 8.0213,-4.01058 16.256,-6.01591 24.704,-6.016 8.448,9e-5 14.8053,2.09075 19.072,6.272 4.2666,4.09608 6.3999,9.72807 6.4,16.896 -10e-5,7.16806 -3.6267,15.14672 -10.88,23.936 l -20.608,24.32 32,0 0,12.672 -51.072,0"
               id="path4946"
               style="fill-opacity:1.0;fill:url(#linearGradient7015)" />
            <path
               inkscape:connector-curvature="0"
               d="m 1289.816,770.26618 c 19.3706,9e-5 29.0559,14.03741 29.056,42.112 -10e-5,14.93336 -2.5174,25.89869 -7.552,32.896 -5.0347,6.912 -12.5014,10.368 -22.4,10.368 -9.8987,0 -17.28,-3.41333 -22.144,-10.24 -4.864,-6.91198 -7.296,-17.6213 -7.296,-32.128 0,-14.50661 2.688,-25.30126 8.064,-32.384 5.376,-7.08258 12.8,-10.62391 22.272,-10.624 m -11.264,66.56 c 2.4746,4.35202 6.016,6.52801 10.624,6.528 4.608,10e-6 8.1493,-2.26132 10.624,-6.784 2.56,-4.52264 3.84,-12.3733 3.84,-23.552 0,-11.26394 -1.2374,-19.1146 -3.712,-23.552 -2.3894,-4.43726 -5.9307,-6.65593 -10.624,-6.656 -4.6934,7e-5 -8.2774,2.38941 -10.752,7.168 -2.3894,4.6934 -3.584,12.58672 -3.584,23.68 0,11.00803 1.1946,18.73069 3.584,23.168"
               id="path4948"
               style="fill-opacity:1.0;fill:url(#linearGradient7015)" />
            <path
               inkscape:connector-curvature="0"
               d="m 1343.74,838.87418 0,-50.304 -14.976,7.68 -5.632,-9.856 23.296,-14.464 12.544,0 0,70.912 13.312,0.64 0,10.88 -44.544,0 0,-10.496 12.288,-0.768 c 1.28,-0.0853 2.2186,-0.42665 2.816,-1.024 0.5973,-0.59732 0.896,-1.66398 0.896,-3.2"
               id="path4950"
               style="fill-opacity:1.0;fill:url(#linearGradient7015)" />
            <path
               inkscape:connector-curvature="0"
               d="m 1434.076,784.09018 -29.312,0 -2.56,19.584 c 9.5573,0.68272 17.3226,3.20005 23.296,7.552 6.0586,4.26671 9.0879,10.62404 9.088,19.072 -10e-5,6.91202 -2.3041,12.88535 -6.912,17.92 -4.608,5.03467 -11.776,7.552 -21.504,7.552 -4.7787,0 -9.472,-0.64 -14.08,-1.92 -4.5227,-1.28 -8.1493,-2.77333 -10.88,-4.48 l 5.12,-11.776 c 6.656,3.66935 13.056,5.50401 19.2,5.504 8.704,1e-5 13.056,-4.18132 13.056,-12.544 0,-10.41063 -10.1974,-15.61596 -30.592,-15.616 l 5.504,-43.008 25.472,0 c 1.9626,9e-5 2.944,-1.19458 2.944,-3.584 l 0,-5.504 12.16,0.896 0,20.352"
               id="path4952"
               style="fill-opacity:1.0;fill:url(#linearGradient7015)" />
          </g>
        </g>
      </g>
      <g
         style="font-size:60.49033356px;font-style:normal;font-variant:normal;font-weight:300;font-stretch:normal;text-align:start;line-height:125%;letter-spacing:0px;word-spacing:0px;writing-mode:lr-tb;text-anchor:start;fill:url(#linearGradient5040);fill-opacity:1;stroke:none;font-family:Aleo;-inkscape-font-specification:Aleo Light"
         id="text4909">
        <path
           d="m 213.30246,938.94616 -3.47895,-0.32113 -28.95552,-70.80989 -5.45926,0 -28.95552,70.80989 -3.47895,0.32113 c -1.39157,0.16057 -2.03384,0.90988 -2.03384,2.14089 l 0,2.46202 3.47894,0 2.19442,0 1.98032,0 0.74931,0 10.06218,0 0,-2.46202 c 0,-1.33805 -0.85636,-2.08737 -2.46203,-2.14089 -0.16056,-0.0535 -0.37465,-0.0535 -0.69579,-0.0535 -0.26761,-0.0535 -0.80283,-0.0535 -1.49862,-0.10705 -0.69579,-0.0535 -1.60567,-0.10704 -2.72963,-0.16056 l 7.49311,-18.51869 0.53522,-1.33805 36.1275,0 0.53522,1.33805 7.49311,18.51869 c -1.07044,0.0535 -1.98032,0.10704 -2.67611,0.16056 -0.74931,0.0535 -1.23101,0.0535 -1.55214,0.10705 -0.26762,0 -0.4817,0 -0.64227,0.0535 -1.65919,0.0535 -2.46202,0.80284 -2.46202,2.14089 l 0,2.46202 10.06217,0 0.69579,0 2.03385,0 2.19441,0 3.47894,0 0,-2.46202 c 0,-1.23101 -0.69579,-1.98032 -2.03384,-2.14089 m -36.66272,-61.12237 c 0.26761,-0.64227 0.4817,-1.33806 0.74931,-2.08737 0.26761,-0.74931 0.4817,-1.60566 0.74931,-2.46202 0.21409,0.85636 0.4817,1.65919 0.74931,2.46202 0.26761,0.74931 0.4817,1.4451 0.74931,2.03385 l 14.9327,36.93033 -32.86264,0 14.9327,-36.87681"
           style="font-size:107.04443359px"
           id="path7018" />
        <path
           d="m 278.54251,867.86866 -5.45927,0 -10.38331,0 0,2.08736 c 0,1.23101 0.74932,1.81976 2.14089,1.9268 0.16057,0 0.58875,0 1.33806,0 0.74931,0.0535 1.76623,0.0535 3.05076,0.10705 1.28454,0 2.56907,0.0535 3.8536,0.10704 l 0,42.60369 c 0,3.47894 -0.53522,6.79732 -1.60566,9.84809 -1.01692,3.05076 -2.56907,5.72687 -4.54939,7.97481 -1.98032,2.24793 -4.44235,3.96064 -7.33255,5.24517 -2.83667,1.28453 -6.10153,1.9268 -9.74104,1.9268 -3.63951,0 -6.90437,-0.64227 -9.79456,-1.9268 -2.83668,-1.28453 -5.29871,-3.05077 -7.27903,-5.2987 -1.98032,-2.30145 -3.47894,-4.92404 -4.54938,-7.97481 -1.01693,-3.05076 -1.55215,-6.31562 -1.55215,-9.84808 l 0,-42.55017 c 1.28453,-0.0535 2.56907,-0.10704 3.8536,-0.10704 1.28453,-0.0535 2.30146,-0.0535 3.05077,-0.10705 0.74931,0 1.17749,0 1.33805,0 1.39158,-0.10704 2.14089,-0.69579 2.14089,-1.9268 l 0,-2.08736 -10.38331,0 -5.51279,0 -8.99173,0 0,2.08736 c 0,1.23101 0.69579,1.81976 2.08737,1.9268 0.16056,0 0.4817,0 1.01692,0 0.53522,0.0535 1.33806,0.0535 2.4085,0.10705 1.01692,0 2.19441,0.0535 3.47894,0.10704 l 0,42.60369 c 0,4.17473 0.64227,8.02833 1.98032,11.66784 1.33806,3.63951 3.21134,6.79732 5.67336,9.47343 2.51554,2.67611 5.51279,4.817 9.04525,6.36915 3.58599,1.49862 7.54664,2.24793 11.98898,2.24793 4.44234,0 8.40299,-0.74931 11.93546,-2.24793 3.58598,-1.55215 6.58323,-3.69304 9.04525,-6.36915 2.51554,-2.67611 4.38882,-5.83392 5.72688,-9.47343 1.33805,-3.63951 1.98032,-7.49311 1.98032,-11.66784 l 0,-42.60369 c 1.28453,-0.0535 2.46202,-0.10704 3.47894,-0.10704 1.07045,-0.0535 1.87328,-0.0535 2.4085,-0.10705 0.4817,0 0.85636,0 1.01693,0 1.39157,-0.10704 2.08736,-0.69579 2.08736,-1.9268 l 0,-2.08736 -8.99173,0"
           style="font-size:107.04443359px"
           id="path7020" />
        <path
           d="m 338.58942,909.18781 0,2.99724 c 0,0.37466 0.16056,0.64227 0.42817,0.85636 0.26761,0.26761 0.58875,0.37465 0.9634,0.42818 l 14.55805,0 0,20.33844 c -1.65919,1.01692 -3.31838,1.87328 -4.97757,2.62259 -1.65919,0.74931 -3.42542,1.39158 -5.24518,1.9268 -1.81975,0.58874 -3.8536,0.9634 -5.99449,1.23101 -2.08736,0.26761 -4.49586,0.37465 -7.11845,0.37465 -4.65643,0 -8.93821,-0.74931 -12.79181,-2.35497 -3.8536,-1.55215 -7.17198,-3.80008 -9.95513,-6.7438 -2.78315,-2.94372 -4.92405,-6.52972 -6.47619,-10.81149 -1.49862,-4.22825 -2.30146,-8.99174 -2.30146,-14.34396 0,-5.24517 0.80284,-10.00865 2.30146,-14.18338 1.49862,-4.22825 3.69304,-7.81425 6.47619,-10.70445 2.78315,-2.94371 6.15506,-5.19165 10.1157,-6.7438 4.01416,-1.60566 8.45651,-2.35497 13.32703,-2.35497 8.99172,0 16.11019,1.23101 21.35536,3.69303 0.37466,6.90436 0.53523,10.75797 0.58875,11.50728 0.0535,1.71271 0.85635,2.56906 2.30145,2.56906 l 2.62259,0 0,-17.07358 c -3.37189,-1.49862 -7.7072,-2.78316 -13.0059,-3.8536 -5.29869,-1.07045 -9.84809,-1.55215 -13.70168,-1.55215 -5.7804,0 -11.02559,0.90988 -15.73554,2.72964 -4.70995,1.81975 -8.6706,4.44234 -11.98897,7.81424 -3.26485,3.3719 -5.7804,7.43959 -7.60016,12.20306 -1.76623,4.76348 -2.62259,10.06219 -2.62259,15.8961 0,5.88744 0.85636,11.18615 2.62259,15.94962 1.81976,4.817 4.33531,8.88469 7.54663,12.25659 3.21133,3.3719 7.11846,5.99449 11.61433,7.81424 4.49586,1.81976 9.47343,2.72964 14.93269,2.72964 3.21133,0 6.10154,-0.16057 8.77765,-0.53522 2.72963,-0.37466 5.19166,-0.90988 7.49311,-1.60567 2.35497,-0.69579 4.54939,-1.55215 6.52971,-2.62259 2.03384,-1.01692 4.01417,-2.19441 5.88744,-3.53247 l 0,-26.92167 -20.92718,0"
           style="font-size:107.04443359px"
           id="path7022" />
        <path
           d="m 420.20577,866.95878 c -3.10429,0 -5.99449,0.4817 -8.6706,1.39158 -2.67611,0.90987 -5.03109,2.24793 -7.06493,3.96064 -2.03385,1.76623 -3.74656,3.90713 -5.03109,6.42267 -1.33806,2.56906 -2.24794,5.45927 -2.67611,8.6706 l 2.62259,0.42817 c 0.10704,0.0535 0.32113,0.0535 0.58874,0.0535 1.01692,0 1.65919,-0.58875 1.98032,-1.87328 0.4817,-2.19441 1.23101,-4.17474 2.24794,-5.99449 1.07044,-1.81975 2.35497,-3.31838 3.8536,-4.60291 1.55214,-1.28453 3.31837,-2.30146 5.29869,-2.99724 2.03385,-0.74931 4.22826,-1.07045 6.58324,-1.07045 2.19441,-0.0535 4.28178,0.26761 6.2621,0.90988 2.03384,0.58874 3.74655,1.49862 5.24517,2.83668 1.49862,1.28453 2.72964,2.8902 3.58599,4.87052 0.90988,1.9268 1.33806,4.28178 1.33806,6.95789 0,2.30145 -0.42818,4.44234 -1.28454,6.36914 -0.85635,1.9268 -2.08736,3.58599 -3.80007,4.97757 -1.65919,1.39157 -3.74656,2.46202 -6.2621,3.26485 -2.46202,0.80283 -5.35223,1.23101 -8.6706,1.33806 l 0,3.69303 c 4.12121,-0.0535 7.60016,0.37466 10.38331,1.23101 2.78315,0.85636 5.03109,1.98032 6.79732,3.42542 1.71271,1.4451 2.8902,3.15782 3.63951,5.19166 0.74931,1.98032 1.12397,4.12121 1.12397,6.47619 0,1.92679 -0.42818,3.90712 -1.23101,5.94096 -0.80284,2.03384 -2.03385,3.90713 -3.63951,5.56631 -1.60567,1.65919 -3.63952,3.05077 -6.04801,4.12121 -2.4085,1.07045 -5.19166,1.60567 -8.40299,1.60567 -2.35498,0 -4.44235,-0.26761 -6.2621,-0.74931 -1.81976,-0.53522 -3.3719,-1.17749 -4.70996,-1.98032 -1.33805,-0.80284 -2.46202,-1.71271 -3.3719,-2.72964 -0.9634,-1.01692 -1.71271,-2.03384 -2.35497,-3.05076 -0.64227,-1.01692 -1.12397,-1.98033 -1.49863,-2.94372 -0.42817,-0.9634 -0.69579,-1.71272 -0.90987,-2.35498 l -0.37466,-1.07045 c -0.21409,-0.53522 -0.4817,-0.85635 -0.80283,-1.01692 -0.37466,-0.21409 -0.74931,-0.26761 -1.12397,-0.26761 -0.42818,0 -0.80283,0.0535 -1.23101,0.26761 l -2.03384,0.85636 c 0.64226,2.24793 1.4451,4.54939 2.51554,6.85084 1.01692,2.30145 2.46202,4.38882 4.3353,6.2621 1.81975,1.81975 4.17473,3.31838 7.06493,4.49587 2.8902,1.17748 6.47619,1.76623 10.81149,1.76623 3.42542,0 6.63676,-0.58875 9.634,-1.65919 2.94372,-1.07044 5.51279,-2.56907 7.7072,-4.49586 2.14088,-1.9268 3.8536,-4.22826 5.13813,-6.90437 1.23101,-2.67611 1.87328,-5.51279 1.87328,-8.61708 0,-4.92404 -1.4451,-8.99173 -4.28178,-12.25659 -2.8902,-3.26485 -7.06494,-5.40574 -12.63124,-6.42266 2.14088,-0.53522 4.12121,-1.33806 5.94096,-2.35498 1.81976,-1.01692 3.3719,-2.24793 4.70996,-3.74655 1.33805,-1.49862 2.4085,-3.26486 3.15781,-5.24518 0.74931,-1.98032 1.12397,-4.17474 1.17749,-6.63676 0,-3.1578 -0.58875,-5.94096 -1.71271,-8.29594 -1.12397,-2.4085 -2.67612,-4.38882 -4.60291,-5.99449 -1.9268,-1.60566 -4.17474,-2.83668 -6.7438,-3.63951 -2.56907,-0.80283 -5.2987,-1.23101 -8.1889,-1.23101"
           style="font-size:107.04443359px"
           id="path7024" />
        <path
           d="m 495.8168,943.54907 0,-1.71271 c 0,-1.01692 -0.58875,-1.49862 -1.76623,-1.55214 -0.74931,-0.0535 -5.67337,-0.32114 -14.82566,-0.74931 l 0,-72.04091 -3.96064,0 -21.83707,19.37504 1.55215,2.14089 c 0.32113,0.42818 0.74931,0.64227 1.39158,0.64227 0.4817,0 0.90987,-0.16057 1.28453,-0.4817 l 16.69893,-14.82565 c -0.10704,1.33805 -0.16057,2.62259 -0.21409,3.8536 l 0,61.33646 c 0,0 -1.23101,0.0535 -3.69303,0.16056 -2.46202,0.10705 -4.97757,0.26761 -7.54663,0.37466 -2.62259,0.10704 -4.06769,0.16056 -4.38882,0.21409 -1.17749,0.0535 -1.76624,0.53522 -1.76624,1.55214 l 0,1.71271 39.07122,0"
           style="font-size:107.04443359px"
           id="path7026" />
        <path
           d="m 525.97436,909.61599 0,4.3353 24.88783,0 0,-4.3353 -24.88783,0"
           style="font-size:107.04443359px"
           id="path7028" />
        <path
           d="m 628.94979,913.68368 c -1.07044,-2.08737 -2.51554,-3.85361 -4.3353,-5.2987 -1.76623,-1.39158 -3.80008,-2.56907 -6.04801,-3.53247 -2.30145,-0.9634 -4.60291,-1.81976 -7.01141,-2.62259 -2.4085,-0.74931 -4.76348,-1.55214 -7.01141,-2.35498 -2.24793,-0.80283 -4.28178,-1.81975 -6.04801,-2.99724 -1.81975,-1.17749 -3.26486,-2.56907 -4.3353,-4.28178 -1.07044,-1.65919 -1.65919,-3.74656 -1.65919,-6.36914 0,-1.9268 0.37466,-3.80008 1.12397,-5.61983 0.74931,-1.76624 1.81976,-3.31838 3.21133,-4.70996 1.4451,-1.33805 3.15781,-2.4085 5.2987,-3.21133 2.08737,-0.74931 4.49587,-1.17749 7.2255,-1.17749 5.13813,0 9.84809,0.90988 14.12987,2.72963 0.32113,6.15505 0.4817,9.52696 0.53522,10.06218 0.0535,1.76623 0.85635,2.62259 2.30145,2.62259 l 2.56907,0 0,-15.52145 c -6.74379,-2.94371 -13.27352,-4.38882 -19.53561,-4.38882 -3.47894,0 -6.63676,0.53523 -9.36639,1.60567 -2.72963,1.07044 -5.03109,2.51554 -6.85084,4.3353 -1.87328,1.81975 -3.26486,3.90712 -4.28178,6.2621 -0.9634,2.35497 -1.4451,4.76348 -1.4451,7.27902 0,3.26485 0.58875,5.99449 1.65919,8.13538 1.07044,2.14088 2.51555,3.96064 4.3353,5.40574 1.76623,1.4451 3.80008,2.62259 6.04801,3.53247 2.30145,0.9634 4.60291,1.76623 7.01141,2.51554 2.35498,0.74931 4.65644,1.55215 7.01141,2.30146 2.24793,0.80283 4.28178,1.76623 6.04801,2.94372 1.81976,1.17749 3.21134,2.62259 4.3353,4.3353 1.07044,1.71271 1.60567,3.90712 1.60567,6.58323 0,2.46202 -0.42818,4.817 -1.28454,6.95789 -0.85635,2.14088 -2.08736,4.01417 -3.69303,5.56631 -1.65919,1.60566 -3.63951,2.83668 -5.99449,3.74655 -2.35497,0.90988 -5.03109,1.33806 -8.02833,1.33806 -5.94096,0 -10.97206,-0.9634 -15.09326,-2.94372 -0.0535,-1.4451 -0.10705,-2.99725 -0.21409,-4.76348 -0.10705,-1.71271 -0.16057,-3.15781 -0.21409,-4.28178 -0.0535,-1.17748 -0.10705,-1.81975 -0.10705,-1.98032 -0.0535,-1.71271 -0.85635,-2.56907 -2.30145,-2.56907 l -2.56907,0 0,14.18339 0,1.33806 0,1.4451 c 6.52971,2.78315 13.32704,4.12121 20.33844,4.12121 3.8536,0 7.27903,-0.58875 10.27627,-1.76624 2.99724,-1.17748 5.56631,-2.83667 7.60015,-4.92404 2.08737,-2.03384 3.69304,-4.49587 4.76348,-7.27902 1.07044,-2.78315 1.60567,-5.7804 1.60567,-8.99173 0,-3.10429 -0.53523,-5.67336 -1.60567,-7.76072"
           style="font-size:107.04443359px"
           id="path7030" />
        <path
           d="m 649.25311,867.86866 -8.99173,0 0,2.08736 c 0,1.23101 0.69579,1.81976 2.08737,1.9268 0.16056,0 0.4817,0 1.01692,0 0.53522,0 1.33806,0.0535 2.4085,0.10705 1.01692,0 2.19441,0.0535 3.47894,0.10704 l 0,67.22391 c -1.28453,0.0535 -2.46202,0.10704 -3.47894,0.10704 -1.07044,0.0535 -1.87328,0.0535 -2.4085,0.10705 -0.53522,0 -0.85636,0 -1.01692,0 -1.39158,0.10704 -2.08737,0.69579 -2.08737,1.9268 l 0,2.08736 8.99173,0 45.38684,0 0,-4.54939 0,-11.13262 -2.62259,0 c -1.44509,0 -2.19441,0.90988 -2.30145,2.62259 0,0.21409 0,0.64227 -0.0535,1.39158 -0.0535,0.69579 -0.10705,1.81976 -0.16057,3.42542 -0.10704,1.55214 -0.16057,2.78316 -0.21409,3.69303 l -34.52183,0 0,-31.5781 30.13301,0 0,-4.44235 -30.13301,0 0,-30.56118 34.52183,0 c 0.26761,4.65642 0.37466,7.54663 0.42818,8.51003 0.10704,1.71271 0.85636,2.62259 2.30145,2.62259 l 2.62259,0 0,-11.13262 0,-4.54939 -45.38684,0"
           style="font-size:107.04443359px"
           id="path7032" />
        <path
           d="m 754.48277,873.70258 c -4.54938,-3.90712 -11.23967,-5.83392 -20.12435,-5.83392 l -18.41164,0 -8.99173,0 0,2.08736 c 0,1.23101 0.69579,1.81976 2.08736,1.9268 0.16057,0 0.4817,0 1.01692,0 0.53523,0.0535 1.33806,0.0535 2.4085,0.10705 1.01692,0 2.19442,0.0535 3.47895,0.10704 l 0,67.22391 c -1.28453,0.0535 -2.46203,0.10704 -3.47895,0.10704 -1.07044,0.0535 -1.87327,0.0535 -2.4085,0.10705 -0.53522,0 -0.85635,0 -1.01692,0 -1.39157,0.10704 -2.08736,0.69579 -2.08736,1.9268 l 0,2.08736 8.99173,0 5.45926,0 8.99174,0 0,-2.08736 c 0,-1.23101 -0.69579,-1.81976 -2.08737,-1.9268 -0.16057,0 -0.53522,0 -1.01692,0 -0.53522,-0.0535 -1.33806,-0.0535 -2.4085,-0.10705 -1.01692,0 -2.19441,-0.0535 -3.47895,-0.10704 l 0,-26.27941 12.95238,0 c 4.17473,0 7.92129,-0.53522 11.23967,-1.65919 3.31837,-1.12397 6.15505,-2.67611 8.45651,-4.70996 2.35497,-2.03384 4.12121,-4.44234 5.35222,-7.17197 1.23101,-2.83668 1.81975,-5.83393 1.81975,-9.1523 0,-7.22549 -2.24793,-12.79181 -6.7438,-16.64541 m -0.16056,23.92443 c -1.01692,2.24793 -2.4085,4.17473 -4.22826,5.7804 -1.87327,1.65919 -4.06769,2.94372 -6.7438,3.8536 -2.62258,0.9634 -5.61983,1.39158 -8.99173,1.39158 l -12.95238,0 0,-36.44863 12.95238,0 c 7.11845,0 12.47068,1.55214 16.05667,4.65643 3.58598,3.15781 5.35222,7.65368 5.35222,13.43408 0,2.6761 -0.4817,5.08461 -1.4451,7.33254"
           style="font-size:107.04443359px"
           id="path7034" />
        <path
           d="m 827.88854,867.86866 -1.49862,0 -55.77015,0 -1.55215,0 -0.69579,0 0,15.68201 2.56907,0 c 1.4451,0 2.24793,-0.85636 2.30146,-2.56907 0.0535,-0.74931 0.21409,-3.58599 0.42817,-8.51003 l 22.1582,0 0,66.84925 c -1.28453,0.0535 -2.46202,0.10704 -3.47894,0.10704 -1.07045,0.0535 -1.87328,0.0535 -2.4085,0.10705 -0.4817,0 -0.85636,0 -1.01692,0 -1.39158,0.10704 -2.08737,0.69579 -2.08737,1.9268 l 0,2.08736 8.99173,0 5.45927,0 9.04525,0 0,-2.08736 c 0,-1.23101 -0.74931,-1.81976 -2.14089,-1.9268 -0.16056,0 -0.4817,0 -1.01692,0 -0.53522,-0.0535 -1.33805,-0.0535 -2.35498,-0.10705 -1.07044,0 -2.24793,-0.0535 -3.53246,-0.10704 l 0,-66.79573 22.05115,0 c 0.26761,5.40574 0.42818,8.24242 0.42818,8.45651 0.0535,1.71271 0.85636,2.56907 2.30145,2.56907 l 2.62259,0 0,-15.68201 -0.80283,0"
           style="font-size:107.04443359px"
           id="path7036" />
        <path
           d="m 903.06381,943.54907 0,-1.71271 c 0,-1.01692 -0.58875,-1.49862 -1.76623,-1.55214 -0.74931,-0.0535 -5.67337,-0.32114 -14.82566,-0.74931 l 0,-72.04091 -3.96064,0 -21.83707,19.37504 1.55215,2.14089 c 0.32113,0.42818 0.74931,0.64227 1.39158,0.64227 0.4817,0 0.90987,-0.16057 1.28453,-0.4817 l 16.69893,-14.82565 c -0.10704,1.33805 -0.16057,2.62259 -0.21409,3.8536 l 0,61.33646 c 0,0 -1.23101,0.0535 -3.69303,0.16056 -2.46202,0.10705 -4.97757,0.26761 -7.54663,0.37466 -2.62259,0.10704 -4.06769,0.16056 -4.38883,0.21409 -1.17748,0.0535 -1.76623,0.53522 -1.76623,1.55214 l 0,1.71271 39.07122,0"
           style="font-size:107.04443359px"
           id="path7038" />
        <path
           d="m 984.46111,873.70258 c -4.54939,-3.90712 -11.23968,-5.83392 -20.12436,-5.83392 l -18.41164,0 -8.99173,0 0,2.08736 c 0,1.23101 0.69579,1.81976 2.08736,1.9268 0.16057,0 0.4817,0 1.01693,0 0.53522,0.0535 1.33805,0.0535 2.4085,0.10705 1.01692,0 2.19441,0.0535 3.47894,0.10704 l 0,67.22391 c -1.28453,0.0535 -2.46202,0.10704 -3.47894,0.10704 -1.07045,0.0535 -1.87328,0.0535 -2.4085,0.10705 -0.53523,0 -0.85636,0 -1.01693,0 -1.39157,0.10704 -2.08736,0.69579 -2.08736,1.9268 l 0,2.08736 8.99173,0 5.45927,0 8.99173,0 0,-2.08736 c 0,-1.23101 -0.69579,-1.81976 -2.08737,-1.9268 -0.16056,0 -0.53522,0 -1.01692,0 -0.53522,-0.0535 -1.33806,-0.0535 -2.4085,-0.10705 -1.01692,0 -2.19441,-0.0535 -3.47894,-0.10704 l 0,-26.27941 12.95237,0 c 4.17473,0 7.92129,-0.53522 11.23967,-1.65919 3.31837,-1.12397 6.15506,-2.67611 8.45651,-4.70996 2.35497,-2.03384 4.12121,-4.44234 5.35222,-7.17197 1.23101,-2.83668 1.81976,-5.83393 1.81976,-9.1523 0,-7.22549 -2.24794,-12.79181 -6.7438,-16.64541 m -0.16057,23.92443 c -1.01692,2.24793 -2.4085,4.17473 -4.22826,5.7804 -1.87327,1.65919 -4.06769,2.94372 -6.7438,3.8536 -2.62258,0.9634 -5.61983,1.39158 -8.99173,1.39158 l -12.95237,0 0,-36.44863 12.95237,0 c 7.11845,0 12.47068,1.55214 16.05667,4.65643 3.58598,3.15781 5.35222,7.65368 5.35222,13.43408 0,2.6761 -0.4817,5.08461 -1.4451,7.33254"
           style="font-size:107.04443359px"
           id="path7040" />
        <path
           d="m 1060.6855,939.53491 c -0.1606,0 -0.3747,0 -0.6958,0 -0.3212,0 -0.8029,-0.0535 -1.3916,-0.0535 -0.6423,0 -1.2845,-0.0535 -1.9268,-0.0535 l -22.7469,-28.63438 c -0.6958,-0.85636 -1.4451,-1.60567 -2.3015,-2.14089 3.3184,-0.32114 6.2621,-1.07045 8.9382,-2.24794 2.6226,-1.17748 4.8705,-2.62259 6.7438,-4.44234 1.8733,-1.81975 3.3184,-3.90712 4.3353,-6.31562 0.9634,-2.35498 1.4986,-5.03109 1.4986,-7.92129 0,-6.47618 -2.1944,-11.45376 -6.4762,-14.82565 -4.3353,-3.3719 -10.865,-5.03109 -19.5891,-5.03109 l -18.4116,0 -8.99177,0 0,2.08736 c 0,1.23101 0.69577,1.81976 2.08737,1.9268 0.1606,0 0.4817,0 1.0169,0 0.5352,0 1.3381,0.0535 2.4085,0.10705 1.0169,0 2.1944,0.0535 3.479,0.10704 l 0,67.22391 c -1.2846,0.0535 -2.4621,0.10704 -3.479,0.10704 -1.0704,0.0535 -1.8733,0.0535 -2.4085,0.10705 -0.5352,0 -0.8563,0 -1.0169,0 -1.3916,0.10704 -2.08737,0.69579 -2.08737,1.9268 l 0,2.08736 8.99177,0 5.4592,0 8.9918,0 0,-2.08736 c 0,-1.23101 -0.6958,-1.81976 -2.1409,-1.9268 -0.1071,0 -0.4817,0 -0.9634,0 -0.5352,-0.0535 -1.3381,-0.0535 -2.4085,-0.10705 -1.0705,0 -2.1944,-0.0535 -3.479,-0.10704 l 0,-30.02597 8.9918,0 c 1.4451,0 2.5155,0.16057 3.2113,0.4817 0.6958,0.32114 1.3381,0.90988 1.9803,1.65919 l 24.2456,30.72175 c 0.3746,0.53523 0.7493,0.85636 1.1775,1.07045 0.4281,0.21409 0.9099,0.32113 1.4986,0.32113 l 0.5352,0 4.2283,0 2.7831,0 0,-2.08736 c 0,-1.23101 -0.6958,-1.81976 -2.0873,-1.9268 m -34.3078,-34.30774 -12.2566,0 0,-33.02321 12.9524,0 c 6.7438,0 11.8819,1.28453 15.4144,3.90712 3.5325,2.56906 5.2987,6.58324 5.2987,11.98898 0,2.62258 -0.4817,4.97756 -1.4451,7.06493 -0.9634,2.14088 -2.4085,3.90712 -4.2282,5.40574 -1.8198,1.55214 -4.0677,2.67611 -6.7438,3.47895 -2.6762,0.80283 -5.6734,1.17749 -8.9918,1.17749"
           style="font-size:107.04443359px"
           id="path7042" />
        <path
           d="m 1142.9792,938.94616 -3.4789,-0.32113 -28.9555,-70.80989 -5.4593,0 -28.9555,70.80989 -3.479,0.32113 c -1.3916,0.16057 -2.0338,0.90988 -2.0338,2.14089 l 0,2.46202 3.4789,0 2.1944,0 1.9804,0 0.7493,0 10.0621,0 0,-2.46202 c 0,-1.33805 -0.8563,-2.08737 -2.462,-2.14089 -0.1605,-0.0535 -0.3746,-0.0535 -0.6958,-0.0535 -0.2676,-0.0535 -0.8028,-0.0535 -1.4986,-0.10705 -0.6958,-0.0535 -1.6057,-0.10704 -2.7296,-0.16056 l 7.4931,-18.51869 0.5352,-1.33805 36.1275,0 0.5352,1.33805 7.4931,18.51869 c -1.0704,0.0535 -1.9803,0.10704 -2.6761,0.16056 -0.7493,0.0535 -1.231,0.0535 -1.5521,0.10705 -0.2676,0 -0.4817,0 -0.6423,0.0535 -1.6592,0.0535 -2.462,0.80284 -2.462,2.14089 l 0,2.46202 10.0622,0 0.6958,0 2.0338,0 2.1944,0 3.479,0 0,-2.46202 c 0,-1.23101 -0.6958,-1.98032 -2.0339,-2.14089 m -36.6627,-61.12237 c 0.2676,-0.64227 0.4817,-1.33806 0.7493,-2.08737 0.2676,-0.74931 0.4817,-1.60566 0.7493,-2.46202 0.2141,0.85636 0.4817,1.65919 0.7493,2.46202 0.2676,0.74931 0.4817,1.4451 0.7493,2.03385 l 14.9327,36.93033 -32.8626,0 14.9327,-36.87681"
           style="font-size:107.04443359px"
           id="path7044" />
        <path
           d="m 1191.878,909.18781 0,2.99724 c 0,0.37466 0.1605,0.64227 0.4281,0.85636 0.2676,0.26761 0.5888,0.37465 0.9634,0.42818 l 14.5581,0 0,20.33844 c -1.6592,1.01692 -3.3184,1.87328 -4.9776,2.62259 -1.6592,0.74931 -3.4254,1.39158 -5.2452,1.9268 -1.8197,0.58874 -3.8536,0.9634 -5.9945,1.23101 -2.0873,0.26761 -4.4958,0.37465 -7.1184,0.37465 -4.6564,0 -8.9382,-0.74931 -12.7918,-2.35497 -3.8536,-1.55215 -7.172,-3.80008 -9.9551,-6.7438 -2.7832,-2.94372 -4.9241,-6.52972 -6.4762,-10.81149 -1.4987,-4.22825 -2.3015,-8.99174 -2.3015,-14.34396 0,-5.24517 0.8028,-10.00865 2.3015,-14.18338 1.4986,-4.22825 3.693,-7.81425 6.4762,-10.70445 2.7831,-2.94371 6.155,-5.19165 10.1157,-6.7438 4.0141,-1.60566 8.4565,-2.35497 13.327,-2.35497 8.9917,0 16.1102,1.23101 21.3553,3.69303 0.3747,6.90436 0.5353,10.75797 0.5888,11.50728 0.053,1.71271 0.8563,2.56906 2.3014,2.56906 l 2.6226,0 0,-17.07358 c -3.3719,-1.49862 -7.7072,-2.78316 -13.0059,-3.8536 -5.2987,-1.07045 -9.8481,-1.55215 -13.7017,-1.55215 -5.7803,0 -11.0255,0.90988 -15.7355,2.72964 -4.7099,1.81975 -8.6706,4.44234 -11.989,7.81424 -3.2648,3.3719 -5.7804,7.43959 -7.6001,12.20306 -1.7662,4.76348 -2.6226,10.06219 -2.6226,15.8961 0,5.88744 0.8564,11.18615 2.6226,15.94962 1.8197,4.817 4.3353,8.88469 7.5466,12.25659 3.2113,3.3719 7.1185,5.99449 11.6143,7.81424 4.4959,1.81976 9.4735,2.72964 14.9327,2.72964 3.2114,0 6.1016,-0.16057 8.7777,-0.53522 2.7296,-0.37466 5.1916,-0.90988 7.4931,-1.60567 2.355,-0.69579 4.5494,-1.55215 6.5297,-2.62259 2.0338,-1.01692 4.0142,-2.19441 5.8874,-3.53247 l 0,-26.92167 -20.9271,0"
           style="font-size:107.04443359px"
           id="path7046" />
        <path
           d="m 1289.6334,867.86866 -5.4592,0 -10.3833,0 0,2.08736 c 0,1.23101 0.7493,1.81976 2.1409,1.9268 0.1605,0 0.5887,0 1.338,0 0.7493,0.0535 1.7662,0.0535 3.0508,0.10705 1.2845,0 2.569,0.0535 3.8536,0.10704 l 0,42.60369 c 0,3.47894 -0.5352,6.79732 -1.6057,9.84809 -1.0169,3.05076 -2.5691,5.72687 -4.5494,7.97481 -1.9803,2.24793 -4.4423,3.96064 -7.3325,5.24517 -2.8367,1.28453 -6.1016,1.9268 -9.7411,1.9268 -3.6395,0 -6.9043,-0.64227 -9.7945,-1.9268 -2.8367,-1.28453 -5.2987,-3.05077 -7.2791,-5.2987 -1.9803,-2.30145 -3.4789,-4.92404 -4.5493,-7.97481 -1.017,-3.05076 -1.5522,-6.31562 -1.5522,-9.84808 l 0,-42.55017 c 1.2845,-0.0535 2.5691,-0.10704 3.8536,-0.10704 1.2845,-0.0535 2.3015,-0.0535 3.0508,-0.10705 0.7493,0 1.1775,0 1.338,0 1.3916,-0.10704 2.1409,-0.69579 2.1409,-1.9268 l 0,-2.08736 -10.3833,0 -5.5128,0 -8.9917,0 0,2.08736 c 0,1.23101 0.6958,1.81976 2.0874,1.9268 0.1605,0 0.4817,0 1.0169,0 0.5352,0.0535 1.338,0.0535 2.4085,0.10705 1.0169,0 2.1944,0.0535 3.4789,0.10704 l 0,42.60369 c 0,4.17473 0.6423,8.02833 1.9803,11.66784 1.3381,3.63951 3.2114,6.79732 5.6734,9.47343 2.5155,2.67611 5.5128,4.817 9.0453,6.36915 3.5859,1.49862 7.5466,2.24793 11.9889,2.24793 4.4424,0 8.403,-0.74931 11.9355,-2.24793 3.586,-1.55215 6.5832,-3.69304 9.0452,-6.36915 2.5156,-2.67611 4.3889,-5.83392 5.7269,-9.47343 1.3381,-3.63951 1.9803,-7.49311 1.9803,-11.66784 l 0,-42.60369 c 1.2846,-0.0535 2.4621,-0.10704 3.479,-0.10704 1.0704,-0.0535 1.8733,-0.0535 2.4085,-0.10705 0.4817,0 0.8563,0 1.0169,0 1.3916,-0.10704 2.0874,-0.69579 2.0874,-1.9268 l 0,-2.08736 -8.9918,0"
           style="font-size:107.04443359px"
           id="path7048" />
        <path
           d="m 1315.6401,867.86866 -8.9917,0 0,2.08736 c 0,1.23101 0.6958,1.81976 2.0874,1.9268 0.1605,0 0.4817,0 1.0169,0 0.5352,0 1.338,0.0535 2.4085,0.10705 1.0169,0 2.1944,0.0535 3.4789,0.10704 l 0,67.22391 c -1.2845,0.0535 -2.462,0.10704 -3.4789,0.10704 -1.0705,0.0535 -1.8733,0.0535 -2.4085,0.10705 -0.5352,0 -0.8564,0 -1.0169,0 -1.3916,0.10704 -2.0874,0.69579 -2.0874,1.9268 l 0,2.08736 8.9917,0 45.3869,0 0,-4.54939 0,-11.13262 -2.6226,0 c -1.4451,0 -2.1944,0.90988 -2.3015,2.62259 0,0.21409 0,0.64227 -0.053,1.39158 -0.054,0.69579 -0.107,1.81976 -0.1606,3.42542 -0.107,1.55214 -0.1605,2.78316 -0.214,3.69303 l -34.5219,0 0,-31.5781 30.133,0 0,-4.44235 -30.133,0 0,-30.56118 34.5219,0 c 0.2676,4.65642 0.3746,7.54663 0.4281,8.51003 0.1071,1.71271 0.8564,2.62259 2.3015,2.62259 l 2.6226,0 0,-11.13262 0,-4.54939 -45.3869,0"
           style="font-size:107.04443359px"
           id="path7050" />
      </g>
    </g>
  </g>
</svg>
