<?xml version="1.0" encoding="UTF-8" standalone="no"?>
<!-- Created with Inkscape (http://www.inkscape.org/) -->

<svg
   xmlns:dc="http://purl.org/dc/elements/1.1/"
   xmlns:cc="http://creativecommons.org/ns#"
   xmlns:rdf="http://www.w3.org/1999/02/22-rdf-syntax-ns#"
   xmlns:svg="http://www.w3.org/2000/svg"
   xmlns="http://www.w3.org/2000/svg"
   xmlns:xlink="http://www.w3.org/1999/xlink"
   xmlns:sodipodi="http://sodipodi.sourceforge.net/DTD/sodipodi-0.dtd"
   xmlns:inkscape="http://www.inkscape.org/namespaces/inkscape"
   width="1500"
   height="400"
   id="svg2"
   version="1.1"
   inkscape:version="0.48.5 r10040"
   sodipodi:docname="email-logo.svg"
   inkscape:export-filename="/home/anthony/sync/Dropbox/Write the Docs/assets/2015/email-logo.png"
   inkscape:export-xdpi="90"
   inkscape:export-ydpi="90">
  <defs
     id="defs4">
    <linearGradient
       id="linearGradient3902">
      <stop
         style="stop-color:#ad7878;stop-opacity:1;"
         offset="0"
         id="stop3904" />
      <stop
         style="stop-color:#b58579;stop-opacity:1;"
         offset="1"
         id="stop3906" />
    </linearGradient>
    <linearGradient
       id="linearGradient3779">
      <stop
         style="stop-color:#bab3c3;stop-opacity:1;"
         offset="0"
         id="stop3781" />
      <stop
         style="stop-color:#b0b2c7;stop-opacity:1;"
         offset="1"
         id="stop3783" />
    </linearGradient>
    <linearGradient
       inkscape:collect="always"
       xlink:href="#linearGradient3779"
       id="linearGradient3785"
       x1="895.00568"
       y1="332.82974"
       x2="903.14038"
       y2="461.40115"
       gradientUnits="userSpaceOnUse"
       gradientTransform="matrix(3.1356151,0,0,3.1356151,-1786.9243,-458.78499)" />
    <linearGradient
       inkscape:collect="always"
       xlink:href="#linearGradient3902"
       id="linearGradient3908"
       x1="637.91107"
       y1="903.00262"
       x2="721.3111"
       y2="903.00262"
       gradientUnits="userSpaceOnUse" />
    <linearGradient
       inkscape:collect="always"
       xlink:href="#linearGradient3902"
       id="linearGradient3910"
       x1="550.28607"
       y1="909.00262"
       x2="627.08606"
       y2="909.00262"
       gradientUnits="userSpaceOnUse" />
    <linearGradient
       inkscape:collect="always"
       xlink:href="#linearGradient3902"
       id="linearGradient3912"
       x1="446.50562"
       y1="908.70264"
       x2="539.3056"
       y2="908.70264"
       gradientUnits="userSpaceOnUse" />
    <linearGradient
       inkscape:collect="always"
       xlink:href="#linearGradient3902"
       id="linearGradient3914"
       x1="354.63214"
       y1="907.70264"
       x2="434.43213"
       y2="907.70264"
       gradientUnits="userSpaceOnUse"
       gradientTransform="translate(0,-252.36218)" />
    <linearGradient
       inkscape:collect="always"
       xlink:href="#linearGradient3779"
       id="linearGradient4919"
       x1="133.19279"
       y1="915.35468"
       x2="1366.8073"
       y2="915.35468"
       gradientUnits="userSpaceOnUse" />
    <linearGradient
       inkscape:collect="always"
       xlink:href="#linearGradient3779"
       id="linearGradient5014"
       gradientUnits="userSpaceOnUse"
       x1="133.19279"
       y1="915.35468"
       x2="1366.8073"
       y2="915.35468"
       gradientTransform="matrix(0.99236306,0,0,0.99236306,5.5650495,7.3891079)" />
    <linearGradient
       inkscape:collect="always"
       xlink:href="#linearGradient3779"
       id="linearGradient5040"
       gradientUnits="userSpaceOnUse"
       gradientTransform="matrix(0.99236306,0,0,0.99236306,5.5650495,7.3891079)"
       x1="133.19279"
       y1="915.35468"
       x2="1366.8073"
       y2="915.35468" />
    <linearGradient
       inkscape:collect="always"
       xlink:href="#linearGradient3902"
       id="linearGradient5068"
       x1="1236.6875"
       y1="105.84375"
       x2="1237.4688"
       y2="201.84375"
       gradientUnits="userSpaceOnUse" />
    <linearGradient
       inkscape:collect="always"
       xlink:href="#linearGradient3779"
       id="linearGradient5115"
       gradientUnits="userSpaceOnUse"
       gradientTransform="matrix(0.99236306,0,0,0.99236306,5.5650495,7.3891079)"
       x1="701.5332"
       y1="884.11609"
       x2="700.7204"
       y2="956.67023" />
  </defs>
  <sodipodi:namedview
     id="base"
     pagecolor="#424670"
     bordercolor="#666666"
     borderopacity="1.0"
     inkscape:pageopacity="1"
     inkscape:pageshadow="2"
     inkscape:zoom="1"
     inkscape:cx="822.45698"
     inkscape:cy="181.16862"
     inkscape:document-units="px"
     inkscape:current-layer="g5018"
     showgrid="false"
     showguides="true"
     inkscape:guide-bbox="true"
     inkscape:window-width="1914"
     inkscape:window-height="1048"
     inkscape:window-x="0"
     inkscape:window-y="26"
     inkscape:window-maximized="0"
     inkscape:snap-nodes="true"
     inkscape:snap-to-guides="false">
    <sodipodi:guide
       orientation="1,0"
       position="137.17872,251.52798"
       id="guide5012" />
    <sodipodi:guide
       orientation="1,0"
       position="1361.8877,224.85996"
       id="guide5016" />
  </sodipodi:namedview>
  <metadata
     id="metadata7">
    <rdf:RDF>
      <cc:Work
         rdf:about="">
        <dc:format>image/svg+xml</dc:format>
        <dc:type
           rdf:resource="http://purl.org/dc/dcmitype/StillImage" />
        <dc:title></dc:title>
      </cc:Work>
    </rdf:RDF>
  </metadata>
  <g
     inkscape:label="Layer 1"
     inkscape:groupmode="layer"
     id="layer1"
     transform="translate(0,-652.36218)">
    <g
       id="g5018"
       transform="translate(0,0.78644724)">
      <g
         transform="translate(-74.114,-4.8810113)"
         id="g4901">
        <g
           id="text4385"
           style="font-size:128px;font-style:normal;font-variant:normal;font-weight:normal;font-stretch:normal;line-height:125%;letter-spacing:0px;word-spacing:0px;fill:#f2f0eb;fill-opacity:1;stroke:none;font-family:Bree Serif;-inkscape-font-specification:Bree Serif">
          <path
             id="path4922"
             d="m 325.64,779.61018 -4.224,0.384 c -2.21877,0.17074 -3.62677,1.70674 -4.224,4.608 l -16.128,69.76 -17.536,0 -13.44,-56.96 -0.384,0 -13.056,56.96 -18.048,0 -17.664,-73.856 -7.296,-0.384 0,-10.88 31.744,0 0,10.368 -4.224,0.384 c -2.64536,0.25608 -3.96802,1.36541 -3.968,3.328 -2e-5,0.34141 0.0426,0.72541 0.128,1.152 l 11.136,49.408 0.512,0 13.312,-57.856 16.512,0 13.824,58.112 0.256,0 10.88,-53.504 -6.912,-0.512 0,-10.88 28.8,0 0,10.368"
             inkscape:connector-curvature="0" />
          <path
             id="path4924"
             d="m 330.346,854.36218 0,-10.368 4.224,-0.384 c 2.47466,-0.25599 3.71199,-1.45065 3.712,-3.584 l 0,-59.52 -7.296,-0.384 0,-10.88 34.944,0 c 9.89862,9e-5 17.49328,1.83475 22.784,5.504 5.2906,3.66941 7.93593,9.68541 7.936,18.048 -7e-5,5.80273 -1.53607,10.58139 -4.608,14.336 -2.98673,3.75471 -6.57073,6.48538 -10.752,8.192 3.07194,1.10937 5.50394,3.71204 7.296,7.808 l 9.216,20.096 7.296,0.256 0,10.88 -31.616,0 0,-10.368 3.712,-0.384 c 1.96261,-0.25599 2.94395,-1.02399 2.944,-2.304 -5e-5,-0.51198 -0.17072,-1.10932 -0.512,-1.792 l -6.016,-12.8 c -0.93871,-2.1333 -2.00538,-3.62663 -3.2,-4.48 -1.10938,-0.93863 -2.73071,-1.40796 -4.864,-1.408 l -11.648,0 0,22.272 8.32,0.384 0,10.88 -31.872,0 m 23.552,-45.696 11.136,0 c 10.49595,5e-5 15.74395,-4.69328 15.744,-14.08 -5e-5,-5.37593 -1.40805,-8.8746 -4.224,-10.496 -2.73071,-1.62126 -7.16804,-2.43192 -13.312,-2.432 l -9.344,0 0,27.008"
             inkscape:connector-curvature="0" />
          <path
             id="path4926"
             d="m 418.532,839.38618 0,-58.88 -7.296,-0.384 0,-10.88 30.976,0 0,10.368 -4.224,0.384 c -2.4747,0.25608 -3.71203,1.62141 -3.712,4.096 l 0,59.008 7.296,0.384 0,10.88 -30.976,0 0,-10.368 4.224,-0.384 c 1.27999,-0.17065 2.21866,-0.51199 2.816,-1.024 0.59732,-0.59732 0.89599,-1.66398 0.896,-3.2"
             inkscape:connector-curvature="0" />
          <path
             id="path4928"
             d="m 473.654,840.02618 0,-58.112 -9.984,0 c -1.96268,8e-5 -2.94401,1.32274 -2.944,3.968 l 0,6.016 -13.056,-0.896 0,-21.76 66.944,0 0,21.76 -13.056,0.896 0,-6.016 c -6e-5,-1.45059 -0.21339,-2.47459 -0.64,-3.072 -0.42672,-0.59726 -1.45072,-0.89592 -3.072,-0.896 l -8.704,0 0,61.184 10.112,0.384 0,10.88 -36.096,0 0,-10.368 6.784,-0.384 c 2.47464,-0.25599 3.71197,-1.45065 3.712,-3.584"
             inkscape:connector-curvature="0" />
          <path
             id="path4930"
             d="m 581.652,854.36218 -60.8,0 0,-10.368 4.224,-0.384 c 2.47466,-0.25599 3.71199,-1.45065 3.712,-3.584 l 0,-59.52 -7.296,-0.384 0,-10.88 58.624,0 0,21.248 -13.056,0.896 0,-5.12 c -5e-5,-1.45059 -0.21338,-2.47459 -0.64,-3.072 -0.42672,-0.59726 -1.45072,-0.89593 -3.072,-0.896 l -18.944,0 0,21.888 29.568,0 0,13.056 -29.568,0 0,23.936 20.608,0 c 1.53595,2e-5 2.51728,-0.29865 2.944,-0.896 0.42661,-0.68265 0.63995,-1.74931 0.64,-3.2 l 0,-6.4 13.056,0.896 0,22.784"
             inkscape:connector-curvature="0" />
          <path
             id="path4932"
             d="m 640.154,840.02618 0,-58.112 -9.984,0 c -1.96268,8e-5 -2.94401,1.32274 -2.944,3.968 l 0,6.016 -13.056,-0.896 0,-21.76 66.944,0 0,21.76 -13.056,0.896 0,-6.016 c -6e-5,-1.45059 -0.21339,-2.47459 -0.64,-3.072 -0.42672,-0.59726 -1.45072,-0.89592 -3.072,-0.896 l -8.704,0 0,61.184 10.112,0.384 0,10.88 -36.096,0 0,-10.368 6.784,-0.384 c 2.47464,-0.25599 3.71197,-1.45065 3.712,-3.584"
             inkscape:connector-curvature="0" />
          <path
             id="path4934"
             d="m 746.872,839.38618 0,-22.144 -36.224,0 0,25.856 7.424,0.384 0,10.88 -30.976,0 0,-10.368 4.224,-0.384 c 2.47466,-0.25599 3.71199,-1.45065 3.712,-3.584 l 0,-59.52 -7.296,-0.384 0,-10.88 30.976,0 0,10.368 -4.224,0.384 c -1.36536,0.17074 -2.3467,0.55474 -2.944,1.152 -0.59736,0.51208 -0.89603,1.53607 -0.896,3.072 l 0,19.84 36.224,0 0,-23.552 -7.296,-0.384 0,-10.88 30.976,0 0,10.368 -4.224,0.384 c -2.47475,0.25608 -3.71208,1.62141 -3.712,4.096 l 0,59.008 7.296,0.384 0,10.88 -30.976,0 0,-10.368 4.224,-0.384 c 1.27994,-0.17065 2.2186,-0.51199 2.816,-1.024 0.59727,-0.59732 0.89594,-1.66398 0.896,-3.2"
             inkscape:connector-curvature="0" />
          <path
             id="path4936"
             d="m 837.402,854.36218 -60.8,0 0,-10.368 4.224,-0.384 c 2.47466,-0.25599 3.71199,-1.45065 3.712,-3.584 l 0,-59.52 -7.296,-0.384 0,-10.88 58.624,0 0,21.248 -13.056,0.896 0,-5.12 c -5e-5,-1.45059 -0.21338,-2.47459 -0.64,-3.072 -0.42672,-0.59726 -1.45072,-0.89593 -3.072,-0.896 l -18.944,0 0,21.888 29.568,0 0,13.056 -29.568,0 0,23.936 20.608,0 c 1.53595,2e-5 2.51728,-0.29865 2.944,-0.896 0.42661,-0.68265 0.63995,-1.74931 0.64,-3.2 l 0,-6.4 13.056,0.896 0,22.784"
             inkscape:connector-curvature="0" />
          <path
             id="path4938"
             d="m 872.352,854.36218 0,-10.368 4.224,-0.384 c 2.47466,-0.25599 3.71199,-1.45065 3.712,-3.584 l 0,-59.52 -7.296,-0.384 0,-10.88 35.072,0 c 12.54395,9e-5 22.3146,3.32808 29.312,9.984 7.08259,6.65607 10.62392,16.51206 10.624,29.568 -8e-5,8.10671 -1.06675,15.18937 -3.2,21.248 -2.13341,5.97335 -5.03474,10.66668 -8.704,14.08 -7.33873,6.82667 -16.46938,10.24 -27.392,10.24 l -36.352,0 m 23.552,-72.704 0,60.416 13.056,0 c 7.33862,1e-5 13.05595,-2.64532 17.152,-7.936 4.09594,-5.29064 6.14394,-12.97063 6.144,-23.04 -6e-5,-19.6266 -8.32006,-29.43992 -24.96,-29.44 l -11.392,0"
             inkscape:connector-curvature="0" />
          <path
             id="path4940"
             d="m 993.16,767.70618 c 10.1546,9e-5 18.6453,3.58409 25.472,10.752 6.8266,7.16807 10.2399,18.13339 10.24,32.896 -10e-5,14.67736 -3.4134,25.81335 -10.24,33.408 -6.7414,7.50934 -15.9147,11.264 -27.52,11.264 -11.52003,0 -20.56535,-3.75466 -27.136,-11.264 -6.57068,-7.50931 -9.85601,-18.43197 -9.856,-32.768 -10e-6,-7.85061 1.15199,-14.71994 3.456,-20.608 2.30399,-5.97326 5.33332,-10.58126 9.088,-13.824 7.59464,-6.57058 16.42663,-9.85591 26.496,-9.856 m -23.04,43.648 c -2e-5,21.16269 7.33864,31.74401 22.016,31.744 7.85062,1e-5 13.3546,-3.24265 16.512,-9.728 2.9013,-5.7173 4.3519,-12.71463 4.352,-20.992 -10e-5,-7.42395 -1.2801,-14.25061 -3.84,-20.48 -1.4507,-3.41326 -3.6694,-6.10126 -6.656,-8.064 -2.90138,-1.96259 -6.69871,-2.94392 -11.392,-2.944 -4.69337,8e-5 -8.7467,1.53607 -12.16,4.608 -3.32803,3.07207 -5.63202,6.78406 -6.912,11.136 -1.28002,4.35206 -1.92002,9.25872 -1.92,14.72"
             inkscape:connector-curvature="0" />
          <path
             id="path4942"
             d="m 1085.808,782.81018 c -0.9387,-1.62126 -4.4374,-2.43192 -10.496,-2.432 -7.936,8e-5 -13.952,2.68807 -18.048,8.064 -4.096,5.37606 -6.144,13.14139 -6.144,23.296 0,21.07736 7.8933,31.61601 23.68,31.616 0.256,10e-6 1.3653,10e-6 3.328,0 2.0479,10e-6 3.9679,-0.25599 5.76,-0.768 1.7919,-0.59732 2.8586,-1.19465 3.2,-1.792 0.3413,-0.59732 0.5119,-1.53598 0.512,-2.816 l 0,-10.24 13.056,0.896 0,22.144 c -6.6561,3.49867 -15.1041,5.248 -25.344,5.248 -13.056,0 -23.04,-3.66933 -29.952,-11.008 -6.8267,-7.33865 -10.24,-18.2613 -10.24,-32.768 0,-8.02128 1.152,-15.01861 3.456,-20.992 2.304,-5.97326 5.4187,-10.62392 9.344,-13.952 7.68,-6.39991 16.8106,-9.59991 27.392,-9.6 8.5333,9e-5 16.5546,1.74942 24.064,5.248 l 0,21.76 -13.056,0.896 0,-9.984 c -10e-5,-1.27993 -0.1707,-2.21859 -0.512,-2.816"
             inkscape:connector-curvature="0" />
          <path
             id="path4944"
             d="m 1133.848,842.84218 c 10.24,10e-6 15.36,-4.09598 15.36,-12.288 0,-4.26664 -2.2614,-7.42397 -6.784,-9.472 -2.3894,-1.19463 -5.504,-2.30396 -9.344,-3.328 -3.7547,-1.02396 -6.912,-2.04796 -9.472,-3.072 -2.4747,-1.10929 -4.992,-2.60262 -7.552,-4.48 -5.0347,-3.75462 -7.552,-9.51461 -7.552,-17.28 0,-7.85059 2.688,-13.99459 8.064,-18.432 5.4613,-4.52258 12.544,-6.78391 21.248,-6.784 8.7893,9e-5 16.9386,1.74942 24.448,5.248 l 0,19.2 -13.056,0.896 0,-7.424 c 0,-1.27993 -0.1707,-2.21859 -0.512,-2.816 -0.9387,-1.62126 -3.968,-2.43192 -9.088,-2.432 -5.0347,8e-5 -8.7894,0.89608 -11.264,2.688 -2.3894,1.79207 -3.584,4.5654 -3.584,8.32 0,2.73073 1.024,5.12006 3.072,7.168 1.3653,1.36539 3.3706,2.51739 6.016,3.456 2.7306,0.85339 5.5893,1.74939 8.576,2.688 3.072,0.93872 5.76,1.96272 8.064,3.072 2.3893,1.10938 4.8639,2.64538 7.424,4.608 5.2053,3.84004 7.8079,9.7707 7.808,17.792 -10e-5,8.02135 -2.9014,14.33601 -8.704,18.944 -5.7174,4.608 -13.312,6.912 -22.784,6.912 -9.3867,0 -17.8347,-1.74933 -25.344,-5.248 l 0,-20.224 13.056,-0.896 0,7.808 c 0,1.28002 0.1706,2.21868 0.512,2.816 0.3413,0.59735 1.3653,1.19468 3.072,1.792 1.792,0.51201 4.5653,0.76801 8.32,0.768"
             inkscape:connector-curvature="0" />
          <path
             d="M 1347.8125 106.375 L 1347.8125 111.875 C 1347.8125 114.26442 1346.8064 115.46884 1344.8438 115.46875 L 1319.375 115.46875 L 1313.875 158.46875 C 1334.2696 158.46879 1344.4688 163.68312 1344.4688 174.09375 C 1344.4688 182.45643 1340.1102 186.65626 1331.4062 186.65625 C 1325.2623 186.65626 1318.8747 184.79435 1312.2188 181.125 L 1307.0938 192.90625 C 1309.8245 194.61292 1313.4461 196.12625 1317.9688 197.40625 C 1322.5768 198.68625 1327.2838 199.3125 1332.0625 199.3125 C 1341.7905 199.3125 1348.9545 196.78467 1353.5625 191.75 C 1358.1704 186.71535 1360.4687 180.75577 1360.4688 173.84375 C 1360.4687 165.39579 1357.4336 159.04796 1351.375 154.78125 C 1345.4016 150.4293 1337.651 147.90147 1328.0938 147.21875 L 1330.6562 127.625 L 1359.9688 127.625 L 1359.9688 107.28125 L 1347.8125 106.375 z M 1153.7812 113.8125 C 1145.3332 113.81259 1137.0838 115.80192 1129.0625 119.8125 L 1129.0625 140.3125 L 1142.125 141.1875 L 1142.125 132.125 C 1142.125 130.75974 1142.244 129.75365 1142.5 129.15625 C 1142.8413 128.47366 1143.7765 127.88707 1145.3125 127.375 C 1146.9338 126.86307 1149.303 126.62507 1152.375 126.625 C 1155.5323 126.62507 1158.0998 127.56024 1160.0625 129.4375 C 1162.1105 131.3149 1163.125 133.73215 1163.125 136.71875 C 1163.125 139.62014 1162.697 142.14798 1161.8438 144.28125 C 1161.0758 146.3293 1160.2595 147.93039 1159.4062 149.125 C 1158.5529 150.23438 1156.8015 152.49296 1154.1562 155.90625 L 1128.6875 188.0625 L 1128.6875 197.90625 L 1179.75 197.90625 L 1179.75 185.21875 L 1147.75 185.21875 L 1168.375 160.90625 C 1175.6283 152.11697 1179.2499 144.13681 1179.25 136.96875 C 1179.2499 129.80082 1177.1103 124.18983 1172.8438 120.09375 C 1168.577 115.9125 1162.2293 113.81259 1153.7812 113.8125 z M 1215.6875 113.8125 C 1206.2155 113.81259 1198.8135 117.35492 1193.4375 124.4375 C 1188.0615 131.52024 1185.375 142.30589 1185.375 156.8125 C 1185.375 171.3192 1187.7922 182.02552 1192.6562 188.9375 C 1197.5203 195.76417 1204.9138 199.1875 1214.8125 199.1875 C 1224.7111 199.1875 1232.1841 195.7245 1237.2188 188.8125 C 1242.2534 181.81519 1244.7499 170.83961 1244.75 155.90625 C 1244.7499 127.83166 1235.0581 113.81259 1215.6875 113.8125 z M 1272.3125 115.46875 L 1249.0312 129.9375 L 1254.6562 139.78125 L 1269.625 132.125 L 1269.625 182.40625 C 1269.625 183.94227 1269.316 185.02768 1268.7188 185.625 C 1268.1213 186.22235 1267.1862 186.57095 1265.9062 186.65625 L 1253.625 187.40625 L 1253.625 197.90625 L 1298.1562 197.90625 L 1298.1562 187.03125 L 1284.8438 186.375 L 1284.8438 115.46875 L 1272.3125 115.46875 z M 1215.1875 126.34375 C 1219.8808 126.34382 1223.4231 128.56274 1225.8125 133 C 1228.2871 137.4374 1229.5312 145.29856 1229.5312 156.5625 C 1229.5312 167.7412 1228.2475 175.60236 1225.6875 180.125 C 1223.2128 184.64768 1219.6705 186.90626 1215.0625 186.90625 C 1210.4545 186.90626 1206.9121 184.72702 1204.4375 180.375 C 1202.0481 175.93769 1200.8438 168.19553 1200.8438 157.1875 C 1200.8438 146.09422 1202.0481 138.22465 1204.4375 133.53125 C 1206.9121 128.75266 1210.4941 126.34382 1215.1875 126.34375 z "
             transform="translate(74.114,656.45674)"
             id="path4946"
             style="fill-opacity:1;fill:url(#linearGradient5068)" />
        </g>
      </g>
      <g
         style="font-size:81.37377166999998224px;font-style:normal;font-variant:normal;font-weight:300;font-stretch:normal;text-align:start;line-height:125%;letter-spacing:0px;word-spacing:0px;writing-mode:lr-tb;text-anchor:start;fill:url(#linearGradient5115);fill-opacity:1;stroke:none;font-family:Aleo;-inkscape-font-specification:Aleo Light"
         id="text4909">
        <path
           d="m 206.70496,890.05957 c 1.05786,-0.0814 1.58679,-0.52893 1.58679,-1.46473 l 0,-1.58679 -6.83539,0 -2.88877,0 c -0.36618,-0.0407 -0.69168,0 -0.89511,0.12206 -0.20344,0.0814 -0.44756,0.28481 -0.65099,0.65099 l -22.62191,39.95452 c -0.20344,0.40687 -0.40687,0.81374 -0.61031,1.22061 -0.16274,0.40687 -0.32549,0.85442 -0.48824,1.26129 -0.28481,-0.85442 -0.65099,-1.66816 -1.05786,-2.44121 L 149.01096,887.7811 c -0.20343,-0.36618 -0.44756,-0.56962 -0.69168,-0.65099 -0.20343,-0.0814 -0.52893,-0.12206 -0.89511,-0.12206 l -2.84808,0 -6.8354,0 0,1.58679 c 0,0.9358 0.52893,1.38335 1.58679,1.46473 0.12206,0 0.36618,0 0.77305,0 0.40687,0.0407 1.01717,0.0407 1.83091,0.0814 0.77305,0 1.66817,0.0407 2.64465,0.0814 l 0,51.10273 c -0.97648,0.0407 -1.8716,0.0814 -2.64465,0.0814 -0.81374,0.0407 -1.42404,0.0407 -1.83091,0.0814 -0.40687,0 -0.65099,0 -0.77305,0 -1.05786,0.0814 -1.58679,0.52893 -1.58679,1.46473 l 0,1.58679 6.8354,0 3.62113,0 7.03883,0 0,-1.58679 c 0,-0.9358 -0.52893,-1.38336 -1.62747,-1.46473 -0.12206,0 -0.36618,0 -0.81374,0 -0.40687,-0.0407 -1.05786,-0.0407 -1.8716,-0.0814 -0.85442,0 -1.74953,-0.0407 -2.72602,-0.0814 l 0,-45.81343 c 0,-0.73236 -0.0407,-1.50542 -0.12206,-2.27847 l 23.2729,40.23933 c 0.40687,0.73237 0.9358,1.05786 1.62748,1.05786 l 0.65099,0 c 0.69167,0 1.26129,-0.32549 1.62747,-1.05786 l 22.6626,-40.23933 c -0.0814,0.81374 -0.12206,1.54611 -0.12206,2.27847 l 0,45.81343 c -0.97649,0.0407 -1.8716,0.0814 -2.72603,0.0814 -0.81373,0.0407 -1.46472,0.0407 -1.87159,0.0814 -0.44756,0 -0.69168,0 -0.81374,0 -1.09854,0.0814 -1.62748,0.52893 -1.62748,1.46473 l 0,1.58679 7.03884,0 3.66182,0 6.83539,0 0,-1.58679 c 0,-0.9358 -0.52893,-1.38336 -1.58679,-1.46473 -0.12206,0 -0.36618,0 -0.77305,0 -0.40687,-0.0407 -1.01717,-0.0407 -1.83091,-0.0814 -0.77305,0 -1.66816,-0.0407 -2.64464,-0.0814 l 0,-51.10273 c 0.97648,-0.0407 1.87159,-0.0814 2.64464,-0.0814 0.81374,-0.0407 1.42404,-0.0814 1.83091,-0.0814 0.40687,0 0.65099,0 0.77305,0"
           style=""
           id="path5071" />
        <path
           d="m 270.20448,941.04023 -2.64465,-0.24412 -22.0116,-53.82875 -4.15006,0 -22.01161,53.82875 -2.64465,0.24412 c -1.05786,0.12206 -1.5461,0.69168 -1.5461,1.62748 l 0,1.8716 2.64465,0 1.66816,0 1.50542,0 0.56961,0 7.64914,0 0,-1.8716 c 0,-1.01717 -0.65099,-1.58679 -1.8716,-1.62748 -0.12206,-0.0407 -0.28481,-0.0407 -0.52893,-0.0407 -0.20343,-0.0407 -0.6103,-0.0407 -1.13923,-0.0814 -0.52893,-0.0407 -1.22061,-0.0814 -2.07503,-0.12206 l 5.69616,-14.07766 0.40687,-1.01717 27.46365,0 0.40687,1.01717 5.69616,14.07766 c -0.81374,0.0407 -1.50542,0.0814 -2.03434,0.12206 -0.56962,0.0407 -0.9358,0.0407 -1.17992,0.0814 -0.20344,0 -0.36619,0 -0.48825,0.0407 -1.26129,0.0407 -1.87159,0.61031 -1.87159,1.62748 l 0,1.8716 7.64913,0 0.52893,0 1.5461,0 1.66816,0 2.64465,0 0,-1.8716 c 0,-0.9358 -0.52893,-1.50542 -1.5461,-1.62748 m -27.87052,-46.46442 c 0.20344,-0.48824 0.36619,-1.01717 0.56962,-1.58679 0.20343,-0.56961 0.36618,-1.2206 0.56962,-1.87159 0.16274,0.65099 0.36618,1.26129 0.56961,1.87159 0.20344,0.56962 0.36619,1.09855 0.56962,1.5461 l 11.35164,28.07396 -24.98175,0 11.35164,-28.03327"
           style=""
           id="path5073" />
        <path
           d="m 311.44827,887.00805 -0.40687,0 -3.25495,0 -0.6103,0 -8.13738,0 0,1.58679 c 0,0.9358 0.52893,1.38335 1.58679,1.46473 0.12206,0 0.32549,0 0.65099,0 0.2848,0 0.73236,0.0407 1.38335,0.0407 0.69168,0.0407 1.42404,0.0814 2.23778,0.0814 l -15.09484,24.29007 c -0.36618,0.6103 -0.69167,1.22061 -0.97648,1.79022 -0.28481,0.56962 -0.52893,1.17992 -0.73236,1.79022 -0.20344,-0.6103 -0.44756,-1.2206 -0.73237,-1.79022 -0.24412,-0.56961 -0.56962,-1.17992 -0.97648,-1.79022 l -15.09484,-24.29007 c 0.81374,0 1.5461,-0.0407 2.19709,-0.0814 0.65099,0 1.13924,-0.0407 1.42404,-0.0407 0.28481,0 0.48825,0 0.61031,0 1.05786,-0.0814 1.62747,-0.52893 1.62747,-1.46473 l 0,-1.58679 -8.17806,0 -0.65099,0 -3.21426,0 -0.40687,0 -2.56328,0 0,1.58679 c 0,0.9358 0.52893,1.38335 1.58679,1.46473 1.42404,0.0407 2.40053,0.0814 3.01083,0.12206 l 19.2449,30.63722 0,20.50619 c -0.97649,0.0407 -1.83091,0.0814 -2.64465,0.0814 -0.81374,0.0407 -1.42404,0.0407 -1.79022,0.0814 -0.40687,0 -0.65099,0 -0.77305,0 -1.09855,0.0814 -1.62748,0.52893 -1.62748,1.46473 l 0,1.58679 6.8354,0 4.19075,0 6.83539,0 0,-1.58679 c 0,-0.9358 -0.52893,-1.38336 -1.58678,-1.46473 -0.12207,0 -0.36619,0 -0.77306,0 -0.40686,-0.0407 -1.01717,-0.0407 -1.83091,-0.0814 -0.77305,0 -1.66816,-0.0407 -2.64464,-0.0814 l 0,-20.54687 19.28558,-30.59654 c 0.6103,-0.0407 1.62748,-0.0814 2.97014,-0.12206 1.09855,-0.0814 1.62748,-0.52893 1.62748,-1.46473 l 0,-1.58679 -2.60396,0"
           style=""
           id="path5075" />
        <path
           d="m 370.25989,944.53931 0,-1.30198 c 0,-0.77305 -0.44756,-1.13924 -1.34267,-1.17992 -0.56962,-0.0407 -4.31282,-0.24413 -11.27027,-0.56962 l 0,-54.76455 -3.01083,0 -16.60025,14.72865 1.17992,1.62748 c 0.24412,0.32549 0.56962,0.48824 1.05786,0.48824 0.36618,0 0.69168,-0.12206 0.97649,-0.36618 l 12.6943,-11.27027 c -0.0814,1.01717 -0.12206,1.99366 -0.16274,2.92946 l 0,46.62717 c 0,0 -0.9358,0.0407 -2.8074,0.12206 -1.87159,0.0814 -3.78388,0.20344 -5.73685,0.28481 -1.99365,0.0814 -3.0922,0.12206 -3.33632,0.16275 -0.89511,0.0407 -1.34267,0.40687 -1.34267,1.17992 l 0,1.30198 29.70143,0"
           style=""
           id="path5077" />
        <path
           d="m 380.03873,887.00805 -4.15006,0 0,2.4819 0,8.42219 1.95297,0 c 1.09854,0 1.70885,-0.651 1.74953,-1.95298 0.0407,-0.48824 0.12206,-2.27846 0.28481,-5.41135 l 30.23036,0 c -0.48824,0.6103 -0.89511,1.22061 -1.2613,1.95297 l -26.52785,52.03853 2.64465,0 c 0.56962,0 1.05786,-0.12206 1.42404,-0.40687 0.36618,-0.24412 0.65099,-0.61031 0.89511,-1.05786 l 26.36511,-52.28265 c 0.16274,-0.24412 0.2848,-0.52893 0.36618,-0.85442 0.0814,-0.3255 0.12206,-0.73237 0.12206,-1.22061 l 0,-1.70885 -34.09561,0"
           style=""
           id="path5079" />
        <path
           d="m 422.82354,918.74382 0,3.29564 18.9194,0 0,-3.29564 -18.9194,0"
           style=""
           id="path5081" />
        <path
           d="m 481.9899,944.53931 0,-1.30198 c 0,-0.77305 -0.44756,-1.13924 -1.34267,-1.17992 -0.56962,-0.0407 -4.31282,-0.24413 -11.27027,-0.56962 l 0,-54.76455 -3.01083,0 -16.60025,14.72865 1.17992,1.62748 c 0.24412,0.32549 0.56962,0.48824 1.05786,0.48824 0.36618,0 0.69168,-0.12206 0.97649,-0.36618 l 12.69431,-11.27027 c -0.0814,1.01717 -0.12207,1.99366 -0.16275,2.92946 l 0,46.62717 c 0,0 -0.9358,0.0407 -2.8074,0.12206 -1.87159,0.0814 -3.78388,0.20344 -5.73685,0.28481 -1.99365,0.0814 -3.0922,0.12206 -3.33632,0.16275 -0.89511,0.0407 -1.34267,0.40687 -1.34267,1.17992 l 0,1.30198 29.70143,0"
           style=""
           id="path5083" />
        <path
           d="m 504.01549,920.0458 c 2.52259,0.0407 4.92312,-0.44756 7.16089,-1.42404 2.23778,-0.9358 4.15007,-2.27847 5.73686,-4.028 -0.56962,0.97648 -1.22061,1.95297 -1.91229,2.97014 -0.69167,1.01717 -1.42404,2.07503 -2.23778,3.21427 l -17.00712,23.76114 3.49908,0 c 0.89511,0 1.58679,-0.28481 1.99365,-0.9358 l 15.09484,-22.13367 c 1.09854,-1.62747 2.07503,-3.13289 2.97014,-4.55693 0.85443,-1.42404 1.58679,-2.8074 2.19709,-4.19075 0.61031,-1.34266 1.05786,-2.68533 1.38336,-4.06869 0.32549,-1.34266 0.44755,-2.76671 0.48824,-4.27212 0,-2.68533 -0.44756,-5.16724 -1.30198,-7.36433 -0.85442,-2.19709 -2.03435,-4.10937 -3.58045,-5.69616 -1.5461,-1.58679 -3.37701,-2.8074 -5.49273,-3.70251 -2.11571,-0.85442 -4.47556,-1.30198 -6.99814,-1.30198 -2.68533,0 -5.12655,0.44756 -7.36433,1.34267 -2.23777,0.89511 -4.15006,2.07503 -5.77753,3.62113 -1.62748,1.5461 -2.92946,3.37702 -3.82457,5.49273 -0.89511,2.11572 -1.34267,4.39419 -1.34267,6.87609 0,2.48189 0.40687,4.71968 1.22061,6.75402 0.81373,2.03434 1.91228,3.74319 3.37701,5.20792 1.46473,1.42404 3.17358,2.52259 5.16723,3.29564 1.99366,0.77305 4.19076,1.13923 6.55059,1.13923 m 15.62377,-16.35613 c 0,1.62748 -0.3255,3.21427 -0.97649,4.80106 -0.65099,1.58678 -1.58679,3.01083 -2.80739,4.31281 -1.2613,1.26129 -2.8074,2.27846 -4.59762,3.05151 -1.79022,0.81374 -3.86526,1.17992 -6.14372,1.17992 -2.03434,0.0407 -3.90594,-0.28481 -5.5741,-0.9358 -1.66817,-0.6103 -3.09221,-1.50541 -4.27213,-2.68533 -1.17992,-1.17992 -2.07503,-2.60396 -2.72602,-4.31281 -0.65099,-1.70885 -0.97648,-3.62114 -0.97648,-5.73685 0,-2.03434 0.32549,-3.86526 1.05785,-5.57411 0.69168,-1.70884 1.66817,-3.13289 2.92946,-4.39418 1.26129,-1.17992 2.76671,-2.1564 4.55693,-2.84808 1.79022,-0.65099 3.7432,-0.97649 5.85891,-1.01717 1.95297,0 3.78389,0.36618 5.45205,1.05786 1.66816,0.69167 3.13289,1.66816 4.35349,2.88876 1.22061,1.22061 2.15641,2.72603 2.84808,4.47556 0.65099,1.70885 1.01718,3.62114 1.01718,5.73685"
           style=""
           id="path5085" />
        <path
           d="m 587.09684,891.44292 c -3.45838,-2.97014 -8.54425,-4.43487 -15.29827,-4.43487 l -13.99628,0 -6.8354,0 0,1.58679 c 0,0.9358 0.52893,1.38335 1.58679,1.46473 0.12206,0 0.36618,0 0.77305,0 0.40687,0.0407 1.01717,0.0407 1.83091,0.0814 0.77305,0 1.66816,0.0407 2.64465,0.0814 l 0,51.10273 c -0.97649,0.0407 -1.8716,0.0814 -2.64465,0.0814 -0.81374,0.0407 -1.42404,0.0407 -1.83091,0.0814 -0.40687,0 -0.65099,0 -0.77305,0 -1.05786,0.0814 -1.58679,0.52893 -1.58679,1.46473 l 0,1.58679 6.8354,0 4.15006,0 6.83539,0 0,-1.58679 c 0,-0.9358 -0.52893,-1.38336 -1.58678,-1.46473 -0.12206,0 -0.40687,0 -0.77305,0 -0.40687,-0.0407 -1.01718,-0.0407 -1.83091,-0.0814 -0.77305,0 -1.66817,-0.0407 -2.64465,-0.0814 l 0,-19.97726 9.84622,0 c 3.17358,0 6.02167,-0.40687 8.54425,-1.26129 2.52258,-0.85443 4.67899,-2.03435 6.42853,-3.58045 1.79022,-1.5461 3.13289,-3.37701 4.06869,-5.45204 0.93579,-2.1564 1.38335,-4.43487 1.38335,-6.95746 0,-5.49272 -1.70885,-9.72417 -5.12655,-12.65362 m -0.12206,18.18704 c -0.77305,1.70885 -1.83091,3.17358 -3.21426,4.39418 -1.42404,1.26129 -3.09221,2.23778 -5.12655,2.92946 -1.99365,0.73236 -4.27212,1.05786 -6.8354,1.05786 l -9.84622,0 0,-27.70777 9.84622,0 c 5.41135,0 9.48005,1.17992 12.20607,3.53976 2.72602,2.40052 4.06869,5.81823 4.06869,10.21241 0,2.03434 -0.36618,3.86525 -1.09855,5.5741"
           style=""
           id="path5087" />
        <path
           d="m 653.07063,915.73299 c 0,-4.39418 -0.69168,-8.42219 -1.99366,-12.04332 -1.34267,-3.62113 -3.21427,-6.71334 -5.61479,-9.31729 -2.44121,-2.56327 -5.32999,-4.55694 -8.66631,-5.94029 -3.37701,-1.38335 -7.12021,-2.07503 -11.18889,-2.07503 -4.06869,0 -7.7712,0.69168 -11.10752,2.11572 -3.37701,1.38335 -6.26578,3.37701 -8.66631,5.94028 -2.44121,2.56327 -4.31281,5.65548 -5.65548,9.27661 -1.34266,3.62113 -1.99365,7.64914 -1.99365,12.08401 0,4.43486 0.65099,8.46287 1.99365,12.084 1.34267,3.62113 3.21427,6.71334 5.65548,9.27661 2.40053,2.56327 5.2893,4.55694 8.66631,5.94029 3.33632,1.38335 7.03883,2.11572 11.10752,2.11572 4.06868,0 7.81188,-0.73237 11.18889,-2.11572 3.33632,-1.38335 6.2251,-3.37702 8.66631,-5.94029 2.40052,-2.56327 4.27212,-5.65548 5.61479,-9.27661 1.30198,-3.62113 1.95297,-7.64914 1.99366,-12.12469 m -4.31281,0.0407 c 0,4.028 -0.56962,7.64914 -1.66817,10.82271 -1.13923,3.17357 -2.68533,5.8996 -4.71968,8.09669 -2.03434,2.23778 -4.43487,3.94663 -7.28295,5.12655 -2.84808,1.13923 -6.02166,1.74953 -9.48004,1.74953 -3.4177,0 -6.55059,-0.6103 -9.39867,-1.74953 -2.84808,-1.17992 -5.2893,-2.88877 -7.32364,-5.12655 -2.03434,-2.19709 -3.62114,-4.92312 -4.76037,-8.09669 -1.13923,-3.17357 -1.66816,-6.79471 -1.66816,-10.8634 0,-3.98731 0.52893,-7.60845 1.66816,-10.82271 1.13923,-3.17357 2.72603,-5.8996 4.76037,-8.13738 2.03434,-2.19709 4.47556,-3.90594 7.32364,-5.08586 2.84808,-1.17992 5.98097,-1.79022 9.39867,-1.79022 3.45838,0 6.63196,0.6103 9.48004,1.79022 2.80739,1.17992 5.24861,2.88877 7.28295,5.08586 2.03435,2.23778 3.58045,4.96381 4.679,8.13738 1.13923,3.21426 1.70885,6.8354 1.70885,10.8634"
           style=""
           id="path5089" />
        <path
           d="m 707.01382,941.48779 c -0.12206,0 -0.28481,0 -0.52893,0 -0.24412,0 -0.61031,-0.0407 -1.05786,-0.0407 -0.48824,0 -0.97649,-0.0407 -1.46473,-0.0407 l -17.29192,-21.76749 c -0.52893,-0.65099 -1.09855,-1.2206 -1.74954,-1.62747 2.52258,-0.24412 4.76037,-0.81374 6.79471,-1.70885 1.99365,-0.89511 3.70251,-1.99366 5.12655,-3.37701 1.42404,-1.38336 2.52258,-2.97015 3.29563,-4.80106 0.73237,-1.79022 1.13924,-3.82457 1.13924,-6.02166 0,-4.9231 -1.66817,-8.70699 -4.92312,-11.27026 -3.29563,-2.56327 -8.25944,-3.82457 -14.8914,-3.82457 l -13.99628,0 -6.8354,0 0,1.58679 c 0,0.9358 0.52893,1.38335 1.58679,1.46473 0.12206,0 0.36618,0 0.77305,0 0.40687,0 1.01717,0.0407 1.83091,0.0814 0.77305,0 1.66816,0.0407 2.64465,0.0814 l 0,51.10273 c -0.97649,0.0407 -1.8716,0.0814 -2.64465,0.0814 -0.81374,0.0407 -1.42404,0.0407 -1.83091,0.0814 -0.40687,0 -0.65099,0 -0.77305,0 -1.05786,0.0814 -1.58679,0.52893 -1.58679,1.46473 l 0,1.58679 6.8354,0 4.15006,0 6.83539,0 0,-1.58679 c 0,-0.9358 -0.52893,-1.38336 -1.62747,-1.46473 -0.0814,0 -0.36618,0 -0.73237,0 -0.40686,-0.0407 -1.01717,-0.0407 -1.8309,-0.0814 -0.81374,0 -1.66817,-0.0407 -2.64465,-0.0814 l 0,-22.82534 6.83539,0 c 1.09855,0 1.91229,0.12206 2.44122,0.36618 0.52893,0.24412 1.01717,0.69168 1.50541,1.2613 l 18.43116,23.35427 c 0.28481,0.40687 0.56962,0.65099 0.89511,0.81374 0.3255,0.16274 0.69168,0.24412 1.13924,0.24412 l 0.40686,0 3.21427,0 2.11572,0 0,-1.58679 c 0,-0.9358 -0.52893,-1.38336 -1.58679,-1.46473 m -26.0803,-26.08029 -9.31729,0 0,-25.10381 9.84622,0 c 5.12655,0 9.0325,0.97649 11.71783,2.97014 2.68533,1.95297 4.028,5.00449 4.028,9.11386 0,1.99366 -0.36618,3.78388 -1.09855,5.37067 -0.73236,1.62748 -1.83091,2.97015 -3.21426,4.10938 -1.38335,1.17992 -3.09221,2.03434 -5.12655,2.64464 -2.03434,0.61031 -4.31281,0.89512 -6.8354,0.89512"
           style=""
           id="path5091" />
        <path
           d="m 757.33079,887.00805 -1.13923,0 -42.39574,0 -1.17992,0 -0.52893,0 0,11.92126 1.95297,0 c 1.09855,0 1.70885,-0.65099 1.74954,-1.95297 0.0407,-0.56962 0.16275,-2.72603 0.32549,-6.46922 l 16.84437,0 0,50.81792 c -0.97648,0.0407 -1.87159,0.0814 -2.64464,0.0814 -0.81374,0.0407 -1.42404,0.0407 -1.83091,0.0814 -0.36618,0 -0.65099,0 -0.77305,0 -1.05786,0.0814 -1.58679,0.52893 -1.58679,1.46473 l 0,1.58679 6.83539,0 4.15007,0 6.87608,0 0,-1.58679 c 0,-0.9358 -0.56962,-1.38336 -1.62747,-1.46473 -0.12207,0 -0.36619,0 -0.77306,0 -0.40686,-0.0407 -1.01717,-0.0407 -1.79022,-0.0814 -0.81374,0 -1.70885,-0.0407 -2.68533,-0.0814 l 0,-50.77723 16.76299,0 c 0.20344,4.10937 0.3255,6.26578 0.3255,6.42853 0.0407,1.30198 0.65099,1.95297 1.74953,1.95297 l 1.99366,0 0,-11.92126 -0.6103,0"
           style=""
           id="path5093" />
        <path
           d="m 801.39847,933.83866 c -1.09854,0 -1.66816,0.65099 -1.74953,1.95297 0,0.12206 -0.0407,0.32549 -0.0814,0.69167 -0.0407,0.3255 -0.0814,0.85443 -0.16274,1.62748 -0.0814,0.77305 -0.12207,1.74954 -0.20344,2.88877 l -23.80183,0 0,-50.77724 c 0.97649,-0.0407 1.8716,-0.0814 2.64465,-0.0814 0.81374,-0.0407 1.42404,-0.0407 1.83091,-0.0814 0.36618,0 0.65099,0 0.77305,0 1.05786,-0.0814 1.58679,-0.52893 1.58679,-1.46473 l 0,-1.58679 -6.8354,0 -4.15006,0 -6.8354,0 0,1.58679 c 0,0.9358 0.52893,1.38335 1.58679,1.46473 0.12206,0 0.36618,0 0.77305,0 0.40687,0.0407 1.01718,0.0407 1.83091,0.0814 0.77305,0 1.66817,0.0407 2.64465,0.0814 l 0,51.10273 c -0.97648,0.0407 -1.8716,0.0814 -2.64465,0.0814 -0.81373,0.0407 -1.42404,0.0407 -1.83091,0.0814 -0.40687,0 -0.65099,0 -0.77305,0 -1.05786,0.0814 -1.58679,0.52893 -1.58679,1.46473 l 0,1.58679 6.8354,0 30.7186,0 0.73236,0 0.69168,0 0,-1.50542 0,-3.29564 0,-5.89959 -1.58679,0 -0.40687,0"
           style=""
           id="path5095" />
        <path
           d="m 865.72696,941.04023 -2.64464,-0.24412 -22.01161,-53.82875 -4.15006,0 -22.01161,53.82875 -2.64464,0.24412 c -1.05786,0.12206 -1.5461,0.69168 -1.5461,1.62748 l 0,1.8716 2.64464,0 1.66816,0 1.50542,0 0.56962,0 7.64913,0 0,-1.8716 c 0,-1.01717 -0.65099,-1.58679 -1.8716,-1.62748 -0.12206,-0.0407 -0.2848,-0.0407 -0.52893,-0.0407 -0.20343,-0.0407 -0.6103,-0.0407 -1.13923,-0.0814 -0.52893,-0.0407 -1.22061,-0.0814 -2.07503,-0.12206 l 5.69616,-14.07766 0.40687,-1.01717 27.46365,0 0.40687,1.01717 5.69616,14.07766 c -0.81373,0.0407 -1.50541,0.0814 -2.03434,0.12206 -0.56962,0.0407 -0.9358,0.0407 -1.17992,0.0814 -0.20343,0 -0.36618,0 -0.48824,0.0407 -1.26129,0.0407 -1.8716,0.61031 -1.8716,1.62748 l 0,1.8716 7.64914,0 0.52892,0 1.54611,0 1.66816,0 2.64465,0 0,-1.8716 c 0,-0.9358 -0.52893,-1.50542 -1.54611,-1.62748 m -27.87051,-46.46442 c 0.20343,-0.48824 0.36618,-1.01717 0.56961,-1.58679 0.20344,-0.56961 0.36619,-1.2206 0.56962,-1.87159 0.16275,0.65099 0.36618,1.26129 0.56962,1.87159 0.20343,0.56962 0.36618,1.09855 0.56961,1.5461 l 11.35164,28.07396 -24.98174,0 11.35164,-28.03327"
           style=""
           id="path5097" />
        <path
           d="m 925.82026,887.00805 -3.66182,0 -7.03884,0 0,1.58679 c 0,0.9358 0.52894,1.38335 1.62748,1.46473 0.12206,0 0.36618,0 0.81374,0 0.40687,0.0407 1.05786,0.0407 1.87159,0.0814 0.85443,0 1.74954,0.0407 2.72603,0.0814 l 0,45.04039 c 0,0.77305 0.0407,1.5461 0.12206,2.35984 L 885.01131,887.7811 c -0.24412,-0.32549 -0.48824,-0.56962 -0.69168,-0.65099 -0.20343,-0.0814 -0.52893,-0.12206 -0.89511,-0.16275 l -2.03434,0 -6.8354,0 0,1.62748 c 0,0.9358 0.52893,1.38335 1.58679,1.46473 0.12206,0 0.36618,0 0.77305,0 0.40687,0 1.01717,0.0407 1.83091,0.0814 0.77305,0 1.66816,0.0407 2.64465,0.0814 l 0,51.10273 c -0.97649,0.0407 -1.8716,0.0814 -2.64465,0.0814 -0.81374,0.0407 -1.42404,0.0407 -1.83091,0.0814 -0.40687,0 -0.65099,0 -0.77305,0 -1.05786,0.0814 -1.58679,0.52893 -1.58679,1.46473 l 0,1.58679 6.8354,0 3.62113,0 7.03883,0 0,-1.58679 c 0,-0.9358 -0.52893,-1.38336 -1.62748,-1.46473 -0.12206,0 -0.36618,0 -0.81373,0 -0.44756,-0.0407 -1.05786,-0.0407 -1.91229,-0.0814 -0.81373,0 -1.70885,-0.0407 -2.68533,-0.0814 l 0,-45.20313 c 0,-0.73236 -0.0407,-1.50541 -0.12206,-2.31915 l 37.43193,49.92281 c 0.36619,0.56961 0.89512,0.81374 1.50542,0.81374 l 1.99366,0 0,-54.317 c 0.97648,-0.0407 1.87159,-0.0814 2.64464,-0.0814 0.81374,-0.0407 1.42404,-0.0407 1.83091,-0.0814 0.36618,0 0.65099,0 0.77305,0 1.05786,-0.0814 1.58679,-0.52893 1.58679,-1.46473 l 0,-1.58679 -6.83539,0"
           style=""
           id="path5099" />
        <path
           d="m 991.04641,903.81173 c -1.34266,-3.58044 -3.21426,-6.59127 -5.61479,-9.07317 -2.40052,-2.52259 -5.2893,-4.43487 -8.6663,-5.73685 -3.37701,-1.34267 -7.07953,-1.99366 -11.1889,-1.99366 l -19.97726,0 -6.8354,0 0,1.58679 c 0,0.9358 0.52893,1.38335 1.58679,1.46473 0.12206,0 0.36618,0 0.77305,0 0.40687,0 1.01718,0.0407 1.83091,0.0814 0.77305,0 1.66817,0.0407 2.64465,0.0814 l 0,51.10273 c -0.97648,0.0407 -1.8716,0.0814 -2.64465,0.0814 -0.81373,0.0407 -1.42404,0.0407 -1.83091,0.0814 -0.40687,0 -0.65099,0 -0.77305,0 -1.05786,0.0814 -1.58679,0.52893 -1.58679,1.46473 l 0,1.58679 6.8354,0 19.97726,0 c 4.10937,0 7.81189,-0.65099 11.1889,-1.95297 3.377,-1.34267 6.26578,-3.25496 8.6663,-5.77754 2.40053,-2.4819 4.27213,-5.49273 5.61479,-9.07318 1.34267,-3.53975 1.99366,-7.52708 1.99366,-11.96194 0,-4.43487 -0.65099,-8.42219 -1.99366,-11.96195 m -3.98731,22.74397 c -1.09855,3.13289 -2.68534,5.77754 -4.67899,7.97463 -2.03435,2.15641 -4.47556,3.78388 -7.32364,4.9638 -2.84808,1.13923 -6.02167,1.70885 -9.48005,1.70885 l -15.78651,0 0,-50.81792 15.78651,0 c 3.45838,0 6.63197,0.56962 9.48005,1.70885 2.84808,1.13923 5.28929,2.76671 7.32364,4.9638 1.99365,2.1564 3.58044,4.80106 4.67899,7.97463 1.09854,3.13289 1.66816,6.71334 1.66816,10.74134 0,4.028 -0.56962,7.60845 -1.66816,10.78202"
           style=""
           id="path5101" />
        <path
           d="m 1073.9256,915.73299 c 0,-4.39418 -0.6917,-8.42219 -1.9937,-12.04332 -1.3426,-3.62113 -3.2142,-6.71334 -5.6147,-9.31729 -2.4413,-2.56327 -5.33,-4.55694 -8.6663,-5.94029 -3.3771,-1.38335 -7.1203,-2.07503 -11.1889,-2.07503 -4.0687,0 -7.7712,0.69168 -11.1076,2.11572 -3.377,1.38335 -6.2657,3.37701 -8.6663,5.94028 -2.4412,2.56327 -4.3128,5.65548 -5.6554,9.27661 -1.3427,3.62113 -1.9937,7.64914 -1.9937,12.08401 0,4.43486 0.651,8.46287 1.9937,12.084 1.3426,3.62113 3.2142,6.71334 5.6554,9.27661 2.4006,2.56327 5.2893,4.55694 8.6663,5.94029 3.3364,1.38335 7.0389,2.11572 11.1076,2.11572 4.0686,0 7.8118,-0.73237 11.1889,-2.11572 3.3363,-1.38335 6.225,-3.37702 8.6663,-5.94029 2.4005,-2.56327 4.2721,-5.65548 5.6147,-9.27661 1.302,-3.62113 1.953,-7.64914 1.9937,-12.12469 m -4.3128,0.0407 c 0,4.028 -0.5696,7.64914 -1.6682,10.82271 -1.1392,3.17357 -2.6853,5.8996 -4.7196,8.09669 -2.0344,2.23778 -4.4349,3.94663 -7.283,5.12655 -2.8481,1.13923 -6.0217,1.74953 -9.48,1.74953 -3.4177,0 -6.5506,-0.6103 -9.3987,-1.74953 -2.8481,-1.17992 -5.2893,-2.88877 -7.3237,-5.12655 -2.0343,-2.19709 -3.6211,-4.92312 -4.7603,-8.09669 -1.1392,-3.17357 -1.6682,-6.79471 -1.6682,-10.8634 0,-3.98731 0.529,-7.60845 1.6682,-10.82271 1.1392,-3.17357 2.726,-5.8996 4.7603,-8.13738 2.0344,-2.19709 4.4756,-3.90594 7.3237,-5.08586 2.8481,-1.17992 5.981,-1.79022 9.3987,-1.79022 3.4583,0 6.6319,0.6103 9.48,1.79022 2.8074,1.17992 5.2486,2.88877 7.283,5.08586 2.0343,2.23778 3.5804,4.96381 4.6789,8.13738 1.1393,3.21426 1.7089,6.8354 1.7089,10.8634"
           style=""
           id="path5103" />
        <path
           d="m 1127.8688,941.48779 c -0.1221,0 -0.2848,0 -0.5289,0 -0.2442,0 -0.6103,-0.0407 -1.0579,-0.0407 -0.4882,0 -0.9765,-0.0407 -1.4647,-0.0407 l -17.2919,-21.76749 c -0.529,-0.65099 -1.0986,-1.2206 -1.7496,-1.62747 2.5226,-0.24412 4.7604,-0.81374 6.7947,-1.70885 1.9937,-0.89511 3.7025,-1.99366 5.1266,-3.37701 1.424,-1.38336 2.5226,-2.97015 3.2956,-4.80106 0.7324,-1.79022 1.1392,-3.82457 1.1392,-6.02166 0,-4.9231 -1.6681,-8.70699 -4.9231,-11.27026 -3.2956,-2.56327 -8.2594,-3.82457 -14.8914,-3.82457 l -13.9963,0 -6.8354,0 0,1.58679 c 0,0.9358 0.529,1.38335 1.5868,1.46473 0.1221,0 0.3662,0 0.7731,0 0.4069,0 1.0172,0.0407 1.8309,0.0814 0.773,0 1.6682,0.0407 2.6446,0.0814 l 0,51.10273 c -0.9764,0.0407 -1.8716,0.0814 -2.6446,0.0814 -0.8137,0.0407 -1.424,0.0407 -1.8309,0.0814 -0.4069,0 -0.651,0 -0.7731,0 -1.0578,0.0814 -1.5868,0.52893 -1.5868,1.46473 l 0,1.58679 6.8354,0 4.1501,0 6.8354,0 0,-1.58679 c 0,-0.9358 -0.5289,-1.38336 -1.6275,-1.46473 -0.081,0 -0.3662,0 -0.7323,0 -0.4069,-0.0407 -1.0172,-0.0407 -1.8309,-0.0814 -0.8138,0 -1.6682,-0.0407 -2.6447,-0.0814 l 0,-22.82534 6.8354,0 c 1.0985,0 1.9123,0.12206 2.4412,0.36618 0.5289,0.24412 1.0172,0.69168 1.5054,1.2613 l 18.4312,23.35427 c 0.2848,0.40687 0.5696,0.65099 0.8951,0.81374 0.3255,0.16274 0.6917,0.24412 1.1392,0.24412 l 0.4069,0 3.2143,0 2.1157,0 0,-1.58679 c 0,-0.9358 -0.5289,-1.38336 -1.5868,-1.46473 m -26.0803,-26.08029 -9.3173,0 0,-25.10381 9.8462,0 c 5.1266,0 9.0325,0.97649 11.7179,2.97014 2.6853,1.95297 4.028,5.00449 4.028,9.11386 0,1.99366 -0.3662,3.78388 -1.0986,5.37067 -0.7324,1.62748 -1.8309,2.97015 -3.2143,4.10938 -1.3833,1.17992 -3.0922,2.03434 -5.1265,2.64464 -2.0343,0.61031 -4.3128,0.89512 -6.8354,0.89512"
           style=""
           id="path5105" />
        <path
           d="m 1143.312,887.00805 -6.8354,0 0,1.58679 c 0,0.9358 0.5289,1.38335 1.5868,1.46473 0.122,0 0.3662,0 0.773,0 0.4069,0 1.0172,0.0407 1.8309,0.0814 0.7731,0 1.6682,0.0407 2.6447,0.0814 l 0,51.10273 c -0.9765,0.0407 -1.8716,0.0814 -2.6447,0.0814 -0.8137,0.0407 -1.424,0.0407 -1.8309,0.0814 -0.4068,0 -0.651,0 -0.773,0 -1.0579,0.0814 -1.5868,0.52893 -1.5868,1.46473 l 0,1.58679 6.8354,0 34.5025,0 0,-3.45839 0,-8.46287 -1.9937,0 c -1.0985,0 -1.6682,0.69168 -1.7495,1.99366 0,0.16274 0,0.48824 -0.041,1.05786 -0.041,0.52892 -0.081,1.38335 -0.1221,2.60396 -0.081,1.17991 -0.122,2.11571 -0.1627,2.80739 l -26.2431,0 0,-24.00526 22.9068,0 0,-3.37701 -22.9068,0 0,-23.23221 26.2431,0 c 0.2034,3.53975 0.2848,5.73685 0.3255,6.46921 0.081,1.30198 0.651,1.99366 1.7495,1.99366 l 1.9937,0 0,-8.46287 0,-3.45839 -34.5025,0"
           style=""
           id="path5107" />
        <path
           d="m 1219.8885,918.41833 0,2.27846 c 0,0.28481 0.1221,0.48824 0.3255,0.65099 0.2034,0.20344 0.4475,0.28481 0.7324,0.3255 l 11.0668,0 0,15.46101 c -1.2613,0.77305 -2.5226,1.42404 -3.7839,1.99366 -1.2613,0.56962 -2.604,1.05786 -3.9873,1.46473 -1.3834,0.44755 -2.9295,0.73236 -4.5569,0.9358 -1.5868,0.20343 -3.4177,0.28481 -5.4114,0.28481 -3.5398,0 -6.7947,-0.56962 -9.7242,-1.79023 -2.9294,-1.17992 -5.452,-2.88877 -7.5677,-5.12655 -2.1157,-2.23777 -3.7432,-4.9638 -4.9231,-8.21875 -1.1393,-3.21426 -1.7496,-6.8354 -1.7496,-10.90408 0,-3.98731 0.6103,-7.60845 1.7496,-10.78203 1.1392,-3.21426 2.8074,-5.94028 4.9231,-8.13737 2.1157,-2.23778 4.679,-3.94663 7.6898,-5.12655 3.0515,-1.22061 6.4285,-1.79022 10.131,-1.79022 6.8354,0 12.2468,0.9358 16.2341,2.80739 0.2848,5.2486 0.4069,8.17807 0.4476,8.74768 0.041,1.30198 0.6509,1.95297 1.7495,1.95297 l 1.9937,0 0,-12.97911 c -2.5633,-1.13924 -5.859,-2.11572 -9.887,-2.92946 -4.028,-0.81374 -7.4864,-1.17992 -10.4158,-1.17992 -4.3942,0 -8.3815,0.69168 -11.9619,2.07503 -3.5805,1.38335 -6.5913,3.37702 -9.1139,5.94029 -2.4819,2.56327 -4.3942,5.65548 -5.7775,9.27661 -1.3427,3.62113 -1.9937,7.64914 -1.9937,12.084 0,4.47555 0.651,8.50356 1.9937,12.12469 1.3833,3.66182 3.2956,6.75403 5.7368,9.3173 2.4412,2.56327 5.4114,4.55693 8.8291,5.94029 3.4177,1.38335 7.2015,2.07503 11.3516,2.07503 2.4412,0 4.6383,-0.12206 6.6726,-0.40687 2.0751,-0.28481 3.9467,-0.69168 5.6962,-1.22061 1.7902,-0.52893 3.4584,-1.17992 4.9638,-1.99366 1.5461,-0.77305 3.0515,-1.66816 4.4756,-2.68533 l 0,-20.4655 -15.9086,0"
           style=""
           id="path5109" />
        <path
           d="m 1297.8624,915.73299 c 0,-4.39418 -0.6917,-8.42219 -1.9937,-12.04332 -1.3426,-3.62113 -3.2142,-6.71334 -5.6148,-9.31729 -2.4412,-2.56327 -5.33,-4.55694 -8.6663,-5.94029 -3.377,-1.38335 -7.1202,-2.07503 -11.1889,-2.07503 -4.0687,0 -7.7712,0.69168 -11.1075,2.11572 -3.377,1.38335 -6.2658,3.37701 -8.6663,5.94028 -2.4412,2.56327 -4.3128,5.65548 -5.6555,9.27661 -1.3426,3.62113 -1.9936,7.64914 -1.9936,12.08401 0,4.43486 0.651,8.46287 1.9936,12.084 1.3427,3.62113 3.2143,6.71334 5.6555,9.27661 2.4005,2.56327 5.2893,4.55694 8.6663,5.94029 3.3363,1.38335 7.0388,2.11572 11.1075,2.11572 4.0687,0 7.8119,-0.73237 11.1889,-2.11572 3.3363,-1.38335 6.2251,-3.37702 8.6663,-5.94029 2.4006,-2.56327 4.2722,-5.65548 5.6148,-9.27661 1.302,-3.62113 1.953,-7.64914 1.9937,-12.12469 m -4.3128,0.0407 c 0,4.028 -0.5697,7.64914 -1.6682,10.82271 -1.1392,3.17357 -2.6853,5.8996 -4.7197,8.09669 -2.0343,2.23778 -4.4349,3.94663 -7.2829,5.12655 -2.8481,1.13923 -6.0217,1.74953 -9.4801,1.74953 -3.4177,0 -6.5506,-0.6103 -9.3986,-1.74953 -2.8481,-1.17992 -5.2893,-2.88877 -7.3237,-5.12655 -2.0343,-2.19709 -3.6211,-4.92312 -4.7603,-8.09669 -1.1393,-3.17357 -1.6682,-6.79471 -1.6682,-10.8634 0,-3.98731 0.5289,-7.60845 1.6682,-10.82271 1.1392,-3.17357 2.726,-5.8996 4.7603,-8.13738 2.0344,-2.19709 4.4756,-3.90594 7.3237,-5.08586 2.848,-1.17992 5.9809,-1.79022 9.3986,-1.79022 3.4584,0 6.632,0.6103 9.4801,1.79022 2.8074,1.17992 5.2486,2.88877 7.2829,5.08586 2.0344,2.23778 3.5805,4.96381 4.679,8.13738 1.1392,3.21426 1.7089,6.8354 1.7089,10.8634"
           style=""
           id="path5111" />
        <path
           d="m 1355.0987,887.00805 -3.6618,0 -7.0389,0 0,1.58679 c 0,0.9358 0.529,1.38335 1.6275,1.46473 0.1221,0 0.3662,0 0.8138,0 0.4068,0.0407 1.0578,0.0407 1.8716,0.0814 0.8544,0 1.7495,0.0407 2.726,0.0814 l 0,45.04039 c 0,0.77305 0.041,1.5461 0.122,2.35984 l -37.2691,-49.84144 c -0.2442,-0.32549 -0.4883,-0.56962 -0.6917,-0.65099 -0.2035,-0.0814 -0.529,-0.12206 -0.8951,-0.16275 l -2.0344,0 -6.8354,0 0,1.62748 c 0,0.9358 0.529,1.38335 1.5868,1.46473 0.1221,0 0.3662,0 0.7731,0 0.4068,0 1.0171,0.0407 1.8309,0.0814 0.773,0 1.6681,0.0407 2.6446,0.0814 l 0,51.10273 c -0.9765,0.0407 -1.8716,0.0814 -2.6446,0.0814 -0.8138,0.0407 -1.4241,0.0407 -1.8309,0.0814 -0.4069,0 -0.651,0 -0.7731,0 -1.0578,0.0814 -1.5868,0.52893 -1.5868,1.46473 l 0,1.58679 6.8354,0 3.6212,0 7.0388,0 0,-1.58679 c 0,-0.9358 -0.5289,-1.38336 -1.6275,-1.46473 -0.1221,0 -0.3662,0 -0.8137,0 -0.4476,-0.0407 -1.0579,-0.0407 -1.9123,-0.0814 -0.8138,0 -1.7089,-0.0407 -2.6853,-0.0814 l 0,-45.20313 c 0,-0.73236 -0.041,-1.50541 -0.1221,-2.31915 l 37.4319,49.92281 c 0.3662,0.56961 0.8951,0.81374 1.5054,0.81374 l 1.9937,0 0,-54.317 c 0.9765,-0.0407 1.8716,-0.0814 2.6446,-0.0814 0.8138,-0.0407 1.4241,-0.0407 1.831,-0.0814 0.3661,0 0.6509,0 0.773,0 1.0579,-0.0814 1.5868,-0.52893 1.5868,-1.46473 l 0,-1.58679 -6.8354,0"
           style=""
           id="path5113" />
      </g>
    </g>
  </g>
</svg>
