<?xml version="1.0" encoding="UTF-8" standalone="no"?>
<!-- Created with Inkscape (http://www.inkscape.org/) -->

<svg
   xmlns:dc="http://purl.org/dc/elements/1.1/"
   xmlns:cc="http://creativecommons.org/ns#"
   xmlns:rdf="http://www.w3.org/1999/02/22-rdf-syntax-ns#"
   xmlns:svg="http://www.w3.org/2000/svg"
   xmlns="http://www.w3.org/2000/svg"
   xmlns:xlink="http://www.w3.org/1999/xlink"
   xmlns:sodipodi="http://sodipodi.sourceforge.net/DTD/sodipodi-0.dtd"
   xmlns:inkscape="http://www.inkscape.org/namespaces/inkscape"
   width="1500"
   height="400"
   id="svg2"
   version="1.1"
   inkscape:version="0.48.5 r10040"
   sodipodi:docname="email-eu-logo-composition.svg"
   inkscape:export-filename="/home/anthony/sync/Dropbox/Write the Docs/assets/2015/site-logo.png"
   inkscape:export-xdpi="90"
   inkscape:export-ydpi="90">
  <defs
     id="defs4">
    <linearGradient
       id="linearGradient7009">
      <stop
         style="stop-color:#f2f0eb;stop-opacity:1;"
         offset="0"
         id="stop7011" />
      <stop
         style="stop-color:#f2f0eb;stop-opacity:0;"
         offset="1"
         id="stop7013" />
    </linearGradient>
    <linearGradient
       id="linearGradient3902">
      <stop
         style="stop-color:#ad7878;stop-opacity:1;"
         offset="0"
         id="stop3904" />
      <stop
         style="stop-color:#b58579;stop-opacity:1;"
         offset="1"
         id="stop3906" />
    </linearGradient>
    <linearGradient
       id="linearGradient3779">
      <stop
         style="stop-color:#bab3c3;stop-opacity:1;"
         offset="0"
         id="stop3781" />
      <stop
         style="stop-color:#b0b2c7;stop-opacity:1;"
         offset="1"
         id="stop3783" />
    </linearGradient>
    <linearGradient
       inkscape:collect="always"
       xlink:href="#linearGradient3779"
       id="linearGradient3785"
       x1="895.00568"
       y1="332.82974"
       x2="903.14038"
       y2="461.40115"
       gradientUnits="userSpaceOnUse"
       gradientTransform="matrix(3.1356151,0,0,3.1356151,-1786.9243,-458.78499)" />
    <linearGradient
       inkscape:collect="always"
       xlink:href="#linearGradient3902"
       id="linearGradient3908"
       x1="637.91107"
       y1="903.00262"
       x2="721.3111"
       y2="903.00262"
       gradientUnits="userSpaceOnUse" />
    <linearGradient
       inkscape:collect="always"
       xlink:href="#linearGradient3902"
       id="linearGradient3910"
       x1="550.28607"
       y1="909.00262"
       x2="627.08606"
       y2="909.00262"
       gradientUnits="userSpaceOnUse" />
    <linearGradient
       inkscape:collect="always"
       xlink:href="#linearGradient3902"
       id="linearGradient3912"
       x1="446.50562"
       y1="908.70264"
       x2="539.3056"
       y2="908.70264"
       gradientUnits="userSpaceOnUse" />
    <linearGradient
       inkscape:collect="always"
       xlink:href="#linearGradient3902"
       id="linearGradient3914"
       x1="354.63214"
       y1="907.70264"
       x2="434.43213"
       y2="907.70264"
       gradientUnits="userSpaceOnUse"
       gradientTransform="translate(0,-252.36218)" />
    <linearGradient
       inkscape:collect="always"
       xlink:href="#linearGradient3779"
       id="linearGradient4341"
       gradientUnits="userSpaceOnUse"
       gradientTransform="matrix(3.1356151,0,0,3.1356151,-1786.9243,-458.78499)"
       x1="895.00568"
       y1="332.82974"
       x2="903.14038"
       y2="461.40115" />
    <linearGradient
       inkscape:collect="always"
       xlink:href="#linearGradient3779"
       id="linearGradient4343"
       gradientUnits="userSpaceOnUse"
       gradientTransform="matrix(3.1356151,0,0,3.1356151,-1786.9243,-458.78499)"
       x1="895.00568"
       y1="332.82974"
       x2="903.14038"
       y2="461.40115" />
    <linearGradient
       inkscape:collect="always"
       xlink:href="#linearGradient3779"
       id="linearGradient4345"
       gradientUnits="userSpaceOnUse"
       gradientTransform="matrix(3.1356151,0,0,3.1356151,-1786.9243,-458.78499)"
       x1="895.00568"
       y1="332.82974"
       x2="903.14038"
       y2="461.40115" />
    <linearGradient
       inkscape:collect="always"
       xlink:href="#linearGradient3779"
       id="linearGradient4347"
       gradientUnits="userSpaceOnUse"
       gradientTransform="matrix(3.1356151,0,0,3.1356151,-1786.9243,-458.78499)"
       x1="895.00568"
       y1="332.82974"
       x2="903.14038"
       y2="461.40115" />
    <linearGradient
       inkscape:collect="always"
       xlink:href="#linearGradient3779"
       id="linearGradient4349"
       gradientUnits="userSpaceOnUse"
       gradientTransform="matrix(3.1356151,0,0,3.1356151,-1786.9243,-458.78499)"
       x1="895.00568"
       y1="332.82974"
       x2="903.14038"
       y2="461.40115" />
    <linearGradient
       inkscape:collect="always"
       xlink:href="#linearGradient3779"
       id="linearGradient4351"
       gradientUnits="userSpaceOnUse"
       gradientTransform="matrix(3.1356151,0,0,3.1356151,-1786.9243,-458.78499)"
       x1="895.00568"
       y1="332.82974"
       x2="903.14038"
       y2="461.40115" />
    <linearGradient
       inkscape:collect="always"
       xlink:href="#linearGradient3779"
       id="linearGradient4353"
       gradientUnits="userSpaceOnUse"
       gradientTransform="matrix(3.1356151,0,0,3.1356151,-1786.9243,-458.78499)"
       x1="895.00568"
       y1="332.82974"
       x2="903.14038"
       y2="461.40115" />
    <linearGradient
       inkscape:collect="always"
       xlink:href="#linearGradient3779"
       id="linearGradient4355"
       gradientUnits="userSpaceOnUse"
       gradientTransform="matrix(3.1356151,0,0,3.1356151,-1786.9243,-458.78499)"
       x1="895.00568"
       y1="332.82974"
       x2="903.14038"
       y2="461.40115" />
    <linearGradient
       inkscape:collect="always"
       xlink:href="#linearGradient3779"
       id="linearGradient4357"
       gradientUnits="userSpaceOnUse"
       gradientTransform="matrix(3.1356151,0,0,3.1356151,-1786.9243,-458.78499)"
       x1="895.00568"
       y1="332.82974"
       x2="903.14038"
       y2="461.40115" />
    <linearGradient
       inkscape:collect="always"
       xlink:href="#linearGradient3779"
       id="linearGradient4359"
       gradientUnits="userSpaceOnUse"
       gradientTransform="matrix(3.1356151,0,0,3.1356151,-1786.9243,-458.78499)"
       x1="895.00568"
       y1="332.82974"
       x2="903.14038"
       y2="461.40115" />
    <linearGradient
       inkscape:collect="always"
       xlink:href="#linearGradient3779"
       id="linearGradient4361"
       gradientUnits="userSpaceOnUse"
       gradientTransform="matrix(3.1356151,0,0,3.1356151,-1786.9243,-458.78499)"
       x1="895.00568"
       y1="332.82974"
       x2="903.14038"
       y2="461.40115" />
    <linearGradient
       inkscape:collect="always"
       xlink:href="#linearGradient3779"
       id="linearGradient4363"
       gradientUnits="userSpaceOnUse"
       gradientTransform="matrix(3.1356151,0,0,3.1356151,-1786.9243,-458.78499)"
       x1="895.00568"
       y1="332.82974"
       x2="903.14038"
       y2="461.40115" />
    <linearGradient
       inkscape:collect="always"
       xlink:href="#linearGradient3779"
       id="linearGradient4365"
       gradientUnits="userSpaceOnUse"
       gradientTransform="matrix(3.1356151,0,0,3.1356151,-1786.9243,-458.78499)"
       x1="895.00568"
       y1="332.82974"
       x2="903.14038"
       y2="461.40115" />
    <linearGradient
       inkscape:collect="always"
       xlink:href="#linearGradient3779"
       id="linearGradient4367"
       gradientUnits="userSpaceOnUse"
       gradientTransform="matrix(3.1356151,0,0,3.1356151,-1786.9243,-458.78499)"
       x1="895.00568"
       y1="332.82974"
       x2="903.14038"
       y2="461.40115" />
    <linearGradient
       inkscape:collect="always"
       xlink:href="#linearGradient3779"
       id="linearGradient4369"
       gradientUnits="userSpaceOnUse"
       gradientTransform="matrix(3.1356151,0,0,3.1356151,-1786.9243,-458.78499)"
       x1="895.00568"
       y1="332.82974"
       x2="903.14038"
       y2="461.40115" />
    <linearGradient
       inkscape:collect="always"
       xlink:href="#linearGradient3779"
       id="linearGradient4371"
       gradientUnits="userSpaceOnUse"
       gradientTransform="matrix(3.1356151,0,0,3.1356151,-1786.9243,-458.78499)"
       x1="895.00568"
       y1="332.82974"
       x2="903.14038"
       y2="461.40115" />
    <linearGradient
       inkscape:collect="always"
       xlink:href="#linearGradient3779"
       id="linearGradient4373"
       gradientUnits="userSpaceOnUse"
       gradientTransform="matrix(3.1356151,0,0,3.1356151,-1786.9243,-458.78499)"
       x1="895.00568"
       y1="332.82974"
       x2="903.14038"
       y2="461.40115" />
    <linearGradient
       inkscape:collect="always"
       xlink:href="#linearGradient3779"
       id="linearGradient4375"
       gradientUnits="userSpaceOnUse"
       gradientTransform="matrix(3.1356151,0,0,3.1356151,-1786.9243,-458.78499)"
       x1="895.00568"
       y1="332.82974"
       x2="903.14038"
       y2="461.40115" />
    <linearGradient
       inkscape:collect="always"
       xlink:href="#linearGradient3779"
       id="linearGradient4377"
       gradientUnits="userSpaceOnUse"
       gradientTransform="matrix(3.1356151,0,0,3.1356151,-1786.9243,-458.78499)"
       x1="895.00568"
       y1="332.82974"
       x2="903.14038"
       y2="461.40115" />
    <linearGradient
       inkscape:collect="always"
       xlink:href="#linearGradient3779"
       id="linearGradient4379"
       gradientUnits="userSpaceOnUse"
       gradientTransform="matrix(3.1356151,0,0,3.1356151,-1786.9243,-458.78499)"
       x1="895.00568"
       y1="332.82974"
       x2="903.14038"
       y2="461.40115" />
    <linearGradient
       inkscape:collect="always"
       xlink:href="#linearGradient3779"
       id="linearGradient4381"
       gradientUnits="userSpaceOnUse"
       gradientTransform="matrix(3.1356151,0,0,3.1356151,-1786.9243,-458.78499)"
       x1="895.00568"
       y1="332.82974"
       x2="903.14038"
       y2="461.40115" />
    <linearGradient
       inkscape:collect="always"
       xlink:href="#linearGradient3779"
       id="linearGradient4383"
       gradientUnits="userSpaceOnUse"
       gradientTransform="matrix(3.1356151,0,0,3.1356151,-1786.9243,-458.78499)"
       x1="895.00568"
       y1="332.82974"
       x2="903.14038"
       y2="461.40115" />
    <linearGradient
       inkscape:collect="always"
       xlink:href="#linearGradient3779"
       id="linearGradient4919"
       x1="133.19279"
       y1="915.35468"
       x2="1366.8073"
       y2="915.35468"
       gradientUnits="userSpaceOnUse" />
    <linearGradient
       inkscape:collect="always"
       xlink:href="#linearGradient3779"
       id="linearGradient5014"
       gradientUnits="userSpaceOnUse"
       x1="133.19279"
       y1="915.35468"
       x2="1366.8073"
       y2="915.35468"
       gradientTransform="matrix(0.99236306,0,0,0.99236306,5.5650495,7.3891079)" />
    <linearGradient
       inkscape:collect="always"
       xlink:href="#linearGradient3779"
       id="linearGradient5040"
       gradientUnits="userSpaceOnUse"
       gradientTransform="matrix(0.7376871,0,0,0.7376871,41.726388,246.90525)"
       x1="133.19279"
       y1="915.35468"
       x2="1366.8073"
       y2="915.35468" />
    <linearGradient
       inkscape:collect="always"
       xlink:href="#linearGradient3902"
       id="linearGradient7015"
       x1="1315.302"
       y1="778.05615"
       x2="1317.4005"
       y2="842.11865"
       gradientUnits="userSpaceOnUse" />
  </defs>
  <sodipodi:namedview
     id="base"
     pagecolor="#424670"
     bordercolor="#666666"
     borderopacity="1.0"
     inkscape:pageopacity="1"
     inkscape:pageshadow="2"
     inkscape:zoom="0.64"
     inkscape:cx="806.66296"
     inkscape:cy="76.355519"
     inkscape:document-units="px"
     inkscape:current-layer="layer1"
     showgrid="false"
     showguides="true"
     inkscape:guide-bbox="true"
     inkscape:window-width="1914"
     inkscape:window-height="1035"
     inkscape:window-x="0"
     inkscape:window-y="26"
     inkscape:window-maximized="0"
     inkscape:snap-nodes="true"
     inkscape:snap-to-guides="false">
    <sodipodi:guide
       orientation="1,0"
       position="137.17872,251.52798"
       id="guide5012" />
    <sodipodi:guide
       orientation="1,0"
       position="1361.8877,224.85996"
       id="guide5016" />
  </sodipodi:namedview>
  <metadata
     id="metadata7">
    <rdf:RDF>
      <cc:Work
         rdf:about="">
        <dc:format>image/svg+xml</dc:format>
        <dc:type
           rdf:resource="http://purl.org/dc/dcmitype/StillImage" />
        <dc:title></dc:title>
      </cc:Work>
    </rdf:RDF>
  </metadata>
  <g
     inkscape:label="Layer 1"
     inkscape:groupmode="layer"
     id="layer1"
     transform="translate(0,-652.36218)">
    <g
       id="g5018"
       transform="translate(0,11.152121)">
      <g
         transform="translate(-74.114,-24.881011)"
         id="g4901">
        <g
           id="text4385"
           style="font-size:128px;font-style:normal;font-variant:normal;font-weight:normal;font-stretch:normal;line-height:125%;letter-spacing:0px;word-spacing:0px;fill:#f2f0eb;fill-opacity:1;stroke:none;font-family:Bree Serif;-inkscape-font-specification:Bree Serif">
          <path
             id="path4922"
             d="m 325.64,779.61018 -4.224,0.384 c -2.21877,0.17074 -3.62677,1.70674 -4.224,4.608 l -16.128,69.76 -17.536,0 -13.44,-56.96 -0.384,0 -13.056,56.96 -18.048,0 -17.664,-73.856 -7.296,-0.384 0,-10.88 31.744,0 0,10.368 -4.224,0.384 c -2.64536,0.25608 -3.96802,1.36541 -3.968,3.328 -2e-5,0.34141 0.0426,0.72541 0.128,1.152 l 11.136,49.408 0.512,0 13.312,-57.856 16.512,0 13.824,58.112 0.256,0 10.88,-53.504 -6.912,-0.512 0,-10.88 28.8,0 0,10.368"
             inkscape:connector-curvature="0" />
          <path
             id="path4924"
             d="m 330.346,854.36218 0,-10.368 4.224,-0.384 c 2.47466,-0.25599 3.71199,-1.45065 3.712,-3.584 l 0,-59.52 -7.296,-0.384 0,-10.88 34.944,0 c 9.89862,9e-5 17.49328,1.83475 22.784,5.504 5.2906,3.66941 7.93593,9.68541 7.936,18.048 -7e-5,5.80273 -1.53607,10.58139 -4.608,14.336 -2.98673,3.75471 -6.57073,6.48538 -10.752,8.192 3.07194,1.10937 5.50394,3.71204 7.296,7.808 l 9.216,20.096 7.296,0.256 0,10.88 -31.616,0 0,-10.368 3.712,-0.384 c 1.96261,-0.25599 2.94395,-1.02399 2.944,-2.304 -5e-5,-0.51198 -0.17072,-1.10932 -0.512,-1.792 l -6.016,-12.8 c -0.93871,-2.1333 -2.00538,-3.62663 -3.2,-4.48 -1.10938,-0.93863 -2.73071,-1.40796 -4.864,-1.408 l -11.648,0 0,22.272 8.32,0.384 0,10.88 -31.872,0 m 23.552,-45.696 11.136,0 c 10.49595,5e-5 15.74395,-4.69328 15.744,-14.08 -5e-5,-5.37593 -1.40805,-8.8746 -4.224,-10.496 -2.73071,-1.62126 -7.16804,-2.43192 -13.312,-2.432 l -9.344,0 0,27.008"
             inkscape:connector-curvature="0" />
          <path
             id="path4926"
             d="m 418.532,839.38618 0,-58.88 -7.296,-0.384 0,-10.88 30.976,0 0,10.368 -4.224,0.384 c -2.4747,0.25608 -3.71203,1.62141 -3.712,4.096 l 0,59.008 7.296,0.384 0,10.88 -30.976,0 0,-10.368 4.224,-0.384 c 1.27999,-0.17065 2.21866,-0.51199 2.816,-1.024 0.59732,-0.59732 0.89599,-1.66398 0.896,-3.2"
             inkscape:connector-curvature="0" />
          <path
             id="path4928"
             d="m 473.654,840.02618 0,-58.112 -9.984,0 c -1.96268,8e-5 -2.94401,1.32274 -2.944,3.968 l 0,6.016 -13.056,-0.896 0,-21.76 66.944,0 0,21.76 -13.056,0.896 0,-6.016 c -6e-5,-1.45059 -0.21339,-2.47459 -0.64,-3.072 -0.42672,-0.59726 -1.45072,-0.89592 -3.072,-0.896 l -8.704,0 0,61.184 10.112,0.384 0,10.88 -36.096,0 0,-10.368 6.784,-0.384 c 2.47464,-0.25599 3.71197,-1.45065 3.712,-3.584"
             inkscape:connector-curvature="0" />
          <path
             id="path4930"
             d="m 581.652,854.36218 -60.8,0 0,-10.368 4.224,-0.384 c 2.47466,-0.25599 3.71199,-1.45065 3.712,-3.584 l 0,-59.52 -7.296,-0.384 0,-10.88 58.624,0 0,21.248 -13.056,0.896 0,-5.12 c -5e-5,-1.45059 -0.21338,-2.47459 -0.64,-3.072 -0.42672,-0.59726 -1.45072,-0.89593 -3.072,-0.896 l -18.944,0 0,21.888 29.568,0 0,13.056 -29.568,0 0,23.936 20.608,0 c 1.53595,2e-5 2.51728,-0.29865 2.944,-0.896 0.42661,-0.68265 0.63995,-1.74931 0.64,-3.2 l 0,-6.4 13.056,0.896 0,22.784"
             inkscape:connector-curvature="0" />
          <path
             id="path4932"
             d="m 640.154,840.02618 0,-58.112 -9.984,0 c -1.96268,8e-5 -2.94401,1.32274 -2.944,3.968 l 0,6.016 -13.056,-0.896 0,-21.76 66.944,0 0,21.76 -13.056,0.896 0,-6.016 c -6e-5,-1.45059 -0.21339,-2.47459 -0.64,-3.072 -0.42672,-0.59726 -1.45072,-0.89592 -3.072,-0.896 l -8.704,0 0,61.184 10.112,0.384 0,10.88 -36.096,0 0,-10.368 6.784,-0.384 c 2.47464,-0.25599 3.71197,-1.45065 3.712,-3.584"
             inkscape:connector-curvature="0" />
          <path
             id="path4934"
             d="m 746.872,839.38618 0,-22.144 -36.224,0 0,25.856 7.424,0.384 0,10.88 -30.976,0 0,-10.368 4.224,-0.384 c 2.47466,-0.25599 3.71199,-1.45065 3.712,-3.584 l 0,-59.52 -7.296,-0.384 0,-10.88 30.976,0 0,10.368 -4.224,0.384 c -1.36536,0.17074 -2.3467,0.55474 -2.944,1.152 -0.59736,0.51208 -0.89603,1.53607 -0.896,3.072 l 0,19.84 36.224,0 0,-23.552 -7.296,-0.384 0,-10.88 30.976,0 0,10.368 -4.224,0.384 c -2.47475,0.25608 -3.71208,1.62141 -3.712,4.096 l 0,59.008 7.296,0.384 0,10.88 -30.976,0 0,-10.368 4.224,-0.384 c 1.27994,-0.17065 2.2186,-0.51199 2.816,-1.024 0.59727,-0.59732 0.89594,-1.66398 0.896,-3.2"
             inkscape:connector-curvature="0" />
          <path
             id="path4936"
             d="m 837.402,854.36218 -60.8,0 0,-10.368 4.224,-0.384 c 2.47466,-0.25599 3.71199,-1.45065 3.712,-3.584 l 0,-59.52 -7.296,-0.384 0,-10.88 58.624,0 0,21.248 -13.056,0.896 0,-5.12 c -5e-5,-1.45059 -0.21338,-2.47459 -0.64,-3.072 -0.42672,-0.59726 -1.45072,-0.89593 -3.072,-0.896 l -18.944,0 0,21.888 29.568,0 0,13.056 -29.568,0 0,23.936 20.608,0 c 1.53595,2e-5 2.51728,-0.29865 2.944,-0.896 0.42661,-0.68265 0.63995,-1.74931 0.64,-3.2 l 0,-6.4 13.056,0.896 0,22.784"
             inkscape:connector-curvature="0" />
          <path
             id="path4938"
             d="m 872.352,854.36218 0,-10.368 4.224,-0.384 c 2.47466,-0.25599 3.71199,-1.45065 3.712,-3.584 l 0,-59.52 -7.296,-0.384 0,-10.88 35.072,0 c 12.54395,9e-5 22.3146,3.32808 29.312,9.984 7.08259,6.65607 10.62392,16.51206 10.624,29.568 -8e-5,8.10671 -1.06675,15.18937 -3.2,21.248 -2.13341,5.97335 -5.03474,10.66668 -8.704,14.08 -7.33873,6.82667 -16.46938,10.24 -27.392,10.24 l -36.352,0 m 23.552,-72.704 0,60.416 13.056,0 c 7.33862,1e-5 13.05595,-2.64532 17.152,-7.936 4.09594,-5.29064 6.14394,-12.97063 6.144,-23.04 -6e-5,-19.6266 -8.32006,-29.43992 -24.96,-29.44 l -11.392,0"
             inkscape:connector-curvature="0" />
          <path
             id="path4940"
             d="m 993.16,767.70618 c 10.1546,9e-5 18.6453,3.58409 25.472,10.752 6.8266,7.16807 10.2399,18.13339 10.24,32.896 -10e-5,14.67736 -3.4134,25.81335 -10.24,33.408 -6.7414,7.50934 -15.9147,11.264 -27.52,11.264 -11.52003,0 -20.56535,-3.75466 -27.136,-11.264 -6.57068,-7.50931 -9.85601,-18.43197 -9.856,-32.768 -10e-6,-7.85061 1.15199,-14.71994 3.456,-20.608 2.30399,-5.97326 5.33332,-10.58126 9.088,-13.824 7.59464,-6.57058 16.42663,-9.85591 26.496,-9.856 m -23.04,43.648 c -2e-5,21.16269 7.33864,31.74401 22.016,31.744 7.85062,1e-5 13.3546,-3.24265 16.512,-9.728 2.9013,-5.7173 4.3519,-12.71463 4.352,-20.992 -10e-5,-7.42395 -1.2801,-14.25061 -3.84,-20.48 -1.4507,-3.41326 -3.6694,-6.10126 -6.656,-8.064 -2.90138,-1.96259 -6.69871,-2.94392 -11.392,-2.944 -4.69337,8e-5 -8.7467,1.53607 -12.16,4.608 -3.32803,3.07207 -5.63202,6.78406 -6.912,11.136 -1.28002,4.35206 -1.92002,9.25872 -1.92,14.72"
             inkscape:connector-curvature="0" />
          <path
             id="path4942"
             d="m 1085.808,782.81018 c -0.9387,-1.62126 -4.4374,-2.43192 -10.496,-2.432 -7.936,8e-5 -13.952,2.68807 -18.048,8.064 -4.096,5.37606 -6.144,13.14139 -6.144,23.296 0,21.07736 7.8933,31.61601 23.68,31.616 0.256,10e-6 1.3653,10e-6 3.328,0 2.0479,10e-6 3.9679,-0.25599 5.76,-0.768 1.7919,-0.59732 2.8586,-1.19465 3.2,-1.792 0.3413,-0.59732 0.5119,-1.53598 0.512,-2.816 l 0,-10.24 13.056,0.896 0,22.144 c -6.6561,3.49867 -15.1041,5.248 -25.344,5.248 -13.056,0 -23.04,-3.66933 -29.952,-11.008 -6.8267,-7.33865 -10.24,-18.2613 -10.24,-32.768 0,-8.02128 1.152,-15.01861 3.456,-20.992 2.304,-5.97326 5.4187,-10.62392 9.344,-13.952 7.68,-6.39991 16.8106,-9.59991 27.392,-9.6 8.5333,9e-5 16.5546,1.74942 24.064,5.248 l 0,21.76 -13.056,0.896 0,-9.984 c -10e-5,-1.27993 -0.1707,-2.21859 -0.512,-2.816"
             inkscape:connector-curvature="0" />
          <path
             id="path4944"
             d="m 1133.848,842.84218 c 10.24,10e-6 15.36,-4.09598 15.36,-12.288 0,-4.26664 -2.2614,-7.42397 -6.784,-9.472 -2.3894,-1.19463 -5.504,-2.30396 -9.344,-3.328 -3.7547,-1.02396 -6.912,-2.04796 -9.472,-3.072 -2.4747,-1.10929 -4.992,-2.60262 -7.552,-4.48 -5.0347,-3.75462 -7.552,-9.51461 -7.552,-17.28 0,-7.85059 2.688,-13.99459 8.064,-18.432 5.4613,-4.52258 12.544,-6.78391 21.248,-6.784 8.7893,9e-5 16.9386,1.74942 24.448,5.248 l 0,19.2 -13.056,0.896 0,-7.424 c 0,-1.27993 -0.1707,-2.21859 -0.512,-2.816 -0.9387,-1.62126 -3.968,-2.43192 -9.088,-2.432 -5.0347,8e-5 -8.7894,0.89608 -11.264,2.688 -2.3894,1.79207 -3.584,4.5654 -3.584,8.32 0,2.73073 1.024,5.12006 3.072,7.168 1.3653,1.36539 3.3706,2.51739 6.016,3.456 2.7306,0.85339 5.5893,1.74939 8.576,2.688 3.072,0.93872 5.76,1.96272 8.064,3.072 2.3893,1.10938 4.8639,2.64538 7.424,4.608 5.2053,3.84004 7.8079,9.7707 7.808,17.792 -10e-5,8.02135 -2.9014,14.33601 -8.704,18.944 -5.7174,4.608 -13.312,6.912 -22.784,6.912 -9.3867,0 -17.8347,-1.74933 -25.344,-5.248 l 0,-20.224 13.056,-0.896 0,7.808 c 0,1.28002 0.1706,2.21868 0.512,2.816 0.3413,0.59735 1.3653,1.19468 3.072,1.792 1.792,0.51201 4.5653,0.76801 8.32,0.768"
             inkscape:connector-curvature="0" />
          <g
             id="g6495"
             style="fill-opacity:1.0;fill:url(#linearGradient7015)">
            <path
               inkscape:connector-curvature="0"
               d="m 1202.802,854.36218 0,-9.856 25.472,-32.128 c 2.6453,-3.41329 4.3946,-5.67462 5.248,-6.784 0.8533,-1.19461 1.664,-2.81595 2.432,-4.864 0.8533,-2.13327 1.28,-4.65061 1.28,-7.552 0,-2.9866 -1.024,-5.4186 -3.072,-7.296 -1.9627,-1.87726 -4.5227,-2.81593 -7.68,-2.816 -3.072,7e-5 -5.4187,0.25607 -7.04,0.768 -1.536,0.51207 -2.4747,1.10941 -2.816,1.792 -0.256,0.5974 -0.384,1.57874 -0.384,2.944 l 0,9.088 -13.056,-0.896 0,-20.48 c 8.0213,-4.01058 16.256,-6.01591 24.704,-6.016 8.448,9e-5 14.8053,2.09075 19.072,6.272 4.2666,4.09608 6.3999,9.72807 6.4,16.896 -10e-5,7.16806 -3.6267,15.14672 -10.88,23.936 l -20.608,24.32 32,0 0,12.672 -51.072,0"
               id="path4946"
               style="fill-opacity:1.0;fill:url(#linearGradient7015)" />
            <path
               inkscape:connector-curvature="0"
               d="m 1289.816,770.26618 c 19.3706,9e-5 29.0559,14.03741 29.056,42.112 -10e-5,14.93336 -2.5174,25.89869 -7.552,32.896 -5.0347,6.912 -12.5014,10.368 -22.4,10.368 -9.8987,0 -17.28,-3.41333 -22.144,-10.24 -4.864,-6.91198 -7.296,-17.6213 -7.296,-32.128 0,-14.50661 2.688,-25.30126 8.064,-32.384 5.376,-7.08258 12.8,-10.62391 22.272,-10.624 m -11.264,66.56 c 2.4746,4.35202 6.016,6.52801 10.624,6.528 4.608,10e-6 8.1493,-2.26132 10.624,-6.784 2.56,-4.52264 3.84,-12.3733 3.84,-23.552 0,-11.26394 -1.2374,-19.1146 -3.712,-23.552 -2.3894,-4.43726 -5.9307,-6.65593 -10.624,-6.656 -4.6934,7e-5 -8.2774,2.38941 -10.752,7.168 -2.3894,4.6934 -3.584,12.58672 -3.584,23.68 0,11.00803 1.1946,18.73069 3.584,23.168"
               id="path4948"
               style="fill-opacity:1.0;fill:url(#linearGradient7015)" />
            <path
               inkscape:connector-curvature="0"
               d="m 1343.74,838.87418 0,-50.304 -14.976,7.68 -5.632,-9.856 23.296,-14.464 12.544,0 0,70.912 13.312,0.64 0,10.88 -44.544,0 0,-10.496 12.288,-0.768 c 1.28,-0.0853 2.2186,-0.42665 2.816,-1.024 0.5973,-0.59732 0.896,-1.66398 0.896,-3.2"
               id="path4950"
               style="fill-opacity:1.0;fill:url(#linearGradient7015)" />
            <path
               inkscape:connector-curvature="0"
               d="m 1434.076,784.09018 -29.312,0 -2.56,19.584 c 9.5573,0.68272 17.3226,3.20005 23.296,7.552 6.0586,4.26671 9.0879,10.62404 9.088,19.072 -10e-5,6.91202 -2.3041,12.88535 -6.912,17.92 -4.608,5.03467 -11.776,7.552 -21.504,7.552 -4.7787,0 -9.472,-0.64 -14.08,-1.92 -4.5227,-1.28 -8.1493,-2.77333 -10.88,-4.48 l 5.12,-11.776 c 6.656,3.66935 13.056,5.50401 19.2,5.504 8.704,1e-5 13.056,-4.18132 13.056,-12.544 0,-10.41063 -10.1974,-15.61596 -30.592,-15.616 l 5.504,-43.008 25.472,0 c 1.9626,9e-5 2.944,-1.19458 2.944,-3.584 l 0,-5.504 12.16,0.896 0,20.352"
               id="path4952"
               style="fill-opacity:1.0;fill:url(#linearGradient7015)" />
          </g>
        </g>
      </g>
      <text
         sodipodi:linespacing="125%"
         id="text4909"
         y="943.54907"
         x="136.92625"
         style="font-size:60.49033356px;font-style:normal;font-variant:normal;font-weight:300;font-stretch:normal;text-align:start;line-height:125%;letter-spacing:0px;word-spacing:0px;writing-mode:lr-tb;text-anchor:start;fill:url(#linearGradient5040);fill-opacity:1;stroke:none;font-family:Aleo;-inkscape-font-specification:Aleo Light"
         xml:space="preserve"><tspan
           style="font-size:107.04443359px;fill:url(#linearGradient5040);fill-opacity:1"
           y="943.54907"
           x="136.92625"
           id="tspan4911"
           sodipodi:role="line"
           dx="0 -9.849947 0 0 0 1.6416576 0 -5.7458019 0 -4.1041446 0 0 0 0 0 0 0 -0.8208288 0 -5.7458019 2.4624865">AUG 31 - SEPT 1 PRAGUE</tspan></text>
    </g>
  </g>
</svg>
