<?xml version="1.0" encoding="UTF-8" standalone="no"?>
<!-- Created with Inkscape (http://www.inkscape.org/) -->

<svg
   xmlns:dc="http://purl.org/dc/elements/1.1/"
   xmlns:cc="http://creativecommons.org/ns#"
   xmlns:rdf="http://www.w3.org/1999/02/22-rdf-syntax-ns#"
   xmlns:svg="http://www.w3.org/2000/svg"
   xmlns="http://www.w3.org/2000/svg"
   xmlns:xlink="http://www.w3.org/1999/xlink"
   xmlns:sodipodi="http://sodipodi.sourceforge.net/DTD/sodipodi-0.dtd"
   xmlns:inkscape="http://www.inkscape.org/namespaces/inkscape"
   width="1500"
   height="400"
   id="svg2"
   version="1.1"
   inkscape:version="0.48.5 r10040"
   sodipodi:docname="email-eu-logo-composition.svg"
   inkscape:export-filename="/Users/anthony/Desktop/eu-email.png"
   inkscape:export-xdpi="90"
   inkscape:export-ydpi="90">
  <defs
     id="defs4">
    <linearGradient
       id="linearGradient3902">
      <stop
         style="stop-color:#ad7878;stop-opacity:1;"
         offset="0"
         id="stop3904" />
      <stop
         style="stop-color:#b58579;stop-opacity:1;"
         offset="1"
         id="stop3906" />
    </linearGradient>
    <linearGradient
       id="linearGradient3779">
      <stop
         style="stop-color:#bab3c3;stop-opacity:1;"
         offset="0"
         id="stop3781" />
      <stop
         style="stop-color:#b0b2c7;stop-opacity:1;"
         offset="1"
         id="stop3783" />
    </linearGradient>
    <linearGradient
       inkscape:collect="always"
       xlink:href="#linearGradient3779"
       id="linearGradient3785"
       x1="895.00568"
       y1="332.82974"
       x2="903.14038"
       y2="461.40115"
       gradientUnits="userSpaceOnUse"
       gradientTransform="matrix(3.1356151,0,0,3.1356151,-1786.9243,-458.78499)" />
    <linearGradient
       inkscape:collect="always"
       xlink:href="#linearGradient3902"
       id="linearGradient3908"
       x1="637.91107"
       y1="903.00262"
       x2="721.3111"
       y2="903.00262"
       gradientUnits="userSpaceOnUse" />
    <linearGradient
       inkscape:collect="always"
       xlink:href="#linearGradient3902"
       id="linearGradient3910"
       x1="550.28607"
       y1="909.00262"
       x2="627.08606"
       y2="909.00262"
       gradientUnits="userSpaceOnUse" />
    <linearGradient
       inkscape:collect="always"
       xlink:href="#linearGradient3902"
       id="linearGradient3912"
       x1="446.50562"
       y1="908.70264"
       x2="539.3056"
       y2="908.70264"
       gradientUnits="userSpaceOnUse" />
    <linearGradient
       inkscape:collect="always"
       xlink:href="#linearGradient3902"
       id="linearGradient3914"
       x1="354.63214"
       y1="907.70264"
       x2="434.43213"
       y2="907.70264"
       gradientUnits="userSpaceOnUse"
       gradientTransform="translate(0,-252.36218)" />
    <linearGradient
       inkscape:collect="always"
       xlink:href="#linearGradient3779"
       id="linearGradient4341"
       gradientUnits="userSpaceOnUse"
       gradientTransform="matrix(3.1356151,0,0,3.1356151,-1786.9243,-458.78499)"
       x1="895.00568"
       y1="332.82974"
       x2="903.14038"
       y2="461.40115" />
    <linearGradient
       inkscape:collect="always"
       xlink:href="#linearGradient3779"
       id="linearGradient4343"
       gradientUnits="userSpaceOnUse"
       gradientTransform="matrix(3.1356151,0,0,3.1356151,-1786.9243,-458.78499)"
       x1="895.00568"
       y1="332.82974"
       x2="903.14038"
       y2="461.40115" />
    <linearGradient
       inkscape:collect="always"
       xlink:href="#linearGradient3779"
       id="linearGradient4345"
       gradientUnits="userSpaceOnUse"
       gradientTransform="matrix(3.1356151,0,0,3.1356151,-1786.9243,-458.78499)"
       x1="895.00568"
       y1="332.82974"
       x2="903.14038"
       y2="461.40115" />
    <linearGradient
       inkscape:collect="always"
       xlink:href="#linearGradient3779"
       id="linearGradient4347"
       gradientUnits="userSpaceOnUse"
       gradientTransform="matrix(3.1356151,0,0,3.1356151,-1786.9243,-458.78499)"
       x1="895.00568"
       y1="332.82974"
       x2="903.14038"
       y2="461.40115" />
    <linearGradient
       inkscape:collect="always"
       xlink:href="#linearGradient3779"
       id="linearGradient4349"
       gradientUnits="userSpaceOnUse"
       gradientTransform="matrix(3.1356151,0,0,3.1356151,-1786.9243,-458.78499)"
       x1="895.00568"
       y1="332.82974"
       x2="903.14038"
       y2="461.40115" />
    <linearGradient
       inkscape:collect="always"
       xlink:href="#linearGradient3779"
       id="linearGradient4351"
       gradientUnits="userSpaceOnUse"
       gradientTransform="matrix(3.1356151,0,0,3.1356151,-1786.9243,-458.78499)"
       x1="895.00568"
       y1="332.82974"
       x2="903.14038"
       y2="461.40115" />
    <linearGradient
       inkscape:collect="always"
       xlink:href="#linearGradient3779"
       id="linearGradient4353"
       gradientUnits="userSpaceOnUse"
       gradientTransform="matrix(3.1356151,0,0,3.1356151,-1786.9243,-458.78499)"
       x1="895.00568"
       y1="332.82974"
       x2="903.14038"
       y2="461.40115" />
    <linearGradient
       inkscape:collect="always"
       xlink:href="#linearGradient3779"
       id="linearGradient4355"
       gradientUnits="userSpaceOnUse"
       gradientTransform="matrix(3.1356151,0,0,3.1356151,-1786.9243,-458.78499)"
       x1="895.00568"
       y1="332.82974"
       x2="903.14038"
       y2="461.40115" />
    <linearGradient
       inkscape:collect="always"
       xlink:href="#linearGradient3779"
       id="linearGradient4357"
       gradientUnits="userSpaceOnUse"
       gradientTransform="matrix(3.1356151,0,0,3.1356151,-1786.9243,-458.78499)"
       x1="895.00568"
       y1="332.82974"
       x2="903.14038"
       y2="461.40115" />
    <linearGradient
       inkscape:collect="always"
       xlink:href="#linearGradient3779"
       id="linearGradient4359"
       gradientUnits="userSpaceOnUse"
       gradientTransform="matrix(3.1356151,0,0,3.1356151,-1786.9243,-458.78499)"
       x1="895.00568"
       y1="332.82974"
       x2="903.14038"
       y2="461.40115" />
    <linearGradient
       inkscape:collect="always"
       xlink:href="#linearGradient3779"
       id="linearGradient4361"
       gradientUnits="userSpaceOnUse"
       gradientTransform="matrix(3.1356151,0,0,3.1356151,-1786.9243,-458.78499)"
       x1="895.00568"
       y1="332.82974"
       x2="903.14038"
       y2="461.40115" />
    <linearGradient
       inkscape:collect="always"
       xlink:href="#linearGradient3779"
       id="linearGradient4363"
       gradientUnits="userSpaceOnUse"
       gradientTransform="matrix(3.1356151,0,0,3.1356151,-1786.9243,-458.78499)"
       x1="895.00568"
       y1="332.82974"
       x2="903.14038"
       y2="461.40115" />
    <linearGradient
       inkscape:collect="always"
       xlink:href="#linearGradient3779"
       id="linearGradient4365"
       gradientUnits="userSpaceOnUse"
       gradientTransform="matrix(3.1356151,0,0,3.1356151,-1786.9243,-458.78499)"
       x1="895.00568"
       y1="332.82974"
       x2="903.14038"
       y2="461.40115" />
    <linearGradient
       inkscape:collect="always"
       xlink:href="#linearGradient3779"
       id="linearGradient4367"
       gradientUnits="userSpaceOnUse"
       gradientTransform="matrix(3.1356151,0,0,3.1356151,-1786.9243,-458.78499)"
       x1="895.00568"
       y1="332.82974"
       x2="903.14038"
       y2="461.40115" />
    <linearGradient
       inkscape:collect="always"
       xlink:href="#linearGradient3779"
       id="linearGradient4369"
       gradientUnits="userSpaceOnUse"
       gradientTransform="matrix(3.1356151,0,0,3.1356151,-1786.9243,-458.78499)"
       x1="895.00568"
       y1="332.82974"
       x2="903.14038"
       y2="461.40115" />
    <linearGradient
       inkscape:collect="always"
       xlink:href="#linearGradient3779"
       id="linearGradient4371"
       gradientUnits="userSpaceOnUse"
       gradientTransform="matrix(3.1356151,0,0,3.1356151,-1786.9243,-458.78499)"
       x1="895.00568"
       y1="332.82974"
       x2="903.14038"
       y2="461.40115" />
    <linearGradient
       inkscape:collect="always"
       xlink:href="#linearGradient3779"
       id="linearGradient4373"
       gradientUnits="userSpaceOnUse"
       gradientTransform="matrix(3.1356151,0,0,3.1356151,-1786.9243,-458.78499)"
       x1="895.00568"
       y1="332.82974"
       x2="903.14038"
       y2="461.40115" />
    <linearGradient
       inkscape:collect="always"
       xlink:href="#linearGradient3779"
       id="linearGradient4375"
       gradientUnits="userSpaceOnUse"
       gradientTransform="matrix(3.1356151,0,0,3.1356151,-1786.9243,-458.78499)"
       x1="895.00568"
       y1="332.82974"
       x2="903.14038"
       y2="461.40115" />
    <linearGradient
       inkscape:collect="always"
       xlink:href="#linearGradient3779"
       id="linearGradient4377"
       gradientUnits="userSpaceOnUse"
       gradientTransform="matrix(3.1356151,0,0,3.1356151,-1786.9243,-458.78499)"
       x1="895.00568"
       y1="332.82974"
       x2="903.14038"
       y2="461.40115" />
    <linearGradient
       inkscape:collect="always"
       xlink:href="#linearGradient3779"
       id="linearGradient4379"
       gradientUnits="userSpaceOnUse"
       gradientTransform="matrix(3.1356151,0,0,3.1356151,-1786.9243,-458.78499)"
       x1="895.00568"
       y1="332.82974"
       x2="903.14038"
       y2="461.40115" />
    <linearGradient
       inkscape:collect="always"
       xlink:href="#linearGradient3779"
       id="linearGradient4381"
       gradientUnits="userSpaceOnUse"
       gradientTransform="matrix(3.1356151,0,0,3.1356151,-1786.9243,-458.78499)"
       x1="895.00568"
       y1="332.82974"
       x2="903.14038"
       y2="461.40115" />
    <linearGradient
       inkscape:collect="always"
       xlink:href="#linearGradient3779"
       id="linearGradient4383"
       gradientUnits="userSpaceOnUse"
       gradientTransform="matrix(3.1356151,0,0,3.1356151,-1786.9243,-458.78499)"
       x1="895.00568"
       y1="332.82974"
       x2="903.14038"
       y2="461.40115" />
    <linearGradient
       inkscape:collect="always"
       xlink:href="#linearGradient3779"
       id="linearGradient4919"
       x1="133.19279"
       y1="915.35468"
       x2="1366.8073"
       y2="915.35468"
       gradientUnits="userSpaceOnUse" />
    <linearGradient
       inkscape:collect="always"
       xlink:href="#linearGradient3779"
       id="linearGradient5014"
       gradientUnits="userSpaceOnUse"
       x1="133.19279"
       y1="915.35468"
       x2="1366.8073"
       y2="915.35468"
       gradientTransform="matrix(0.99236306,0,0,0.99236306,5.5650495,7.3891079)" />
    <linearGradient
       inkscape:collect="always"
       xlink:href="#linearGradient3779"
       id="linearGradient5040"
       gradientUnits="userSpaceOnUse"
       gradientTransform="matrix(0.96430437,0,0,0.96430437,12.232091,33.762614)"
       x1="133.19279"
       y1="915.35468"
       x2="1366.8073"
       y2="915.35468" />
    <linearGradient
       inkscape:collect="always"
       xlink:href="#linearGradient3902"
       id="linearGradient6546"
       x1="1308.868"
       y1="781.02191"
       x2="1308.723"
       y2="843.24725"
       gradientUnits="userSpaceOnUse" />
    <linearGradient
       inkscape:collect="always"
       xlink:href="#linearGradient3779"
       id="linearGradient6558"
       gradientUnits="userSpaceOnUse"
       gradientTransform="matrix(1.0742147,0,0,1.0742147,-4.7900182,-64.003953)"
       x1="133.19279"
       y1="915.35468"
       x2="1366.8073"
       y2="915.35468" />
    <linearGradient
       inkscape:collect="always"
       xlink:href="#linearGradient3902"
       id="linearGradient6885"
       x1="1218.0601"
       y1="778.65112"
       x2="1218.0601"
       y2="832.77704"
       gradientUnits="userSpaceOnUse" />
  </defs>
  <sodipodi:namedview
     id="base"
     pagecolor="#424670"
     bordercolor="#666666"
     borderopacity="1.0"
     inkscape:pageopacity="1"
     inkscape:pageshadow="2"
     inkscape:zoom="0.5"
     inkscape:cx="788.9499"
     inkscape:cy="140.50272"
     inkscape:document-units="px"
     inkscape:current-layer="g5018"
     showgrid="false"
     showguides="true"
     inkscape:guide-bbox="true"
     inkscape:window-width="1366"
     inkscape:window-height="719"
     inkscape:window-x="0"
     inkscape:window-y="0"
     inkscape:window-maximized="1"
     inkscape:snap-nodes="true"
     inkscape:snap-to-guides="false">
    <sodipodi:guide
       orientation="1,0"
       position="137.17872,251.52798"
       id="guide5012" />
    <sodipodi:guide
       orientation="1,0"
       position="1361.8877,224.85996"
       id="guide5016" />
  </sodipodi:namedview>
  <metadata
     id="metadata7">
    <rdf:RDF>
      <cc:Work
         rdf:about="">
        <dc:format>image/svg+xml</dc:format>
        <dc:type
           rdf:resource="http://purl.org/dc/dcmitype/StillImage" />
        <dc:title></dc:title>
      </cc:Work>
    </rdf:RDF>
  </metadata>
  <g
     inkscape:label="Layer 1"
     inkscape:groupmode="layer"
     id="layer1"
     transform="translate(0,-652.36218)">
    <g
       id="g5018"
       transform="translate(0,-4.4326892)">
      <g
         transform="matrix(1.0012955,0,0,1.0012955,-73.386534,-5.9234349)"
         id="g4901"
         style="fill:#f2f0eb;fill-opacity:1">
        <g
           id="text4385"
           style="font-size:128px;font-style:normal;font-variant:normal;font-weight:normal;font-stretch:normal;line-height:125%;letter-spacing:0px;word-spacing:0px;fill:#f2f0eb;fill-opacity:1;stroke:none;font-family:Bree Serif;-inkscape-font-specification:Bree Serif">
          <g
             style="font-size:108.08994293px;fill:#f2f0eb;font-family:Bree Serif;-inkscape-font-specification:Bree Serif"
             id="text6548">
            <path
               d="m 304.93984,777.37883 -3.56696,0.32427 c -1.87365,0.14418 -3.06264,1.44126 -3.56697,3.89124 l -13.61934,58.90902 -14.80832,0 -11.34944,-48.10003 -0.32427,0 -11.02518,48.10003 -15.24068,0 -14.91641,-62.3679 -6.16113,-0.32427 0,-9.18765 26.80631,0 0,8.75529 -3.56697,0.32427 c -2.23388,0.21624 -3.35081,1.15302 -3.35079,2.81034 -2e-5,0.2883 0.036,0.61257 0.10809,0.97281 l 9.40383,41.72272 0.43236,0 11.24135,-48.85666 13.9436,0 11.67372,49.07284 0.21618,0 9.18764,-45.1816 -5.83685,-0.43236 0,-9.18765 24.32023,0 0,8.75529"
               style=""
               id="path6835" />
            <path
               d="m 310.53917,840.50336 0,-8.75529 3.56697,-0.32427 c 2.08973,-0.21617 3.1346,-1.22501 3.13461,-3.02652 l 0,-50.26182 -6.16113,-0.32427 0,-9.18765 29.50855,0 c 8.35892,8e-5 14.77225,1.54936 19.24001,4.64787 4.46766,3.09864 6.70152,8.17887 6.70158,15.24068 -6e-5,4.90013 -1.29714,8.93548 -3.89124,12.10608 -2.52215,3.17067 -5.54866,5.47659 -9.07955,6.91775 2.59411,0.93682 4.64781,3.13464 6.16112,6.59349 l 7.78248,16.97012 6.16113,0.21618 0,9.18765 -26.69822,0 0,-8.75529 3.13461,-0.32427 c 1.65733,-0.21617 2.48602,-0.86471 2.48607,-1.94562 -5e-5,-0.43235 -0.14417,-0.93676 -0.43236,-1.51326 l -5.08023,-10.80899 c -0.7927,-1.80147 -1.69345,-3.06252 -2.70225,-3.78315 -0.93681,-0.79263 -2.30595,-1.18896 -4.10742,-1.18899 l -9.83618,0 0,18.80765 7.02585,0.32427 0,9.18765 -26.9144,0 m 19.88855,-38.58811 9.40382,0 c 8.86334,4e-5 13.29502,-3.96326 13.29507,-11.8899 -5e-5,-4.53972 -1.18904,-7.49417 -3.56697,-8.86337 -2.30596,-1.36908 -6.05307,-2.05365 -11.24135,-2.05371 l -7.89057,0 0,22.80698"
               style=""
               id="path6837" />
            <path
               d="m 386.91828,827.85683 0,-49.72137 -6.16112,-0.32427 0,-9.18765 26.15776,0 0,8.75529 -3.56697,0.32427 c -2.08976,0.21624 -3.13463,1.3692 -3.1346,3.45888 l 0,49.82946 6.16112,0.32427 0,9.18765 -26.15776,0 0,-8.75529 3.56696,-0.32427 c 1.0809,-0.14411 1.87355,-0.43235 2.37798,-0.86472 0.50441,-0.50441 0.75662,-1.40516 0.75663,-2.70225"
               style=""
               id="path6839" />
            <path
               d="m 435.37641,828.39728 0,-49.07283 -8.43101,0 c -1.6574,6e-5 -2.48608,1.11699 -2.48607,3.35079 l 0,5.08022 -11.02518,-0.75662 0,-18.3753 56.53104,0 0,18.3753 -11.02517,0.75662 0,-5.08022 c -5e-5,-1.22496 -0.1802,-2.08968 -0.54045,-2.59416 -0.36035,-0.50436 -1.22506,-0.75657 -2.59416,-0.75663 l -7.35011,0 0,51.66699 8.5391,0.32427 0,9.18765 -30.48136,0 0,-8.75529 5.72876,-0.32427 c 2.08972,-0.21617 3.13459,-1.22501 3.13461,-3.02652"
               style=""
               id="path6841" />
            <path
               d="m 527.49384,840.50336 -51.34272,0 0,-8.75529 3.56697,-0.32427 c 2.08972,-0.21617 3.13459,-1.22501 3.1346,-3.02652 l 0,-50.26182 -6.16112,-0.32427 0,-9.18765 49.50519,0 0,17.94294 -11.02517,0.75663 0,-4.3236 c -5e-5,-1.22496 -0.1802,-2.08968 -0.54045,-2.59416 -0.36034,-0.50436 -1.22506,-0.75657 -2.59416,-0.75663 l -15.99731,0 0,18.48338 24.96877,0 0,11.02517 -24.96877,0 0,20.21282 17.40248,0 c 1.29703,10e-6 2.12572,-0.2522 2.48607,-0.75663 0.36025,-0.57646 0.5404,-1.47721 0.54045,-2.70225 l 0,-5.40449 11.02517,0.75663 0,19.24001"
               style=""
               id="path6843" />
            <path
               d="m 576.68487,828.39728 0,-49.07283 -8.43102,0 c -1.65739,6e-5 -2.48608,1.11699 -2.48607,3.35079 l 0,5.08022 -11.02517,-0.75662 0,-18.3753 56.53104,0 0,18.3753 -11.02517,0.75662 0,-5.08022 c -5e-5,-1.22496 -0.1802,-2.08968 -0.54045,-2.59416 -0.36035,-0.50436 -1.22507,-0.75657 -2.59416,-0.75663 l -7.35012,0 0,51.66699 8.53911,0.32427 0,9.18765 -30.48137,0 0,-8.75529 5.72877,-0.32427 c 2.08972,-0.21617 3.13459,-1.22501 3.13461,-3.02652"
               style=""
               id="path6845" />
            <path
               d="m 667.72141,827.85683 0,-18.69956 -30.58945,0 0,21.83417 6.26922,0.32427 0,9.18765 -26.15777,0 0,-8.75529 3.56697,-0.32427 c 2.08973,-0.21617 3.1346,-1.22501 3.13461,-3.02652 l 0,-50.26182 -6.16113,-0.32427 0,-9.18765 26.15776,0 0,8.75529 -3.56696,0.32427 c -1.15299,0.14418 -1.98168,0.46845 -2.48607,0.97281 -0.50445,0.43242 -0.75666,1.29714 -0.75663,2.59416 l 0,16.75394 30.58945,0 0,-19.88855 -6.16112,-0.32427 0,-9.18765 26.15776,0 0,8.75529 -3.56697,0.32427 c -2.0898,0.21624 -3.13467,1.3692 -3.1346,3.45888 l 0,49.82946 6.16112,0.32427 0,9.18765 -26.15776,0 0,-8.75529 3.56696,-0.32427 c 1.08085,-0.14411 1.87351,-0.43235 2.37798,-0.86472 0.50437,-0.50441 0.75658,-1.40516 0.75663,-2.70225"
               style=""
               id="path6847" />
            <path
               d="m 745.6475,840.50336 -51.34273,0 0,-8.75529 3.56697,-0.32427 c 2.08973,-0.21617 3.1346,-1.22501 3.13461,-3.02652 l 0,-50.26182 -6.16113,-0.32427 0,-9.18765 49.5052,0 0,17.94294 -11.02518,0.75663 0,-4.3236 c -4e-5,-1.22496 -0.18019,-2.08968 -0.54045,-2.59416 -0.36034,-0.50436 -1.22506,-0.75657 -2.59416,-0.75663 l -15.99731,0 0,18.48338 24.96878,0 0,11.02517 -24.96878,0 0,20.21282 17.40248,0 c 1.29704,10e-6 2.12573,-0.2522 2.48607,-0.75663 0.36026,-0.57646 0.54041,-1.47721 0.54045,-2.70225 l 0,-5.40449 11.02518,0.75663 0,19.24001"
               style=""
               id="path6849" />
            <path
               d="m 774.94998,840.50336 0,-8.75529 3.56696,-0.32427 c 2.08973,-0.21617 3.1346,-1.22501 3.13461,-3.02652 l 0,-50.26182 -6.16112,-0.32427 0,-9.18765 29.61664,0 c 10.59277,8e-5 18.84363,2.81041 24.7526,8.43102 5.98091,5.62074 8.97139,13.94365 8.97146,24.96878 -7e-5,6.84573 -0.90081,12.8267 -2.70225,17.94293 -1.80156,5.04421 -4.25159,9.0075 -7.35011,11.88989 -6.19721,5.7648 -13.90762,8.6472 -23.13125,8.6472 l -30.69754,0 m 19.88855,-61.39509 0,51.01845 11.02517,0 c 6.19712,10e-6 11.02513,-2.23384 14.48405,-6.70157 3.45883,-4.4677 5.18826,-10.95309 5.18832,-19.45619 -6e-5,-16.57374 -7.02589,-24.86063 -21.07754,-24.86069 l -9.62,0"
               style=""
               id="path6851" />
            <path
               d="m 879.63736,767.32647 c 8.57509,7e-5 15.74505,3.02658 21.5099,9.07955 5.76473,6.0531 8.64713,15.31279 8.64719,27.77912 -6e-5,12.39433 -2.88246,21.79815 -8.64719,28.21147 -5.69279,6.34128 -13.43923,9.51191 -23.23934,9.51192 -9.72812,-1e-5 -17.36647,-3.17064 -22.91507,-9.51192 -5.54862,-6.34126 -8.32293,-15.56493 -8.32292,-27.67102 -10e-6,-6.62948 0.9728,-12.4303 2.91842,-17.40248 1.94561,-5.04414 4.50374,-8.93538 7.67439,-11.67372 6.41332,-5.54855 13.87151,-8.32285 22.37462,-8.32292 m -19.45619,36.85867 c -2e-5,17.87089 6.19713,26.80631 18.59147,26.8063 6.62947,10e-6 11.27734,-2.73826 13.9436,-8.21483 2.44999,-4.828 3.67501,-10.73691 3.67506,-17.72675 -5e-5,-6.26918 -1.08095,-12.03397 -3.2427,-17.2944 -1.22507,-2.88234 -3.09862,-5.15222 -5.62068,-6.80966 -2.45008,-1.65732 -5.65674,-2.48601 -9.62,-2.48607 -3.96333,6e-5 -7.38617,1.29714 -10.26854,3.89124 -2.81037,2.59421 -4.75598,5.72882 -5.83686,9.40382 -1.08092,3.67511 -1.62137,7.81855 -1.62135,12.43035"
               style=""
               id="path6853" />
            <path
               d="m 959.62668,780.08108 c -0.7927,-1.36908 -3.74716,-2.05365 -8.86337,-2.05371 -6.70161,6e-5 -11.78183,2.26995 -15.24069,6.80967 -3.45889,4.53983 -5.18833,11.09728 -5.18831,19.67237 -2e-5,17.79882 6.66552,26.69822 19.99664,26.69821 0.21614,10e-6 1.15292,10e-6 2.81033,0 1.7294,10e-6 3.35075,-0.21617 4.86405,-0.64854 1.51321,-0.50441 2.41396,-1.00883 2.70225,-1.51326 0.28819,-0.5044 0.43231,-1.29706 0.43236,-2.37798 l 0,-8.64719 11.02517,0.75663 0,18.69956 c -5.62073,2.95446 -12.75466,4.43168 -21.4018,4.43169 -11.02521,-1e-5 -19.45621,-3.09858 -25.29305,-9.29574 -5.76481,-6.19714 -8.6472,-15.42081 -8.6472,-27.67102 0,-6.7736 0.97281,-12.68251 2.91843,-17.72675 1.94561,-5.04414 4.5758,-8.97141 7.89057,-11.78181 6.48537,-5.40443 14.19578,-8.10667 23.13125,-8.10674 7.20595,7e-5 13.97958,1.4773 20.32091,4.43168 l 0,18.37529 -11.02518,0.75663 0,-8.43101 c -5e-5,-1.08084 -0.14417,-1.8735 -0.43236,-2.37798"
               style=""
               id="path6855" />
            <path
               d="m 1000.7436,830.77526 c 8.6472,10e-6 12.9708,-3.45886 12.9708,-10.37663 0,-3.60298 -1.9096,-6.26919 -5.7288,-7.99866 -2.0177,-1.00881 -4.6479,-1.94559 -7.8905,-2.81034 -3.1707,-0.86468 -5.83692,-1.7294 -7.9987,-2.59416 -2.08975,-0.93674 -4.21552,-2.19779 -6.3773,-3.78314 -4.25155,-3.1706 -6.37731,-8.03464 -6.37731,-14.59215 0,-6.62945 2.26988,-11.81777 6.80967,-15.56495 4.61182,-3.8191 10.59279,-5.72869 17.94294,-5.72876 7.4221,7e-5 14.3038,1.4773 20.6452,4.43168 l 0,16.21349 -11.0252,0.75663 0,-6.26921 c 0,-1.08084 -0.1442,-1.8735 -0.4324,-2.37798 -0.7927,-1.36908 -3.3508,-2.05365 -7.6744,-2.05371 -4.2515,6e-5 -7.42215,0.75669 -9.51187,2.26989 -2.0177,1.51332 -3.02653,3.85526 -3.02652,7.02585 -10e-6,2.30596 0.8647,4.32364 2.59416,6.05303 1.15294,1.15301 2.84635,2.12582 5.08023,2.91843 2.3059,0.72064 4.7199,1.47727 7.242,2.26989 2.5941,0.7927 4.864,1.65742 6.8097,2.59416 2.0176,0.93682 4.1074,2.23389 6.2692,3.89124 4.3956,3.24273 6.5934,8.25089 6.5935,15.0245 -10e-5,6.77365 -2.4501,12.10608 -7.3501,15.99731 -4.8281,3.89124 -11.2414,5.83685 -19.24,5.83686 -7.92664,-1e-5 -15.06057,-1.47723 -21.40184,-4.43169 l 0,-17.07821 11.02518,-0.75663 0,6.59348 c -2e-5,1.08092 0.1441,1.87358 0.43236,2.37798 0.28822,0.50443 1.15294,1.00885 2.59415,1.51326 1.51324,0.43237 3.85519,0.64855 7.02585,0.64854"
               style=""
               id="path6857" />
            <g
               id="g6871"
               style="fill-opacity:1;fill:url(#linearGradient6885)">
              <path
                 id="path6859"
                 style="fill-opacity:1.0;fill:url(#linearGradient6885)"
                 d="m 1107.6125,840.50336 -51.3428,0 0,-8.75529 3.567,-0.32427 c 2.0897,-0.21617 3.1346,-1.22501 3.1346,-3.02652 l 0,-50.26182 -6.1611,-0.32427 0,-9.18765 49.5052,0 0,17.94294 -11.0252,0.75663 0,-4.3236 c 0,-1.22496 -0.1802,-2.08968 -0.5404,-2.59416 -0.3604,-0.50436 -1.2251,-0.75657 -2.5942,-0.75663 l -15.9973,0 0,18.48338 24.9688,0 0,11.02517 -24.9688,0 0,20.21282 17.4025,0 c 1.297,10e-6 2.1257,-0.2522 2.486,-0.75663 0.3603,-0.57646 0.5404,-1.47721 0.5405,-2.70225 l 0,-5.40449 11.0252,0.75663 0,19.24001" />
              <path
                 id="path6861"
                 style="fill-opacity:1.0;fill:url(#linearGradient6885)"
                 d="m 1133.4325,781.27007 0,35.88586 c -10e-5,5.04421 1.1889,8.61118 3.5669,10.7009 2.45,2.01769 5.9089,3.02653 10.3767,3.02652 4.5397,1e-5 8.0346,-1.11692 10.4847,-3.35079 2.522,-2.23384 3.7831,-5.51256 3.7831,-9.83618 l 0,-39.56092 -6.2692,-0.32427 0,-9.18765 25.6173,0 0,8.75529 -3.5669,0.32427 c -2.0898,0.21624 -3.1347,1.29714 -3.1346,3.2427 l 0,38.58811 c -10e-5,6.98983 -2.4501,12.46638 -7.3502,16.42967 -4.9001,3.9633 -11.6737,5.94494 -20.3209,5.94495 -8.6472,-1e-5 -15.2046,-1.90959 -19.6723,-5.72877 -4.3957,-3.89123 -6.5935,-10.01632 -6.5935,-18.37529 l 0,-39.66901 -6.2692,-0.32427 0,-9.18765 26.1577,0 0,8.75529 -3.5669,0.32427 c -1.153,0.14418 -1.9817,0.46845 -2.4861,0.97281 -0.5045,0.43242 -0.7567,1.29714 -0.7566,2.59416" />
              <path
                 id="path6863"
                 style="fill-opacity:1.0;fill:url(#linearGradient6885)"
                 d="m 1188.4317,840.50336 0,-8.75529 3.5669,-0.32427 c 2.0898,-0.21617 3.1346,-1.22501 3.1346,-3.02652 l 0,-50.26182 -6.1611,-0.32427 0,-9.18765 29.5086,0 c 8.3589,8e-5 14.7722,1.54936 19.24,4.64787 4.4676,3.09864 6.7015,8.17887 6.7016,15.24068 -10e-5,4.90013 -1.2972,8.93548 -3.8913,12.10608 -2.5221,3.17067 -5.5486,5.47659 -9.0795,6.91775 2.5941,0.93682 4.6478,3.13464 6.1611,6.59349 l 7.7825,16.97012 6.1611,0.21618 0,9.18765 -26.6982,0 0,-8.75529 3.1346,-0.32427 c 1.6573,-0.21617 2.486,-0.86471 2.4861,-1.94562 -10e-5,-0.43235 -0.1442,-0.93676 -0.4324,-1.51326 l -5.0802,-10.80899 c -0.7927,-1.80147 -1.6935,-3.06252 -2.7023,-3.78315 -0.9368,-0.79263 -2.3059,-1.18896 -4.1074,-1.18899 l -9.8362,0 0,18.80765 7.0259,0.32427 0,9.18765 -26.9144,0 m 19.8885,-38.58811 9.4038,0 c 8.8634,4e-5 13.2951,-3.96326 13.2951,-11.8899 0,-4.53972 -1.189,-7.49417 -3.567,-8.86337 -2.3059,-1.36908 -6.053,-2.05365 -11.2413,-2.05371 l -7.8906,0 0,22.80698" />
              <path
                 id="path6865"
                 style="fill-opacity:1.0;fill:url(#linearGradient6885)"
                 d="m 1285.5774,767.32647 c 8.5751,7e-5 15.7451,3.02658 21.5099,9.07955 5.7648,6.0531 8.6471,15.31279 8.6472,27.77912 -10e-5,12.39433 -2.8824,21.79815 -8.6472,28.21147 -5.6928,6.34128 -13.4392,9.51191 -23.2393,9.51192 -9.7281,-1e-5 -17.3665,-3.17064 -22.9151,-9.51192 -5.5486,-6.34126 -8.3229,-15.56493 -8.3229,-27.67102 0,-6.62948 0.9728,-12.4303 2.9184,-17.40248 1.9456,-5.04414 4.5038,-8.93538 7.6744,-11.67372 6.4133,-5.54855 13.8715,-8.32285 22.3746,-8.32292 m -19.4562,36.85867 c 0,17.87089 6.1972,26.80631 18.5915,26.8063 6.6295,10e-6 11.2773,-2.73826 13.9436,-8.21483 2.45,-4.828 3.675,-10.73691 3.6751,-17.72675 -10e-5,-6.26918 -1.081,-12.03397 -3.2427,-17.2944 -1.2251,-2.88234 -3.0987,-5.15222 -5.6207,-6.80966 -2.4501,-1.65732 -5.6568,-2.48601 -9.62,-2.48607 -3.9633,6e-5 -7.3862,1.29714 -10.2686,3.89124 -2.8103,2.59421 -4.7559,5.72882 -5.8368,9.40382 -1.0809,3.67511 -1.6214,7.81855 -1.6214,12.43035" />
              <path
                 id="path6867"
                 style="fill-opacity:1.0;fill:url(#linearGradient6885)"
                 d="m 1320.4842,840.50336 0,-8.75529 3.5669,-0.32427 c 2.0898,-0.21617 3.1346,-1.22501 3.1346,-3.02652 l 0,-50.26182 -6.1611,-0.32427 0,-9.18765 30.9137,0 c 8.0707,8e-5 14.3399,1.90966 18.8077,5.72877 4.5397,3.74718 6.8096,9.40388 6.8097,16.97012 -10e-5,7.56634 -2.5582,13.47525 -7.6744,17.72675 -5.1163,4.17951 -11.89,6.26925 -20.3209,6.26922 l -9.1877,0 0,15.67304 10.3766,0.32427 0,9.18765 -30.2651,0 m 19.8885,-35.66968 7.7825,0 c 10.5207,3e-5 15.7811,-4.28753 15.7811,-12.86271 0,-5.18826 -1.3692,-8.61111 -4.1074,-10.26854 -2.6663,-1.72938 -6.9538,-2.5941 -12.8627,-2.59416 l -6.5935,0 0,25.72541" />
              <path
                 id="path6869"
                 style="fill-opacity:1.0;fill:url(#linearGradient6885)"
                 d="m 1434.3851,840.50336 -51.3427,0 0,-8.75529 3.567,-0.32427 c 2.0897,-0.21617 3.1345,-1.22501 3.1346,-3.02652 l 0,-50.26182 -6.1612,-0.32427 0,-9.18765 49.5052,0 0,17.94294 -11.0251,0.75663 0,-4.3236 c -10e-5,-1.22496 -0.1802,-2.08968 -0.5405,-2.59416 -0.3603,-0.50436 -1.2251,-0.75657 -2.5942,-0.75663 l -15.9973,0 0,18.48338 24.9688,0 0,11.02517 -24.9688,0 0,20.21282 17.4025,0 c 1.2971,10e-6 2.1257,-0.2522 2.4861,-0.75663 0.3602,-0.57646 0.5404,-1.47721 0.5404,-2.70225 l 0,-5.40449 11.0252,0.75663 0,19.24001" />
            </g>
          </g>
        </g>
      </g>
      <g
         style="font-size:88.08560944px;font-style:normal;font-variant:normal;font-weight:300;font-stretch:normal;text-align:start;line-height:125%;letter-spacing:0px;word-spacing:0px;writing-mode:lr-tb;text-anchor:start;fill:url(#linearGradient6558);fill-opacity:1;stroke:none;font-family:Aleo;-inkscape-font-specification:Aleo Light"
         id="text4909">
        <path
           d="m 196.68844,946.65623 -2.86278,-0.26426 -23.82716,-58.26863 -4.49237,0 -23.82716,58.26863 -2.86278,0.26426 c -1.14511,0.13213 -1.67362,0.74873 -1.67362,1.76171 l 0,2.02597 2.86278,0 1.80575,0 1.62959,0 0.6166,0 8.28004,0 0,-2.02597 c 0,-1.10107 -0.70468,-1.71767 -2.02597,-1.76171 -0.13212,-0.0441 -0.3083,-0.0441 -0.57255,-0.0441 -0.22022,-0.044 -0.66064,-0.044 -1.2332,-0.0881 -0.57256,-0.044 -1.32129,-0.0881 -2.24618,-0.13213 l 6.16599,-15.23881 0.44043,-1.10107 29.72889,0 0.44043,1.10107 6.16599,15.23881 c -0.88085,0.044 -1.62958,0.0881 -2.20214,0.13213 -0.6166,0.044 -1.01298,0.044 -1.27724,0.0881 -0.22021,0 -0.39639,0 -0.52851,0.0441 -1.36533,0.044 -2.02597,0.66064 -2.02597,1.76171 l 0,2.02597 8.28004,0 0.57256,0 1.67363,0 1.80575,0 2.86278,0 0,-2.02597 c 0,-1.01298 -0.57255,-1.62958 -1.67362,-1.76171 m -30.16932,-50.29689 c 0.22021,-0.52851 0.39638,-1.10107 0.6166,-1.71766 0.22021,-0.6166 0.39638,-1.32129 0.6166,-2.02597 0.17617,0.70468 0.39638,1.36532 0.61659,2.02597 0.22022,0.61659 0.39639,1.18915 0.6166,1.67362 l 12.28795,30.38954 -27.04229,0 12.28795,-30.3455"
           style=""
           id="path6888" />
        <path
           d="m 249.29336,888.16738 -4.49237,0 -8.5443,0 0,1.71767 c 0,1.01299 0.6166,1.49746 1.76171,1.58554 0.13213,0 0.48447,0 1.10107,0 0.6166,0.044 1.45341,0.044 2.51044,0.0881 1.05703,0 2.11405,0.044 3.17108,0.0881 l 0,35.05808 c 0,2.86278 -0.44043,5.59344 -1.32128,8.10387 -0.83682,2.51044 -2.11406,4.71258 -3.74364,6.56238 -1.62958,1.8498 -3.65556,3.25917 -6.03387,4.3162 -2.33426,1.05702 -5.02088,1.58554 -8.01579,1.58554 -2.9949,0 -5.68152,-0.52852 -8.05983,-1.58554 -2.33427,-1.05703 -4.36024,-2.51045 -5.98982,-4.36024 -1.62958,-1.89384 -2.86278,-4.05194 -3.74364,-6.56238 -0.83681,-2.51044 -1.27724,-5.19705 -1.27724,-8.10388 l 0,-35.01403 c 1.05703,-0.044 2.11406,-0.0881 3.17108,-0.0881 1.05703,-0.044 1.89384,-0.044 2.51044,-0.0881 0.6166,0 0.96894,0 1.10107,0 1.14511,-0.0881 1.76171,-0.57255 1.76171,-1.58554 l 0,-1.71767 -8.5443,0 -4.53641,0 -7.39919,0 0,1.71767 c 0,1.01299 0.57256,1.49746 1.71767,1.58554 0.13213,0 0.39638,0 0.83681,0 0.44043,0.044 1.10107,0.044 1.98193,0.0881 0.83681,0 1.80575,0.044 2.86278,0.0881 l 0,35.05808 c 0,3.43533 0.52852,6.60642 1.62958,9.60133 1.10107,2.99491 2.64257,5.59344 4.66854,7.79557 2.07001,2.20214 4.53641,3.96386 7.44324,5.2411 2.95086,1.2332 6.21003,1.8498 9.86558,1.8498 3.65555,0 6.91473,-0.6166 9.82155,-1.8498 2.95086,-1.27724 5.41727,-3.03896 7.44323,-5.2411 2.07001,-2.20213 3.61151,-4.80066 4.71258,-7.79557 1.10107,-2.99491 1.62959,-6.166 1.62959,-9.60133 l 0,-35.05808 c 1.05702,-0.044 2.02597,-0.0881 2.86278,-0.0881 0.88085,-0.044 1.5415,-0.044 1.98193,-0.0881 0.39638,0 0.70468,0 0.83681,0 1.14511,-0.0881 1.71767,-0.57255 1.71767,-1.58554 l 0,-1.71767 -7.39919,0"
           style=""
           id="path6890" />
        <path
           d="m 298.35466,922.16843 0,2.4664 c 0,0.30829 0.13213,0.52851 0.35234,0.70468 0.22021,0.22021 0.48447,0.3083 0.79277,0.35234 l 11.97964,0 0,16.73627 c -1.36532,0.83681 -2.73065,1.5415 -4.09598,2.1581 -1.36532,0.61659 -2.81874,1.14511 -4.31619,1.58554 -1.49746,0.48447 -3.17109,0.79277 -4.9328,1.01298 -1.71767,0.22021 -3.6996,0.3083 -5.85769,0.3083 -3.83172,0 -7.35515,-0.6166 -10.52623,-1.93788 -3.17108,-1.27724 -5.90174,-3.12704 -8.19196,-5.5494 -2.29023,-2.42235 -4.05194,-5.37322 -5.32918,-8.89664 -1.2332,-3.47938 -1.89384,-7.3992 -1.89384,-11.80347 0,-4.31619 0.66064,-8.23601 1.89384,-11.67135 1.2332,-3.47938 3.03895,-6.43025 5.32918,-8.80856 2.29022,-2.42235 5.06492,-4.27215 8.32409,-5.54939 3.3032,-1.32128 6.95876,-1.93789 10.96666,-1.93789 7.39918,0 13.25688,1.01299 17.57308,3.03896 0.30829,5.68151 0.44042,8.8526 0.48447,9.4692 0.044,1.40937 0.70468,2.11406 1.89384,2.11406 l 2.15809,0 0,-14.04966 c -2.77469,-1.2332 -6.34216,-2.29023 -10.7024,-3.17108 -4.36023,-0.88086 -8.10388,-1.27724 -11.27496,-1.27724 -4.75661,0 -9.07282,0.74873 -12.94858,2.24618 -3.87576,1.49745 -7.13494,3.65556 -9.86559,6.43025 -2.68661,2.77469 -4.75662,6.12195 -6.25408,10.04176 -1.45341,3.91981 -2.15809,8.28005 -2.15809,13.08071 0,4.84471 0.70468,9.20495 2.15809,13.12476 1.49746,3.96385 3.56747,7.31111 6.21004,10.0858 2.64256,2.77469 5.8577,4.9328 9.55729,6.43025 3.69959,1.49745 7.79558,2.24618 12.28794,2.24618 2.64257,0 5.02088,-0.13213 7.22302,-0.44042 2.24618,-0.3083 4.27215,-0.74873 6.16599,-1.32129 1.93788,-0.57255 3.74364,-1.27724 5.37322,-2.1581 1.67363,-0.83681 3.30322,-1.80575 4.84471,-2.90682 l 0,-22.15353 -17.22073,0"
           style=""
           id="path6892" />
        <path
           d="m 365.5158,887.41866 c -2.55448,0 -4.9328,0.39638 -7.13493,1.14511 -2.20214,0.74872 -4.14003,1.8498 -5.81365,3.25917 -1.67363,1.45341 -3.083,3.21512 -4.14003,5.28513 -1.10107,2.11405 -1.8498,4.49237 -2.20214,7.13494 l 2.1581,0.35234 c 0.0881,0.044 0.26426,0.044 0.48447,0.044 0.83681,0 1.36533,-0.48447 1.62958,-1.5415 0.39639,-1.80575 1.01299,-3.43534 1.8498,-4.93279 0.88086,-1.49745 1.93789,-2.73066 3.17108,-3.78768 1.27724,-1.05703 2.73066,-1.89384 4.36024,-2.4664 1.67363,-0.6166 3.47938,-0.88085 5.41727,-0.88085 1.80575,-0.044 3.52342,0.22021 5.153,0.74872 1.67363,0.48447 3.083,1.2332 4.3162,2.33427 1.2332,1.05703 2.24618,2.37831 2.95087,4.0079 0.74872,1.58554 1.10107,3.52342 1.10107,5.72556 0,1.89384 -0.35235,3.65556 -1.05703,5.2411 -0.70468,1.58553 -1.71767,2.95086 -3.12704,4.09598 -1.36532,1.14511 -3.083,2.02597 -5.15301,2.68661 -2.02596,0.66064 -4.40428,1.01298 -7.13493,1.10107 l 0,3.03895 c 3.39129,-0.044 6.25408,0.3083 8.5443,1.01299 2.29023,0.70468 4.14003,1.62958 5.59344,2.81873 1.40937,1.18916 2.37831,2.59853 2.99491,4.27216 0.6166,1.62958 0.9249,3.39129 0.9249,5.32918 0,1.58554 -0.35234,3.21512 -1.01299,4.88875 -0.66064,1.67362 -1.67362,3.21512 -2.99491,4.58045 -1.32128,1.36532 -2.99491,2.51044 -4.97683,3.3913 -1.98193,0.88085 -4.27216,1.32128 -6.91472,1.32128 -1.93789,0 -3.65556,-0.22022 -5.15301,-0.6166 -1.49746,-0.44043 -2.7747,-0.96894 -3.87577,-1.62958 -1.10107,-0.66065 -2.02597,-1.40937 -2.7747,-2.24619 -0.79277,-0.83681 -1.40937,-1.67362 -1.93788,-2.51044 -0.52851,-0.83681 -0.9249,-1.62958 -1.2332,-2.42235 -0.35234,-0.79277 -0.57255,-1.40937 -0.74873,-1.93788 l -0.3083,-0.88086 c -0.17617,-0.44043 -0.39638,-0.70469 -0.66064,-0.83681 -0.3083,-0.17617 -0.6166,-0.22022 -0.9249,-0.22022 -0.35234,0 -0.66064,0.044 -1.01298,0.22022 l -1.67363,0.70468 c 0.52852,1.8498 1.18916,3.74364 2.07001,5.63748 0.83682,1.89384 2.02598,3.61151 3.56747,5.15301 1.49746,1.49745 3.43534,2.73065 5.81365,3.69959 2.37831,0.96894 5.32918,1.45342 8.89665,1.45342 2.81874,0 5.46131,-0.48448 7.9277,-1.36533 2.42236,-0.88086 4.53641,-2.11406 6.34217,-3.6996 1.76171,-1.58554 3.17108,-3.47938 4.22811,-5.68152 1.01298,-2.20214 1.54149,-4.53641 1.54149,-7.09089 0,-4.05193 -1.18915,-7.39919 -3.52342,-10.0858 -2.37831,-2.68661 -5.81365,-4.44833 -10.3941,-5.28514 1.76171,-0.44043 3.3913,-1.10107 4.88875,-1.93788 1.49745,-0.83681 2.7747,-1.8498 3.87577,-3.083 1.10107,-1.2332 1.98192,-2.68661 2.59852,-4.31619 0.6166,-1.62959 0.9249,-3.43534 0.96894,-5.46131 0,-2.59852 -0.48447,-4.88875 -1.40937,-6.82664 -0.92489,-1.98192 -2.20214,-3.61151 -3.78768,-4.93279 -1.58554,-1.32128 -3.43534,-2.33427 -5.54939,-2.99491 -2.11405,-0.66064 -4.36024,-1.01298 -6.73855,-1.01298"
           style=""
           id="path6894" />
        <path
           d="m 426.38433,950.44391 0,-1.40937 c 0,-0.83681 -0.48447,-1.2332 -1.45342,-1.27724 -0.61659,-0.044 -4.66854,-0.26426 -12.19985,-0.6166 l 0,-59.28162 -3.25917,0 -17.96946,15.9435 1.27724,1.76171 c 0.26425,0.35234 0.6166,0.52851 1.14511,0.52851 0.39638,0 0.74873,-0.13212 1.05703,-0.39638 l 13.74135,-12.19986 c -0.0881,1.10107 -0.13213,2.1581 -0.17617,3.17108 l 0,50.47306 c 0,0 -1.01299,0.044 -3.03895,0.13213 -2.02597,0.0881 -4.09599,0.22021 -6.21004,0.3083 -2.15809,0.0881 -3.34725,0.13212 -3.61151,0.17617 -0.96894,0.044 -1.45341,0.44043 -1.45341,1.27724 l 0,1.40937 32.15125,0"
           style=""
           id="path6896" />
        <path
           d="m 445.57398,922.52077 0,3.56747 20.4799,0 0,-3.56747 -20.4799,0"
           style=""
           id="path6898" />
        <path
           d="m 527.84154,925.86802 c -0.88086,-1.71766 -2.07002,-3.17108 -3.56747,-4.36023 -1.45341,-1.14512 -3.12704,-2.11406 -4.97684,-2.90683 -1.89384,-0.79277 -3.78768,-1.49746 -5.7696,-2.1581 -1.98193,-0.6166 -3.91982,-1.27724 -5.76961,-1.93788 -1.8498,-0.66064 -3.52343,-1.49746 -4.97684,-2.4664 -1.49745,-0.96894 -2.68661,-2.11405 -3.56747,-3.52342 -0.88085,-1.36533 -1.36532,-3.083 -1.36532,-5.2411 0,-1.58553 0.3083,-3.12704 0.9249,-4.62449 0.61659,-1.45341 1.49745,-2.73065 2.64256,-3.87577 1.18916,-1.10107 2.59853,-1.98192 4.36024,-2.64256 1.71767,-0.6166 3.6996,-0.96895 5.94578,-0.96895 4.22811,0 8.10388,0.74873 11.6273,2.24619 0.26426,5.06491 0.39639,7.83962 0.44043,8.28004 0.044,1.45341 0.70468,2.1581 1.89384,2.1581 l 2.11405,0 0,-12.77241 c -5.54938,-2.42235 -10.92262,-3.61151 -16.07562,-3.61151 -2.86278,0 -5.46131,0.44043 -7.70749,1.32128 -2.24618,0.88086 -4.14003,2.07002 -5.63748,3.56747 -1.5415,1.49745 -2.68661,3.21513 -3.52342,5.15301 -0.79277,1.93788 -1.18916,3.91981 -1.18916,5.98982 0,2.68661 0.48447,4.93279 1.36533,6.69451 0.88085,1.76171 2.07001,3.25916 3.56746,4.44832 1.45342,1.18915 3.12705,2.1581 4.97684,2.90682 1.89384,0.79277 3.78768,1.45342 5.76961,2.07002 1.93788,0.61659 3.83172,1.27724 5.76961,1.89384 1.84979,0.66064 3.52342,1.45341 4.97683,2.42235 1.49746,0.96894 2.64257,2.1581 3.56747,3.56747 0.88086,1.40937 1.32128,3.21512 1.32128,5.41726 0,2.02597 -0.35234,3.96386 -1.05702,5.72557 -0.70469,1.76171 -1.71767,3.30321 -3.03896,4.58045 -1.36532,1.32128 -2.99491,2.33427 -4.93279,3.083 -1.93788,0.74872 -4.14003,1.10107 -6.60642,1.10107 -4.88875,0 -9.02878,-0.79278 -12.42007,-2.42236 -0.0441,-1.18915 -0.0881,-2.4664 -0.17617,-3.91981 -0.0881,-1.40937 -0.13213,-2.59853 -0.17617,-3.52342 -0.044,-0.96894 -0.0881,-1.49746 -0.0881,-1.62959 -0.044,-1.40937 -0.70469,-2.11405 -1.89384,-2.11405 l -2.11406,0 0,11.67134 0,1.10107 0,1.18916 c 5.37322,2.29022 10.96667,3.39129 16.73627,3.39129 3.17108,0 5.98982,-0.48447 8.45622,-1.45341 2.46639,-0.96894 4.58045,-2.33427 6.25408,-4.05194 1.71766,-1.67362 3.03895,-3.69959 3.91981,-5.98982 0.88085,-2.29022 1.32128,-4.75662 1.32128,-7.39919 0,-2.55448 -0.44043,-4.66854 -1.32128,-6.38621"
           style=""
           id="path6900" />
        <path
           d="m 545.44075,888.16738 -7.3992,0 0,1.71767 c 0,1.01299 0.57256,1.49746 1.71767,1.58554 0.13213,0 0.39639,0 0.83682,0 0.44042,0 1.10107,0.044 1.98192,0.0881 0.83682,0 1.80576,0.044 2.86279,0.0881 l 0,55.31777 c -1.05703,0.044 -2.02597,0.0881 -2.86279,0.0881 -0.88085,0.0441 -1.5415,0.0441 -1.98192,0.0881 -0.44043,0 -0.70469,0 -0.83682,0 -1.14511,0.0881 -1.71767,0.57256 -1.71767,1.58554 l 0,1.71767 7.3992,0 37.34829,0 0,-3.74364 0,-9.1609 -2.15809,0 c -1.18916,0 -1.80576,0.74873 -1.89384,2.15809 0,0.17618 0,0.52852 -0.0441,1.14512 -0.044,0.57255 -0.0881,1.49745 -0.13213,2.81874 -0.0881,1.27724 -0.13212,2.29022 -0.17617,3.03895 l -28.40761,0 0,-25.98525 24.7961,0 0,-3.65556 -24.7961,0 0,-25.14844 28.40761,0 c 0.22022,3.83172 0.3083,6.21004 0.35235,7.00281 0.0881,1.40937 0.70468,2.15809 1.89384,2.15809 l 2.15809,0 0,-9.1609 0,-3.74364 -37.34829,0"
           style=""
           id="path6902" />
        <path
           d="m 633.46611,892.96805 c -3.74363,-3.21512 -9.249,-4.80067 -16.56009,-4.80067 l -15.15073,0 -7.39919,0 0,1.71767 c 0,1.01299 0.57256,1.49746 1.71767,1.58554 0.13213,0 0.39638,0 0.83681,0 0.44043,0.044 1.10107,0.044 1.98193,0.0881 0.83681,0 1.80575,0.044 2.86278,0.0881 l 0,55.31777 c -1.05703,0.044 -2.02597,0.0881 -2.86278,0.0881 -0.88086,0.0441 -1.5415,0.0441 -1.98193,0.0881 -0.44043,0 -0.70468,0 -0.83681,0 -1.14511,0.0881 -1.71767,0.57256 -1.71767,1.58554 l 0,1.71767 7.39919,0 4.49237,0 7.39919,0 0,-1.71767 c 0,-1.01298 -0.57256,-1.49746 -1.71767,-1.58554 -0.13213,0 -0.44043,0 -0.83682,0 -0.44042,-0.044 -1.10107,-0.044 -1.98192,-0.0881 -0.83681,0 -1.80576,-0.044 -2.86278,-0.0881 l 0,-21.62502 10.65836,0 c 3.43533,0 6.51833,-0.44043 9.24898,-1.36533 2.73066,-0.92489 5.06493,-2.20214 6.95877,-3.87576 1.93788,-1.67363 3.39129,-3.65556 4.40428,-5.90174 1.01298,-2.33427 1.49745,-4.80067 1.49745,-7.53132 0,-5.94577 -1.8498,-10.52623 -5.54939,-13.69731 m -0.13213,19.68713 c -0.83681,1.8498 -1.98193,3.43534 -3.47938,4.75663 -1.5415,1.36532 -3.34726,2.42235 -5.54939,3.17108 -2.1581,0.79277 -4.6245,1.14511 -7.39919,1.14511 l -10.65836,0 0,-29.99315 10.65836,0 c 5.85768,0 10.26197,1.27724 13.21284,3.83172 2.95086,2.59853 4.40428,6.29813 4.40428,11.05475 0,2.20214 -0.39639,4.18407 -1.18916,6.03386"
           style=""
           id="path6904" />
        <path
           d="m 698.90196,888.16738 -1.2332,0 -45.89261,0 -1.27724,0 -0.57255,0 0,12.90454 2.11405,0 c 1.18916,0 1.8498,-0.70468 1.89384,-2.11405 0.044,-0.6166 0.17617,-2.95087 0.35234,-7.00281 l 18.23373,0 0,55.00947 c -1.05703,0.044 -2.02597,0.0881 -2.86279,0.0881 -0.88085,0.0441 -1.54149,0.0441 -1.98192,0.0881 -0.39639,0 -0.70469,0 -0.83682,0 -1.14511,0.0881 -1.71767,0.57256 -1.71767,1.58554 l 0,1.71767 7.3992,0 4.49236,0 7.44324,0 0,-1.71767 c 0,-1.01298 -0.6166,-1.49746 -1.76172,-1.58554 -0.13212,0 -0.39638,0 -0.83681,0 -0.44043,-0.044 -1.10107,-0.044 -1.93788,-0.0881 -0.88086,0 -1.8498,-0.044 -2.90683,-0.0881 l 0,-54.96542 18.14564,0 c 0.22021,4.44832 0.35234,6.78259 0.35234,6.95876 0.044,1.40937 0.70469,2.11405 1.89384,2.11405 l 2.1581,0 0,-12.90454 -0.66064,0"
           style=""
           id="path6906" />
        <path
           d="m 760.76284,950.44391 0,-1.40937 c 0,-0.83681 -0.48448,-1.2332 -1.45342,-1.27724 -0.61659,-0.044 -4.66854,-0.26426 -12.19985,-0.6166 l 0,-59.28162 -3.25917,0 -17.96946,15.9435 1.27724,1.76171 c 0.26425,0.35234 0.6166,0.52851 1.14511,0.52851 0.39638,0 0.74873,-0.13212 1.05703,-0.39638 l 13.74135,-12.19986 c -0.0881,1.10107 -0.13213,2.1581 -0.17617,3.17108 l 0,50.47306 c 0,0 -1.01299,0.044 -3.03895,0.13213 -2.02597,0.0881 -4.09599,0.22021 -6.21004,0.3083 -2.15809,0.0881 -3.34725,0.13212 -3.61151,0.17617 -0.96894,0.044 -1.45341,0.44043 -1.45341,1.27724 l 0,1.40937 32.15125,0"
           style=""
           id="path6908" />
        <path
           d="m 834.94991,938.64044 c -1.18916,0 -1.8498,0.70468 -1.89384,2.11405 0,0.13213 -0.044,0.35234 -0.0881,0.74873 -0.044,0.35234 -0.13213,0.96894 -0.17617,1.80575 -0.0881,0.83682 -0.17617,1.89385 -0.22021,3.17109 l -23.91525,0 c -1.05702,0 -2.07001,0.0881 -3.08299,0.17617 -1.01299,0.13213 -1.98193,0.3083 -2.90683,0.52851 l 19.51096,-19.90735 c 1.76171,-1.80575 3.47939,-3.61151 5.10897,-5.32918 1.62958,-1.76171 3.03895,-3.52342 4.31619,-5.37322 1.2332,-1.89384 2.20214,-3.78768 2.90683,-5.81365 0.70468,-2.02597 1.10107,-4.18407 1.10107,-6.51833 0,-2.86278 -0.48447,-5.28514 -1.45341,-7.39919 -0.96894,-2.11406 -2.29023,-3.83173 -3.91981,-5.2411 -1.67363,-1.40937 -3.56747,-2.42235 -5.72557,-3.12704 -2.15809,-0.70468 -4.44832,-1.01298 -6.78259,-1.01298 -2.55448,0 -4.9328,0.35234 -7.13493,1.10107 -2.20214,0.74872 -4.14003,1.8498 -5.81365,3.30321 -1.67363,1.40937 -3.083,3.17108 -4.18407,5.28513 -1.10107,2.07001 -1.80576,4.44833 -2.1581,7.13494 l 2.11406,0.35234 c 0.044,0 0.0881,0 0.22021,0 0.044,0 0.13213,0 0.22021,0.044 0.88086,0 1.45342,-0.52851 1.76172,-1.54149 0.3083,-1.76171 0.88085,-3.3913 1.71767,-4.88875 0.83681,-1.49746 1.89384,-2.7747 3.17108,-3.83173 1.27724,-1.05703 2.73065,-1.89384 4.40428,-2.51044 1.67362,-0.6166 3.47938,-0.88085 5.41726,-0.88085 1.8498,0 3.56747,0.26425 5.2411,0.79277 1.67362,0.52851 3.12704,1.32128 4.40428,2.42235 1.27724,1.05703 2.29022,2.4664 3.03895,4.14002 0.79277,1.67363 1.14511,3.6996 1.14511,5.98982 0,2.02597 -0.3083,3.91982 -0.92489,5.72557 -0.6166,1.76171 -1.49746,3.52343 -2.59853,5.24109 -1.10107,1.67363 -2.42236,3.3913 -3.91981,5.06493 -1.49745,1.67362 -3.12704,3.39129 -4.88875,5.19705 l -21.27268,21.53693 c -0.22021,0.22021 -0.39638,0.48447 -0.57255,0.83681 -0.17617,0.35234 -0.22022,0.66064 -0.22022,1.01299 l 0,1.45341 40.16704,0 0,-1.8498 0,-0.57256 0,-9.38111 c 0,0 -0.13213,0 -0.44043,0 -0.3083,0 -0.88085,0 -1.67362,0"
           style=""
           id="path6910" />
        <path
           d="m 889.44844,919.2616 c 0,-5.4613 -0.57256,-10.17389 -1.76172,-14.18178 -1.14511,-3.96385 -2.73065,-7.26707 -4.80066,-9.90963 -2.02597,-2.59852 -4.36024,-4.53641 -7.09089,-5.81365 -2.73065,-1.27724 -5.59344,-1.93788 -8.67644,-1.93788 -3.08299,0 -5.98982,0.66064 -8.67643,1.93788 -2.73065,1.27724 -5.06492,3.21513 -7.09089,5.85769 -2.02597,2.59852 -3.65555,5.90174 -4.80067,9.90963 -1.14511,3.96385 -1.71766,8.67644 -1.71766,14.13774 0,5.46131 0.57255,10.21794 1.71766,14.18179 1.14512,4.00789 2.7747,7.3111 4.80067,9.90963 2.02597,2.64256 4.36024,4.58045 7.09089,5.85769 2.68661,1.27724 5.59344,1.89384 8.67643,1.89384 3.083,0 5.94579,-0.6166 8.67644,-1.89384 2.73065,-1.27724 5.10896,-3.21513 7.13493,-5.85769 2.02597,-2.59853 3.61151,-5.90174 4.80067,-9.90963 1.14511,-3.96385 1.71767,-8.72048 1.71767,-14.18179 m -4.40428,0 c 0,5.10896 -0.48448,9.42517 -1.45342,12.99263 -0.96894,3.56746 -2.24618,6.47429 -3.87576,8.76452 -1.62959,2.29022 -3.52343,3.91981 -5.72557,4.97684 -2.20214,1.05702 -4.49237,1.58554 -6.91472,1.58554 -2.37831,0 -4.66854,-0.52852 -6.87068,-1.58554 -2.15809,-1.05703 -4.05194,-2.68662 -5.72556,-4.97684 -1.62958,-2.29023 -2.95087,-5.19706 -3.91981,-8.76452 -0.96894,-3.56746 -1.45341,-7.88367 -1.45341,-12.99263 0,-5.02087 0.48447,-9.33708 1.45341,-12.94858 0.96894,-3.56747 2.29023,-6.4743 3.91981,-8.76452 1.67362,-2.29022 3.56747,-3.91981 5.72556,-5.02088 2.20214,-1.05703 4.49237,-1.58554 6.87068,-1.58554 2.42235,0 4.71258,0.52851 6.91472,1.58554 2.20214,1.05703 4.09598,2.73066 5.72557,5.02088 1.62958,2.29022 2.90682,5.19705 3.87576,8.76452 0.96894,3.6115 1.45342,7.92771 1.45342,12.94858"
           style=""
           id="path6912" />
        <path
           d="m 931.16164,950.44391 0,-1.40937 c 0,-0.83681 -0.48447,-1.2332 -1.45341,-1.27724 -0.6166,-0.044 -4.66855,-0.26426 -12.19986,-0.6166 l 0,-59.28162 -3.25917,0 -17.96946,15.9435 1.27724,1.76171 c 0.26426,0.35234 0.6166,0.52851 1.14511,0.52851 0.39639,0 0.74873,-0.13212 1.05703,-0.39638 l 13.74136,-12.19986 c -0.0881,1.10107 -0.13213,2.1581 -0.17618,3.17108 l 0,50.47306 c 0,0 -1.01298,0.044 -3.03895,0.13213 -2.02597,0.0881 -4.09598,0.22021 -6.21003,0.3083 -2.1581,0.0881 -3.34726,0.13212 -3.61151,0.17617 -0.96895,0.044 -1.45342,0.44043 -1.45342,1.27724 l 0,1.40937 32.15125,0"
           style=""
           id="path6914" />
        <path
           d="m 972.98528,889.9291 0,-1.80576 -28.01122,0 -4.88875,27.61484 2.73065,0.83681 c 2.11405,-0.57255 4.14002,-0.96894 5.98982,-1.27724 1.89384,-0.26426 3.65555,-0.39638 5.32918,-0.39638 2.77469,0 5.19705,0.39638 7.22302,1.14511 2.02597,0.74873 3.74364,1.80575 5.06492,3.12704 1.32129,1.32128 2.33427,2.95087 2.99491,4.80066 0.66064,1.89384 0.96894,3.96386 0.96894,6.21004 0.044,2.73065 -0.39638,5.15301 -1.27724,7.3111 -0.88085,2.1581 -2.07001,3.96386 -3.61151,5.46131 -1.54149,1.45341 -3.34725,2.55449 -5.41726,3.34726 -2.11405,0.79276 -4.36024,1.18915 -6.73855,1.18915 -2.07001,0 -3.87577,-0.22021 -5.41727,-0.66064 -1.54149,-0.44043 -2.86278,-0.9249 -4.00789,-1.45341 -1.14511,-0.52852 -2.07001,-1.01299 -2.7747,-1.45342 -0.70468,-0.44042 -1.27724,-0.66064 -1.62958,-0.66064 -0.57256,0 -1.01299,0.22022 -1.27724,0.66064 l -1.2332,1.71767 c 0.88085,0.70469 1.89384,1.36533 3.03895,2.07001 1.14511,0.66065 2.37832,1.2332 3.78768,1.76172 1.36533,0.52851 2.81874,0.9249 4.36024,1.2332 1.58554,0.30829 3.21513,0.48447 4.9328,0.48447 2.95086,0 5.72556,-0.48448 8.32409,-1.45342 2.64256,-0.96894 4.93279,-2.37831 6.87067,-4.18406 1.93788,-1.8498 3.47939,-4.05194 4.6245,-6.65047 1.14511,-2.59852 1.71767,-5.54939 1.71767,-8.80856 0,-2.73065 -0.39639,-5.19705 -1.27724,-7.48727 -0.83682,-2.29023 -2.07002,-4.27216 -3.74364,-5.94578 -1.67363,-1.67363 -3.74364,-2.95087 -6.21004,-3.87577 -2.46639,-0.9249 -5.28514,-1.36533 -8.5443,-1.36533 -1.58554,0 -3.25917,0.0881 -5.02088,0.3083 -1.76171,0.22022 -3.65556,0.57256 -5.59344,1.10107 l 3.74364,-20.7882 22.54992,0 c 0.83681,0 1.45341,-0.22021 1.84979,-0.6166 0.39639,-0.39638 0.57256,-0.88086 0.57256,-1.49745"
           style=""
           id="path6916" />
        <path
           d="m 1053.0424,892.96805 c -3.7436,-3.21512 -9.249,-4.80067 -16.5601,-4.80067 l -15.1507,0 -7.3992,0 0,1.71767 c 0,1.01299 0.5726,1.49746 1.7177,1.58554 0.1321,0 0.3963,0 0.8368,0 0.4404,0.044 1.101,0.044 1.9819,0.0881 0.8368,0 1.8058,0.044 2.8628,0.0881 l 0,55.31777 c -1.057,0.044 -2.026,0.0881 -2.8628,0.0881 -0.8809,0.0441 -1.5415,0.0441 -1.9819,0.0881 -0.4405,0 -0.7047,0 -0.8368,0 -1.1451,0.0881 -1.7177,0.57256 -1.7177,1.58554 l 0,1.71767 7.3992,0 4.4924,0 7.3991,0 0,-1.71767 c 0,-1.01298 -0.5725,-1.49746 -1.7176,-1.58554 -0.1322,0 -0.4405,0 -0.8368,0 -0.4405,-0.044 -1.1011,-0.044 -1.982,-0.0881 -0.8368,0 -1.8057,-0.044 -2.8627,-0.0881 l 0,-21.62502 10.6583,0 c 3.4353,0 6.5183,-0.44043 9.249,-1.36533 2.7306,-0.92489 5.0649,-2.20214 6.9588,-3.87576 1.9378,-1.67363 3.3913,-3.65556 4.4042,-5.90174 1.013,-2.33427 1.4975,-4.80067 1.4975,-7.53132 0,-5.94577 -1.8498,-10.52623 -5.5494,-13.69731 m -0.1321,19.68713 c -0.8368,1.8498 -1.982,3.43534 -3.4794,4.75663 -1.5415,1.36532 -3.3473,2.42235 -5.5494,3.17108 -2.1581,0.79277 -4.6245,1.14511 -7.3992,1.14511 l -10.6583,0 0,-29.99315 10.6583,0 c 5.8577,0 10.262,1.27724 13.2129,3.83172 2.9508,2.59853 4.4042,6.29813 4.4042,11.05475 0,2.20214 -0.3964,4.18407 -1.1891,6.03386"
           style=""
           id="path6918" />
        <path
           d="m 1114.1018,947.1407 c -0.1322,0 -0.3083,0 -0.5726,0 -0.2643,0 -0.6606,-0.044 -1.1451,-0.044 -0.5285,0 -1.057,-0.0441 -1.5855,-0.0441 l -18.7182,-23.5629 c -0.5726,-0.70468 -1.1892,-1.32128 -1.8939,-1.76171 2.7307,-0.26426 5.153,-0.88086 7.3552,-1.8498 2.1581,-0.96894 4.0079,-2.1581 5.5494,-3.65555 1.5415,-1.49745 2.7306,-3.21513 3.5674,-5.19705 0.7928,-1.93788 1.2332,-4.14003 1.2332,-6.51834 0,-5.32917 -1.8057,-9.42516 -5.3292,-12.19985 -3.5674,-2.7747 -8.9406,-4.14003 -16.1196,-4.14003 l -15.1507,0 -7.3992,0 0,1.71767 c 0,1.01299 0.5725,1.49746 1.7176,1.58554 0.1322,0 0.3964,0 0.8368,0 0.4405,0 1.1011,0.044 1.982,0.0881 0.8368,0 1.8057,0.044 2.8628,0.0881 l 0,55.31777 c -1.0571,0.044 -2.026,0.0881 -2.8628,0.0881 -0.8809,0.0441 -1.5415,0.0441 -1.982,0.0881 -0.4404,0 -0.7046,0 -0.8368,0 -1.1451,0.0881 -1.7176,0.57256 -1.7176,1.58554 l 0,1.71767 7.3992,0 4.4923,0 7.3992,0 0,-1.71767 c 0,-1.01298 -0.5725,-1.49746 -1.7617,-1.58554 -0.088,0 -0.3964,0 -0.7928,0 -0.4404,-0.044 -1.101,-0.044 -1.9819,-0.0881 -0.8809,0 -1.8058,-0.044 -2.8628,-0.0881 l 0,-24.70802 7.3992,0 c 1.1892,0 2.07,0.13213 2.6426,0.39639 0.5725,0.26426 1.1011,0.74873 1.6296,1.36533 l 19.9514,25.28057 c 0.3083,0.44042 0.6166,0.70468 0.9689,0.88085 0.3523,0.17617 0.7487,0.26426 1.2332,0.26426 l 0.4404,0 3.4794,0 2.2902,0 0,-1.71767 c 0,-1.01298 -0.5725,-1.49746 -1.7176,-1.58554 m -28.2315,-28.23144 -10.0858,0 0,-27.17441 10.6584,0 c 5.5494,0 9.7775,1.05703 12.6843,3.21512 2.9068,2.11406 4.3602,5.41727 4.3602,9.86559 0,2.1581 -0.3963,4.09599 -1.1891,5.81365 -0.7928,1.76171 -1.9819,3.21513 -3.4794,4.44833 -1.4974,1.27724 -3.3472,2.20214 -5.5494,2.86278 -2.2021,0.66064 -4.6685,0.96894 -7.3992,0.96894"
           style=""
           id="path6920" />
        <path
           d="m 1181.8203,946.65623 -2.8627,-0.26426 -23.8272,-58.26863 -4.4924,0 -23.8271,58.26863 -2.8628,0.26426 c -1.1451,0.13213 -1.6736,0.74873 -1.6736,1.76171 l 0,2.02597 2.8627,0 1.8058,0 1.6296,0 0.6166,0 8.28,0 0,-2.02597 c 0,-1.10107 -0.7047,-1.71767 -2.0259,-1.76171 -0.1322,-0.0441 -0.3083,-0.0441 -0.5726,-0.0441 -0.2202,-0.044 -0.6606,-0.044 -1.2332,-0.0881 -0.5725,-0.044 -1.3213,-0.0881 -2.2462,-0.13213 l 6.166,-15.23881 0.4404,-1.10107 29.7289,0 0.4405,1.10107 6.166,15.23881 c -0.8809,0.044 -1.6296,0.0881 -2.2022,0.13213 -0.6166,0.044 -1.013,0.044 -1.2772,0.0881 -0.2202,0 -0.3964,0 -0.5285,0.0441 -1.3654,0.044 -2.026,0.66064 -2.026,1.76171 l 0,2.02597 8.28,0 0.5726,0 1.6736,0 1.8058,0 2.8628,0 0,-2.02597 c 0,-1.01298 -0.5726,-1.62958 -1.6737,-1.76171 m -30.1693,-50.29689 c 0.2202,-0.52851 0.3964,-1.10107 0.6166,-1.71766 0.2202,-0.6166 0.3964,-1.32129 0.6166,-2.02597 0.1762,0.70468 0.3964,1.36532 0.6166,2.02597 0.2202,0.61659 0.3964,1.18915 0.6166,1.67362 l 12.288,30.38954 -27.0423,0 12.2879,-30.3455"
           style=""
           id="path6922" />
        <path
           d="m 1221.5649,922.16843 0,2.4664 c 0,0.30829 0.1321,0.52851 0.3524,0.70468 0.2202,0.22021 0.4844,0.3083 0.7927,0.35234 l 11.9797,0 0,16.73627 c -1.3654,0.83681 -2.7307,1.5415 -4.096,2.1581 -1.3653,0.61659 -2.8188,1.14511 -4.3162,1.58554 -1.4975,0.48447 -3.1711,0.79277 -4.9328,1.01298 -1.7177,0.22021 -3.6996,0.3083 -5.8577,0.3083 -3.8317,0 -7.3551,-0.6166 -10.5262,-1.93788 -3.1711,-1.27724 -5.9018,-3.12704 -8.192,-5.5494 -2.2902,-2.42235 -4.0519,-5.37322 -5.3292,-8.89664 -1.2332,-3.47938 -1.8938,-7.3992 -1.8938,-11.80347 0,-4.31619 0.6606,-8.23601 1.8938,-11.67135 1.2332,-3.47938 3.039,-6.43025 5.3292,-8.80856 2.2902,-2.42235 5.0649,-4.27215 8.3241,-5.54939 3.3032,-1.32128 6.9588,-1.93789 10.9667,-1.93789 7.3991,0 13.2569,1.01299 17.573,3.03896 0.3083,5.68151 0.4405,8.8526 0.4845,9.4692 0.044,1.40937 0.7047,2.11406 1.8939,2.11406 l 2.1581,0 0,-14.04966 c -2.7747,-1.2332 -6.3422,-2.29023 -10.7024,-3.17108 -4.3603,-0.88086 -8.1039,-1.27724 -11.275,-1.27724 -4.7566,0 -9.0728,0.74873 -12.9486,2.24618 -3.8758,1.49745 -7.1349,3.65556 -9.8656,6.43025 -2.6866,2.77469 -4.7566,6.12195 -6.2541,10.04176 -1.4534,3.91981 -2.1581,8.28005 -2.1581,13.08071 0,4.84471 0.7047,9.20495 2.1581,13.12476 1.4975,3.96385 3.5675,7.31111 6.2101,10.0858 2.6425,2.77469 5.8577,4.9328 9.5573,6.43025 3.6996,1.49745 7.7955,2.24618 12.2879,2.24618 2.6426,0 5.0209,-0.13213 7.223,-0.44042 2.2462,-0.3083 4.2722,-0.74873 6.166,-1.32129 1.9379,-0.57255 3.7437,-1.27724 5.3732,-2.1581 1.6737,-0.83681 3.3033,-1.80575 4.8448,-2.90682 l 0,-22.15353 -17.2208,0"
           style=""
           id="path6924" />
        <path
           d="m 1301.0629,888.16738 -4.4924,0 -8.5443,0 0,1.71767 c 0,1.01299 0.6166,1.49746 1.7617,1.58554 0.1321,0 0.4845,0 1.1011,0 0.6166,0.044 1.4534,0.044 2.5104,0.0881 1.057,0 2.1141,0.044 3.1711,0.0881 l 0,35.05808 c 0,2.86278 -0.4404,5.59344 -1.3213,8.10387 -0.8368,2.51044 -2.1141,4.71258 -3.7436,6.56238 -1.6296,1.8498 -3.6556,3.25917 -6.0339,4.3162 -2.3343,1.05702 -5.0209,1.58554 -8.0158,1.58554 -2.9949,0 -5.6815,-0.52852 -8.0598,-1.58554 -2.3343,-1.05703 -4.3603,-2.51045 -5.9898,-4.36024 -1.6296,-1.89384 -2.8628,-4.05194 -3.7437,-6.56238 -0.8368,-2.51044 -1.2772,-5.19705 -1.2772,-8.10388 l 0,-35.01403 c 1.057,-0.044 2.114,-0.0881 3.1711,-0.0881 1.057,-0.044 1.8938,-0.044 2.5104,-0.0881 0.6166,0 0.9689,0 1.1011,0 1.1451,-0.0881 1.7617,-0.57255 1.7617,-1.58554 l 0,-1.71767 -8.5443,0 -4.5364,0 -7.3992,0 0,1.71767 c 0,1.01299 0.5725,1.49746 1.7176,1.58554 0.1322,0 0.3964,0 0.8369,0 0.4404,0.044 1.101,0.044 1.9819,0.0881 0.8368,0 1.8057,0.044 2.8628,0.0881 l 0,35.05808 c 0,3.43533 0.5285,6.60642 1.6295,9.60133 1.1011,2.99491 2.6426,5.59344 4.6686,7.79557 2.07,2.20214 4.5364,3.96386 7.4432,5.2411 2.9509,1.2332 6.2101,1.8498 9.8656,1.8498 3.6556,0 6.9147,-0.6166 9.8216,-1.8498 2.9508,-1.27724 5.4172,-3.03896 7.4432,-5.2411 2.07,-2.20213 3.6115,-4.80066 4.7126,-7.79557 1.101,-2.99491 1.6296,-6.166 1.6296,-9.60133 l 0,-35.05808 c 1.057,-0.044 2.0259,-0.0881 2.8627,-0.0881 0.8809,-0.044 1.5415,-0.044 1.982,-0.0881 0.3963,0 0.7046,0 0.8368,0 1.1451,-0.0881 1.7176,-0.57255 1.7176,-1.58554 l 0,-1.71767 -7.3991,0"
           style=""
           id="path6926" />
        <path
           d="m 1324.2626,888.16738 -7.3992,0 0,1.71767 c 0,1.01299 0.5725,1.49746 1.7176,1.58554 0.1322,0 0.3964,0 0.8368,0 0.4405,0 1.1011,0.044 1.982,0.0881 0.8368,0 1.8057,0.044 2.8628,0.0881 l 0,55.31777 c -1.0571,0.044 -2.026,0.0881 -2.8628,0.0881 -0.8809,0.0441 -1.5415,0.0441 -1.982,0.0881 -0.4404,0 -0.7046,0 -0.8368,0 -1.1451,0.0881 -1.7176,0.57256 -1.7176,1.58554 l 0,1.71767 7.3992,0 37.3483,0 0,-3.74364 0,-9.1609 -2.1581,0 c -1.1892,0 -1.8058,0.74873 -1.8939,2.15809 0,0.17618 0,0.52852 -0.044,1.14512 -0.044,0.57255 -0.088,1.49745 -0.1322,2.81874 -0.088,1.27724 -0.1321,2.29022 -0.1761,3.03895 l -28.4076,0 0,-25.98525 24.7961,0 0,-3.65556 -24.7961,0 0,-25.14844 28.4076,0 c 0.2202,3.83172 0.3083,6.21004 0.3523,7.00281 0.088,1.40937 0.7047,2.15809 1.8939,2.15809 l 2.1581,0 0,-9.1609 0,-3.74364 -37.3483,0"
           style=""
           id="path6928" />
      </g>
    </g>
  </g>
</svg>
