<?xml version="1.0" encoding="UTF-8" standalone="no"?>
<!-- Created with Inkscape (http://www.inkscape.org/) -->

<svg
   xmlns:dc="http://purl.org/dc/elements/1.1/"
   xmlns:cc="http://creativecommons.org/ns#"
   xmlns:rdf="http://www.w3.org/1999/02/22-rdf-syntax-ns#"
   xmlns:svg="http://www.w3.org/2000/svg"
   xmlns="http://www.w3.org/2000/svg"
   xmlns:xlink="http://www.w3.org/1999/xlink"
   xmlns:sodipodi="http://sodipodi.sourceforge.net/DTD/sodipodi-0.dtd"
   xmlns:inkscape="http://www.inkscape.org/namespaces/inkscape"
   width="1500"
   height="800"
   id="svg2"
   version="1.1"
   inkscape:version="0.48.5 r10040"
   sodipodi:docname="site-eu-logo-composition.svg">
  <defs
     id="defs4">
    <linearGradient
       id="linearGradient6333">
      <stop
         style="stop-color:#ad7878;stop-opacity:1;"
         offset="0"
         id="stop6335" />
      <stop
         style="stop-color:#b58579;stop-opacity:1;"
         offset="1"
         id="stop6337" />
    </linearGradient>
    <linearGradient
       id="linearGradient3779">
      <stop
         style="stop-color:#bab3c3;stop-opacity:1;"
         offset="0"
         id="stop3781" />
      <stop
         style="stop-color:#b0b2c7;stop-opacity:1;"
         offset="1"
         id="stop3783" />
    </linearGradient>
    <linearGradient
       inkscape:collect="always"
       xlink:href="#linearGradient3779"
       id="linearGradient3785"
       x1="895.00568"
       y1="332.82974"
       x2="903.14038"
       y2="461.40115"
       gradientUnits="userSpaceOnUse"
       gradientTransform="matrix(2.9429301,0,0,2.9429301,-1626.5172,-353.17852)" />
    <linearGradient
       inkscape:collect="always"
       xlink:href="#linearGradient6333"
       id="linearGradient6339"
       x1="-327.84"
       y1="643.52002"
       x2="-228.315"
       y2="643.52002"
       gradientUnits="userSpaceOnUse" />
    <linearGradient
       inkscape:collect="always"
       xlink:href="#linearGradient6333"
       id="linearGradient3825"
       x1="535.41339"
       y1="867.00262"
       x2="535.70172"
       y2="963.00262"
       gradientUnits="userSpaceOnUse" />
  </defs>
  <sodipodi:namedview
     id="base"
     pagecolor="#424670"
     bordercolor="#666666"
     borderopacity="1.0"
     inkscape:pageopacity="1"
     inkscape:pageshadow="2"
     inkscape:zoom="0.5"
     inkscape:cx="966.33692"
     inkscape:cy="266.77867"
     inkscape:document-units="px"
     inkscape:current-layer="layer1"
     showgrid="false"
     showguides="true"
     inkscape:guide-bbox="true"
     inkscape:window-width="1822"
     inkscape:window-height="983"
     inkscape:window-x="0"
     inkscape:window-y="26"
     inkscape:window-maximized="0">
    <sodipodi:guide
       orientation="1,0"
       position="725.28953,646.49763"
       id="guide2985" />
    <sodipodi:guide
       orientation="1,0"
       position="775.79715,623.26412"
       id="guide2987" />
    <sodipodi:guide
       orientation="0,1"
       position="606.0794,387.71712"
       id="guide3787" />
    <sodipodi:guide
       orientation="0,1"
       position="575.06204,209.67742"
       id="guide3789" />
  </sodipodi:namedview>
  <metadata
     id="metadata7">
    <rdf:RDF>
      <cc:Work
         rdf:about="">
        <dc:format>image/svg+xml</dc:format>
        <dc:type
           rdf:resource="http://purl.org/dc/dcmitype/StillImage" />
        <dc:title></dc:title>
      </cc:Work>
    </rdf:RDF>
  </metadata>
  <g
     inkscape:label="Layer 1"
     inkscape:groupmode="layer"
     id="layer1"
     transform="translate(0,-252.36218)">
    <g
       style="font-size:200px;font-style:normal;font-variant:normal;font-weight:normal;font-stretch:normal;text-align:end;line-height:87.00000048%;letter-spacing:0px;word-spacing:0px;text-anchor:end;fill:#f2f0eb;fill-opacity:1;stroke:none;font-family:Bree Serif;-inkscape-font-specification:Bree Serif"
       id="text2989">
      <path
         d="m 326.07983,334.60265 -6.6,0.6 c -3.46683,0.26678 -5.66683,2.66678 -6.6,7.2 l -25.2,109 -27.4,0 -21,-89 -0.6,0 -20.4,89 -28.2,0 -27.6,-115.4 -11.4,-0.6 0,-17 49.6,0 0,16.2 -6.6,0.6 c -4.13337,0.40011 -6.20003,2.13345 -6.2,5.2 -3e-5,0.53344 0.0666,1.13344 0.2,1.8 l 17.4,77.2 0.8,0 20.8,-90.4 25.8,0 21.6,90.8 0.4,0 17,-83.6 -10.8,-0.8 0,-17 45,0 0,16.2"
         style="fill:#f2f0eb;-inkscape-font-specification:Bree Serif"
         id="path3013" />
      <path
         d="m 333.82358,451.40265 0,-16.2 6.6,-0.6 c 3.86665,-0.39998 5.79999,-2.26665 5.8,-5.6 l 0,-93 -11.4,-0.6 0,-17 54.6,0 c 15.46659,1.3e-4 27.33325,2.8668 35.6,8.6 8.26656,5.73345 12.39989,15.13344 12.4,28.2 -1.1e-4,9.06675 -2.4001,16.53341 -7.2,22.4 -4.66676,5.86673 -10.26676,10.1334 -16.8,12.8 4.79991,1.73339 8.59991,5.80005 11.4,12.2 l 14.4,31.4 11.4,0.4 0,17 -49.4,0 0,-16.2 5.8,-0.6 c 3.06659,-0.39998 4.59992,-1.59998 4.6,-3.6 -8e-5,-0.79998 -0.26675,-1.73331 -0.8,-2.8 l -9.4,-20 c -1.46674,-3.33329 -3.1334,-5.66662 -5,-7 -1.7334,-1.46662 -4.26673,-2.19995 -7.6,-2.2 l -18.2,0 0,34.8 13,0.6 0,17 -49.8,0 m 36.8,-71.4 17.4,0 c 16.39993,7e-5 24.59992,-7.33326 24.6,-22 -8e-5,-8.3999 -2.20008,-13.86656 -6.6,-16.4 -4.26674,-2.53322 -11.20006,-3.79989 -20.8,-3.8 l -14.6,0 0,42.2"
         style="fill:#f2f0eb;-inkscape-font-specification:Bree Serif"
         id="path3015" />
      <path
         d="m 471.22358,428.00265 0,-92 -11.4,-0.6 0,-17 48.4,0 0,16.2 -6.6,0.6 c -3.86671,0.40011 -5.80004,2.53345 -5.8,6.4 l 0,92.2 11.4,0.6 0,17 -48.4,0 0,-16.2 6.6,-0.6 c 1.99999,-0.26665 3.46665,-0.79998 4.4,-1.6 0.93332,-0.93332 1.39999,-2.59998 1.4,-5"
         style="fill:#f2f0eb;-inkscape-font-specification:Bree Serif"
         id="path3017" />
      <path
         d="m 556.96108,429.00265 0,-90.8 -15.6,0 c -3.06669,1.1e-4 -4.60002,2.06678 -4.6,6.2 l 0,9.4 -20.4,-1.4 0,-34 104.6,0 0,34 -20.4,1.4 0,-9.4 c -8e-5,-2.26656 -0.33342,-3.86656 -1,-4.8 -0.66675,-0.93322 -2.26675,-1.39989 -4.8,-1.4 l -13.6,0 0,95.6 15.8,0.6 0,17 -56.4,0 0,-16.2 10.6,-0.6 c 3.86663,-0.39998 5.79996,-2.26665 5.8,-5.6"
         style="fill:#f2f0eb;-inkscape-font-specification:Bree Serif"
         id="path3019" />
      <path
         d="m 726.09858,451.40265 -95,0 0,-16.2 6.6,-0.6 c 3.86665,-0.39998 5.79998,-2.26665 5.8,-5.6 l 0,-93 -11.4,-0.6 0,-17 91.6,0 0,33.2 -20.4,1.4 0,-8 c -8e-5,-2.26656 -0.33341,-3.86656 -1,-4.8 -0.66674,-0.93322 -2.26674,-1.39989 -4.8,-1.4 l -29.6,0 0,34.2 46.2,0 0,20.4 -46.2,0 0,37.4 32.2,0 c 2.39993,2e-5 3.93326,-0.46665 4.6,-1.4 0.66659,-1.06664 0.99992,-2.73331 1,-5 l 0,-10 20.4,1.4 0,35.6"
         style="fill:#f2f0eb;-inkscape-font-specification:Bree Serif"
         id="path3021" />
      <path
         d="m 415.78374,603.00265 0,-90.8 -15.6,0 c -3.0667,1.1e-4 -4.60003,2.06678 -4.6,6.2 l 0,9.4 -20.4,-1.4 0,-34 104.6,0 0,34 -20.4,1.4 0,-9.4 c -9e-5,-2.26656 -0.33342,-3.86656 -1,-4.8 -0.66676,-0.93322 -2.26675,-1.39989 -4.8,-1.4 l -13.6,0 0,95.6 15.8,0.6 0,17 -56.4,0 0,-16.2 10.6,-0.6 c 3.86662,-0.39998 5.79995,-2.26665 5.8,-5.6"
         style="fill:#f2f0eb;-inkscape-font-specification:Bree Serif"
         id="path3023" />
      <path
         d="m 582.92124,602.00265 0,-34.6 -56.6,0 0,40.4 11.6,0.6 0,17 -48.4,0 0,-16.2 6.6,-0.6 c 3.86665,-0.39998 5.79998,-2.26665 5.8,-5.6 l 0,-93 -11.4,-0.6 0,-17 48.4,0 0,16.2 -6.6,0.6 c -2.13338,0.26678 -3.66672,0.86678 -4.6,1.8 -0.93338,0.80011 -1.40005,2.40011 -1.4,4.8 l 0,31 56.6,0 0,-36.8 -11.4,-0.6 0,-17 48.4,0 0,16.2 -6.6,0.6 c -3.8668,0.40012 -5.80013,2.53345 -5.8,6.4 l 0,92.2 11.4,0.6 0,17 -48.4,0 0,-16.2 6.6,-0.6 c 1.9999,-0.26665 3.46657,-0.79998 4.4,-1.6 0.93323,-0.93331 1.3999,-2.59998 1.4,-5"
         style="fill:#f2f0eb;-inkscape-font-specification:Bree Serif"
         id="path3025" />
      <path
         d="m 726.09859,625.40265 -95,0 0,-16.2 6.6,-0.6 c 3.86665,-0.39998 5.79998,-2.26665 5.8,-5.6 l 0,-93 -11.4,-0.6 0,-17 91.6,0 0,33.2 -20.4,1.4 0,-8 c -8e-5,-2.26656 -0.33341,-3.86656 -1,-4.8 -0.66674,-0.93322 -2.26674,-1.39989 -4.8,-1.4 l -29.6,0 0,34.2 46.2,0 0,20.4 -46.2,0 0,37.4 32.2,0 c 2.39992,2e-5 3.93325,-0.46665 4.6,-1.4 0.66659,-1.06664 0.99992,-2.73331 1,-5 l 0,-10 20.4,1.4 0,35.6"
         style="fill:#f2f0eb;-inkscape-font-specification:Bree Serif"
         id="path3027" />
      <path
         d="m 267.80243,799.40265 0,-16.2 6.6,-0.6 c 3.86665,-0.39998 5.79998,-2.26665 5.8,-5.6 l 0,-93 -11.4,-0.6 0,-17 54.8,0 c 19.59991,1.3e-4 34.86657,5.20013 45.8,15.6 11.06654,10.40011 16.59987,25.80009 16.6,46.2 -1.3e-4,12.66673 -1.66679,23.73338 -5,33.2 -3.33345,9.33336 -7.86678,16.66669 -13.6,22 -11.46677,10.66667 -25.73342,16 -42.8,16 l -56.8,0 m 36.8,-113.6 0,94.4 20.4,0 c 11.46659,2e-5 20.39991,-4.13331 26.8,-12.4 6.3999,-8.26663 9.5999,-20.26661 9.6,-36 -10e-5,-30.66657 -13.00009,-45.99989 -39,-46 l -17.8,0"
         style="fill:#f2f0eb;-inkscape-font-specification:Bree Serif"
         id="path3029" />
      <path
         d="m 457.76416,664.00265 c 15.86658,1.4e-4 29.13324,5.60013 39.8,16.8 10.66655,11.20011 15.99988,28.33342 16,51.4 -1.2e-4,22.93338 -5.33345,40.33336 -16,52.2 -10.53343,11.73334 -24.86675,17.6 -43,17.6 -18.00005,0 -32.13337,-5.86666 -42.4,-17.6 -10.26668,-11.73331 -15.40001,-28.79996 -15.4,-51.2 -1e-5,-12.26659 1.79999,-22.99991 5.4,-32.2 3.59998,-9.33322 8.33331,-16.53322 14.2,-21.6 11.86663,-10.26654 25.66661,-15.39986 41.4,-15.4 m -36,68.2 c -3e-5,33.0667 11.46662,49.60002 34.4,49.6 12.26659,2e-5 20.86658,-5.06664 25.8,-15.2 4.53324,-8.93329 6.7999,-19.86661 6.8,-32.8 -1e-4,-11.59992 -2.0001,-22.26658 -6,-32 -2.26676,-5.33323 -5.73342,-9.53323 -10.4,-12.6 -4.53341,-3.06655 -10.46674,-4.59988 -17.8,-4.6 -7.33339,1.2e-4 -13.66672,2.40011 -19,7.2 -5.20004,4.8001 -8.80004,10.6001 -10.8,17.4 -2.00003,6.80008 -3.00003,14.46674 -3,23"
         style="fill:#f2f0eb;-inkscape-font-specification:Bree Serif"
         id="path3031" />
      <path
         d="m 603.33527,687.60265 c -1.46675,-2.53322 -6.93341,-3.79988 -16.4,-3.8 -12.40006,1.2e-4 -21.80005,4.20011 -28.2,12.6 -6.40004,8.4001 -9.60003,20.53342 -9.6,36.4 -3e-5,32.93337 12.33329,49.40002 37,49.4 0.39993,2e-5 2.13326,2e-5 5.2,0 3.19992,2e-5 6.19992,-0.39998 9,-1.2 2.79991,-0.93331 4.46658,-1.86665 5,-2.8 0.53324,-0.93331 0.79991,-2.39998 0.8,-4.4 l 0,-16 20.4,1.4 0,34.6 c -10.4001,5.46667 -23.60009,8.2 -39.6,8.2 -20.40005,0 -36.00004,-5.73333 -46.8,-17.2 -10.66668,-11.46664 -16.00001,-28.53329 -16,-51.2 -10e-6,-12.53325 1.79999,-23.46658 5.4,-32.8 3.59998,-9.33322 8.46664,-16.59988 14.6,-21.8 11.99996,-9.99987 26.26661,-14.99986 42.8,-15 13.33325,1.4e-4 25.86657,2.73347 37.6,8.2 l 0,34 -20.4,1.4 0,-15.6 c -9e-5,-1.99989 -0.26676,-3.46655 -0.8,-4.4"
         style="fill:#f2f0eb;-inkscape-font-specification:Bree Serif"
         id="path3033" />
      <path
         d="m 677.57669,781.40265 c 15.99994,2e-5 23.99993,-6.39997 24,-19.2 -7e-5,-6.66662 -3.5334,-11.59995 -10.6,-14.8 -3.73339,-1.86661 -8.60005,-3.59994 -14.6,-5.2 -5.8667,-1.59994 -10.80003,-3.19994 -14.8,-4.8 -3.86669,-1.73327 -7.80002,-4.0666 -11.8,-7 -7.86668,-5.86659 -11.8,-14.86658 -11.8,-27 0,-12.26656 4.19999,-21.86655 12.6,-28.8 8.53331,-7.06653 19.59996,-10.59986 33.2,-10.6 13.73327,1.4e-4 26.46659,2.73347 38.2,8.2 l 0,30 -20.4,1.4 0,-11.6 c -7e-5,-1.99989 -0.26673,-3.46655 -0.8,-4.4 -1.46673,-2.53322 -6.20006,-3.79988 -14.2,-3.8 -7.86671,1.2e-4 -13.73337,1.40012 -17.6,4.2 -3.73337,2.80011 -5.60003,7.13344 -5.6,13 -3e-5,4.26676 1.59997,8.00009 4.8,11.2 2.1333,2.13342 5.26663,3.93342 9.4,5.4 4.26662,1.33341 8.73328,2.73341 13.4,4.2 4.79994,1.46674 8.99993,3.06674 12.6,4.8 3.73326,1.73341 7.59992,4.1334 11.6,7.2 8.13324,6.00006 12.19991,15.26672 12.2,27.8 -9e-5,12.53336 -4.53342,22.40002 -13.6,29.6 -8.93341,7.2 -20.80006,10.8 -35.6,10.8 -14.6667,0 -27.86668,-2.73333 -39.6,-8.2 l 0,-31.6 20.4,-1.4 0,12.2 c -3e-5,2.00003 0.26664,3.46669 0.8,4.4 0.53331,0.93336 2.1333,1.86669 4.8,2.8 2.79997,0.80002 7.13329,1.20002 13,1.2"
         style="fill:#f2f0eb;-inkscape-font-specification:Bree Serif"
         id="path3035" />
      <g
         id="g3813"
         style="fill-opacity:1;fill:url(#linearGradient3825)">
        <path
           id="path3037"
           style="fill:url(#linearGradient3825);-inkscape-font-specification:Bree Serif;fill-opacity:1.0"
           d="m 355.41339,973.40265 0,-15.4 39.8,-50.2 c 4.13327,-5.33326 6.8666,-8.86659 8.2,-10.6 1.33327,-1.86659 2.59993,-4.39992 3.8,-7.6 1.33327,-3.33324 1.99993,-7.26657 2,-11.8 -7e-5,-4.66656 -1.60007,-8.46656 -4.8,-11.4 -3.06673,-2.93322 -7.06672,-4.39989 -12,-4.4 -4.80005,1.1e-4 -8.46671,0.40011 -11,1.2 -2.40004,0.80011 -3.8667,1.73344 -4.4,2.8 -0.40004,0.93344 -0.60004,2.46677 -0.6,4.6 l 0,14.2 -20.4,-1.4 0,-32 c 12.53331,-6.26654 25.39996,-9.39987 38.6,-9.4 13.19993,1.3e-4 23.13326,3.2668 29.8,9.8 6.66658,6.40012 9.99991,15.20011 10,26.4 -9e-5,11.20009 -5.66676,23.66674 -17,37.4 l -32.2,38 50,0 0,19.8 -79.8,0" />
        <path
           id="path3039"
           style="fill:url(#linearGradient3825);-inkscape-font-specification:Bree Serif;fill-opacity:1.0"
           d="m 494.29622,842.00265 c 30.26659,1.3e-4 45.3999,21.93344 45.4,65.8 -1e-4,23.33338 -3.93343,40.46669 -11.8,51.4 -7.86674,10.80001 -19.5334,16.2 -35,16.2 -15.4667,0 -27.00002,-5.33333 -34.6,-16 -7.60001,-10.79997 -11.4,-27.53329 -11.4,-50.2 0,-22.66658 4.19999,-39.53323 12.6,-50.6 8.39998,-11.06654 19.99996,-16.59987 34.8,-16.6 m -17.6,104 c 3.86663,6.80002 9.39996,10.20002 16.6,10.2 7.19994,2e-5 12.73327,-3.53331 16.6,-10.6 3.99993,-7.06663 5.99993,-19.33328 6,-36.8 -7e-5,-17.59992 -1.9334,-29.86657 -5.8,-36.8 -3.7334,-6.93322 -9.26672,-10.39989 -16.6,-10.4 -7.33338,1.1e-4 -12.93337,3.73344 -16.8,11.2 -3.73336,7.33343 -5.60003,19.66675 -5.6,37 -3e-5,17.20005 1.86664,29.2667 5.6,36.2" />
        <path
           id="path3041"
           style="fill:url(#linearGradient3825);-inkscape-font-specification:Bree Serif;fill-opacity:1.0"
           d="m 582.87671,949.20265 0,-78.6 -23.4,12 -8.8,-15.4 36.4,-22.6 19.6,0 0,110.8 20.8,1 0,17 -69.6,0 0,-16.4 19.2,-1.2 c 1.99996,-0.13331 3.46663,-0.66665 4.4,-1.6 0.93329,-0.93331 1.39996,-2.59998 1.4,-5" />
        <path
           id="path3043"
           style="fill:url(#linearGradient3825);-inkscape-font-specification:Bree Serif;fill-opacity:1.0"
           d="m 720.90172,863.60265 -45.8,0 -4,30.6 c 14.93328,1.06675 27.0666,5.00008 36.4,11.8 9.46659,6.66673 14.19991,16.60005 14.2,29.8 -9e-5,10.80003 -3.60008,20.13335 -10.8,28 -7.20007,7.86667 -18.40006,11.8 -33.6,11.8 -7.4667,0 -14.80003,-1 -22,-3 -7.06668,-2 -12.73334,-4.33333 -17,-7 l 8,-18.4 c 10.39998,5.73336 20.39997,8.60002 30,8.6 13.59995,2e-5 20.39994,-6.53331 20.4,-19.6 -6e-5,-16.26661 -15.93338,-24.39994 -47.8,-24.4 l 8.6,-67.2 39.8,0 c 3.0666,1.3e-4 4.59993,-1.86653 4.6,-5.6 l 0,-8.6 19,1.4 0,31.8" />
      </g>
    </g>
    <g
       style="font-size:94.17376709px;font-style:normal;font-variant:normal;font-weight:normal;font-stretch:normal;line-height:116.99999571%;letter-spacing:0px;word-spacing:0px;fill:url(#linearGradient3785);fill-opacity:1;stroke:none;font-family:Aleo;-inkscape-font-specification:Aleo"
       id="text3771">
      <path
         d="m 841.26623,727.45199 -3.06065,-0.28252 -25.47401,-62.29595 -4.80286,0 -25.474,62.29595 -3.06065,0.28252 c -1.22426,0.14126 -1.7893,0.80048 -1.7893,1.88348 l 0,2.16599 3.06065,0 1.93056,0 1.74221,0 0.65922,0 8.85233,0 0,-2.16599 c 0,-1.17717 -0.75339,-1.83639 -2.16599,-1.88348 -0.14126,-0.0471 -0.32961,-0.0471 -0.61213,-0.0471 -0.23544,-0.0471 -0.70631,-0.0471 -1.31844,-0.0942 -0.61212,-0.0471 -1.4126,-0.0942 -2.40143,-0.14126 l 6.59217,-16.29206 0.47087,-1.17717 31.78364,0 0.47087,1.17717 6.59216,16.29206 c -0.94173,0.0471 -1.74221,0.0942 -2.35434,0.14126 -0.65922,0.0471 -1.083,0.0471 -1.36552,0.0942 -0.23543,0 -0.42378,0 -0.56504,0.0471 -1.45969,0.0471 -2.166,0.70631 -2.166,1.88348 l 0,2.16599 8.85234,0 0.61213,0 1.7893,0 1.93056,0 3.06065,0 0,-2.16599 c 0,-1.083 -0.61213,-1.74222 -1.7893,-1.88348 m -32.25452,-53.77322 c 0.23543,-0.56504 0.42378,-1.17717 0.65922,-1.83639 0.23543,-0.65921 0.42378,-1.4126 0.65921,-2.16599 0.18835,0.75339 0.42378,1.45969 0.65922,2.16599 0.23543,0.65922 0.42378,1.27135 0.65922,1.7893 l 13.13724,32.48995 -28.91135,0 13.13724,-32.44286"
         style="line-height:116.99999571%;font-family:Aleo;-inkscape-font-specification:Aleo Light"
         id="path3828" />
      <path
         d="m 899.79496,664.92061 -4.80286,0 -9.13485,0 0,1.83639 c 0,1.083 0.65921,1.60095 1.88347,1.69513 0.14126,0 0.51796,0 1.17717,0 0.65922,0.0471 1.55387,0.0471 2.68396,0.0942 1.13008,0 2.26017,0.0471 3.39025,0.0942 l 0,37.48115 c 0,3.06065 -0.47087,5.98004 -1.4126,8.66399 -0.89465,2.68395 -2.26018,5.0383 -4.00239,7.01595 -1.74221,1.97764 -3.90821,3.48443 -6.4509,4.61451 -2.4956,1.13009 -5.36791,1.69513 -8.56982,1.69513 -3.2019,0 -6.07421,-0.56504 -8.61689,-1.69513 -2.49561,-1.13008 -4.66161,-2.68395 -6.40382,-4.6616 -1.74221,-2.02473 -3.06065,-4.332 -4.00239,-7.01595 -0.89465,-2.68395 -1.36552,-5.55625 -1.36552,-8.66398 l 0,-37.43407 c 1.13009,-0.0471 2.26018,-0.0942 3.39026,-0.0942 1.13008,-0.0471 2.02474,-0.0471 2.68395,-0.0942 0.65922,0 1.03591,0 1.17717,0 1.22426,-0.0942 1.88348,-0.61213 1.88348,-1.69513 l 0,-1.83639 -9.13486,0 -4.84994,0 -7.9106,0 0,1.83639 c 0,1.083 0.61213,1.60095 1.83639,1.69513 0.14126,0 0.42378,0 0.89465,0 0.47087,0.0471 1.17717,0.0471 2.11891,0.0942 0.89465,0 1.93056,0.0471 3.06065,0.0942 l 0,37.48115 c 0,3.67278 0.56504,7.06304 1.74221,10.26495 1.17717,3.2019 2.82522,5.98003 4.99121,8.33437 2.21308,2.35435 4.84995,4.23782 7.95768,5.60334 3.15482,1.31843 6.63926,1.97765 10.54746,1.97765 3.90821,0 7.39265,-0.65922 10.50038,-1.97765 3.15482,-1.36552 5.79169,-3.24899 7.95768,-5.60334 2.21308,-2.35434 3.86113,-5.13247 5.0383,-8.33437 1.17717,-3.20191 1.74221,-6.59217 1.74221,-10.26495 l 0,-37.48115 c 1.13009,-0.0471 2.166,-0.0942 3.06065,-0.0942 0.94174,-0.0471 1.64804,-0.0471 2.11891,-0.0942 0.42378,0 0.75339,0 0.89465,0 1.22426,-0.0942 1.83639,-0.61213 1.83639,-1.69513 l 0,-1.83639 -7.9106,0"
         style="line-height:116.99999571%;font-family:Aleo;-inkscape-font-specification:Aleo Light"
         id="path3830" />
      <path
         d="m 952.62202,701.27169 0,2.63686 c 0,0.32961 0.14126,0.56504 0.3767,0.75339 0.23543,0.23544 0.51795,0.32961 0.84756,0.3767 l 12.80763,0 0,17.89301 c -1.45969,0.89465 -2.91939,1.64804 -4.37908,2.30726 -1.45969,0.65922 -3.01356,1.22426 -4.61451,1.69513 -1.60095,0.51795 -3.39026,0.84756 -5.27373,1.083 -1.83639,0.23543 -3.9553,0.3296 -6.26256,0.3296 -4.09655,0 -7.86351,-0.65921 -11.25376,-2.07182 -3.39026,-1.36552 -6.30965,-3.34317 -8.75816,-5.93295 -2.44852,-2.58977 -4.332,-5.7446 -5.69752,-9.51155 -1.31843,-3.71986 -2.02473,-7.9106 -2.02473,-12.61928 0,-4.61451 0.7063,-8.80525 2.02473,-12.47803 1.31844,-3.71986 3.249,-6.87468 5.69752,-9.41737 2.44851,-2.58978 5.41499,-4.56743 8.89942,-5.93295 3.53151,-1.41261 7.43973,-2.07182 11.72463,-2.07182 7.91059,0 14.17316,1.083 18.78767,3.24899 0.32961,6.0742 0.47087,9.46447 0.51795,10.12368 0.0471,1.50678 0.7534,2.26017 2.02474,2.26017 l 2.30726,0 0,-15.02071 c -2.96647,-1.31843 -6.78052,-2.44852 -11.44212,-3.39026 -4.66159,-0.94174 -8.66399,-1.36552 -12.05424,-1.36552 -5.08538,0 -9.6999,0.80048 -13.84354,2.40143 -4.14364,1.60095 -7.62808,3.90822 -10.54746,6.87469 -2.8723,2.96647 -5.08539,6.54508 -6.68634,10.73581 -1.55387,4.19073 -2.30726,8.85234 -2.30726,13.9848 0,5.17955 0.75339,9.84116 2.30726,14.03189 1.60095,4.23782 3.81404,7.81643 6.63925,10.7829 2.82521,2.96647 6.26256,5.27373 10.21785,6.87468 3.9553,1.60096 8.33439,2.40143 13.13724,2.40143 2.82521,0 5.36791,-0.14126 7.72225,-0.47086 2.40143,-0.32961 4.56743,-0.80048 6.59217,-1.41261 2.07182,-0.61213 4.00238,-1.36552 5.7446,-2.30726 1.7893,-0.89465 3.53151,-1.93056 5.17955,-3.10773 l 0,-23.6847 -18.41097,0"
         style="line-height:116.99999571%;font-family:Aleo;-inkscape-font-specification:Aleo Light"
         id="path3832" />
      <path
         d="m 1024.4251,664.12013 c -2.731,0 -5.2737,0.42379 -7.6281,1.22426 -2.3543,0.80048 -4.4261,1.97765 -6.2154,3.48443 -1.7893,1.55387 -3.2961,3.43735 -4.4262,5.65043 -1.1772,2.26017 -1.9776,4.80286 -2.3543,7.62807 l 2.3072,0.3767 c 0.094,0.0471 0.2825,0.0471 0.518,0.0471 0.8946,0 1.4597,-0.51796 1.7422,-1.64804 0.4238,-1.93057 1.083,-3.67278 1.9776,-5.27374 0.9418,-1.60095 2.0719,-2.91938 3.3903,-4.04947 1.3655,-1.13008 2.9194,-2.02473 4.6616,-2.63686 1.7893,-0.65922 3.7199,-0.94174 5.7917,-0.94174 1.9305,-0.0471 3.7669,0.23543 5.5091,0.80048 1.7893,0.51795 3.2961,1.31843 4.6146,2.4956 1.3184,1.13008 2.4014,2.54269 3.1548,4.28491 0.8005,1.69512 1.1772,3.76695 1.1772,6.12129 0,2.02474 -0.3767,3.90822 -1.1301,5.60334 -0.7534,1.69513 -1.8364,3.15482 -3.3432,4.37908 -1.4597,1.22426 -3.2961,2.166 -5.5092,2.8723 -2.166,0.7063 -4.7087,1.083 -7.628,1.17717 l 0,3.249 c 3.6256,-0.0471 6.6863,0.32961 9.1348,1.083 2.4485,0.75339 4.4262,1.74221 5.98,3.01356 1.5068,1.27134 2.5427,2.77813 3.202,4.56742 0.6592,1.74222 0.9888,3.6257 0.9888,5.69752 0,1.69512 -0.3767,3.43734 -1.083,5.22664 -0.7063,1.7893 -1.7893,3.43735 -3.2019,4.89704 -1.4126,1.45969 -3.2019,2.68395 -5.3208,3.62569 -2.119,0.94173 -4.5675,1.4126 -7.3927,1.4126 -2.0718,0 -3.9082,-0.23543 -5.5092,-0.65921 -1.6009,-0.47087 -2.9664,-1.03591 -4.1436,-1.74222 -1.1772,-0.7063 -2.166,-1.50678 -2.9665,-2.40143 -0.8475,-0.89465 -1.5068,-1.7893 -2.0718,-2.68395 -0.565,-0.89465 -0.9888,-1.74222 -1.3184,-2.58978 -0.3767,-0.84756 -0.6122,-1.50678 -0.8005,-2.07182 l -0.3296,-0.94174 c -0.1884,-0.47087 -0.4238,-0.75339 -0.7063,-0.89465 -0.3296,-0.18835 -0.6592,-0.23543 -0.9888,-0.23543 -0.3767,0 -0.7063,0.0471 -1.083,0.23543 l -1.7893,0.75339 c 0.565,1.97765 1.2713,4.00239 2.213,6.02712 0.8947,2.02474 2.166,3.86113 3.8141,5.50917 1.6009,1.60095 3.6728,2.91938 6.2155,3.95529 2.5426,1.03592 5.6975,1.55387 9.5115,1.55387 3.0136,0 5.8388,-0.51795 8.4756,-1.45969 2.5898,-0.94174 4.85,-2.26017 6.7806,-3.9553 1.8834,-1.69513 3.3902,-3.71987 4.5203,-6.07421 1.083,-2.35434 1.648,-4.84995 1.648,-7.58099 0,-4.33198 -1.2713,-7.9106 -3.7669,-10.78289 -2.5427,-2.8723 -6.2155,-4.75578 -11.1125,-5.65043 1.8835,-0.47087 3.6257,-1.17717 5.2266,-2.07182 1.601,-0.89465 2.9665,-1.97765 4.1437,-3.29608 1.1771,-1.31843 2.1189,-2.8723 2.7781,-4.61452 0.6592,-1.74221 0.9888,-3.67278 1.0359,-5.83877 0,-2.77812 -0.518,-5.22665 -1.5068,-7.29847 -0.9888,-2.11891 -2.3543,-3.86112 -4.0494,-5.27373 -1.6952,-1.4126 -3.6728,-2.4956 -5.933,-3.20191 -2.2602,-0.7063 -4.6616,-1.083 -7.2043,-1.083"
         style="line-height:116.99999571%;font-family:Aleo;-inkscape-font-specification:Aleo Light"
         id="path3834" />
      <path
         d="m 1089.5007,731.50146 0,-1.50678 c 0,-0.89465 -0.518,-1.31843 -1.5539,-1.36552 -0.6592,-0.0471 -4.9912,-0.28252 -13.0431,-0.65921 l 0,-63.37895 -3.4844,0 -19.2115,17.04546 1.3656,1.88347 c 0.2825,0.3767 0.6592,0.56504 1.2242,0.56504 0.4238,0 0.8005,-0.14126 1.1301,-0.42378 l 14.6911,-13.04307 c -0.094,1.17718 -0.1412,2.30726 -0.1883,3.39026 l 0,53.96157 c 0,0 -1.083,0.0471 -3.249,0.14126 -2.166,0.0942 -4.3791,0.23543 -6.6393,0.32961 -2.3072,0.0942 -3.5786,0.14126 -3.8611,0.18834 -1.0359,0.0471 -1.5539,0.47087 -1.5539,1.36552 l 0,1.50678 34.3735,0"
         style="line-height:116.99999571%;font-family:Aleo;-inkscape-font-specification:Aleo Light"
         id="path3836" />
      <path
         d="m 1109.8245,701.64838 0,3.81404 21.8954,0 0,-3.81404 -21.8954,0"
         style="line-height:116.99999571%;font-family:Aleo;-inkscape-font-specification:Aleo Light"
         id="path3838" />
      <path
         d="m 1194.6437,705.22698 c -0.9417,-1.83638 -2.2131,-3.39025 -3.814,-4.6616 -1.5539,-1.22426 -3.3432,-2.26017 -5.3209,-3.10773 -2.0247,-0.84757 -4.0494,-1.60096 -6.1683,-2.30726 -2.1189,-0.65921 -4.1908,-1.36552 -6.1684,-2.07182 -1.9777,-0.7063 -3.767,-1.60096 -5.3208,-2.63687 -1.601,-1.03591 -2.8723,-2.26017 -3.8141,-3.76695 -0.9417,-1.45969 -1.4597,-3.29608 -1.4597,-5.60334 0,-1.69512 0.3296,-3.34317 0.9889,-4.94412 0.6592,-1.55387 1.6009,-2.91939 2.8252,-4.14365 1.2713,-1.17717 2.7781,-2.11891 4.6616,-2.82521 1.8364,-0.65921 3.9553,-1.03591 6.3567,-1.03591 4.5203,0 8.664,0.80048 12.4309,2.40143 0.2826,5.41499 0.4238,8.38147 0.4709,8.85233 0.047,1.55387 0.7534,2.30726 2.0247,2.30726 l 2.2602,0 0,-13.65519 c -5.9329,-2.58978 -11.6775,-3.86113 -17.1867,-3.86113 -3.0606,0 -5.8388,0.47087 -8.2402,1.41261 -2.4014,0.94173 -4.4262,2.21308 -6.0271,3.81404 -1.6481,1.60095 -2.8723,3.43734 -3.767,5.50916 -0.8475,2.07182 -1.2713,4.19074 -1.2713,6.40382 0,2.87229 0.5179,5.27373 1.4597,7.1572 0.9417,1.88348 2.2131,3.48443 3.814,4.75578 1.5539,1.27134 3.3432,2.30726 5.3208,3.10773 2.0248,0.84757 4.0495,1.55387 6.1684,2.21309 2.0718,0.65921 4.0966,1.36552 6.1684,2.02473 1.9776,0.7063 3.7669,1.55387 5.3208,2.58978 1.601,1.03591 2.8252,2.30726 3.814,3.81404 0.9418,1.50678 1.4127,3.43734 1.4127,5.79169 0,2.16599 -0.3767,4.23782 -1.1301,6.12129 -0.7534,1.88347 -1.8364,3.53152 -3.249,4.89704 -1.4597,1.4126 -3.2019,2.4956 -5.2738,3.29608 -2.0718,0.80047 -4.4261,1.17717 -7.063,1.17717 -5.2266,0 -9.6528,-0.84757 -13.2785,-2.58978 -0.047,-1.27134 -0.094,-2.63687 -0.1883,-4.19073 -0.094,-1.50678 -0.1413,-2.77813 -0.1884,-3.76695 -0.047,-1.03591 -0.094,-1.60096 -0.094,-1.74222 -0.047,-1.50678 -0.7534,-2.26017 -2.0247,-2.26017 l -2.2602,0 0,12.47803 0,1.17717 0,1.27134 c 5.7446,2.44852 11.7247,3.62569 17.893,3.62569 3.3903,0 6.4039,-0.51795 9.0407,-1.55386 2.6369,-1.03591 4.8971,-2.49561 6.6864,-4.332 1.8364,-1.7893 3.249,-3.9553 4.1907,-6.40381 0.9417,-2.44852 1.4126,-5.08539 1.4126,-7.9106 0,-2.73103 -0.4709,-4.99121 -1.4126,-6.8276"
         style="font-weight:300;text-align:start;line-height:116.99999571%;writing-mode:lr-tb;text-anchor:start;font-family:Aleo;-inkscape-font-specification:Aleo Light"
         id="path3840" />
      <path
         d="m 1211.9297,664.92061 -7.9106,0 0,1.83639 c 0,1.083 0.6121,1.60095 1.8364,1.69513 0.1413,0 0.4238,0 0.8947,0 0.4708,0 1.1771,0.0471 2.1189,0.0942 0.8946,0 1.9305,0.0471 3.0606,0.0942 l 0,59.14112 c -1.1301,0.0471 -2.166,0.0942 -3.0606,0.0942 -0.9418,0.0471 -1.6481,0.0471 -2.1189,0.0942 -0.4709,0 -0.7534,0 -0.8947,0 -1.2243,0.0942 -1.8364,0.61213 -1.8364,1.69513 l 0,1.83638 7.9106,0 39.9297,0 0,-4.00238 0,-9.79407 -2.3073,0 c -1.2713,0 -1.9305,0.80048 -2.0247,2.30726 0,0.18834 0,0.56504 -0.047,1.22425 -0.047,0.61213 -0.094,1.60096 -0.1413,3.01356 -0.094,1.36552 -0.1412,2.44852 -0.1883,3.249 l -30.371,0 0,-27.78126 26.5099,0 0,-3.90821 -26.5099,0 0,-26.88661 30.371,0 c 0.2354,4.09655 0.3296,6.63925 0.3767,7.48681 0.094,1.50678 0.7534,2.30726 2.0247,2.30726 l 2.3073,0 0,-9.79407 0,-4.00239 -39.9297,0"
         style="font-weight:300;text-align:start;line-height:116.99999571%;writing-mode:lr-tb;text-anchor:start;font-family:Aleo;-inkscape-font-specification:Aleo Light"
         id="path3842" />
      <path
         d="m 1304.583,670.05308 c -4.0024,-3.43734 -9.8882,-5.13247 -17.7046,-5.13247 l -16.1979,0 -7.9106,0 0,1.83639 c 0,1.083 0.6121,1.60095 1.8364,1.69513 0.1412,0 0.4237,0 0.8946,0 0.4709,0.0471 1.1772,0.0471 2.1189,0.0942 0.8947,0 1.9306,0.0471 3.0607,0.0942 l 0,59.14112 c -1.1301,0.0471 -2.166,0.0942 -3.0607,0.0942 -0.9417,0.0471 -1.648,0.0471 -2.1189,0.0942 -0.4709,0 -0.7534,0 -0.8946,0 -1.2243,0.0942 -1.8364,0.61213 -1.8364,1.69513 l 0,1.83638 7.9106,0 4.8028,0 7.9106,0 0,-1.83638 c 0,-1.083 -0.6121,-1.60096 -1.8364,-1.69513 -0.1412,0 -0.4708,0 -0.8946,0 -0.4709,-0.0471 -1.1772,-0.0471 -2.1189,-0.0942 -0.8947,0 -1.9306,-0.0471 -3.0607,-0.0942 l 0,-23.11966 11.3951,0 c 3.6727,0 6.9688,-0.47087 9.8882,-1.45969 2.9194,-0.98883 5.415,-2.35435 7.4397,-4.14365 2.0719,-1.7893 3.6257,-3.90821 4.7087,-6.30964 1.083,-2.4956 1.601,-5.13247 1.601,-8.05186 0,-6.35672 -1.9777,-11.25377 -5.933,-14.64402 m -0.1412,21.04784 c -0.8947,1.97765 -2.1189,3.67278 -3.7199,5.08538 -1.648,1.45969 -3.5786,2.58978 -5.9329,3.39026 -2.3073,0.84756 -4.9442,1.22426 -7.9106,1.22426 l -11.3951,0 0,-32.06617 11.3951,0 c 6.2625,0 10.9712,1.36552 14.126,4.09656 3.1548,2.77812 4.7087,6.73343 4.7087,11.81881 0,2.35434 -0.4238,4.47325 -1.2713,6.4509"
         style="font-weight:300;text-align:start;line-height:116.99999571%;writing-mode:lr-tb;text-anchor:start;font-family:Aleo;-inkscape-font-specification:Aleo Light"
         id="path3844" />
      <path
         d="m 1372.3698,664.92061 -1.3184,0 -49.0645,0 -1.3656,0 -0.6121,0 0,13.79646 2.2602,0 c 1.2713,0 1.9776,-0.75339 2.0247,-2.26017 0.047,-0.65922 0.1884,-3.15483 0.3767,-7.48682 l 19.494,0 0,58.81152 c -1.1301,0.0471 -2.166,0.0942 -3.0607,0.0942 -0.9417,0.0471 -1.648,0.0471 -2.1189,0.0942 -0.4238,0 -0.7534,0 -0.8946,0 -1.2243,0.0942 -1.8364,0.61213 -1.8364,1.69513 l 0,1.83638 7.9106,0 4.8028,0 7.9577,0 0,-1.83638 c 0,-1.083 -0.6592,-1.60096 -1.8835,-1.69513 -0.1412,0 -0.4237,0 -0.8946,0 -0.4709,-0.0471 -1.1772,-0.0471 -2.0718,-0.0942 -0.9418,0 -1.9777,-0.0471 -3.1078,-0.0942 l 0,-58.76443 19.3998,0 c 0.2355,4.75577 0.3767,7.25138 0.3767,7.43973 0.047,1.50678 0.7534,2.26017 2.0248,2.26017 l 2.3072,0 0,-13.79646 -0.7063,0"
         style="font-weight:300;text-align:start;line-height:116.99999571%;writing-mode:lr-tb;text-anchor:start;font-family:Aleo;-inkscape-font-specification:Aleo Light"
         id="path3846" />
      <path
         d="m 1438.5063,731.50146 0,-1.50678 c 0,-0.89465 -0.518,-1.31843 -1.5539,-1.36552 -0.6592,-0.0471 -4.9912,-0.28252 -13.043,-0.65921 l 0,-63.37895 -3.4845,0 -19.2114,17.04546 1.3655,1.88347 c 0.2825,0.3767 0.6592,0.56504 1.2243,0.56504 0.4238,0 0.8004,-0.14126 1.1301,-0.42378 l 14.6911,-13.04307 c -0.094,1.17718 -0.1413,2.30726 -0.1884,3.39026 l 0,53.96157 c 0,0 -1.083,0.0471 -3.249,0.14126 -2.166,0.0942 -4.3791,0.23543 -6.6392,0.32961 -2.3073,0.0942 -3.5786,0.14126 -3.8612,0.18834 -1.0359,0.0471 -1.5538,0.47087 -1.5538,1.36552 l 0,1.50678 34.3734,0"
         style="font-weight:300;text-align:start;line-height:116.99999571%;writing-mode:lr-tb;text-anchor:start;font-family:Aleo;-inkscape-font-specification:Aleo Light"
         id="path3848" />
      <path
         d="m 820.64217,780.23639 c -4.00238,-3.43734 -9.88825,-5.13248 -17.70467,-5.13248 l -16.19789,0 -7.91059,0 0,1.83639 c 0,1.083 0.61213,1.60096 1.83639,1.69513 0.14126,0 0.42378,0 0.89465,0 0.47087,0.0471 1.17717,0.0471 2.11891,0.0942 0.89465,0 1.93056,0.0471 3.06064,0.0942 l 0,59.14112 c -1.13008,0.0471 -2.16599,0.0942 -3.06064,0.0942 -0.94174,0.0471 -1.64804,0.0471 -2.11891,0.0942 -0.47087,0 -0.75339,0 -0.89465,0 -1.22426,0.0942 -1.83639,0.61213 -1.83639,1.69513 l 0,1.83639 7.91059,0 4.80287,0 7.91059,0 0,-1.83639 c 0,-1.083 -0.61213,-1.60095 -1.83639,-1.69513 -0.14126,0 -0.47087,0 -0.89465,0 -0.47087,-0.0471 -1.17717,-0.0471 -2.11891,-0.0942 -0.89465,0 -1.93056,-0.0471 -3.06064,-0.0942 l 0,-23.11966 11.39502,0 c 3.67278,0 6.96886,-0.47087 9.88825,-1.45969 2.91938,-0.98882 5.41499,-2.35434 7.43972,-4.14364 2.07183,-1.7893 3.6257,-3.90822 4.70869,-6.30965 1.083,-2.4956 1.60096,-5.13247 1.60096,-8.05185 0,-6.35673 -1.97766,-11.25377 -5.93295,-14.64402 m -0.14126,21.04783 c -0.89465,1.97765 -2.11891,3.67278 -3.71986,5.08539 -1.64804,1.45969 -3.57861,2.58978 -5.93295,3.39025 -2.30726,0.84756 -4.94413,1.22426 -7.9106,1.22426 l -11.39502,0 0,-32.06617 11.39502,0 c 6.26255,0 10.97125,1.36552 14.12607,4.09656 3.15481,2.77812 4.70869,6.73343 4.70869,11.81881 0,2.35434 -0.42379,4.47326 -1.27135,6.4509"
         style="font-weight:300;text-align:start;line-height:116.99999571%;writing-mode:lr-tb;text-anchor:start;font-family:Aleo;-inkscape-font-specification:Aleo Light"
         id="path3850" />
      <path
         d="m 886.27154,838.15325 c -0.14126,0 -0.32961,0 -0.61213,0 -0.28252,0 -0.7063,-0.0471 -1.22426,-0.0471 -0.56504,0 -1.13008,-0.0471 -1.69512,-0.0471 L 862.7281,812.8676 c -0.61213,-0.75339 -1.27135,-1.41261 -2.02474,-1.88348 2.91939,-0.28252 5.50917,-0.94174 7.86351,-1.97765 2.30726,-1.03591 4.28491,-2.30726 5.93295,-3.90821 1.64804,-1.60095 2.91939,-3.43734 3.81404,-5.55625 0.84756,-2.07182 1.31843,-4.42617 1.31843,-6.96886 0,-5.69751 -1.93056,-10.0766 -5.69751,-13.04307 -3.81404,-2.96647 -9.55865,-4.42617 -17.2338,-4.42617 l -16.19789,0 -7.9106,0 0,1.83639 c 0,1.083 0.61214,1.60096 1.83639,1.69513 0.14126,0 0.42379,0 0.89465,0 0.47087,0 1.17718,0.0471 2.11891,0.0942 0.89465,0 1.93057,0.0471 3.06065,0.0942 l 0,59.14112 c -1.13008,0.0471 -2.166,0.0942 -3.06065,0.0942 -0.94173,0.0471 -1.64804,0.0471 -2.11891,0.0942 -0.47086,0 -0.75339,0 -0.89465,0 -1.22425,0.0942 -1.83639,0.61213 -1.83639,1.69513 l 0,1.83639 7.9106,0 4.80286,0 7.9106,0 0,-1.83639 c 0,-1.083 -0.61213,-1.60095 -1.88348,-1.69513 -0.0942,0 -0.42378,0 -0.84756,0 -0.47087,-0.0471 -1.17717,-0.0471 -2.11891,-0.0942 -0.94174,0 -1.93056,-0.0471 -3.06065,-0.0942 l 0,-26.41574 7.9106,0 c 1.27134,0 2.21308,0.14126 2.82521,0.42378 0.61213,0.28253 1.17718,0.80048 1.74222,1.4597 l 21.33036,27.02787 c 0.3296,0.47087 0.65921,0.75339 1.03591,0.94174 0.37669,0.18834 0.80047,0.28252 1.31843,0.28252 l 0.47087,0 3.71986,0 2.44852,0 0,-1.83639 c 0,-1.083 -0.61213,-1.60095 -1.83639,-1.69513 m -30.18269,-30.18269 -10.7829,0 0,-29.05261 11.39503,0 c 5.93294,0 10.45329,1.13009 13.56102,3.43735 3.10773,2.26016 4.6616,5.79169 4.6616,10.54746 0,2.30725 -0.42378,4.37908 -1.27134,6.21547 -0.84757,1.88347 -2.11891,3.43734 -3.71987,4.75577 -1.60095,1.36552 -3.5786,2.35435 -5.93294,3.06065 -2.35435,0.7063 -4.99122,1.03591 -7.9106,1.03591"
         style="font-weight:300;text-align:start;line-height:116.99999571%;writing-mode:lr-tb;text-anchor:start;font-family:Aleo;-inkscape-font-specification:Aleo Light"
         id="path3852" />
      <path
         d="m 958.67057,837.6353 -3.06065,-0.28252 -25.474,-62.29595 -4.80287,0 -25.474,62.29595 -3.06065,0.28252 c -1.22426,0.14126 -1.7893,0.80047 -1.7893,1.88347 l 0,2.166 3.06065,0 1.93056,0 1.74222,0 0.65921,0 8.85234,0 0,-2.166 c 0,-1.17717 -0.7534,-1.83639 -2.166,-1.88347 -0.14126,-0.0471 -0.32961,-0.0471 -0.61213,-0.0471 -0.23543,-0.0471 -0.7063,-0.0471 -1.31843,-0.0942 -0.61213,-0.0471 -1.41261,-0.0942 -2.40143,-0.14126 l 6.59216,-16.29207 0.47087,-1.17717 31.78364,0 0.47087,1.17717 6.59217,16.29207 c -0.94174,0.0471 -1.74222,0.0942 -2.35435,0.14126 -0.65921,0.0471 -1.083,0.0471 -1.36552,0.0942 -0.23543,0 -0.42378,0 -0.56504,0.0471 -1.45969,0.0471 -2.166,0.7063 -2.166,1.88347 l 0,2.166 8.85234,0 0.61213,0 1.7893,0 1.93056,0 3.06065,0 0,-2.166 c 0,-1.083 -0.61213,-1.74221 -1.7893,-1.88347 m -32.25452,-53.77322 c 0.23544,-0.56505 0.42378,-1.17718 0.65922,-1.83639 0.23543,-0.65922 0.42378,-1.41261 0.65922,-2.166 0.18834,0.75339 0.42378,1.45969 0.65921,2.166 0.23544,0.65921 0.42378,1.27134 0.65922,1.7893 l 13.13724,32.48995 -28.91135,0 13.13724,-32.44286"
         style="font-weight:300;text-align:start;line-height:116.99999571%;writing-mode:lr-tb;text-anchor:start;font-family:Aleo;-inkscape-font-specification:Aleo Light"
         id="path3854" />
      <path
         d="m 1002.9785,811.45499 0,2.63686 c 0,0.32961 0.1412,0.56505 0.3766,0.75339 0.2355,0.23544 0.518,0.32961 0.8476,0.3767 l 12.8076,0 0,17.89302 c -1.4596,0.89465 -2.9193,1.64804 -4.379,2.30725 -1.4597,0.65922 -3.0136,1.22426 -4.6146,1.69513 -1.6009,0.51796 -3.3902,0.84756 -5.2737,1.083 -1.8364,0.23543 -3.95528,0.32961 -6.26254,0.32961 -4.09655,0 -7.86351,-0.65922 -11.25376,-2.07183 -3.39026,-1.36551 -6.30965,-3.34317 -8.75816,-5.93294 -2.44852,-2.58978 -4.332,-5.74461 -5.69752,-9.51155 -1.31843,-3.71986 -2.02473,-7.9106 -2.02473,-12.61929 0,-4.61451 0.7063,-8.80525 2.02473,-12.47802 1.31844,-3.71986 3.249,-6.87469 5.69752,-9.41738 2.44851,-2.58978 5.41499,-4.56743 8.89942,-5.93295 3.53151,-1.4126 7.43973,-2.07182 11.72463,-2.07182 7.91061,0 14.17311,1.083 18.78771,3.249 0.3296,6.0742 0.4708,9.46446 0.5179,10.12368 0.047,1.50677 0.7534,2.26017 2.0247,2.26017 l 2.3073,0 0,-15.02072 c -2.9665,-1.31843 -6.7805,-2.44852 -11.4421,-3.39026 -4.6616,-0.94173 -8.664,-1.36552 -12.05425,-1.36552 -5.08538,0 -9.6999,0.80048 -13.84354,2.40144 -4.14364,1.60095 -7.62808,3.90821 -10.54746,6.87468 -2.8723,2.96647 -5.08539,6.54508 -6.68634,10.73581 -1.55387,4.19073 -2.30726,8.85234 -2.30726,13.9848 0,5.17956 0.75339,9.84117 2.30726,14.0319 1.60095,4.23781 3.81404,7.81642 6.63925,10.78289 2.82521,2.96647 6.26256,5.27373 10.21785,6.87469 3.9553,1.60095 8.33439,2.40143 13.13724,2.40143 2.82521,0 5.36795,-0.14126 7.72225,-0.47087 2.4014,-0.32961 4.5674,-0.80048 6.5922,-1.41261 2.0718,-0.61213 4.0024,-1.36552 5.7446,-2.30725 1.7893,-0.89465 3.5315,-1.93057 5.1795,-3.10774 l 0,-23.6847 -18.4109,0"
         style="font-weight:300;text-align:start;line-height:116.99999571%;writing-mode:lr-tb;text-anchor:start;font-family:Aleo;-inkscape-font-specification:Aleo Light"
         id="path3856" />
      <path
         d="m 1087.3517,775.10391 -4.8028,0 -9.1349,0 0,1.83639 c 0,1.083 0.6592,1.60096 1.8835,1.69513 0.1413,0 0.518,0 1.1772,0 0.6592,0.0471 1.5538,0.0471 2.6839,0.0942 1.1301,0 2.2602,0.0471 3.3903,0.0942 l 0,37.48116 c 0,3.06064 -0.4709,5.98003 -1.4126,8.66398 -0.8947,2.68395 -2.2602,5.0383 -4.0024,7.01595 -1.7422,1.97765 -3.9082,3.48443 -6.4509,4.61451 -2.4956,1.13009 -5.3679,1.69513 -8.5698,1.69513 -3.2019,0 -6.0742,-0.56504 -8.6169,-1.69513 -2.4956,-1.13008 -4.6616,-2.68395 -6.4038,-4.6616 -1.7422,-2.02473 -3.0607,-4.33199 -4.0024,-7.01594 -0.8947,-2.68395 -1.3655,-5.55626 -1.3655,-8.66399 l 0,-37.43407 c 1.13,-0.0471 2.2601,-0.0942 3.3902,-0.0942 1.1301,-0.0471 2.0248,-0.0471 2.684,-0.0942 0.6592,0 1.0359,0 1.1771,0 1.2243,-0.0942 1.8835,-0.61213 1.8835,-1.69513 l 0,-1.83639 -9.1348,0 -4.85,0 -7.9106,0 0,1.83639 c 0,1.083 0.6121,1.60096 1.8364,1.69513 0.1413,0 0.4238,0 0.8947,0 0.4708,0.0471 1.1771,0.0471 2.1189,0.0942 0.8946,0 1.9305,0.0471 3.0606,0.0942 l 0,37.48116 c 0,3.67277 0.5651,7.06303 1.7422,10.26494 1.1772,3.2019 2.8252,5.98004 4.9912,8.33438 2.2131,2.35434 4.85,4.23782 7.9577,5.60334 3.1548,1.31843 6.6393,1.97765 10.5475,1.97765 3.9082,0 7.3926,-0.65922 10.5004,-1.97765 3.1548,-1.36552 5.7916,-3.249 7.9576,-5.60334 2.2131,-2.35434 3.8612,-5.13248 5.0383,-8.33438 1.1772,-3.20191 1.7422,-6.59217 1.7422,-10.26494 l 0,-37.48116 c 1.1301,-0.0471 2.166,-0.0942 3.0607,-0.0942 0.9417,-0.0471 1.648,-0.0471 2.1189,-0.0942 0.4238,0 0.7534,0 0.8947,0 1.2242,-0.0942 1.8363,-0.61213 1.8363,-1.69513 l 0,-1.83639 -7.9106,0"
         style="font-weight:300;text-align:start;line-height:116.99999571%;writing-mode:lr-tb;text-anchor:start;font-family:Aleo;-inkscape-font-specification:Aleo Light"
         id="path3858" />
      <path
         d="m 1110.2316,775.10391 -7.9106,0 0,1.83639 c 0,1.083 0.6121,1.60096 1.8363,1.69513 0.1413,0 0.4238,0 0.8947,0 0.4709,0 1.1772,0.0471 2.1189,0.0942 0.8947,0 1.9306,0.0471 3.0607,0.0942 l 0,59.14112 c -1.1301,0.0471 -2.166,0.0942 -3.0607,0.0942 -0.9417,0.0471 -1.648,0.0471 -2.1189,0.0942 -0.4709,0 -0.7534,0 -0.8947,0 -1.2242,0.0942 -1.8363,0.61213 -1.8363,1.69513 l 0,1.83639 7.9106,0 39.9296,0 0,-4.00239 0,-9.79407 -2.3072,0 c -1.2714,0 -1.9306,0.80048 -2.0248,2.30726 0,0.18835 0,0.56504 -0.047,1.22426 -0.047,0.61213 -0.094,1.60095 -0.1413,3.01356 -0.094,1.36552 -0.1413,2.44852 -0.1884,3.24899 l -30.371,0 0,-27.78126 26.5099,0 0,-3.90821 -26.5099,0 0,-26.88661 30.371,0 c 0.2355,4.09655 0.3297,6.63925 0.3767,7.48681 0.094,1.50678 0.7534,2.30726 2.0248,2.30726 l 2.3072,0 0,-9.79407 0,-4.00239 -39.9296,0"
         style="font-weight:300;text-align:start;line-height:116.99999571%;writing-mode:lr-tb;text-anchor:start;font-family:Aleo;-inkscape-font-specification:Aleo Light"
         id="path3860" />
    </g>
  </g>
</svg>
