<?xml version="1.0" encoding="UTF-8" standalone="no"?>
<!-- Created with Inkscape (http://www.inkscape.org/) -->

<svg
   xmlns:dc="http://purl.org/dc/elements/1.1/"
   xmlns:cc="http://creativecommons.org/ns#"
   xmlns:rdf="http://www.w3.org/1999/02/22-rdf-syntax-ns#"
   xmlns:svg="http://www.w3.org/2000/svg"
   xmlns="http://www.w3.org/2000/svg"
   xmlns:xlink="http://www.w3.org/1999/xlink"
   xmlns:sodipodi="http://sodipodi.sourceforge.net/DTD/sodipodi-0.dtd"
   xmlns:inkscape="http://www.inkscape.org/namespaces/inkscape"
   width="1500"
   height="800"
   id="svg2"
   version="1.1"
   inkscape:version="0.48.5 r10040"
   sodipodi:docname="site-eu-logo-composition.svg"
   inkscape:export-filename="/Users/anthony/Desktop/eu-site.png"
   inkscape:export-xdpi="90"
   inkscape:export-ydpi="90">
  <defs
     id="defs4">
    <linearGradient
       id="linearGradient7168">
      <stop
         style="stop-color:#ad7878;stop-opacity:1;"
         offset="0"
         id="stop7170" />
      <stop
         style="stop-color:#b58579;stop-opacity:1;"
         offset="1"
         id="stop7172" />
    </linearGradient>
    <linearGradient
       id="linearGradient3779">
      <stop
         style="stop-color:#bab3c3;stop-opacity:1;"
         offset="0"
         id="stop3781" />
      <stop
         style="stop-color:#b0b2c7;stop-opacity:1;"
         offset="1"
         id="stop3783" />
    </linearGradient>
    <linearGradient
       inkscape:collect="always"
       xlink:href="#linearGradient3779"
       id="linearGradient3785"
       x1="895.00568"
       y1="332.82974"
       x2="903.14038"
       y2="461.40115"
       gradientUnits="userSpaceOnUse"
       gradientTransform="matrix(3.1356151,0,0,3.1356151,-1786.9243,-458.78499)" />
    <linearGradient
       inkscape:collect="always"
       xlink:href="#linearGradient3779"
       id="linearGradient5366"
       x1="778.19714"
       y1="660.92004"
       x2="1175.6559"
       y2="660.92004"
       gradientUnits="userSpaceOnUse"
       gradientTransform="translate(45,33)" />
    <linearGradient
       inkscape:collect="always"
       xlink:href="#linearGradient3779"
       id="linearGradient6661"
       gradientUnits="userSpaceOnUse"
       gradientTransform="matrix(2.7136024,0,0,2.7136024,-1394.1761,-300.90556)"
       x1="895.00568"
       y1="332.82974"
       x2="903.14038"
       y2="461.40115" />
    <linearGradient
       inkscape:collect="always"
       xlink:href="#linearGradient7168"
       id="linearGradient7174"
       x1="418.48837"
       y1="864.57623"
       x2="418.5452"
       y2="960.74274"
       gradientUnits="userSpaceOnUse" />
  </defs>
  <sodipodi:namedview
     id="base"
     pagecolor="#424670"
     bordercolor="#666666"
     borderopacity="1.0"
     inkscape:pageopacity="1"
     inkscape:pageshadow="2"
     inkscape:zoom="0.35355339"
     inkscape:cx="586.10776"
     inkscape:cy="237.95124"
     inkscape:document-units="px"
     inkscape:current-layer="layer1"
     showgrid="false"
     showguides="false"
     inkscape:guide-bbox="true"
     inkscape:window-width="1366"
     inkscape:window-height="719"
     inkscape:window-x="0"
     inkscape:window-y="0"
     inkscape:window-maximized="1"
     inkscape:snap-to-guides="false">
    <sodipodi:guide
       orientation="1,0"
       position="725.28953,646.49763"
       id="guide2985" />
    <sodipodi:guide
       orientation="1,0"
       position="775.79715,623.26412"
       id="guide2987" />
    <sodipodi:guide
       orientation="0,1"
       position="881.37472,388.02661"
       id="guide3787" />
    <sodipodi:guide
       orientation="0,1"
       position="445.47727,251.52798"
       id="guide3789" />
    <sodipodi:guide
       orientation="0,1"
       position="694.56763,210.64302"
       id="guide5372" />
    <sodipodi:guide
       orientation="0,1"
       position="895.78714,314.85588"
       id="guide5374" />
  </sodipodi:namedview>
  <metadata
     id="metadata7">
    <rdf:RDF>
      <cc:Work
         rdf:about="">
        <dc:format>image/svg+xml</dc:format>
        <dc:type
           rdf:resource="http://purl.org/dc/dcmitype/StillImage" />
        <dc:title></dc:title>
      </cc:Work>
    </rdf:RDF>
  </metadata>
  <g
     inkscape:label="Layer 1"
     inkscape:groupmode="layer"
     id="layer1"
     transform="translate(0,-252.36218)">
    <g
       style="font-size:200px;font-style:normal;font-variant:normal;font-weight:normal;font-stretch:normal;text-align:end;line-height:87.00000048%;letter-spacing:0px;word-spacing:0px;text-anchor:end;fill:#f2f0eb;fill-opacity:1;stroke:none;font-family:Bree Serif;-inkscape-font-specification:Bree Serif"
       id="text2989">
      <path
         d="m 372.07983,334.60265 -6.6,0.6 c -3.46683,0.26678 -5.66683,2.66678 -6.6,7.2 l -25.2,109 -27.4,0 -21,-89 -0.6,0 -20.4,89 -28.2,0 -27.6,-115.4 -11.4,-0.6 0,-17 49.6,0 0,16.2 -6.6,0.6 c -4.13337,0.40011 -6.20003,2.13345 -6.2,5.2 -3e-5,0.53344 0.0666,1.13344 0.2,1.8 l 17.4,77.2 0.8,0 20.8,-90.4 25.8,0 21.6,90.8 0.4,0 17,-83.6 -10.8,-0.8 0,-17 45,0 0,16.2"
         style="fill:#f2f0eb;-inkscape-font-specification:Bree Serif"
         id="path7081" />
      <path
         d="m 379.82358,451.40265 0,-16.2 6.6,-0.6 c 3.86665,-0.39998 5.79999,-2.26665 5.8,-5.6 l 0,-93 -11.4,-0.6 0,-17 54.6,0 c 15.46659,1.3e-4 27.33325,2.8668 35.6,8.6 8.26656,5.73345 12.39989,15.13344 12.4,28.2 -1.1e-4,9.06675 -2.4001,16.53341 -7.2,22.4 -4.66676,5.86673 -10.26676,10.1334 -16.8,12.8 4.79991,1.73339 8.59991,5.80005 11.4,12.2 l 14.4,31.4 11.4,0.4 0,17 -49.4,0 0,-16.2 5.8,-0.6 c 3.06659,-0.39998 4.59992,-1.59998 4.6,-3.6 -8e-5,-0.79998 -0.26675,-1.73331 -0.8,-2.8 l -9.4,-20 c -1.46674,-3.33329 -3.1334,-5.66662 -5,-7 -1.7334,-1.46662 -4.26673,-2.19995 -7.6,-2.2 l -18.2,0 0,34.8 13,0.6 0,17 -49.8,0 m 36.8,-71.4 17.4,0 c 16.39993,7e-5 24.59992,-7.33326 24.6,-22 -8e-5,-8.3999 -2.20008,-13.86656 -6.6,-16.4 -4.26674,-2.53322 -11.20006,-3.79989 -20.8,-3.8 l -14.6,0 0,42.2"
         style="fill:#f2f0eb;-inkscape-font-specification:Bree Serif"
         id="path7083" />
      <path
         d="m 517.22358,428.00265 0,-92 -11.4,-0.6 0,-17 48.4,0 0,16.2 -6.6,0.6 c -3.86671,0.40011 -5.80004,2.53345 -5.8,6.4 l 0,92.2 11.4,0.6 0,17 -48.4,0 0,-16.2 6.6,-0.6 c 1.99999,-0.26665 3.46665,-0.79998 4.4,-1.6 0.93332,-0.93332 1.39999,-2.59998 1.4,-5"
         style="fill:#f2f0eb;-inkscape-font-specification:Bree Serif"
         id="path7085" />
      <path
         d="m 602.96108,429.00265 0,-90.8 -15.6,0 c -3.06669,1.1e-4 -4.60002,2.06678 -4.6,6.2 l 0,9.4 -20.4,-1.4 0,-34 104.6,0 0,34 -20.4,1.4 0,-9.4 c -8e-5,-2.26656 -0.33342,-3.86656 -1,-4.8 -0.66675,-0.93322 -2.26675,-1.39989 -4.8,-1.4 l -13.6,0 0,95.6 15.8,0.6 0,17 -56.4,0 0,-16.2 10.6,-0.6 c 3.86663,-0.39998 5.79996,-2.26665 5.8,-5.6"
         style="fill:#f2f0eb;-inkscape-font-specification:Bree Serif"
         id="path7087" />
      <path
         d="m 772.09858,451.40265 -95,0 0,-16.2 6.6,-0.6 c 3.86665,-0.39998 5.79998,-2.26665 5.8,-5.6 l 0,-93 -11.4,-0.6 0,-17 91.6,0 0,33.2 -20.4,1.4 0,-8 c -8e-5,-2.26656 -0.33341,-3.86656 -1,-4.8 -0.66674,-0.93322 -2.26674,-1.39989 -4.8,-1.4 l -29.6,0 0,34.2 46.2,0 0,20.4 -46.2,0 0,37.4 32.2,0 c 2.39993,2e-5 3.93326,-0.46665 4.6,-1.4 0.66659,-1.06664 0.99992,-2.73331 1,-5 l 0,-10 20.4,1.4 0,35.6"
         style="fill:#f2f0eb;-inkscape-font-specification:Bree Serif"
         id="path7089" />
      <path
         d="m 461.78374,603.00265 0,-90.8 -15.6,0 c -3.0667,1.1e-4 -4.60003,2.06678 -4.6,6.2 l 0,9.4 -20.4,-1.4 0,-34 104.6,0 0,34 -20.4,1.4 0,-9.4 c -9e-5,-2.26656 -0.33342,-3.86656 -1,-4.8 -0.66676,-0.93322 -2.26675,-1.39989 -4.8,-1.4 l -13.6,0 0,95.6 15.8,0.6 0,17 -56.4,0 0,-16.2 10.6,-0.6 c 3.86662,-0.39998 5.79995,-2.26665 5.8,-5.6"
         style="fill:#f2f0eb;-inkscape-font-specification:Bree Serif"
         id="path7091" />
      <path
         d="m 628.92124,602.00265 0,-34.6 -56.6,0 0,40.4 11.6,0.6 0,17 -48.4,0 0,-16.2 6.6,-0.6 c 3.86665,-0.39998 5.79998,-2.26665 5.8,-5.6 l 0,-93 -11.4,-0.6 0,-17 48.4,0 0,16.2 -6.6,0.6 c -2.13338,0.26678 -3.66672,0.86678 -4.6,1.8 -0.93338,0.80011 -1.40005,2.40011 -1.4,4.8 l 0,31 56.6,0 0,-36.8 -11.4,-0.6 0,-17 48.4,0 0,16.2 -6.6,0.6 c -3.8668,0.40012 -5.80013,2.53345 -5.8,6.4 l 0,92.2 11.4,0.6 0,17 -48.4,0 0,-16.2 6.6,-0.6 c 1.9999,-0.26665 3.46657,-0.79998 4.4,-1.6 0.93323,-0.93331 1.3999,-2.59998 1.4,-5"
         style="fill:#f2f0eb;-inkscape-font-specification:Bree Serif"
         id="path7093" />
      <path
         d="m 772.09859,625.40265 -95,0 0,-16.2 6.6,-0.6 c 3.86665,-0.39998 5.79998,-2.26665 5.8,-5.6 l 0,-93 -11.4,-0.6 0,-17 91.6,0 0,33.2 -20.4,1.4 0,-8 c -8e-5,-2.26656 -0.33341,-3.86656 -1,-4.8 -0.66674,-0.93322 -2.26674,-1.39989 -4.8,-1.4 l -29.6,0 0,34.2 46.2,0 0,20.4 -46.2,0 0,37.4 32.2,0 c 2.39992,2e-5 3.93325,-0.46665 4.6,-1.4 0.66659,-1.06664 0.99992,-2.73331 1,-5 l 0,-10 20.4,1.4 0,35.6"
         style="fill:#f2f0eb;-inkscape-font-specification:Bree Serif"
         id="path7095" />
      <path
         d="m 313.80243,799.40265 0,-16.2 6.6,-0.6 c 3.86665,-0.39998 5.79998,-2.26665 5.8,-5.6 l 0,-93 -11.4,-0.6 0,-17 54.8,0 c 19.59991,1.3e-4 34.86657,5.20013 45.8,15.6 11.06654,10.40011 16.59987,25.80009 16.6,46.2 -1.3e-4,12.66673 -1.66679,23.73338 -5,33.2 -3.33345,9.33336 -7.86678,16.66669 -13.6,22 -11.46677,10.66667 -25.73342,16 -42.8,16 l -56.8,0 m 36.8,-113.6 0,94.4 20.4,0 c 11.46659,2e-5 20.39991,-4.13331 26.8,-12.4 6.3999,-8.26663 9.5999,-20.26661 9.6,-36 -10e-5,-30.66657 -13.00009,-45.99989 -39,-46 l -17.8,0"
         style="fill:#f2f0eb;-inkscape-font-specification:Bree Serif"
         id="path7097" />
      <path
         d="m 503.76416,664.00265 c 15.86658,1.4e-4 29.13324,5.60013 39.8,16.8 10.66655,11.20011 15.99988,28.33342 16,51.4 -1.2e-4,22.93338 -5.33345,40.33336 -16,52.2 -10.53343,11.73334 -24.86675,17.6 -43,17.6 -18.00005,0 -32.13337,-5.86666 -42.4,-17.6 -10.26668,-11.73331 -15.40001,-28.79996 -15.4,-51.2 -1e-5,-12.26659 1.79999,-22.99991 5.4,-32.2 3.59998,-9.33322 8.33331,-16.53322 14.2,-21.6 11.86663,-10.26654 25.66661,-15.39986 41.4,-15.4 m -36,68.2 c -3e-5,33.0667 11.46662,49.60002 34.4,49.6 12.26659,2e-5 20.86658,-5.06664 25.8,-15.2 4.53324,-8.93329 6.7999,-19.86661 6.8,-32.8 -10e-5,-11.59992 -2.0001,-22.26658 -6,-32 -2.26676,-5.33323 -5.73342,-9.53323 -10.4,-12.6 -4.53341,-3.06655 -10.46674,-4.59988 -17.8,-4.6 -7.33339,1.2e-4 -13.66672,2.40011 -19,7.2 -5.20004,4.8001 -8.80004,10.6001 -10.8,17.4 -2.00003,6.80008 -3.00003,14.46674 -3,23"
         style="fill:#f2f0eb;-inkscape-font-specification:Bree Serif"
         id="path7099" />
      <path
         d="m 649.33527,687.60265 c -1.46675,-2.53322 -6.93341,-3.79988 -16.4,-3.8 -12.40006,1.2e-4 -21.80005,4.20011 -28.2,12.6 -6.40004,8.4001 -9.60003,20.53342 -9.6,36.4 -3e-5,32.93337 12.33329,49.40002 37,49.4 0.39993,2e-5 2.13326,2e-5 5.2,0 3.19992,2e-5 6.19992,-0.39998 9,-1.2 2.79991,-0.93331 4.46658,-1.86665 5,-2.8 0.53324,-0.93331 0.79991,-2.39998 0.8,-4.4 l 0,-16 20.4,1.4 0,34.6 c -10.4001,5.46667 -23.60009,8.2 -39.6,8.2 -20.40005,0 -36.00004,-5.73333 -46.8,-17.2 -10.66668,-11.46664 -16.00001,-28.53329 -16,-51.2 -10e-6,-12.53325 1.79999,-23.46658 5.4,-32.8 3.59998,-9.33322 8.46664,-16.59988 14.6,-21.8 11.99996,-9.99987 26.26661,-14.99986 42.8,-15 13.33325,1.4e-4 25.86657,2.73347 37.6,8.2 l 0,34 -20.4,1.4 0,-15.6 c -9e-5,-1.99989 -0.26676,-3.46655 -0.8,-4.4"
         style="fill:#f2f0eb;-inkscape-font-specification:Bree Serif"
         id="path7101" />
      <path
         d="m 723.57669,781.40265 c 15.99994,2e-5 23.99993,-6.39997 24,-19.2 -7e-5,-6.66662 -3.5334,-11.59995 -10.6,-14.8 -3.73339,-1.86661 -8.60005,-3.59994 -14.6,-5.2 -5.8667,-1.59994 -10.80003,-3.19994 -14.8,-4.8 -3.86669,-1.73327 -7.80002,-4.0666 -11.8,-7 -7.86668,-5.86659 -11.8,-14.86658 -11.8,-27 0,-12.26656 4.19999,-21.86655 12.6,-28.8 8.53331,-7.06653 19.59996,-10.59986 33.2,-10.6 13.73327,1.4e-4 26.46659,2.73347 38.2,8.2 l 0,30 -20.4,1.4 0,-11.6 c -7e-5,-1.99989 -0.26673,-3.46655 -0.8,-4.4 -1.46673,-2.53322 -6.20006,-3.79988 -14.2,-3.8 -7.86671,1.2e-4 -13.73337,1.40012 -17.6,4.2 -3.73337,2.80011 -5.60003,7.13344 -5.6,13 -3e-5,4.26676 1.59997,8.00009 4.8,11.2 2.1333,2.13342 5.26663,3.93342 9.4,5.4 4.26662,1.33341 8.73328,2.73341 13.4,4.2 4.79994,1.46674 8.99993,3.06674 12.6,4.8 3.73326,1.73341 7.59992,4.1334 11.6,7.2 8.13324,6.00006 12.19991,15.26672 12.2,27.8 -9e-5,12.53336 -4.53342,22.40002 -13.6,29.6 -8.93341,7.2 -20.80006,10.8 -35.6,10.8 -14.6667,0 -27.86668,-2.73333 -39.6,-8.2 l 0,-31.6 20.4,-1.4 0,12.2 c -3e-5,2.00003 0.26664,3.46669 0.8,4.4 0.53331,0.93336 2.1333,1.86669 4.8,2.8 2.79997,0.80002 7.13329,1.20002 13,1.2"
         style="fill:#f2f0eb;-inkscape-font-specification:Bree Serif"
         id="path7103" />
      <g
         id="g7160"
         style="fill-opacity:1;fill:url(#linearGradient7174)">
        <path
           id="path7105"
           style="fill:url(#linearGradient7174);-inkscape-font-specification:Bree Serif;fill-opacity:1"
           d="m 179.73396,973.40265 -94.999997,0 0,-16.2 6.6,-0.6 c 3.866649,-0.39998 5.799981,-2.26665 5.8,-5.6 l 0,-93 -11.4,-0.6 0,-17 91.599997,0 0,33.2 -20.4,1.4 0,-8 c -8e-5,-2.26656 -0.33341,-3.86655 -1,-4.8 -0.66674,-0.93322 -2.26674,-1.39989 -4.8,-1.4 l -29.6,0 0,34.2 46.2,0 0,20.4 -46.2,0 0,37.4 32.2,0 c 2.39992,2e-5 3.93326,-0.46664 4.6,-1.4 0.66659,-1.06664 0.99992,-2.73331 1,-5 l 0,-10 20.4,1.4 0,35.6" />
        <path
           id="path7107"
           style="fill:url(#linearGradient7174);-inkscape-font-specification:Bree Serif;fill-opacity:1"
           d="m 224.68053,863.80265 0,66.4 c -4e-5,9.33337 2.19996,15.93336 6.6,19.8 4.53328,3.73335 10.93328,5.60002 19.2,5.6 8.39993,2e-5 14.86659,-2.06665 19.4,-6.2 4.66658,-4.1333 6.99991,-10.19996 7,-18.2 l 0,-73.2 -11.6,-0.6 0,-17 47.4,0 0,16.2 -6.6,0.6 c -3.86678,0.40012 -5.80011,2.40012 -5.8,6 l 0,71.4 c -1.1e-4,12.93336 -4.53344,23.06668 -13.6,30.4 -9.06676,7.33334 -21.60008,11 -37.6,11 -16.00005,0 -28.13337,-3.53333 -36.4,-10.6 -8.13335,-7.19998 -12.20001,-18.53331 -12.2,-34 l 0,-73.4 -11.6,-0.6 0,-17 48.4,0 0,16.2 -6.6,0.6 c -2.13337,0.26678 -3.66671,0.86678 -4.6,1.8 -0.93337,0.80012 -1.40004,2.40011 -1.4,4.8" />
        <path
           id="path7109"
           style="fill:url(#linearGradient7174);-inkscape-font-specification:Bree Serif;fill-opacity:1"
           d="m 322.52116,973.40265 0,-16.2 6.6,-0.6 c 3.86665,-0.39998 5.79998,-2.26665 5.8,-5.6 l 0,-93 -11.4,-0.6 0,-17 54.6,0 c 15.46659,1.3e-4 27.33324,2.8668 35.6,8.6 8.26656,5.73345 12.39989,15.13344 12.4,28.2 -1.1e-4,9.06676 -2.40011,16.53341 -7.2,22.4 -4.66677,5.86674 -10.26676,10.1334 -16.8,12.8 4.79991,1.73339 8.5999,5.80006 11.4,12.2 l 14.4,31.4 11.4,0.4 0,17 -49.4,0 0,-16.2 5.8,-0.6 c 3.06658,-0.39998 4.59991,-1.59998 4.6,-3.6 -9e-5,-0.79998 -0.26675,-1.73331 -0.8,-2.8 l -9.4,-20 c -1.46674,-3.33329 -3.13341,-5.66662 -5,-7 -1.7334,-1.46661 -4.26673,-2.19995 -7.6,-2.2 l -18.2,0 0,34.8 13,0.6 0,17 -49.8,0 m 36.8,-71.4 17.4,0 c 16.39992,7e-5 24.59991,-7.33325 24.6,-22 -9e-5,-8.3999 -2.20009,-13.86656 -6.6,-16.4 -4.26674,-2.53322 -11.20007,-3.79988 -20.8,-3.8 l -14.6,0 0,42.2" />
        <path
           id="path7111"
           style="fill:url(#linearGradient7174);-inkscape-font-specification:Bree Serif;fill-opacity:1"
           d="m 500.22165,838.00265 c 15.86658,1.4e-4 29.13324,5.60013 39.8,16.8 10.66655,11.20011 15.99988,28.33343 16,51.4 -1.2e-4,22.93338 -5.33345,40.33336 -16,52.2 -10.53343,11.73334 -24.86675,17.6 -43,17.6 -18.00005,0 -32.13336,-5.86666 -42.4,-17.6 -10.26668,-11.7333 -15.40001,-28.79995 -15.4,-51.2 -1e-5,-12.26659 1.79999,-22.99991 5.4,-32.2 3.59999,-9.33322 8.33331,-16.53322 14.2,-21.6 11.86663,-10.26653 25.66662,-15.39986 41.4,-15.4 m -36,68.2 c -3e-5,33.0667 11.46662,49.60002 34.4,49.6 12.26659,2e-5 20.86658,-5.06664 25.8,-15.2 4.53324,-8.93329 6.7999,-19.86661 6.8,-32.8 -10e-5,-11.59992 -2.0001,-22.26658 -6,-32 -2.26676,-5.33323 -5.73342,-9.53322 -10.4,-12.6 -4.53341,-3.06655 -10.46674,-4.59988 -17.8,-4.6 -7.33339,1.2e-4 -13.66672,2.40011 -19,7.2 -5.20004,4.8001 -8.80004,10.6001 -10.8,17.4 -2.00003,6.80009 -3.00003,14.46674 -3,23" />
        <path
           id="path7113"
           style="fill:url(#linearGradient7174);-inkscape-font-specification:Bree Serif;fill-opacity:1"
           d="m 561.55827,973.40265 0,-16.2 6.6,-0.6 c 3.86665,-0.39998 5.79998,-2.26665 5.8,-5.6 l 0,-93 -11.4,-0.6 0,-17 57.2,0 c 14.93325,1.3e-4 26.53324,3.53346 34.8,10.6 8.39989,6.93345 12.59989,17.40011 12.6,31.4 -1.1e-4,14.00008 -4.73344,24.9334 -14.2,32.8 -9.46676,7.73339 -22.00008,11.60005 -37.6,11.6 l -17,0 0,29 19.2,0.6 0,17 -56,0 m 36.8,-66 14.4,0 c 19.46659,7e-5 29.19991,-7.93326 29.2,-23.8 -9e-5,-9.5999 -2.53342,-15.93323 -7.6,-19 -4.93341,-3.19989 -12.86674,-4.79988 -23.8,-4.8 l -12.2,0 0,47.6" />
        <path
           id="path7115"
           style="fill:url(#linearGradient7174);-inkscape-font-specification:Bree Serif;fill-opacity:1"
           d="m 772.09859,973.40265 -95,0 0,-16.2 6.6,-0.6 c 3.86665,-0.39998 5.79998,-2.26665 5.8,-5.6 l 0,-93 -11.4,-0.6 0,-17 91.6,0 0,33.2 -20.4,1.4 0,-8 c -8e-5,-2.26656 -0.33341,-3.86655 -1,-4.8 -0.66675,-0.93322 -2.26675,-1.39989 -4.8,-1.4 l -29.6,0 0,34.2 46.2,0 0,20.4 -46.2,0 0,37.4 32.2,0 c 2.39992,2e-5 3.93325,-0.46664 4.6,-1.4 0.66658,-1.06664 0.99992,-2.73331 1,-5 l 0,-10 20.4,1.4 0,35.6" />
      </g>
    </g>
    <g
       style="font-size:86.83527374px;font-style:normal;font-variant:normal;font-weight:normal;font-stretch:normal;line-height:116.99999571%;letter-spacing:0px;word-spacing:0px;fill:url(#linearGradient6661);fill-opacity:1;stroke:none;font-family:Aleo;-inkscape-font-specification:Aleo"
       id="text3771">
      <path
         d="m 881.30542,695.51688 -2.82215,-0.26051 -23.48894,-57.44153 -4.4286,0 -23.48894,57.44153 -2.82215,0.26051 c -1.12885,0.13025 -1.64987,0.7381 -1.64987,1.7367 l 0,1.99721 2.82215,0 1.78012,0 1.60645,0 0.60785,0 8.16252,0 0,-1.99721 c 0,-1.08544 -0.69469,-1.69329 -1.99721,-1.7367 -0.13026,-0.0434 -0.30393,-0.0434 -0.56443,-0.0434 -0.21709,-0.0434 -0.65127,-0.0434 -1.2157,-0.0868 -0.56443,-0.0434 -1.30253,-0.0868 -2.2143,-0.13025 l 6.07847,-15.0225 0.43418,-1.08544 29.3069,0 0.43418,1.08544 6.07847,15.0225 c -0.86835,0.0434 -1.60645,0.0868 -2.17088,0.13025 -0.60785,0.0434 -0.99861,0.0434 -1.25911,0.0868 -0.21709,0 -0.39076,0 -0.52102,0.0434 -1.34594,0.0434 -1.99721,0.65126 -1.99721,1.7367 l 0,1.99721 8.16252,0 0.56443,0 1.64987,0 1.78012,0 2.82215,0 0,-1.99721 c 0,-0.9986 -0.56443,-1.60645 -1.64987,-1.7367 m -29.74108,-49.58294 c 0.21708,-0.52102 0.39076,-1.08545 0.60784,-1.69329 0.21709,-0.60785 0.39076,-1.30253 0.60785,-1.99721 0.17367,0.69468 0.39076,1.34594 0.60785,1.99721 0.21708,0.60784 0.39076,1.17227 0.60784,1.64987 l 12.11352,29.95817 -26.65842,0 12.11352,-29.91475"
         style="line-height:116.99999571%;font-family:Aleo;-inkscape-font-specification:Aleo Light"
         id="path7118" />
      <path
         d="m 934.21901,637.85825 -4.4286,0 -8.42302,0 0,1.69329 c 0,0.99861 0.60784,1.4762 1.7367,1.56304 0.13025,0 0.4776,0 1.08544,0 0.60785,0.0434 1.43279,0.0434 2.47481,0.0868 1.04202,0 2.08404,0.0434 3.12607,0.0868 l 0,34.56044 c 0,2.82214 -0.43418,5.51404 -1.30253,7.98884 -0.82494,2.47481 -2.08405,4.64569 -3.6905,6.46923 -1.60645,1.82354 -3.60367,3.21291 -5.94822,4.25493 -2.30113,1.04202 -4.94961,1.56303 -7.90201,1.56303 -2.95239,0 -5.60087,-0.52101 -7.94542,-1.56303 -2.30114,-1.04202 -4.29835,-2.47481 -5.9048,-4.29835 -1.60645,-1.86695 -2.82215,-3.99442 -3.6905,-6.46923 -0.82494,-2.4748 -1.25911,-5.12328 -1.25911,-7.98884 l 0,-34.51702 c 1.04202,-0.0434 2.08404,-0.0868 3.12607,-0.0868 1.04202,-0.0434 1.86695,-0.0434 2.4748,-0.0868 0.60785,0 0.95519,0 1.08544,0 1.12886,-0.0868 1.73671,-0.56443 1.73671,-1.56304 l 0,-1.69329 -8.42302,0 -4.47202,0 -7.29416,0 0,1.69329 c 0,0.99861 0.56443,1.4762 1.69328,1.56304 0.13026,0 0.39076,0 0.82494,0 0.43418,0.0434 1.08544,0.0434 1.95379,0.0868 0.82494,0 1.78013,0.0434 2.82215,0.0868 l 0,34.56044 c 0,3.38657 0.52101,6.51265 1.60645,9.46504 1.08544,2.9524 2.60506,5.51404 4.60227,7.68492 2.04063,2.17088 4.47202,3.90759 7.33758,5.1667 2.90898,1.2157 6.12189,1.82354 9.72555,1.82354 3.60366,0 6.81657,-0.60784 9.68214,-1.82354 2.90897,-1.25911 5.34037,-2.99582 7.33758,-5.1667 2.04062,-2.17088 3.56024,-4.73252 4.64568,-7.68492 1.08544,-2.95239 1.60646,-6.07847 1.60646,-9.46504 l 0,-34.56044 c 1.04202,-0.0434 1.99721,-0.0868 2.82214,-0.0868 0.86835,-0.0434 1.51962,-0.0434 1.9538,-0.0868 0.39075,0 0.69468,0 0.82493,0 1.12886,-0.0868 1.69329,-0.56443 1.69329,-1.56304 l 0,-1.69329 -7.29416,0"
         style="line-height:116.99999571%;font-family:Aleo;-inkscape-font-specification:Aleo Light"
         id="path7120" />
      <path
         d="m 982.92953,671.37667 0,2.43139 c 0,0.30392 0.13025,0.52101 0.34734,0.69468 0.21709,0.21709 0.47759,0.30392 0.78152,0.34734 l 11.80959,0 0,16.4987 c -1.34594,0.82494 -2.69189,1.51962 -4.03784,2.12747 -1.34594,0.60784 -2.77873,1.12886 -4.25493,1.56303 -1.47619,0.4776 -3.12607,0.78152 -4.86277,0.99861 -1.69329,0.21709 -3.64708,0.30392 -5.77455,0.30392 -3.77733,0 -7.25074,-0.60785 -10.37681,-1.91037 -3.12607,-1.25911 -5.81797,-3.08266 -8.07568,-5.47063 -2.25772,-2.38796 -3.99443,-5.29695 -5.25354,-8.77036 -1.21569,-3.42999 -1.86695,-7.29417 -1.86695,-11.63593 0,-4.25492 0.65126,-8.1191 1.86695,-11.50567 1.2157,-3.42999 2.99582,-6.33898 5.25354,-8.68353 2.25771,-2.38796 4.99303,-4.21151 8.20593,-5.47062 3.25632,-1.30253 6.85999,-1.91038 10.81099,-1.91038 7.29416,0 13.06872,0.99861 17.32364,2.99582 0.30392,5.60087 0.43418,8.72695 0.47759,9.33479 0.0434,1.38937 0.69469,2.08405 1.86696,2.08405 l 2.12747,0 0,-13.85023 c -2.73531,-1.21569 -6.25215,-2.25771 -10.55049,-3.12607 -4.29834,-0.86835 -7.98885,-1.25911 -11.11491,-1.25911 -4.6891,0 -8.94404,0.7381 -12.76479,2.2143 -3.82075,1.4762 -7.03366,3.60367 -9.72555,6.33898 -2.64847,2.73531 -4.68911,6.03505 -6.1653,9.89922 -1.43279,3.86416 -2.12747,8.16252 -2.12747,12.89504 0,4.77593 0.69468,9.07429 2.12747,12.93845 1.47619,3.90759 3.51683,7.20733 6.12188,9.94264 2.60506,2.73531 5.77455,4.86278 9.42163,6.33898 3.64708,1.47619 7.68493,2.2143 12.11352,2.2143 2.60506,0 4.94961,-0.13026 7.12049,-0.43418 2.2143,-0.30392 4.21152,-0.7381 6.07847,-1.30253 1.91038,-0.56443 3.6905,-1.25911 5.29695,-2.12746 1.64987,-0.82494 3.25633,-1.78013 4.77594,-2.86557 l 0,-21.83907 -16.97629,0"
         style="line-height:116.99999571%;font-family:Aleo;-inkscape-font-specification:Aleo Light"
         id="path7122" />
      <path
         d="m 1049.1374,637.12016 c -2.5183,0 -4.8628,0.39075 -7.0337,1.12885 -2.1709,0.7381 -4.0813,1.82355 -5.7311,3.21291 -1.6499,1.43278 -3.0393,3.16949 -4.0813,5.21012 -1.0854,2.08404 -1.8235,4.4286 -2.1709,7.03365 l 2.1275,0.34734 c 0.087,0.0434 0.2605,0.0434 0.4776,0.0434 0.8249,0 1.3459,-0.47759 1.6064,-1.51962 0.3908,-1.78012 0.9986,-3.38657 1.8236,-4.86277 0.8683,-1.4762 1.9104,-2.6919 3.126,-3.73392 1.2592,-1.04202 2.6919,-1.86696 4.2984,-2.43139 1.6499,-0.60784 3.43,-0.86835 5.3404,-0.86835 1.7801,-0.0434 3.4734,0.21709 5.0798,0.7381 1.6499,0.47759 3.0393,1.2157 4.255,2.30114 1.2156,1.04202 2.2143,2.34455 2.9089,3.951 0.7381,1.56303 1.0855,3.47341 1.0855,5.64429 0,1.86696 -0.3474,3.60367 -1.042,5.1667 -0.6947,1.56304 -1.6933,2.90899 -3.0827,4.03784 -1.3459,1.12886 -3.0392,1.99721 -5.0799,2.64848 -1.9972,0.65126 -4.3417,0.9986 -7.0336,1.08544 l 0,2.99582 c 3.3431,-0.0434 6.1653,0.30392 8.423,0.9986 2.2577,0.69468 4.0813,1.60646 5.514,2.77873 1.3894,1.17228 2.3446,2.56164 2.9524,4.21151 0.6079,1.60645 0.9118,3.34316 0.9118,5.25354 0,1.56303 -0.3473,3.16948 -0.9986,4.81935 -0.6513,1.64987 -1.6499,3.16949 -2.9524,4.51544 -1.3025,1.34594 -2.9524,2.4748 -4.9062,3.34316 -1.9538,0.86835 -4.2115,1.30252 -6.8166,1.30252 -1.9103,0 -3.6036,-0.21708 -5.0798,-0.60784 -1.4762,-0.43418 -2.7353,-0.95519 -3.8208,-1.60645 -1.0854,-0.65127 -1.9972,-1.38937 -2.7353,-2.2143 -0.7815,-0.82494 -1.3893,-1.64988 -1.9104,-2.47481 -0.521,-0.82493 -0.9117,-1.60645 -1.2157,-2.38797 -0.3473,-0.78152 -0.5644,-1.38936 -0.7381,-1.91038 l -0.3039,-0.86835 c -0.1736,-0.43417 -0.3907,-0.69468 -0.6512,-0.82493 -0.304,-0.17367 -0.6079,-0.21709 -0.9118,-0.21709 -0.3473,0 -0.6513,0.0434 -0.9986,0.21709 l -1.6499,0.69468 c 0.521,1.82354 1.1723,3.6905 2.0406,5.55746 0.825,1.86695 1.9973,3.56024 3.5169,5.07986 1.4762,1.4762 3.3866,2.69189 5.7311,3.64708 2.3446,0.95519 5.2535,1.43278 8.7704,1.43278 2.7787,0 5.3838,-0.47759 7.8151,-1.34594 2.388,-0.86836 4.4721,-2.08405 6.2522,-3.64708 1.7367,-1.56304 3.126,-3.43 4.1681,-5.60088 0.9986,-2.17088 1.5196,-4.47202 1.5196,-6.99024 0,-3.99442 -1.1723,-7.29417 -3.4734,-9.94264 -2.3446,-2.64847 -5.7312,-4.38518 -10.2466,-5.21011 1.7367,-0.43418 3.3432,-1.08545 4.8194,-1.91038 1.4762,-0.82494 2.7353,-1.82354 3.8207,-3.03924 1.0855,-1.21569 1.9538,-2.64847 2.5617,-4.25492 0.6078,-1.60645 0.9117,-3.38658 0.9552,-5.38379 0,-2.56164 -0.4776,-4.81936 -1.3894,-6.72973 -0.9118,-1.9538 -2.1709,-3.56025 -3.7339,-4.86278 -1.5631,-1.30253 -3.3866,-2.30114 -5.4707,-2.9524 -2.084,-0.65126 -4.2983,-0.9986 -6.6428,-0.9986"
         style="line-height:116.99999571%;font-family:Aleo;-inkscape-font-specification:Aleo Light"
         id="path7124" />
      <path
         d="m 1109.1419,699.25079 0,-1.38936 c 0,-0.82494 -0.4776,-1.21569 -1.4328,-1.25911 -0.6078,-0.0434 -4.6023,-0.26051 -12.0267,-0.60785 l 0,-58.44014 -3.2129,0 -17.7144,15.71719 1.2591,1.7367 c 0.2605,0.34734 0.6079,0.52101 1.1289,0.52101 0.3908,0 0.7381,-0.13025 1.042,-0.39076 l 13.5463,-12.02668 c -0.087,1.08544 -0.1302,2.12746 -0.1737,3.12607 l 0,49.75661 c 0,0 -0.9986,0.0434 -2.9958,0.13025 -1.9972,0.0868 -4.0378,0.21709 -6.1219,0.30393 -2.1274,0.0868 -3.2997,0.13025 -3.5602,0.17367 -0.9552,0.0434 -1.4328,0.43417 -1.4328,1.25911 l 0,1.38936 31.6949,0"
         style="line-height:116.99999571%;font-family:Aleo;-inkscape-font-specification:Aleo Light"
         id="path7126" />
      <path
         d="m 1122.6895,671.72401 0,3.51683 20.1892,0 0,-3.51683 -20.1892,0"
         style="line-height:116.99999571%;font-family:Aleo;-inkscape-font-specification:Aleo Light"
         id="path7128" />
      <path
         d="m 1199.1683,675.02375 c -0.8683,-1.69328 -2.0406,-3.12607 -3.5168,-4.29834 -1.4328,-1.12886 -3.0826,-2.08405 -4.9062,-2.86557 -1.8669,-0.78151 -3.7339,-1.4762 -5.6877,-2.12746 -1.9538,-0.60785 -3.8642,-1.25911 -5.6877,-1.91038 -1.8235,-0.65126 -3.4734,-1.4762 -4.9062,-2.43139 -1.4762,-0.95518 -2.6485,-2.08404 -3.5168,-3.47341 -0.8684,-1.34594 -1.346,-3.03923 -1.346,-5.1667 0,-1.56303 0.304,-3.08265 0.9118,-4.55885 0.6078,-1.43278 1.4762,-2.69189 2.6051,-3.82075 1.1722,-1.08544 2.5616,-1.95379 4.2983,-2.60506 1.6933,-0.60784 3.6471,-0.95519 5.8614,-0.95519 4.1681,0 7.9888,0.73811 11.4622,2.2143 0.2605,4.99303 0.3908,7.72834 0.4342,8.16252 0.043,1.43278 0.6947,2.12746 1.867,2.12746 l 2.084,0 0,-12.59111 c -5.4706,-2.38797 -10.7676,-3.56025 -15.8474,-3.56025 -2.8222,0 -5.3838,0.43418 -7.5981,1.30253 -2.2143,0.86835 -4.0813,2.04063 -5.5575,3.51683 -1.5196,1.4762 -2.6484,3.16949 -3.4734,5.07986 -0.7815,1.91038 -1.1722,3.86418 -1.1722,5.9048 0,2.64848 0.4776,4.86278 1.3459,6.59948 0.8684,1.73671 2.0406,3.21291 3.5168,4.38518 1.4328,1.17228 3.0827,2.12747 4.9062,2.86557 1.867,0.78152 3.7339,1.43278 5.6877,2.04063 1.9104,0.60784 3.7774,1.25911 5.6877,1.86696 1.8236,0.65126 3.4735,1.43278 4.9062,2.38797 1.4762,0.95518 2.6051,2.12746 3.5169,3.51682 0.8683,1.38937 1.3025,3.16949 1.3025,5.34037 0,1.99721 -0.3473,3.90759 -1.042,5.6443 -0.6947,1.7367 -1.6933,3.25632 -2.9958,4.51543 -1.346,1.30253 -2.9524,2.30114 -4.8628,3.03924 -1.9104,0.73809 -4.0813,1.08544 -6.5127,1.08544 -4.8193,0 -8.9006,-0.78152 -12.2437,-2.38797 -0.043,-1.17228 -0.087,-2.43139 -0.1737,-3.86417 -0.087,-1.38937 -0.1303,-2.56164 -0.1737,-3.47341 -0.043,-0.95519 -0.087,-1.4762 -0.087,-1.60646 -0.043,-1.38936 -0.6947,-2.08404 -1.867,-2.08404 l -2.084,0 0,11.50567 0,1.08544 0,1.17228 c 5.2969,2.25771 10.811,3.34316 16.4987,3.34316 3.126,0 5.9048,-0.4776 8.3362,-1.43279 2.4314,-0.95518 4.5154,-2.30113 6.1653,-3.99442 1.6933,-1.64987 2.9958,-3.64708 3.8641,-5.9048 0.8684,-2.25771 1.3026,-4.6891 1.3026,-7.29416 0,-2.51822 -0.4342,-4.60227 -1.3026,-6.29556"
         style="line-height:116.99999571%;font-family:Aleo;-inkscape-font-specification:Aleo Light"
         id="path7130" />
      <path
         d="m 1216.6385,637.85825 -7.2941,0 0,1.69329 c 0,0.99861 0.5644,1.4762 1.6933,1.56304 0.1302,0 0.3907,0 0.8249,0 0.4342,0 1.0854,0.0434 1.9538,0.0868 0.8249,0 1.7801,0.0434 2.8221,0.0868 l 0,54.53255 c -1.042,0.0434 -1.9972,0.0868 -2.8221,0.0868 -0.8684,0.0434 -1.5196,0.0434 -1.9538,0.0868 -0.4342,0 -0.6947,0 -0.8249,0 -1.1289,0.0868 -1.6933,0.56443 -1.6933,1.56304 l 0,1.69328 7.2941,0 36.8182,0 0,-3.6905 0,-9.03086 -2.1275,0 c -1.1722,0 -1.7801,0.7381 -1.8669,2.12746 0,0.17367 0,0.52101 -0.043,1.12886 -0.043,0.56443 -0.087,1.4762 -0.1303,2.77873 -0.087,1.25911 -0.1302,2.25772 -0.1737,2.99581 l -28.0043,0 0,-25.6164 24.4441,0 0,-3.60367 -24.4441,0 0,-24.79147 28.0043,0 c 0.2171,3.77733 0.304,6.12189 0.3474,6.90341 0.087,1.38936 0.6947,2.12746 1.8669,2.12746 l 2.1275,0 0,-9.03087 0,-3.6905 -36.8182,0"
         style="line-height:116.99999571%;font-family:Aleo;-inkscape-font-specification:Aleo Light"
         id="path7132" />
      <path
         d="m 1303.0017,642.59078 c -3.6905,-3.16949 -9.1177,-4.73253 -16.325,-4.73253 l -14.9357,0 -7.2942,0 0,1.69329 c 0,0.99861 0.5645,1.4762 1.6933,1.56304 0.1303,0 0.3908,0 0.8249,0 0.4342,0.0434 1.0855,0.0434 1.9538,0.0868 0.825,0 1.7802,0.0434 2.8222,0.0868 l 0,54.53255 c -1.042,0.0434 -1.9972,0.0868 -2.8222,0.0868 -0.8683,0.0434 -1.5196,0.0434 -1.9538,0.0868 -0.4341,0 -0.6946,0 -0.8249,0 -1.1288,0.0868 -1.6933,0.56443 -1.6933,1.56304 l 0,1.69328 7.2942,0 4.4286,0 7.2942,0 0,-1.69328 c 0,-0.99861 -0.5645,-1.4762 -1.6933,-1.56304 -0.1303,0 -0.4342,0 -0.825,0 -0.4341,-0.0434 -1.0854,-0.0434 -1.9538,-0.0868 -0.8249,0 -1.7801,-0.0434 -2.8221,-0.0868 l 0,-21.31806 10.5071,0 c 3.3865,0 6.4258,-0.43418 9.1177,-1.34595 2.6919,-0.91177 4.993,-2.17088 6.8599,-3.82075 1.9104,-1.64987 3.3432,-3.60366 4.3418,-5.81796 0.9986,-2.30113 1.4762,-4.73253 1.4762,-7.42442 0,-5.86137 -1.8235,-10.37682 -5.4706,-13.50288 m -0.1303,19.40768 c -0.8249,1.82354 -1.9538,3.38658 -3.43,4.68911 -1.5196,1.34594 -3.2997,2.38797 -5.4706,3.12607 -2.1274,0.78151 -4.5588,1.12885 -7.2941,1.12885 l -10.5071,0 0,-29.56741 10.5071,0 c 5.7745,0 10.1163,1.25912 13.0252,3.77734 2.909,2.56164 4.3418,6.20872 4.3418,10.89782 0,2.17088 -0.3907,4.12468 -1.1723,5.94822"
         style="line-height:116.99999571%;font-family:Aleo;-inkscape-font-specification:Aleo Light"
         id="path7134" />
      <path
         d="m 1365.549,637.85825 -1.2157,0 -45.2412,0 -1.2591,0 -0.5644,0 0,12.72137 2.084,0 c 1.1723,0 1.8236,-0.69468 1.867,-2.08404 0.043,-0.60785 0.1737,-2.90899 0.3473,-6.90341 l 17.9749,0 0,54.22863 c -1.042,0.0434 -1.9972,0.0868 -2.8221,0.0868 -0.8684,0.0434 -1.5196,0.0434 -1.9538,0.0868 -0.3908,0 -0.6947,0 -0.8249,0 -1.1289,0.0868 -1.6933,0.56443 -1.6933,1.56304 l 0,1.69328 7.2941,0 4.4286,0 7.3376,0 0,-1.69328 c 0,-0.99861 -0.6078,-1.4762 -1.7367,-1.56304 -0.1302,0 -0.3907,0 -0.8249,0 -0.4342,-0.0434 -1.0855,-0.0434 -1.9104,-0.0868 -0.8683,0 -1.8235,-0.0434 -2.8656,-0.0868 l 0,-54.18521 17.8881,0 c 0.2171,4.38518 0.3473,6.68632 0.3473,6.85999 0.043,1.38936 0.6947,2.08404 1.867,2.08404 l 2.1275,0 0,-12.72137 -0.6513,0"
         style="line-height:116.99999571%;font-family:Aleo;-inkscape-font-specification:Aleo Light"
         id="path7136" />
      <path
         d="m 1426.5318,699.25079 0,-1.38936 c 0,-0.82494 -0.4776,-1.21569 -1.4328,-1.25911 -0.6078,-0.0434 -4.6023,-0.26051 -12.0267,-0.60785 l 0,-58.44014 -3.2129,0 -17.7144,15.71719 1.2591,1.7367 c 0.2605,0.34734 0.6079,0.52101 1.1289,0.52101 0.3907,0 0.7381,-0.13025 1.042,-0.39076 l 13.5463,-12.02668 c -0.087,1.08544 -0.1302,2.12746 -0.1737,3.12607 l 0,49.75661 c 0,0 -0.9986,0.0434 -2.9958,0.13025 -1.9972,0.0868 -4.0378,0.21709 -6.1219,0.30393 -2.1274,0.0868 -3.2997,0.13025 -3.5602,0.17367 -0.9552,0.0434 -1.4328,0.43417 -1.4328,1.25911 l 0,1.38936 31.6949,0"
         style="line-height:116.99999571%;font-family:Aleo;-inkscape-font-specification:Aleo Light"
         id="path7138" />
      <path
         d="m 860.07419,789.21213 c -1.17227,0 -1.82354,0.69469 -1.86696,2.08405 0,0.13025 -0.0434,0.34734 -0.0868,0.7381 -0.0434,0.34734 -0.13025,0.95519 -0.17367,1.78012 -0.0868,0.82494 -0.17367,1.86696 -0.21709,3.12607 l -23.57578,0 c -1.04202,0 -2.04063,0.0868 -3.03923,0.17367 -0.99861,0.13026 -1.9538,0.30393 -2.86556,0.52101 l 19.23401,-19.62477 c 1.7367,-1.78012 3.42999,-3.56024 5.03644,-5.25353 1.60646,-1.7367 2.99582,-3.47341 4.25493,-5.29695 1.2157,-1.86696 2.17089,-3.73392 2.86557,-5.73113 0.69468,-1.99721 1.08544,-4.12468 1.08544,-6.42581 0,-2.82214 -0.4776,-5.21012 -1.43278,-7.29416 -0.95519,-2.08405 -2.25772,-3.77734 -3.86417,-5.1667 -1.64987,-1.38937 -3.51683,-2.38797 -5.6443,-3.08266 -2.12746,-0.69468 -4.38518,-0.9986 -6.68631,-0.9986 -2.51822,0 -4.86278,0.34734 -7.03366,1.08544 -2.17088,0.7381 -4.08126,1.82354 -5.73113,3.25632 -1.64987,1.38937 -3.03923,3.12607 -4.12467,5.21012 -1.08544,2.04063 -1.78013,4.38518 -2.12747,7.03366 l 2.08405,0.34734 c 0.0434,0 0.0868,0 0.21709,0 0.0434,0 0.13025,0 0.21709,0.0434 0.86835,0 1.43278,-0.52102 1.7367,-1.51962 0.30392,-1.73671 0.86835,-3.34316 1.69329,-4.81936 0.82493,-1.4762 1.86696,-2.73531 3.12607,-3.77733 1.25911,-1.04203 2.69189,-1.86696 4.34176,-2.47481 1.64987,-0.60785 3.43,-0.86835 5.34037,-0.86835 1.82354,0 3.51683,0.2605 5.1667,0.78152 1.64987,0.52101 3.08265,1.30253 4.34176,2.38797 1.25911,1.04202 2.25772,2.43138 2.99582,4.08125 0.78152,1.64987 1.12886,3.64709 1.12886,5.9048 0,1.99721 -0.30392,3.86417 -0.91177,5.64429 -0.60785,1.73671 -1.4762,3.47342 -2.56164,5.1667 -1.08544,1.64987 -2.38797,3.34316 -3.86417,4.99303 -1.4762,1.64987 -3.08266,3.34316 -4.81936,5.12328 l -20.97072,21.23123 c -0.21709,0.21709 -0.39076,0.47759 -0.56443,0.82493 -0.17367,0.34734 -0.21709,0.65127 -0.21709,0.99861 l 0,1.43278 39.59689,0 0,-1.82354 0,-0.56443 0,-9.24796 c 0,0 -0.13025,0 -0.43418,0 -0.30392,0 -0.86835,0 -1.64987,0"
         style="font-weight:300;text-align:start;line-height:116.99999571%;writing-mode:lr-tb;text-anchor:start;font-family:Aleo;-inkscape-font-specification:Aleo Light"
         id="path7140" />
      <path
         d="m 914.21188,770.10837 c 0,-5.38378 -0.56443,-10.02947 -1.73671,-13.98048 -1.12885,-3.90758 -2.69189,-7.16391 -4.73252,-9.76896 -1.99721,-2.56164 -4.29835,-4.47202 -6.99024,-5.73113 -2.69189,-1.25911 -5.51404,-1.91038 -8.55327,-1.91038 -3.03923,0 -5.9048,0.65127 -8.55328,1.91038 -2.69189,1.25911 -4.99303,3.16949 -6.99024,5.77454 -1.99721,2.56164 -3.60366,5.81797 -4.73252,9.76897 -1.12886,3.90759 -1.69329,8.55328 -1.69329,13.93706 0,5.38378 0.56443,10.0729 1.69329,13.98048 1.12886,3.951 2.73531,7.20733 4.73252,9.76897 1.99721,2.60506 4.29835,4.51544 6.99024,5.77455 2.64848,1.25911 5.51405,1.86695 8.55328,1.86695 3.03923,0 5.86138,-0.60784 8.55327,-1.86695 2.69189,-1.25911 5.03645,-3.16949 7.03366,-5.77455 1.99721,-2.56164 3.56025,-5.81797 4.73252,-9.76897 1.12886,-3.90758 1.69329,-8.5967 1.69329,-13.98048 m -4.34176,0 c 0,5.03644 -0.4776,9.29138 -1.43279,12.80821 -0.95518,3.51682 -2.2143,6.38239 -3.82075,8.64011 -1.60645,2.25771 -3.47341,3.86417 -5.64429,4.90619 -2.17088,1.04202 -4.4286,1.56303 -6.81657,1.56303 -2.34455,0 -4.60227,-0.52101 -6.77315,-1.56303 -2.12746,-1.04202 -3.99442,-2.64848 -5.64429,-4.90619 -1.60645,-2.25772 -2.90899,-5.12329 -3.86417,-8.64011 -0.95519,-3.51683 -1.43279,-7.77177 -1.43279,-12.80821 0,-4.9496 0.4776,-9.20454 1.43279,-12.76478 0.95518,-3.51683 2.25772,-6.3824 3.86417,-8.64011 1.64987,-2.25772 3.51683,-3.86417 5.64429,-4.94961 2.17088,-1.04202 4.4286,-1.56304 6.77315,-1.56304 2.38797,0 4.64569,0.52102 6.81657,1.56304 2.17088,1.04202 4.03784,2.69189 5.64429,4.94961 1.60645,2.25771 2.86557,5.12328 3.82075,8.64011 0.95519,3.56024 1.43279,7.81518 1.43279,12.76478"
         style="font-weight:300;text-align:start;line-height:116.99999571%;writing-mode:lr-tb;text-anchor:start;font-family:Aleo;-inkscape-font-specification:Aleo Light"
         id="path7142" />
      <path
         d="m 957.03935,800.84806 0,-1.38936 c 0,-0.82494 -0.47759,-1.2157 -1.43278,-1.25912 -0.60785,-0.0434 -4.60228,-0.2605 -12.02669,-0.60784 l 0,-58.44014 -3.2129,0 -17.7144,15.71718 1.25911,1.73671 c 0.26051,0.34734 0.60785,0.52101 1.12886,0.52101 0.39076,0 0.7381,-0.13025 1.04203,-0.39076 l 13.5463,-12.02668 c -0.0868,1.08544 -0.13025,2.12746 -0.17367,3.12607 l 0,49.75661 c 0,0 -0.99861,0.0434 -2.99582,0.13025 -1.99721,0.0868 -4.03784,0.21709 -6.12189,0.30392 -2.12746,0.0868 -3.29974,0.13026 -3.56024,0.17367 -0.95519,0.0434 -1.43278,0.43418 -1.43278,1.25912 l 0,1.38936 31.69487,0"
         style="font-weight:300;text-align:start;line-height:116.99999571%;writing-mode:lr-tb;text-anchor:start;font-family:Aleo;-inkscape-font-specification:Aleo Light"
         id="path7144" />
      <path
         d="m 998.56293,741.19223 0,-1.78013 -27.61362,0 -4.81936,27.22286 2.69189,0.82494 c 2.08405,-0.56443 4.08126,-0.95519 5.9048,-1.25911 1.86696,-0.26051 3.60367,-0.39076 5.25354,-0.39076 2.73531,0 5.12328,0.39076 7.12049,1.12886 1.99721,0.73809 3.6905,1.78012 4.99303,3.08265 1.30253,1.30253 2.30113,2.90898 2.9524,4.73252 0.65126,1.86696 0.95519,3.90759 0.95519,6.12189 0.0434,2.69189 -0.39076,5.07986 -1.25912,7.20732 -0.86835,2.12747 -2.04063,3.90759 -3.56024,5.38379 -1.51962,1.43278 -3.29975,2.51823 -5.34037,3.29974 -2.08405,0.78152 -4.29835,1.17228 -6.6429,1.17228 -2.04063,0 -3.82075,-0.21709 -5.34037,-0.65127 -1.51962,-0.43417 -2.82215,-0.91177 -3.951,-1.43278 -1.12886,-0.52101 -2.04063,-0.9986 -2.73532,-1.43278 -0.69468,-0.43418 -1.25911,-0.65126 -1.60645,-0.65126 -0.56443,0 -0.9986,0.21708 -1.25911,0.65126 l -1.21569,1.69329 c 0.86835,0.69468 1.86696,1.34595 2.99581,2.04063 1.12886,0.65126 2.34456,1.21569 3.73392,1.7367 1.34595,0.52101 2.77873,0.91177 4.29835,1.2157 1.56303,0.30392 3.16949,0.47759 4.86277,0.47759 2.90898,0 5.6443,-0.4776 8.20593,-1.43278 2.60506,-0.95519 4.86278,-2.34456 6.77316,-4.12468 1.91037,-1.82354 3.42999,-3.99442 4.55885,-6.55606 1.12886,-2.56164 1.69329,-5.47063 1.69329,-8.68353 0,-2.69189 -0.39076,-5.12328 -1.25912,-7.381 -0.82493,-2.25771 -2.04063,-4.21151 -3.69049,-5.86138 -1.64987,-1.64987 -3.69051,-2.90898 -6.12189,-3.82075 -2.43139,-0.91177 -5.21012,-1.34595 -8.42302,-1.34595 -1.56304,0 -3.21291,0.0868 -4.94961,0.30393 -1.73671,0.21709 -3.60367,0.56443 -5.51404,1.08544 l 3.6905,-20.49313 22.22983,0 c 0.82493,0 1.43278,-0.21709 1.82354,-0.60784 0.39075,-0.39076 0.56443,-0.86836 0.56443,-1.4762"
         style="font-weight:300;text-align:start;line-height:116.99999571%;writing-mode:lr-tb;text-anchor:start;font-family:Aleo;-inkscape-font-specification:Aleo Light"
         id="path7146" />
      <path
         d="m 862.28849,845.78531 c -3.69049,-3.16948 -9.11771,-4.73252 -16.32503,-4.73252 l -14.93567,0 -7.29416,0 0,1.69329 c 0,0.9986 0.56443,1.4762 1.69329,1.56303 0.13025,0 0.39076,0 0.82493,0 0.43418,0.0434 1.08545,0.0434 1.9538,0.0868 0.82493,0 1.78012,0.0434 2.82214,0.0868 l 0,54.53255 c -1.04202,0.0434 -1.99721,0.0868 -2.82214,0.0868 -0.86835,0.0434 -1.51962,0.0434 -1.9538,0.0868 -0.43417,0 -0.69468,0 -0.82493,0 -1.12886,0.0868 -1.69329,0.56443 -1.69329,1.56304 l 0,1.69329 7.29416,0 4.4286,0 7.29417,0 0,-1.69329 c 0,-0.99861 -0.56443,-1.4762 -1.69329,-1.56304 -0.13025,0 -0.43418,0 -0.82494,0 -0.43417,-0.0434 -1.08544,-0.0434 -1.95379,-0.0868 -0.82493,0 -1.78012,-0.0434 -2.82215,-0.0868 l 0,-21.31806 10.50707,0 c 3.38657,0 6.42581,-0.43417 9.1177,-1.34594 2.6919,-0.91177 4.99303,-2.17089 6.85999,-3.82076 1.91038,-1.64986 3.34316,-3.60366 4.34177,-5.81796 0.9986,-2.30113 1.47619,-4.73252 1.47619,-7.42441 0,-5.86138 -1.82354,-10.37682 -5.47062,-13.50289 m -0.13025,19.40768 c -0.82493,1.82354 -1.9538,3.38658 -3.42999,4.68911 -1.51962,1.34594 -3.29975,2.38797 -5.47063,3.12607 -2.12746,0.78152 -4.55885,1.12886 -7.29416,1.12886 l -10.50707,0 0,-29.56741 10.50707,0 c 5.77454,0 10.11631,1.25911 13.02529,3.77733 2.90898,2.56164 4.34177,6.20873 4.34177,10.89783 0,2.17088 -0.39076,4.12468 -1.17228,5.94821"
         style="font-weight:300;text-align:start;line-height:116.99999571%;writing-mode:lr-tb;text-anchor:start;font-family:Aleo;-inkscape-font-specification:Aleo Light"
         id="path7148" />
      <path
         d="m 925.61661,899.189 c -0.13025,0 -0.30393,0 -0.56443,0 -0.26051,0 -0.65127,-0.0434 -1.12886,-0.0434 -0.52101,0 -1.04202,-0.0434 -1.56303,-0.0434 l -18.4525,-23.22844 c -0.56443,-0.69468 -1.17228,-1.30253 -1.86696,-1.7367 2.69189,-0.26051 5.07987,-0.86836 7.25075,-1.82354 2.12746,-0.95519 3.951,-2.12747 5.47062,-3.60367 1.51961,-1.4762 2.69189,-3.16949 3.51683,-5.12328 0.78151,-1.91037 1.21569,-4.08126 1.21569,-6.42581 0,-5.25353 -1.78012,-9.29138 -5.25353,-12.02668 -3.51683,-2.73531 -8.81379,-4.08126 -15.89086,-4.08126 l -14.93566,0 -7.29417,0 0,1.69329 c 0,0.9986 0.56443,1.4762 1.69329,1.56303 0.13025,0 0.39076,0 0.82494,0 0.43417,0 1.08544,0.0434 1.95379,0.0868 0.82493,0 1.78012,0.0434 2.82215,0.0868 l 0,54.53255 c -1.04203,0.0434 -1.99722,0.0868 -2.82215,0.0868 -0.86835,0.0434 -1.51962,0.0434 -1.95379,0.0868 -0.43418,0 -0.69469,0 -0.82494,0 -1.12886,0.0868 -1.69329,0.56443 -1.69329,1.56304 l 0,1.69329 7.29417,0 4.42859,0 7.29417,0 0,-1.69329 c 0,-0.99861 -0.56443,-1.4762 -1.73671,-1.56304 -0.0868,0 -0.39076,0 -0.78152,0 -0.43417,-0.0434 -1.08544,-0.0434 -1.95379,-0.0868 -0.86835,0 -1.78012,-0.0434 -2.82215,-0.0868 l 0,-24.35729 7.29417,0 c 1.17227,0 2.04063,0.13025 2.60506,0.39076 0.56442,0.2605 1.08544,0.7381 1.60645,1.34594 l 19.66819,24.92173 c 0.30392,0.43417 0.60784,0.69468 0.95519,0.86835 0.34734,0.17367 0.7381,0.26051 1.21569,0.26051 l 0.43418,0 3.42999,0 2.25772,0 0,-1.69329 c 0,-0.99861 -0.56443,-1.4762 -1.69329,-1.56304 m -27.83071,-27.8307 -9.94264,0 0,-26.78868 10.50707,0 c 5.47062,0 9.63872,1.04202 12.50428,3.16948 2.86556,2.08405 4.29835,5.34038 4.29835,9.72555 0,2.12747 -0.39076,4.03785 -1.17228,5.73113 -0.78151,1.73671 -1.95379,3.16949 -3.42999,4.38518 -1.4762,1.25911 -3.29974,2.17089 -5.47062,2.82215 -2.17088,0.65126 -4.60228,0.95519 -7.29417,0.95519"
         style="font-weight:300;text-align:start;line-height:116.99999571%;writing-mode:lr-tb;text-anchor:start;font-family:Aleo;-inkscape-font-specification:Aleo Light"
         id="path7150" />
      <path
         d="m 992.37394,898.71141 -2.82215,-0.26051 -23.48894,-57.44153 -4.4286,0 -23.48894,57.44153 -2.82215,0.26051 c -1.12886,0.13025 -1.64987,0.7381 -1.64987,1.73671 l 0,1.99721 2.82215,0 1.78012,0 1.60645,0 0.60785,0 8.16252,0 0,-1.99721 c 0,-1.08544 -0.69469,-1.69329 -1.99721,-1.73671 -0.13026,-0.0434 -0.30393,-0.0434 -0.56443,-0.0434 -0.21709,-0.0434 -0.65127,-0.0434 -1.2157,-0.0868 -0.56443,-0.0434 -1.30253,-0.0868 -2.2143,-0.13026 l 6.07847,-15.0225 0.43418,-1.08544 29.3069,0 0.43418,1.08544 6.07847,15.0225 c -0.86835,0.0434 -1.60645,0.0868 -2.17088,0.13026 -0.60785,0.0434 -0.99861,0.0434 -1.25911,0.0868 -0.21709,0 -0.39076,0 -0.52102,0.0434 -1.34594,0.0434 -1.99721,0.65127 -1.99721,1.73671 l 0,1.99721 8.16252,0 0.56443,0 1.64987,0 1.78012,0 2.82215,0 0,-1.99721 c 0,-0.99861 -0.56443,-1.60646 -1.64987,-1.73671 m -29.74108,-49.58294 c 0.21708,-0.52101 0.39075,-1.08544 0.60784,-1.69329 0.21709,-0.60785 0.39076,-1.30253 0.60785,-1.99721 0.17367,0.69468 0.39076,1.34595 0.60785,1.99721 0.21708,0.60785 0.39076,1.17228 0.60784,1.64987 l 12.11352,29.95817 -26.65842,0 12.11352,-29.91475"
         style="font-weight:300;text-align:start;line-height:116.99999571%;writing-mode:lr-tb;text-anchor:start;font-family:Aleo;-inkscape-font-specification:Aleo Light"
         id="path7152" />
      <path
         d="m 1031.702,874.5712 0,2.43139 c 0,0.30392 0.1302,0.52101 0.3473,0.69468 0.2171,0.21709 0.4776,0.30393 0.7815,0.34734 l 11.8096,0 0,16.49871 c -1.3459,0.82493 -2.6919,1.51961 -4.0378,2.12746 -1.3459,0.60785 -2.7787,1.12886 -4.2549,1.56304 -1.4762,0.47759 -3.1261,0.78151 -4.8628,0.9986 -1.6933,0.21709 -3.6471,0.30392 -5.7745,0.30392 -3.7774,0 -7.2508,-0.60784 -10.3769,-1.91037 -3.126,-1.25911 -5.8179,-3.08266 -8.0756,-5.47062 -2.2578,-2.38797 -3.9945,-5.29696 -5.2536,-8.77037 -1.2157,-3.42999 -1.8669,-7.29416 -1.8669,-11.63592 0,-4.25493 0.6512,-8.1191 1.8669,-11.50568 1.2157,-3.42999 2.9958,-6.33897 5.2536,-8.68352 2.2577,-2.38797 4.993,-4.21152 8.2059,-5.47063 3.2563,-1.30252 6.86,-1.91037 10.811,-1.91037 7.2941,0 13.0687,0.99861 17.3236,2.99581 0.3039,5.60087 0.4342,8.72695 0.4776,9.3348 0.043,1.38936 0.6947,2.08404 1.867,2.08404 l 2.1274,0 0,-13.85022 c -2.7353,-1.2157 -6.2521,-2.25772 -10.5504,-3.12607 -4.2984,-0.86835 -7.9889,-1.25911 -11.115,-1.25911 -4.6891,0 -8.944,0.7381 -12.7647,2.2143 -3.8208,1.47619 -7.0337,3.60366 -9.7256,6.33897 -2.6485,2.73531 -4.68911,6.03506 -6.1653,9.89922 -1.43278,3.86417 -2.12747,8.16252 -2.12747,12.89504 0,4.77593 0.69469,9.07429 2.12747,12.93846 1.47619,3.90758 3.5168,7.20733 6.1219,9.94263 2.605,2.73531 5.7745,4.86278 9.4216,6.33898 3.6471,1.4762 7.6849,2.2143 12.1135,2.2143 2.6051,0 4.9496,-0.13025 7.1205,-0.43418 2.2143,-0.30392 4.2115,-0.7381 6.0785,-1.30253 1.9104,-0.56443 3.6905,-1.25911 5.2969,-2.12746 1.6499,-0.82494 3.2564,-1.78013 4.776,-2.86556 l 0,-21.83908 -16.9763,0"
         style="font-weight:300;text-align:start;line-height:116.99999571%;writing-mode:lr-tb;text-anchor:start;font-family:Aleo;-inkscape-font-specification:Aleo Light"
         id="path7154" />
      <path
         d="m 1112.0044,841.05279 -4.4286,0 -8.423,0 0,1.69329 c 0,0.9986 0.6078,1.4762 1.7367,1.56303 0.1302,0 0.4776,0 1.0854,0 0.6079,0.0434 1.4328,0.0434 2.4748,0.0868 1.042,0 2.0841,0.0434 3.1261,0.0868 l 0,34.56044 c 0,2.82214 -0.4342,5.51404 -1.3025,7.98885 -0.825,2.4748 -2.0841,4.64568 -3.6905,6.46922 -1.6065,1.82354 -3.6037,3.21291 -5.9483,4.25493 -2.3011,1.04202 -4.9496,1.56304 -7.902,1.56304 -2.9524,0 -5.6008,-0.52102 -7.9454,-1.56304 -2.3011,-1.04202 -4.2983,-2.47481 -5.9048,-4.29834 -1.6064,-1.86696 -2.8221,-3.99443 -3.6905,-6.46923 -0.8249,-2.4748 -1.2591,-5.12329 -1.2591,-7.98885 l 0,-34.51702 c 1.042,-0.0434 2.084,-0.0868 3.1261,-0.0868 1.042,-0.0434 1.8669,-0.0434 2.4748,-0.0868 0.6078,0 0.9552,0 1.0854,0 1.1289,-0.0868 1.7367,-0.56443 1.7367,-1.56303 l 0,-1.69329 -8.423,0 -4.472,0 -7.2942,0 0,1.69329 c 0,0.9986 0.5644,1.4762 1.6933,1.56303 0.1303,0 0.3908,0 0.8249,0 0.4342,0.0434 1.0855,0.0434 1.9538,0.0868 0.825,0 1.7802,0.0434 2.8222,0.0868 l 0,34.56044 c 0,3.38657 0.521,6.51265 1.6064,9.46505 1.0855,2.95239 2.6051,5.51404 4.6023,7.68492 2.0406,2.17088 4.472,3.90759 7.3376,5.1667 2.909,1.21569 6.1219,1.82354 9.7255,1.82354 3.6037,0 6.8166,-0.60785 9.6822,-1.82354 2.9089,-1.25911 5.3403,-2.99582 7.3375,-5.1667 2.0407,-2.17088 3.5603,-4.73253 4.6457,-7.68492 1.0855,-2.9524 1.6065,-6.07848 1.6065,-9.46505 l 0,-34.56044 c 1.042,-0.0434 1.9972,-0.0868 2.8221,-0.0868 0.8684,-0.0434 1.5196,-0.0434 1.9538,-0.0868 0.3908,0 0.6947,0 0.825,0 1.1288,-0.0868 1.6932,-0.56443 1.6932,-1.56303 l 0,-1.69329 -7.2941,0"
         style="font-weight:300;text-align:start;line-height:116.99999571%;writing-mode:lr-tb;text-anchor:start;font-family:Aleo;-inkscape-font-specification:Aleo Light"
         id="path7156" />
      <path
         d="m 1135.1013,841.05279 -7.2942,0 0,1.69329 c 0,0.9986 0.5644,1.4762 1.6933,1.56303 0.1303,0 0.3908,0 0.8249,0 0.4342,0 1.0855,0.0434 1.9538,0.0868 0.825,0 1.7802,0.0434 2.8222,0.0868 l 0,54.53255 c -1.042,0.0434 -1.9972,0.0868 -2.8222,0.0868 -0.8683,0.0434 -1.5196,0.0434 -1.9538,0.0868 -0.4341,0 -0.6946,0 -0.8249,0 -1.1289,0.0868 -1.6933,0.56443 -1.6933,1.56304 l 0,1.69329 7.2942,0 36.8181,0 0,-3.6905 0,-9.03087 -2.1274,0 c -1.1723,0 -1.7802,0.7381 -1.867,2.12746 0,0.17367 0,0.52102 -0.043,1.12886 -0.043,0.56443 -0.087,1.4762 -0.1303,2.77873 -0.087,1.25911 -0.1302,2.25772 -0.1736,2.99582 l -28.0044,0 0,-25.61641 24.4441,0 0,-3.60366 -24.4441,0 0,-24.79147 28.0044,0 c 0.2171,3.77733 0.3039,6.12188 0.3473,6.9034 0.087,1.38936 0.6947,2.12747 1.867,2.12747 l 2.1274,0 0,-9.03087 0,-3.6905 -36.8181,0"
         style="font-weight:300;text-align:start;line-height:116.99999571%;writing-mode:lr-tb;text-anchor:start;font-family:Aleo;-inkscape-font-specification:Aleo Light"
         id="path7158" />
    </g>
  </g>
</svg>
