<svg viewBox="0 55 660 231" fill="none" xmlns="http://www.w3.org/2000/svg">

	<defs>
	
    <style type="text/css">
      <![CDATA[
        @import url(/_static/survey/css/2024-svg.css);
      ]]>
    </style>
    
  </defs>

  <g id="2024-salary-satisfaction">

    <g class="title">
      <text font-size="14"><tspan x="40" y="33">Salary satisfaction</tspan></text>
      <text font-size="12" class="subtitle"><tspan x="40" y="49">Employees</tspan></text>
    </g>

    <g class="donut-chart">

      <path d="M180.5 262.061C180.499 259.261 180.576 256.461 180.732 253.665L270.593 258.666C270.53 259.784 270.5 260.904 270.5 262.024L180.5 262.061Z" fill="#C2255C" stroke="white" stroke-width="2"/>
      <path d="M180.74 253.516C181.727 236.1 185.744 218.989 192.611 202.953L275.344 238.381C272.598 244.796 270.991 251.64 270.596 258.606L180.74 253.516Z" fill="#E4774E" stroke="white" stroke-width="2"/>
      <path d="M192.67 202.815C202.165 180.703 216.841 161.199 235.46 145.951L292.484 215.581C285.037 221.68 279.166 229.481 275.368 238.326L192.67 202.815Z" fill="#E9C168" stroke="white" stroke-width="2"/>
      <path d="M235.575 145.857C263.835 122.76 299.545 110.759 336.018 112.102C372.491 113.444 407.222 128.039 433.707 153.15L371.783 218.46C361.189 208.415 347.296 202.578 332.707 202.041C318.118 201.504 303.834 206.304 292.53 215.543L235.575 145.857Z" fill="#82A555" stroke="white" stroke-width="2"/>
      <path d="M433.816 153.254C448.547 167.249 460.281 184.092 468.306 202.759C476.331 221.427 480.48 241.531 480.5 261.85L390.5 261.94C390.492 253.812 388.833 245.771 385.623 238.304C382.413 230.837 377.719 224.1 371.827 218.502L433.816 153.254Z" fill="#087F5B" stroke="white" stroke-width="2"/>
      <path d="M142.561 256C147.559 256.13 173.418 258.842 175.407 259.051L177.396 259.259" stroke="#252521" stroke-dasharray="1 3"/>
      <path d="M146.25 219.981C151.113 221.142 175.852 229.142 177.755 229.758L179.658 230.373" stroke="#252521" stroke-dasharray="1 3"/>
      <path d="M178.842 150C183.786 150.747 203.676 167.493 205.206 168.781L206.736 170.069" stroke="#252521" stroke-dasharray="1 3"/>
      <path d="M387.045 89C382.378 90.793 366.555 111.424 365.338 113.011L364.121 114.598" stroke="#252521" stroke-dasharray="1 3"/>
      <path d="M498.675 181.896C493.847 180.594 473.613 196.921 472.057 198.177L470.5 199.432" stroke="#252521" stroke-dasharray="1 3"/>
      <text font-size="14" class="value-labels-inner"><tspan x="193" y="239">11.1%</tspan></text>
      <text font-size="14" class="value-labels-inner"><tspan x="216" y="188">15.3%</tspan></text>
      <text font-size="14" class="value-labels-inner"><tspan x="340" y="138">46%</tspan></text>
      <text font-size="14" class="value-labels-inner reverse"><tspan x="419" y="217">25.8%</tspan></text>
      <text font-size="10"><tspan x="39" y="259">Very unsatisfied (1.8%)</tspan></text>
      <text font-size="10"><tspan x="91" y="223">Unsatisfied</tspan></text>
      <text font-size="10"><tspan x="140" y="152">Neutral</tspan></text>
      <text font-size="10"><tspan x="392" y="91">Satisfied</tspan></text>
      <text font-size="10"><tspan x="504" y="183">Very satisfied</tspan></text>

    </g>

  </g>

</svg>