<svg viewBox="0 55 660 300" fill="none" xmlns="http://www.w3.org/2000/svg">

  <defs>
    <style type="text/css">
      <![CDATA[
        @import url(/_static/survey/css/2024-svg.css);
      ]]>
    </style>
    
  </defs>

	<g id="2024-hours-worked">

		<g class="title">
			<text font-size="14"><tspan x="40" y="33">Salary decrease reasons&#10;</tspan></text>
			<text font-size="12" class="subtitle"><tspan x="40" y="49">Employees</tspan></text>
		</g>

		<g class="bar-chart-vertical">

			<g class="y-axis">

				<g class="gridlines">
					<path d="M68 316.5H620"/>
          <path d="M68 223.5H620"/>
          <path d="M68 131.5H620"/>
				</g>

				<g class="axis-labels">
					<text font-size="10"><tspan x="46" y="319">0%</tspan></text>
          <text font-size="10"><tspan x="41" y="227">20%</tspan></text>
          <text font-size="10"><tspan x="41" y="134">40%</tspan></text>
				</g>

			</g>

			<g class="data-series">
			
				<g class="a">

					<g class="axis-labels">
						<text font-size="10"><tspan x="98" y="333">New position</tspan></text>
            <text font-size="10"><tspan x="209" y="333">Redundancy</tspan></text>
            <text font-size="10"><tspan x="329" y="333">Org cuts</tspan></text>
            <text font-size="10"><tspan x="431" y="333">Termination</tspan></text>
            <text font-size="10"><tspan x="553" y="333">Other</tspan></text>
					</g>

					<g class="bars">
						<path d="M168 84H77V316H168V84Z"/>
            <path d="M278 219H187V316H278V219Z"/>
            <path d="M389 258H298V316H389V258Z"/>
            <path d="M499 278H408V316H499V278Z"/>
            <path d="M609 278H518V316H609V278Z"/>
					</g>

					<g class="value-labels-inner">
						<text font-size="10"><tspan x="114" y="103">50%&#x200b;</tspan></text>
            <text font-size="10"><tspan x="224" y="238">21%&#x200b;</tspan></text>
            <text font-size="10"><tspan x="335" y="277">13%&#x200b;</tspan></text>
            <text font-size="10"><tspan x="447" y="297">8%&#x200b;</tspan></text>
            <text font-size="10"><tspan x="557" y="297">8%&#x200b;</tspan></text>
					</g>

				</g>

			</g>

			<g class="legend">
			
			</g>

		</g>

	</g>

</svg>
