<svg viewBox="0 55 660 387" fill="none" xmlns="http://www.w3.org/2000/svg">

	<defs>
	
    <style type="text/css">
      <![CDATA[
        @import url(/_static/survey/css/2024-svg.css);
      ]]>
    </style>
    
  </defs>
 
  <g id="2024-work-location">

    <g class="title">
      <text font-size="14"><tspan x="40" y="33">Work location</tspan></text>
      <text font-size="12" class="subtitle"><tspan x="40" y="49">Employees and contractors combined</tspan></text>
    </g>

    <g class="donut-chart">

      <path d="M329.969 111C352.78 110.995 375.291 116.193 395.791 126.198C416.29 136.203 434.238 150.751 448.269 168.737C462.299 186.722 472.043 207.67 476.759 229.988C481.475 252.306 481.039 275.405 475.484 297.529L388.194 275.612C390.416 266.762 390.59 257.522 388.704 248.595C386.817 239.668 382.92 231.289 377.307 224.095C371.695 216.901 364.516 211.081 356.316 207.079C348.117 203.077 339.112 200.998 329.988 201L329.969 111Z" fill="#00AEFF" stroke="white" stroke-width="2"/>
      <path d="M475.448 297.674C469.657 320.64 458.51 341.909 442.919 359.738C427.328 377.568 407.737 391.453 385.749 400.255C363.761 409.058 340.001 412.529 316.413 410.383C292.826 408.238 270.081 400.538 250.042 387.912L298.017 311.765C306.033 316.815 315.13 319.895 324.565 320.753C334 321.612 343.504 320.223 352.3 316.702C361.095 313.181 368.931 307.627 375.168 300.495C381.404 293.363 385.863 284.856 388.179 275.67L475.448 297.674Z" fill="#7EA4FF" stroke="white" stroke-width="2"/>
      <path d="M249.915 387.832C228.344 374.211 210.602 355.314 198.369 332.926C186.136 310.538 179.815 285.4 180.004 259.889C180.193 234.378 186.886 209.336 199.449 187.132C212.013 164.928 230.032 146.295 251.803 132.995L298.721 209.798C290.013 215.118 282.805 222.571 277.78 231.453C272.754 240.334 270.077 250.351 270.002 260.555C269.926 270.76 272.454 280.815 277.348 289.77C282.241 298.725 289.337 306.285 297.966 311.733L249.915 387.832Z" fill="#FC82E1" stroke="white" stroke-width="2"/>
      <path d="M251.931 132.917C260.777 127.526 270.157 123.065 279.922 119.606L309.969 204.443C306.063 205.826 302.311 207.61 298.772 209.767L251.931 132.917Z" fill="#FF7781" stroke="white" stroke-width="2"/>
      <path d="M280.063 119.556C296.037 113.917 312.851 111.024 329.792 111L329.917 201C323.141 201.009 316.415 202.167 310.025 204.422L280.063 119.556Z" fill="#FFA600" stroke="white" stroke-width="2"/>
      <path d="M491.532 168C486.532 168 461.804 176.034 459.902 176.652L458 177.271" stroke="#252521" stroke-dasharray="1 3"/>
      <path d="M436.397 413.021C431.397 413.021 416.115 391.986 414.939 390.368L413.764 388.75" stroke="#252521" stroke-dasharray="1 3"/>
      <path d="M169 350.271C174 350.271 189.282 329.236 190.458 327.618L191.634 326" stroke="#252521" stroke-dasharray="1 3"/>
      <path d="M278.55 86C283.55 86 298.832 107.034 300.008 108.652L301.183 110.271" stroke="#252521" stroke-dasharray="1 3"/>
      <path d="M233 107.023C238 107.023 260.169 120.608 261.874 121.653L263.579 122.698" stroke="#252521" stroke-dasharray="1 3"/>

      <text font-size="10"><tspan x="115" y="109">On-site (by choice) (3.3%)</tspan></text>
      <text font-size="10"><tspan x="190" y="81">On-site (required) (5.4%)</tspan></text>
      <text font-size="10"><tspan x="137" y="363">Hybrid</tspan></text>
      <text font-size="10"><tspan x="444" y="420">Remote (by choice)</tspan></text>
      <text font-size="10"><tspan x="495.211" y="170">Remote (required)</tspan></text>
      <text font-size="14" class="value-labels-inner"><tspan x="396" y="203">28.9%</tspan></text>      
      <text font-size="14" class="value-labels-inner"><tspan x="356" y="359">30%</tspan></text>
      <text font-size="14" class="value-labels-inner"><tspan x="214" y="269">32.3%</tspan></text>

    </g>

  </g>

</svg>
