<svg viewBox="0 55 660 325" fill="none" xmlns="http://www.w3.org/2000/svg">

	<defs>
	
    <style type="text/css">
      <![CDATA[
        @import url(/_static/survey/css/2024-svg.css);
      ]]>
    </style>
    
  </defs>

  <g id="2024-hours-worked">

    <g class="title">
      <text font-size="14"><tspan x="40" y="33">Earnings security confidence&#10;</tspan></text>
      <text font-size="12" class="subtitle"><tspan x="40" y="49">Contractors - as compared to the previous year</tspan></text>
    </g>

    <g class="donut-chart">

      <g class="same">
        <g class="slices">
          <path class="same" d="M442.766 148.164C464.062 173.55 474.407 206.352 471.528 239.361C468.648 272.371 452.781 302.887 427.412 324.202C402.044 345.518 369.25 355.889 336.238 353.036C303.226 350.183 272.698 334.34 251.362 308.988L308.745 260.695C317.279 270.836 329.491 277.173 342.696 278.314C355.9 279.455 369.018 275.307 379.165 266.781C389.313 258.255 395.66 246.048 396.811 232.845C397.963 219.641 393.825 206.52 385.307 196.366L442.766 148.164Z" fill="#00AEFF"/>
        </g>
        <g class="pointers">
          <path class="same" d="M456 349C451.47 349 436.329 331.667 435.165 330.333L434 329" stroke="#00AEFF" stroke-dasharray="1 3"/>   
        </g>  
        <g class="value-labels-inner">
          <text class="same" font-size="14"><tspan x="392" y="299">50%</tspan></text>
        </g>  
        <g class="value-labels-outer">
          <text class="same" font-size="10"><tspan x="463" y="358">Around the same</tspan></text>
        </g>
      </g>

      <g class="less">
        <g class="slices">
          <path class="less" d="M251.281 308.893C238.472 293.641 229.493 275.55 225.091 256.125C220.689 236.701 220.993 216.506 225.976 197.223C230.96 177.939 240.479 160.126 253.741 145.267C267.003 130.407 283.624 118.932 302.219 111.797L329.088 181.819C321.65 184.673 315.001 189.263 309.697 195.207C304.392 201.15 300.584 208.276 298.591 215.989C296.597 223.702 296.476 231.78 298.236 239.55C299.997 247.32 303.589 254.557 308.713 260.657L251.281 308.893Z" fill="#7EA4FF"/>
        </g>
        <g class="pointers">
          <path class="less" d="M193 191C197.26 191 218.701 197.067 220.351 197.533L222 198" stroke="#7EA4FF" stroke-dasharray="1 3"/>
        </g>  
        <g class="value-labels-inner">
          <text class="less" font-size="14"><tspan x="251" y="212">30.3%</tspan></text>
        </g>  
        <g class="value-labels-outer">
          <text class="less" font-size="10"><tspan x="122" y="194">Less confident&#x200b;</tspan></text>
        </g>
      </g>

      <g class="more">
        <g class="slices">
          <path class="more" d="M302.335 111.752C326.598 102.47 353.151 100.977 378.301 107.483C403.452 113.988 425.95 128.168 442.67 148.051L385.267 196.32C378.58 188.367 369.58 182.695 359.52 180.093C349.46 177.491 338.839 178.088 329.133 181.801L302.335 111.752Z" fill="#C595FF"/>
        </g>
        <g class="pointers">
          <path class="more" d="M394 79C389.611 79 383.881 101.533 383.441 103.267L383 105" stroke="#C595FF" stroke-dasharray="1 3"/>
        </g>  
        <g class="value-labels-inner">
          <text class="more" font-size="14"><tspan x="350" y="147">19.7%</tspan></text>
        </g>  
        <g class="value-labels-outer">
          <text class="more" font-size="10"><tspan x="399" y="81">More confident</tspan></text>
        </g>
      </g>

    </g>

  </g>

</svg>
