<svg viewBox="0 55 660 188" fill="none" xmlns="http://www.w3.org/2000/svg">

	<defs>
	
    <style type="text/css">
      <![CDATA[
        @import url(/_static/survey/css/2024-svg.css);
      ]]>
    </style>
    
  </defs>

  <g id="2024-feedback-survey-length">

    <g class="title">
      <text font-size="14"><tspan x="40" y="33">Survey feedback</tspan></text>
      <text font-size="12" class="subtitle"><tspan x="40" y="49">Length is appropriate</tspan></text>
    </g>

    <g class="donut-chart">

      <path d="M180 222.061C180 221.461 180.003 220.861 180.01 220.261L270.004 221.305C270.001 221.545 270 221.785 270 222.025L180 222.061Z" fill="#C2255C"/>
      <path d="M180.012 220.111C180.057 216.561 180.227 213.014 180.524 209.476L270.21 216.99C270.091 218.405 270.023 219.824 270.005 221.244L180.012 220.111Z" fill="#E4774E"/>
      <path d="M180 222.061C180 221.461 180.003 220.861 180.01 220.261L270.004 221.305C270.001 221.545 270 221.785 270 222.025L180 222.061Z" stroke="white" stroke-width="2"/>
      <path d="M180.012 220.111C180.057 216.561 180.227 213.014 180.524 209.476L270.21 216.99C270.091 218.405 270.023 219.824 270.005 221.244L180.012 220.111Z" stroke="white" stroke-width="2"/>
      <path d="M180.536 209.326C181.276 200.602 182.778 191.959 185.026 183.497L272.01 206.599C271.111 209.984 270.51 213.441 270.215 216.931L180.536 209.326Z" fill="#E9C168" stroke="white" stroke-width="2"/>
      <path d="M185.064 183.352C192.517 155.404 207.89 130.208 229.334 110.796C250.777 91.385 277.375 78.5873 305.924 73.9448L320.37 162.778C308.95 164.635 298.311 169.754 289.733 177.519C281.156 185.283 275.007 195.362 272.026 206.541L185.064 183.352Z" fill="#82A555" stroke="white" stroke-width="2"/>
      <path d="M306.072 73.9208C327.504 70.4577 349.432 71.6879 370.342 77.5266C391.251 83.3653 410.645 93.6732 427.182 107.738C443.719 121.804 457.006 139.291 466.125 158.993C475.244 178.694 479.978 200.14 480 221.85L390 221.94C389.991 213.256 388.098 204.678 384.45 196.797C380.802 188.916 375.488 181.921 368.873 176.295C362.258 170.669 354.501 166.546 346.137 164.211C337.773 161.875 329.001 161.383 320.429 162.768L306.072 73.9208Z" fill="#087F5B" stroke="white" stroke-width="2"/>
      <path d="M468.579 101C463.579 101 441.411 114.585 439.705 115.63L438 116.675" stroke="#252521" stroke-dasharray="1 3"/>
      <path d="M186 107C191 107 213.169 120.585 214.874 121.63L216.579 122.675" stroke="#252521" stroke-dasharray="1 3"/>
      <path d="M145 205C150 205 174.727 213.034 176.63 213.652L178.532 214.271" stroke="#252521" stroke-dasharray="1 3"/>
      <path d="M150.762 178.821C155.717 179.483 179.163 190.721 180.967 191.586L182.77 192.45" stroke="#252521" stroke-dasharray="1 3"/>
      <text font-size="10"><tspan x="473" y="103">Strongly agree</tspan></text>
      <text font-size="10"><tspan x="154" y="109">Agree</tspan></text>
      <text font-size="10"><tspan x="112" y="179">Neutral</tspan></text>
      <text font-size="10"><tspan x="54" y="199">Disagree / strongly</tspan><tspan x="72" y="210">disagree (2.7%)</tspan></text>
      <text font-size="14" class="value-labels-inner reverse"><tspan x="384" y="139">55.1%</tspan></text>
      <text font-size="14" class="value-labels-inner"><tspan x="229" y="144">36.6%</tspan></text>
      <text font-size="14" class="value-labels-inner"><tspan x="187" y="204">5.6%</tspan></text>

    </g>

  </g>

</svg>
