<svg viewBox="0 40 660 320" fill="none" xmlns="http://www.w3.org/2000/svg">

  <defs>
    <style type="text/css">
      <![CDATA[
        @import url(/_static/survey/css/2024-svg.css);
      ]]>
    </style>
    
  </defs>

	<g id="2024-hours-worked">

		<g class="bar-chart-vertical">

			<g class="y-axis">

				<g class="gridlines">
					<path d="M68.5 319.5H620.5"/>
					<path d="M68.5 242.5H620.5"/>
					<path d="M68.5 165.5H620.5"/>
					<path d="M68.5 87.5H620.5"/>
				</g> 

				<g class="axis-labels">
					<text font-size="10"><tspan x="46.4883" y="323.384">0%</tspan></text>
					<text font-size="10"><tspan x="40.4824" y="246.384">25%</tspan></text>
					<text font-size="10"><tspan x="40.4824" y="169.384">50%</tspan></text>
					<text font-size="10"><tspan x="40.4824" y="92.3843">75%</tspan></text>
				</g>

			</g>

			<g class="data-series">
			
				<g class="a">

					<g class="axis-labels">
						<text font-size="12"><tspan x="112.188" y="337.384">1-20</tspan></text>
						<text font-size="12"><tspan x="219.585" y="337.384">21-30</tspan></text>
						<text font-size="12"><tspan x="329.985" y="337.384">31-40</tspan></text>
						<text font-size="12"><tspan x="440.385" y="337.384">41-50</tspan></text>
						<text font-size="12"><tspan x="550.785" y="337.384">51-60</tspan></text>
					</g>

					<g class="bars">
						<path d="M174.5 314H72.5V320H174.5V314Z"/>
						<path d="M284.5 312H183.5V320H284.5V312Z"/>
						<path d="M395.5 110H293.5V320H395.5V110Z"/>
						<path d="M505.5 243H404.5V320H505.5V243Z"/>
						<path d="M616.5 313H514.5V320H616.5V313Z"/>
					</g>

					<g class="value-labels">
						
					</g>

				</g>

			</g>

			<g class="legend">
			
			</g>

		</g>

	</g>

</svg>
