<svg viewBox="0 55 660 403" fill="none" xmlns="http://www.w3.org/2000/svg">

  <defs>
    <style type="text/css">
      <![CDATA[
        @import url(/_static/survey/css/2024-svg.css);
      ]]>
    </style>
    
  </defs>

	<g id="2024-satisfaction-factors-contracts-contractors">

		<g class="title">
			<text font-size="14"><tspan x="40" y="33">Satisfaction factors: contracts and projects</tspan></text>
			<text font-size="12" class="subtitle"><tspan x="40" y="49">Contractors</tspan></text>
		</g>

		<g class="bar-chart-horizontal">

			<g class="legend">
        <path d="M212.5 425C212.5 426.591 213.132 428.117 214.257 429.243C215.383 430.368 216.909 431 218.5 431C220.091 431 221.617 430.368 222.743 429.243C223.868 428.117 224.5 426.591 224.5 425C224.5 423.409 223.868 421.883 222.743 420.757C221.617 419.632 220.091 419 218.5 419C216.909 419 215.383 419.632 214.257 420.757C213.132 421.883 212.5 423.409 212.5 425Z" fill="#E4774E"/>
        <path d="M297.264 425C297.264 426.591 297.896 428.117 299.022 429.243C300.147 430.368 301.673 431 303.264 431C304.855 431 306.382 430.368 307.507 429.243C308.632 428.117 309.264 426.591 309.264 425C309.264 423.409 308.632 421.883 307.507 420.757C306.382 419.632 304.855 419 303.264 419C301.673 419 300.147 419.632 299.022 420.757C297.896 421.883 297.264 423.409 297.264 425Z" fill="#E9C168"/>
        <path d="M374.913 425C374.913 426.591 375.545 428.117 376.67 429.243C377.795 430.368 379.321 431 380.913 431C382.504 431 384.03 430.368 385.155 429.243C386.28 428.117 386.913 426.591 386.913 425C386.913 423.409 386.28 421.883 385.155 420.757C384.03 419.632 382.504 419 380.913 419C379.321 419 377.795 419.632 376.67 420.757C375.545 421.883 374.913 423.409 374.913 425Z" fill="#82A555"/>
        <text font-size="10"><tspan x="228" y="428">Negative</tspan></text>
        <text font-size="10"><tspan x="313" y="428">Neutral</tspan></text>
        <text font-size="10"><tspan x="390" y="428">Positive</tspan></text>
      </g>
      <g>
        <text font-size="10"><tspan x="156" y="144">I have flexibility in my hours</tspan></text>
        <path d="M306.5 127H291.5C288.739 127 286.5 129.239 286.5 132V149C286.5 151.761 288.739 154 291.5 154H306.5C309.261 154 311.5 151.761 311.5 149V132C311.5 129.239 309.261 127 306.5 127Z" fill="#E4774E"/>
        <path d="M319.5 127H318.5C315.739 127 313.5 129.239 313.5 132V149C313.5 151.761 315.739 154 318.5 154H319.5C322.261 154 324.5 151.761 324.5 149V132C324.5 129.239 322.261 127 319.5 127Z" fill="#E9C168"/>
        <path d="M604.5 127H331.5C328.739 127 326.5 129.239 326.5 132V149C326.5 151.761 328.739 154 331.5 154H604.5C607.261 154 609.5 151.761 609.5 149V132C609.5 129.239 607.261 127 604.5 127Z" fill="#82A555"/>
        <text font-size="12" class="value-labels-inner"><tspan x="291" y="145">8%</tspan></text>
        <text font-size="12" class="value-labels-inner"><tspan x="455" y="145">88%</tspan></text>
      </g>
      <g>
        <text font-size="10"><tspan x="158" y="222">My workload is manageable</tspan></text>
        <path d="M295.5 205H294.5C291.739 205 289.5 207.239 289.5 210V227C289.5 229.761 291.739 232 294.5 232H295.5C298.261 232 300.5 229.761 300.5 227V210C300.5 207.239 298.261 205 295.5 205Z" fill="#E4774E"/>
        <path d="M326.5 205H307.5C304.739 205 302.5 207.239 302.5 210V227C302.5 229.761 304.739 232 307.5 232H326.5C329.261 232 331.5 229.761 331.5 227V210C331.5 207.239 329.261 205 326.5 205Z" fill="#E9C168"/>
        <path d="M607.5 205H338.5C335.739 205 333.5 207.239 333.5 210V227C333.5 229.761 335.739 232 338.5 232H607.5C610.261 232 612.5 229.761 612.5 227V210C612.5 207.239 610.261 205 607.5 205Z" fill="#82A555"/>
        <text font-size="12" class="value-labels-inner"><tspan x="307" y="223">10%</tspan></text>
        <text font-size="12" class="value-labels-inner"><tspan x="460" y="223">87%</tspan></text>
      </g>
      <g>
        <text font-size="10"><tspan x="48" y="256">I have opportunities</tspan><tspan x="312" y="267">for career advancement</tspan></text>
        <path d="M274.5 244H148.5C145.739 244 143.5 246.239 143.5 249V266C143.5 268.761 145.739 271 148.5 271H274.5C277.261 271 279.5 268.761 279.5 266V249C279.5 246.239 277.261 244 274.5 244Z" fill="#E4774E"/>
        <path d="M348.5 244H286.5C283.739 244 281.5 246.239 281.5 249V266C281.5 268.761 283.739 271 286.5 271H348.5C351.261 271 353.5 268.761 353.5 266V249C353.5 246.239 351.261 244 348.5 244Z" fill="#E9C168"/>
        <path d="M461.5 244H360.5C357.739 244 355.5 246.239 355.5 249V266C355.5 268.761 357.739 271 360.5 271H461.5C464.261 271 466.5 268.761 466.5 266V249C466.5 246.239 464.261 244 461.5 244Z" fill="#82A555"/>
        <text font-size="12" class="value-labels-inner"><tspan x="200" y="262">42%</tspan></text>
        <text font-size="12" class="value-labels-inner"><tspan x="304" y="262">23%</tspan></text>
        <text font-size="12" class="value-labels-inner"><tspan x="398" y="262">35%</tspan></text>
      </g>
      <g>
        <text font-size="10"><tspan x="76" y="293">I have opportunities for</tspan><tspan x="64" y="304">professional development</tspan></text>
        <path d="M278.5 283H191.5C188.739 283 186.5 285.239 186.5 288V305C186.5 307.761 188.739 310 191.5 310H278.5C281.261 310 283.5 307.761 283.5 305V288C283.5 285.239 281.261 283 278.5 283Z" fill="#E4774E"/>
        <path d="M346.5 283H290.5C287.739 283 285.5 285.239 285.5 288V305C285.5 307.761 287.739 310 290.5 310H346.5C349.261 310 351.5 307.761 351.5 305V288C351.5 285.239 349.261 283 346.5 283Z" fill="#E9C168"/>
        <path d="M504.5 283H358.5C355.739 283 353.5 285.239 353.5 288V305C353.5 307.761 355.739 310 358.5 310H504.5C507.261 310 509.5 307.761 509.5 305V288C509.5 285.239 507.261 283 504.5 283Z" fill="#82A555"/>
        <text font-size="12" class="value-labels-inner"><tspan x="223" y="301">30%</tspan></text>
        <text font-size="12" class="value-labels-inner"><tspan x="305" y="301">21%</tspan></text>
        <text font-size="12" class="value-labels-inner"><tspan x="418" y="301">49%</tspan></text>
      </g>
      <g>
        <text font-size="10"><tspan x="142" y="332">My work is sufficiently</tspan><tspan x="136" y="343">interesting/challenging</tspan></text>
        <path d="M283.5 322H251.5C248.739 322 246.5 324.239 246.5 327V344C246.5 346.761 248.739 349 251.5 349H283.5C286.261 349 288.5 346.761 288.5 344V327C288.5 324.239 286.261 322 283.5 322Z" fill="#E4774E"/>
        <path d="M338.5 322H295.5C292.739 322 290.5 324.239 290.5 327V344C290.5 346.761 292.739 349 295.5 349H338.5C341.261 349 343.5 346.761 343.5 344V327C343.5 324.239 341.261 322 338.5 322Z" fill="#E9C168"/>
        <path d="M564.5 322H350.5C347.739 322 345.5 324.239 345.5 327V344C345.5 346.761 347.739 349 350.5 349H564.5C567.261 349 569.5 346.761 569.5 344V327C569.5 324.239 567.261 322 564.5 322Z" fill="#82A555"/>
        <text font-size="12" class="value-labels-inner"><tspan x="256" y="340">13%</tspan></text>
        <text font-size="12" class="value-labels-inner"><tspan x="304" y="340">17%</tspan></text>
        <text font-size="12" class="value-labels-inner"><tspan x="444" y="340">70%</tspan></text>
      </g>
      <g>
        <text font-size="10"><tspan x="76" y="371">I&#x2019;m satisfied with the systems </tspan><tspan x="129" y="382">and toolsets I use</tspan></text>
        <path d="M278.5 361H218.5C215.739 361 213.5 363.239 213.5 366V383C213.5 385.761 215.739 388 218.5 388H278.5C281.261 388 283.5 385.761 283.5 383V366C283.5 363.239 281.261 361 278.5 361Z" fill="#E4774E"/>
        <path d="M347.5 361H290.5C287.739 361 285.5 363.239 285.5 366V383C285.5 385.761 287.739 388 290.5 388H347.5C350.261 388 352.5 385.761 352.5 383V366C352.5 363.239 350.261 361 347.5 361Z" fill="#E9C168"/>
        <path d="M531.5 361H359.5C356.739 361 354.5 363.239 354.5 366V383C354.5 385.761 356.739 388 359.5 388H531.5C534.261 388 536.5 385.761 536.5 383V366C536.5 363.239 534.261 361 531.5 361Z" fill="#82A555"/>
        <text font-size="12" class="value-labels-inner"><tspan x="237" y="379">22%</tspan></text>
        <text font-size="12" class="value-labels-inner"><tspan x="306" y="379">22%</tspan></text>
        <text font-size="12" class="value-labels-inner"><tspan x="432" y="379">57%</tspan></text>
      </g>
      <g>
        <text font-size="10"><tspan x="189" y="105">My hours are reasonable</tspan></text>
        <path d="M321.5 88H316.5C313.739 88 311.5 90.2386 311.5 93V110C311.5 112.761 313.739 115 316.5 115H321.5C324.261 115 326.5 112.761 326.5 110V93C326.5 90.2386 324.261 88 321.5 88Z" fill="#E9C168"/>
        <path d="M623.5 88H333.5C330.739 88 328.5 90.2386 328.5 93V110C328.5 112.761 330.739 115 333.5 115H623.5C626.261 115 628.5 112.761 628.5 110V93C628.5 90.2386 626.261 88 623.5 88Z" fill="#82A555"/>
        <path d="M309.5 113V90C309.5 88.8954 308.605 88 307.5 88C306.395 88 305.5 88.8954 305.5 90V113C305.5 114.105 306.395 115 307.5 115C308.605 115 309.5 114.105 309.5 113Z" fill="#E4774E"/>
        <text font-size="12" class="value-labels-inner"><tspan x="465" y="106">94%</tspan></text>
      </g>
      <g>
        <text font-size="10"><tspan x="139" y="183">My responsibilities are reasonable</tspan></text>
        <path d="M322.5 166H313.5C310.739 166 308.5 168.239 308.5 171V188C308.5 190.761 310.739 193 313.5 193H322.5C325.261 193 327.5 190.761 327.5 188V171C327.5 168.239 325.261 166 322.5 166Z" fill="#E9C168"/>
        <path d="M614.5 166H334.5C331.739 166 329.5 168.239 329.5 171V188C329.5 190.761 331.739 193 334.5 193H614.5C617.261 193 619.5 190.761 619.5 188V171C619.5 168.239 617.261 166 614.5 166Z" fill="#82A555"/>
        <path d="M306.5 188V171C306.5 168.239 304.261 166 301.5 166C298.739 166 296.5 168.239 296.5 171V188C296.5 190.761 298.739 193 301.5 193C304.261 193 306.5 190.761 306.5 188Z" fill="#E4774E"/>
        <text font-size="12" class="value-labels-inner"><tspan x="311" y="184">7%</tspan></text>
        <text font-size="12" class="value-labels-inner"><tspan x="461" y="184">90%</tspan></text>
      </g>

		</g>

	</g>

</svg>
