<svg viewBox="0 55 660 235" fill="none" xmlns="http://www.w3.org/2000/svg">

	<defs>
	
    <style type="text/css">
      <![CDATA[
        @import url(/_static/survey/css/2024-svg.css);
      ]]>
    </style>
    
  </defs>

  <g id="2024-overall-satisfaction-employees">

    <g class="title">
      <text font-size="14"><tspan x="40" y="33">Overall satisfaction</tspan></text>
      <text font-size="12" class="subtitle"><tspan x="40" y="49">Employees</tspan></text>
    </g>

    <g class="donut-chart">

      <path d="M180.5 266.061C180.499 262.611 180.616 259.161 180.853 255.719L270.641 261.888C270.546 263.265 270.499 264.644 270.5 266.025L180.5 266.061Z" fill="#C2255C" stroke="white" stroke-width="2"/>
      <path d="M180.863 255.569C181.8 242.132 184.542 228.881 189.017 216.176L273.907 246.07C272.117 251.152 271.02 256.452 270.645 261.828L180.863 255.569Z" fill="#E4774E" stroke="white" stroke-width="2"/>
      <path d="M189.066 216.035C198.523 189.267 215.381 165.733 237.681 148.167L293.372 218.867C284.452 225.893 277.709 235.307 273.927 246.014L189.066 216.035Z" fill="#E9C168" stroke="white" stroke-width="2"/>
      <path d="M237.799 148.074C265.741 126.109 300.576 114.779 336.093 116.104C371.611 117.43 405.504 131.324 431.731 155.31L370.993 221.724C360.501 212.13 346.944 206.572 332.737 206.042C318.53 205.512 304.597 210.044 293.42 218.83L237.799 148.074Z" fill="#82A555" stroke="white" stroke-width="2"/>
      <path d="M431.842 155.412C447.158 169.447 459.392 186.511 467.768 205.522C476.143 224.532 480.479 245.076 480.5 265.85L390.5 265.94C390.492 257.63 388.757 249.413 385.407 241.809C382.057 234.204 377.163 227.379 371.037 221.765L431.842 155.412Z" fill="#087F5B" stroke="white" stroke-width="2"/>
      <path d="M142.561 259C147.559 259.13 173.418 261.842 175.407 262.051L177.396 262.259" stroke="#252521" stroke-dasharray="1 3"/>
      <path d="M146.25 224.981C151.113 226.142 175.852 234.142 177.755 234.758L179.658 235.373" stroke="#252521" stroke-dasharray="1 3"/>
      <path d="M178.842 153C183.786 153.747 203.676 170.493 205.206 171.781L206.736 173.069" stroke="#252521" stroke-dasharray="1 3"/>
      <path d="M387.045 92C382.378 93.793 366.555 114.424 365.338 116.011L364.121 117.598" stroke="#252521" stroke-dasharray="1 3"/>
      <path d="M498.675 184.896C493.847 183.594 473.613 199.921 472.057 201.177L470.5 202.432" stroke="#252521" stroke-dasharray="1 3"/>
      <text font-size="14" class="value-labels-inner"><tspan x="192" y="244">8.6%</tspan></text>
      <text font-size="14" class="value-labels-inner"><tspan x="216" y="191">18%</tspan></text>
      <text font-size="14" class="value-labels-inner"><tspan x="340" y="141">44.8%</tspan></text>
      <text font-size="14" class="value-labels-inner reverse"><tspan x="419" y="220">26.4%</tspan></text>
      <text font-size="10"><tspan x="39" y="262">Very unsatisfied (2.2%)</tspan></text>
      <text font-size="10"><tspan x="91" y="228">Unsatisfied</tspan></text>
      <text font-size="10"><tspan x="140" y="155">Neutral</tspan></text>
      <text font-size="10"><tspan x="392" y="94">Satisfied</tspan></text>
      <text font-size="10"><tspan x="504" y="186">Very satisfied</tspan></text>

    </g>

  </g>

</svg>
