<svg viewBox="0 55 660 347" fill="none" xmlns="http://www.w3.org/2000/svg">

	<defs>
	
    <style type="text/css">
      <![CDATA[
        @import url(/_static/survey/css/2024-svg.css);
      ]]>
    </style>
    
  </defs>

  <g id="2024-pay-transparency-culture">

    <g class="title">
      <text font-size="14"><tspan x="40" y="33">Organization pay transparency</tspan></text>
      <text font-size="12" class="subtitle"><tspan x="40" y="49">Unofficial culture</tspan></text>
    </g>

    <g class="donut-chart">

      <path d="M225.773 124.126C244.601 105.935 267.861 92.9891 293.242 86.5737C318.623 80.1583 345.241 80.4973 370.45 87.5569C395.659 94.6166 418.582 108.151 436.94 126.815C455.298 145.479 468.451 168.623 475.093 193.946C481.734 219.268 481.633 245.888 474.798 271.16C467.964 296.431 454.634 319.474 436.135 337.997C417.635 356.521 394.61 369.88 369.348 376.747C344.085 383.615 317.465 383.751 292.134 377.142L314.854 290.057C324.986 292.7 335.634 292.646 345.739 289.899C355.844 287.152 365.054 281.808 372.454 274.399C379.854 266.989 385.186 257.772 387.919 247.664C390.653 237.555 390.694 226.907 388.037 216.778C385.381 206.649 380.119 197.392 372.776 189.926C365.433 182.46 356.264 177.047 346.18 174.223C336.096 171.399 325.449 171.263 315.297 173.829C305.144 176.396 295.84 181.574 288.309 188.85L225.773 124.126Z" fill="#00AEFF" stroke="white" stroke-width="2"/>
      <path d="M291.989 377.104C262.451 369.366 235.979 352.799 216.108 329.615C196.238 306.431 183.916 277.735 180.789 247.362L270.316 238.145C271.566 250.294 276.495 261.772 284.443 271.046C292.392 280.319 302.981 286.947 314.796 290.042L291.989 377.104Z" fill="#7EA4FF" stroke="white" stroke-width="2"/>
      <path d="M180.773 247.213C178.731 227.174 180.745 206.929 186.695 187.685C192.646 168.442 202.412 150.594 215.41 135.206L284.164 193.282C278.965 199.438 275.058 206.577 272.678 214.274C270.298 221.972 269.492 230.07 270.309 238.085L180.773 247.213Z" fill="#FC82E1" stroke="white" stroke-width="2"/>
      <path d="M215.507 135.091C218.705 131.312 222.089 127.694 225.645 124.25L288.258 188.9C286.836 190.278 285.482 191.725 284.203 193.236L215.507 135.091Z" fill="#FF7781" stroke="white" stroke-width="2"/>
      <path d="M502.175 164.896C497.347 163.594 477.113 179.921 475.557 181.177L474 182.432" stroke="#252521" stroke-dasharray="1 3"/>
      <path d="M178.307 338.026C183.145 339.286 203.236 322.783 204.782 321.514L206.327 320.244" stroke="#252521" stroke-dasharray="1 3"/>
      <path d="M189.343 109.803C194.287 110.55 214.176 127.296 215.706 128.584L217.236 129.872" stroke="#252521" stroke-dasharray="1 3"/>
      <path d="M153 174C158 174 180.169 187.585 181.874 188.63L183.579 189.675" stroke="#252521" stroke-dasharray="1 3"/>
      <text font-size="10"><tspan x="94" y="113">Open sharing (1.6%)</tspan></text>
      <text font-size="10"><tspan x="115" y="175">Unsure</tspan></text>
      <text font-size="10"><tspan x="509" y="168">No sharing</tspan></text>
      <text font-size="10"><tspan x="112" y="343">Some sharing</tspan></text>
      <text font-size="14" class="value-labels-inner"><tspan x="417" y="197">66.3%</tspan></text>
      <text font-size="14" class="value-labels-inner"><tspan x="220" y="312">19.3%</tspan></text>
      <text font-size="14" class="value-labels-inner"><tspan x="198" y="202">12.8%</tspan></text>

    </g>

  </g>

</svg>
