<svg viewBox="0 55 660 188" fill="none" xmlns="http://www.w3.org/2000/svg">

	<defs>
	
    <style type="text/css">
      <![CDATA[
        @import url(/_static/survey/css/2024-svg.css);
      ]]>
    </style>
    
  </defs>

  <g id="2024-feedback-usability">

    <g class="title">
      <text font-size="14"><tspan x="40" y="33">Survey feedback</tspan></text>
      <text font-size="12" class="subtitle"><tspan x="40" y="49">Survey form/website is usable</tspan></text>
    </g>

    <g class="donut-chart">

      <path d="M180 222.061C180 221.461 180.003 220.861 180.01 220.261L270.004 221.305C270.001 221.545 270 221.785 270 222.025L180 222.061Z" fill="#C2255C"/>
      <path d="M180.012 220.111C180.063 216.061 180.278 212.015 180.657 207.982L270.263 216.393C270.111 218.006 270.025 219.624 270.005 221.245L180.012 220.111Z" fill="#E4774E"/>
      <path d="M180 222.061C180 221.461 180.003 220.861 180.01 220.261L270.004 221.305C270.001 221.545 270 221.785 270 222.025L180 222.061Z" stroke="white" stroke-width="2"/>
      <path d="M180.012 220.111C180.063 216.061 180.278 212.015 180.657 207.982L270.263 216.393C270.111 218.006 270.025 219.624 270.005 221.245L180.012 220.111Z" stroke="white" stroke-width="2"/>
      <path d="M180.671 207.832C181.346 200.711 182.53 193.648 184.214 186.696L271.686 207.878C271.012 210.659 270.539 213.485 270.268 216.333L180.671 207.832Z" fill="#E9C168" stroke="white" stroke-width="2"/>
      <path d="M184.249 186.55C190.784 159.684 204.617 135.147 224.22 115.649C243.824 96.1504 268.435 82.4499 295.336 76.0603L316.134 163.624C305.374 166.18 295.529 171.66 287.688 179.459C279.847 187.259 274.313 197.073 271.7 207.82L184.249 186.55Z" fill="#82A555" stroke="white" stroke-width="2"/>
      <path d="M295.482 76.0258C317.495 70.8202 340.401 70.6609 362.485 75.5598C384.569 80.4587 405.259 90.2889 423.006 104.315C440.754 118.341 455.099 136.199 464.969 156.553C474.839 176.907 479.977 199.229 480 221.85L390 221.94C389.991 212.892 387.936 203.963 383.988 195.821C380.04 187.679 374.302 180.536 367.203 174.926C360.104 169.316 351.828 165.383 342.994 163.424C334.161 161.464 324.998 161.528 316.193 163.61L295.482 76.0258Z" fill="#087F5B" stroke="white" stroke-width="2"/>
      <path d="M470.579 101C465.579 101 443.411 114.585 441.705 115.63L440 116.675" stroke="#252521" stroke-dasharray="1 3"/>
      <path d="M185 105C190 105 212.169 118.585 213.874 119.63L215.579 120.675" stroke="#252521" stroke-dasharray="1 3"/>
      <path d="M147 205C152 205 176.727 213.034 178.63 213.652L180.532 214.271" stroke="#252521" stroke-dasharray="1 3"/>
      <path d="M148.761 179.821C153.717 180.483 177.163 191.721 178.967 192.586L180.77 193.45" stroke="#252521" stroke-dasharray="1 3"/>
      <text font-size="10"><tspan x="475" y="103">Strongly agree</tspan></text>
      <text font-size="10"><tspan x="156" y="106">Agree</tspan></text>
      <text font-size="10"><tspan x="83" y="183">Neutral (4.6%)</tspan></text>
      <text font-size="10"><tspan x="56" y="199">Disagree / strongly</tspan><tspan x="81" y="210">disagree (3%)</tspan></text>
      <text font-size="14" class="value-labels-inner reverse"><tspan x="384" y="134">57.4%</tspan></text>
      <text font-size="14" class="value-labels-inner"><tspan x="231" y="140">35%</tspan></text>

    </g>

  </g>

</svg>