<svg viewBox="0 55 660 207" fill="none" xmlns="http://www.w3.org/2000/svg">

	<defs>
	
    <style type="text/css">
      <![CDATA[
        @import url(/_static/survey/css/2024-svg.css);
      ]]>
    </style>
    
  </defs>

  <g id="2024-overall-satisfaction-contractors">

    <g class="title">
      <text font-size="14"><tspan x="40" y="33">Overall satisfaction</tspan></text>
      <text font-size="12" class="subtitle"><tspan x="40" y="49">Contractors</tspan></text>
    </g>

    <g class="donut-chart">

      <path d="M180 239.061C179.997 232.358 180.444 225.663 181.337 219.021L270.535 231.008C270.178 233.665 269.999 236.343 270 239.024L180 239.061Z" fill="#C2255C" stroke="white" stroke-width="2"/>
      <path d="M181.357 218.872C183.596 202.334 188.579 186.286 196.102 171.389L276.441 211.956C273.432 217.914 271.438 224.334 270.543 230.949L181.357 218.872Z" fill="#E4774E" stroke="white" stroke-width="2"/>
      <path d="M196.169 171.255C212.933 138.139 241.379 112.414 276.009 99.0537L308.404 183.021C294.552 188.366 283.173 198.656 276.468 211.902L196.169 171.255Z" fill="#E9C168" stroke="white" stroke-width="2"/>
      <path d="M276.149 98.9998C307.639 86.887 342.294 85.7446 374.514 95.7571C406.734 105.77 434.637 126.352 453.716 154.18L379.486 205.072C371.855 193.941 360.693 185.708 347.806 181.703C334.918 177.698 321.056 178.155 308.46 183L276.149 98.9998Z" fill="#82A555" stroke="white" stroke-width="2"/>
      <path d="M453.8 154.304C470.839 179.209 479.97 208.674 480 238.85L390 238.94C389.988 226.87 386.336 215.084 379.52 205.122L453.8 154.304Z" fill="#087F5B" stroke="white" stroke-width="2"/>
      <path d="M196.77 109.82C201.6 111.113 223.407 125.272 225.084 126.361L226.761 127.45" stroke="#252521" stroke-dasharray="1 3"/>
      <path d="M148 188C153 188 177.727 196.034 179.63 196.652L181.532 197.271" stroke="#252521" stroke-dasharray="1 3"/>
      <path d="M142.289 228C147.289 228 173.209 230.04 175.203 230.197L177.197 230.354" stroke="#252521" stroke-dasharray="1 3"/>
      <path d="M511.532 186C506.532 186 481.804 194.034 479.902 194.652L478 195.271" stroke="#252521" stroke-dasharray="1 3"/>
      <path d="M418.588 80.0751C413.95 81.942 394.011 98.6282 392.477 99.9117L390.943 101.195" stroke="#252521" stroke-dasharray="1 3"/>
      <text font-size="10"><tspan x="42" y="232">Very unsatisfied (4.3%)</tspan></text>
      <text font-size="10"><tspan x="94" y="190">Unsatisfied</tspan></text>
      <text font-size="10"><tspan x="157" y="110">Neutral</tspan></text>
      <text font-size="10"><tspan x="424" y="81">Satisfied</tspan></text>
      <text font-size="10"><tspan x="516" y="186">Very satisfied</tspan></text>
      <text font-size="14" class="value-labels-inner"><tspan x="194" y="208">10.6%</tspan></text>
      <text font-size="14" class="value-labels-inner"><tspan x="235" y="146">23.4%</tspan></text>
      <text font-size="14" class="value-labels-inner"><tspan x="352" y="121">42.6%</tspan></text>
      <text font-size="14" class="value-labels-inner reverse"><tspan x="425" y="205">19.1%</tspan></text>

    </g>

  </g>

</svg>