<svg viewBox="0 55 660 217" fill="none" xmlns="http://www.w3.org/2000/svg">

	<defs>
	
    <style type="text/css">
      <![CDATA[
        @import url(/_static/survey/css/2024-svg.css);
      ]]>
    </style>
    
  </defs>

  <g id="2024-rto-attitude-affected-by-partial">

    <g class="title">
      <text font-size="14"><tspan x="40" y="33">Attitude towards RTO mandates</tspan></text>
      <text font-size="12" class="subtitle"><tspan x="40" y="49">Affected by partial RTO</tspan></text>
    </g>

    <g class="donut-chart">

      <path d="M144 233C149 233 174.92 235.04 176.914 235.197L178.908 235.354" stroke="#252521" stroke-dasharray="1 3"/>
      <path d="M180 251.061C179.994 235.681 182.353 220.391 186.995 205.728L272.798 232.891C270.941 238.757 269.998 244.872 270 251.025L180 251.061Z" fill="#C2255C" stroke="white" stroke-width="2"/>
      <path d="M187.04 205.585C193.521 185.184 204.294 166.406 218.634 150.513C232.975 134.62 250.55 121.981 270.181 113.444L306.072 195.978C298.22 199.392 291.19 204.448 285.454 210.805C279.718 217.162 275.409 224.674 272.816 232.834L187.04 205.585Z" fill="#E4774E" stroke="white" stroke-width="2"/>
      <path d="M270.318 113.384C296.012 102.241 324.312 98.514 352.015 102.624C379.717 106.734 405.716 118.518 427.067 136.641L368.827 205.257C360.286 198.007 349.887 193.294 338.806 191.65C327.725 190.006 316.405 191.496 306.127 195.954L270.318 113.384Z" fill="#E9C168" stroke="white" stroke-width="2"/>
      <path d="M427.182 136.739C450.753 156.786 467.547 183.633 475.262 213.599L388.105 236.04C385.019 224.053 378.301 213.314 368.873 205.295L427.182 136.739Z" fill="#82A555" stroke="white" stroke-width="2"/>
      <path d="M475.3 213.744C478.408 225.868 479.987 238.334 480 250.85L390 250.94C389.995 245.934 389.363 240.947 388.12 236.098L475.3 213.744Z" fill="#087F5B" stroke="white" stroke-width="2"/>
      <path d="M502.115 174.329C497.228 175.388 472.329 182.873 470.414 183.449L468.499 184.025" stroke="#252521" stroke-dasharray="1 3"/>
      <path d="M516.76 229C511.76 229 485.841 231.04 483.847 231.197L481.853 231.354" stroke="#252521" stroke-dasharray="1 3"/>
      <path d="M396.634 81C391.634 81 376.351 102.034 375.176 103.652L374 105.271" stroke="#252521" stroke-dasharray="1 3"/>
      <path d="M179 144C184 144 208.727 152.034 210.63 152.652L212.532 153.271" stroke="#252521" stroke-dasharray="1 3"/>
      <text font-size="10"><tspan x="135" y="145">Negative</tspan></text>
      <text font-size="10"><tspan x="401" y="81">Neutral</tspan></text>
      <text font-size="10"><tspan x="520" y="230">Very positive</tspan></text>
      <text font-size="10"><tspan x="505" y="176">Positive</tspan></text>
      <text font-size="10"><tspan x="79" y="236">Very negative</tspan></text>
      <text font-size="14" class="value-labels-inner reverse"><tspan x="196" y="240">9.8%</tspan></text>
      <text font-size="14" class="value-labels-inner reverse"><tspan x="446" y="240">8%</tspan></text>
      <text font-size="14" class="value-labels-inner"><tspan x="224" y="182">27.2%</tspan></text>
      <text font-size="14" class="value-labels-inner"><tspan x="329" y="141">35.5%</tspan></text>
      <text font-size="14" class="value-labels-inner"><tspan x="413" y="195">19.6%</tspan></text>
      
    </g>

  </g>

</svg>