<svg viewBox="0 55 660 188" fill="none" xmlns="http://www.w3.org/2000/svg">

	<defs>
	
    <style type="text/css">
      <![CDATA[
        @import url(/_static/survey/css/2024-svg.css);
      ]]>
    </style>
    
  </defs>

  <g id="2024-hours-worked">

    <g class="title">
      <text font-size="14"><tspan x="40" y="33">Earnings Change</tspan></text>
      <text font-size="12" class="subtitle"><tspan x="40" y="49">Contractors</tspan></text>
    </g>

    <g class="donut-chart">

      <path d="M180 222.061C179.99 196.829 186.345 172.001 198.477 149.877L277.391 193.151C272.538 202.001 269.996 211.932 270 222.025L180 222.061Z" fill="#E4774E" stroke="white" stroke-width="2"/>
      <path d="M198.549 149.745C212.716 123.973 234.146 102.933 260.174 89.2432C286.203 75.5531 315.682 69.8164 344.945 72.7464L335.978 162.299C324.273 161.127 312.481 163.421 302.07 168.897C291.658 174.373 283.086 182.789 277.42 193.098L198.549 149.745Z" fill="#E9C168" stroke="white" stroke-width="2"/>
      <path d="M345.094 72.7615C382.049 76.4991 416.303 93.8148 441.224 121.356C466.146 148.898 479.963 184.707 480 221.85L390 221.94C389.985 207.083 384.458 192.759 374.49 181.743C364.521 170.726 350.82 163.8 336.038 162.305L345.094 72.7615Z" fill="#82A555" stroke="white" stroke-width="2"/>
      <text font-size="14" class="value-labels-inner"><tspan x="393" y="151.8">46.8%</tspan></text>
      <text font-size="14" class="value-labels-inner"><tspan x="268" y="137.8">37.2%</tspan></text>
      <text font-size="14" class="value-labels-inner"><tspan x="213" y="202.8">16%</tspan></text>
      <text font-size="10"><tspan x="102.908" y="195.232">Decrease</tspan></text>
      <text font-size="10"><tspan x="154.303" y="94.0488">No change</tspan></text>
      <text font-size="10"><tspan x="495.697" y="132.232">Increase</tspan></text>
      <path d="M489.018 129.122C484.018 129.122 459.291 137.157 457.388 137.775L455.486 138.393" stroke="#252521" stroke-dasharray="1 3"/>
      <path d="M205.916 91.9388C210.916 91.9388 235.643 99.9733 237.546 100.591L239.448 101.209" stroke="#252521" stroke-dasharray="1 3"/>
      <path d="M147.303 193.122C152.303 193.122 178.223 195.162 180.216 195.319L182.21 195.476" stroke="#252521" stroke-dasharray="1 3"/>

    </g>

  </g>

</svg>
