<svg viewBox="0 55 660 352" fill="none" xmlns="http://www.w3.org/2000/svg">

  <defs>
    <style type="text/css">
      <![CDATA[
        @import url(/_static/survey/css/2024-svg.css);
      ]]>
    </style>
    
  </defs> 

	<g id="2024-hours-worked">

		<g class="title">
			<text font-size="14"><tspan x="40" y="33.054">Salary increase reasons&#10;</tspan></text>
			<text font-size="12" class="subtitle"><tspan x="40" y="49.054">Employees</tspan></text>
		</g>

		<g class="bar-chart-vertical">

			<g class="y-axis">

				<g class="gridlines">
					<path d="M79 370.937H611"/>
					<path d="M79 285.526H611"/>
					<path d="M79 200.116H611"/>
					<path d="M79 114.705H611"/>
				</g>

				<g class="axis-labels">
					<text font-size="10"><tspan x="57" y="376.228">0%</tspan></text>
          <text font-size="10"><tspan x="51" y="291.601">20%</tspan></text>
          <text font-size="10"><tspan x="51" y="206.19">40%</tspan></text>
          <text font-size="10"><tspan x="51" y="120.78">60%</tspan></text>
				</g>

			</g>

			<g class="data-series">
			
				<g class="a">

					<g class="axis-labels">
						<text font-size="10"><tspan x="130" y="387">Raise</tspan></text>
            <text font-size="10"><tspan x="252" y="387">Promotion</tspan></text>
            <text font-size="10"><tspan x="383" y="387">New position</tspan></text>
            <text font-size="10"><tspan x="530" y="387">Other</tspan></text>
					</g>

					<g class="bars">
						<path d="M200 108.045H90V370.545H200V108.045Z"/>
            <path d="M333 296.104H223V370.545H333V296.104Z"/>
            <path d="M466 310.993H356V370.545H466V310.993Z"/>
            <path d="M599 339.985H489V370.545H599V339.985Z"/>
					</g>

					<g class="value-labels-inner">
						<text font-size="10"><tspan x="136" y="128">62%&#x200b;</tspan></text>
            <text font-size="10"><tspan x="269" y="316">17%&#x200b;</tspan></text>
            <text font-size="10"><tspan x="402" y="331">14%&#x200b;</tspan></text>
            <text font-size="10"><tspan x="538" y="360">7%&#x200b;</tspan></text>
					</g>

				</g>

			</g>

			<g class="legend">
			
			</g>

		</g>

	</g>

</svg>

