<svg viewBox="0 55 660 221" fill="none" xmlns="http://www.w3.org/2000/svg">

	<defs>
	
    <style type="text/css">
      <![CDATA[
        @import url(/_static/survey/css/2024-svg.css);
      ]]>
    </style>
    
  </defs>

  <g id="2024-pay-transparency-support">

    <g class="title">
      <text font-size="14"><tspan x="40" y="33">Organization pay transparency</tspan></text>
      <text font-size="12" class="subtitle"><tspan x="40" y="49">Respondent support for transparency</tspan></text>
    </g>

    <g class="donut-chart">

      <path d="M180 253.061C179.999 251.511 180.023 249.961 180.07 248.412L270.028 251.165C270.009 251.785 270 252.404 270 253.024L180 253.061Z" fill="#C2255C"/>
      <path d="M180.075 248.262C180.247 242.813 180.716 237.378 181.48 231.98L270.592 244.592C270.286 246.751 270.099 248.925 270.03 251.105L180.075 248.262Z" fill="#E4774E"/>
      <path d="M180 253.061C179.999 251.511 180.023 249.961 180.07 248.412L270.028 251.165C270.009 251.785 270 252.404 270 253.024L180 253.061Z" stroke="white" stroke-width="2"/>
      <path d="M180.075 248.262C180.247 242.813 180.716 237.378 181.48 231.98L270.592 244.592C270.286 246.751 270.099 248.925 270.03 251.105L180.075 248.262Z" stroke="white" stroke-width="2"/>
      <path d="M181.501 231.832C185.846 201.35 199.466 172.944 220.512 150.47L286.205 211.988C277.786 220.978 272.338 232.34 270.6 244.533L181.501 231.832Z" fill="#E9C168" stroke="white" stroke-width="2"/>
      <path d="M220.615 150.361C236.371 133.569 255.781 120.631 277.341 112.547C298.901 104.464 322.033 101.452 344.945 103.746L335.978 193.299C326.813 192.381 317.561 193.585 308.936 196.819C300.312 200.052 292.548 205.228 286.246 211.944L220.615 150.361Z" fill="#82A555" stroke="white" stroke-width="2"/>
      <path d="M345.094 103.761C382.049 107.499 416.303 124.815 441.224 152.356C466.146 179.898 479.963 215.706 480 252.85L390 252.94C389.985 238.083 384.458 223.759 374.49 212.742C364.521 201.726 350.82 194.799 336.038 193.304L345.094 103.761Z" fill="#087F5B" stroke="white" stroke-width="2"/>
      <path d="M480.175 142.896C475.347 141.594 455.113 157.921 453.557 159.177L452 160.432" stroke="#252521" stroke-dasharray="1 3"/>
      <path d="M162.342 171C167.286 171.747 187.176 188.493 188.706 189.781L190.236 191.069" stroke="#252521" stroke-dasharray="1 3"/>
      <path d="M240.827 89.2351C245.494 91.0281 261.317 111.659 262.534 113.246L263.751 114.833" stroke="#252521" stroke-dasharray="1 3"/>
      <path d="M143 240C148 240 173.92 242.04 175.914 242.197L177.908 242.354" stroke="#252521" stroke-dasharray="1 3"/>
      <text font-size="10"><tspan x="118" y="173">Neutral</tspan></text>
      <text font-size="10"><tspan x="56" y="239">Oppose / strongly &#10;</tspan><tspan x="76" y="250">oppose (4.5%)</tspan></text>
      <text font-size="10"><tspan x="486" y="146">Strongly support</tspan></text>
      <text font-size="10"><tspan x="201" y="91">Support</tspan></text>
      <text font-size="14" class="value-labels-inner"><tspan x="268" y="140">29.2%</tspan></text>
      <text font-size="14" class="value-labels-inner"><tspan x="202" y="207">19.5%</tspan></text>
      <text font-size="14" class="value-labels-inner reverse"><tspan x="408" y="182">46.8%</tspan></text>

    </g>

  </g>

</svg>
