<svg viewBox="0 55 660 350" fill="none" xmlns="http://www.w3.org/2000/svg">

	<defs>
	
    <style type="text/css">
      <![CDATA[
        @import url(/_static/survey/css/2024-svg.css);
      ]]>
    </style>
    
  </defs>

  <g id="2024-gender-identity">

    <g class="title">
      <text font-size="14"><tspan x="40" y="33">Gender identity</tspan></text>
      <text font-size="12" class="subtitle"><tspan x="40" y="49">Employees and contractors combined</tspan></text>
    </g>

    <g class="donut-chart">

      <path d="M504.532 168.576C499.532 168.576 474.804 176.611 472.902 177.229L471 177.847" stroke="#252521" stroke-dasharray="1 3"/>
      <path d="M182 122.577C187 122.577 211.727 130.611 213.63 131.229L215.532 131.847" stroke="#252521" stroke-dasharray="1 3"/>
      <path d="M157 293.847C162 293.847 186.727 285.813 188.63 285.195L190.532 284.577" stroke="#252521" stroke-dasharray="1 3"/>
      <path d="M231.859 117.138C249.134 102.192 269.594 91.3901 291.678 85.5544C313.762 79.7187 336.888 79.0037 359.29 83.4641C381.693 87.9245 402.781 97.4424 420.946 111.292C439.111 125.141 453.873 142.956 464.106 163.378C474.339 183.8 479.773 206.289 479.993 229.131C480.213 251.972 475.214 274.562 465.376 295.177C455.539 315.793 441.123 333.889 423.228 348.086C405.334 362.283 384.433 372.206 362.121 377.097L342.848 289.185C351.773 287.228 360.134 283.259 367.291 277.58C374.449 271.901 380.216 264.663 384.151 256.417C388.086 248.171 390.085 239.135 389.997 229.998C389.909 220.862 387.736 211.866 383.642 203.697C379.549 195.528 373.644 188.402 366.378 182.863C359.112 177.323 350.677 173.516 341.716 171.732C332.755 169.947 323.505 170.233 314.671 172.568C305.838 174.902 297.654 179.223 290.744 185.201L231.859 117.138Z" fill="#00AEFF" stroke="white" stroke-width="2"/>
      <path d="M361.974 377.129C332.767 383.501 302.321 381.001 274.545 369.949C246.768 358.897 222.927 339.797 206.082 315.1C189.236 290.404 180.155 261.237 180.002 231.343C179.849 201.448 188.633 172.19 205.225 147.323L280.09 197.275C273.453 207.222 269.94 218.925 270.001 230.883C270.062 242.841 273.695 254.507 280.433 264.386C287.171 274.265 296.707 281.905 307.818 286.326C318.928 290.746 331.107 291.746 342.79 289.198L361.974 377.129Z" fill="#7EA4FF" stroke="white" stroke-width="2"/>
      <path d="M205.308 147.198C212.74 136.084 221.624 126.013 231.725 117.254L290.69 185.247C286.65 188.751 283.096 192.779 280.123 197.225L205.308 147.198Z" fill="#FFA600" stroke="white" stroke-width="2"/>
      <text font-size="14" class="value-labels-inner"><tspan x="420" y="191">57%</tspan></text>
      <text font-size="14" class="value-labels-inner"><tspan x="215" y="284">37.2%</tspan></text>
      <text font-size="14" class="value-labels-inner"><tspan x="219" y="149">4.2%</tspan></text>
      <text font-size="10"><tspan x="509" y="170">Woman</tspan></text>
      <text font-size="10"><tspan x="132" y="297">Man</tspan></text>
      <text font-size="10"><tspan x="92" y="124">Non-binary / other</tspan></text>

    </g>

  </g>

</svg>