<svg viewBox="0 50 660 360" fill="none" xmlns="http://www.w3.org/2000/svg">

	<defs>
	
    <style type="text/css">
      <![CDATA[
        @import url(/_static/survey/css/2024-svg.css);
      ]]>
    </style>
    
  </defs>

  <g id="2024-preferred-work-location">

    <g class="title">
      <text font-size="14"><tspan x="40" y="33">Preferred work location</tspan></text>
      <text font-size="12" class="subtitle"><tspan x="40" y="49">Employees and contractors combined</tspan></text>
    </g>

    <g class="donut-chart">

      <path d="M436.567 126.625C451.013 141.208 462.313 158.602 469.766 177.73C477.218 196.857 480.666 217.31 479.894 237.824C479.123 258.337 474.149 278.474 465.281 296.987C456.413 315.501 443.839 331.997 428.338 345.455C412.837 358.913 394.739 369.046 375.164 375.227C355.588 381.407 334.953 383.504 314.534 381.388C294.116 379.271 274.349 372.986 256.458 362.922C238.566 352.857 222.931 339.228 210.52 322.877L282.208 268.463C287.173 275.004 293.427 280.455 300.583 284.481C307.74 288.507 315.646 291.021 323.814 291.868C331.981 292.714 340.235 291.875 348.066 289.403C355.896 286.931 363.135 282.878 369.335 277.494C375.536 272.111 380.565 265.513 384.113 258.107C387.66 250.702 389.649 242.647 389.958 234.442C390.266 226.237 388.887 218.055 385.906 210.404C382.925 202.753 378.405 195.796 372.627 189.962L436.567 126.625Z" fill="#00AEFF" stroke="white" stroke-width="2"/>
      <path d="M210.43 322.757C191.019 297.131 180.355 265.947 180.009 233.801C179.663 201.655 189.654 170.249 208.509 144.211C227.364 118.173 254.085 98.8819 284.734 89.1806C315.383 79.4792 348.338 79.8811 378.741 90.3271L349.496 175.443C337.335 171.265 324.153 171.104 311.894 174.985C299.634 178.865 288.946 186.582 281.404 196.997C273.862 207.412 269.865 219.975 270.004 232.833C270.142 245.691 274.408 258.165 282.172 268.415L210.43 322.757Z" fill="#7EA4FF" stroke="white" stroke-width="2"/>
      <path d="M378.883 90.3759C392.187 94.9621 404.781 101.398 416.292 109.494L364.517 183.11C359.912 179.872 354.875 177.297 349.553 175.463L378.883 90.3759Z" fill="#FC82E1" stroke="white" stroke-width="2"/>
      <path d="M416.415 109.58C423.571 114.624 430.273 120.285 436.442 126.498L372.577 189.912C370.109 187.426 367.429 185.162 364.566 183.144L416.415 109.58Z" fill="#FF7781" stroke="white" stroke-width="2"/>
      <path d="M182 123.187C187 123.187 202.282 144.222 203.458 145.84L204.634 147.458" stroke="#252521" stroke-dasharray="1 3"/>
      <path d="M471.634 350.458C466.634 350.458 451.351 329.423 450.176 327.805L449 326.187" stroke="#252521" stroke-dasharray="1 3"/>
      <path d="M465.532 109.187C460.532 109.187 435.804 117.222 433.902 117.84L432 118.458" stroke="#252521" stroke-dasharray="1 3"/>
      <path d="M426.634 73.1874C421.634 73.1874 406.351 94.2218 405.176 95.8398L404 97.4579" stroke="#252521" stroke-dasharray="1 3"/>
      <text font-size="14" class="value-labels-inner"><tspan x="218" y="190">40.6%</tspan></text>
      <text font-size="14" class="value-labels-inner"><tspan x="387" y="314">52.1%</tspan></text>
      <text font-size="14" class="value-labels-inner"><tspan x="377" y="117">4.5%</tspan></text>
      <text font-size="10"><tspan x="148" y="126">Hybrid</tspan></text>
      <text font-size="10"><tspan x="477" y="359">Remote</tspan></text>
      <text font-size="10"><tspan x="469" y="110">On-site (2.8%)</tspan></text>
      <text font-size="10"><tspan x="431" y="74">No preference</tspan></text>

    </g>

  </g>

</svg>
