<?xml version="1.0" standalone="no"?>
<!DOCTYPE svg PUBLIC "-//W3C//DTD SVG 1.1//EN" "http://www.w3.org/Graphics/SVG/1.1/DTD/svg11.dtd" >
<svg xmlns="http://www.w3.org/2000/svg">
<metadata></metadata>
<defs>
<font id="hagin_caps_thinregular" horiz-adv-x="892" >
<font-face units-per-em="2048" ascent="1536" descent="-512" />
<missing-glyph horiz-adv-x="413" />
<glyph horiz-adv-x="2048" />
<glyph horiz-adv-x="2048" />
<glyph unicode="&#xd;" horiz-adv-x="2048" />
<glyph unicode=" "  horiz-adv-x="413" />
<glyph unicode="&#x09;" horiz-adv-x="413" />
<glyph unicode="&#xa0;" horiz-adv-x="413" />
<glyph unicode="!" horiz-adv-x="264" d="M90 25q0 21 17 30t34 0t17 -30q0 -20 -17 -28.5t-34 0t-17 28.5zM109 270v1168h28v-1168h-28z" />
<glyph unicode="&#x22;" horiz-adv-x="364" d="M59 1034v406h31l-4 -406h-27zM252 1034v406h31l-4 -406h-27z" />
<glyph unicode="#" horiz-adv-x="1069" d="M94 422v27h191l121 544h-205v27h211l90 414h30l-92 -414h316l90 414h31l-93 -414h195v-27h-201l-121 -544h213v-27h-219l-94 -422h-29l95 422h-316l-92 -422h-31l95 422h-185zM313 449h316l121 544h-316z" />
<glyph unicode="$" horiz-adv-x="851" d="M109 297v115h28v-115q0 -134 67.5 -208.5t201.5 -78.5v717q-38 11 -60.5 17.5t-56.5 19.5t-54.5 25.5t-44 32.5t-36.5 43t-22 54.5t-9 69.5v174q0 132 77 212t206 81v125h26v-125q127 -6 203 -84t76 -209v-96h-25v98q0 116 -68 188.5t-186 76.5v-682q41 -11 63.5 -17.5 t59 -20t57 -26t46 -33.5t39 -45t23 -58t9.5 -75v-176q0 -149 -75 -228.5t-222 -82.5v-125h-26v125q-147 3 -222 83.5t-75 227.5zM152 989q0 -45 15 -81t36 -58.5t58 -41.5t67.5 -29t77.5 -23v674q-120 -3 -187 -74.5t-67 -192.5v-174zM432 10q133 3 200.5 76.5t67.5 210.5 v176q0 49 -16 87t-38 62t-61.5 44.5t-71 30.5t-81.5 24v-711z" />
<glyph unicode="%" horiz-adv-x="1122" d="M86 1036v166q0 46 9 85t29 73.5t58 54t90 19.5q97 0 142 -65t45 -167v-166q0 -46 -9 -85t-29 -73t-58 -53.5t-91 -19.5q-96 0 -141 64.5t-45 166.5zM117 1036q0 -202 155 -202q44 0 76 17t49.5 47t25 64t7.5 74v166q0 201 -158 201q-44 0 -75.5 -17t-48.5 -46.5t-24 -63 t-7 -74.5v-166zM262 0l549 1434h31l-549 -1434h-31zM649 231v164q0 47 9 86t29.5 73t58.5 53.5t90 19.5q96 0 141 -64.5t45 -167.5v-164q0 -47 -9 -86t-29 -73t-58 -53t-90 -19q-66 0 -109.5 33t-60.5 83t-17 115zM678 231q0 -202 158 -202q85 0 121 57t36 145v164 q0 90 -36.5 146.5t-120.5 56.5q-85 0 -121.5 -57.5t-36.5 -145.5v-164z" />
<glyph unicode="&#x26;" horiz-adv-x="956" d="M104 291v225q0 194 224 234q-181 52 -181 233v182q0 131 83.5 208t197.5 77q128 0 205.5 -78.5t77.5 -206.5v-94h-27v94q0 119 -68 189.5t-186 70.5q-104 0 -179 -70t-75 -190v-182q0 -101 67 -162t173 -61h403v-27h-104v-706l159 -7v-20h-434q-146 0 -241 74.5 t-95 216.5zM133 291q0 -129 87.5 -197.5t219.5 -68.5h254v8q-6 33 -6 96v604h-272q-54 0 -101.5 -10.5t-90 -34.5t-67 -68t-24.5 -104v-225z" />
<glyph unicode="'" horiz-adv-x="174" d="M59 1034v406h31l-4 -406h-27z" />
<glyph unicode="(" horiz-adv-x="446" d="M133.5 844.5q16.5 207.5 81.5 392t166 301.5l20 -18q-122 -142 -186 -386t-62 -497.5t68 -497t187 -385.5l-21 -20q-100 118 -166 302.5t-85 392.5t-2.5 415.5z" />
<glyph unicode=")" horiz-adv-x="450" d="M41 -246q97 114 160.5 295t82 384.5t2.5 407t-78.5 384.5t-160.5 295l21 18q101 -117 165.5 -301.5t81.5 -392t-2.5 -415.5t-85.5 -392.5t-166 -302.5z" />
<glyph unicode="*" horiz-adv-x="567" d="M53 1260l13 24l198 -94l-2 260h29l-2 -260l198 94l13 -24l-205 -95l133 -192l-22 -17l-130 193l-133 -193l-24 17l139 194z" />
<glyph unicode="+" horiz-adv-x="632" d="M70 707v26h225v277h31v-277h225v-26h-225v-275h-31v275h-225z" />
<glyph unicode="," horiz-adv-x="317" d="M80 -131q36 76 50 142t11 147h39q3 -137 -65 -291z" />
<glyph unicode="-" horiz-adv-x="552" d="M74 692v29h393v-29h-393z" />
<glyph unicode="." horiz-adv-x="270" d="M90 27q0 21 16.5 30t33 0t16.5 -30q0 -20 -16.5 -28.5t-33 0t-16.5 28.5z" />
<glyph unicode="/" horiz-adv-x="483" d="M70 -35l319 1481h31l-320 -1481h-30z" />
<glyph unicode="0" horiz-adv-x="886" d="M125 373v686q0 82 18 151t54 125t98.5 87.5t144.5 31.5t144.5 -31.5t99 -87t54.5 -125t18 -151.5v-686q0 -82 -18 -151.5t-54.5 -126t-99 -88.5t-144.5 -32t-144.5 32t-98.5 88.5t-54 126t-18 151.5zM154 373q0 -75 16 -139.5t49 -117t89.5 -82.5t131.5 -30q60 0 109 20 t81.5 54t54.5 81.5t32 100.5t10 113v686q0 74 -16 138t-49 116.5t-90 83t-132 30.5t-131.5 -30.5t-89.5 -83t-49 -116.5t-16 -138v-686z" />
<glyph unicode="1" horiz-adv-x="540" d="M51 1409v25h221v-1405l181 -4v-25h-390v25l181 4v1376z" />
<glyph unicode="2" horiz-adv-x="729" d="M78 0v31q0 121 29 229t75.5 188.5t103 153.5t113 137.5t103 126.5t75.5 134.5t29 148.5q0 146 -54 217.5t-190 71.5q-40 0 -72 -6.5t-56 -16t-42 -28.5t-30 -34.5t-20 -44.5t-12 -48t-6.5 -55.5t-2.5 -56.5v-60v-19h-29q0 81 2 123t16 102.5t41 91t80 53.5t131 23 q149 0 211 -77.5t62 -235.5q0 -80 -29 -155t-76 -138t-103.5 -127.5t-112.5 -137t-103 -151.5t-76 -185.5t-29 -225.5h508l17 293h24l-12 -322h-565z" />
<glyph unicode="3" horiz-adv-x="741" d="M63 319v93h31v-93q0 -156 61 -235.5t207 -79.5q147 0 205 79.5t58 235.5v242q0 140 -70.5 193t-208.5 53h-37v29l289 569h-471l-16 -303h-27l16 332h535v-21l-293 -579q155 0 233 -61t78 -212v-242q0 -83 -14 -143.5t-46 -107t-90 -70t-141 -23.5q-160 0 -229.5 87 t-69.5 257z" />
<glyph unicode="4" horiz-adv-x="761" d="M10 377v35l510 1022h31v-1028h145v-29h-145v-377h-29v377h-512zM39 406h483v966z" />
<glyph unicode="5" horiz-adv-x="770" d="M76 319v93h28v-93q0 -156 62 -235.5t209 -79.5q146 0 203 79.5t57 235.5v261q0 88 -28 154t-72 100.5t-98.5 51.5t-107.5 12t-99.5 -25t-73.5 -52l-31 15l39 598h459v-27h-433l-34 -543q39 31 91.5 47.5t109 17t112 -21t99.5 -60.5t71 -108t27 -159v-261 q0 -169 -65.5 -256.5t-225.5 -87.5q-161 0 -230 86.5t-69 257.5z" />
<glyph unicode="6" horiz-adv-x="874" d="M133 313v824q0 143 75.5 226t217.5 83q143 0 219 -83t76 -226v-62h-29v62q0 131 -68.5 207.5t-197.5 76.5q-128 0 -196 -76.5t-68 -207.5v-406q28 63 83.5 104.5t119.5 56t131.5 3t122 -46t89.5 -99.5t35 -149v-287q0 -145 -84 -241.5t-225 -96.5q-140 0 -220.5 96.5 t-80.5 241.5zM162 313q0 -133 73 -222t199 -89q128 0 204.5 89.5t76.5 221.5v287q0 58 -19 106.5t-51 80t-73.5 54t-87.5 27t-91.5 0t-87 -26t-73.5 -53t-51 -80t-19 -106.5v-289z" />
<glyph unicode="7" horiz-adv-x="702" d="M70 1102l14 332h590v-21l-451 -1415h-33l449 1407h-526l-19 -303h-24z" />
<glyph unicode="8" horiz-adv-x="884" d="M104 309v158q0 112 68 186t172 99q-88 27 -143.5 93.5t-55.5 168.5v166q0 67 25.5 121t67.5 87t93.5 50.5t106.5 17.5q118 0 202.5 -71.5t84.5 -204.5v-166q0 -103 -54.5 -170t-140.5 -92q106 -25 175 -99t69 -186v-158q0 -141 -96.5 -238.5t-241.5 -97.5 q-143 0 -237.5 97.5t-94.5 238.5zM133 309q0 -129 87 -220t216 -91q131 0 220 91t89 220v158q0 87 -47 150.5t-115.5 92.5t-146.5 29q-77 0 -144 -29t-113 -92.5t-46 -150.5v-158zM176 1014q0 -119 78.5 -184.5t185.5 -65.5q105 0 179.5 65t74.5 185v166q0 122 -74.5 187 t-179.5 65q-107 0 -185.5 -66t-78.5 -186v-166z" />
<glyph unicode="9" horiz-adv-x="874" d="M133 821v287q0 145 84 241.5t225 96.5q140 0 220.5 -96t80.5 -242v-823q0 -143 -75 -226.5t-217 -83.5q-143 0 -219 83.5t-76 226.5v61h28v-61q0 -131 69 -207t198 -76q128 0 196 76t68 207v405q-28 -63 -83.5 -104.5t-119.5 -56t-132 -3t-122.5 46t-89.5 99.5t-35 149z M162 821q0 -58 19 -106.5t51 -80t73.5 -54t87.5 -27t91.5 0t87 26t73.5 53t51 80t19 106.5v289q0 133 -73 223t-200 90q-128 0 -204 -90.5t-76 -222.5v-287z" />
<glyph unicode=":" horiz-adv-x="270" d="M90 27q0 21 16.5 30t33 0t16.5 -30q0 -20 -16.5 -28.5t-33 0t-16.5 28.5zM90 676q0 21 16.5 30t33 0t16.5 -30q0 -20 -16.5 -28.5t-33 0t-16.5 28.5z" />
<glyph unicode=";" horiz-adv-x="299" d="M76 -137q37 77 51.5 144t11.5 151h39q3 -140 -65 -297zM119 676q0 21 16.5 30t32.5 0t16 -30q0 -20 -16 -28.5t-32.5 0t-16.5 28.5z" />
<glyph unicode="&#x3c;" horiz-adv-x="555" d="M86 666v28l352 353v-41l-325 -326l325 -326v-39z" />
<glyph unicode="=" horiz-adv-x="552" d="M74 471v29h393v-29h-393zM74 690v29h393v-29h-393z" />
<glyph unicode="&#x3e;" horiz-adv-x="555" d="M123 315v39l326 326l-326 326v41l352 -353v-28z" />
<glyph unicode="?" horiz-adv-x="681" d="M78 1006v163q0 142 71.5 211.5t180.5 71.5q130 0 196 -76.5t66 -208.5v-202q0 -62 -17 -111.5t-44.5 -83t-61 -64.5t-66.5 -66t-60.5 -77.5t-44.5 -108t-17 -149.5h-31q0 84 17.5 150.5t45 110t60.5 80t66.5 68t61 65t45 80.5t17.5 106v202q0 120 -58 189t-175 69 q-114 -1 -169 -70.5t-55 -185.5v-163h-28zM246 33q0 21 17 30t33.5 0t16.5 -30q0 -20 -16.5 -28.5t-33.5 0t-17 28.5z" />
<glyph unicode="@" horiz-adv-x="1361" d="M125 352v449q0 299 178 474q138 137 339 158q193 21 351 -74q171 -101 225 -295q21 -78 21 -165v-512q0 -155 -37 -238.5t-115 -130.5q-42 -25 -87.5 -28.5t-81.5 21.5t-44 75h-2q-34 -45 -89 -69.5t-113 -24.5q-122 0 -181 80t-59 207v600q0 96 44.5 162t113 90.5 t151.5 16.5t160 -50v-981q0 -48 28 -74.5t69 -25.5t79 26q133 91 133 344v512q0 239 -156 380q-129 117 -315 128q-189 11 -342 -93q-179 -123 -226 -356q-15 -75 -15 -157v-449q0 -136 40.5 -253.5t115.5 -197.5t172 -122t218 -29.5t246 82.5l15 -25q-109 -61 -216.5 -79.5 t-198.5 2.5t-170 75.5t-134 135.5t-86 186.5t-31 224.5zM459 279q0 -54 11.5 -99.5t35.5 -82t65.5 -57t98.5 -20.5q61 0 118 29.5t89 79.5v8q-7 19 -7 72v872q-68 35 -141 40t-133 -17.5t-98.5 -81t-38.5 -143.5v-600z" />
<glyph unicode="A" horiz-adv-x="1085" d="M12 0v27l121 4l375 1421h31l368 -1421l144 -4v-27h-326v27l152 4l-103 397h-506l-106 -397l133 -6v-25h-283zM274 457h492l-242 944h-2z" />
<glyph unicode="B" horiz-adv-x="958" d="M74 0v27l162 4v1374l-148 6v23h438q271 0 271 -263v-206q0 -77 -48.5 -130t-125.5 -71q109 -19 164 -71t55 -161v-241q0 -147 -80.5 -219t-229.5 -72h-458zM260 31h275q276 0 276 260v241q0 52 -15.5 91t-41 62t-64 37t-77.5 18.5t-89 4.5h-260v-657q0 -37 -4 -53v-4z M264 774h256q47 0 90 11t79 33t57.5 60t21.5 87v206q0 121 -60 177.5t-182 56.5h-262v-631z" />
<glyph unicode="C" d="M125 358v711q0 79 17.5 146t54 120.5t98 84t143.5 30.5q124 0 200 -64t101 -184h2l-2 238h23v-402h-29v37q0 71 -16.5 131.5t-50.5 109t-92.5 76t-135.5 27.5q-76 0 -132 -28t-88.5 -77t-48 -110.5t-15.5 -134.5v-711q0 -76 16 -137.5t50 -110t92.5 -75.5t138.5 -27 q160 0 226 84.5t66 249.5v78h29v-78q0 -176 -75.5 -270.5t-245.5 -94.5q-86 0 -150 29t-102 82t-56 120.5t-18 149.5z" />
<glyph unicode="D" horiz-adv-x="987" d="M74 0v25l162 6v1374l-150 6v23h346q126 0 219.5 -37.5t150 -123t56.5 -212.5v-684q0 -189 -116.5 -283t-311.5 -94h-356zM260 31h170q183 0 290 84.5t107 261.5v684q0 177 -106.5 260.5t-288.5 83.5h-168v-1311q0 -37 -4 -57v-6z" />
<glyph unicode="E" d="M74 0v25l162 6v1374l-148 4v25h670l8 -318h-27l-10 289h-463v-674h355l6 158h22v-346h-22l-6 159h-355v-614q0 -19 -4 -51v-6h490l16 291h23l-11 -322h-706z" />
<glyph unicode="F" horiz-adv-x="833" d="M74 0v25l164 6v1374l-148 6v23h668l6 -334h-25l-10 305h-463v-674h379l6 158h23v-346h-23l-6 159h-379v-671l166 -6v-25h-358z" />
<glyph unicode="G" horiz-adv-x="921" d="M125 365v708q0 166 77 270.5t236 104.5q123 0 199.5 -63t101.5 -183h2l-2 236h23v-400h-29v37q0 71 -16.5 131.5t-50.5 109t-92.5 76t-135.5 27.5q-147 0 -215.5 -96t-68.5 -250v-708q0 -77 16 -139t50 -111t92.5 -76t138.5 -27q160 0 226 84.5t66 249.5v254l-223 4v23 h252v-627h-24v168q-64 -184 -297 -184q-87 0 -151 29t-101.5 81.5t-55.5 120t-18 150.5z" />
<glyph unicode="H" horiz-adv-x="1146" d="M102 0v25l166 6v1374l-159 6v25h350v-25l-162 -6v-668h549v668l-160 6v25h348v-25l-160 -6v-1374l164 -6v-25h-358v25l166 6v682h-549v-682l166 -6v-25h-361z" />
<glyph unicode="I" horiz-adv-x="563" d="M88 0v25l172 6v1374l-162 6v25h355v-25l-164 -6v-1374l172 -6v-25h-373z" />
<glyph unicode="J" horiz-adv-x="960" d="M98 375v170h29v-170q0 -61 8 -112t27 -98t49 -79.5t77 -52t107 -19.5q75 0 130 28.5t86.5 80t46 114t14.5 138.5v1030l-166 6v25h360v-25l-166 -6v-1030q0 -82 -16.5 -150t-51 -123t-95 -85.5t-142.5 -30.5t-141.5 30.5t-92.5 85.5t-48 122.5t-15 150.5z" />
<glyph unicode="K" horiz-adv-x="1058" d="M76 0v25l164 6v1374l-150 6v25h334v-25l-156 -6v-629q109 1 184.5 23t115.5 60.5t63.5 86.5t38 106t28.5 112.5t44 113.5t77 102q60 54 142 54v-29q-73 0 -123 -47q-51 -49 -81 -123.5t-45 -143t-39 -134.5t-81.5 -116t-153.5 -71q134 -18 197.5 -79.5t99.5 -196.5 l86 -316q11 -41 20.5 -66.5t24.5 -49t34 -32.5t48 -8t68 15l10 -27q-47 -17 -86 -17q-22 0 -41 5q-24 8 -42.5 24.5t-31.5 44t-19 44t-15 50.5l-3 9l-81 313q-39 151 -118.5 209t-240.5 60h-80v-721l168 -6v-25h-360z" />
<glyph unicode="L" horiz-adv-x="868" d="M74 0v25l162 6v1376l-148 2v25h324v-25l-148 -2v-1319q0 -35 -4 -51v-6h494l20 291h21l-15 -322h-706z" />
<glyph unicode="M" horiz-adv-x="1314" d="M74 0v25l145 6v1374l-143 6v25h149q21 0 31 -27l403 -1268h3l374 1266q12 29 41 29h140v-25l-142 -6v-1374l166 -6v-25h-360v25l166 6v1114v201h-3l-370 -1250h-15q-13 0 -16 15l-393 1230h-2v-225v-1085l145 -6v-25h-319z" />
<glyph unicode="N" horiz-adv-x="1026" d="M74 1411v25h159q20 0 31 -25l412 -1079l104 -283h2l-4 260v1098l-131 4v25h299v-25l-139 -4v-1407h-14q-14 0 -20 5.5t-11 19.5l-516 1353h-2l2 -381v-966l137 -6v-25h-307v25l141 6v1374z" />
<glyph unicode="O" horiz-adv-x="927" d="M121 371v694q0 80 22 151.5t63.5 127t108.5 88t150 32.5t150 -32.5t108.5 -88t63.5 -127t22 -151.5v-694q0 -81 -22 -153t-63.5 -128t-108.5 -88.5t-150 -32.5t-150 32.5t-108.5 88.5t-63.5 128t-22 153zM150 371q0 -156 83 -263.5t232 -107.5t232 107.5t83 263.5v694 q0 154 -83 261.5t-232 107.5t-232 -107.5t-83 -261.5v-694z" />
<glyph unicode="P" horiz-adv-x="940" d="M76 0v25l164 6v1378l-148 4v21h418q158 0 244 -87.5t86 -244.5v-254q0 -299 -330 -299h-242v-518l164 -6v-25h-356zM268 573h242q149 0 225 65.5t76 209.5v254q0 147 -77.5 227t-223.5 80h-242v-836z" />
<glyph unicode="Q" horiz-adv-x="925" d="M125 375v686q0 108 36 195.5t114.5 143.5t187.5 56q83 0 149 -32t107 -87.5t62.5 -125.5t21.5 -150v-686q0 -100 -30.5 -182.5t-97 -140t-159.5 -70.5v-68q0 -75 34 -110q17 -18 43 -18q24 0 56 15l13 -22q-40 -18 -72 -18q-33 0 -57 21q-46 40 -46 132v373 q0 136 -91 182q-36 18 -75 18q-35 0 -73 -15q-69 -28 -89 -89q-6 -21 -5 -43q10 -138 86 -233t209 -101v-29q-105 5 -179.5 61.5t-109.5 143.5t-35 193zM154 422q34 57 96 80q38 13 75 13q23 0 45 -5q59 -14 102.5 -73t43.5 -150v-277q123 19 190.5 123t67.5 242v686 q0 73 -19.5 138t-57 116.5t-98 81.5t-136.5 30q-99 0 -171 -52.5t-105 -134t-33 -179.5v-639z" />
<glyph unicode="R" horiz-adv-x="1040" d="M76 0v25l164 6v1378l-148 4v21h418q158 0 244 -87.5t86 -244.5v-187q0 -144 -80.5 -217t-224.5 -73q63 -16 98 -52t63 -102l105 -264q9 -23 14.5 -35t18.5 -38t23.5 -40.5t28 -32t33.5 -24.5t38 -6.5t44 12.5l3 -29q-30 -13 -56 -13q-22 0 -41 9q-25 10 -46.5 30.5 t-39 54t-25.5 51.5t-24 57l-106 262q-16 39 -38 67.5t-48.5 45t-57.5 27t-65 13.5t-72 5q-19 1 -38 1l-38 -1h-41v-592l164 -6v-25h-356zM268 649h242q148 0 224.5 61.5t76.5 204.5v187q0 147 -77.5 227t-223.5 80h-242v-760z" />
<glyph unicode="S" horiz-adv-x="854" d="M109 291v115h30v-115q0 -139 70.5 -213t210.5 -74q141 0 210.5 73.5t69.5 213.5v172q0 71 -32 120t-82.5 74t-112 43t-123.5 37t-112.5 45.5t-82.5 78t-32 126.5v170q0 130 76 209.5t207 83.5h7q203 0 273 -168h4l2 156h25v-377h-31v96q0 121 -71.5 193.5t-196.5 72.5 q-126 0 -195 -71t-69 -195v-170q0 -68 32 -114.5t82.5 -71t112 -42t123.5 -37t112.5 -47.5t82.5 -81.5t32 -130.5v-172q0 -152 -78.5 -233t-232.5 -81q-153 0 -232 82t-79 232z" />
<glyph unicode="T" horiz-adv-x="788" d="M29 1071l18 363h686l17 -363h-25l-20 336h-302v-1376l179 -6v-25h-379v25l172 6v1376h-301l-19 -336h-26z" />
<glyph unicode="U" horiz-adv-x="1081" d="M80 1411v25h336v-25l-152 -6v-1030q0 -75 17 -139.5t50.5 -117t91 -82.5t132.5 -30t132.5 30t91 82.5t50.5 117t17 139.5v1030l-135 6v25h295v-25l-132 -6v-1030q0 -82 -18.5 -152t-55.5 -126t-100 -88t-145 -32q-109 0 -183.5 56.5t-106.5 144t-32 197.5v1030z" />
<glyph unicode="V" horiz-adv-x="1071" d="M27 1409v27h338v-27l-170 -4q60 -229 181.5 -683t180.5 -683q60 229 175.5 683.5t176.5 682.5l-116 4v27h249v-27l-102 -4l-367 -1417h-32l-375 1417z" />
<glyph unicode="W" horiz-adv-x="1435" d="M18 1409v27h328v-27l-160 -2l248 -1368l264 1356h33l266 -1356l248 1368l-125 2v27h273v-27l-119 -2l-258 -1419h-35l-266 1337l-264 -1337h-35l-258 1419z" />
<glyph unicode="X" horiz-adv-x="974" d="M23 0v23l92 4l356 741l-301 639l-111 6v23h113q16 0 25 -17l290 -618l291 606l-114 4v25h247v-23l-100 -6l-307 -639l346 -739l98 -6v-23h-98q-19 0 -27 16l-336 719l-340 -708l132 -2v-25h-256z" />
<glyph unicode="Y" horiz-adv-x="946" d="M16 1411v23h111q14 0 23 -15l333 -743l320 729l-125 6v23h262v-23l-106 -6l-336 -768v-608l182 -6v-23h-389v23l178 6v608l-346 768z" />
<glyph unicode="Z" horiz-adv-x="788" d="M57 0v41l631 1366h-532l-17 -303h-24l14 330h594v-21l-639 -1384h598l16 307h25l-14 -336h-652z" />
<glyph unicode="[" horiz-adv-x="434" d="M164 -160v1741h219v-29h-190v-1683h190v-29h-219z" />
<glyph unicode="\" horiz-adv-x="483" d="M57 1446h31l320 -1481h-31z" />
<glyph unicode="]" horiz-adv-x="423" d="M43 -131h190v1683h-190v29h219v-1741h-219v29z" />
<glyph unicode="^" horiz-adv-x="657" d="M66 748l251 694h27l252 -694h-31l-235 653l-236 -653h-28z" />
<glyph unicode="_" horiz-adv-x="763" d="M66 -37h622v-29h-622v29z" />
<glyph unicode="`" horiz-adv-x="382" d="M84 1386q3 7 8 9h25l147 -170q0 -3 -3 -5.5t-5 -2.5h-23z" />
<glyph unicode="a" horiz-adv-x="974" d="M10 0v20l127 9l338 1278h27l332 -1278l129 -6v-23h-293v3v3v3v3v3v8l135 6l-94 360h-451l-96 -360l127 -6v-23h-281zM264 412h443l-218 854h-2q-46 -164 -125.5 -475.5t-97.5 -378.5z" />
<glyph unicode="b" horiz-adv-x="862" d="M66 0v25l145 4v1235l-133 6v20h395q244 0 244 -235v-187q0 -70 -44 -117t-114 -63q99 -16 149 -63.5t50 -145.5v-217q0 -132 -73 -197t-206 -65h-413zM236 29h245q248 0 248 233v217q0 58 -20 98t-58.5 59.5t-80.5 27.5t-99 8h-233v-592q0 -7 -1 -23.5t-1 -23.5v-4z M238 696h229q58 0 106.5 16.5t82.5 57t34 98.5v187q0 109 -54 159t-163 50h-235v-568z" />
<glyph unicode="c" horiz-adv-x="804" d="M113 324v639q0 150 69.5 246t212.5 96q111 0 180 -57.5t91 -164.5h2l-2 213h20v-362h-27v35q0 134 -65 220.5t-199 86.5q-68 0 -119 -24.5t-80 -68.5t-43 -99t-14 -121v-639q0 -143 64 -229.5t203 -86.5q144 0 204 76t60 223v72h26v-72q0 -158 -68.5 -242.5t-221.5 -84.5 q-150 0 -221.5 94.5t-71.5 249.5z" />
<glyph unicode="d" horiz-adv-x="888" d="M66 0v23l145 6v1235l-135 6v20h313q174 0 278.5 -83.5t104.5 -252.5v-614q0 -171 -104.5 -255.5t-280.5 -84.5h-321zM233 29h154q165 0 260.5 76t95.5 235v614q0 159 -96 234.5t-258 75.5h-151v-1178q0 -30 -5 -53v-4z" />
<glyph unicode="e" horiz-adv-x="802" d="M66 0v23l145 6v1235l-133 4v22h604l6 -286h-24l-9 260h-415v-607h317l6 144h21v-312h-21l-6 144h-317v-553q0 -8 -2 -24t-2 -23v-4h440l14 260h21l-9 -289h-636z" />
<glyph unicode="f" horiz-adv-x="749" d="M66 0v23l147 6v1235l-133 6v20h602l4 -301h-20l-11 275h-415v-607h340l6 144h20v-312h-20l-6 144h-340v-604l149 -6v-23h-323z" />
<glyph unicode="g" horiz-adv-x="831" d="M113 328v639q0 149 69 242.5t213 93.5q112 0 180.5 -56.5t90.5 -163.5h2l-2 211h20v-360h-27v35q0 135 -65 221t-199 86q-68 0 -119 -24t-80 -67.5t-43 -98t-14 -119.5v-639q0 -143 64 -229.5t203 -86.5q144 0 204 75.5t60 223.5v228l-201 2v22h227v-563h-22v152 q-58 -166 -268 -166q-151 0 -222 93t-71 249z" />
<glyph unicode="h" horiz-adv-x="1032" d="M92 0v23l150 6v1235l-144 6v22h316v-22l-146 -6v-600h492v600l-144 6v22h314v-22l-144 -6v-1235l148 -6v-23h-322v23l148 6v610h-492v-610l148 -6v-23h-324z" />
<glyph unicode="i" horiz-adv-x="507" d="M80 0v23l153 6v1235l-143 6v22h318v-22l-148 -6v-1235l156 -6v-23h-336z" />
<glyph unicode="j" horiz-adv-x="864" d="M88 338v151h27v-151q0 -324 241 -324q67 0 116 26t77 72t41.5 102.5t13.5 123.5v926l-149 6v22h325v-22l-149 -6v-926q0 -74 -14.5 -135t-45.5 -110.5t-86 -77t-129 -27.5t-128 27.5t-83.5 77t-43 110t-13.5 135.5z" />
<glyph unicode="k" horiz-adv-x="952" d="M68 0v23l147 6v1235l-135 6v22h301v-22l-139 -6v-566q98 1 165.5 21t103.5 55t57 78t34 95.5t25.5 101.5t40 102t69.5 92q53 47 127 47v-26q-67 0 -110 -43q-39 -38 -65 -92t-36.5 -104t-27.5 -105t-38.5 -98t-70 -78.5t-121.5 -51.5q120 -14 176.5 -70t90.5 -178 l77 -284q10 -37 18 -59.5t22 -44t31 -29.5t43 -7.5t60 13.5l11 -23q-46 -17 -81 -17q-19 0 -34 5q-67 21 -100 156l-74 280q-34 130 -96.5 181.5t-198.5 58.5q-31 2 -98 2v-647l149 -6v-23h-323z" />
<glyph unicode="l" horiz-adv-x="780" d="M66 0v23l145 6v1237l-133 2v22h293v-22l-133 -2v-1186q0 -27 -5 -47v-4h445l18 260h19l-13 -289h-636z" />
<glyph unicode="m" horiz-adv-x="1181" d="M66 0v23l131 6v1235l-129 6v22h141q11 0 16 -5.5t8 -18.5q38 -118 163.5 -519.5t197.5 -617.5h2l330 1135q12 26 37 26h131v-22l-127 -6v-1235l149 -6v-23h-323v23l147 6v1001v180h-2l-332 -1124h-14q-11 0 -14 12q-129 406 -357 1104h-2l4 -162v-1011l129 -6v-23h-286z " />
<glyph unicode="n" horiz-adv-x="921" d="M66 1270v22h143q20 0 29 -22l286 -754q165 -438 176 -465h2q-4 316 -4 475v740l-116 4v22h268v-22l-125 -4v-1266h-12q-19 0 -29 23l-463 1216h-2q0 -56 1 -170t1 -172v-868l123 -6v-23h-276v23l127 6v1235z" />
<glyph unicode="o" horiz-adv-x="835" d="M109 334v624q0 98 33.5 177.5t105 130.5t170.5 51q100 0 172 -51t105.5 -130.5t33.5 -177.5v-624q0 -154 -81.5 -257.5t-229.5 -103.5q-147 0 -228 104t-81 257zM135 334q0 -140 75 -237t208 -97q134 0 209 97.5t75 236.5v624q0 138 -75 235t-209 97q-133 0 -208 -96.5 t-75 -235.5v-624z" />
<glyph unicode="p" horiz-adv-x="845" d="M68 0v23l147 6v1239l-133 4v18h377q142 0 219.5 -78.5t77.5 -220.5v-227q0 -270 -297 -270h-217v-465l147 -6v-23h-321zM242 516h217q133 0 201.5 59t68.5 189v227q0 133 -69.5 205t-200.5 72h-217v-752z" />
<glyph unicode="q" horiz-adv-x="833" d="M113 338v616q0 151 79.5 254t225.5 103q147 0 226 -103t79 -254v-616q0 -139 -66.5 -237.5t-191.5 -116.5v-62q0 -67 30 -98q15 -16 39 -16q23 0 52 14l10 -21q-35 -17 -64 -17q-30 0 -52 19q-42 37 -42 119v336q0 124 -84 164q-32 16 -66 16t-69 -16q-65 -28 -78 -87 q-3 -14 -2 -30q8 -123 76.5 -208t187.5 -91v-26q-94 5 -161 56t-98 128.5t-31 173.5zM139 379q25 41 66 63q38 21 78 21h7q44 -2 84 -22.5t65.5 -68.5t25.5 -114v-248q112 18 171.5 110t59.5 218v616q0 89 -29.5 162t-94 120.5t-154.5 47.5q-89 0 -154 -47.5t-95 -120.5 t-30 -162v-575z" />
<glyph unicode="r" horiz-adv-x="935" d="M68 0v23l147 6v1239l-133 4v18h377q142 0 219.5 -78.5t77.5 -220.5v-168q0 -129 -72.5 -194.5t-202.5 -67.5q57 -13 89 -45t57 -92q16 -39 47.5 -119t46.5 -119q7 -18 12.5 -31t16.5 -34.5t21.5 -36t25.5 -29.5t30 -21.5t34.5 -6t39.5 11.5l2 -27q-28 -11 -52 -11 q-19 0 -36 7q-22 10 -40.5 28t-35 48.5t-23.5 46t-22 51.5l-96 236q-9 23 -21.5 42t-24 33.5t-30.5 25t-31 18t-37 12.5t-37 7.5t-42 3.5t-41.5 1h-46h-45.5v-532l147 -6v-23h-321zM242 584h217q133 0 201.5 55.5t68.5 183.5v168q0 132 -70 204.5t-200 72.5h-217v-684z" />
<glyph unicode="s" horiz-adv-x="770" d="M98 262v103h29v-103q0 -125 62.5 -191.5t189.5 -66.5q126 0 189 66t63 192v154q0 64 -28.5 108t-74.5 67t-101.5 39.5t-111 33.5t-101.5 41t-74.5 70.5t-28.5 113.5v153q0 116 69 188t187 75h7q180 0 244 -150h5l2 139h22v-340h-29v88q0 109 -64 173.5t-177 64.5 t-175.5 -64t-62.5 -174v-153q0 -62 28.5 -104t74.5 -63.5t101.5 -37.5t111 -34t101.5 -43t74.5 -73t28.5 -118v-154q0 -136 -71 -209t-209 -73t-209.5 73.5t-71.5 208.5z" />
<glyph unicode="t" horiz-adv-x="710" d="M27 965l16 325h619l14 -325h-23l-18 301h-270v-1237l159 -6v-23h-340v23l154 6v1237h-270l-17 -301h-24z" />
<glyph unicode="u" horiz-adv-x="972" d="M72 1270v22h303v-22l-137 -6v-926q0 -142 65.5 -237t196.5 -95q89 0 149.5 48t85.5 120t25 164v926l-121 6v22h266v-22l-119 -6v-926q0 -74 -16.5 -136.5t-49.5 -113t-89.5 -79.5t-130.5 -29t-131.5 29t-91.5 79t-51 113.5t-17 136.5v926z" />
<glyph unicode="v" horiz-adv-x="980" d="M25 1268v24h305v-24l-154 -4q53 -205 163 -613.5t163 -613.5q55 205 158.5 613.5t158.5 613.5l-131 4v24h270v-24l-112 -4l-330 -1274h-29l-337 1274z" />
<glyph unicode="w" horiz-adv-x="1292" d="M16 1268v24h295v-24q-23 0 -71 -1t-72 -1l223 -1229l238 1218h28l240 -1218q37 205 111.5 614.5t111.5 614.5q-18 0 -56 1t-56 1v24h245v-24q-17 0 -53 -1t-53 -1l-234 -1276h-30l-240 1200l-237 -1200h-33l-232 1276q-21 0 -62 1t-63 1z" />
<glyph unicode="x" horiz-adv-x="950" d="M20 0v20l127 5l322 665l-270 576l-136 6v20h138q14 0 22 -14l260 -557l262 547l-129 4v20h277v-20l-117 -4l-276 -576l311 -665l129 -7v-20h-131q-17 0 -25 14l-301 648l-305 -637l150 -5v-20h-308z" />
<glyph unicode="y" horiz-adv-x="874" d="M18 1270v20h123q12 0 21 -12l295 -670l286 656l-110 6v20h235v-20l-96 -6l-301 -691v-546l164 -7v-20h-350v20l159 7v546l-307 691z" />
<glyph unicode="z" horiz-adv-x="710" d="M51 0v37l567 1229h-479l-14 -273h-23l13 297h536v-18l-575 -1245h536l17 276h22l-14 -303h-586z" />
<glyph unicode="{" horiz-adv-x="452" d="M94 682v27q63 21 81 61t18 115q0 31 -6 86.5t-13 110.5t-11.5 121t-3.5 122t13.5 107.5t37 85.5t70 48t109.5 1l-2 -25q-64 13 -107.5 -7.5t-62.5 -67t-26.5 -104t-3 -129t11.5 -132.5t14.5 -123.5t7.5 -93.5q0 -72 -17.5 -120.5t-72.5 -68.5v-2q57 -24 73.5 -69 t16.5 -119q0 -29 -7.5 -90.5t-14.5 -122t-11.5 -132.5t3 -130.5t26.5 -105.5t62.5 -67.5t107.5 -7.5l2 -26q-64 -13 -109.5 1.5t-70 49t-37 86.5t-13.5 109t3.5 122.5t11.5 120.5t13 109.5t6 83.5q0 75 -18 115t-81 61z" />
<glyph unicode="|" horiz-adv-x="399" d="M176 -139v1595h29v-1595h-29z" />
<glyph unicode="}" horiz-adv-x="456" d="M57 -176l2 26q64 -13 107.5 7.5t62.5 67.5t26.5 105.5t3 130.5t-11.5 132.5t-14.5 122t-7.5 90.5q0 74 16.5 119t73.5 69v2q-55 20 -72.5 68.5t-17.5 120.5q0 31 7.5 93.5t14.5 123.5t11.5 132.5t-3 129t-26.5 104t-62.5 67t-107.5 7.5l-2 25q64 13 109.5 -1.5t70 -48 t37.5 -85t13.5 -107.5t-3.5 -122t-11 -121t-13 -110.5t-6 -86.5q0 -38 2.5 -60.5t12 -47t30 -41t53.5 -27.5v-27q-33 -11 -53.5 -27.5t-30 -41t-12 -47t-2.5 -60.5q0 -29 6 -83.5t13 -109.5t11 -120.5t3.5 -122.5t-13.5 -109t-37.5 -86.5t-70 -49t-109.5 -1.5z" />
<glyph unicode="~" horiz-adv-x="786" d="M76 635q24 68 77.5 100.5t120.5 12.5q34 -11 110.5 -47.5t119.5 -47.5q61 -14 101.5 5t64.5 77l26 -10q-55 -137 -200 -98q-44 10 -121 46t-109 46q-56 18 -99.5 -9t-64.5 -85z" />
<glyph unicode="&#xa1;" horiz-adv-x="264" d="M88 1130q0 20 17 28.5t34 0t17 -28.5q0 -21 -17 -30t-34 0t-17 30zM109 -268v1138h28v-1138h-28z" />
<glyph unicode="&#xa2;" d="M125 358v471q0 78 17.5 144t52.5 119t94.5 84.5t138.5 33.5v123h25v-123q235 -9 286 -247h2l-2 237h23v-401h-29v37q0 147 -69 244.5t-211 103.5v-1180q158 0 224 86.5t66 251.5v78h29v-78q0 -175 -75.5 -269.5t-243.5 -95.5v-131h-25v131q-106 5 -175.5 58t-98.5 134 t-29 189zM154 358q0 -73 14.5 -133.5t46 -109.5t85.5 -78t128 -33v1180q-59 -2 -105.5 -22t-78 -52.5t-52 -78t-29.5 -95.5t-9 -107v-471z" />
<glyph unicode="&#xa3;" horiz-adv-x="919" d="M63 662v26h191q-17 59 -29 122t-19 138.5t-3.5 144t22 133.5t52.5 112.5t93.5 76.5t139.5 29q141 0 215 -77.5t74 -219.5h-29q0 131 -65 199.5t-195 68.5q-75 0 -130 -28.5t-85.5 -74.5t-46.5 -110t-17.5 -130t6 -138.5t20 -131.5t28.5 -114h311l-10 -26h-293 q105 -382 -103 -596q54 17 111.5 17t101.5 -10t107 -20t117 -10q189 0 192 193l29 -9q-1 -103 -59 -158t-162 -55q-67 0 -142.5 13t-122 22t-116.5 -1.5t-148 -49.5v27q79 55 126.5 129t62.5 158t8.5 170.5t-33.5 179.5h-199z" />
<glyph unicode="&#xa4;" horiz-adv-x="720" d="M78 346l112 109q-10 19 -17.5 43t-11 41.5t-5.5 50t-2.5 45t0 50.5t0.5 44q0 8 0.5 40t1 45t2 41t4.5 45t7.5 40t11.5 42.5t16 37.5l-119 113l20 20l115 -109q50 70 147 70q103 0 154 -67l113 106l18 -20l-117 -111q12 -23 19.5 -49.5t10 -65t3.5 -54.5t0.5 -66.5 t-0.5 -53.5q0 -47 1.5 -92t-7 -95.5t-27.5 -86.5l117 -113l-18 -20l-113 106q-52 -65 -156 -65q-101 0 -151 63l-109 -104zM181.5 643q-1.5 -45 8 -89t25.5 -79.5t53 -57.5t90 -22q52 0 88 20t52 53t26 74.5t8.5 85t-0.5 84.5v21q-1 23 0 47.5t0 51t-2 52.5t-6.5 51 t-12.5 47t-20 41t-30.5 32.5t-43 21.5t-57.5 8q-36 0 -64.5 -12t-46.5 -29.5t-31.5 -49t-20 -56t-10 -65t-4 -62t-1.5 -60.5v-22q1 -41 -0.5 -86z" />
<glyph unicode="&#xa5;" horiz-adv-x="962" d="M14 1411v23h101q16 0 22 -15l340 -702l318 688l-117 6v23h250v-23l-103 -6l-323 -705h229v-26h-237l-2 -8v-154h239v-27h-239v-456l180 -4v-25h-389v25l180 4v456h-252v27h252v147l-4 15h-248v26h240l-338 705z" />
<glyph unicode="&#xa6;" horiz-adv-x="374" d="M152 -139v698h28v-698h-28zM152 745v705h28v-705h-28z" />
<glyph unicode="&#xa7;" horiz-adv-x="821" d="M109 6h28v-108q-2 -131 65.5 -202t200.5 -71q134 0 200.5 69.5t66.5 203.5v165q0 68 -30.5 114t-78.5 69.5t-106.5 40.5t-117.5 34t-107 41.5t-78.5 73t-30.5 119.5v164q0 86 65 151q-55 55 -55 148v162q0 125 75 198.5t202 73.5q129 0 202.5 -68.5t73.5 -195.5v-86h-27 v86q0 118 -66.5 178.5t-184.5 60.5q-117 0 -181.5 -66t-64.5 -181v-162q0 -56 23 -96.5t61 -61.5t86.5 -38.5t98.5 -28.5t98.5 -30.5t86.5 -44.5t61 -71t23 -110v-164q0 -84 -63 -144q63 -60 63 -166v-165q0 -144 -75 -220.5t-220 -76.5t-219.5 77.5t-74.5 219.5v108z M150 555q0 -58 24 -99.5t62 -63t89.5 -39.5t100.5 -29t102 -31.5t88 -46.5q54 57 54 127v164q0 60 -25 103t-63.5 65.5t-90.5 40.5t-101.5 29t-101.5 31.5t-85 47.5q-53 -53 -53 -135v-164z" />
<glyph unicode="&#xa8;" horiz-adv-x="555" d="M92 1307q0 21 17 30t34 0t17 -30q0 -20 -17 -28.5t-34 0t-17 28.5zM375 1307q0 21 16.5 30t32.5 0t16 -30q0 -20 -16 -28.5t-32.5 0t-16.5 28.5z" />
<glyph unicode="&#xa9;" horiz-adv-x="1185" d="M102 627v190q0 202 133.5 333.5t335.5 131.5t334.5 -131.5t132.5 -333.5v-190q0 -201 -133 -332t-334 -131q-202 0 -335.5 131.5t-133.5 331.5zM131 627q0 -189 124.5 -311.5t315.5 -122.5q189 0 313 122.5t124 311.5v190q0 190 -123.5 312t-313.5 122 q-191 0 -315.5 -122t-124.5 -312v-190zM418 563v309q0 77 35.5 126t109.5 49q85 0 123 -68v63h27v-190h-31q0 29 -2 50t-9 45t-19 38.5t-34.5 24.5t-54.5 10q-62 0 -89.5 -41.5t-27.5 -106.5v-309q0 -147 121 -147q66 0 93.5 35.5t27.5 103.5v41h29v-41q0 -168 -150 -168 q-77 0 -113 47.5t-36 128.5z" />
<glyph unicode="&#xaa;" horiz-adv-x="718" d="M96 602v23h514v-23h-514zM106 723v22l52 3l184 698h25l180 -698l71 -3v-22h-184v22l84 3l-47 184h-238l-47 -184l54 -3v-22h-134zM242 958h223l-111 433z" />
<glyph unicode="&#xab;" horiz-adv-x="647" d="M90 698l160 340l22 -10l-149 -330l153 -327l-22 -11zM365 698l159 340l23 -10l-150 -330l154 -327l-23 -11z" />
<glyph unicode="&#xac;" horiz-adv-x="796" d="M74 692v29h628v-301h-26v272h-602z" />
<glyph unicode="&#xad;" horiz-adv-x="552" d="M74 692v29h393v-29h-393z" />
<glyph unicode="&#xae;" horiz-adv-x="1181" d="M104 627v190q0 202 133.5 333.5t335.5 131.5t334.5 -131.5t132.5 -333.5v-190q0 -201 -133 -332t-334 -131q-202 0 -335.5 131.5t-133.5 331.5zM135 627q0 -189 124.5 -313t313.5 -124t314 124t125 313v190q0 190 -125 314t-314 124t-313.5 -124t-124.5 -314v-190z M381 389v27l72 2v588l-64 2v24h191q72 0 112.5 -40.5t40.5 -112.5v-82q0 -114 -106 -133q24 -16 43 -58q8 -22 23.5 -60.5t21.5 -53.5q22 -55 37 -67q21 -16 51 1l2 -29q-17 -7 -31 -8.5t-25.5 5.5t-19.5 12.5t-17 22.5t-13 24t-13 28l-45 115q-4 11 -10 19.5t-11 15 t-14.5 11.5t-14 8.5t-17 5.5t-16.5 3.5t-19 2t-18.5 0.5h-20.5h-19v-244l76 -2v-27h-176zM481 688h99q61 0 91.5 25t30.5 84v82q0 60 -31 92.5t-91 32.5h-99v-316z" />
<glyph unicode="&#xb0;" horiz-adv-x="491" d="M69 1237q0 55 17.5 101.5t56 78t90.5 31.5t90.5 -31.5t56 -78t17.5 -101.5t-17.5 -101.5t-56 -78t-90.5 -31.5t-90.5 31.5t-56 78t-17.5 101.5zM103.5 1183.5q8.5 -53.5 43.5 -91t86 -37.5t86 37.5t43.5 91t0 107t-43.5 91t-86 37.5t-86 -37.5t-43.5 -91t0 -107z" />
<glyph unicode="&#xb1;" horiz-adv-x="632" d="M70 707v26h225v277h31v-277h225v-26h-225v-275h-31v275h-225zM74 229v29h477v-29h-477z" />
<glyph unicode="&#xb2;" horiz-adv-x="512" d="M100 684v27q1 88 29 162.5t67.5 124.5t79.5 94t67.5 91.5t27.5 96.5q0 72 -25.5 107.5t-93.5 35.5q-35 0 -58.5 -9.5t-35.5 -21.5t-17.5 -37.5t-6.5 -43t-1 -53.5v-9v-18h-27v18q0 52 3.5 81.5t17 60.5t44.5 45t81 14q81 0 114 -43.5t33 -126.5q0 -44 -20 -87 t-49.5 -77.5t-65 -77.5t-65.5 -86t-50.5 -105.5t-21.5 -133.5h250l8 149h23l-7 -178h-301z" />
<glyph unicode="&#xb3;" horiz-adv-x="509" d="M96 862v51h27v-51q0 -76 29.5 -116.5t103.5 -40.5q73 0 101 40t28 117v123q0 68 -34 94.5t-103 26.5h-25v22l144 285h-226l-10 -156h-25l9 183h286v-19l-145 -288q76 -2 116 -36t40 -112v-123q0 -90 -35 -137t-121 -47q-87 0 -123.5 47t-36.5 137z" />
<glyph unicode="&#xb4;" horiz-adv-x="382" d="M115 1212l147 170h25q5 -3 8 -8l-150 -170h-22q-2 0 -5 2.5t-3 5.5z" />
<glyph unicode="&#xb6;" horiz-adv-x="917" d="M72 1159q0 126 76 201.5t202 75.5h406v-1712h-29v1683h-350v-1683h-29v1171q-134 8 -205 70.5t-71 193.5z" />
<glyph unicode="&#xb7;" horiz-adv-x="270" d="M90 709q0 21 16.5 30t33 0t16.5 -30q0 -20 -16.5 -28.5t-33 0t-16.5 28.5z" />
<glyph unicode="&#xb8;" horiz-adv-x="520" d="M66 -352l6 30q38 -24 92.5 -36.5t106.5 -8.5t89 37t37 92q0 26 -9.5 45t-29 29t-38 15.5t-47.5 6t-45.5 0t-43.5 -2.5l39 145h29l-31 -119q205 9 205 -119q0 -67 -39 -107t-96 -48t-117.5 3t-107.5 38z" />
<glyph unicode="&#xb9;" horiz-adv-x="466" d="M111 1409v25h145v-723l106 -2v-25h-241v25l108 2v694z" />
<glyph unicode="&#xba;" horiz-adv-x="587" d="M125 889v352q0 90 41 149.5t127 59.5t127 -59.5t41 -149.5v-352q0 -91 -41 -151t-127 -60t-127 60t-41 151zM152 889q0 -78 34.5 -131t106.5 -53t106.5 53t34.5 131v352q0 78 -33.5 130t-107.5 52q-73 0 -107 -52.5t-34 -129.5v-352z" />
<glyph unicode="&#xbb;" horiz-adv-x="649" d="M104 371l154 327l-149 330l22 10l160 -340l-164 -338zM379 371l153 327l-149 330l23 10l159 -340l-164 -338z" />
<glyph unicode="&#xbc;" horiz-adv-x="1122" d="M100 1411v25h131v-723l107 -2v-25h-236v25l103 2v696zM395 2l273 1471h30l-274 -1471h-29zM649 180v25l266 534h25v-532h76v-27h-76v-180h-27v180h-264zM682 207h231v467z" />
<glyph unicode="&#xbd;" horiz-adv-x="1140" d="M100 684v25l93 2v696l-82 2v25h108v-723l92 -2v-25h-211zM373 0l272 1470h31l-275 -1470h-28zM725 0v27q1 88 29.5 162t68.5 124t79.5 94t67 92t27.5 97q0 72 -25 106.5t-93 34.5q-35 0 -58.5 -9.5t-35 -21t-17.5 -37.5t-7 -43t-1 -52v-9v-18h-27v18q0 29 0.5 47 t3.5 41.5t9 37.5t16.5 29.5t26 24t38 14t52.5 5.5q80 0 112.5 -43t32.5 -125q0 -52 -27.5 -102t-66.5 -95t-78.5 -95t-68 -122t-29.5 -155h247l9 149h24l-6 -176h-303z" />
<glyph unicode="&#xbe;" horiz-adv-x="1183" d="M100 854v53h27v-53q0 -76 29.5 -116t101.5 -40q73 0 101 40t28 116v125q0 68 -33.5 94.5t-103.5 26.5h-25v20l146 287h-228l-8 -156h-24l8 183h284v-19l-145 -291q78 -2 117 -34.5t39 -110.5v-125q0 -90 -34.5 -136t-121.5 -46q-85 0 -121.5 47t-36.5 135zM442 0 l289 1470h29l-287 -1470h-31zM713 180v25l264 530h24v-528h76v-27h-76v-194h-26v194h-262zM743 207h232v463z" />
<glyph unicode="&#xbf;" horiz-adv-x="681" d="M78 25v202q0 62 17 111.5t44.5 83t61 64.5t66.5 66t60.5 77.5t44.5 108t17 149.5h31q0 -84 -17.5 -150.5t-45 -110t-61 -80t-67 -68t-61 -65t-45 -80.5t-17.5 -106v-202q0 -120 58 -189t176 -69q113 1 168 70t55 186v163h29v-163q0 -142 -71.5 -211.5t-180.5 -71.5 q-130 0 -196 76.5t-66 208.5zM356 1159q0 20 17 28.5t34 0t17 -28.5q0 -21 -17 -30t-34 0t-17 30z" />
<glyph unicode="&#xc0;" horiz-adv-x="1085" d="M12 0v27l121 4l375 1421h31l368 -1421l144 -4v-27h-326v27l152 4l-103 397h-506l-106 -397l133 -6v-25h-283zM274 457h492l-242 944h-2zM397 1753q2 5 9 8h24l148 -170q0 -3 -3.5 -5.5t-5.5 -2.5h-22z" />
<glyph unicode="&#xc1;" horiz-adv-x="1085" d="M12 0h283v25l-133 6l106 397h506l103 -397l-152 -4v-27h326v27l-144 4l-368 1421h-31l-375 -1421l-121 -4v-27zM274 457l248 944h2l242 -944h-492zM475 1571l148 170h24q5 -3 8 -8l-149 -170h-23q-2 0 -5 2.5t-3 5.5z" />
<glyph unicode="&#xc2;" horiz-adv-x="1085" d="M12 0v27l121 4l375 1421h31l368 -1421l144 -4v-27h-326v27l152 4l-103 397h-506l-106 -397l133 -6v-25h-283zM274 457h492l-242 944h-2zM345 1559q-2 2 1 4l162 168h35l164 -168q3 -3 -2 -6t-9 -3h-24l-146 154l-147 -154h-25q-7 0 -9 5z" />
<glyph unicode="&#xc3;" horiz-adv-x="1085" d="M12 0h283v25l-133 6l106 397h506l103 -397l-152 -4v-27h326v27l-144 4l-368 1421h-31l-375 -1421l-121 -4v-27zM274 457l248 944h2l242 -944h-492zM311 1628q46 109 144 82q29 -7 81.5 -34.5t79.5 -35.5q40 -13 66 -1t43 51l23 -11q-20 -47 -51 -63.5t-79 -5.5 q-32 8 -86.5 36.5t-82.5 36.5q-79 21 -115 -65z" />
<glyph unicode="&#xc4;" horiz-adv-x="1085" d="M12 0h283v25l-133 6l106 397h506l103 -397l-152 -4v-27h326v27l-144 4l-368 1421h-31l-375 -1421l-121 -4v-27zM274 457l248 944h2l242 -944h-492zM344 1634q0 21 17 30t34 0t17 -30q0 -20 -17 -28.5t-34 0t-17 28.5zM627 1634q0 21 16.5 30t32.5 0t16 -30 q0 -20 -16 -28.5t-32.5 0t-16.5 28.5z" />
<glyph unicode="&#xc5;" horiz-adv-x="1085" d="M12 0h283v25l-133 6l106 397h506l103 -397l-152 -4v-27h326v27l-144 4l-368 1421h-31l-375 -1421l-121 -4v-27zM274 457l248 944h2l242 -944h-492zM384 1670q0 32 14.5 59.5t47 46t76.5 18.5t77 -18.5t47.5 -46t14.5 -59.5t-14.5 -59.5t-47.5 -46t-77 -18.5t-76.5 18.5 t-47 46t-14.5 59.5zM411 1669q0 -37 29.5 -67.5t81.5 -30.5t81.5 30.5t29.5 67.5t-29.5 67.5t-81.5 30.5t-81.5 -30.5t-29.5 -67.5z" />
<glyph unicode="&#xc6;" horiz-adv-x="1351" d="M10 0v25l103 4l589 1376l-122 2v27h647l8 -320h-27l-10 291h-440v-674h332l4 156h24v-346h-24l-4 161h-332v-616q0 -33 -4 -51v-6h467l16 293h23l-11 -322h-682v23l162 6v516h-362q-148 -344 -224 -516l111 -4v-25h-244zM377 571h352v826q-70 -161 -199 -465.5 t-153 -360.5z" />
<glyph unicode="&#xc7;" d="M125 358v711q0 79 17.5 146t54 120.5t98 84t143.5 30.5q124 0 200 -64t101 -184h2l-2 238h23v-402h-29v37q0 71 -16.5 131.5t-50.5 109t-92.5 76t-135.5 27.5q-76 0 -132 -28t-88.5 -77t-48 -110.5t-15.5 -134.5v-711q0 -76 16 -137.5t50 -110t92.5 -75.5t138.5 -27 q160 0 226 84.5t66 249.5v78h29v-78q0 -351 -299 -365l-31 -116q207 9 207 -119q0 -67 -39 -106.5t-96 -47t-117.5 4t-107.5 38.5l6 27q38 -24 92.5 -36.5t107 -8.5t89.5 37t37 92q0 23 -8.5 40t-19.5 27t-31.5 16.5t-36 9t-41.5 2.5t-39 -0.5t-37 -2.5l36 143 q-84 1 -147 30.5t-99.5 82t-54.5 119.5t-18 149z" />
<glyph unicode="&#xc8;" d="M74 0v25l162 6v1374l-148 4v25h670l8 -318h-27l-10 289h-463v-674h355l6 158h22v-346h-22l-6 159h-355v-614q0 -19 -4 -51v-6h490l16 291h23l-11 -322h-706zM360 1735q2 5 9 8h24l148 -170q0 -3 -3.5 -5.5t-5.5 -2.5h-22z" />
<glyph unicode="&#xc9;" d="M74 0v25l162 6v1374l-148 4v25h670l8 -318h-27l-10 289h-463v-674h355l6 158h22v-346h-22l-6 159h-355v-614q0 -19 -4 -51v-6h490l16 291h23l-11 -322h-706zM418 1565l147 170h25q5 -2 8 -9l-149 -170h-23q-2 0 -5 3t-3 6z" />
<glyph unicode="&#xca;" d="M74 0v25l162 6v1374l-148 4v25h670l8 -318h-27l-10 289h-463v-674h355l6 158h22v-346h-22l-6 159h-355v-614q0 -19 -4 -51v-6h490l16 291h23l-11 -322h-706zM299 1592q0 2 2 3l162 168h35l164 -168q3 -3 -2 -5.5t-9 -2.5h-24l-146 154l-147 -154h-25q-9 0 -10 5z" />
<glyph unicode="&#xcb;" d="M74 0v25l162 6v1374l-148 4v25h670l8 -318h-27l-10 289h-463v-674h355l6 158h22v-346h-22l-6 159h-355v-614q0 -19 -4 -51v-6h490l16 291h23l-11 -322h-706zM295 1616q0 21 16.5 30t33.5 0t17 -30q0 -20 -17 -28.5t-33.5 0t-16.5 28.5zM578 1616q0 21 16 30t32.5 0 t16.5 -30q0 -20 -16.5 -28.5t-32.5 0t-16 28.5z" />
<glyph unicode="&#xcc;" horiz-adv-x="563" d="M88 0v25l172 6v1374l-162 6v25h355v-25l-164 -6v-1374l172 -6v-25h-373zM137 1753q3 5 8 8h25l147 -170q0 -3 -3 -5.5t-5 -2.5h-22z" />
<glyph unicode="&#xcd;" horiz-adv-x="563" d="M88 0v25l172 6v1374l-162 6v25h355v-25l-164 -6v-1374l172 -6v-25h-373zM205 1599l147 170h25q5 -3 8 -8l-149 -170h-23q-2 0 -5 2.5t-3 5.5z" />
<glyph unicode="&#xce;" horiz-adv-x="563" d="M88 0v25l172 6v1374l-162 6v25h355v-25l-164 -6v-1374l172 -6v-25h-373zM92 1580q0 2 2 3l162 168h35l164 -168q3 -3 -2 -5.5t-9 -2.5h-24l-146 154l-147 -154h-25q-9 0 -10 5z" />
<glyph unicode="&#xcf;" horiz-adv-x="563" d="M88 0v25l172 6v1374l-162 6v25h355v-25l-164 -6v-1374l172 -6v-25h-373zM102 1632q0 21 17 30t34 0t17 -30q0 -20 -17 -28.5t-34 0t-17 28.5zM385 1632q0 21 16.5 30t33 0t16.5 -30q0 -20 -16.5 -28.5t-33 0t-16.5 28.5z" />
<glyph unicode="&#xd0;" horiz-adv-x="987" d="M68 698v27h168v680l-150 6v23h346q126 0 219.5 -37.5t150 -123t56.5 -212.5v-684q0 -189 -116.5 -283t-311.5 -94h-356v25l162 6v667h-168zM260 31h170q183 0 290 84.5t107 261.5v684q0 177 -106.5 260.5t-288.5 83.5h-168v-680h264v-27h-264v-604q0 -37 -4 -57v-6z" />
<glyph unicode="&#xd1;" horiz-adv-x="1026" d="M74 1411l143 -6v-1374l-141 -6v-25h307v25l-137 6v966l-2 381h2l516 -1353q5 -14 11 -19.5t20 -5.5h14v1407l139 4v25h-299v-25l131 -4v-1098l4 -260h-2l-104 283l-412 1079q-11 25 -31 25h-159v-25zM289 1653q45 109 143 82q29 -7 82 -34.5t80 -35.5q39 -13 65 -1.5 t43 50.5l23 -10q-20 -47 -51 -64t-78 -6q-32 8 -87 37t-83 37q-78 21 -115 -66z" />
<glyph unicode="&#xd2;" horiz-adv-x="929" d="M121 371v694q0 80 22 151.5t63.5 127t108.5 88t150 32.5t150 -32.5t108.5 -88t63.5 -127t22 -151.5v-694q0 -81 -22 -153t-63.5 -128t-108.5 -88.5t-150 -32.5t-150 32.5t-108.5 88.5t-63.5 128t-22 153zM150 371q0 -156 83 -263.5t232 -107.5t232 107.5t83 263.5v694 q0 154 -83 261.5t-232 107.5t-232 -107.5t-83 -261.5v-694zM305 1745q3 5 8 8h25l147 -170q0 -3 -3 -5.5t-5 -2.5h-22z" />
<glyph unicode="&#xd3;" horiz-adv-x="929" d="M121 371v694q0 80 22 151.5t63.5 127t108.5 88t150 32.5t150 -32.5t108.5 -88t63.5 -127t22 -151.5v-694q0 -81 -22 -153t-63.5 -128t-108.5 -88.5t-150 -32.5t-150 32.5t-108.5 88.5t-63.5 128t-22 153zM150 371q0 -156 83 -263.5t232 -107.5t232 107.5t83 263.5v694 q0 154 -83 261.5t-232 107.5t-232 -107.5t-83 -261.5v-694zM444 1583l148 170h24q7 -3 9 -8l-150 -170h-22q-2 0 -5.5 2.5t-3.5 5.5z" />
<glyph unicode="&#xd4;" horiz-adv-x="929" d="M121 371v694q0 80 22 151.5t63.5 127t108.5 88t150 32.5t150 -32.5t108.5 -88t63.5 -127t22 -151.5v-694q0 -81 -22 -153t-63.5 -128t-108.5 -88.5t-150 -32.5t-150 32.5t-108.5 88.5t-63.5 128t-22 153zM150 371q0 -156 83 -263.5t232 -107.5t232 107.5t83 263.5v694 q0 154 -83 261.5t-232 107.5t-232 -107.5t-83 -261.5v-694zM283 1596q0 2 2 3l161 168h35l164 -168q3 -3 -1.5 -5.5t-8.5 -2.5h-25l-145 154l-148 -154h-24q-9 0 -10 5z" />
<glyph unicode="&#xd5;" horiz-adv-x="929" d="M121 371v694q0 80 22 151.5t63.5 127t108.5 88t150 32.5t150 -32.5t108.5 -88t63.5 -127t22 -151.5v-694q0 -81 -22 -153t-63.5 -128t-108.5 -88.5t-150 -32.5t-150 32.5t-108.5 88.5t-63.5 128t-22 153zM150 371q0 -156 83 -263.5t232 -107.5t232 107.5t83 263.5v694 q0 154 -83 261.5t-232 107.5t-232 -107.5t-83 -261.5v-694zM262 1661q46 109 144 82q29 -7 81.5 -34.5t79.5 -35.5q39 -13 65.5 -1.5t43.5 50.5l22 -10q-20 -47 -51 -64t-78 -6q-32 8 -87 37t-83 37q-78 21 -114 -65z" />
<glyph unicode="&#xd6;" horiz-adv-x="929" d="M121 371v694q0 80 22 151.5t63.5 127t108.5 88t150 32.5t150 -32.5t108.5 -88t63.5 -127t22 -151.5v-694q0 -81 -22 -153t-63.5 -128t-108.5 -88.5t-150 -32.5t-150 32.5t-108.5 88.5t-63.5 128t-22 153zM150 371q0 -156 83 -263.5t232 -107.5t232 107.5t83 263.5v694 q0 154 -83 261.5t-232 107.5t-232 -107.5t-83 -261.5v-694zM287 1653q0 21 16.5 30t33.5 0t17 -30q0 -20 -17 -28.5t-33.5 0t-16.5 28.5zM569 1653q0 21 16.5 30t33 0t16.5 -30q0 -20 -16.5 -28.5t-33 0t-16.5 28.5z" />
<glyph unicode="&#xd7;" horiz-adv-x="577" d="M92 508l191 186l-189 193l17 16l190 -192l193 194l16 -18l-191 -191l187 -188l-17 -16l-188 188l-190 -188z" />
<glyph unicode="&#xd8;" horiz-adv-x="929" d="M125 375v686q0 108 36.5 196t115.5 143.5t188 55.5q108 0 188 -55l41 139h29l-45 -158q62 -55 94.5 -139t32.5 -182v-686q0 -108 -36.5 -196t-115.5 -143.5t-188 -55.5t-189 55l-45 -156h-30l51 174q-62 53 -94.5 138t-32.5 184zM154 375q0 -87 27.5 -163.5t80.5 -127.5 l381 1288q-78 58 -178 58q-99 0 -171.5 -53.5t-106 -135.5t-33.5 -180v-686zM285 63q77 -57 180 -57q99 0 171.5 53.5t106 135.5t33.5 180v686q0 87 -27.5 163.5t-80.5 127.5z" />
<glyph unicode="&#xd9;" horiz-adv-x="1081" d="M80 1411v25h336v-25l-152 -6v-1030q0 -75 17 -139.5t50.5 -117t91 -82.5t132.5 -30t132.5 30t91 82.5t50.5 117t17 139.5v1030l-135 6v25h295v-25l-132 -6v-1030q0 -82 -18.5 -152t-55.5 -126t-100 -88t-145 -32q-109 0 -183.5 56.5t-106.5 144t-32 197.5v1030zM428 1751 q3 5 8 8h25l147 -170q0 -3 -3 -5.5t-5 -2.5h-22z" />
<glyph unicode="&#xda;" horiz-adv-x="1081" d="M80 1411v25h336v-25l-152 -6v-1030q0 -75 17 -139.5t50.5 -117t91 -82.5t132.5 -30t132.5 30t91 82.5t50.5 117t17 139.5v1030l-135 6v25h295v-25l-132 -6v-1030q0 -82 -18.5 -152t-55.5 -126t-100 -88t-145 -32q-109 0 -183.5 56.5t-106.5 144t-32 197.5v1030zM516 1581 l148 170h24q5 -3 8 -8l-149 -170h-23q-2 0 -5 2.5t-3 5.5z" />
<glyph unicode="&#xdb;" horiz-adv-x="1081" d="M80 1411v25h336v-25l-152 -6v-1030q0 -75 17 -139.5t50.5 -117t91 -82.5t132.5 -30t132.5 30t91 82.5t50.5 117t17 139.5v1030l-135 6v25h295v-25l-132 -6v-1030q0 -82 -18.5 -152t-55.5 -126t-100 -88t-145 -32q-109 0 -183.5 56.5t-106.5 144t-32 197.5v1030zM389 1584 q0 2 2 3l162 168h35l164 -168q3 -3 -2 -5.5t-9 -2.5h-24l-146 154l-147 -154h-25q-9 0 -10 5z" />
<glyph unicode="&#xdc;" horiz-adv-x="1081" d="M80 1411v25h336v-25l-152 -6v-1030q0 -75 17 -139.5t50.5 -117t91 -82.5t132.5 -30t132.5 30t91 82.5t50.5 117t17 139.5v1030l-135 6v25h295v-25l-132 -6v-1030q0 -82 -18.5 -152t-55.5 -126t-100 -88t-145 -32q-109 0 -183.5 56.5t-106.5 144t-32 197.5v1030zM387 1630 q0 21 17 30t34 0t17 -30q0 -20 -17 -28.5t-34 0t-17 28.5zM670 1630q0 21 16 30t32.5 0t16.5 -30q0 -20 -16.5 -28.5t-32.5 0t-16 28.5z" />
<glyph unicode="&#xdd;" horiz-adv-x="946" d="M16 1411v23h111q14 0 23 -15l333 -743l320 729l-125 6v23h262v-23l-106 -6l-336 -768v-608l182 -6v-23h-389v23l178 6v608l-346 768zM389 1575l148 170h24q5 -3 8 -8l-149 -170h-23q-2 0 -5 2.5t-3 5.5z" />
<glyph unicode="&#xde;" horiz-adv-x="940" d="M74 0v25l164 4v1376l-164 4v25h389v-25l-197 -4v-264h242q332 0 332 -297v-254q0 -299 -332 -299h-242v-262l197 -4v-25h-389zM266 315h242q149 0 225 65.5t76 209.5v254q0 144 -76 209t-225 65h-242v-803z" />
<glyph unicode="&#xdf;" horiz-adv-x="958" d="M74 0v27l162 4v1163q0 134 69.5 198t210.5 64t211 -64t70 -198v-229q0 -77 -48.5 -130t-125.5 -71q109 -19 164 -71t55 -161v-241q0 -147 -80.5 -219t-229.5 -72h-40v29h43q276 0 276 262v241q0 52 -15.5 91t-41 62t-64 37t-77.5 18.5t-89 4.5h-30v29h26q47 0 90 11 t79 33t57.5 60t21.5 87v229q0 126 -61.5 182t-190.5 56t-190.5 -56t-61.5 -182v-1163q0 -31 -24 -31h-166z" />
<glyph unicode="&#xe0;" horiz-adv-x="974" d="M10 0v20l127 9l338 1278h27l332 -1278l129 -6v-23h-293v3v3v3v3v3v8l135 6l-94 360h-451l-96 -360l127 -6v-23h-281zM264 412h443l-218 854h-2q-46 -164 -125.5 -475.5t-97.5 -378.5zM332 1612q3 5 8 8h25l147 -170q0 -3 -3 -5.5t-5 -2.5h-23z" />
<glyph unicode="&#xe1;" horiz-adv-x="974" d="M10 0v20l127 9l338 1278h27l332 -1278l129 -6v-23h-293v3v3v3v3v3v8l135 6l-94 360h-451l-96 -360l127 -6v-23h-281zM264 412h443l-218 854h-2q-46 -164 -125.5 -475.5t-97.5 -378.5zM465 1450l147 170h25q5 -3 8 -8l-149 -170h-23q-2 0 -5 2.5t-3 5.5z" />
<glyph unicode="&#xe2;" horiz-adv-x="974" d="M10 0v20l127 9l338 1278h27l332 -1278l129 -6v-23h-293v3v3v3v3v3v8l135 6l-94 360h-451l-96 -360l127 -6v-23h-281zM264 412h443l-218 854h-2q-46 -164 -125.5 -475.5t-97.5 -378.5zM311 1435l2 3l162 168h35l164 -168q3 -3 -1.5 -5.5t-8.5 -2.5h-25l-145 153l-148 -153 h-24q-10 0 -11 5z" />
<glyph unicode="&#xe3;" horiz-adv-x="974" d="M10 0v20l127 9l338 1278h27l332 -1278l129 -6v-23h-293v3v3v3v3v3v8l135 6l-94 360h-451l-96 -360l127 -6v-23h-281zM264 412h443l-218 854h-2q-46 -164 -125.5 -475.5t-97.5 -378.5zM268 1466q46 109 144 82q29 -7 81.5 -34t79.5 -35q39 -13 65.5 -1.5t43.5 50.5l23 -10 q-20 -47 -51.5 -64t-78.5 -6q-32 8 -86.5 37t-82.5 37q-78 21 -115 -66z" />
<glyph unicode="&#xe4;" horiz-adv-x="974" d="M10 0v20l127 9l338 1278h27l332 -1278l129 -6v-23h-293v3v3v3v3v3v8l135 6l-94 360h-451l-96 -360l127 -6v-23h-281zM264 412h443l-218 854h-2q-46 -164 -125.5 -475.5t-97.5 -378.5zM311 1501q0 21 17 30t34 0t17 -30q0 -20 -17 -28.5t-34 0t-17 28.5zM594 1501 q0 21 16 30t32.5 0t16.5 -30q0 -20 -16.5 -28.5t-32.5 0t-16 28.5z" />
<glyph unicode="&#xe5;" horiz-adv-x="974" d="M10 0v20l127 9l338 1278h27l332 -1278l129 -6v-23h-293v3v3v3v3v3v8l135 6l-94 360h-451l-96 -360l127 -6v-23h-281zM264 412h443l-218 854h-2q-46 -164 -125.5 -475.5t-97.5 -378.5zM352 1547q0 47 37.5 85.5t102.5 38.5q44 0 77 -18.5t47.5 -46t14.5 -59.5t-14.5 -59.5 t-47.5 -46t-77 -18.5q-66 0 -103 38.5t-37 85.5zM381 1546.5q0 -36.5 29.5 -67.5t81.5 -31t81.5 31t29.5 67.5t-29.5 67.5t-81.5 31t-81.5 -31t-29.5 -67.5z" />
<glyph unicode="&#xe6;" horiz-adv-x="1320" d="M63 0v25l101 4l530 1233l-121 2v24h623l8 -313h-26l-9 287h-421v-596h313l4 151h25v-340h-25l-4 160h-313v-553q0 -26 -5 -49v-6h447l16 286h23l-10 -315h-658v23l160 6v391h-354q-8 -19 -172 -391l108 -4v-25h-240zM375 444h346v809q-83 -192 -346 -809z" />
<glyph unicode="&#xe7;" horiz-adv-x="804" d="M113 324v639q0 150 69.5 246t212.5 96q111 0 180 -57.5t91 -164.5h2l-2 213h20v-362h-27v35q0 134 -65 220.5t-199 86.5q-68 0 -119 -24.5t-80 -68.5t-43 -99t-14 -121v-639q0 -143 64 -229.5t203 -86.5q144 0 204 76t60 223v72h26v-72q0 -153 -63.5 -236.5t-204.5 -90.5 l-25 -95q191 9 191 -110q0 -62 -36.5 -99t-89 -44.5t-109 2.5t-99.5 34l4 29q28 -18 66.5 -30t80 -13t76.5 9t57.5 38.5t22.5 73.5q0 24 -9 42t-27 27t-34.5 14.5t-44 5.5t-42.5 -0.5t-41 -2.5l32 119q-76 1 -132.5 27t-90 73.5t-49.5 108t-16 135.5z" />
<glyph unicode="&#xe8;" horiz-adv-x="802" d="M66 0v23l145 6v1235l-133 4v22h604l6 -286h-24l-9 260h-415v-607h317l6 144h21v-312h-21l-6 144h-317v-553q0 -8 -2 -24t-2 -23v-4h440l14 260h21l-9 -289h-636zM299 1604q3 5 8 8h25l147 -170q0 -3 -3 -5.5t-5 -2.5h-22z" />
<glyph unicode="&#xe9;" horiz-adv-x="802" d="M66 0v23l145 6v1235l-133 4v22h604l6 -286h-24l-9 260h-415v-607h317l6 144h21v-312h-21l-6 144h-317v-553q0 -8 -2 -24t-2 -23v-4h440l14 260h21l-9 -289h-636zM395 1442l148 170h24q5 -3 8 -8l-149 -170h-23q-2 0 -5 2.5t-3 5.5z" />
<glyph unicode="&#xea;" horiz-adv-x="802" d="M66 0v23l145 6v1235l-133 4v22h604l6 -286h-24l-9 260h-415v-607h317l6 144h21v-312h-21l-6 144h-317v-553q0 -8 -2 -24t-2 -23v-4h440l14 260h21l-9 -289h-636zM236 1437q0 2 2 3l161 168h35l164 -168q3 -3 -1.5 -5.5t-8.5 -2.5h-25l-145 153l-148 -153h-24q-9 0 -10 5z " />
<glyph unicode="&#xeb;" horiz-adv-x="802" d="M66 0v23l145 6v1235l-133 4v22h604l6 -286h-24l-9 260h-415v-607h317l6 144h21v-312h-21l-6 144h-317v-553q0 -8 -2 -24t-2 -23v-4h440l14 260h21l-9 -289h-636zM250 1466q0 21 17 30t33.5 0t16.5 -30q0 -20 -16.5 -28.5t-33.5 0t-17 28.5zM532 1466q0 21 16.5 30t33 0 t16.5 -30q0 -20 -16.5 -28.5t-33 0t-16.5 28.5z" />
<glyph unicode="&#xec;" horiz-adv-x="509" d="M55 0v23l181 6v1231l-166 6v22h362v-22l-168 -6v-1231l180 -6v-23h-389zM109 1599q3 7 8 9h24l148 -170q0 -3 -3 -5.5t-5 -2.5h-23z" />
<glyph unicode="&#xed;" horiz-adv-x="507" d="M53 0v23l180 6v1231l-165 6v22h362v-22l-168 -6v-1231l180 -6v-23h-389zM219 1442l148 170h24q5 -3 8 -8l-149 -170h-23q-2 0 -5 2.5t-3 5.5z" />
<glyph unicode="&#xee;" horiz-adv-x="512" d="M55 0v23l181 6v1231l-166 6v22h362v-22l-168 -6v-1231l180 -6v-23h-389zM72 1437q0 2 2 3l162 168h34l164 -168q3 -3 -1.5 -5.5t-8.5 -2.5h-25l-145 153l-148 -153h-24q-9 0 -10 5z" />
<glyph unicode="&#xef;" horiz-adv-x="507" d="M53 0v23l180 6v1231l-165 6v22h362v-22l-168 -6v-1231l180 -6v-23h-389zM76 1477q0 21 16.5 30t33.5 0t17 -30q0 -20 -16.5 -28.5t-33.5 0t-17 28.5zM358 1477q0 21 16.5 30t33 0t16.5 -30q0 -20 -16.5 -28.5t-33 0t-16.5 28.5z" />
<glyph unicode="&#xf0;" horiz-adv-x="888" d="M66 0v23l145 6v645h-127v24h127v566l-135 6v20h313q174 0 278.5 -83.5t104.5 -252.5v-614q0 -171 -104.5 -255.5t-280.5 -84.5h-321zM233 29h154q165 0 260.5 76t95.5 235v614q0 159 -96 234.5t-258 75.5h-151v-566h196v-24h-196v-588q0 -30 -5 -53v-4z" />
<glyph unicode="&#xf1;" horiz-adv-x="921" d="M66 1270l129 -6v-1235l-127 -6v-23h276v23l-123 6v868q0 58 -1 172t-1 170h2l463 -1216q10 -23 29 -23h12v1266l125 4v22h-268v-22l116 -4v-740q0 -159 4 -475h-2q-11 27 -176 465l-286 754q-9 22 -29 22h-143v-22zM240 1495q45 109 143 82q29 -7 82 -34.5t80 -35.5 q39 -13 65 -1.5t43 50.5l23 -10q-20 -47 -51 -63.5t-78 -5.5q-32 8 -87 36.5t-83 36.5q-79 21 -115 -65z" />
<glyph unicode="&#xf2;" horiz-adv-x="835" d="M109 334v624q0 98 33.5 177.5t105 130.5t170.5 51q100 0 172 -51t105.5 -130.5t33.5 -177.5v-624q0 -154 -81.5 -257.5t-229.5 -103.5q-147 0 -228 104t-81 257zM135 334q0 -140 75 -237t208 -97q134 0 209 97.5t75 236.5v624q0 138 -75 235t-209 97q-133 0 -208 -96.5 t-75 -235.5v-624zM266 1624q3 5 8 8h25l147 -170q0 -3 -3 -5.5t-5 -2.5h-22z" />
<glyph unicode="&#xf3;" horiz-adv-x="835" d="M109 334v624q0 98 33.5 177.5t105 130.5t170.5 51q100 0 172 -51t105.5 -130.5t33.5 -177.5v-624q0 -154 -81.5 -257.5t-229.5 -103.5q-147 0 -228 104t-81 257zM135 334q0 -140 75 -237t208 -97q134 0 209 97.5t75 236.5v624q0 138 -75 235t-209 97q-133 0 -208 -96.5 t-75 -235.5v-624zM389 1448l148 170h24q5 -3 8 -8l-149 -170h-23q-2 0 -5 2.5t-3 5.5z" />
<glyph unicode="&#xf4;" horiz-adv-x="835" d="M109 334v624q0 98 33.5 177.5t105 130.5t170.5 51q100 0 172 -51t105.5 -130.5t33.5 -177.5v-624q0 -154 -81.5 -257.5t-229.5 -103.5q-147 0 -228 104t-81 257zM135 334q0 -140 75 -237t208 -97q134 0 209 97.5t75 236.5v624q0 138 -75 235t-209 97q-133 0 -208 -96.5 t-75 -235.5v-624zM246 1447q0 2 2 3l162 168h34l164 -168q3 -3 -1.5 -5.5t-8.5 -2.5h-25l-145 153l-147 -153h-25q-9 0 -10 5z" />
<glyph unicode="&#xf5;" horiz-adv-x="835" d="M109 334v624q0 98 33.5 177.5t105 130.5t170.5 51q100 0 172 -51t105.5 -130.5t33.5 -177.5v-624q0 -154 -81.5 -257.5t-229.5 -103.5q-147 0 -228 104t-81 257zM135 334q0 -140 75 -237t208 -97q134 0 209 97.5t75 236.5v624q0 138 -75 235t-209 97q-133 0 -208 -96.5 t-75 -235.5v-624zM207 1481q45 109 143 82q29 -7 82 -34.5t80 -35.5q39 -13 65.5 -1.5t43.5 50.5l22 -10q-20 -47 -51 -64t-78 -6q-32 8 -87 37t-83 37q-78 21 -115 -66z" />
<glyph unicode="&#xf6;" horiz-adv-x="835" d="M109 334v624q0 98 33.5 177.5t105 130.5t170.5 51q100 0 172 -51t105.5 -130.5t33.5 -177.5v-624q0 -154 -81.5 -257.5t-229.5 -103.5q-147 0 -228 104t-81 257zM135 334q0 -140 75 -237t208 -97q134 0 209 97.5t75 236.5v624q0 138 -75 235t-209 97q-133 0 -208 -96.5 t-75 -235.5v-624zM252 1481q0 21 17 30t33.5 0t16.5 -30q0 -20 -16.5 -28.5t-33.5 0t-17 28.5zM535 1481q0 21 16.5 30t32.5 0t16 -30q0 -20 -16 -28.5t-32.5 0t-16.5 28.5z" />
<glyph unicode="&#xf7;" horiz-adv-x="731" d="M59 692h600v29h-600v-29zM330 424q0 21 16 30t32.5 0t16.5 -30q0 -20 -16.5 -28.5t-32.5 0t-16 28.5zM330 991q0 21 16 30t32.5 0t16.5 -30q0 -20 -16.5 -28.5t-32.5 0t-16 28.5z" />
<glyph unicode="&#xf8;" horiz-adv-x="835" d="M109 334v624q0 98 33.5 177.5t105 130.5t170.5 51q98 0 166 -47l39 131h28l-45 -148q60 -48 91.5 -126t31.5 -169v-624q0 -154 -81.5 -257.5t-229.5 -103.5q-95 0 -174 52l-41 -142h-29l47 160q-112 100 -112 291zM135 334q0 -169 94 -260l346 1167q-68 49 -157 49 q-133 0 -208 -96.5t-75 -235.5v-624zM252 53q65 -53 166 -53q134 0 209 97.5t75 236.5v624q0 79 -26.5 150t-77.5 115z" />
<glyph unicode="&#xf9;" horiz-adv-x="972" d="M72 1270v22h303v-22l-137 -6v-926q0 -142 65.5 -237t196.5 -95q89 0 149.5 48t85.5 120t25 164v926l-121 6v22h266v-22l-119 -6v-926q0 -74 -16.5 -136.5t-49.5 -113t-89.5 -79.5t-130.5 -29t-131.5 29t-91.5 79t-51 113.5t-17 136.5v926zM367 1608q3 5 8 8h24l148 -170 q0 -3 -3 -5.5t-5 -2.5h-23z" />
<glyph unicode="&#xfa;" horiz-adv-x="972" d="M72 1270v22h303v-22l-137 -6v-926q0 -142 65.5 -237t196.5 -95q89 0 149.5 48t85.5 120t25 164v926l-121 6v22h266v-22l-119 -6v-926q0 -74 -16.5 -136.5t-49.5 -113t-89.5 -79.5t-130.5 -29t-131.5 29t-91.5 79t-51 113.5t-17 136.5v926zM475 1440l148 170h24q5 -3 8 -8 l-149 -170h-23q-2 0 -5 2.5t-3 5.5z" />
<glyph unicode="&#xfb;" horiz-adv-x="972" d="M72 1270v22h303v-22l-137 -6v-926q0 -142 65.5 -237t196.5 -95q89 0 149.5 48t85.5 120t25 164v926l-121 6v22h266v-22l-119 -6v-926q0 -74 -16.5 -136.5t-49.5 -113t-89.5 -79.5t-130.5 -29t-131.5 29t-91.5 79t-51 113.5t-17 136.5v926zM338 1435q0 2 2 3l162 168h35 l163 -168q3 -3 -1.5 -5.5t-8.5 -2.5h-24l-146 153l-147 -153h-25q-9 0 -10 5z" />
<glyph unicode="&#xfc;" horiz-adv-x="972" d="M72 1270v22h303v-22l-137 -6v-926q0 -142 65.5 -237t196.5 -95q89 0 149.5 48t85.5 120t25 164v926l-121 6v22h266v-22l-119 -6v-926q0 -74 -16.5 -136.5t-49.5 -113t-89.5 -79.5t-130.5 -29t-131.5 29t-91.5 79t-51 113.5t-17 136.5v926zM342 1481q0 21 17 30t34 0 t17 -30q0 -20 -17 -28.5t-34 0t-17 28.5zM625 1481q0 21 16.5 30t32.5 0t16 -30q0 -20 -16 -28.5t-32.5 0t-16.5 28.5z" />
<glyph unicode="&#xfd;" horiz-adv-x="874" d="M18 1270v20h123q12 0 21 -12l295 -670l286 656l-110 6v20h235v-20l-96 -6l-301 -691v-546l164 -7v-20h-350v20l159 7v546l-307 691zM399 1436l148 170h24q6 -3 9 -9l-150 -170h-22q-2 0 -5.5 3t-3.5 6z" />
<glyph unicode="&#xfe;" horiz-adv-x="909" d="M74 0v25l159 4v1235l-159 4v22h379v-22l-193 -4v-269h236q158 0 239.5 -70t81.5 -220v-144q0 -293 -321 -293h-236v-239l193 -4v-25h-379zM260 295h236q145 0 218.5 63.5t73.5 202.5v144q0 139 -73.5 202.5t-218.5 63.5h-236v-676z" />
<glyph unicode="&#xff;" horiz-adv-x="874" d="M18 1270v20h123q12 0 21 -12l295 -670l286 656l-110 6v20h235v-20l-96 -6l-301 -691v-546l164 -7v-20h-350v20l159 7v546l-307 691zM272 1477q0 21 17 30t34 0t17 -30q0 -20 -17 -28.5t-34 0t-17 28.5zM555 1477q0 21 16.5 30t33 0t16.5 -30q0 -20 -16.5 -28.5t-33 0 t-16.5 28.5z" />
<glyph unicode="&#x152;" horiz-adv-x="1220" d="M125 371v686q0 80 23 151t66.5 125.5t111.5 86.5t151 32q102 0 166 -20h471l8 -320h-26l-11 291h-413v-674h305l6 156h23v-346h-23l-6 161h-305v-616q0 -33 -4 -51v-6h440l16 292h23l-10 -321h-480q-63 -23 -180 -23q-110 0 -191.5 55.5t-121 144t-39.5 196.5zM154 371 q0 -159 85 -264t238 -105q99 0 166 18v1383q-62 22 -166 22q-102 0 -176.5 -51.5t-110.5 -133.5t-36 -183v-686z" />
<glyph unicode="&#x153;" horiz-adv-x="1202" d="M125 360v566q0 162 92 273.5t252 111.5q95 0 162 -21h459l8 -311h-27l-10 285h-404v-602h299l7 151h20v-338h-20l-7 158h-299v-551q0 -33 -4 -51v-6h430l17 286h22l-10 -313h-467q-63 -23 -176 -23q-160 0 -252 111.5t-92 273.5zM154 360q0 -154 82.5 -256t232.5 -102 q90 0 162 16v1246q-64 20 -162 20q-148 0 -231.5 -103.5t-83.5 -254.5v-566z" />
<glyph unicode="&#x178;" horiz-adv-x="946" d="M16 1411v23h111q14 0 23 -15l333 -743l320 729l-125 6v23h262v-23l-106 -6l-336 -768v-608l182 -6v-23h-389v23l178 6v608l-346 768zM295 1606q0 21 16.5 30t33.5 0t17 -30q0 -20 -17 -28.5t-33.5 0t-16.5 28.5zM578 1606q0 21 16 30t32.5 0t16.5 -30q0 -20 -16.5 -28.5 t-32.5 0t-16 28.5z" />
<glyph unicode="&#x2c6;" horiz-adv-x="516" d="M76 1240q0 2 2 3l162 168h34l164 -168q3 -3 -1.5 -5.5t-8.5 -2.5h-25l-145 154l-147 -154h-25q-9 0 -10 5z" />
<glyph unicode="&#x2dc;" horiz-adv-x="602" d="M78 1343q45 109 143 82q29 -7 82.5 -34t79.5 -35q39 -13 65.5 -1.5t43.5 50.5l22 -10q-20 -47 -51 -64t-78 -6q-32 8 -87 37t-83 37q-78 21 -115 -66z" />
<glyph unicode="&#x2000;" horiz-adv-x="897" />
<glyph unicode="&#x2001;" horiz-adv-x="1794" />
<glyph unicode="&#x2002;" horiz-adv-x="897" />
<glyph unicode="&#x2003;" horiz-adv-x="1794" />
<glyph unicode="&#x2004;" horiz-adv-x="598" />
<glyph unicode="&#x2005;" horiz-adv-x="448" />
<glyph unicode="&#x2006;" horiz-adv-x="299" />
<glyph unicode="&#x2007;" horiz-adv-x="299" />
<glyph unicode="&#x2008;" horiz-adv-x="224" />
<glyph unicode="&#x2009;" horiz-adv-x="358" />
<glyph unicode="&#x200a;" horiz-adv-x="99" />
<glyph unicode="&#x2010;" horiz-adv-x="552" d="M74 692v29h393v-29h-393z" />
<glyph unicode="&#x2011;" horiz-adv-x="552" d="M74 692v29h393v-29h-393z" />
<glyph unicode="&#x2012;" horiz-adv-x="552" d="M74 692v29h393v-29h-393z" />
<glyph unicode="&#x2013;" horiz-adv-x="731" d="M74 692v29h559v-29h-559z" />
<glyph unicode="&#x2014;" horiz-adv-x="843" d="M74 692v29h676v-29h-676z" />
<glyph unicode="&#x2018;" horiz-adv-x="339" d="M117 1120q-3 161 65 316l35 -2q-67 -143 -61 -314h-39z" />
<glyph unicode="&#x2019;" horiz-adv-x="339" d="M113 1122q67 143 61 314h39q3 -159 -66 -316z" />
<glyph unicode="&#x201a;" horiz-adv-x="317" d="M80 -131q36 76 50 142t11 147h39q3 -137 -65 -291z" />
<glyph unicode="&#x201c;" horiz-adv-x="573" d="M115 1120q-3 161 65 316l35 -2q-67 -143 -61 -314h-39zM385 1120q-3 159 66 316l34 -2q-67 -143 -61 -314h-39z" />
<glyph unicode="&#x201d;" horiz-adv-x="573" d="M106 1118q68 145 62 314h39q3 -159 -66 -316zM377 1118q67 143 61 314h39q3 -161 -65 -316z" />
<glyph unicode="&#x201e;" horiz-adv-x="546" d="M80 -131q71 148 65 289h35q3 -137 -65 -291zM369 -131q36 76 50 142t11 147h39q3 -135 -66 -291z" />
<glyph unicode="&#x2022;" horiz-adv-x="317" d="M88 711q0 37 29 52t57.5 0t28.5 -52q0 -26 -18 -41t-39.5 -15t-39.5 15t-18 41z" />
<glyph unicode="&#x2026;" horiz-adv-x="915" d="M84 27q0 21 16.5 30t33 0t16.5 -30q0 -20 -16.5 -28.5t-33 0t-16.5 28.5zM412 27q0 21 16 30t32.5 0t16.5 -30q0 -20 -16.5 -28.5t-32.5 0t-16 28.5zM745 27q0 21 16.5 30t33 0t16.5 -30q0 -20 -16.5 -28.5t-33 0t-16.5 28.5z" />
<glyph unicode="&#x202f;" horiz-adv-x="358" />
<glyph unicode="&#x2039;" horiz-adv-x="352" d="M68 698l159 340l23 -10l-150 -330l154 -327l-23 -11z" />
<glyph unicode="&#x203a;" horiz-adv-x="352" d="M104 371l154 327l-149 330l22 10l160 -340l-164 -338z" />
<glyph unicode="&#x205f;" horiz-adv-x="448" />
<glyph unicode="&#x20ac;" horiz-adv-x="929" d="M51 616v27h127v152h-127v26h127v254q0 80 17.5 146.5t54 120.5t99 84t145.5 30q315 0 315 -360v-47h-31v47q0 162 -64 246t-220 85q-76 0 -132.5 -28t-89.5 -78t-49 -111.5t-16 -134.5v-254h375l-9 -26h-366v-152h319l-8 -27h-311v-249q0 -77 16 -139t50 -111t92.5 -76 t138.5 -27q160 0 226.5 84.5t66.5 249.5v78h28v-78q0 -176 -75.5 -269t-245.5 -93q-87 0 -151 29t-101.5 81.5t-55.5 120t-18 150.5v249h-127z" />
<glyph unicode="&#x2122;" horiz-adv-x="911" d="M53 1319v117h285l2 -117h-18l-7 90h-104v-391l61 -6v-19h-153v19l63 6v391h-104l-6 -90h-19zM379 993v19l63 6v391l-59 2v25h66q21 0 30 -27l119 -356l121 356q9 27 31 27h63v-25l-57 -2v-391l61 -6v-19h-153v19l63 6v250v71h-2l-109 -317h-20q-13 0 -18 16l-107 301v-75 v-246l61 -6v-19h-153z" />
<glyph unicode="&#xe000;" horiz-adv-x="1290" d="M0 0v1290h1290v-1290h-1290z" />
<glyph unicode="&#xfb01;" horiz-adv-x="1482" d="M72 0v23l147 6v1235l-133 6v20h602l4 -301h-20l-10 275h-416v-607h340l6 144h20v-312h-20l-6 144h-340v-604l149 -6v-23h-323zM973 0v23l153 6v1235l-143 6v22h317v-22l-147 -6v-1235l156 -6v-23h-336z" />
<glyph unicode="&#xfb02;" horiz-adv-x="1777" d="M70 0v23l147 6v1235l-133 6v20h602l4 -301h-20l-11 275h-415v-607h340l6 144h20v-312h-20l-6 144h-340v-604l149 -6v-23h-323zM971 0v23l145 6v1237l-133 2v22h293v-22l-133 -2v-1186q0 -31 -4 -47v-4h444l19 260h18l-12 -289h-637z" />
</font>
</defs>
</svg>
