<svg id="Layer_1" data-name="Layer 1" xmlns="http://www.w3.org/2000/svg" viewBox="0 0 338.75 60.23"><defs><style>.cls-1{fill:#fdb913;}.cls-2{fill:#131a1d;}</style></defs><title>wtd_logo_mobile</title><path class="cls-1" d="M104.83,57.76l.87-.08c.45-.05.76-.21.76-.73V44.73l-1.5-.08V42.42h7.51c3.86,0,6.22,1.84,6.22,5.36,0,4-2.84,6-6.8,6h-2.23v3.81l2.52.08v2.23h-7.35Zm6.72-6.54c2.28,0,3.83-.79,3.83-3.12,0-2.7-1.55-3.12-4.12-3.12h-1.6v6.25Z"/><path class="cls-1" d="M128.08,60.23c-4.67,0-7.62-3-7.62-9,0-6.72,4.23-9.09,7.9-9.09,3.91,0,7.43,2.42,7.43,9.09C135.8,57.21,132.67,60.23,128.08,60.23Zm.18-2.65c3.33,0,4.28-3.15,4.28-6.3,0-2.68-.71-6.46-4.33-6.46-3.36,0-4.46,3.13-4.46,6.25S124.48,57.57,128.26,57.57Z"/><path class="cls-1" d="M137.33,57.76l.87-.08c.45-.05.76-.21.76-.73V44.73l-1.5-.08V42.42h7.17c3.86,0,6.3,1.26,6.3,4.83a4.83,4.83,0,0,1-3.15,4.62,2.53,2.53,0,0,1,1.5,1.6l1.89,4.12,1.5.05v2.23h-6.49V57.76l.76-.08c.6-.08.74-.31.5-.84l-1.23-2.63c-.37-.81-.74-1.21-1.65-1.21h-2.39v4.57l1.71.08v2.23h-6.54Zm7.12-7.25c2.23,0,3.23-1,3.23-2.89,0-2.36-1.37-2.65-3.6-2.65h-1.92v5.54Z"/><path class="cls-1" d="M158.39,45h-2c-.55,0-.6.37-.6.81v1.23l-2.68-.18V42.42h13.73v4.46l-2.68.18V45.84c0-.5-.05-.81-.76-.81h-1.79V57.57l2.07.08v2.23h-7.41V57.76l1.39-.08c.5-.05.76-.21.76-.73Z"/><path class="cls-1" d="M168.28,59.89V57.76l.87-.08c.45-.05.76-.21.76-.73V44.73l-1.5-.08V42.42h6.33v2.13l-.87.08c-.45.05-.76.21-.76.84V57.18h4.36c.55,0,.6-.34.6-.84V54.5l2.68.18v5.2Z"/><path class="cls-1" d="M188,44.71l-1.65-.16V42.42h6l5.36,15.15h0l1.5.08v2.23h-6.77V57.76l1-.08c.55-.05.81-.21.63-.79l-.55-1.63h-6.15l-.79,2.31,1.58.08v2.23h-6.07V57.76l.87-.08c.45-.05.6-.24.79-.73Zm0,8.14H193l-2.36-7.48h-.08Z"/><path class="cls-1" d="M200.72,57.76l.95-.08c.45,0,.68-.21.68-.73V44.73l-1.5-.08V42.42h4.73L213,54.48h.05V44.73l-1.73-.08V42.42h6.41v2.13l-.95.08c-.39,0-.63.26-.63.81V59.89h-3.07L205.5,47.65h-.05v9.93l1.71.08v2.23h-6.43Z"/><path class="cls-1" d="M219.4,57.76l.87-.08c.45-.05.76-.21.76-.73V44.73l-1.5-.08V42.42h7.2c5,0,8.19,2.65,8.19,8.11,0,6.88-3.83,9.35-8.06,9.35H219.4Zm4.83-.39h2.68c2.94,0,4.78-2.15,4.78-6.35,0-4.73-2.28-6-5.12-6h-2.34Z"/><path class="cls-2" d="M37.72,4.3c-.94.09-1.25.58-1.48,1.61L30.6,30.33H24.46l-4.7-19.94h-.13L15.05,30.33H8.74L2.55,4.48,0,4.35V.54H11.11V4.17L9.63,4.3c-1,.09-1.57.49-1.34,1.57l3.9,17.29h.18L17,2.91H22.8l4.84,20.34h.09L31.54,4.52l-2.42-.18V.54H39.2V4.17Z"/><path class="cls-2" d="M41.38,26.7l1.48-.13c.76-.09,1.3-.36,1.3-1.25V4.48L41.6,4.35V.54H53.83c6.59,0,10.75,2.15,10.75,8.24a8.25,8.25,0,0,1-5.38,7.88,4.32,4.32,0,0,1,2.55,2.73l3.23,7,2.55.09v3.81H56.48V26.7l1.3-.13c1-.13,1.25-.54.85-1.43l-2.11-4.48c-.63-1.39-1.25-2.06-2.82-2.06H49.62v7.8l2.91.13v3.81H41.38ZM53.52,14.34c3.81,0,5.51-1.75,5.51-4.93,0-4-2.33-4.52-6.14-4.52H49.62v9.45Z"/><path class="cls-2" d="M72.67,4.48l-2.55-.13V.54H81V4.17l-1.48.13c-.76.09-1.3.36-1.3,1.43V26.39l2.55.13v3.81H69.89V26.7l1.48-.13c.85-.09,1.3-.36,1.3-1.48Z"/><path class="cls-2" d="M92.36,5H88.86c-.94,0-1,.63-1,1.39V8.47l-4.57-.31V.54h23.43V8.15l-4.57.31V6.36c0-.85-.09-1.39-1.3-1.39h-3V26.39l3.54.13v3.81H88.68V26.7l2.37-.13c.85-.09,1.3-.36,1.3-1.25Z"/><path class="cls-2" d="M109.05,30.33V26.7l1.48-.13c.76-.09,1.3-.36,1.3-1.25V4.48l-2.55-.13V.54H129.8V8l-4.57.31V6.5c0-.85-.09-1.39-1.3-1.39H117.3v7.66h10.35v4.57H117.3v8.38h7.21c1.17,0,1.25-.54,1.25-1.43V22l4.57.31v8Z"/><path class="cls-2" d="M150.85,5h-3.49c-.94,0-1,.63-1,1.39V8.47l-4.57-.31V.54h23.43V8.15l-4.57.31V6.36c0-.85-.09-1.39-1.3-1.39h-3V26.39l3.54.13v3.81H147.18V26.7l2.37-.13c.85-.09,1.3-.36,1.3-1.25Z"/><path class="cls-2" d="M188.43,17.34H175.75v9l2.6.13v3.81H167.5V26.7l1.48-.13c.76-.09,1.3-.36,1.3-1.25V4.48l-2.55-.13V.54h10.84V4.17l-1.48.13c-.85.09-1.34.36-1.34,1.48v6.94h12.68V4.48l-2.55-.13V.54h10.84V4.17l-1.48.13c-.76.09-1.3.36-1.3,1.43V26.39l2.55.13v3.81H185.65V26.7l1.48-.13c.85-.09,1.3-.36,1.3-1.48Z"/><path class="cls-2" d="M199.37,30.33V26.7l1.48-.13c.76-.09,1.3-.36,1.3-1.25V4.48l-2.55-.13V.54h20.52V8l-4.57.31V6.5c0-.85-.09-1.39-1.3-1.39h-6.63v7.66H218v4.57H207.61v8.38h7.21c1.17,0,1.25-.54,1.25-1.43V22l4.57.31v8Z"/><path class="cls-2" d="M232.93,26.7l1.48-.13c.76-.09,1.3-.36,1.3-1.25V4.48l-2.55-.13V.54h12.28c8.56,0,14,4.52,14,13.84,0,11.74-6.54,15.95-13.75,15.95H232.93Zm8.24-.67h4.57c5,0,8.15-3.67,8.15-10.84,0-8.06-3.9-10.3-8.74-10.3h-4Z"/><path class="cls-2" d="M275.55,30.91c-8,0-13-5.2-13-15.41C262.56,4,269.77,0,276,0c6.68,0,12.68,4.12,12.68,15.5C288.72,25.76,283.39,30.91,275.55,30.91Zm.31-4.52c5.69,0,7.3-5.38,7.3-10.75,0-4.57-1.21-11-7.39-11-5.73,0-7.62,5.33-7.62,10.66C268.16,20.38,269.41,26.39,275.86,26.39Z"/><path class="cls-2" d="M305.94,4.44c-5.65,0-8.47,4-8.47,10.8,0,7,2.33,11.38,8.56,11.24a11.43,11.43,0,0,0,3.27-.4c.81-.27.94-.63.94-1.48V21l4.57.31v7.75a20.45,20.45,0,0,1-8.87,1.84c-9.09,0-14.07-5.11-14.07-15.32C291.87,3.9,299,0,305.94,0a20.58,20.58,0,0,1,8.42,1.84V9.45l-4.57.31V6.27c0-.85-.13-1.21-.94-1.48A10.59,10.59,0,0,0,305.94,4.44Z"/><path class="cls-2" d="M333,22c0-2.82-2.55-3.63-5.69-4.48-4.44-1.21-8.56-3-8.56-8.74,0-5.47,4.21-8.78,10.39-8.78a19.55,19.55,0,0,1,8.42,1.84V8.56L333,8.87V6.27c0-.85-.13-1.21-.94-1.48a10.57,10.57,0,0,0-2.91-.36c-2.64,0-4.7,1.08-4.7,3.85s2.6,3.54,6,4.57c4.08,1.3,8.38,3.14,8.38,8.92s-4.66,9.14-10.84,9.14a20.41,20.41,0,0,1-9-1.84V22l4.57-.31v2.73c0,.85.13,1.21.94,1.48a11.32,11.32,0,0,0,3.23.4C330.55,26.3,333,25.36,333,22Z"/></svg>