<svg xmlns="http://www.w3.org/2000/svg" xmlns:xlink="http://www.w3.org/1999/xlink" viewBox="0 0 640 512.0585"><defs><style>.cls-1,.cls-17{fill:none;}.cls-18,.cls-19,.cls-2{fill:#fff;}.cls-3{clip-path:url(#clip-path);}.cls-10,.cls-16,.cls-20,.cls-4{fill:#003f5c;}.cls-4,.cls-5,.cls-6,.cls-7,.cls-8{fill-rule:evenodd;}.cls-11,.cls-5{fill:#7a5195;}.cls-12,.cls-6{fill:#ef5675;}.cls-13,.cls-7{fill:#ff764a;}.cls-14,.cls-8{fill:#ffa600;}.cls-19,.cls-9{font-size:18px;}.cls-15,.cls-18,.cls-19,.cls-20,.cls-9{font-family:Georgia;}.cls-15{font-size:16px;}.cls-16,.cls-17{stroke:#003f5c;stroke-miterlimit:10;}.cls-16{stroke-width:2px;}.cls-17{stroke-linecap:round;stroke-width:4px;}.cls-18,.cls-20{font-size:20px;}</style><clipPath id="clip-path"><path class="cls-1" d="M190.3458,28.79C84.5217,45.5512,12.3217,144.926,29.0826,250.75s116.1357,178.0241,221.96,161.2632,178.0241-116.1357,161.2632-221.96S296.17,12.0294,190.3458,28.79ZM239.31,337.9368A119,119,0,1,1,338.229,201.7862,119,119,0,0,1,239.31,337.9368Z"/></clipPath></defs><g id="Layer_2" data-name="Layer 2"><g id="Satisfaction"><g id="background"><rect class="cls-2" y="2.0585" width="640" height="510"/></g><g id="Chart"><g class="cls-3"><path class="cls-4" d="M220.6973,220.4014,316.9856,380.652c-88.504,53.1786-203.36,24.5417-256.539-63.9623-2.1271-3.54-2.8807-4.8722-4.82-8.5189Z"/><path class="cls-5" d="M220.6973,220.4014l-165.07,87.7694C7.1532,217.005,41.762,103.8048,132.9278,55.331c65.6394-34.9011,140.91-28.9772,200.281,15.7625Z"/><path class="cls-6" d="M220.6973,220.4014,333.2088,71.0935c51.1255,38.5258,77.5363,95.164,74.186,159.0923Z"/><path class="cls-7" d="M220.6973,220.4014l186.6975,9.7844c-2.918,55.6795-25.7132,100.4176-69.0437,135.5059Z"/><path class="cls-8" d="M220.6973,220.4014l117.6538,145.29a197,197,0,0,1-21.3655,14.96Z"/></g></g><g id="Legend"><text class="cls-9" transform="translate(488.9558 378.1001)">Very unsatisfied</text><text class="cls-9" transform="translate(488.7588 344.3283)">Unsatisfied</text><text class="cls-9" transform="translate(488.7588 310.3283)">Neutral</text><text class="cls-9" transform="translate(487.4868 276.5628)">Satisfied</text><text class="cls-9" transform="translate(487.4868 239.5628)">Very satisfied</text><rect id="Swatch_1" data-name="Swatch 1" class="cls-10" x="450.416" y="220.2909" width="24.7508" height="24.7508" transform="translate(695.4577 -230.1251) rotate(90)"/><rect id="Swatch_2" data-name="Swatch 2" class="cls-11" x="450.416" y="256.5969" width="24.7508" height="24.7508" transform="translate(731.7637 -193.819) rotate(90)"/><rect id="Swatch_3" data-name="Swatch 3" class="cls-12" x="450.416" y="290.6684" width="24.7508" height="24.7508" transform="translate(765.8352 -159.7476) rotate(90)"/><rect id="Swatch_4" data-name="Swatch 4" class="cls-13" x="450.416" y="324.7399" width="24.7508" height="24.7508" transform="translate(799.9067 -125.6761) rotate(90)"/><rect id="Swatch_5" data-name="Swatch 5" class="cls-14" x="450" y="359.2328" width="24.7508" height="24.7508" transform="translate(833.9836 -90.7672) rotate(90)"/></g><g id="Call_Outs" data-name="Call Outs"><text class="cls-15" transform="translate(21.487 476.7572)">71% overall <tspan x="1.043" y="18">are satisfied</tspan></text><path class="cls-16" d="M69.785,449.3552a2.42,2.42,0,1,0,3.6547,3.1726,2.3856,2.3856,0,0,0,.1134-2.9535l42.5325-48.9951-.86-.7465L72.6932,448.8278A2.3855,2.3855,0,0,0,69.785,449.3552Z"/><path id="Master_Segmented_Path" data-name="Master Segmented Path" class="cls-1" d="M420.7171,207.0115a207.9465,207.9465,0,0,0-4.2057-41.72,205.8795,205.8795,0,0,0-31.1486-74.0221,207.6153,207.6153,0,0,0-91.079-75.0014A205.4391,205.4391,0,0,0,255.4256,4.2057a209.0314,209.0314,0,0,0-83.44,0A205.8795,205.8795,0,0,0,97.9635,35.3543a207.6153,207.6153,0,0,0-75.0014,91.079A205.4391,205.4391,0,0,0,10.9,165.2915a209.0314,209.0314,0,0,0,0,83.44,205.8795,205.8795,0,0,0,31.1486,74.0221,207.6153,207.6153,0,0,0,91.079,75.0014,205.4391,205.4391,0,0,0,38.8582,12.0623,209.0314,209.0314,0,0,0,83.44,0,205.8795,205.8795,0,0,0,74.0221-31.1486,207.6153,207.6153,0,0,0,75.0014-91.079,205.4391,205.4391,0,0,0,12.0623-38.8582A207.9465,207.9465,0,0,0,420.7171,207.0115Z"/><path id="Path_1" data-name="Path 1" class="cls-17" d="M333.6137,46.4471a209.0295,209.0295,0,0,0-77.898-29.9022,205.8789,205.8789,0,0,0-80.2682,2.5526,207.6148,207.6148,0,0,0-102.66,58.1514,205.4458,205.4458,0,0,0-25.1867,31.9545,209.0295,209.0295,0,0,0-29.9022,77.898A205.8789,205.8789,0,0,0,20.2516,267.37a207.6161,207.6161,0,0,0,58.1514,102.66,205.4511,205.4511,0,0,0,31.9545,25.1866,209.0295,209.0295,0,0,0,77.898,29.9022,205.8738,205.8738,0,0,0,80.2682-2.5526,208.0339,208.0339,0,0,0,37.6611-12.62"/></g><g id="Inner_Labels" data-name="Inner Labels"><text class="cls-18" transform="translate(70.9792 173.4727) rotate(106.4997)"> </text><text class="cls-18" transform="matrix(-0.2531, 0.9674, -0.9674, -0.2531, 69.5642, 178.2598)"> </text><text class="cls-18" transform="translate(68.3049 183.0801) rotate(102.8304)"> </text><text class="cls-18" transform="translate(67.2034 187.9292) rotate(101.0037)"> </text><text class="cls-18" transform="translate(66.2517 192.836) rotate(99.1714)"> </text><text class="cls-18" transform="translate(65.4636 197.7344) rotate(97.3572)"> </text><text class="cls-18" transform="matrix(-0.0965, 0.9953, -0.9953, -0.0965, 64.8269, 202.6826)"> </text><text class="cls-18" transform="translate(64.3508 207.6153) rotate(93.7397)"> </text><text class="cls-18" transform="translate(64.0281 212.5918) rotate(91.9384)"> </text><text class="cls-18" transform="translate(63.8962 217.4185) rotate(90.9286)"> </text><text class="cls-18" transform="matrix(0.0283, 0.9996, -0.9996, 0.0283, 63.8508, 222.5093)"> </text><text class="cls-18" transform="translate(63.9934 227.4702) rotate(86.5885)"> </text><text class="cls-18" transform="translate(64.2903 232.4224) rotate(84.789)"> </text><text class="cls-18" transform="translate(64.7468 237.3941) rotate(82.97)"> </text><text class="cls-18" transform="translate(65.3567 242.3238) rotate(81.1552)"> </text><text class="cls-18" transform="translate(66.1238 247.2349) rotate(79.3333)"> </text><text class="cls-18" transform="translate(67.054 252.1568) rotate(77.4939)"> </text><text class="cls-18" transform="translate(68.1282 256.9937) rotate(75.6714)"> </text><text class="cls-18" transform="translate(69.3674 261.8325) rotate(73.8336)"> </text><text class="cls-18" transform="matrix(0.309, 0.9511, -0.9511, 0.309, 70.7556, 266.6118)"> </text><text class="cls-18" transform="translate(72.2991 271.355) rotate(70.1655)"> </text><text class="cls-18" transform="translate(73.9885 276.0318) rotate(68.3365)"> </text><text class="cls-18" transform="matrix(0.3985, 0.9172, -0.9172, 0.3985, 75.8206, 280.6392)"> </text><text class="cls-18" transform="translate(77.8059 285.2007) rotate(64.6875)"> </text><text class="cls-18" transform="translate(79.9426 289.7124) rotate(62.8568)"> </text><text class="cls-18" transform="matrix(0.4843, 0.8749, -0.8749, 0.4843, 82.218, 294.146)"> </text><text class="cls-18" transform="matrix(0.5118, 0.8591, -0.8591, 0.5118, 84.6287, 298.4947)"> </text><text class="cls-18" transform="matrix(0.5388, 0.8425, -0.8425, 0.5388, 87.1716, 302.7583)"> </text><text class="cls-18" transform="translate(89.8606 306.9595) rotate(55.5808)"> </text><text class="cls-18" transform="matrix(0.5911, 0.8066, -0.8066, 0.5911, 92.679, 311.0679)"> </text><text class="cls-18" transform="matrix(0.6163, 0.7875, -0.7875, 0.6163, 95.6228, 315.0806)"> </text><text class="cls-18" transform="translate(98.6892 318.9956) rotate(50.1471)"> </text><text class="cls-18" transform="translate(101.8762 322.8101) rotate(48.3409)"> </text><text class="cls-18" transform="matrix(0.7039, 0.7103, -0.7103, 0.7039, 105.3318, 326.8052)">2</text><text class="cls-18" transform="matrix(0.7559, 0.6547, -0.6547, 0.7559, 113.7976, 335.3072)">6</text><text class="cls-18" transform="translate(123.0291 343.3989) rotate(35.5149)">%</text><text class="cls-18" transform="translate(137.052 353.1216) rotate(31.3915)"> </text><text class="cls-18" transform="matrix(0.884, 0.4675, -0.4675, 0.884, 141.5818, 356.0191)">V</text><text class="cls-18" transform="translate(154.1082 362.5279) rotate(23.3654)">e</text><text class="cls-18" transform="translate(163.5066 366.5445) rotate(19.8785)">r</text><text class="cls-18" transform="translate(171.7317 369.5269) rotate(16.3551)">y</text><text class="cls-18" transform="translate(181.5715 372.3394) rotate(13.5128)"> </text><text class="cls-18" transform="translate(186.5862 373.5816) rotate(10.9144)">s</text><text class="cls-18" transform="translate(195.6648 375.3364) rotate(7.2661)">a</text><text class="cls-18" transform="translate(206.1536 376.6138) rotate(4.0008)">t</text><text class="cls-18" transform="translate(213.3416 377.0991) rotate(1.5875)">i</text><text class="cls-18" transform="matrix(0.9998, -0.0198, 0.0198, 0.9998, 219.5359, 377.2954)">s</text><text class="cls-18" transform="translate(228.5476 377.0816) rotate(-4.0008)">f</text><text class="cls-18" transform="translate(235.324 376.5943) rotate(-6.3524)">i</text><text class="cls-18" transform="matrix(0.9867, -0.1625, 0.1625, 0.9867, 241.5945, 375.9351)">e</text><text class="cls-18" transform="translate(251.8289 374.2573) rotate(-13.4906)">d</text><text class="cls-18" transform="matrix(0.958, -0.2868, 0.2868, 0.958, 263.4333, 371.3648)"> </text><text class="cls-18" transform="translate(268.1951 369.937) rotate(-18.4964)"> </text><text class="cls-18" transform="translate(272.9226 368.353) rotate(-20.3309)"> </text><text class="cls-18" transform="translate(277.5789 366.6255) rotate(-22.1582)"> </text><text class="cls-18" transform="matrix(0.9136, -0.4066, 0.4066, 0.9136, 282.1951, 364.7427)"> </text><text class="cls-18" transform="translate(286.7361 362.7193) rotate(-25.8136)"> </text><text class="cls-18" transform="translate(291.2263 360.5435) rotate(-27.6433)"> </text><text class="cls-18" transform="translate(295.6365 358.231) rotate(-29.4658)"> </text><text class="cls-18" transform="translate(299.9626 355.7837) rotate(-31.2828)"> </text><text class="cls-18" transform="matrix(0.8378, -0.546, 0.546, 0.8378, 304.2029, 353.2056)"> </text><text class="cls-18" transform="translate(308.3796 350.481) rotate(-34.913)"> </text><text class="cls-18" transform="matrix(0.8015, -0.598, 0.598, 0.8015, 312.4617, 347.6275)"> </text><text class="cls-18" transform="matrix(0.7822, -0.623, 0.623, 0.7822, 316.448, 344.6509)"> </text><text class="cls-18" transform="matrix(0.7622, -0.6474, 0.6474, 0.7622, 320.3357, 341.5523)"> </text><text class="cls-18" transform="matrix(0.7414, -0.6711, 0.6711, 0.7414, 324.1228, 338.3325)"> </text><text class="cls-18" transform="translate(327.8035 334.9956) rotate(-43.9543)"> </text><text class="cls-18" transform="translate(331.3992 331.5259) rotate(-45.7687)"> </text><text class="cls-18" transform="matrix(0.6747, -0.7381, 0.7381, 0.6747, 334.863, 327.9644)"> </text><text class="cls-18" transform="matrix(0.6511, -0.759, 0.759, 0.6511, 338.2146, 324.2945)"> </text><text class="cls-18" transform="translate(341.45 320.52) rotate(-51.1845)"> </text><text class="cls-18" transform="matrix(0.584, -0.8118, 0.8118, 0.584, 344.8103, 316.4634)">1</text><text class="cls-18" transform="matrix(0.5201, -0.8541, 0.8541, 0.5201, 351.8181, 306.6675)">1</text><text class="cls-18" transform="translate(357.8367 296.603) rotate(-61.8784)">.</text><text class="cls-18" transform="translate(360.6736 291.438) rotate(-65.1138)">5</text><text class="cls-18" transform="translate(365.9138 280.314) rotate(-70.5635)">%</text><text class="cls-19" transform="translate(101.3743 306.0318) rotate(-124.8702)"> </text><text class="cls-19" transform="translate(99.0183 302.6568) rotate(-123.2675)"> </text><text class="cls-19" transform="translate(96.7556 299.2144) rotate(-121.6613)"> </text><text class="cls-19" transform="matrix(-0.5009, -0.8655, 0.8655, -0.5009, 94.6023, 295.7271)"> </text><text class="cls-19" transform="translate(92.53 292.1519) rotate(-118.447)"> </text><text class="cls-19" transform="matrix(-0.4515, -0.8923, 0.8923, -0.4515, 90.5686, 288.5405)"> </text><text class="cls-19" transform="matrix(-0.4262, -0.9046, 0.9046, -0.4262, 88.7068, 284.8677)"> </text><text class="cls-19" transform="matrix(-0.4005, -0.9163, 0.9163, -0.4005, 86.9456, 281.1372)"> </text><text class="cls-19" transform="translate(85.2976 277.3736) rotate(-111.9932)"> </text><text class="cls-19" transform="translate(83.7527 273.5572) rotate(-110.3746)"> </text><text class="cls-19" transform="translate(82.3127 269.687) rotate(-108.7513)"> </text><text class="cls-19" transform="translate(80.9871 265.7945) rotate(-107.1332)"> </text><text class="cls-19" transform="matrix(-0.2676, -0.9635, 0.9635, -0.2676, 79.7761, 261.8784)"> </text><text class="cls-19" transform="translate(78.6658 257.8882) rotate(-103.8923)"> </text><text class="cls-19" transform="translate(77.678 253.9097) rotate(-102.2821)"> </text><text class="cls-19" transform="translate(76.7991 249.8872) rotate(-100.6666)"> </text><text class="cls-19" transform="translate(76.0359 245.853) rotate(-99.0589)"> </text><text class="cls-19" transform="translate(75.3831 241.7788) rotate(-97.4477)"> </text><text class="cls-19" transform="translate(74.8464 237.6968) rotate(-95.8441)"> </text><text class="cls-19" transform="translate(74.4246 233.6079) rotate(-94.249)"> </text><text class="cls-19" transform="matrix(-0.0463, -0.9989, 0.9989, -0.0463, 74.116, 229.4859)"> </text><text class="cls-19" transform="translate(73.9216 225.3599) rotate(-91.0662)"> </text><text class="cls-19" transform="matrix(0.0162, -0.9999, 0.9999, 0.0162, 73.825, 221.3037)"> </text><text class="cls-19" transform="translate(73.8752 217.128) rotate(-87.9141)"> </text><text class="cls-19" transform="matrix(0.064, -0.9979, 0.9979, 0.064, 74.0222, 213.0161)"> </text><text class="cls-19" transform="matrix(0.0918, -0.9958, 0.9958, 0.0918, 74.2825, 208.9053)"> </text><text class="cls-19" transform="matrix(0.1197, -0.9928, 0.9928, 0.1197, 74.658, 204.7969)"> </text><text class="cls-19" transform="translate(75.1497 200.6939) rotate(-81.5154)"> </text><text class="cls-19" transform="translate(75.7532 196.6255) rotate(-79.9059)"> </text><text class="cls-19" transform="translate(76.4675 192.5938) rotate(-78.3008)"> </text><text class="cls-19" transform="translate(77.303 188.5445) rotate(-76.6775)"> </text><text class="cls-19" transform="translate(78.2493 184.5362) rotate(-75.0586)"> </text><text class="cls-19" transform="translate(79.303 180.5708) rotate(-73.4446)"> </text><text class="cls-19" transform="translate(80.4734 176.6226) rotate(-71.8245)"> </text><text class="cls-19" transform="matrix(0.3388, -0.9409, 0.9409, 0.3388, 81.7605, 172.6948)"> </text><text class="cls-19" transform="translate(83.1433 168.8418) rotate(-68.5895)"> </text><text class="cls-19" transform="translate(84.6516 164.9873) rotate(-66.9638)"> </text><text class="cls-19" transform="translate(86.2537 161.2119) rotate(-65.3543)"> </text><text class="cls-19" transform="translate(87.844 157.5635) rotate(-62.6611)">4</text><text class="cls-19" transform="translate(92.2361 149.0298) rotate(-58.9112)">5</text><text class="cls-19" transform="translate(97.0535 140.8155) rotate(-54.3136)">%</text><text class="cls-19" transform="translate(105.4534 129.3648) rotate(-50.8104)"> </text><text class="cls-19" transform="matrix(0.6672, -0.7449, 0.7449, 0.6672, 107.9124, 126.23)">S</text><text class="cls-19" transform="translate(114.3191 119.0781) rotate(-44.6261)">a</text><text class="cls-19" transform="matrix(0.7453, -0.6668, 0.6668, 0.7453, 120.5071, 113.0049)">t</text><text class="cls-19" transform="translate(124.925 109.0576) rotate(-39.703)">i</text><text class="cls-19" transform="translate(128.7122 105.8692) rotate(-37.2951)">s</text><text class="cls-19" transform="translate(134.6228 101.3848) rotate(-34.7841)">f</text><text class="cls-19" transform="matrix(0.8412, -0.5407, 0.5407, 0.8412, 139.1951, 98.2085)">i</text><text class="cls-19" transform="translate(143.3171 95.5034) rotate(-30.1376)">e</text><text class="cls-19" transform="matrix(0.8941, -0.4479, 0.4479, 0.8941, 150.3928, 91.3487)">d</text><text class="cls-19" transform="translate(159.3254 86.9439) rotate(-23.8799)"> </text><text class="cls-19" transform="translate(163.0789 85.2783) rotate(-22.2678)"> </text><text class="cls-19" transform="translate(166.8865 83.7158) rotate(-20.6504)"> </text><text class="cls-19" transform="translate(170.7468 82.2573) rotate(-19.0278)"> </text><text class="cls-19" transform="translate(174.6321 80.9146) rotate(-17.4106)"> </text><text class="cls-19" transform="matrix(0.9623, -0.2721, 0.2721, 0.9623, 178.5667, 79.6773)"> </text><text class="cls-19" transform="translate(182.5208 78.5557) rotate(-14.1717)"> </text><text class="cls-19" transform="translate(186.5208 77.5425) rotate(-12.5511)"> </text><text class="cls-19" transform="matrix(0.9818, -0.1897, 0.1897, 0.9818, 190.5354, 76.6455)"> </text><text class="cls-19" transform="translate(194.5632 75.8638) rotate(-9.3292)"> </text><text class="cls-19" transform="translate(198.6301 75.1924) rotate(-7.7182)"> </text><text class="cls-19" transform="translate(202.7063 74.6367) rotate(-6.1152)"> </text><text class="cls-19" transform="matrix(0.9969, -0.0786, 0.0786, 0.9969, 206.8191, 74.1939)"> </text><text class="cls-19" transform="translate(210.907 73.8682) rotate(-2.9246)"> </text><text class="cls-19" transform="translate(215.0266 73.6543) rotate(-1.3377)"> </text><text class="cls-19" transform="matrix(0.9999, 0.0162, -0.0162, 0.9999, 219.0559, 73.5283)"> </text><text class="cls-19" transform="matrix(0.9995, 0.0317, -0.0317, 0.9995, 223.2605, 73.5689)"> </text><text class="cls-19" transform="matrix(0.9982, 0.0593, -0.0593, 0.9982, 227.3767, 73.6963)"> </text><text class="cls-19" transform="matrix(0.9962, 0.0871, -0.0871, 0.9962, 231.4939, 73.9375)"> </text><text class="cls-19" transform="translate(235.6062 74.2945) rotate(6.6009)"> </text><text class="cls-19" transform="translate(239.6873 74.7632) rotate(8.2029)"> </text><text class="cls-19" transform="matrix(0.9854, 0.1704, -0.1704, 0.9854, 243.7625, 75.3472)"> </text><text class="cls-19" transform="matrix(0.9802, 0.1982, -0.1982, 0.9802, 247.8279, 76.0479)"> </text><text class="cls-19" transform="translate(251.8572 76.8589) rotate(13.0434)"> </text><text class="cls-19" transform="translate(255.8718 77.7862) rotate(14.6627)"> </text><text class="cls-19" transform="translate(259.8445 78.8223) rotate(16.2775)"> </text><text class="cls-19" transform="translate(263.8005 79.9737) rotate(17.8984)"> </text><text class="cls-19" transform="translate(267.7371 81.2417) rotate(19.5253)"> </text><text class="cls-19" transform="translate(271.5964 82.6074) rotate(21.1348)"> </text><text class="cls-19" transform="translate(275.4353 84.0874) rotate(22.7512)"> </text><text class="cls-19" transform="matrix(0.9109, 0.4127, -0.4127, 0.9109, 279.2458, 85.6822)"> </text><text class="cls-19" transform="translate(283.0017 87.3804) rotate(25.9889)"> </text><text class="cls-19" transform="translate(286.7019 89.1802) rotate(27.5995)"> </text><text class="cls-19" transform="translate(290.3435 91.0801) rotate(29.2065)"> </text><text class="cls-19" transform="translate(293.948 93.0923) rotate(30.8189)"> </text><text class="cls-19" transform="translate(297.49 95.2017) rotate(32.4274)"> </text><text class="cls-19" transform="matrix(0.8287, 0.5596, -0.5596, 0.8287, 300.9675, 97.4077)"> </text><text class="cls-19" transform="translate(304.3787 99.7071) rotate(35.6326)"> </text><text class="cls-19" transform="translate(307.7214 102.0991) rotate(37.2307)"> </text><text class="cls-19" transform="matrix(0.7791, 0.627, -0.627, 0.7791, 310.9939, 104.5821)"> </text><text class="cls-19" transform="translate(314.2156 107.1709) rotate(40.4296)"> </text><text class="cls-19" transform="translate(317.363 109.8482) rotate(42.032)"> </text><text class="cls-19" transform="translate(320.4119 112.5923) rotate(43.6231)"> </text><text class="cls-19" transform="translate(323.4041 115.4395) rotate(45.2242)"> </text><text class="cls-19" transform="translate(326.2957 118.3501) rotate(46.8145)"> </text><text class="cls-19" transform="translate(329.1248 121.3589) rotate(48.4161)"> </text><text class="cls-19" transform="matrix(0.6425, 0.7663, -0.7663, 0.6425, 331.8699, 124.4478)"> </text><text class="cls-19" transform="matrix(0.6062, 0.7953, -0.7953, 0.6062, 334.4792, 127.4405)">1</text><text class="cls-19" transform="translate(340.3162 135.0718) rotate(56.4201)">5</text><text class="cls-19" transform="matrix(0.5122, 0.8589, -0.8589, 0.5122, 345.6628, 143.2241)">.</text><text class="cls-19" transform="translate(348.0105 147.0156) rotate(61.9654)">5</text><text class="cls-19" transform="translate(352.5779 155.3413) rotate(66.5801)">%</text><text class="cls-19" transform="translate(358.0984 168.4527) rotate(70.1325)"> </text><text class="cls-19" transform="translate(359.4949 172.3115) rotate(71.7473)"> </text><text class="cls-19" transform="translate(360.7878 176.2202) rotate(73.3668)"> </text><text class="cls-19" transform="matrix(0.259, 0.9659, -0.9659, 0.259, 361.9744, 180.1773)"> </text><text class="cls-19" transform="translate(363.0427 184.1538) rotate(76.6101)"> </text><text class="cls-19" transform="translate(363.9968 188.1465) rotate(78.2216)"> </text><text class="cls-19" transform="matrix(0.1764, 0.9843, -0.9843, 0.1764, 364.8416, 192.1817)"> </text><text class="cls-19" transform="translate(365.5691 196.2285) rotate(81.4477)"> </text><text class="cls-19" transform="translate(366.1873 200.3145) rotate(83.0606)"> </text><text class="cls-19" transform="matrix(0.0932, 0.9956, -0.9956, 0.0932, 366.6863, 204.3794)"> </text><text class="cls-19" transform="translate(367.075 208.5078) rotate(86.2599)"> </text><text class="cls-19" transform="translate(367.3464 212.6118) rotate(87.8456)"> </text><text class="cls-19" transform="matrix(0.0162, 0.9999, -0.9999, 0.0162, 367.491, 216.7788)"> </text><text class="cls-19" transform="translate(367.5486 220.8418) rotate(90.9982)"> </text><text class="cls-19" transform="matrix(-0.0451, 0.999, -0.999, -0.0451, 367.4792, 224.9712)"> </text><text class="cls-19" transform="translate(367.2976 229.0738) rotate(94.1704)"> </text><text class="cls-19" transform="translate(367.0007 233.1734) rotate(95.7645)"> </text><text class="cls-19" transform="translate(366.5906 237.272) rotate(97.3685)"> </text></g><g id="Outside_Labels" data-name="Outside Labels"><text id="bottom_side" data-name="bottom side" class="cls-20" transform="translate(411.2625 129.6826) rotate(-116.1523)"> </text><text class="cls-20" transform="translate(408.9432 124.9693) rotate(-117.5834)"> </text><text class="cls-20" transform="translate(406.4998 120.3047) rotate(-119.0169)"> </text><text class="cls-20" transform="translate(403.9344 115.6934) rotate(-120.4513)"> </text><text class="cls-20" transform="translate(401.2703 111.1695) rotate(-121.8771)"> </text><text class="cls-20" transform="matrix(-0.5491, -0.8358, 0.8358, -0.5491, 398.4861, 106.7027)"> </text><text class="cls-20" transform="translate(395.5945 102.3106) rotate(-124.7309)"> </text><text class="cls-20" transform="matrix(-0.59, -0.8074, 0.8074, -0.59, 392.5838, 97.98)"> </text><text class="cls-20" transform="translate(389.4715 93.728) rotate(-127.5841)"> </text><text class="cls-20" transform="translate(386.2664 89.5738) rotate(-129.0023)"> </text><text class="cls-20" transform="matrix(-0.6484, -0.7613, 0.7613, -0.6484, 382.951, 85.4873)"> </text><text class="cls-20" transform="translate(379.534 81.4854) rotate(-131.8456)"> </text><text class="cls-20" transform="matrix(-0.6854, -0.7282, 0.7282, -0.6854, 376.0223, 77.5703)"> </text><text class="cls-20" transform="translate(372.4266 73.7583) rotate(-134.6797)"> </text><text class="cls-20" transform="matrix(-0.7206, -0.6933, 0.6933, -0.7206, 368.7108, 70.0093)"> </text><text class="cls-20" transform="matrix(-0.7376, -0.6753, 0.6753, -0.7376, 364.9168, 66.3662)"> </text><text class="cls-20" transform="translate(361.033 62.8179) rotate(-138.9446)"> </text><text class="cls-20" transform="matrix(-0.7701, -0.6379, 0.6379, -0.7701, 357.0613, 59.3657)"> </text><text class="cls-20" transform="translate(353.0184 56.0239) rotate(-141.7839)"> </text><text class="cls-20" transform="matrix(-0.8008, -0.5989, 0.5989, -0.8008, 348.8758, 52.7696)"> </text><text class="cls-20" transform="translate(344.6522 49.6167) rotate(-144.6357)"> </text><text class="cls-20" transform="translate(340.3445 46.5679) rotate(-146.065)"> </text><text class="cls-20" transform="translate(335.993 43.6455) rotate(-147.4865)"> </text><text class="cls-20" transform="translate(331.5486 40.8189) rotate(-148.9162)"> </text><text class="cls-20" transform="matrix(-0.8691, -0.4947, 0.4947, -0.8691, 327.0281, 38.1011)"> </text><text class="cls-20" transform="matrix(-0.8811, -0.4728, 0.4728, -0.8811, 322.4539, 35.5025)"> </text><text class="cls-20" transform="translate(317.8065 33.0156) rotate(-153.2159)"> </text><text class="cls-20" transform="translate(313.1287 30.6597) rotate(-154.644)"> </text><text class="cls-20" transform="matrix(-0.9142, -0.4053, 0.4053, -0.9142, 308.3475, 28.4004)"> </text><text class="cls-20" transform="translate(303.5379 26.2735) rotate(-157.5232)"> </text><text class="cls-20" transform="matrix(-0.9334, -0.359, 0.359, -0.9334, 298.6639, 24.2637)"> </text><text class="cls-20" transform="translate(293.7693 22.3863) rotate(-160.3976)"> </text><text class="cls-20" transform="translate(288.7772 20.6153) rotate(-161.8467)"> </text><text class="cls-20" transform="matrix(-0.9577, -0.2876, 0.2876, -0.9577, 283.7859, 18.9844)"> </text><text class="cls-20" transform="matrix(-0.9647, -0.2635, 0.2635, -0.9647, 278.741, 17.4751)"> </text><text class="cls-20" transform="translate(273.6629 16.0938) rotate(-166.1629)"> </text><text class="cls-20" transform="matrix(-0.9767, -0.2146, 0.2146, -0.9767, 268.535, 14.8364)"> </text><text class="cls-20" transform="matrix(-0.9818, -0.1901, 0.1901, -0.9818, 263.3992, 13.7134)"> </text><text class="cls-20" transform="translate(258.2371 12.7197) rotate(-170.4739)"> </text><text class="cls-20" transform="translate(253.0311 11.8521) rotate(-171.9098)"> </text><text class="cls-20" transform="translate(247.8455 11.1192) rotate(-173.3311)"> </text><text class="cls-20" transform="matrix(-0.9958, -0.0913, 0.0913, -0.9958, 242.5994, 10.5117)"> </text><text class="cls-20" transform="matrix(-0.9978, -0.0666, 0.0666, -0.9978, 237.3563, 10.0366)"> </text><text class="cls-20" transform="matrix(-0.9991, -0.042, 0.042, -0.9991, 232.1199, 9.6929)"> </text><text class="cls-20" transform="translate(226.8934 9.478) rotate(-178.991)"> </text><text class="cls-20" transform="translate(221.491 9.3697) rotate(179.0712)"> </text><text class="cls-20" transform="translate(216.4774 9.4292) rotate(178.2312)"> </text><text class="cls-20" transform="translate(211.1995 9.5982) rotate(176.8151)"> </text><text class="cls-20" transform="matrix(-0.9968, 0.0802, -0.0802, -0.9968, 205.9539, 9.896)"> </text><text class="cls-20" transform="translate(200.72 10.3218) rotate(173.9809)"> </text><text class="cls-20" transform="translate(195.4818 10.8794) rotate(172.5526)"> </text><text class="cls-20" transform="matrix(-0.988, 0.1543, -0.1543, -0.988, 190.2596, 11.5684)"> </text><text class="cls-20" transform="translate(185.0784 12.3828) rotate(169.6926)"> </text><text class="cls-20" transform="matrix(-0.9791, 0.2035, -0.2035, -0.9791, 179.8978, 13.3301)"> </text><text class="cls-20" transform="matrix(-0.9736, 0.2282, -0.2282, -0.9736, 174.721, 14.4126)"> </text><text class="cls-20" transform="matrix(-0.9676, 0.2525, -0.2525, -0.9676, 169.6111, 15.6153)"> </text><text class="cls-20" transform="translate(164.5101 16.9522) rotate(163.9335)"> </text><text class="cls-20" transform="translate(159.4598 18.4126) rotate(162.4952)"> </text><text class="cls-20" transform="translate(154.4236 20.0069) rotate(161.05)"> </text><text class="cls-20" transform="matrix(-0.9374, 0.3483, -0.3483, -0.9374, 149.4603, 21.7168)"> </text><text class="cls-20" transform="translate(144.5169 23.5601) rotate(158.1714)"> </text><text class="cls-20" transform="translate(139.6317 25.522) rotate(156.7333)"> </text><text class="cls-20" transform="matrix(-0.9085, 0.4179, -0.4179, -0.9085, 134.8079, 27.6026)"> </text><text class="cls-20" transform="translate(130.0106 29.8155) rotate(153.8583)"> </text><text class="cls-20" transform="matrix(-0.8864, 0.4629, -0.4629, -0.8864, 125.2967, 32.1348)"> </text><text class="cls-20" transform="translate(120.6326 34.5772) rotate(150.9941)"> </text><text class="cls-20" transform="matrix(-0.8622, 0.5066, -0.5066, -0.8622, 116.0198, 37.1406)"> </text><text class="cls-20" transform="matrix(-0.8493, 0.5279, -0.5279, -0.8493, 111.4954, 39.8057)"> </text><text class="cls-20" transform="matrix(-0.8359, 0.5489, -0.5489, -0.8359, 107.0281, 42.5894)"> </text><text class="cls-20" transform="matrix(-0.8219, 0.5696, -0.5696, -0.8219, 102.6356, 45.48)"> </text><text class="cls-20" transform="matrix(-0.8075, 0.5899, -0.5899, -0.8075, 98.3045, 48.4893)"> </text><text class="cls-20" transform="matrix(-0.7926, 0.6097, -0.6097, -0.7926, 94.0682, 51.5894)"> </text><text class="cls-20" transform="translate(89.9124 54.7925) rotate(141.0136)"> </text><text class="cls-20" transform="translate(85.8245 58.1079) rotate(139.5913)"> </text><text class="cls-20" transform="translate(81.8216 61.523) rotate(138.1703)"> </text><text class="cls-20" transform="matrix(-0.7284, 0.6852, -0.6852, -0.7284, 77.9061, 65.0352)"> </text><text class="cls-20" transform="translate(74.0789 68.6426) rotate(135.3308)"> </text><text class="cls-20" transform="translate(70.3426 72.3433) rotate(133.9113)"> </text><text class="cls-20" transform="translate(66.6995 76.1363) rotate(132.4915)"> </text><text class="cls-20" transform="translate(63.1497 80.0186) rotate(131.071)"> </text><text class="cls-20" transform="matrix(-0.6381, 0.77, -0.77, -0.6381, 59.6971, 83.9903)"> </text><text class="cls-20" transform="matrix(-0.6188, 0.7856, -0.7856, -0.6188, 56.3406, 88.0474)"> </text><text class="cls-20" transform="translate(53.0858 92.1895) rotate(126.8017)"> </text><text class="cls-20" transform="translate(49.9319 96.4141) rotate(125.375)"> </text><text class="cls-20" transform="matrix(-0.5585, 0.8295, -0.8295, -0.5585, 46.8934, 100.7022)"> </text><text class="cls-20" transform="matrix(-0.5377, 0.8432, -0.8432, -0.5377, 43.9598, 105.0698)"> </text><text class="cls-20" transform="matrix(-0.5165, 0.8563, -0.8563, -0.5165, 41.1429, 109.4971)"> </text><text class="cls-20" transform="translate(38.4232 114.0161) rotate(119.6669)"> </text><text class="cls-20" transform="translate(35.8143 118.6079) rotate(118.23)"> </text><text class="cls-20" transform="matrix(-0.4509, 0.8926, -0.8926, -0.4509, 33.3362, 123.2354)"> </text><text class="cls-20" transform="translate(30.9695 127.9322) rotate(115.3669)"> </text><text class="cls-20" transform="translate(28.7176 132.6948) rotate(113.9292)"> </text><text class="cls-20" transform="translate(26.5814 137.522) rotate(112.4875)"> </text><text class="cls-20" transform="translate(24.5711 142.3946) rotate(111.0468)"> </text><text class="cls-20" transform="translate(22.6927 147.2891) rotate(109.6133)"> </text><text class="cls-20" transform="translate(20.9266 152.2622) rotate(108.1697)"> </text><text class="cls-20" transform="translate(19.2889 157.2715) rotate(106.7277)"> </text><text class="cls-20" transform="translate(17.7781 162.3164) rotate(105.2869)"> </text><text class="cls-20" transform="matrix(-0.2393, 0.9709, -0.9709, -0.2393, 16.3968, 167.3936)"> </text><text class="cls-20" transform="translate(15.1375 172.5205) rotate(102.4055)"> </text><text class="cls-20" transform="translate(14.014 177.6563) rotate(100.9702)"> </text><text class="cls-20" transform="matrix(-0.1656, 0.9862, -0.9862, -0.1656, 13.0154, 182.8384)"> </text><text class="cls-20" transform="translate(12.1507 188.0235) rotate(98.1013)"> </text><text class="cls-20" transform="translate(11.4144 193.2305) rotate(96.6741)"> </text><text class="cls-20" transform="translate(10.8084 198.4556) rotate(95.2506)"> </text><text class="cls-20" transform="translate(10.3323 203.6983) rotate(93.8306)"> </text><text class="cls-20" transform="translate(9.9871 208.9341) rotate(92.4204)"> </text><text class="cls-20" transform="matrix(-0.0177, 0.9998, -0.9998, -0.0177, 9.7708, 214.1822)"> </text><text class="cls-20" transform="translate(9.6619 219.6055) rotate(89.0712)"> </text><text class="cls-20" transform="translate(9.7234 224.7036) rotate(88.2089)"> </text><text class="cls-20" transform="translate(9.8919 229.938) rotate(86.8035)"> </text><text class="cls-20" transform="translate(10.1907 235.1841) rotate(85.3885)"> </text><text class="cls-20" transform="matrix(0.1052, 0.9945, -0.9945, 0.1052, 10.6194, 240.438)"> </text><text class="cls-20" transform="translate(11.1771 245.6558) rotate(82.5412)"> </text><text class="cls-20" transform="matrix(0.1545, 0.988, -0.988, 0.1545, 11.866, 250.8775)"> </text><text class="cls-20" transform="translate(12.6888 256.0991) rotate(79.6701)"> </text><text class="cls-20" transform="translate(13.638 261.2788) rotate(78.2336)"> </text><text class="cls-20" transform="translate(14.7137 266.4146) rotate(76.8002)"> </text><text class="cls-20" transform="matrix(0.2528, 0.9675, -0.9675, 0.2528, 15.9222, 271.5445)"> </text><text class="cls-20" transform="translate(17.2606 276.645) rotate(73.917)"> </text><text class="cls-20" transform="matrix(0.3011, 0.9536, -0.9536, 0.3011, 18.722, 281.6948)"> </text><text class="cls-20" transform="translate(20.3118 286.7124) rotate(71.0386)"> </text><text class="cls-20" transform="translate(22.0359 291.7124) rotate(69.5918)"> </text><text class="cls-20" transform="translate(23.8734 296.6372) rotate(68.1552)"> </text><text class="cls-20" transform="translate(25.8382 301.52) rotate(66.7168)"> </text><text class="cls-20" transform="matrix(0.4182, 0.9083, -0.9083, 0.4182, 27.9271, 306.3609)"> </text><text class="cls-20" transform="translate(30.1243 311.1216) rotate(63.8477)"> </text><text class="cls-20" transform="matrix(0.4631, 0.8863, -0.8863, 0.4631, 32.4544, 315.853)"> </text><text class="cls-20" transform="translate(34.8973 320.5171) rotate(60.9782)"> </text><text class="cls-20" transform="translate(37.4529 325.1109) rotate(59.5486)"> </text><text class="cls-20" transform="translate(40.139 329.6695) rotate(58.1117)"> </text><text class="cls-20" transform="translate(42.9134 334.1187) rotate(56.6892)"> </text><text class="cls-20" transform="matrix(0.5699, 0.8217, -0.8217, 0.5699, 45.8172, 338.5259)"> </text><text class="cls-20" transform="translate(48.8152 342.8404) rotate(53.8364)"> </text><text class="cls-20" transform="translate(51.9173 347.0757) rotate(52.4161)"> </text><text class="cls-20" transform="translate(55.1336 351.2466) rotate(50.9923)"> </text><text class="cls-20" transform="matrix(0.6485, 0.7612, -0.7612, 0.6485, 58.451, 355.3306)"> </text><text class="cls-20" transform="matrix(0.6672, 0.7449, -0.7449, 0.6672, 61.867, 359.3335)"> </text><text class="cls-20" transform="matrix(0.6855, 0.7281, -0.7281, 0.6855, 65.3812, 363.2486)"> </text><text class="cls-20" transform="matrix(0.7033, 0.7109, -0.7109, 0.7033, 68.9896, 367.0747)"> </text><text class="cls-20" transform="matrix(0.7207, 0.6933, -0.6933, 0.7207, 72.6917, 370.8091)"> </text><text class="cls-20" transform="translate(76.4857 374.4517) rotate(42.4704)"> </text><text class="cls-20" transform="translate(80.3704 377.9986) rotate(41.0495)"> </text><text class="cls-20" transform="translate(84.3426 381.4517) rotate(39.6281)"> </text><text class="cls-20" transform="translate(88.4012 384.8052) rotate(38.2051)"> </text><text class="cls-20" transform="translate(92.5443 388.0591) rotate(36.7805)"> </text><text class="cls-20" transform="translate(96.7537 391.1997) rotate(35.3588)"> </text><text class="cls-20" transform="translate(101.0433 394.2368) rotate(33.9348)"> </text><text class="cls-20" transform="matrix(0.8434, 0.5373, -0.5373, 0.8434, 105.428, 397.1792)"> </text><text class="cls-20" transform="matrix(0.8565, 0.5162, -0.5162, 0.8565, 109.8572, 399.9947)"> </text><text class="cls-20" transform="translate(114.3592 402.7027) rotate(29.6506)"> </text><text class="cls-20" transform="translate(118.9354 405.3013) rotate(28.2191)"> </text><text class="cls-20" transform="matrix(0.8927, 0.4506, -0.4506, 0.8927, 123.5809, 407.7876)"> </text><text class="cls-20" transform="matrix(0.9037, 0.4281, -0.4281, 0.9037, 128.2957, 410.1607)"> </text><text class="cls-20" transform="matrix(0.9142, 0.4054, -0.4054, 0.9142, 133.0408, 412.4038)"> </text><text class="cls-20" transform="translate(137.8694 414.5376) rotate(22.4712)"> </text><text class="cls-20" transform="translate(142.7239 416.5396) rotate(21.0359)"> </text><text class="cls-20" transform="translate(147.657 418.4312) rotate(19.5912)"> </text><text class="cls-20" transform="translate(152.6107 420.189) rotate(18.1533)"> </text><text class="cls-20" transform="translate(157.6214 421.8247) rotate(16.7112)"> </text><text class="cls-20" transform="translate(162.6673 423.3335) rotate(15.2704)"> </text><text class="cls-20" transform="matrix(0.971, 0.239, -0.239, 0.971, 167.764, 424.7202)"> </text><text class="cls-20" transform="translate(172.8533 425.9673) rotate(12.3939)"> </text><text class="cls-20" transform="translate(178.0091 427.0943) rotate(10.9533)"> </text><text class="cls-20" transform="translate(183.1717 428.0874) rotate(9.5207)"> </text><text class="cls-20" transform="translate(188.3568 428.9517) rotate(8.0907)"> </text><text class="cls-20" transform="translate(193.5843 429.69) rotate(6.6576)"> </text><text class="cls-20" transform="matrix(0.9958, 0.0912, -0.0912, 0.9958, 198.8099, 430.2935)"> </text><text class="cls-20" transform="matrix(0.9978, 0.0666, -0.0666, 0.9978, 204.0316, 430.7681)"> </text><text class="cls-20" transform="matrix(0.9991, 0.0419, -0.0419, 0.9991, 209.2889, 431.1128)"> </text><text class="cls-20" transform="translate(214.4954 431.3257) rotate(1.0092)"> </text><text class="cls-20" transform="matrix(0.9999, -0.0162, 0.0162, 0.9999, 219.8978, 431.4341)"> </text><text class="cls-20" transform="translate(224.952 431.3726) rotate(-1.7802)"> </text><text class="cls-20" transform="translate(230.1893 431.2056) rotate(-3.1851)"> </text><text class="cls-20" transform="translate(235.4354 430.9097) rotate(-4.6006)"> </text><text class="cls-20" transform="matrix(0.9945, -0.105, 0.105, 0.9945, 240.6893, 430.48)"> </text><text class="cls-20" transform="matrix(0.9916, -0.1297, 0.1297, 0.9916, 245.9276, 429.9214)"> </text><text class="cls-20" transform="translate(251.1277 429.2368) rotate(-8.879)"> </text><text class="cls-20" transform="translate(256.3494 428.4146) rotate(-10.3187)"> </text><text class="cls-20" transform="matrix(0.979, -0.2037, 0.2037, 0.979, 261.5311, 427.4663)"> </text><text class="cls-20" transform="translate(266.6668 426.3921) rotate(-13.1884)"> </text><text class="cls-20" transform="translate(271.7977 425.1831) rotate(-14.6297)"> </text><text class="cls-20" transform="matrix(0.9609, -0.2767, 0.2767, 0.9609, 276.8777, 423.8521)"> </text><text class="cls-20" transform="matrix(0.9537, -0.3009, 0.3009, 0.9537, 281.9481, 422.3853)"> </text><text class="cls-20" transform="translate(286.9647 420.7964) rotate(-18.9501)"> </text><text class="cls-20" transform="translate(291.9471 419.0806) rotate(-20.3914)"> </text><text class="cls-20" transform="translate(296.8719 417.2437) rotate(-21.8283)"> </text><text class="cls-20" transform="translate(301.7752 415.2739) rotate(-23.2721)"> </text><text class="cls-20" transform="translate(306.617 413.1851) rotate(-24.7118)"> </text><text class="cls-20" transform="translate(311.3777 410.9878) rotate(-26.1417)"> </text><text class="cls-20" transform="translate(316.1102 408.6597) rotate(-27.5784)"> </text><text class="cls-20" transform="translate(320.7733 406.2183) rotate(-29.0107)"> </text><text class="cls-20" transform="translate(325.369 403.6626) rotate(-30.441)"> </text><text class="cls-20" transform="matrix(0.8492, -0.528, 0.528, 0.8492, 329.909, 400.9888)"> </text><text class="cls-20" transform="matrix(0.8358, -0.549, 0.549, 0.8358, 334.3768, 398.2036)"> </text><text class="cls-20" transform="matrix(0.8219, -0.5696, 0.5696, 0.8219, 338.7693, 395.313)"> </text><text class="cls-20" transform="matrix(0.8075, -0.5899, 0.5899, 0.8075, 343.0848, 392.315)"> </text><text class="cls-20" transform="translate(347.3367 389.2027) rotate(-37.573)"> </text><text class="cls-20" transform="translate(351.5067 385.9868) rotate(-38.9973)"> </text><text class="cls-20" transform="translate(355.5936 382.6704) rotate(-40.4193)"> </text><text class="cls-20" transform="matrix(0.745, -0.6671, 0.6671, 0.745, 359.5955, 379.2544)"> </text><text class="cls-20" transform="translate(363.5106 375.7417) rotate(-43.2603)"> </text><text class="cls-20" transform="translate(367.3358 372.1343) rotate(-44.6797)"> </text><text class="cls-20" transform="matrix(0.6934, -0.7205, 0.7205, 0.6934, 371.074, 368.4331)"> </text><text class="cls-20" transform="matrix(0.6753, -0.7375, 0.7375, 0.6753, 374.7156, 364.6392)"> </text><text class="cls-20" transform="matrix(0.6367, -0.7712, 0.7712, 0.6367, 377.1248, 359.2114)">U</text><text class="cls-20" transform="matrix(0.5817, -0.8134, 0.8134, 0.5817, 387.3748, 346.648)">n</text><text class="cls-20" transform="translate(394.6727 336.3345) rotate(-57.4539)">s</text><text class="cls-20" transform="translate(399.7332 328.4019) rotate(-60.2302)">a</text><text class="cls-20" transform="translate(405.0281 319.0454) rotate(-62.7481)">t</text><text class="cls-20" transform="translate(408.4061 312.4478) rotate(-64.6437)">i</text><text class="cls-20" transform="translate(411.1912 306.607) rotate(-66.8102)">s</text><text class="cls-20" transform="translate(414.7986 298.105) rotate(-69.0627)">f</text><text class="cls-20" transform="matrix(0.327, -0.945, 0.945, 0.327, 417.2918, 291.5474)">i</text><text class="cls-20" transform="translate(419.4432 285.4107) rotate(-73.2334)">e</text><text class="cls-20" transform="translate(422.4783 275.3452) rotate(-76.3865)">d</text><text id="inner_tube_top_side" data-name="inner tube top side" class="cls-9" transform="translate(130.667 262.4304) rotate(-113.8073)"> </text><text class="cls-9" transform="translate(129.0571 258.8029) rotate(-111.5027)"> </text><text class="cls-9" transform="translate(127.5911 255.1007) rotate(-109.1878)"> </text><text class="cls-9" transform="matrix(-0.2902, -0.957, 0.957, -0.2902, 126.2776, 251.3453)"> </text><text class="cls-9" transform="matrix(-0.2514, -0.9679, 0.9679, -0.2514, 125.1156, 247.5405)"> </text><text class="cls-9" transform="translate(124.1071 243.6885) rotate(-102.2439)"> </text><text class="cls-9" transform="matrix(-0.1725, -0.985, 0.985, -0.1725, 123.256, 239.7969)"> </text><text class="cls-9" transform="matrix(-0.1329, -0.9911, 0.9911, -0.1329, 122.5632, 235.8854)"> </text><text class="cls-9" transform="translate(122.0238 231.9216) rotate(-95.3346)"> </text><text class="cls-9" transform="translate(121.6475 227.9652) rotate(-93.0593)"> </text><text class="cls-9" transform="matrix(-0.0139, -0.9999, 0.9999, -0.0139, 121.4275, 223.982)"> </text><text class="cls-9" transform="matrix(0.0255, -0.9997, 0.9997, 0.0255, 121.3658, 219.9916)"> </text><text class="cls-9" transform="translate(121.4603 216.0085) rotate(-86.2703)"> </text><text class="cls-9" transform="translate(121.713 212.0279) rotate(-83.9849)"> </text><text class="cls-9" transform="matrix(0.1443, -0.9895, 0.9895, 0.1443, 122.1198, 208.0917)"> </text><text class="cls-9" transform="translate(122.6909 204.1239) rotate(-79.3874)"> </text><text class="cls-9" transform="translate(123.414 200.2284) rotate(-77.0883)"> </text><text class="cls-9" transform="translate(124.2952 196.3485) rotate(-74.7753)"> </text><text class="cls-9" transform="matrix(0.3013, -0.9535, 0.9535, 0.3013, 125.3316, 192.5102)"> </text><text class="cls-9" transform="matrix(0.3398, -0.9405, 0.9405, 0.3398, 126.5301, 188.6973)"> </text><text class="cls-9" transform="translate(127.8747 184.9513) rotate(-67.8236)"> </text><text class="cls-9" transform="translate(129.3657 181.2757) rotate(-65.5224)"> </text><text class="cls-9" transform="translate(131.0127 177.6391) rotate(-63.2085)"> </text><text class="cls-9" transform="translate(132.8021 174.0822) rotate(-60.9037)"> </text><text class="cls-9" transform="matrix(0.5209, -0.8536, 0.8536, 0.5209, 134.7269, 170.6072)"> </text><text class="cls-9" transform="translate(136.7862 167.2181) rotate(-56.3239)"> </text><text class="cls-9" transform="translate(138.9976 163.8877) rotate(-54.0232)"> </text><text class="cls-9" transform="translate(141.3367 160.6529) rotate(-51.7305)"> </text><text class="cls-9" transform="translate(143.7906 157.5313) rotate(-49.4517)"> </text><text class="cls-9" transform="translate(146.3761 154.4965) rotate(-47.165)"> </text><text class="cls-9" transform="translate(149.0803 151.5691) rotate(-44.8815)"> </text><text class="cls-9" transform="translate(151.8866 148.7646) rotate(-42.6079)"> </text><text class="cls-9" transform="translate(154.8157 146.0601) rotate(-40.3218)"> </text><text class="cls-9" transform="translate(157.8518 143.4737) rotate(-38.0337)"> </text><text class="cls-9" transform="translate(160.993 141.0087) rotate(-35.7405)"> </text><text class="cls-9" transform="matrix(0.8344, -0.5512, 0.5512, 0.8344, 164.2176, 138.6787)"> </text><text class="cls-9" transform="translate(167.5376 136.4765) rotate(-31.1546)"> </text><text class="cls-9" transform="translate(170.9323 134.4152) rotate(-28.861)"> </text><text class="cls-9" transform="matrix(0.8945, -0.4471, 0.4471, 0.8945, 174.4173, 132.4875)"> </text><text class="cls-9" transform="translate(177.9829 130.6968) rotate(-24.2447)"> </text><text class="cls-9" transform="translate(181.5959 129.0615) rotate(-21.943)"> </text><text class="cls-9" transform="translate(185.2826 127.5676) rotate(-19.6301)"> </text><text class="cls-9" transform="translate(189.044 126.219) rotate(-17.3057)"> </text><text class="cls-9" transform="matrix(0.966, -0.2587, 0.2587, 0.966, 192.8381, 125.0296)"> </text><text class="cls-9" transform="matrix(0.9756, -0.2195, 0.2195, 0.9756, 196.6775, 123.9933)"> </text><text class="cls-9" transform="translate(200.5594 123.1128) rotate(-10.3723)"> </text><text class="cls-9" transform="matrix(0.9901, -0.1403, 0.1403, 0.9901, 204.4789, 122.3877)"> </text><text class="cls-9" transform="translate(208.4134 121.8229) rotate(-5.7749)"> </text><text class="cls-9" transform="translate(212.3797 121.4144) rotate(-3.49)"> </text><text class="cls-9" transform="translate(216.3532 121.1651) rotate(-1.2242)"> </text><text class="cls-9" transform="translate(220.335 121.0697) rotate(1.1224)"> </text><text class="cls-9" transform="matrix(0.9983, 0.0576, -0.0576, 0.9983, 224.3328, 121.1378)"> </text><text class="cls-9" transform="translate(228.3028 121.3597) rotate(5.5737)"> </text><text class="cls-9" transform="translate(232.2683 121.7388) rotate(7.8665)"> </text><text class="cls-9" transform="translate(236.205 122.2751) rotate(10.1638)"> </text><text class="cls-9" transform="translate(240.1314 122.9719) rotate(12.476)"> </text><text class="cls-9" transform="matrix(0.9669, 0.2553, -0.2553, 0.9669, 244.0211, 123.8249)"> </text><text class="cls-9" transform="matrix(0.9558, 0.2941, -0.2941, 0.9558, 247.8703, 124.834)"> </text><text class="cls-9" transform="translate(251.6769 125.9982) rotate(19.42)"> </text><text class="cls-9" transform="matrix(0.9289, 0.3703, -0.3703, 0.9289, 255.4362, 127.3151)"> </text><text class="cls-9" transform="translate(259.1266 128.7778) rotate(24.0406)"> </text><text class="cls-9" transform="translate(262.7754 130.399) rotate(26.3565)"> </text><text class="cls-9" transform="translate(266.3486 132.1611) rotate(28.6629)"> </text><text class="cls-9" transform="matrix(0.8575, 0.5144, -0.5144, 0.8575, 269.8393, 134.0605)"> </text><text class="cls-9" transform="matrix(0.8363, 0.5482, -0.5482, 0.8363, 273.2455, 136.0945)"> </text><text class="cls-9" transform="translate(276.5927 138.2806) rotate(35.5474)"> </text><text class="cls-9" transform="translate(279.83 140.586) rotate(37.8313)"> </text><text class="cls-9" transform="matrix(0.7648, 0.6443, -0.6443, 0.7648, 282.9712, 143.0156)"> </text><text class="cls-9" transform="translate(286.0261 145.5791) rotate(42.3966)"> </text><text class="cls-9" transform="matrix(0.711, 0.7032, -0.7032, 0.711, 288.9731, 148.2614)"> </text><text class="cls-9" transform="matrix(0.6499, 0.76, -0.76, 0.6499, 291.7112, 150.6486)">N</text><text class="cls-9" transform="matrix(0.568, 0.823, -0.823, 0.568, 300.013, 160.4843)">e</text><text class="cls-9" transform="translate(304.5683 166.9607) rotate(60.4238)">u</text><text class="cls-9" transform="matrix(0.4255, 0.9049, -0.9049, 0.4255, 309.2899, 175.3873)">t</text><text class="cls-9" transform="translate(311.7287 180.4854) rotate(68.4306)">r</text><text class="cls-9" transform="matrix(0.2954, 0.9554, -0.9554, 0.2954, 314.2449, 186.6926)">a</text><text class="cls-9" transform="translate(316.7097 194.8162) rotate(76.6135)">l</text><text class="cls-9" transform="translate(317.8036 199.4142) rotate(79.1219)"> </text><text class="cls-9" transform="matrix(0.1489, 0.9889, -0.9889, 0.1489, 318.5657, 203.3411)"> </text><text class="cls-9" transform="translate(319.1657 207.2831) rotate(83.7396)"> </text><text class="cls-9" transform="translate(319.6064 211.2397) rotate(86.0222)"> </text><text class="cls-9" transform="translate(319.8899 215.2026) rotate(88.2883)"> </text><text class="cls-9" transform="translate(320.0389 219.1084) rotate(91.1224)"> </text><text class="cls-9" transform="translate(319.9861 223.1668) rotate(92.8)"> </text><text class="cls-9" transform="translate(319.7968 227.1652) rotate(95.0877)"> </text><text class="cls-9" transform="matrix(-0.1283, 0.9917, -0.9917, -0.1283, 319.4524, 231.1192)"> </text><text class="cls-9" transform="translate(318.9489 235.0677) rotate(99.6697)"> </text><text class="cls-9" transform="translate(318.2852 239.0049) rotate(101.9831)"> </text><text class="cls-9" transform="translate(317.4684 242.8879) rotate(104.2872)"> </text><text class="cls-9" transform="translate(316.4924 246.7499) rotate(106.6053)"> </text><text class="cls-9" transform="translate(315.3614 250.5713) rotate(108.9225)"> </text><text class="cls-9" transform="translate(314.0821 254.3268) rotate(111.2293)"> </text><text class="cls-9" transform="matrix(-0.3995, 0.9167, -0.9167, -0.3995, 312.6428, 258.0495)"> </text><text class="cls-9" transform="translate(311.0611 261.6994) rotate(115.855)"> </text><text class="cls-9" transform="matrix(-0.472, 0.8816, -0.8816, -0.472, 309.3283, 265.2883)"> </text><text id="top_side" data-name="top side" class="cls-9" transform="translate(42.577 125.0142) rotate(-61.1623)"> </text><text class="cls-9" transform="translate(44.636 121.272) rotate(-59.9489)"> </text><text class="cls-9" transform="translate(46.7723 117.5781) rotate(-58.7382)"> </text><text class="cls-9" transform="translate(48.993 113.9185) rotate(-57.5243)"> </text><text class="cls-9" transform="matrix(0.5547, -0.8321, 0.8321, 0.5547, 51.2899, 110.3096)"> </text><text class="cls-9" transform="translate(53.6707 106.7368) rotate(-55.0977)"> </text><text class="cls-9" transform="matrix(0.5893, -0.8079, 0.8079, 0.5893, 56.1024, 103.249)"> </text><text class="cls-9" transform="matrix(0.6062, -0.7953, 0.7953, 0.6062, 58.6282, 99.7852)"> </text><text class="cls-9" transform="translate(61.2259 96.377) rotate(-51.4738)"> </text><text class="cls-9" transform="translate(63.8929 93.0259) rotate(-50.2649)"> </text><text class="cls-9" transform="matrix(0.6553, -0.7554, 0.7554, 0.6553, 66.6292, 89.7329)"> </text><text class="cls-9" transform="matrix(0.6711, -0.7414, 0.7414, 0.6711, 69.4334, 86.4995)"> </text><text class="cls-9" transform="translate(72.3045 83.3267) rotate(-46.6436)"> </text><text class="cls-9" transform="translate(75.2415 80.2154) rotate(-45.4378)"> </text><text class="cls-9" transform="translate(78.2435 77.1655) rotate(-44.2316)"> </text><text class="cls-9" transform="matrix(0.7311, -0.6823, 0.6823, 0.7311, 81.3094, 74.1802)"> </text><text class="cls-9" transform="translate(84.4373 71.2598) rotate(-41.8188)"> </text><text class="cls-9" transform="matrix(0.7591, -0.6509, 0.6509, 0.7591, 87.6268, 68.4053)"> </text><text class="cls-9" transform="translate(90.8773 65.6177) rotate(-39.4036)"> </text><text class="cls-9" transform="matrix(0.7859, -0.6184, 0.6184, 0.7859, 94.1717, 62.9102)"> </text><text class="cls-9" transform="matrix(0.7987, -0.6017, 0.6017, 0.7987, 97.5242, 60.271)"> </text><text class="cls-9" transform="translate(100.9481 57.6905) rotate(-35.7827)"> </text><text class="cls-9" transform="matrix(0.8234, -0.5674, 0.5674, 0.8234, 104.4285, 55.1817)"> </text><text class="cls-9" transform="translate(107.9329 52.7656) rotate(-33.3644)"> </text><text class="cls-9" transform="translate(111.5213 50.4019) rotate(-32.147)"> </text><text class="cls-9" transform="translate(115.1307 48.1328) rotate(-30.9379)"> </text><text class="cls-9" transform="translate(118.8074 45.9287) rotate(-29.7208)"> </text><text class="cls-9" transform="matrix(0.8788, -0.4772, 0.4772, 0.8788, 122.535, 43.8003)"> </text><text class="cls-9" transform="translate(126.2938 41.7578) rotate(-27.2848)"> </text><text class="cls-9" transform="translate(130.0838 39.8018) rotate(-26.0708)"> </text><text class="cls-9" transform="translate(133.9197 37.9243) rotate(-24.8537)"> </text><text class="cls-9" transform="matrix(0.9162, -0.4008, 0.4008, 0.9162, 137.8192, 36.1177)"> </text><text class="cls-9" transform="matrix(0.9245, -0.3812, 0.3812, 0.9245, 141.7269, 34.4072)"> </text><text class="cls-9" transform="translate(145.6785 32.7769) rotate(-21.1903)"> </text><text class="cls-9" transform="translate(149.6707 31.2285) rotate(-19.9668)"> </text><text class="cls-9" transform="translate(153.7044 29.7627) rotate(-18.74)"> </text><text class="cls-9" transform="translate(157.7405 28.3916) rotate(-17.5215)"> </text><text class="cls-9" transform="matrix(0.9598, -0.2807, 0.2807, 0.9598, 161.8152, 27.1055)"> </text><text class="cls-9" transform="translate(165.9266 25.9024) rotate(-15.0755)"> </text><text class="cls-9" transform="translate(170.074 24.7847) rotate(-13.8481)"> </text><text class="cls-9" transform="translate(174.2181 23.7622) rotate(-12.629)"> </text><text class="cls-9" transform="matrix(0.9802, -0.1978, 0.1978, 0.9802, 178.3958, 22.8252)"> </text><text class="cls-9" transform="translate(182.5667 21.9829) rotate(-10.1949)"> </text><text class="cls-9" transform="translate(186.7889 21.2237) rotate(-8.9747)"> </text><text class="cls-9" transform="translate(191.0013 20.5567) rotate(-7.7633)"> </text><text class="cls-9" transform="translate(195.263 19.9756) rotate(-6.5445)"> </text><text class="cls-9" transform="translate(199.513 19.4873) rotate(-5.3353)"> </text><text class="cls-9" transform="translate(203.7689 19.0894) rotate(-4.1304)"> </text><text class="cls-9" transform="translate(208.0506 18.7798) rotate(-2.9243)"> </text><text class="cls-9" transform="translate(212.2962 18.5615) rotate(-1.7344)"> </text><text class="cls-9" transform="matrix(0.9999, -0.0162, 0.0162, 0.9999, 216.6058, 18.4463)"> </text><text class="cls-9" transform="matrix(0.9999, 0.0162, -0.0162, 0.9999, 220.8499, 18.3799)"> </text><text class="cls-9" transform="translate(225.158 18.4385) rotate(1.8479)"> </text><text class="cls-9" transform="translate(229.4256 18.5757) rotate(3.0435)"> </text><text class="cls-9" transform="matrix(0.9973, 0.074, -0.074, 0.9973, 233.6893, 18.8018)"> </text><text class="cls-9" transform="translate(237.952 19.1172) rotate(5.4481)"> </text><text class="cls-9" transform="translate(242.2088 19.5225) rotate(6.6573)"> </text><text class="cls-9" transform="matrix(0.9906, 0.137, -0.137, 0.9906, 246.4793, 20.02)"> </text><text class="cls-9" transform="translate(250.7225 20.607) rotate(9.0929)"> </text><text class="cls-9" transform="translate(254.9363 21.2808) rotate(10.3074)"> </text><text class="cls-9" transform="translate(259.1414 22.0445) rotate(11.5254)"> </text><text class="cls-9" transform="matrix(0.9754, 0.2206, -0.2206, 0.9754, 263.3367, 22.8989)"> </text><text class="cls-9" transform="matrix(0.9704, 0.2414, -0.2414, 0.9704, 267.5174, 23.8447)"> </text><text class="cls-9" transform="translate(271.6473 24.8706) rotate(15.1868)"> </text><text class="cls-9" transform="translate(275.7801 25.9922) rotate(16.4111)"> </text><text class="cls-9" transform="translate(279.8777 27.1983) rotate(17.6324)"> </text><text class="cls-9" transform="matrix(0.9463, 0.3233, -0.3233, 0.9463, 283.9764, 28.501)"> </text><text class="cls-9" transform="translate(288.0193 29.8804) rotate(20.0826)"> </text><text class="cls-9" transform="translate(292.0223 31.3433) rotate(21.3006)"> </text><text class="cls-9" transform="translate(296.0233 32.9024) rotate(22.5262)"> </text><text class="cls-9" transform="matrix(0.9153, 0.4027, -0.4027, 0.9153, 299.9803, 34.543)"> </text><text class="cls-9" transform="translate(303.8777 36.2573) rotate(24.963)"> </text><text class="cls-9" transform="translate(307.7664 38.0669) rotate(26.185)"> </text><text class="cls-9" transform="translate(311.6111 39.9561) rotate(27.4041)"> </text><text class="cls-9" transform="translate(315.408 41.9243) rotate(28.6207)"> </text><text class="cls-9" transform="matrix(0.8675, 0.4975, -0.4975, 0.8675, 319.158, 43.9712)"> </text><text class="cls-9" transform="translate(322.8621 46.0928) rotate(31.046)"> </text><text class="cls-9" transform="matrix(0.8456, 0.5338, -0.5338, 0.8456, 326.5467, 48.3111)"> </text><text class="cls-9" transform="matrix(0.8342, 0.5515, -0.5515, 0.8342, 330.1492, 50.5835)"> </text><text class="cls-9" transform="translate(333.7303 52.9512) rotate(34.6873)"> </text><text class="cls-9" transform="matrix(0.8101, 0.5863, -0.5863, 0.8101, 337.243, 55.3823)"> </text><text class="cls-9" transform="matrix(0.7976, 0.6032, -0.6032, 0.7976, 340.702, 57.8838)"> </text><text class="cls-9" transform="translate(344.119 60.4683) rotate(38.3126)"> </text><text class="cls-9" transform="translate(347.4822 63.1236) rotate(39.5215)"> </text><text class="cls-9" transform="matrix(0.7578, 0.6525, -0.6525, 0.7578, 350.785, 65.8472)"> </text><text class="cls-9" transform="translate(354.0281 68.6397) rotate(41.9359)"> </text><text class="cls-9" transform="matrix(0.7297, 0.6838, -0.6838, 0.7297, 357.2117, 71.4995)"> </text><text class="cls-9" transform="translate(360.3358 74.4248) rotate(44.3489)"> </text></g></g></g></svg>