<svg xmlns="http://www.w3.org/2000/svg" xmlns:xlink="http://www.w3.org/1999/xlink" viewBox="0 0 640 404"><defs><style>.cls-1{fill:none;}.cls-15,.cls-2{fill:#fff;}.cls-3{clip-path:url(#clip-path);}.cls-10,.cls-4{fill:#ffa600;}.cls-4,.cls-5,.cls-6,.cls-7,.cls-8{fill-rule:evenodd;}.cls-11,.cls-16,.cls-5{fill:#003f5c;}.cls-12,.cls-6{fill:#bc5090;}.cls-13,.cls-7{fill:#ef5675;}.cls-14,.cls-8{fill:#ff764a;}.cls-15,.cls-16,.cls-9{font-size:18px;font-family:Georgia;}</style><clipPath id="clip-path"><path class="cls-1" d="M188.1853,10.3885C82.3612,27.1494,10.1612,126.5241,26.9221,232.3483s116.1357,178.0241,221.96,161.2632,178.0242-116.1356,161.2633-221.96S294.01-6.3724,188.1853,10.3885Zm48.964,309.1464a119,119,0,1,1,98.9192-136.1506A119,119,0,0,1,237.1493,319.5349Z"/></clipPath></defs><g id="Layer_2" data-name="Layer 2"><g id="Age"><g id="background"><rect class="cls-2" y="0.3603" width="640" height="400"/></g><g id="Chart"><g class="cls-3"><path class="cls-4" d="M218.5368,202,33.4025,175.9806a175.4542,175.4542,0,0,1,14.3435-50.022Z"/><path class="cls-5" d="M218.5368,202,47.746,125.9586c41.9963-94.3252,152.5066-136.7461,246.8317-94.75,45.2761,20.1582,76.6859,52.1211,96.0509,97.7421Z"/><path class="cls-6" d="M218.5368,202l172.0918-73.0486c40.3436,95.0436-4,204.7968-99.0432,245.14a179.6045,179.6045,0,0,1-63.2642,14.6057Z"/><path class="cls-7" d="M218.5368,202l9.7844,186.6975C149.9574,392.8039,82.2625,352.1287,49.0991,281.01Z"/><path class="cls-8" d="M218.5368,202,49.0991,281.01c-15.7089-33.688-20.87-68.22-15.6966-105.029Z"/></g></g><g id="Legend"><text class="cls-9" transform="translate(488.9557 359.8078)">56-65</text><text class="cls-9" transform="translate(488.7587 326.036)">46-55</text><text class="cls-9" transform="translate(488.7587 292.0361)">36-45</text><text class="cls-9" transform="translate(487.4867 258.2706)">26-35</text><text class="cls-9" transform="translate(487.4867 221.2706)">18-25</text><rect id="Swatch_1" data-name="Swatch 1" class="cls-10" x="450.416" y="201.9987" width="24.7508" height="24.7508" transform="translate(677.1654 -248.4173) rotate(90)"/><rect id="Swatch_2" data-name="Swatch 2" class="cls-11" x="450.416" y="238.3047" width="24.7508" height="24.7508" transform="translate(713.4715 -212.1113) rotate(90)"/><rect id="Swatch_3" data-name="Swatch 3" class="cls-12" x="450.416" y="272.3762" width="24.7508" height="24.7508" transform="translate(747.5429 -178.0398) rotate(90)"/><rect id="Swatch_4" data-name="Swatch 4" class="cls-13" x="450.416" y="306.4477" width="24.7508" height="24.7508" transform="translate(781.6144 -143.9683) rotate(90)"/><rect id="Swatch_5" data-name="Swatch 5" class="cls-14" x="450" y="340.9406" width="24.7508" height="24.7508" transform="translate(815.6914 -109.0594) rotate(90)"/></g><g id="Inner_Labels" data-name="Inner Labels"><text class="cls-15" transform="translate(63.1259 180.6133) rotate(96.9735)"> </text><text class="cls-15" transform="translate(62.5858 185.0469) rotate(95.3469)"> </text><text class="cls-15" transform="translate(62.1747 189.4546) rotate(93.7397)"> </text><text class="cls-15" transform="translate(61.8851 193.8975) rotate(92.1313)"> </text><text class="cls-15" transform="translate(61.7382 198.2148) rotate(90.9286)"> </text><text class="cls-15" transform="matrix(0.018, 0.9998, -0.9998, 0.018, 61.6815, 202.7085)"> </text><text class="cls-15" transform="translate(61.7616 207.1143) rotate(87.3814)"> </text><text class="cls-15" transform="translate(61.9662 211.5547) rotate(85.7734)"> </text><text class="cls-15" transform="translate(62.2528 216.2646) rotate(83.0037)">9</text><text class="cls-15" transform="matrix(0.2053, 0.9787, -0.9787, 0.2053, 63.5258, 227.1504)">%</text><text class="cls-15" transform="matrix(0.2681, 0.9634, -0.9634, 0.2681, 66.8417, 242.0566)"> </text><text class="cls-15" transform="translate(68.0336 246.333) rotate(72.8112)"> </text><text class="cls-15" transform="translate(69.3519 250.5889) rotate(71.1713)"> </text><text class="cls-15" transform="translate(70.7865 254.793) rotate(69.5368)"> </text><text class="cls-15" transform="translate(72.347 258.9697) rotate(67.897)"> </text><text class="cls-15" transform="translate(74.0228 263.0898) rotate(66.2625)"> </text><text class="cls-15" transform="translate(75.8099 267.1523) rotate(64.6329)"> </text><text class="cls-15" transform="matrix(0.454, 0.891, -0.891, 0.454, 77.7216, 271.1797)"> </text><text class="cls-15" transform="translate(79.743 275.1426) rotate(61.3685)"> </text><text class="cls-15" transform="matrix(0.5039, 0.8638, -0.8638, 0.5039, 81.8729, 279.041)"> </text><text class="cls-15" transform="matrix(0.5283, 0.8491, -0.8491, 0.5283, 84.1239, 282.8965)"> </text><text class="cls-15" transform="matrix(0.552, 0.8338, -0.8338, 0.552, 86.4647, 286.6582)"> </text><text class="cls-15" transform="matrix(0.5754, 0.8179, -0.8179, 0.5754, 88.9247, 290.3701)"> </text><text class="cls-15" transform="matrix(0.5983, 0.8013, -0.8013, 0.5983, 91.4862, 294.0078)"> </text><text class="cls-15" transform="matrix(0.6207, 0.7841, -0.7841, 0.6207, 94.1473, 297.5693)"> </text><text class="cls-15" transform="matrix(0.6425, 0.7663, -0.7663, 0.6425, 96.9061, 301.0527)"> </text><text class="cls-15" transform="translate(99.7611 304.4541) rotate(48.4056)"> </text><text class="cls-15" transform="matrix(0.6846, 0.7289, -0.7289, 0.6846, 102.7089, 307.7734)"> </text><text class="cls-15" transform="matrix(0.7049, 0.7093, -0.7093, 0.7049, 105.7489, 311.0078)"> </text><text class="cls-15" transform="translate(108.8778 314.1553) rotate(43.5699)"> </text><text class="cls-15" transform="translate(112.118 317.2344) rotate(41.9466)"> </text><text class="cls-15" transform="translate(115.5682 320.4189) rotate(39.1896)">1</text><text class="cls-15" transform="translate(123.891 327.1787) rotate(35.2887)">9</text><text class="cls-15" transform="matrix(0.8621, 0.5068, -0.5068, 0.8621, 132.8158, 333.5693)">%</text><text class="cls-15" transform="matrix(0.8929, 0.4503, -0.4503, 0.8929, 146.0643, 341.1445)"> </text><text class="cls-15" transform="matrix(0.9053, 0.4248, -0.4248, 0.9053, 150.0209, 343.1377)"> </text><text class="cls-15" transform="translate(154.0663 345.0342) rotate(23.4963)"> </text><text class="cls-15" transform="translate(158.1473 346.8076) rotate(21.8618)"> </text><text class="cls-15" transform="translate(162.2885 348.4668) rotate(20.2207)"> </text><text class="cls-15" transform="translate(166.4589 350.001) rotate(18.5851)"> </text><text class="cls-15" transform="translate(170.684 351.4199) rotate(16.944)"> </text><text class="cls-15" transform="matrix(0.9645, 0.264, -0.264, 0.9645, 174.9335, 352.7139)"> </text><text class="cls-15" transform="translate(179.2338 353.8887) rotate(13.6691)"> </text><text class="cls-15" transform="matrix(0.978, 0.2085, -0.2085, 0.978, 183.5521, 354.9375)"> </text><text class="cls-15" transform="matrix(0.9835, 0.1807, -0.1807, 0.9835, 187.8876, 355.8603)"> </text><text class="cls-15" transform="translate(192.266 356.6621) rotate(8.7772)"> </text><text class="cls-15" transform="translate(196.6556 357.3398) rotate(7.1538)"> </text><text class="cls-15" transform="translate(201.0853 357.8935) rotate(5.5273)"> </text><text class="cls-15" transform="matrix(0.9977, 0.0684, -0.0684, 0.9977, 205.4886, 358.3203)"> </text><text class="cls-15" transform="matrix(0.9992, 0.0404, -0.0404, 0.9992, 209.9276, 358.6211)"> </text><text class="cls-15" transform="translate(214.288 358.79) rotate(0.9289)"> </text><text class="cls-15" transform="matrix(0.9999, -0.0162, 0.0162, 0.9999, 218.7738, 358.8555)"> </text><text class="cls-15" transform="translate(223.1781 358.7861) rotate(-2.4488)"> </text><text class="cls-15" transform="translate(227.6215 358.5957) rotate(-4.0567)"> </text><text class="cls-15" transform="translate(232.0326 358.2812) rotate(-5.6633)"> </text><text class="cls-15" transform="matrix(0.9919, -0.1269, 0.1269, 0.9919, 236.473, 357.8398)"> </text><text class="cls-15" transform="matrix(0.9879, -0.1549, 0.1549, 0.9879, 240.8763, 357.2734)"> </text><text class="cls-15" transform="translate(245.2719 356.583) rotate(-10.5432)"> </text><text class="cls-15" transform="matrix(0.9775, -0.211, 0.211, 0.9775, 249.6556, 355.7656)"> </text><text class="cls-15" transform="translate(253.9984 354.8252) rotate(-13.8144)"> </text><text class="cls-15" transform="translate(258.3275 353.7598) rotate(-15.4544)"> </text><text class="cls-15" transform="translate(262.6068 352.5762) rotate(-17.0894)"> </text><text class="cls-15" transform="matrix(0.947, -0.3211, 0.3211, 0.947, 266.8656, 351.2646)"> </text><text class="cls-15" transform="translate(271.0707 349.8379) rotate(-20.3636)"> </text><text class="cls-15" transform="translate(275.2523 348.2842) rotate(-22.0045)"> </text><text class="cls-15" transform="translate(279.3763 346.6162) rotate(-23.6391)"> </text><text class="cls-15" transform="translate(283.4418 344.835) rotate(-25.2686)"> </text><text class="cls-15" transform="translate(287.472 342.9287) rotate(-26.904)"> </text><text class="cls-15" transform="matrix(0.8785, -0.4777, 0.4777, 0.8785, 291.4398, 340.915)"> </text><text class="cls-15" transform="translate(295.5853 338.7324) rotate(-31.305)">3</text><text class="cls-15" transform="matrix(0.8169, -0.5768, 0.5768, 0.8169, 304.7562, 333.1289)">0</text><text class="cls-15" transform="translate(313.2953 327.0088) rotate(-38.0875)">.</text><text class="cls-15" transform="translate(317.4584 323.8174) rotate(-40.9539)">5</text><text class="cls-15" transform="matrix(0.6977, -0.7164, 0.7164, 0.6977, 325.7689, 316.6875)">%</text><text class="cls-15" transform="translate(99.2137 287.6299) rotate(-124.8702)"> </text><text class="cls-15" transform="translate(96.8578 284.2549) rotate(-123.2675)"> </text><text class="cls-15" transform="translate(94.5951 280.8125) rotate(-121.6613)"> </text><text class="cls-15" transform="matrix(-0.5009, -0.8655, 0.8655, -0.5009, 92.4418, 277.3252)"> </text><text class="cls-15" transform="translate(90.3695 273.75) rotate(-118.447)"> </text><text class="cls-15" transform="matrix(-0.4515, -0.8923, 0.8923, -0.4515, 88.4081, 270.1387)"> </text><text class="cls-15" transform="matrix(-0.4262, -0.9046, 0.9046, -0.4262, 86.5463, 266.4658)"> </text><text class="cls-15" transform="matrix(-0.4005, -0.9163, 0.9163, -0.4005, 84.785, 262.7353)"> </text><text class="cls-15" transform="translate(83.1371 258.9717) rotate(-111.9932)"> </text><text class="cls-15" transform="translate(81.5922 255.1553) rotate(-110.3746)"> </text><text class="cls-15" transform="translate(80.1522 251.2852) rotate(-108.7513)"> </text><text class="cls-15" transform="translate(78.8265 247.3926) rotate(-107.1332)"> </text><text class="cls-15" transform="matrix(-0.2676, -0.9635, 0.9635, -0.2676, 77.6156, 243.4766)"> </text><text class="cls-15" transform="translate(76.5052 239.4863) rotate(-103.8923)"> </text><text class="cls-15" transform="translate(75.5175 235.5078) rotate(-102.2821)"> </text><text class="cls-15" transform="translate(74.6385 231.4853) rotate(-100.6666)"> </text><text class="cls-15" transform="translate(73.8754 227.4512) rotate(-99.0589)"> </text><text class="cls-15" transform="translate(73.2225 223.3769) rotate(-97.4477)"> </text><text class="cls-15" transform="translate(72.6859 219.2949) rotate(-95.8441)"> </text><text class="cls-15" transform="translate(72.264 215.206) rotate(-94.249)"> </text><text class="cls-15" transform="matrix(-0.0463, -0.9989, 0.9989, -0.0463, 71.9554, 211.084)"> </text><text class="cls-15" transform="translate(71.7611 206.958) rotate(-91.0662)"> </text><text class="cls-15" transform="matrix(0.0162, -0.9999, 0.9999, 0.0162, 71.6644, 202.9018)"> </text><text class="cls-15" transform="translate(71.7147 198.7261) rotate(-87.9141)"> </text><text class="cls-15" transform="matrix(0.064, -0.9979, 0.9979, 0.064, 71.8617, 194.6143)"> </text><text class="cls-15" transform="matrix(0.0918, -0.9958, 0.9958, 0.0918, 72.1219, 190.5034)"> </text><text class="cls-15" transform="matrix(0.1197, -0.9928, 0.9928, 0.1197, 72.4974, 186.395)"> </text><text class="cls-15" transform="translate(72.9891 182.292) rotate(-81.5154)"> </text><text class="cls-15" transform="translate(73.5927 178.2236) rotate(-79.9059)"> </text><text class="cls-15" transform="translate(74.307 174.1919) rotate(-78.3008)"> </text><text class="cls-15" transform="translate(75.1425 170.1426) rotate(-76.6775)"> </text><text class="cls-15" transform="translate(76.0887 166.1343) rotate(-75.0586)"> </text><text class="cls-15" transform="translate(77.1425 162.1689) rotate(-73.4446)"> </text><text class="cls-15" transform="translate(78.3129 158.2207) rotate(-71.8245)"> </text><text class="cls-15" transform="matrix(0.3388, -0.9409, 0.9409, 0.3388, 79.6, 154.293)"> </text><text class="cls-15" transform="translate(80.9828 150.4399) rotate(-68.5895)"> </text><text class="cls-15" transform="translate(82.4911 146.5854) rotate(-66.9638)"> </text><text class="cls-15" transform="translate(84.0931 142.8101) rotate(-65.3543)"> </text><text class="cls-15" transform="matrix(0.4425, -0.8968, 0.8968, 0.4425, 85.809, 139.0635)"> </text><text class="cls-15" transform="matrix(0.4675, -0.884, 0.884, 0.4675, 87.6263, 135.374)"> </text><text class="cls-15" transform="matrix(0.4922, -0.8705, 0.8705, 0.4922, 89.556, 131.7183)"> </text><text class="cls-15" transform="translate(91.5712 128.1479) rotate(-58.9112)"> </text><text class="cls-15" transform="translate(93.6971 124.6157) rotate(-57.3034)"> </text><text class="cls-15" transform="matrix(0.5635, -0.8261, 0.8261, 0.5635, 95.9188, 121.1494)"> </text><text class="cls-15" transform="translate(98.2338 117.749) rotate(-54.0991)"> </text><text class="cls-15" transform="matrix(0.6087, -0.7934, 0.7934, 0.6087, 100.6415, 114.4185)"> </text><text class="cls-15" transform="translate(103.1561 111.1362) rotate(-50.8959)"> </text><text class="cls-15" transform="translate(105.743 107.9482) rotate(-49.303)"> </text><text class="cls-15" transform="matrix(0.673, -0.7396, 0.7396, 0.673, 108.434, 104.8144)"> </text><text class="cls-15" transform="translate(111.1927 101.7773) rotate(-46.1098)"> </text><text class="cls-15" transform="translate(114.0541 98.7993) rotate(-44.5087)"> </text><text class="cls-15" transform="translate(116.9969 95.9018) rotate(-42.908)"> </text><text class="cls-15" transform="translate(120.0004 93.106) rotate(-41.3167)"> </text><text class="cls-15" transform="matrix(0.7692, -0.639, 0.639, 0.7692, 123.1019, 90.376)"> </text><text class="cls-15" transform="translate(126.2582 87.749) rotate(-38.1197)"> </text><text class="cls-15" transform="translate(129.5106 85.1943) rotate(-36.5123)"> </text><text class="cls-15" transform="matrix(0.82, -0.5723, 0.5723, 0.82, 132.8138, 82.7441)"> </text><text class="cls-15" transform="matrix(0.8357, -0.5492, 0.5492, 0.8357, 136.1874, 80.3867)"> </text><text class="cls-15" transform="translate(139.4603 78.144) rotate(-30.635)">3</text><text class="cls-15" transform="translate(147.7225 73.2236) rotate(-26.8056)">7</text><text class="cls-15" transform="translate(156.4486 68.6875) rotate(-22.125)">%</text><text class="cls-15" transform="translate(169.6722 63.4683) rotate(-18.574)"> </text><text class="cls-15" transform="translate(173.5717 62.1543) rotate(-16.9554)"> </text><text class="cls-15" transform="translate(177.5194 60.9477) rotate(-15.3315)"> </text><text class="cls-15" transform="translate(181.4867 59.8564) rotate(-13.714)"> </text><text class="cls-15" transform="matrix(0.9778, -0.2097, 0.2097, 0.9778, 185.4711, 58.8804)"> </text><text class="cls-15" transform="translate(189.4974 58.0142) rotate(-10.487)"> </text><text class="cls-15" transform="matrix(0.988, -0.1542, 0.1542, 0.988, 193.5648, 57.2583)"> </text><text class="cls-15" transform="translate(197.6141 56.623) rotate(-7.2671)"> </text><text class="cls-15" transform="matrix(0.9951, -0.0987, 0.0987, 0.9951, 201.7015, 56.0986)"> </text><text class="cls-15" transform="translate(205.8231 55.6875) rotate(-4.0567)"> </text><text class="cls-15" transform="translate(209.9203 55.3935) rotate(-2.4712)"> </text><text class="cls-15" transform="translate(214.0536 55.2143) rotate(-0.9286)"> </text><text class="cls-15" transform="matrix(0.9999, 0.0162, -0.0162, 0.9999, 218.1219, 55.1357)"> </text><text class="cls-15" transform="matrix(0.9992, 0.0396, -0.0396, 0.9992, 222.2797, 55.1919)"> </text><text class="cls-15" transform="translate(226.3871 55.3516) rotate(3.8529)"> </text><text class="cls-15" transform="matrix(0.9955, 0.095, -0.095, 0.9955, 230.4945, 55.625)"> </text><text class="cls-15" transform="translate(234.598 56.0137) rotate(7.0525)"> </text><text class="cls-15" transform="translate(238.6986 56.5171) rotate(8.665)"> </text><text class="cls-15" transform="translate(242.7631 57.1338) rotate(10.274)"> </text><text class="cls-15" transform="translate(246.8187 57.8652) rotate(11.8899)"> </text></g><g id="Outside_Labels" data-name="Outside Labels"><text class="cls-16" transform="translate(21.954 170.4517) rotate(-79.4904)">4</text><text class="cls-16" transform="translate(23.809 160.7031) rotate(-77.3821)">.</text><text class="cls-16" transform="matrix(0.2542, -0.9672, 0.9672, 0.2542, 24.767, 156.1787)">5</text><text class="cls-16" transform="translate(27.1694 146.7183) rotate(-71.7803)">%</text></g></g></g></svg>