<svg xmlns="http://www.w3.org/2000/svg" xmlns:xlink="http://www.w3.org/1999/xlink" viewBox="0 0 640 420.2485"><defs><style>.cls-1{fill:none;}.cls-15,.cls-2{fill:#fff;}.cls-3{clip-path:url(#clip-path);}.cls-10,.cls-4{fill:#ffa600;}.cls-4,.cls-5,.cls-6,.cls-7,.cls-8{fill-rule:evenodd;}.cls-11,.cls-5{fill:#ef5675;}.cls-12,.cls-6{fill:#003f5c;}.cls-13,.cls-7{fill:#7a5195;}.cls-14,.cls-8{fill:#374c80;}.cls-15,.cls-9{font-size:18px;font-family:Georgia;}</style><clipPath id="clip-path"><path class="cls-1" d="M272.4384,22.7353C168.946-4.9954,62.5686,56.4216,34.8379,159.914s33.6863,209.87,137.1787,237.6005,209.87-33.6863,237.6-137.1787S375.9309,50.466,272.4384,22.7353ZM191.4281,325.07a119,119,0,1,1,145.7446-84.1457A119,119,0,0,1,191.4281,325.07Z"/></clipPath></defs><g id="Layer_2" data-name="Layer 2"><g id="Length_of_Time_in_Role" data-name="Length of Time in Role"><g id="background"><rect class="cls-2" y="1.063" width="640" height="410"/></g><g id="Chart"><g class="cls-3"><path class="cls-4" d="M222.2306,210.1257l-158.5457-99.07c19.6974-31.5224,43.1819-52.668,76.5906-68.9625Z"/><path class="cls-5" d="M222.2306,210.1257,140.2755,42.0928c92.802-45.2626,204.7255-6.7242,249.988,86.0778a180.6992,180.6992,0,0,1,12.5506,33.5679Z"/><path class="cls-6" d="M222.2306,210.1257l180.5835-48.3872c26.7235,99.7335-32.4628,202.2472-132.1963,228.9707-39.8934,10.6894-76.8279,8.7537-115.3854-6.0471Z"/><path class="cls-7" d="M222.2306,210.1257,155.2324,384.6621C81.9731,356.5405,36.6749,291.8479,35.3053,213.3885Z"/><path class="cls-8" d="M222.2306,210.1257,35.3053,213.3885c-.6487-37.1649,8.6821-70.8107,28.38-102.3332Z"/></g></g><g id="Legend"><text class="cls-9" transform="translate(488.5699 367.0593)">10+ yrs</text><text class="cls-9" transform="translate(488.5702 334.929)">5 - 10 yrs</text><text class="cls-9" transform="translate(488.5702 300.929)">2 - 5 yrs</text><text class="cls-9" transform="translate(487.2982 267.1636)">1 - 2 yrs</text><text class="cls-9" transform="translate(487.2982 230.1636)">&lt; 1 yr</text><rect id="Swatch_1" data-name="Swatch 1" class="cls-10" x="450.2275" y="210.8916" width="24.7508" height="24.7508" transform="translate(685.8699 -239.3359) rotate(90)"/><rect id="Swatch_2" data-name="Swatch 2" class="cls-11" x="450.2275" y="247.1976" width="24.7508" height="24.7508" transform="translate(722.1759 -203.0299) rotate(90)"/><rect id="Swatch_3" data-name="Swatch 3" class="cls-12" x="450.2275" y="281.2691" width="24.7508" height="24.7508" transform="translate(756.2474 -168.9584) rotate(90)"/><rect id="Swatch_4" data-name="Swatch 4" class="cls-13" x="450.2275" y="315.3406" width="24.7508" height="24.7508" transform="translate(790.3189 -134.8869) rotate(90)"/><rect id="Swatch_5" data-name="Swatch 5" class="cls-14" x="450.2275" y="349.4121" width="24.7508" height="24.7508" transform="translate(824.3904 -100.8154) rotate(90)"/></g><g id="Inner_Labels" data-name="Inner Labels"><text class="cls-15" transform="matrix(0.0824, 0.9966, -0.9966, 0.0824, 65.521, 221.0507)"> </text><text class="cls-15" transform="translate(65.8755 226.0224) rotate(82.4057)">1</text><text class="cls-15" transform="matrix(0.2016, 0.9795, -0.9795, 0.2016, 67.3628, 236.9452)">9</text><text class="cls-15" transform="translate(69.5825 247.9813) rotate(73.3891)">%</text><text class="cls-15" transform="translate(74.2129 262.8046) rotate(69.5814)"> </text><text class="cls-15" transform="matrix(0.3959, 0.9183, -0.9183, 0.3959, 75.9038, 267.5097)">5</text><text class="cls-15" transform="translate(80.2436 277.3534) rotate(63.793)"> </text><text class="cls-15" transform="translate(82.3652 281.6923) rotate(61.5853)">-</text><text class="cls-15" transform="matrix(0.5092, 0.8606, -0.8606, 0.5092, 85.8223, 288.0145)"> </text><text class="cls-15" transform="translate(88.3174 292.3417) rotate(56.5062)">1</text><text class="cls-15" transform="translate(94.4111 301.496) rotate(52.502)">0</text><text class="cls-15" transform="matrix(0.6477, 0.7619, -0.7619, 0.6477, 101.0449, 309.996)"> </text><text class="cls-15" transform="translate(104.2007 313.7675) rotate(47.0281)">y</text><text class="cls-15" transform="translate(110.7646 320.7782) rotate(43.5699)">e</text><text class="cls-15" transform="matrix(0.7653, 0.6437, -0.6437, 0.7653, 117.6333, 327.287)">a</text><text class="cls-15" transform="matrix(0.8006, 0.5992, -0.5992, 0.8006, 125.1587, 333.5585)">r</text><text class="cls-15" transform="translate(131.5893 338.3563) rotate(33.816)">s</text><text class="cls-15" transform="translate(138.5142 342.9384) rotate(31.4133)"> </text><text class="cls-15" transform="translate(142.5566 345.4013) rotate(29.6825)"> </text><text class="cls-15" transform="translate(146.6523 347.7284) rotate(27.9585)"> </text><text class="cls-15" transform="translate(150.8242 349.9374) rotate(26.2286)"> </text><text class="cls-15" transform="translate(155.0708 352.0233) rotate(24.4929)"> </text><text class="cls-15" transform="translate(159.3877 353.9823) rotate(22.7507)"> </text><text class="cls-15" transform="translate(163.7466 355.8036) rotate(21.0135)"> </text><text class="cls-15" transform="matrix(0.9439, 0.3302, -0.3302, 0.9439, 168.1431, 357.4872)"> </text><text class="cls-15" transform="matrix(0.9535, 0.3014, -0.3014, 0.9535, 172.603, 359.0409)"> </text><text class="cls-15" transform="translate(177.1226 360.4628) rotate(15.7991)"> </text><text class="cls-15" transform="translate(181.6719 361.745) rotate(14.0598)"> </text><text class="cls-15" transform="matrix(0.9769, 0.2135, -0.2135, 0.9769, 186.2466, 362.8847)"> </text><text class="cls-15" transform="translate(190.8735 363.8886) rotate(10.588)"> </text><text class="cls-15" transform="translate(195.5205 364.7528) rotate(8.8565)"> </text><text class="cls-15" transform="translate(200.1831 365.4735) rotate(7.1312)"> </text><text class="cls-15" transform="matrix(0.9955, 0.0944, -0.0944, 0.9955, 204.8599, 366.0536)"> </text><text class="cls-15" transform="matrix(0.9979, 0.0646, -0.0646, 0.9979, 209.5474, 366.4921)"> </text><text class="cls-15" transform="matrix(0.9994, 0.0348, -0.0348, 0.9994, 214.2734, 366.7909)"> </text><text class="cls-15" transform="translate(218.9194 366.9247) rotate(0.9289)"> </text><text class="cls-15" transform="matrix(0.9997, -0.0235, 0.0235, 0.9997, 223.5908, 366.9696)"> </text><text class="cls-15" transform="translate(228.3057 366.8544) rotate(-3.049)"> </text><text class="cls-15" transform="translate(233.0176 366.5976) rotate(-4.7587)"> </text><text class="cls-15" transform="matrix(0.9912, -0.1327, 0.1327, 0.9912, 237.9883, 366.2401)">3</text><text class="cls-15" transform="translate(248.6396 364.7929) rotate(-11.5646)">5</text><text class="cls-15" transform="matrix(0.9591, -0.2829, 0.2829, 0.9591, 259.3877, 362.6581)">%</text><text class="cls-15" transform="translate(274.001 358.1513) rotate(-20.1542)"> </text><text class="cls-15" transform="matrix(0.9209, -0.3899, 0.3899, 0.9209, 278.4385, 356.5897)">2</text><text class="cls-15" transform="matrix(0.9008, -0.4343, 0.4343, 0.9008, 288.0703, 352.4247)"> </text><text class="cls-15" transform="translate(292.165 350.4706) rotate(-27.8392)">-</text><text class="cls-15" transform="matrix(0.8665, -0.4991, 0.4991, 0.8665, 298.292, 347.206)"> </text><text class="cls-15" transform="matrix(0.8413, -0.5405, 0.5405, 0.8413, 302.3984, 344.911)">5</text><text class="cls-15" transform="matrix(0.8142, -0.5806, 0.5806, 0.8142, 311.1963, 339.1649)"> </text><text class="cls-15" transform="translate(314.9951 336.5097) rotate(-38.0022)">y</text><text class="cls-15" transform="matrix(0.7505, -0.6609, 0.6609, 0.7505, 322.3506, 330.7411)">e</text><text class="cls-15" transform="matrix(0.7099, -0.7043, 0.7043, 0.7099, 329.2451, 324.6571)">a</text><text class="cls-15" transform="translate(335.9795 317.9257) rotate(-47.9253)">r</text><text class="cls-15" transform="translate(341.1631 312.1776) rotate(-50.8104)">s</text><text class="cls-15" transform="matrix(0.5906, -0.8069, 0.8069, 0.5906, 102.373, 125.2435)"> </text><text class="cls-15" transform="matrix(0.6129, -0.7902, 0.7902, 0.6129, 104.7978, 121.9252)"> </text><text class="cls-15" transform="translate(107.3291 118.6566) rotate(-50.5962)"> </text><text class="cls-15" transform="matrix(0.656, -0.7548, 0.7548, 0.656, 109.9326, 115.4828)"> </text><text class="cls-15" transform="translate(112.6406 112.3632) rotate(-47.4016)"> </text><text class="cls-15" transform="translate(115.4145 109.3407) rotate(-45.811)"> </text><text class="cls-15" transform="translate(118.291 106.3773) rotate(-44.2101)"> </text><text class="cls-15" transform="translate(121.2295 103.5145) rotate(-42.6198)"> </text><text class="cls-15" transform="matrix(0.7545, -0.6563, 0.6563, 0.7545, 124.2676, 100.7152)"> </text><text class="cls-15" transform="matrix(0.7725, -0.6351, 0.6351, 0.7725, 127.3623, 98.0189)"> </text><text class="cls-15" transform="matrix(0.7899, -0.6132, 0.6132, 0.7899, 130.5542, 95.3905)"> </text><text class="cls-15" transform="translate(133.7978 92.8681) rotate(-36.2228)"> </text><text class="cls-15" transform="translate(137.1142 90.435) rotate(-34.6231)"> </text><text class="cls-15" transform="translate(140.5225 88.079) rotate(-33.009)"> </text><text class="cls-15" transform="translate(143.9536 85.8456) rotate(-31.4133)"> </text><text class="cls-15" transform="translate(147.4731 83.6923) rotate(-29.8022)"> </text><text class="cls-15" transform="matrix(0.8814, -0.4723, 0.4723, 0.8814, 151.0581, 81.6351)"> </text><text class="cls-15" transform="translate(154.6802 79.6908) rotate(-26.5773)"> </text><text class="cls-15" transform="translate(158.3628 77.8451) rotate(-24.9628)"> </text><text class="cls-15" transform="translate(162.0776 76.1117) rotate(-23.3542)"> </text><text class="cls-15" transform="matrix(0.9289, -0.3702, 0.3702, 0.9289, 165.875, 74.4691)"> </text><text class="cls-15" transform="translate(169.6743 72.9511) rotate(-20.1213)"> </text><text class="cls-15" transform="translate(173.5522 71.5272) rotate(-18.4966)"> </text><text class="cls-15" transform="matrix(0.9569, -0.2903, 0.2903, 0.9569, 177.4541, 70.2191)"> </text><text class="cls-15" transform="matrix(0.9648, -0.2631, 0.2631, 0.9648, 181.4043, 69.017)"> </text><text class="cls-15" transform="translate(185.3462 67.9384) rotate(-13.6472)"> </text><text class="cls-15" transform="matrix(0.9781, -0.2083, 0.2083, 0.9781, 189.3594, 66.9613)"> </text><text class="cls-15" transform="translate(193.2392 66.0565) rotate(-9.3292)">2</text><text class="cls-15" transform="translate(202.7143 64.4823) rotate(-5.5842)">8</text><text class="cls-15" transform="matrix(0.9998, -0.018, 0.018, 0.9998, 212.1733, 63.4423)">%</text><text class="cls-15" transform="translate(226.3848 63.328) rotate(2.426)"> </text><text class="cls-15" transform="matrix(0.9961, 0.0887, -0.0887, 0.9961, 230.375, 63.4213)">1</text><text class="cls-15" transform="matrix(0.9909, 0.1349, -0.1349, 0.9909, 240.0752, 64.3427)"> </text><text class="cls-15" transform="matrix(0.9854, 0.1704, -0.1704, 0.9854, 244.1182, 64.8666)">-</text><text class="cls-15" transform="translate(250.457 65.9799) rotate(11.8673)"> </text><text class="cls-15" transform="matrix(0.9679, 0.2514, -0.2514, 0.9679, 254.3545, 66.7196)">2</text><text class="cls-15" transform="translate(263.7676 69.2265) rotate(17.2556)"> </text><text class="cls-15" transform="matrix(0.9413, 0.3375, -0.3375, 0.9413, 267.6221, 70.3646)">y</text><text class="cls-15" transform="matrix(0.9206, 0.3906, -0.3906, 0.9206, 275.5312, 73.1893)">e</text><text class="cls-15" transform="translate(283.1201 76.3886) rotate(26.2936)">a</text><text class="cls-15" transform="translate(290.8721 80.2318) rotate(29.3474)">r</text><text class="cls-15" transform="translate(296.9785 83.6493) rotate(32.1577)">s</text><text class="cls-15" transform="translate(303.2851 87.6464) rotate(34.3976)"> </text></g><g id="Outside_Labels" data-name="Outside Labels"><text class="cls-9" transform="matrix(0.4825, -0.8759, 0.8759, 0.4825, 50.3516, 118.1274)"> </text><text class="cls-9" transform="translate(52.374 114.4517) rotate(-59.9166)"> </text><text class="cls-9" transform="translate(54.4922 110.7944) rotate(-58.6734)"> </text><text class="cls-9" transform="matrix(0.5382, -0.8428, 0.8428, 0.5382, 56.6767, 107.2026)"> </text><text class="cls-9" transform="matrix(0.5562, -0.831, 0.831, 0.5562, 58.9355, 103.6621)"> </text><text class="cls-9" transform="matrix(0.574, -0.8188, 0.8188, 0.574, 61.2793, 100.1582)"> </text><text class="cls-9" transform="matrix(0.6059, -0.7955, 0.7955, 0.6059, 63.5771, 96.7476)">&lt;</text><text class="cls-9" transform="translate(70.4463 87.7935) rotate(-49.9655)">1</text><text class="cls-9" transform="translate(75.3408 82.0034) rotate(-48.2451)"> </text><text class="cls-9" transform="translate(78.0654 78.8906) rotate(-46.3769)">y</text><text class="cls-9" transform="translate(83.9932 72.667) rotate(-43.8903)">e</text><text class="cls-9" transform="matrix(0.7505, -0.6609, 0.6609, 0.7505, 90.0674, 66.8081)">a</text><text class="cls-9" transform="matrix(0.7767, -0.6299, 0.6299, 0.7767, 96.6943, 60.9883)">r</text><text class="cls-9" transform="translate(102.3174 56.4546) rotate(-37.3702)"> </text><text class="cls-9" transform="matrix(0.8076, -0.5897, 0.5897, 0.8076, 105.6611, 53.8979)"> </text><text class="cls-9" transform="matrix(0.8201, -0.5722, 0.5722, 0.8201, 109.0635, 51.4126)"> </text><text class="cls-9" transform="matrix(0.8323, -0.5543, 0.5543, 0.8323, 112.5195, 48.999)"> </text><text class="cls-9" transform="matrix(0.844, -0.5363, 0.5363, 0.844, 116.0156, 46.6694)"> </text><text class="cls-9" transform="matrix(0.8554, -0.518, 0.518, 0.8554, 119.5625, 44.4136)"> </text><text class="cls-9" transform="translate(123.1787 42.2227) rotate(-29.9537)"> </text><text class="cls-9" transform="translate(126.8115 40.127) rotate(-28.7185)"> </text><text class="cls-9" transform="matrix(0.8872, -0.4614, 0.4614, 0.8872, 130.5107, 38.0981)"> </text><text class="cls-9" transform="matrix(0.897, -0.442, 0.442, 0.897, 134.2588, 36.1484)"> </text><text class="cls-9" transform="matrix(0.9064, -0.4224, 0.4224, 0.9064, 138.0371, 34.2856)"> </text><text class="cls-9" transform="translate(141.8428 32.5093) rotate(-23.7434)"> </text><text class="cls-9" transform="translate(145.6953 30.8135) rotate(-22.4986)"> </text><text class="cls-9" transform="translate(149.5889 29.1992) rotate(-21.2506)"> </text><text class="cls-9" transform="translate(153.5254 27.667) rotate(-20)"> </text><text class="cls-9" transform="translate(157.4678 26.231) rotate(-18.7566)"> </text><text class="cls-9" transform="translate(161.4492 24.877) rotate(-17.5102)"> </text><text class="cls-9" transform="matrix(0.96, -0.28, 0.28, 0.96, 165.4687, 23.6069)"> </text><text class="cls-9" transform="translate(169.5283 22.4224) rotate(-15.0085)"> </text><text class="cls-9" transform="translate(173.5664 21.3379) rotate(-13.77)"> </text><text class="cls-9" transform="translate(177.6758 20.3291) rotate(-12.5173)"> </text><text class="cls-9" transform="translate(181.7842 19.416) rotate(-11.2731)"> </text><text class="cls-9" transform="translate(185.9238 18.5889) rotate(-10.0266)"> </text><text class="cls-9" transform="translate(190.0576 17.8564) rotate(-8.7889)"> </text><text class="cls-9" transform="translate(194.2207 17.2114) rotate(-7.5488)"> </text><text class="cls-9" transform="translate(198.3945 16.6572) rotate(-6.3131)"> </text><text class="cls-9" transform="matrix(0.9961, -0.0885, 0.0885, 0.9961, 202.5967, 16.1914)"> </text><text class="cls-9" transform="matrix(0.9977, -0.0672, 0.0672, 0.9977, 206.7656, 15.8193)"> </text><text class="cls-9" transform="translate(211.001 15.5327) rotate(-2.6186)"> </text><text class="cls-9" transform="translate(215.1826 15.3403) rotate(-1.4058)"> </text><text class="cls-9" transform="translate(219.4648 15.2632) rotate(-0.9291)"> </text><text class="cls-9" transform="translate(223.6172 15.2197) rotate(1.0264)"> </text><text class="cls-9" transform="translate(227.8281 15.2939) rotate(2.2449)"> </text><text class="cls-9" transform="matrix(0.9982, 0.0605, -0.0605, 0.9982, 232.0371, 15.4575)"> </text><text class="cls-9" transform="translate(236.2598 15.7124) rotate(4.7017)"> </text><text class="cls-9" transform="matrix(0.9946, 0.1034, -0.1034, 0.9946, 240.459, 16.0562)"> </text><text class="cls-9" transform="matrix(0.9922, 0.1247, -0.1247, 0.9922, 244.6338, 16.4888)"> </text><text class="cls-9" transform="translate(248.8193 17.0137) rotate(8.4057)"> </text><text class="cls-9" transform="translate(252.9775 17.6265) rotate(9.6443)"> </text><text class="cls-9" transform="translate(257.1435 18.333) rotate(10.8915)"> </text><text class="cls-9" transform="translate(261.2793 19.1274) rotate(12.1366)"> </text><text class="cls-9" transform="translate(265.3838 20.0083) rotate(13.379)"> </text><text class="cls-9" transform="matrix(0.9676, 0.2526, -0.2526, 0.9676, 269.4941, 20.9849)"> </text><text class="cls-9" transform="matrix(0.9619, 0.2736, -0.2736, 0.9619, 273.5684, 22.0469)"> </text><text class="cls-9" transform="translate(277.6113 23.1948) rotate(17.122)"> </text><text class="cls-9" transform="matrix(0.949, 0.3152, -0.3152, 0.949, 281.6494, 24.4385)"> </text><text class="cls-9" transform="translate(285.6348 25.7598) rotate(19.6191)"> </text><text class="cls-9" transform="translate(289.6172 27.1782) rotate(20.8706)"> </text><text class="cls-9" transform="translate(293.542 28.6733) rotate(22.1144)"> </text><text class="cls-9" transform="translate(297.4424 30.2568) rotate(23.3596)"> </text><text class="cls-9" transform="translate(301.3017 31.9214) rotate(24.6021)"> </text><text class="cls-9" transform="matrix(0.9, 0.436, -0.436, 0.9, 305.1348, 33.6748)"> </text><text class="cls-9" transform="translate(308.9219 35.5078) rotate(27.0891)"> </text><text class="cls-9" transform="translate(312.6797 37.4292) rotate(28.3335)"> </text><text class="cls-9" transform="translate(316.3906 39.4282) rotate(29.5751)"> </text><text class="cls-9" transform="matrix(0.8588, 0.5122, -0.5122, 0.8588, 320.0537, 41.5049)"> </text><text class="cls-9" transform="translate(323.666 43.6582) rotate(32.0497)"> </text><text class="cls-9" transform="matrix(0.8359, 0.5489, -0.5489, 0.8359, 327.2441, 45.8965)"> </text><text class="cls-9" transform="translate(330.7676 48.2095) rotate(34.5264)"> </text><text class="cls-9" transform="matrix(0.8115, 0.5844, -0.5844, 0.8115, 334.2412, 50.5967)"> </text><text class="cls-9" transform="matrix(0.7987, 0.6017, -0.6017, 0.7987, 337.6582, 53.0562)"> </text><text class="cls-9" transform="translate(341.0205 55.5869) rotate(38.2266)"> </text><text class="cls-9" transform="translate(344.3262 58.1885) rotate(39.4573)"> </text><text class="cls-9" transform="matrix(0.7583, 0.6519, -0.6519, 0.7583, 347.5732, 60.8594)"> </text><text class="cls-9" transform="matrix(0.744, 0.6682, -0.6682, 0.744, 350.7891, 63.6226)"> </text><text class="cls-9" transform="matrix(0.7295, 0.684, -0.684, 0.7295, 353.916, 66.4302)"> </text><text class="cls-9" transform="translate(356.9834 69.3032) rotate(44.3813)"> </text><text class="cls-9" transform="matrix(0.6994, 0.7147, -0.7147, 0.6994, 360.0137, 72.2666)"> </text><text class="cls-9" transform="translate(362.9521 75.2686) rotate(46.8463)"> </text><text class="cls-9" transform="translate(365.8281 78.333) rotate(48.074)"> </text><text class="cls-9" transform="translate(368.6494 81.4736) rotate(49.3081)"> </text><text class="cls-9" transform="matrix(0.6355, 0.7721, -0.7721, 0.6355, 371.4043, 84.6743)"> </text><text class="cls-9" transform="matrix(0.6188, 0.7856, -0.7856, 0.6188, 374.0781, 87.9214)"> </text><text class="cls-9" transform="matrix(0.6017, 0.7987, -0.7987, 0.6017, 376.6836, 91.2261)"> </text><text class="cls-9" transform="matrix(0.5844, 0.8115, -0.8115, 0.5844, 379.2187, 94.5884)"> </text><text class="cls-9" transform="matrix(0.5668, 0.8239, -0.8239, 0.5668, 381.6816, 98.0068)"> </text><text class="cls-9" transform="translate(384.0732 101.4795) rotate(56.7111)"> </text><text class="cls-9" transform="translate(386.3906 105.0063) rotate(57.9503)"> </text><text class="cls-9" transform="matrix(0.5123, 0.8588, -0.8588, 0.5123, 388.6133, 108.5552)"> </text><text class="cls-9" transform="translate(390.7803 112.186) rotate(60.4255)"> </text><text class="cls-9" transform="translate(392.8535 115.8345) rotate(61.6617)"> </text><text class="cls-9" transform="translate(394.8652 119.5654) rotate(62.9111)"> </text><text class="cls-9" transform="matrix(0.436, 0.9, -0.9, 0.436, 396.7842, 123.3105)"> </text><text class="cls-9" transform="translate(398.6221 127.103) rotate(65.3979)"> </text><text class="cls-9" transform="translate(400.3662 130.9067) rotate(66.6346)"> </text><text class="cls-9" transform="translate(402.0449 134.7876) rotate(67.8859)"> </text><text class="cls-9" transform="translate(403.6269 138.6782) rotate(69.1288)"> </text><text class="cls-9" transform="translate(405.1279 142.6099) rotate(70.376)"> </text><text class="cls-9" transform="matrix(0.3152, 0.949, -0.949, 0.3152, 406.5459, 146.582)"> </text><text class="cls-9" transform="translate(407.8799 150.5938) rotate(72.8784)"> </text><text class="cls-9" transform="translate(409.1172 154.6069) rotate(74.1229)"> </text><text class="cls-9" transform="translate(410.2715 158.6582) rotate(75.3703)"> </text><text class="cls-9" transform="translate(411.3389 162.7441) rotate(76.6218)"> </text><text class="cls-9" transform="translate(412.3115 166.8286) rotate(77.8632)"> </text><text class="cls-9" transform="translate(413.1992 170.9463) rotate(79.1086)"> </text><text class="cls-9" transform="matrix(0.1675, 0.9859, -0.9859, 0.1675, 413.998, 175.0957)"> </text><text class="cls-9" transform="translate(414.7041 179.2383) rotate(81.5941)"> </text><text class="cls-9" transform="translate(415.3223 183.4111) rotate(82.8347)"> </text><text class="cls-9" transform="translate(415.8467 187.5742) rotate(84.0657)"> </text><text class="cls-9" transform="translate(416.2832 191.7651) rotate(85.298)"> </text><text class="cls-9" transform="matrix(0.0605, 0.9982, -0.9982, 0.0605, 416.6309, 195.9814)"> </text><text class="cls-9" transform="translate(416.8887 200.1855) rotate(87.7554)"> </text><text class="cls-9" transform="translate(417.0537 204.374) rotate(88.9682)"> </text><text class="cls-9" transform="matrix(-0.0162, 0.9999, -0.9999, -0.0162, 417.1601, 208.5259)"> </text><text class="cls-9" transform="translate(417.1191 212.8291) rotate(91.4056)"> </text><text class="cls-9" transform="translate(417.0176 217.0142) rotate(92.6184)"> </text><text class="cls-9" transform="matrix(-0.0672, 0.9977, -0.9977, -0.0672, 416.8242, 221.2539)"> </text><text class="cls-9" transform="matrix(-0.0885, 0.9961, -0.9961, -0.0885, 416.5459, 225.4312)"> </text><text class="cls-9" transform="translate(416.1748 229.6235) rotate(96.3076)"> </text><text class="cls-9" transform="translate(415.7109 233.8267) rotate(97.5493)"> </text><text class="cls-9" transform="translate(415.1582 238.0044) rotate(98.7887)"> </text><text class="cls-9" transform="translate(414.5185 242.1528) rotate(100.0264)"> </text><text class="cls-9" transform="translate(413.7851 246.3101) rotate(101.273)"> </text><text class="cls-9" transform="matrix(-0.2167, 0.9762, -0.9762, -0.2167, 412.9629, 250.438)"> </text><text class="cls-9" transform="translate(412.0469 254.5679) rotate(103.77)"> </text><text class="cls-9" transform="translate(411.0537 258.6304) rotate(105.0079)"> </text><text class="cls-9" transform="translate(409.9658 262.6958) rotate(106.2556)"> </text><text class="cls-9" transform="translate(408.7812 266.7622) rotate(107.5107)"> </text><text class="cls-9" transform="translate(407.5176 270.7729) rotate(108.7566)"> </text><text class="cls-9" transform="matrix(-0.342, 0.9397, -0.9397, -0.342, 406.1689, 274.7466)"> </text><text class="cls-9" transform="translate(404.7266 278.7173) rotate(111.2513)"> </text><text class="cls-9" transform="translate(403.1982 282.647) rotate(112.4984)"> </text><text class="cls-9" transform="translate(401.5898 286.5356) rotate(113.7431)"> </text><text class="cls-9" transform="translate(399.9014 290.3804) rotate(114.9849)"> </text><text class="cls-9" transform="translate(398.123 294.1997) rotate(116.229)"> </text><text class="cls-9" transform="translate(396.2578 297.9897) rotate(117.4752)"> </text><text class="cls-9" transform="translate(394.3115 301.7339) rotate(118.7185)"> </text><text class="cls-9" transform="translate(392.2969 305.4126) rotate(119.9534)"> </text><text class="cls-9" transform="translate(390.1885 309.0757) rotate(121.1968)"> </text><text class="cls-9" transform="translate(388.0117 312.6724) rotate(122.4321)"> </text><text class="cls-9" transform="matrix(-0.5544, 0.8323, -0.8323, -0.5544, 385.7607, 316.2202)"> </text><text class="cls-9" transform="translate(383.4238 319.728) rotate(124.902)"> </text><text class="cls-9" transform="translate(381.0146 323.1841) rotate(126.1369)"> </text><text class="cls-9" transform="translate(378.5342 326.5854) rotate(127.3696)"> </text><text class="cls-9" transform="matrix(-0.624, 0.7815, -0.7815, -0.624, 375.9687, 329.9438)"> </text><text class="cls-9" transform="matrix(-0.6407, 0.7678, -0.7678, -0.6407, 373.334, 333.2456)"> </text><text class="cls-9" transform="translate(370.6435 336.4741) rotate(131.0712)"> </text><text class="cls-9" transform="matrix(-0.673, 0.7396, -0.7396, -0.673, 367.8818, 339.644)"> </text><text class="cls-9" transform="translate(365.043 342.7671) rotate(133.5317)"> </text><text class="cls-9" transform="matrix(-0.7042, 0.71, -0.71, -0.7042, 362.1367, 345.8276)"> </text><text class="cls-9" transform="translate(359.1797 348.812) rotate(135.9925)"> </text><text class="cls-9" transform="translate(356.1445 351.7446) rotate(137.2255)"> </text><text class="cls-9" transform="translate(353.0469 354.6118) rotate(138.4589)"> </text><text class="cls-9" transform="translate(349.9004 357.4009) rotate(139.6876)"> </text><text class="cls-9" transform="matrix(-0.7762, 0.6304, -0.6304, -0.7762, 346.6963, 360.1226)"> </text><text class="cls-9" transform="matrix(-0.7896, 0.6136, -0.6136, -0.7896, 343.4326, 362.7759)"> </text><text class="cls-9" transform="matrix(-0.8027, 0.5964, -0.5964, -0.8027, 340.0947, 365.3716)"> </text><text class="cls-9" transform="matrix(-0.8153, 0.579, -0.579, -0.8153, 336.7148, 367.8853)"> </text><text class="cls-9" transform="matrix(-0.8276, 0.5613, -0.5613, -0.8276, 333.2793, 370.3257)"> </text><text class="cls-9" transform="matrix(-0.8395, 0.5434, -0.5434, -0.8395, 329.8047, 372.6841)"> </text><text class="cls-9" transform="matrix(-0.8511, 0.5251, -0.5251, -0.8511, 326.2617, 374.978)"> </text><text class="cls-9" transform="matrix(-0.8622, 0.5065, -0.5065, -0.8622, 322.667, 377.1978)"> </text><text class="cls-9" transform="matrix(-0.873, 0.4878, -0.4878, -0.873, 319.0517, 379.3228)"> </text><text class="cls-9" transform="matrix(-0.8833, 0.4687, -0.4687, -0.8833, 315.3721, 381.3813)"> </text><text class="cls-9" transform="translate(311.6426 383.3628) rotate(153.2919)"> </text><text class="cls-9" transform="matrix(-0.9028, 0.43, -0.43, -0.9028, 307.8828, 385.2554)"> </text><text class="cls-9" transform="translate(304.0762 387.0698) rotate(155.7804)"> </text><text class="cls-9" transform="translate(300.2588 388.7886) rotate(157.0182)"> </text><text class="cls-9" transform="translate(296.3642 390.4409) rotate(158.2706)"> </text><text class="cls-9" transform="translate(292.4609 391.9976) rotate(159.5147)"> </text><text class="cls-9" transform="matrix(-0.9442, 0.3295, -0.3295, -0.9442, 288.5166, 393.4731)"> </text><text class="cls-9" transform="matrix(-0.9511, 0.3088, -0.3088, -0.9511, 284.5312, 394.8657)"> </text><text class="cls-9" transform="translate(280.5439 396.1626) rotate(163.2553)"> </text><text class="cls-9" transform="matrix(-0.9637, 0.2671, -0.2671, -0.9637, 276.5019, 397.3794)"> </text><text class="cls-9" transform="translate(272.4394 398.5063) rotate(165.755)"> </text><text class="cls-9" transform="translate(268.3613 399.5444) rotate(167.001)"> </text><text class="cls-9" transform="translate(264.2656 400.4907) rotate(168.2444)"> </text><text class="cls-9" transform="translate(260.1396 401.3511) rotate(169.4901)"> </text><text class="cls-9" transform="translate(255.9795 402.1245) rotate(170.7386)"> </text><text class="cls-9" transform="matrix(-0.9902, 0.1396, -0.1396, -0.9902, 251.8281, 402.8022)"> </text><text class="cls-9" transform="translate(247.6641 403.3901) rotate(173.2127)"> </text><text class="cls-9" transform="matrix(-0.9953, 0.0967, -0.0967, -0.9953, 243.4736, 403.8901)"> </text><text class="cls-9" transform="matrix(-0.9972, 0.0753, -0.0753, -0.9972, 239.2744, 404.2993)"> </text><text class="cls-9" transform="translate(235.0889 404.6177) rotate(176.9055)"> </text><text class="cls-9" transform="matrix(-0.9995, 0.0326, -0.0326, -0.9995, 230.8779, 404.8462)"> </text><text class="cls-9" transform="translate(226.6289 404.9761) rotate(179.0714)"> </text><text class="cls-9" transform="translate(222.4873 405.0503) rotate(-179.0714)"> </text><text class="cls-9" transform="translate(218.2295 404.9956) rotate(-178.2195)"> </text><text class="cls-9" transform="translate(214.0137 404.8647) rotate(-176.9963)"> </text><text class="cls-9" transform="matrix(-0.9973, -0.0737, 0.0737, -0.9973, 209.8193, 404.646)"> </text><text class="cls-9" transform="translate(205.6113 404.3374) rotate(-174.5402)"> </text><text class="cls-9" transform="translate(201.4267 403.939) rotate(-173.3082)"> </text><text class="cls-9" transform="translate(197.2314 403.4478) rotate(-172.0672)"> </text><text class="cls-9" transform="matrix(-0.9872, -0.1594, 0.1594, -0.9872, 193.0625, 402.8687)"> </text><text class="cls-9" transform="matrix(-0.9835, -0.1807, 0.1807, -0.9835, 188.9219, 402.2007)"> </text><text class="cls-9" transform="translate(184.7744 401.4409) rotate(-168.3454)"> </text><text class="cls-9" transform="matrix(-0.9748, -0.2232, 0.2232, -0.9748, 180.6562, 400.5933)"> </text><text class="cls-9" transform="matrix(-0.9697, -0.2445, 0.2445, -0.9697, 176.5361, 399.6509)"> </text><text class="cls-9" transform="translate(172.4463 398.6216) rotate(-164.6011)"> </text><text class="cls-9" transform="translate(168.3926 397.5063) rotate(-163.3555)"> </text><text class="cls-9" transform="matrix(-0.9516, -0.3072, 0.3072, -0.9516, 164.3564, 396.3013)"> </text><text class="cls-9" transform="translate(160.3555 395.0112) rotate(-160.8622)"> </text><text class="cls-9" transform="translate(156.3769 393.6313) rotate(-159.6143)"> </text><text class="cls-9" transform="translate(152.4365 392.1685) rotate(-158.3693)"> </text><text class="cls-9" transform="matrix(-0.9213, -0.3889, 0.3889, -0.9213, 148.5019, 390.6108)"> </text><text class="cls-9" transform="translate(144.6269 388.9761) rotate(-155.8733)"> </text><text class="cls-9" transform="translate(140.7939 387.2603) rotate(-154.6334)"> </text><text class="cls-9" transform="translate(136.9902 385.4585) rotate(-153.3892)"> </text><text class="cls-9" transform="translate(133.1973 383.5601) rotate(-152.1392)"> </text><text class="cls-9" transform="translate(129.4844 381.5981) rotate(-150.9023)"> </text><text class="cls-9" transform="matrix(-0.8631, -0.5051, 0.5051, -0.8631, 125.8027, 379.5513)"> </text><text class="cls-9" transform="matrix(-0.852, -0.5236, 0.5236, -0.852, 122.1719, 377.4292)"> </text><text class="cls-9" transform="matrix(-0.8404, -0.5419, 0.5419, -0.8404, 118.5752, 375.2192)"> </text><text class="cls-9" transform="matrix(-0.8285, -0.56, 0.56, -0.8285, 115.0293, 372.9351)"> </text><text class="cls-9" transform="translate(111.5361 370.5757) rotate(-144.7108)"> </text><text class="cls-9" transform="translate(108.0967 368.1431) rotate(-143.4769)"> </text><text class="cls-9" transform="matrix(-0.7906, -0.6123, 0.6123, -0.7906, 104.7139, 365.6411)"> </text><text class="cls-9" transform="translate(101.3877 363.0649) rotate(-141.013)"> </text><text class="cls-9" transform="translate(98.1172 360.4194) rotate(-139.7833)"> </text><text class="cls-9" transform="matrix(-0.7496, -0.6619, 0.6619, -0.7496, 94.9072, 357.7065)"> </text><text class="cls-9" transform="translate(91.7275 354.9028) rotate(-137.3157)"> </text><text class="cls-9" transform="translate(88.6377 352.0532) rotate(-136.0882)"> </text><text class="cls-9" transform="matrix(-0.7054, -0.7088, 0.7088, -0.7054, 85.6103, 349.1411)"> </text><text class="cls-9" transform="translate(82.6191 346.1382) rotate(-133.6227)"> </text><text class="cls-9" transform="matrix(-0.6742, -0.7385, 0.7385, -0.6742, 79.7187, 343.0972)"> </text><text class="cls-9" transform="matrix(-0.6583, -0.7528, 0.7528, -0.6583, 76.8848, 339.9927)"> </text><text class="cls-9" transform="translate(74.1035 336.8159) rotate(-129.933)"> </text><text class="cls-9" transform="matrix(-0.6252, -0.7805, 0.7805, -0.6252, 71.3916, 333.5786)"> </text><text class="cls-9" transform="translate(68.7598 330.2954) rotate(-127.4664)"> </text><text class="cls-9" transform="matrix(-0.5911, -0.8066, 0.8066, -0.5911, 66.1982, 326.9546)"> </text><text class="cls-9" transform="matrix(-0.5736, -0.8192, 0.8192, -0.5736, 63.707, 323.5571)"> </text><text class="cls-9" transform="matrix(-0.5558, -0.8313, 0.8313, -0.5558, 61.2881, 320.105)"> </text><text class="cls-9" transform="matrix(-0.5377, -0.8432, 0.8432, -0.5377, 58.9424, 316.5991)"> </text><text class="cls-9" transform="matrix(-0.5194, -0.8545, 0.8545, -0.5194, 56.6904, 313.0698)"> </text><text class="cls-9" transform="translate(54.4951 309.4595) rotate(-120.051)"> </text><text class="cls-9" transform="translate(52.3838 305.814) rotate(-118.8102)"> </text><text class="cls-9" transform="translate(50.3486 302.1177) rotate(-117.5673)"> </text><text class="cls-9" transform="translate(48.4023 298.3901) rotate(-116.3267)"> </text><text class="cls-9" transform="translate(46.5322 294.6157) rotate(-115.0829)"> </text><text class="cls-9" transform="matrix(-0.4041, -0.9147, 0.9147, -0.4041, 44.7422, 290.7954)"> </text><text class="cls-9" transform="matrix(-0.3843, -0.9232, 0.9232, -0.3843, 43.0498, 286.9653)"> </text><text class="cls-9" transform="translate(41.4199 283.0571) rotate(-111.3446)"> </text><text class="cls-9" transform="translate(39.8887 279.1411) rotate(-110.0994)"> </text><text class="cls-9" transform="translate(38.4404 275.1841) rotate(-108.8503)"> </text><text class="cls-9" transform="translate(37.0781 271.2056) rotate(-107.6047)"> </text><text class="cls-9" transform="matrix(-0.2816, -0.9595, 0.9595, -0.2816, 35.8037, 267.188)"> </text><text class="cls-9" transform="translate(34.6162 263.1509) rotate(-105.1091)"> </text><text class="cls-9" transform="translate(33.5156 259.0786) rotate(-103.8589)"> </text><text class="cls-9" transform="translate(32.5098 255.0073) rotate(-102.6181)"> </text><text class="cls-9" transform="translate(31.5859 250.8833) rotate(-101.3681)"> </text><text class="cls-9" transform="translate(30.7559 246.7651) rotate(-100.1277)"> </text><text class="cls-9" transform="translate(30.0137 242.6157) rotate(-98.8847)"> </text><text class="cls-9" transform="translate(29.3623 238.4546) rotate(-97.6445)"> </text><text class="cls-9" transform="translate(28.7998 234.2827) rotate(-96.4094)"> </text><text class="cls-9" transform="translate(28.3291 230.1021) rotate(-95.1769)"> </text><text class="cls-9" transform="matrix(-0.0688, -0.9976, 0.9976, -0.0688, 27.9463, 225.897)"> </text><text class="cls-9" transform="translate(27.6562 221.7017) rotate(-92.7204)"> </text><text class="cls-9" transform="translate(27.4551 217.4839) rotate(-91.4962)"> </text><text class="cls-9" transform="matrix(-0.0162, -0.9999, 0.9999, -0.0162, 27.3672, 213.207)"> </text><text class="cls-9" transform="matrix(0.0162, -0.9999, 0.9999, 0.0162, 27.3203, 209.0684)"> </text><text class="cls-9" transform="translate(27.3887 204.8359) rotate(-87.8461)"> </text><text class="cls-9" transform="translate(27.5166 200.6885) rotate(-86.1465)">1</text><text class="cls-9" transform="translate(27.9746 193.23) rotate(-83.4786)">0</text><text class="cls-9" transform="translate(29.1719 182.6016) rotate(-80.2551)">+</text><text class="cls-9" transform="matrix(0.2084, -0.978, 0.978, 0.2084, 31.1592, 171.4253)"> </text><text class="cls-9" transform="translate(31.9844 167.3589) rotate(-76.0735)">y</text><text class="cls-9" transform="translate(34.0459 159.0303) rotate(-73.5557)">e</text><text class="cls-9" transform="translate(36.4307 150.9136) rotate(-70.9946)">a</text><text class="cls-9" transform="translate(39.3144 142.5796) rotate(-68.6335)">r</text><text class="cls-9" transform="matrix(0.3994, -0.9168, 0.9168, 0.3994, 41.9101, 135.9209)">s</text></g></g></g></svg>