<?xml version="1.0" encoding="UTF-8" standalone="no"?>
<!-- Created with Inkscape (http://www.inkscape.org/) -->

<svg
   xmlns:dc="http://purl.org/dc/elements/1.1/"
   xmlns:cc="http://creativecommons.org/ns#"
   xmlns:rdf="http://www.w3.org/1999/02/22-rdf-syntax-ns#"
   xmlns:svg="http://www.w3.org/2000/svg"
   xmlns="http://www.w3.org/2000/svg"
   xmlns:sodipodi="http://sodipodi.sourceforge.net/DTD/sodipodi-0.dtd"
   xmlns:inkscape="http://www.inkscape.org/namespaces/inkscape"
   width="315"
   height="197.76263"
   id="svg2"
   version="1.1"
   inkscape:version="0.48.2 r9819"
   sodipodi:docname="wtd-na-2014-hoodie.svg"
   inkscape:export-filename="/Users/thoward/github/writethedocs/writethedocs.github.com/img/wtd-na-2014-hoodie.png"
   inkscape:export-xdpi="96.041077"
   inkscape:export-ydpi="96.041077">
  <defs
     id="defs4">
    <clipPath
       clipPathUnits="userSpaceOnUse"
       id="clipPath4300">
      <path
         style="fill:none;stroke:#000000;stroke-width:1px;stroke-linecap:butt;stroke-linejoin:miter;stroke-opacity:1"
         d="m 1306.5714,480.93361 34.2857,-37.14286 116.4286,0 -1.4286,99.28572 -151.4285,0 z"
         id="path4302"
         inkscape:connector-curvature="0" />
    </clipPath>
  </defs>
  <sodipodi:namedview
     id="base"
     pagecolor="#ffffff"
     bordercolor="#666666"
     borderopacity="1.0"
     inkscape:pageopacity="0.0"
     inkscape:pageshadow="2"
     inkscape:zoom="1.4"
     inkscape:cx="193.95512"
     inkscape:cy="63.598278"
     inkscape:document-units="px"
     inkscape:current-layer="layer1"
     showgrid="false"
     inkscape:window-width="1080"
     inkscape:window-height="734"
     inkscape:window-x="0"
     inkscape:window-y="0"
     inkscape:window-maximized="0"
     fit-margin-top="0"
     fit-margin-left="0"
     fit-margin-right="0"
     fit-margin-bottom="0" />
  <metadata
     id="metadata7">
    <rdf:RDF>
      <cc:Work
         rdf:about="">
        <dc:format>image/svg+xml</dc:format>
        <dc:type
           rdf:resource="http://purl.org/dc/dcmitype/StillImage" />
        <dc:title></dc:title>
      </cc:Work>
    </rdf:RDF>
  </metadata>
  <g
     inkscape:label="Layer 1"
     inkscape:groupmode="layer"
     id="layer1"
     transform="translate(-12.852761,78.553366)">
    <text
       xml:space="preserve"
       style="font-size:40px;font-style:normal;font-variant:normal;font-weight:normal;font-stretch:normal;line-height:125%;letter-spacing:0px;word-spacing:0px;fill:#000000;fill-opacity:1;stroke:none;font-family:Aleo;-inkscape-font-specification:Aleo"
       x="-820.36218"
       y="43.567284"
       id="text3050"
       sodipodi:linespacing="125%"><tspan
         sodipodi:role="line"
         x="-820.36218"
         y="43.567284"
         id="tspan3054" /></text>
    <text
       xml:space="preserve"
       style="font-size:40px;font-style:normal;font-weight:normal;line-height:125%;letter-spacing:0px;word-spacing:0px;fill:#000000;fill-opacity:1;stroke:none;font-family:Sans"
       x="-1797.4972"
       y="-421.58887"
       id="text3000"
       sodipodi:linespacing="125%"><tspan
         sodipodi:role="line"
         x="-1797.4972"
         y="-421.58887"
         id="tspan3008" /></text>
    <path
       d="m 14.790672,-45.223715 0,-5.54681 3.20874,0 3.896603,0 6.738698,0 11.506165,0 0,5.54681 c 0,1.650356 -0.779363,2.6283 -2.337876,2.933831 -0.03,6.4e-5 -0.199287,0.03064 -0.504433,0.09172 -0.184286,0.03064 -0.519433,0.122358 -1.008437,0.275059 -0.184287,0.06107 -0.473574,0.137573 -0.870864,0.229202 -0.397289,0.06107 -0.657218,0.106929 -0.779363,0.137572 l 9.764223,34.2892726 c 0.336002,1.2835819 0.595933,2.3684979 0.779148,3.2547479 0.244502,1.1307521 0.47379,2.3684765 0.687649,3.71313029 0.152144,-0.88622869 0.412503,-2.12395299 0.779364,-3.71313029 0.244501,-1.1001732 0.565292,-2.1850892 0.962581,-3.2547479 L 60.95269,-47.882444 c 0.214288,-0.672284 0.718292,-1.329333 1.51287,-1.971166 0.763935,-0.61117 1.650228,-0.916765 2.658879,-0.916829 l 3.712959,0 c 1.069723,6.4e-5 1.986444,0.259823 2.750593,0.779299 0.67222,0.458468 1.161224,1.161374 1.466798,2.108696 l 13.248322,40.6153806 c 0.702649,2.0476024 1.298582,4.2632704 1.787801,6.64698272 0.305359,-1.58913442 0.534647,-2.76574392 0.687434,-3.52976442 0.03,-0.152787 0.275145,-1.1918669 0.733506,-3.1172183 l 9.718365,-34.1975996 c -1.03908,-0.244438 -2.337877,-0.519476 -3.896389,-0.825136 -1.558727,-0.305552 -2.338091,-1.283496 -2.337875,-2.933852 l 0,-5.546788 12.239457,0 6.00519,0 3.8966,0 3.20896,0 0,5.546788 c -2.2e-4,1.650356 -0.77958,2.6283 -2.33788,2.933852 -0.03,4.3e-5 -0.0921,0.015 -0.18429,0.04586 -0.0621,4.3e-5 -0.18428,0.015 -0.36686,0.04586 -0.18428,0.03064 -0.35143,0.06107 -0.50421,0.09172 -0.18429,0.03064 -0.58072,0.10693 -1.19187,0.229202 -0.58072,0.09172 -1.06972,0.168216 -1.46701,0.229202 l -18.244864,58.76855 -11.41445,0 -14.80662,-46.391392 c 0,-0.03064 -0.09214,-0.290295 -0.275145,-0.779299 -0.152145,-0.48894 -0.259717,-0.87095 -0.320789,-1.146031 -0.03,-0.09172 -0.122145,-0.397246 -0.275145,-0.916829 -0.152144,-0.550033 -0.259716,-0.977901 -0.320788,-1.28356 -0.06214,0.305659 -0.169287,0.733527 -0.321003,1.28356 -0.152144,0.519583 -0.244502,0.8252 -0.274931,0.916829 -0.06214,0.244524 -0.152144,0.580698 -0.275145,1.008501 -0.122144,0.427889 -0.214287,0.733506 -0.274931,0.916829 l -14.990265,46.391392 -11.41445,0 -18.244863,-58.76855 c -0.977793,-0.183216 -1.879515,-0.33611 -2.704522,-0.458404 -0.580719,-0.122144 -0.916936,-0.183215 -1.008651,-0.18343 -1.558512,-0.305552 -2.337876,-1.283496 -2.337876,-2.933831"
       style="font-size:67.58887482px;font-style:normal;font-variant:normal;font-weight:bold;font-stretch:normal;line-height:125%;letter-spacing:0px;word-spacing:0px;fill:#ee6f44;fill-opacity:1;stroke:none;font-family:Aleo;-inkscape-font-specification:Aleo Bold"
       id="path3408"
       inkscape:connector-curvature="0" />
    <path
       d="m 121.60076,17.120435 0,-5.500952 c 0,-1.6502703 0.77936,-2.6282139 2.33787,-2.9338307 0.15215,-0.061072 0.35143,-0.1069295 0.59594,-0.1375726 0.0621,2.15e-5 0.16714,-0.015 0.321,-0.045858 0.15214,-0.030643 0.32079,-0.061072 0.50422,-0.091715 0.18428,-0.030643 0.38207,-0.061072 0.59593,-0.091715 0.21429,-0.030643 0.62658,-0.091715 1.23772,-0.18343 0.61115,-0.1221439 1.11537,-0.2292019 1.51287,-0.3208955 l 0,-49.2793872 c -0.42793,-0.09172 -0.94758,-0.183215 -1.55872,-0.275038 -0.58072,-0.09172 -0.97801,-0.152786 -1.19187,-0.18343 -0.76393,-0.152787 -1.23772,-0.244437 -1.42115,-0.275059 -0.06,6.4e-5 -0.13715,6.4e-5 -0.22908,0 -0.0921,-0.03064 -0.16714,-0.04586 -0.22929,-0.04586 -0.06,-0.03064 -0.10714,-0.04586 -0.13714,-0.04586 -1.55851,-0.305552 -2.33788,-1.283496 -2.33788,-2.933852 l 0,-5.546789 7.10535,0 20.03266,0 c 4.58425,6.5e-5 8.55714,0.489026 11.91888,1.466927 3.39217,0.977986 6.0967,2.307404 8.11378,3.988168 2.04752,1.711492 3.59082,3.774331 4.63011,6.188579 1.00844,2.383819 1.51266,5.012034 1.51266,7.884707 0,2.292126 -0.35143,4.461936 -1.0543,6.509474 -0.7335,2.108739 -1.69629,3.942375 -2.88795,5.500952 -1.40594,1.803122 -2.96445,3.270048 -4.67596,4.400758 -1.92538,1.283582 -4.04918,2.276804 -6.37184,2.979688 1.61958,0.916851 2.99488,2.2156893 4.12567,3.8964959 l 10.68095,15.7694142 c 0.489,0.091715 1.08494,0.1986444 1.7878,0.3208954 0.70286,0.1221439 1.06972,0.1834301 1.10037,0.1834301 0.24428,0.030643 0.47357,0.061072 0.68743,0.091715 0.21429,0.030643 0.41272,0.061072 0.59593,0.091715 0.18429,0.030643 0.30558,0.045858 0.36686,0.045858 0.36665,0.061072 0.61115,0.1069294 0.73351,0.1375725 1.55851,0.3056168 2.33788,1.2835605 2.33788,2.9338309 l 0,5.500952 -1.28359,0 -5.82176,0 -5.54683,0 c -1.13079,0 -2.06294,-0.213859 -2.79645,-0.641769 -0.79458,-0.458426 -1.45158,-1.084916 -1.97102,-1.879494 L 150.66456,-7.1297051 c -0.55007,-0.7945779 -1.13079,-1.3752327 -1.74194,-1.7419857 -0.64179,-0.3667101 -1.58915,-0.5500544 -2.84209,-0.5500759 l -4.72183,0 0,17.236319 c 0.76415,0.1221439 1.68087,0.2903381 2.7506,0.5042613 0.21428,0.030643 0.39729,0.061072 0.55007,0.091715 0.18429,0.030643 0.35143,0.061072 0.50422,0.091715 0.15214,0.030643 0.25972,0.045858 0.321,0.045858 0.24429,0.030643 0.44294,0.076286 0.59594,0.1375725 1.55851,0.3056168 2.33787,1.2835605 2.33787,2.9338519 l 0,5.500952 -7.0597,0 -12.65217,0 -7.10535,0 m 19.75752,-35.572854 7.19728,0 c 2.32244,4.3e-5 4.4006,-0.305552 6.23426,-0.916829 1.80302,-0.611169 3.25481,-1.421047 4.35496,-2.429591 1.16123,-1.069573 2.01709,-2.322576 2.56717,-3.758966 0.55007,-1.436326 0.82501,-3.010203 0.82501,-4.721675 0,-3.453306 -1.1308,-6.096821 -3.39218,-7.930521 -2.32266,-1.864151 -5.79133,-2.796259 -10.40601,-2.796323 l -7.38049,0 0,22.553905"
       style="font-size:67.58887482px;font-style:normal;font-variant:normal;font-weight:bold;font-stretch:normal;line-height:125%;letter-spacing:0px;word-spacing:0px;fill:#fdedcc;fill-opacity:1;stroke:none;font-family:Aleo;-inkscape-font-specification:Aleo Bold"
       id="path3410"
       inkscape:connector-curvature="0" />
    <path
       d="m 185.96199,17.120435 0,-5.500952 c 0,-1.6502703 0.77937,-2.6282139 2.33788,-2.9338307 0.15214,-0.061072 0.35143,-0.1069295 0.59593,-0.1375726 0.06,2.15e-5 0.16715,-0.015 0.32101,-0.045858 0.15214,-0.030643 0.32079,-0.061072 0.50422,-0.091715 0.18428,-0.030643 0.38186,-0.061072 0.59593,-0.091715 0.21429,-0.030643 0.62636,-0.091715 1.23772,-0.18343 0.61115,-0.1221439 1.11537,-0.2292019 1.51266,-0.3208955 l 0,-49.2793872 c -0.42772,-0.09172 -0.94737,-0.183215 -1.55851,-0.275038 -0.58072,-0.09172 -0.97801,-0.152786 -1.19187,-0.18343 -0.76415,-0.152787 -1.23773,-0.244437 -1.42116,-0.275059 -0.36664,-0.06107 -0.56529,-0.09172 -0.59593,-0.09172 -1.55851,-0.305552 -2.33788,-1.283496 -2.33788,-2.933852 l 0,-5.546789 7.10535,0 12.69803,0 7.10556,0 0,5.546789 c -2.2e-4,1.619798 -0.79479,2.597742 -2.38395,2.933852 l -0.55008,0.09172 c -0.18428,0.03064 -0.657,0.122358 -1.42094,0.275059 -0.21428,0.03064 -0.62657,0.09172 -1.23772,0.18343 -0.58072,0.09172 -1.08494,0.183431 -1.51287,0.275038 l 0,49.2793872 c 0.39729,0.091715 0.90151,0.1986445 1.51287,0.3208955 0.61115,0.091715 1.02365,0.1527869 1.23772,0.18343 0.21429,0.030643 0.41251,0.061072 0.59594,0.091715 0.18428,0.030643 0.35143,0.061072 0.50422,0.091715 0.15214,0.030643 0.25971,0.045858 0.32078,0.045858 0.18429,0.030643 0.36686,0.076501 0.55008,0.1375726 1.58916,0.3361741 2.38373,1.3141178 2.38395,2.9338307 l 0,5.500952 -7.10556,0 -12.69803,0 -7.10535,0"
       style="font-size:67.58887482px;font-style:normal;font-variant:normal;font-weight:bold;font-stretch:normal;line-height:125%;letter-spacing:0px;word-spacing:0px;fill:#fdedcc;fill-opacity:1;stroke:none;font-family:Aleo;-inkscape-font-specification:Aleo Bold"
       id="path3412"
       inkscape:connector-curvature="0" />
    <path
       d="m 216.21724,-34.680237 0,-16.090288 1.3753,0 0.13714,0 53.35929,0 0.045,0 1.51266,0 0,16.090288 -0.4125,0 -1.14601,0 -3.85075,0 c -1.22251,6.5e-5 -1.95601,-0.595869 -2.2003,-1.7878 -0.06,-0.305552 -0.21429,-1.604392 -0.45858,-3.896496 l -13.84404,0 0,48.1791925 c 0.39729,0.091715 0.90151,0.1986444 1.51287,0.3208954 0.61115,0.091715 1.02365,0.152787 1.23772,0.1834301 0.21429,0.030643 0.41251,0.061072 0.59594,0.091715 0.18429,0.030643 0.35143,0.061072 0.50422,0.091715 0.15214,0.030643 0.25971,0.045858 0.32078,0.045858 0.24451,0.030643 0.44315,0.076286 0.59594,0.1375725 1.55873,0.3056168 2.33787,1.2835605 2.33809,2.9338525 l 0,5.500952 -7.10556,0 -12.60632,0 -7.10534,0 0,-5.500952 c 0,-1.650292 0.77936,-2.6282357 2.33788,-2.9338525 0.15214,-0.061072 0.35143,-0.1069294 0.59593,-0.1375725 l 1.3753,-0.2292019 c 0.21428,-0.030643 0.62636,-0.091715 1.23772,-0.18343 0.61115,-0.1221439 1.13058,-0.2292019 1.55851,-0.3208955 l 0,-48.1791926 -13.84404,0 c -0.18428,1.742028 -0.35143,3.040867 -0.50422,3.896496 -0.2445,1.191931 -0.96279,1.787864 -2.15466,1.787821 l -3.89639,0 -1.10015,0 -0.41271,0"
       style="font-size:67.58887482px;font-style:normal;font-variant:normal;font-weight:bold;font-stretch:normal;line-height:125%;letter-spacing:0px;word-spacing:0px;fill:#fdedcc;fill-opacity:1;stroke:none;font-family:Aleo;-inkscape-font-specification:Aleo Bold"
       id="path3414"
       inkscape:connector-curvature="0" />
    <path
       d="m 275.99423,17.120435 0,-5.500952 c 0,-1.6502703 0.77936,-2.6282139 2.33787,-2.9338307 0.15215,-0.061072 0.35144,-0.1069295 0.59594,-0.1375726 0.0621,2.15e-5 0.16714,-0.015 0.321,-0.045858 0.15214,-0.030643 0.32079,-0.061072 0.50422,-0.091715 0.18429,-0.030643 0.38207,-0.061072 0.59593,-0.091715 0.21429,-0.030643 0.62658,-0.091715 1.23773,-0.18343 0.61114,-0.1221439 1.11536,-0.2292019 1.51265,-0.3208955 l 0,-49.2793872 c -0.42772,-0.09172 -0.94736,-0.183215 -1.55851,-0.275038 -0.58072,-0.09172 -0.97801,-0.152786 -1.19187,-0.18343 -0.76393,-0.152787 -1.23772,-0.244437 -1.42115,-0.275059 -0.06,6.4e-5 -0.13715,6.4e-5 -0.22908,0 -0.0921,-0.03064 -0.16714,-0.04586 -0.22928,-0.04586 -0.06,-0.03064 -0.10715,-0.04586 -0.13715,-0.04586 -1.55851,-0.305552 -2.33787,-1.283496 -2.33787,-2.933852 l 0,-5.546789 7.10534,0 42.81592,0 0,6.55529 0,3.483949 0,7.793014 -0.41272,0 -1.14601,0 -3.85074,0 c -1.2223,4.3e-5 -1.9558,-0.580612 -2.20031,-1.741964 -0.12214,-0.733421 -0.35143,-2.750423 -0.68764,-6.05105 l -21.77461,0 0,18.840775 22.92062,0 0,9.718344 -22.92062,0 0,19.2075059 21.77461,0 c 0.33621,-3.3005626 0.56529,-5.3175648 0.68764,-6.05104934 0.24451,-1.16128803 0.97801,-1.74194276 2.20031,-1.74196419 l 3.85074,0 1.14601,0 0.41272,0 0,7.79301353 0,3.4839291 0,6.601146 -42.81592,0 -7.10534,0"
       style="font-size:67.58887482px;font-style:normal;font-variant:normal;font-weight:bold;font-stretch:normal;line-height:125%;letter-spacing:0px;word-spacing:0px;fill:#fdedcc;fill-opacity:1;stroke:none;font-family:Aleo;-inkscape-font-specification:Aleo Bold"
       id="path3416"
       inkscape:connector-curvature="0" />
    <path
       d="m 14.101205,56.683665 0,-9.398155 0.437146,0 0.936651,0 33.315272,0 0.905365,0 0.468432,0 0,9.398155 -1.561298,0 c -0.853293,4.3e-5 -1.31144,-0.520333 -1.373797,-1.561149 0,-0.04157 -0.02143,-0.228923 -0.03214,-0.562011 -0.02143,-0.353832 -0.05143,-0.95748 -0.09429,-1.810944 -0.04071,-0.874207 -0.08357,-1.769264 -0.124287,-2.685193 l -13.176108,0 0,39.934397 c 0.228859,0 0.582862,0.01071 1.06158,0.03129 0.478718,0 0.822221,0.01071 1.030294,0.03129 0.416361,0.02143 0.884579,0.03129 1.405083,0.03129 0.124287,0 0.249859,0.01071 0.374575,0.03129 0.145715,0 0.229073,0 0.249859,0 0.832507,0.02143 1.248867,0.395489 1.248867,1.124023 l 0,1.280153 -5.370258,0 -3.278384,0 -5.370472,0 0,-1.280153 c 0,-0.728534 0.41636,-1.103216 1.248867,-1.124023 0.02143,0 0.09429,0 0.218573,0 0.145716,-0.02143 0.281146,-0.03129 0.405861,-0.03129 0.520504,0 0.988722,-0.01072 1.405083,-0.03129 0.207859,-0.02143 0.551576,-0.03129 1.030508,-0.03129 0.478718,-0.02143 0.832507,-0.03129 1.06158,-0.03129 l 0,-39.934397 -13.238679,0 c -0.04072,0.832657 -0.08357,1.654878 -0.124287,2.466641 -0.04071,0.791021 -0.07286,1.394669 -0.09429,1.810922 -0.02143,0.395532 -0.03214,0.655741 -0.03214,0.780585 -0.06214,1.040816 -0.520505,1.561192 -1.373797,1.561149 l -1.561084,0"
       style="font-size:46.0357132px;font-style:normal;font-variant:normal;font-weight:bold;font-stretch:normal;line-height:125%;letter-spacing:0px;word-spacing:0px;fill:#fdedcc;fill-opacity:1;stroke:#fdedcc;stroke-width:1.38902986;stroke-opacity:1;font-family:Aleo;-inkscape-font-specification:Aleo Bold"
       id="path3418"
       inkscape:connector-curvature="0" />
    <path
       d="m 55.222111,92.527828 0,-1.280153 c 0,-0.707727 0.426647,-1.082388 1.280154,-1.124024 0.02143,0 0.09429,0 0.218573,0 0.124286,-0.02143 0.249859,-0.03129 0.374788,-0.03129 0.541076,0 1.019796,-0.01071 1.436155,-0.03129 0.207859,-0.02143 0.551576,-0.03129 1.030294,-0.03129 0.478718,-0.02143 0.832721,-0.03129 1.06158,-0.03129 l 0,-40.184171 c -0.228859,4.3e-5 -0.582862,4.3e-5 -1.06158,0 -0.478718,-0.02143 -0.822221,-0.04157 -1.030294,-0.06257 -0.416359,-0.02143 -0.895079,-0.03107 -1.436155,-0.03129 -0.124285,4.3e-5 -0.249859,4.3e-5 -0.374788,0 -0.124287,-0.02143 -0.197145,-0.03107 -0.218573,-0.03129 -0.853507,-0.04157 -1.280154,-0.416274 -1.280154,-1.124023 l 0,-1.248932 5.401544,0 3.278598,0 5.401544,0 0,1.248932 c 0,0.707749 -0.426646,1.08243 -1.280153,1.124023 -0.02143,4.3e-5 -0.09429,0.01071 -0.218573,0.03129 -0.124287,4.3e-5 -0.249859,4.3e-5 -0.374789,0 -0.541076,4.3e-5 -1.019794,0.01072 -1.436154,0.03129 -0.207859,0.02143 -0.551576,0.04157 -1.030295,0.06257 -0.478932,4.3e-5 -0.832721,4.3e-5 -1.06158,0 l 0,18.577759 28.350446,0 0,-18.577759 c -0.228859,4.3e-5 -0.582862,4.3e-5 -1.06158,0 -0.478719,-0.02143 -0.822221,-0.04157 -1.030295,-0.06257 -0.41636,-0.02143 -0.895078,-0.03107 -1.436368,-0.03129 -0.124287,4.3e-5 -0.249645,4.3e-5 -0.374575,0 -0.124287,-0.02143 -0.197144,-0.03107 -0.218573,-0.03129 -0.853507,-0.04157 -1.280153,-0.416274 -1.280153,-1.124023 l 0,-1.248932 5.401544,0 3.278598,0 5.401543,0 0,1.248932 c 0,0.707749 -0.42686,1.08243 -1.280154,1.124023 -0.0214,4.3e-5 -0.0943,0.01071 -0.218572,0.03129 -0.124286,4.3e-5 -0.249859,4.3e-5 -0.374789,0 -0.541075,4.3e-5 -1.020008,0.01072 -1.436154,0.03129 -0.207859,0.02143 -0.551576,0.04157 -1.030294,0.06257 -0.478933,4.3e-5 -0.832721,4.3e-5 -1.06158,0 l 0,40.184171 c 0.228859,0 0.582647,0.01071 1.06158,0.03129 0.478718,0 0.822007,0.01071 1.030294,0.03129 0.416146,0.02143 0.895079,0.03129 1.436154,0.03129 0.124287,0 0.24986,0.01072 0.374789,0.03129 0.124282,0 0.197142,0 0.218572,0 0.853294,0.04157 1.280154,0.416297 1.280154,1.124024 l 0,1.280153 -5.401543,0 -3.278598,0 -5.401544,0 0,-1.280153 c 0,-0.707727 0.426646,-1.082388 1.280153,-1.124024 0.02143,0 0.09429,0 0.218573,0 0.124287,-0.02143 0.249645,-0.03129 0.374575,-0.03129 0.54129,0 1.020008,-0.01071 1.436368,-0.03129 0.207859,-0.02143 0.551576,-0.03129 1.030295,-0.03129 0.478718,-0.02143 0.832721,-0.03129 1.06158,-0.03129 l 0,-19.139792 -28.350446,0 0,19.139792 c 0.228859,0 0.582648,0.01071 1.06158,0.03129 0.478719,0 0.822221,0.01071 1.030295,0.03129 0.41636,0.02143 0.895078,0.03129 1.436154,0.03129 0.124287,0 0.249859,0.01072 0.374789,0.03129 0.124287,0 0.197144,0 0.218573,0 0.853507,0.04157 1.280153,0.416297 1.280153,1.124024 l 0,1.280153 -5.401544,0 -3.278598,0 -5.401544,0"
       style="font-size:46.0357132px;font-style:normal;font-variant:normal;font-weight:bold;font-stretch:normal;line-height:125%;letter-spacing:0px;word-spacing:0px;fill:#fdedcc;fill-opacity:1;stroke:#fdedcc;stroke-width:1.38902986;stroke-opacity:1;font-family:Aleo;-inkscape-font-specification:Aleo Bold"
       id="path3420"
       inkscape:connector-curvature="0" />
    <path
       d="m 107.05247,92.527828 0,-1.280153 c 0,-0.707727 0.42686,-1.082388 1.28015,-1.124024 0.0214,0 0.0943,0 0.21857,0 0.12429,-0.02143 0.24986,-0.03129 0.37479,-0.03129 0.54108,0 1.02001,-0.01071 1.43616,-0.03129 0.20785,-0.02143 0.55157,-0.03129 1.0305,-0.03129 0.47872,-0.02143 0.83251,-0.03129 1.06158,-0.03129 l 0,-40.184171 c -0.22907,4.3e-5 -0.58286,4.3e-5 -1.06158,0 -0.47893,-0.02143 -0.82222,-0.04157 -1.0305,-0.06257 -0.41615,-0.02143 -0.89508,-0.03107 -1.43616,-0.03129 -0.12429,4.3e-5 -0.24986,4.3e-5 -0.37479,0 -0.12428,-0.02143 -0.19714,-0.03107 -0.21857,-0.03129 -0.85329,-0.04157 -1.28015,-0.416274 -1.28015,-1.124023 l 0,-1.248932 5.40175,0 27.10158,0 0,2.685194 0,6.650518 -1.56108,0 c -0.85351,4.3e-5 -1.31144,-0.520333 -1.3738,-1.561148 -0.105,-1.91498 -0.18643,-3.611451 -0.24986,-5.08937 l -20.63845,0 0,18.296763 18.01579,0 0,2.65395 -18.01579,0 0,18.858775 20.63845,0 c 0,-0.124929 0.0214,-0.312217 0.0322,-0.562011 0.0214,-0.270581 0.0407,-0.541205 0.0621,-0.811807 0.0214,-0.29141 0.03,-0.572405 0.0321,-0.843028 0.0407,-0.936672 0.0729,-1.623592 0.0943,-2.060717 0.0214,-0.29141 0.03,-0.562012 0.0321,-0.811807 0.0621,-1.040751 0.52029,-1.561148 1.3738,-1.561148 l 1.5613,0 0,6.650518 0,2.716415 -27.1018,0 -5.40154,0"
       style="font-size:46.0357132px;font-style:normal;font-variant:normal;font-weight:bold;font-stretch:normal;line-height:125%;letter-spacing:0px;word-spacing:0px;fill:#fdedcc;fill-opacity:1;stroke:#fdedcc;stroke-width:1.38902986;stroke-opacity:1;font-family:Aleo;-inkscape-font-specification:Aleo Bold"
       id="path3422"
       inkscape:connector-curvature="0" />
    <path
       d="m 160.31919,92.527828 0,-3.746773 c 0,-1.124024 0.53079,-1.790136 1.59237,-1.998295 0.105,-0.04157 0.23935,-0.07286 0.40586,-0.09364 0.0407,0 0.11357,-0.01071 0.21857,-0.03129 0.10286,-0.02143 0.21857,-0.04179 0.3435,-0.06257 0.12429,-0.02143 0.26015,-0.04179 0.40586,-0.06236 0.14572,-0.02143 0.42686,-0.06257 0.84301,-0.12493 0.41636,-0.08314 0.75986,-0.156001 1.03051,-0.218552 l 0,-33.564873 c -0.29143,-0.06236 -0.64544,-0.12493 -1.06158,-0.187287 -0.39558,-0.06236 -0.66622,-0.10393 -0.81194,-0.12493 -0.52029,-0.104144 -0.843,-0.166501 -0.96793,-0.187287 -0.0429,4.3e-5 -0.0943,4.3e-5 -0.15643,0 -0.0622,-0.02143 -0.11358,-0.03107 -0.15643,-0.03129 -0.0429,-0.02143 -0.0729,-0.03107 -0.0943,-0.03129 -1.06158,-0.208073 -1.59237,-0.874207 -1.59237,-1.998295 l 0,-3.777995 4.83968,0 16.95421,0 c 3.51774,4.3e-5 6.70248,0.57249 9.55422,1.717278 2.87253,1.165724 5.33919,2.758094 7.39999,4.777132 2.06059,2.019145 3.65296,4.454544 4.77711,7.306217 1.12394,2.851759 1.68602,5.963641 1.68602,9.335733 0,3.372113 -0.56208,6.484017 -1.68602,9.335712 -1.10336,2.789272 -2.69573,5.224671 -4.77711,7.306216 -2.0608,2.060739 -4.52746,3.653109 -7.39999,4.777132 -2.87252,1.124045 -6.05726,1.686057 -9.55422,1.686057 l -16.95421,0 -4.83968,0 m 13.51961,-6.83787 8.27428,0 c 2.24788,2.1e-5 4.27739,-0.37466 6.08855,-1.124024 1.83173,-0.749342 3.36153,-1.821336 4.58961,-3.215983 1.26987,-1.415433 2.2378,-3.122318 2.90381,-5.120613 0.68701,-2.039888 1.03029,-4.308764 1.03029,-6.806627 0,-2.539456 -0.34328,-4.818746 -1.03029,-6.83787 -0.66601,-1.998252 -1.63394,-3.705116 -2.90381,-5.120592 -1.22808,-1.394604 -2.75788,-2.466598 -4.58961,-3.215983 -1.81116,-0.749321 -3.84067,-1.124002 -6.08855,-1.124024 l -8.27428,0 0,32.565716"
       style="font-size:46.0357132px;font-style:normal;font-variant:normal;font-weight:bold;font-stretch:normal;line-height:125%;letter-spacing:0px;word-spacing:0px;fill:#ee6f44;fill-opacity:1;stroke:none;font-family:Aleo;-inkscape-font-specification:Aleo Bold"
       id="path3424"
       inkscape:connector-curvature="0" />
    <path
       d="m 207.40371,69.422711 c 0,-3.413706 0.56208,-6.556832 1.68602,-9.429376 1.10315,-2.851695 2.69552,-5.349537 4.77711,-7.493569 2.04001,-2.10231 4.51696,-3.74673 7.43127,-4.933261 2.9141,-1.186424 6.09884,-1.779658 9.55422,-1.7797 3.49696,4.2e-5 6.6817,0.593276 9.55422,1.7797 2.85174,1.186531 5.3184,2.830951 7.39999,4.933261 2.0398,2.081589 3.63217,4.579431 4.77711,7.493569 1.12394,2.91418 1.68602,6.057306 1.68602,9.429376 0,3.372114 -0.56208,6.504825 -1.68602,9.398177 -1.10336,2.851716 -2.69573,5.349558 -4.77711,7.493547 -2.0608,2.12316 -4.52746,3.777995 -7.39999,4.964462 -2.83095,1.165659 -6.01569,1.7485 -9.55422,1.7485 -3.51796,0 -6.7027,-0.582841 -9.55422,-1.7485 -2.89352,-1.186467 -5.37047,-2.841302 -7.43127,-4.964462 -2.08159,-2.143989 -3.67396,-4.641831 -4.77711,-7.493547 -1.12394,-2.893352 -1.68602,-6.026063 -1.68602,-9.398177 m 8.77379,0 c 0,2.497864 0.34329,4.766761 1.03029,6.806649 0.68679,2.019102 1.66523,3.725966 2.93488,5.120591 1.26987,1.394647 2.81017,2.466642 4.62111,3.215984 1.81095,0.749363 3.84046,1.124045 6.08855,1.124023 2.24809,2.2e-5 4.27761,-0.37466 6.08855,-1.124023 1.83173,-0.749342 3.36153,-1.821337 4.58982,-3.215984 1.26966,-1.415433 2.23759,-3.122296 2.9036,-5.120591 0.66622,-1.977445 0.99922,-4.246321 0.99922,-6.806649 0,-2.581092 -0.333,-4.860382 -0.99922,-6.83787 -0.66601,-1.998252 -1.63394,-3.705116 -2.9036,-5.120591 -1.26986,-1.415412 -2.79988,-2.497799 -4.58982,-3.247205 -1.81094,-0.749321 -3.84046,-1.123981 -6.08855,-1.124024 -2.24809,4.3e-5 -4.2776,0.374703 -6.08855,1.124024 -1.76937,0.728577 -3.30967,1.810986 -4.62111,3.247205 -1.26965,1.394668 -2.24809,3.101532 -2.93488,5.120591 -0.687,2.019124 -1.03029,4.298414 -1.03029,6.83787"
       style="font-size:46.0357132px;font-style:normal;font-variant:normal;font-weight:bold;font-stretch:normal;line-height:125%;letter-spacing:0px;word-spacing:0px;fill:#ee6f44;fill-opacity:1;stroke:none;font-family:Aleo;-inkscape-font-specification:Aleo Bold"
       id="path3426"
       inkscape:connector-curvature="0" />
    <path
       d="m 256.11189,69.422711 c 0,-3.517785 0.57237,-6.702547 1.71709,-9.554285 1.14494,-2.87248 2.76859,-5.359929 4.87097,-7.462325 2.08137,-2.10231 4.57932,-3.725901 7.49342,-4.870797 2.93509,-1.165616 6.14062,-1.748457 9.61679,-1.748499 3.85074,4.2e-5 8.69043,1.113673 14.51883,3.34087 l 0,11.77111 -3.68446,0 c -0.8325,4.3e-5 -1.33222,-0.395446 -1.49872,-1.186467 -0.105,-0.645262 -0.29143,-2.331298 -0.56187,-5.058148 -3.53874,-1.04073 -6.48412,-1.561106 -8.83614,-1.561149 -2.14416,4.3e-5 -4.14239,0.385118 -5.9949,1.155245 -1.79016,0.749406 -3.35125,1.831794 -4.68347,3.247205 -1.29065,1.373862 -2.31045,3.080725 -3.05981,5.120592 -0.74937,2.039952 -1.12415,4.308828 -1.12415,6.806648 0,2.581136 0.37478,4.891647 1.12415,6.931535 0.77015,2.081567 1.75887,3.78841 2.96617,5.120592 1.24886,1.37384 2.73709,2.43542 4.46489,3.184762 1.66523,0.728556 3.49696,1.092823 5.49519,1.092823 1.18651,0 2.24809,-0.06257 3.18474,-0.187287 0.89508,-0.12493 1.76937,-0.333046 2.62288,-0.624455 0.77014,-0.270603 1.51951,-0.624455 2.24808,-1.06158 0.6868,-0.416318 1.39459,-0.957501 2.12316,-1.623614 0.16715,-0.145715 0.39537,-0.301802 0.6868,-0.468346 0.20786,-0.10393 0.45793,-0.156216 0.74936,-0.156216 0.47872,2.2e-5 0.88458,0.177002 1.2178,0.530812 l 3.40331,3.684308 c -1.87352,2.310533 -4.18396,4.090255 -6.93156,5.339187 -2.70602,1.228102 -5.9949,1.842143 -9.86644,1.842143 -3.45538,0 -6.53619,-0.58284 -9.24221,-1.7485 -2.76838,-1.186467 -5.11012,-2.820473 -7.0252,-4.902018 -1.95666,-2.123182 -3.44489,-4.610609 -4.4649,-7.462347 -1.01979,-2.872502 -1.5298,-6.036435 -1.5298,-9.49182"
       style="font-size:46.0357132px;font-style:normal;font-variant:normal;font-weight:bold;font-stretch:normal;line-height:125%;letter-spacing:0px;word-spacing:0px;fill:#ee6f44;fill-opacity:1;stroke:none;font-family:Aleo;-inkscape-font-specification:Aleo Bold"
       id="path3428"
       inkscape:connector-curvature="0" />
    <path
       d="m 297.0453,90.591998 0,-1.155245 0,-10.740773 0.28114,0 0.74915,0 2.65417,0 c 0.81172,2.1e-5 1.30094,0.39551 1.46744,1.186488 0.14571,0.936693 0.3435,2.695586 0.59315,5.2767 1.83173,0.562012 4.74604,0.843028 8.7425,0.843028 2.43537,0 4.32967,-0.582819 5.68269,-1.7485 1.33201,-1.14483 1.99823,-2.810058 1.99823,-4.995683 0,-1.186467 -0.30194,-2.175211 -0.90558,-2.96621 -0.56186,-0.728513 -1.3633,-1.373818 -2.40409,-1.93583 -0.93665,-0.499568 -2.08159,-0.947086 -3.4346,-1.342597 -2.39381,-0.707705 -3.69475,-1.092801 -3.90282,-1.155266 -1.26965,-0.416296 -2.57081,-0.936651 -3.90282,-1.561149 -1.31144,-0.603626 -2.44588,-1.373797 -3.40331,-2.310511 -0.99922,-0.978308 -1.80066,-2.185582 -2.40431,-3.621887 -0.62443,-1.519512 -0.93665,-3.288798 -0.93665,-5.307922 0,-1.706842 0.34351,-3.351263 1.0303,-4.933261 0.62443,-1.540299 1.60287,-2.955753 2.93509,-4.246364 1.22808,-1.207252 2.80995,-2.195975 4.74583,-2.966188 1.8733,-0.749299 4.01746,-1.123981 6.43205,-1.124023 4.53775,4.2e-5 8.96086,0.874292 13.26975,2.622728 l 0,11.833575 -0.28093,0 -0.78065,0 -2.62266,0 c -0.83273,4.3e-5 -1.33223,-0.395467 -1.49873,-1.186467 -0.105,-0.603626 -0.29143,-2.331297 -0.56208,-5.183056 -1.64444,-0.728492 -4.12139,-1.092759 -7.43106,-1.092802 -1.16572,4.3e-5 -2.20652,0.145715 -3.12238,0.437125 -0.89508,0.291452 -1.64444,0.686941 -2.24809,1.186467 -0.56186,0.478804 -1.00951,1.092866 -1.34251,1.842165 -0.31222,0.70777 -0.46843,1.498748 -0.46843,2.372976 0,1.061623 0.31221,1.967073 0.93665,2.716415 0.60364,0.728556 1.40508,1.342618 2.4043,1.842144 1.0408,0.520418 2.18552,0.978372 3.4346,1.373818 1.06158,0.333089 2.36252,0.770214 3.90282,1.311375 1.24887,0.437168 2.54981,0.967958 3.90282,1.592392 1.33222,0.603669 2.47716,1.363425 3.4346,2.27929 0.99922,0.936714 1.80044,2.081545 2.4043,3.434535 0.60343,1.37384 0.90537,2.997453 0.90537,4.870818 0,2.123182 -0.35379,4.079819 -1.06158,5.869934 -0.74937,1.873408 -1.79016,3.465778 -3.12239,4.777153 -1.39458,1.353011 -3.07031,2.414591 -5.02675,3.184761 -1.93587,0.770171 -4.21525,1.155246 -6.83791,1.155246 l -0.93666,0 c -4.10081,0 -8.52392,-0.811807 -13.26996,-2.435399"
       style="font-size:46.0357132px;font-style:normal;font-variant:normal;font-weight:bold;font-stretch:normal;line-height:125%;letter-spacing:0px;word-spacing:0px;fill:#ee6f44;fill-opacity:1;stroke:none;font-family:Aleo;-inkscape-font-specification:Aleo Bold"
       id="path3430"
       inkscape:connector-curvature="0" />
    <path
       id="path3456"
       d="m 12.852761,114.28226 314.999999,0 0,4.92701 -314.999999,0 z"
       style="fill:#ee6f44;fill-opacity:1;stroke:none"
       inkscape:connector-curvature="0" />
    <path
       inkscape:connector-curvature="0"
       style="fill:#ee6f44;fill-opacity:1;stroke:none"
       d="m 12.852761,-78.576453 314.999999,0 0,4.927013 -314.999999,0 z"
       id="path4226" />
  </g>
</svg>
