<?xml version="1.0" encoding="utf-8"?>
<!-- Generator: Adobe Illustrator 22.1.0, SVG Export Plug-In . SVG Version: 6.00 Build 0)  -->
<svg version="1.1" id="Layer_1" xmlns="http://www.w3.org/2000/svg" xmlns:xlink="http://www.w3.org/1999/xlink" x="0px" y="0px"
	 viewBox="0 0 167 146" style="enable-background:new 0 0 167 146;" xml:space="preserve">
<style type="text/css">
	.st0{fill:#E96851;}
	.st1{fill:#45555F;}
	.st2{fill:#933F34;}
	.st3{fill:#E0877E;}
	.st4{fill:#FFFFFF;}
	.st5{fill:#B0B7BB;}
</style>
<title>Conference Icon Copy</title>
<desc>Created with Sketch.</desc>
<g id="Home">
	<g id="Mobile" transform="translate(-76.000000, -2471.000000)">
		<g id="Group-5" transform="translate(50.000000, 2471.000000)">
			<g id="Conference-Icon-Copy" transform="translate(26.000000, 0.000000)">
				<path id="Fill-1" class="st0" d="M9.9,41.8c0,0,11.8-16,39.5-16.6C77,24.6,84.8,20,101.1,11.4c16.3-8.6,53.6-25.2,63.1,13.2
					c9.5,38.4-10,48.7-5.4,70.5c4.5,21.8-5,48.1-38.1,41.2c-33.1-6.9-44-8-58.1-4c-14.1,4-48.1,1.7-58.6-36.7
					C-6.5,57.2,6.7,45.8,9.9,41.8"/>
				<path id="Fill-4" class="st1" d="M114.7,136.8c0-0.1,0-0.3,0-0.4c0-0.1,0-0.3,0-0.4v-1.9h-0.8c-2.8-4-12.8-7-24.7-7
					c-11.9,0-21.9,3-24.7,7h-0.8v2.3c0,0,0,0,0,0c0,0,0,0,0,0v0.4h0c0.6,4.9,11.8,8.9,25.4,8.9C102.9,145.7,114.1,141.8,114.7,136.8
					L114.7,136.8L114.7,136.8z"/>
				<path id="Fill-6" class="st0" d="M114.7,134.2c0,5.1-11.4,9.3-25.5,9.3c-14.1,0-25.5-4.2-25.5-9.3s11.4-9.3,25.5-9.3
					C103.3,124.9,114.7,129.1,114.7,134.2"/>
				<path id="Fill-8" class="st1" d="M89.2,125.6c-14.8,0-24.8,4.4-24.8,8.6c0,4.2,10,8.6,24.8,8.6c14.8,0,24.8-4.4,24.8-8.6
					C114,130.1,104.1,125.6,89.2,125.6 M89.2,144.2c-12.8,0-26.1-3.7-26.1-10c0-6.2,13.3-10,26.1-10c12.8,0,26.1,3.7,26.1,10
					C115.4,140.5,102.1,144.2,89.2,144.2"/>
				<path id="Fill-10" class="st2" d="M92.8,76.8h-7.4v56.1c0,0,0,0,0,0c0,0,0,0,0,0v0.1h0c0.1,0.8,1.7,1.5,3.7,1.5
					c2,0,3.6-0.7,3.7-1.5h0V76.8z"/>
				<path id="Fill-12" class="st3" d="M86.1,132.9L86.1,132.9c0.1,0.3,1.2,0.9,3,0.9c1.9,0,3-0.6,3-0.9l0,0V77.5h-6.1V132.9z
					 M89.1,135.1c-1.7,0-3.5-0.5-4.2-1.5h-0.2l0-0.8l0,0V76.2h8.8v57.5h-0.2C92.7,134.7,90.8,135.1,89.1,135.1L89.1,135.1z"/>
				<path id="Fill-14" class="st2" d="M38.9,82.7L38.9,82.7c-1.6-0.1-2.6-2.1-3.1-3.2l-0.5,0.1l0.2-1l8.2-42.9
					c0-1.6,1.3-2.9,2.9-2.9h85.2c1.6,0,2.9,1.3,2.9,2.9l8.4,43.9l-0.5-0.1c-0.5,1.1-1.5,3-3,3.2l-0.1,0H38.9z"/>
				<path id="Fill-16" class="st1" d="M131.8,32.1H46.6c-1.9,0-3.5,1.6-3.6,3.5L35,77.3l0.2,2.4l0.2,0.6c0.6,1.3,1.7,2.9,3.3,3.1
					l0.1,0l0.1,0h0.1h100.6h0.1l0.1,0l0.1,0c1.6-0.1,2.7-1.8,3.3-3.1l0.4-1.6l0.2-1.6l-8.2-41.5C135.3,33.7,133.8,32.1,131.8,32.1
					 M131.8,33.5c1.2,0,2.2,1,2.2,2.3l8.2,42.9c0,0,0,0,0,0s-1.1,3.2-2.6,3.3c0,0-0.1,0-0.1,0H38.9c0,0-0.1,0-0.1,0
					c-1.5-0.1-2.6-3.3-2.6-3.3s0,0,0,0l8.2-42.9c0-1.2,1-2.3,2.2-2.3H131.8"/>
				<path id="Fill-18" class="st3" d="M38.2,78.9c-1.6,0-2.9-1.3-2.9-2.9v-0.1l8.4-44c0-1.6,1.3-2.9,2.9-2.9h85.2
					c1.6,0,2.9,1.3,2.9,2.9l8.4,44v0.1c0,1.6-1.3,2.9-2.9,2.9H38.2z"/>
				<path id="Fill-20" class="st1" d="M131.8,28.3H46.6c-1.9,0-3.5,1.6-3.6,3.5l-8.4,43.8l0,0.1v0.1c0,2,1.6,3.6,3.6,3.6h102.1
					c2,0,3.6-1.6,3.6-3.6v-0.1l0-0.1l-8.4-43.8C135.3,29.9,133.8,28.3,131.8,28.3 M131.8,29.7c1.2,0,2.2,1,2.2,2.3l8.4,44
					c0,1.2-1,2.3-2.2,2.3H38.2c-1.2,0-2.2-1-2.2-2.3l8.4-44c0-1.2,1-2.3,2.2-2.3H131.8"/>
				<polygon id="Fill-22" class="st4" points="139.5,73.7 39.2,73.7 39.6,72 139.1,72 				"/>
				<polygon id="Fill-24" class="st1" points="138.8,75.5 39.9,75.5 39.2,73.7 139.5,73.7 				"/>
				<polygon id="Fill-26" class="st4" points="58.7,35.8 119.8,36 124,67.8 54.3,67.8 				"/>
				<path id="Fill-28" class="st1" d="M55.1,67.1h68.2l-4.1-30.4l-59.9-0.2L55.1,67.1z M124.8,68.5H53.5l4.6-33.4l62.2,0.2
					L124.8,68.5z"/>
				<path id="Fill-30" class="st0" d="M73.8,44c0,1.4-1.1,2.5-2.5,2.5c-1.4,0-2.4-1.1-2.4-2.5c0-1.4,1.1-2.5,2.4-2.5
					C72.7,41.5,73.8,42.6,73.8,44"/>
				<path id="Fill-32" class="st0" d="M107.8,44.2c0,1.1-0.8,2-1.8,2H77.8c-1,0-1.8-0.9-1.8-2s0.8-2,1.8-2H106
					C107,42.2,107.8,43.1,107.8,44.2"/>
				<path id="Fill-34" class="st0" d="M71.7,51.9c0,1.4-1.1,2.5-2.4,2.5s-2.4-1.1-2.4-2.5c0-1.4,1.1-2.5,2.4-2.5
					S71.7,50.5,71.7,51.9"/>
				<path id="Fill-36" class="st0" d="M110,52.1c0,1.1-0.9,2-2.1,2H75.8c-1.1,0-2.1-0.9-2.1-2c0-1.1,0.9-2,2.1-2H108
					C109.1,50.1,110,51,110,52.1"/>
				<path id="Fill-38" class="st0" d="M70.4,59.3c0,1.4-1.1,2.5-2.4,2.5c-1.4,0-2.4-1.1-2.4-2.5c0-1.4,1.1-2.5,2.4-2.5
					C69.3,56.8,70.4,57.9,70.4,59.3"/>
				<path id="Fill-40" class="st0" d="M112.1,59.5c0,1.1-1,2-2.3,2H74.7c-1.2,0-2.3-0.9-2.3-2c0-1.1,1-2,2.3-2h35.1
					C111.1,57.5,112.1,58.4,112.1,59.5"/>
			</g>
		</g>
	</g>
</g>
<rect x="34.8" y="-77.8" class="st0" width="72" height="72"/>
<rect x="158" y="-55.3" class="st1" width="89.5" height="49.3"/>
<rect x="-80.5" y="-61.3" class="st5" width="67" height="55.3"/>
<rect x="-13.5" y="-44.7" class="st3" width="47.7" height="38.7"/>
<rect x="106.4" y="-41.3" class="st2" width="51.6" height="35.3"/>
</svg>
