<?xml version="1.0" encoding="UTF-8" standalone="yes"?><svg xmlns="http://www.w3.org/2000/svg" xmlns:xlink="http://www.w3.org/1999/xlink" width="24px" height="24px" viewBox="0 0 24 24" version="1.1" style="zoom: 1;"><!-- Generator: Sketch 47.1 (45422) - http://www.bohemiancoding.com/sketch --><title>flickr8</title><desc>Created with Sketch.</desc><defs></defs><g id="Home" stroke="none" stroke-width="1" fill="none" fill-rule="evenodd"><g id="Tablet" transform="translate(-441.000000, -5372.000000)" fill="#000000"><g id="Tablet-Footer" transform="translate(-37.000000, 4091.000000)"><g id="flickr8" transform="translate(478.000000, 1281.000000)"><path d="M22.6068571,1.39295238 C21.7329524,0.518857143 20.6801905,0.0817142857 19.4491429,0.0817142857 L4.55104762,0.0817142857 C3.32,0.0817142857 2.2672381,0.518857143 1.39295238,1.39295238 C0.518857143,2.2672381 0.0817142857,3.32 0.0817142857,4.55104762 L0.0817142857,19.4489524 C0.0817142857,20.68 0.518857143,21.7327619 1.39295238,22.6070476 C2.2672381,23.4813333 3.32,23.9184762 4.55104762,23.9184762 L19.4489524,23.9184762 C20.68,23.9184762 21.7327619,23.4813333 22.6066667,22.6070476 C23.4809524,21.7327619 23.9180952,20.68 23.9180952,19.4489524 L23.9180952,4.55104762 C23.9180952,3.32 23.4809524,2.2672381 22.6068571,1.39295238 L22.6068571,1.39295238  Z M9.95161905,14.3278095 C9.31009524,14.9693333 8.53428571,15.2902857 7.62380952,15.2902857 C6.71333333,15.2902857 5.93752381,14.9693333 5.296,14.3278095 C4.65466667,13.6864762 4.33390476,12.9104762 4.33390476,12 C4.33390476,11.0893333 4.65447619,10.3135238 5.296,9.67219048 C5.93733333,9.03066667 6.71333333,8.70990476 7.62380952,8.70990476 C8.53428571,8.70990476 9.31009524,9.03066667 9.95161905,9.67219048 C10.5929524,10.3135238 10.9137143,11.0893333 10.9137143,12 C10.9137143,12.9102857 10.5929524,13.6864762 9.95161905,14.3278095 L9.95161905,14.3278095  Z M18.7038095,14.3278095 C18.0626667,14.9693333 17.2866667,15.2902857 16.376,15.2902857 C15.4657143,15.2902857 14.6895238,14.9693333 14.048,14.3278095 C13.4068571,13.6864762 13.0859048,12.9104762 13.0859048,12 C13.0859048,11.0893333 13.4068571,10.3135238 14.048,9.67219048 C14.6895238,9.03066667 15.4655238,8.70990476 16.376,8.70990476 C17.2864762,8.70990476 18.0624762,9.03066667 18.7038095,9.67219048 C19.3451429,10.3135238 19.6662857,11.0893333 19.6662857,12 C19.6662857,12.9102857 19.3451429,13.6864762 18.7038095,14.3278095 L18.7038095,14.3278095  Z " id="Shape" fill="whitesmoke"></path></g></g></g></g></svg>