<?xml version="1.0" encoding="UTF-8"?>
<svg width="16px" height="15px" viewBox="0 0 16 15" version="1.1" xmlns="http://www.w3.org/2000/svg" xmlns:xlink="http://www.w3.org/1999/xlink">
    <!-- Generator: Sketch 47.1 (45422) - http://www.bohemiancoding.com/sketch -->
    <title>github10</title>
    <desc>Created with Sketch.</desc>
    <defs></defs>
    <g id="Symbols" stroke="none" stroke-width="1" fill="none" fill-rule="evenodd">
        <g id="Speaker-Single-Header" transform="translate(-93.000000, -38.000000)" fill="#514024">
            <g id="Group" transform="translate(70.000000, 37.000000)">
                <g id="github10" transform="translate(23.000000, 0.000000)">
                    <path d="M14.879746,4.82647541 C14.1692698,3.6477459 13.2054603,2.71454918 11.9881905,2.02663934 C10.7706667,1.33872951 9.44152381,0.994836066 7.99987302,0.994836066 C6.55834921,0.994836066 5.2288254,1.33885246 4.01155556,2.02663934 C2.79415873,2.71454918 1.83034921,3.6477459 1.11987302,4.82647541 C0.409396825,6.00520492 0.0542222222,7.29237705 0.0542222222,8.6879918 C0.0542222222,10.3643033 0.559365079,11.8718033 1.56990476,13.2107377 C2.58031746,14.5496721 3.8855873,15.4762295 5.48571429,15.9904098 C5.672,16.0238525 5.80990476,16.0003689 5.89955556,15.9204508 C5.98920635,15.8402869 6.03403175,15.740082 6.03403175,15.619959 C6.03403175,15.599918 6.03225397,15.4196721 6.0288254,15.0790984 C6.02526984,14.7384016 6.02361905,14.4412295 6.02361905,14.1877049 L5.78565079,14.227541 C5.63390476,14.2544672 5.44253968,14.2659016 5.21142857,14.262582 C4.98044444,14.2595082 4.74069841,14.2360246 4.49244444,14.1925 C4.24406349,14.1492213 4.01307937,14.0491393 3.7992381,13.8922541 C3.58552381,13.7352459 3.43377778,13.5297951 3.34412698,13.2761475 L3.24063492,13.0456148 C3.17168254,12.8921721 3.06311111,12.7217623 2.91479365,12.534877 C2.76647619,12.3478689 2.61650794,12.2209836 2.4647619,12.1542213 L2.39238095,12.1041803 C2.34412698,12.0707377 2.29930159,12.0305328 2.25790476,11.9838115 C2.21650794,11.9370902 2.18552381,11.8903689 2.1648254,11.8435246 C2.14412698,11.7968033 2.16126984,11.7583197 2.21650794,11.7281967 C2.27174603,11.6980738 2.37168254,11.6833197 2.51657143,11.6833197 L2.72342857,11.7133197 C2.86133333,11.74 3.032,11.820041 3.23555556,11.9536885 C3.43898413,12.0872131 3.60622222,12.2608197 3.73726984,12.4743852 C3.896,12.7483197 4.0872381,12.9569672 4.31149206,13.1005738 C4.53561905,13.2441803 4.76152381,13.3158607 4.98907937,13.3158607 C5.21663492,13.3158607 5.41320635,13.2991393 5.57879365,13.2658197 C5.74425397,13.2325 5.89942857,13.1823361 6.04431746,13.1155738 C6.1064127,12.6680328 6.27542857,12.3241393 6.5512381,12.0837705 C6.15809524,12.0436885 5.80469841,11.9834426 5.49079365,11.9034016 C5.17701587,11.8232377 4.8528254,11.6930328 4.51834921,11.512541 C4.18374603,11.3322951 3.90615873,11.1085246 3.68546032,10.8414754 C3.4647619,10.5743033 3.28368254,10.2236475 3.14234921,9.78963115 C3.00101587,9.3554918 2.93028571,8.85471311 2.93028571,8.28704918 C2.93028571,7.47889344 3.20279365,6.79110656 3.74768254,6.22344262 C3.49244444,5.61581967 3.51657143,4.93467213 3.82006349,4.18 C4.02006349,4.11987705 4.31669841,4.165 4.70984127,4.3152459 C5.10298413,4.4654918 5.39085714,4.59422131 5.57371429,4.70094262 C5.75657143,4.80766393 5.90311111,4.89803279 6.01346032,4.97143443 C6.65498413,4.79782787 7.31707937,4.71102459 7.99987302,4.71102459 C8.68266667,4.71102459 9.34488889,4.79782787 9.98653968,4.97143443 L10.3796825,4.73106557 C10.6485079,4.5707377 10.9659683,4.42381148 11.3313016,4.29028689 C11.6968889,4.1567623 11.976381,4.12 12.1695238,4.18012295 C12.479873,4.93479508 12.5074286,5.61594262 12.2521905,6.22356557 C12.7970794,6.79122951 13.0695873,7.47913934 13.0695873,8.28717213 C13.0695873,8.85483607 12.9987302,9.35721311 12.8575238,9.79467213 C12.7160635,10.2322541 12.5334603,10.5826639 12.3093333,10.8465164 C12.0850794,11.1103689 11.8057143,11.332418 11.4712381,11.5126639 C11.1366349,11.6930328 10.8124444,11.8232377 10.4986667,11.9034016 C10.1847619,11.9835656 9.83136508,12.0438115 9.43822222,12.0838934 C9.7968254,12.3843852 9.97612698,12.8584836 9.97612698,13.5063115 L9.97612698,15.6197131 C9.97612698,15.7398361 10.0193016,15.840041 10.1055238,15.920082 C10.191746,16.000123 10.327873,16.0236066 10.5141587,15.9901639 C12.1144127,15.4759836 13.4196825,14.5494262 14.4300952,13.2103689 C15.4405079,11.8715574 15.9457778,10.3640574 15.9457778,8.68762295 C15.9453968,7.2922541 15.5899683,6.00520492 14.879746,4.82647541 L14.879746,4.82647541 Z" id="Shape"></path>
                </g>
            </g>
        </g>
    </g>
</svg>