<?xml version="1.0" encoding="UTF-8"?>
<svg width="16px" height="14px" viewBox="0 0 16 14" version="1.1" xmlns="http://www.w3.org/2000/svg" xmlns:xlink="http://www.w3.org/1999/xlink">
    <!-- Generator: Sketch 47.1 (45422) - http://www.bohemiancoding.com/sketch -->
    <title>twitter16</title>
    <desc>Created with Sketch.</desc>
    <defs></defs>
    <g id="Home" stroke="none" stroke-width="1" fill="none" fill-rule="evenodd">
        <g id="Mobile" transform="translate(-132.000000, -3248.000000)" fill="#FDB81C">
            <g id="Group" transform="translate(131.000000, 3246.000000)">
                <g id="twitter16" transform="translate(0.000000, 2.058824)">
                    <path d="M17.025125,1.67895588 C16.39375,1.96655882 15.762125,2.14616176 15.131,2.21829412 C15.843875,1.76538235 16.326,1.12558824 16.57725,0.298911765 C15.92525,0.708544118 15.229375,0.988867647 14.489375,1.13988235 C13.8375,0.406647059 13.0365,0.0398970588 12.085875,0.0398970588 C11.176125,0.0398970588 10.4005,0.379514706 9.75875,1.05888235 C9.117125,1.73825 8.796375,2.5595 8.796375,3.52276471 C8.796375,3.78151471 8.8235,4.04754412 8.877875,4.32072059 C7.5335,4.24885294 6.272375,3.89123529 5.094375,3.24786765 C3.916375,2.60436765 2.916625,1.74711765 2.095125,0.675985294 C1.796375,1.21505882 1.647,1.80098529 1.647,2.43363235 C1.647,3.03027941 1.779375,3.58391176 2.04425,4.09426471 C2.309,4.60461765 2.6655,5.01795588 3.113625,5.33427941 C2.584,5.31270588 2.088375,5.16526471 1.62675,4.89208824 L1.62675,4.93523529 C1.62675,5.77633824 1.87625,6.51486765 2.37525,7.15122059 C2.87425,7.78757353 3.504,8.18820588 4.264375,8.35351471 C3.97925,8.43252941 3.690625,8.47210294 3.39875,8.47210294 C3.208625,8.47210294 3.0015,8.45410294 2.7775,8.41836765 C2.988,9.11560294 3.375,9.68882353 3.9385,10.1381618 C4.502,10.5876324 5.14025,10.81925 5.853125,10.8338088 C4.65825,11.8256618 3.297,12.3217206 1.769375,12.3217206 C1.477375,12.3217206 1.212625,12.3075588 0.975,12.2787059 C2.502625,13.3209853 4.186375,13.8420588 6.026375,13.8420588 C7.194125,13.8420588 8.290625,13.6463088 9.315625,13.2545441 C10.341,12.8627794 11.21675,12.338 11.94325,11.6800735 C12.669625,11.0224118 13.296,10.26575 13.822125,9.41022059 C14.34825,8.55482353 14.74025,7.66170588 14.998375,6.73073529 C15.256375,5.79963235 15.385375,4.86707353 15.385375,3.93239706 C15.385375,3.73108824 15.382,3.58020588 15.375125,3.47948529 C16.02025,2.98369118 16.57025,2.38333824 17.025125,1.67895588 L17.025125,1.67895588 Z" id="Shape"></path>
                </g>
            </g>
        </g>
    </g>
</svg>