<?xml version="1.0" encoding="UTF-8"?>
<svg width="16px" height="16px" viewBox="0 0 16 16" version="1.1" xmlns="http://www.w3.org/2000/svg" xmlns:xlink="http://www.w3.org/1999/xlink">
    <!-- Generator: Sketch 47.1 (45422) - http://www.bohemiancoding.com/sketch -->
    <title>earth17</title>
    <desc>Created with Sketch.</desc>
    <defs></defs>
    <g id="Symbols" stroke="none" stroke-width="1" fill="none" fill-rule="evenodd">
        <g id="Speaker-Single-Header" transform="translate(-115.000000, -37.000000)" fill="#514024">
            <g id="Group" transform="translate(70.000000, 37.000000)">
                <g id="earth17" transform="translate(45.000000, 0.000000)">
                    <path d="M14.88,4.01168254 C14.1695238,2.7944127 13.2057143,1.83060317 11.9884444,1.12012698 C10.7709206,0.409650794 9.44177778,0.0544761905 8.00012698,0.0544761905 C6.55860317,0.0544761905 5.22920635,0.409650794 4.01180952,1.12012698 C2.7944127,1.83047619 1.83060317,2.79428571 1.12012698,4.01168254 C0.40952381,5.22907937 0.0543492063,6.55860317 0.0543492063,8 C0.0543492063,9.44139683 0.409650794,10.7707937 1.12,11.9883175 C1.83047619,13.2053333 2.79428571,14.1693968 4.01168254,14.879873 C5.22907937,15.5903492 6.55847619,15.9455238 8,15.9455238 C9.44152381,15.9455238 10.7710476,15.5903492 11.9883175,14.879873 C13.2055873,14.1695238 14.1693968,13.2055873 14.879873,11.9883175 C15.5902222,10.7707937 15.9453968,9.44126984 15.9453968,8 C15.9453968,6.55860317 15.5902222,5.22895238 14.88,4.01168254 L14.88,4.01168254 Z M8.99377778,12.1805714 C8.92457143,12.0979048 8.90057143,12.0288254 8.92139683,11.9734603 C8.91453968,12.008 8.89028571,12.0389841 8.84901587,12.0665397 C8.81447619,12.0251429 8.75225397,11.9733333 8.66273016,11.9113651 C8.57295238,11.8491429 8.51098413,11.7974603 8.47644444,11.7559365 C8.46260317,11.7353651 8.44368254,11.7060317 8.41955556,11.6680635 C8.39542857,11.6300952 8.36444444,11.5801905 8.32647619,11.5180952 C8.2887619,11.456 8.26120635,11.4025397 8.24380952,11.3575873 C8.22666667,11.3127619 8.22514286,11.2869841 8.23873016,11.280127 C8.10768254,11.3354921 7.91796825,11.2975238 7.66971429,11.1663492 C7.62146032,11.1387937 7.54895238,11.0664127 7.45244444,10.9490794 C7.35593651,10.831873 7.25587302,10.7801905 7.15238095,10.7939048 C7.11796825,10.8007619 7.07136508,10.8128254 7.01269841,10.8300952 C6.95415873,10.8473651 6.90412698,10.855873 6.86273016,10.855873 C6.82133333,10.855873 6.76609524,10.8421587 6.69714286,10.8144762 C6.64203175,10.7937778 6.56787302,10.7540317 6.47479365,10.6954921 C6.38171429,10.6369524 6.31784127,10.6005079 6.28342857,10.5869206 C6.19377778,10.5386667 6.14895238,10.5145397 6.14895238,10.5145397 L5.98336508,10.432 C5.94196825,10.4113016 5.89879365,10.3786667 5.85396825,10.3337143 C5.80914286,10.2888889 5.77993651,10.2422857 5.76609524,10.1940317 C5.75238095,10.1526349 5.73511111,10.0698413 5.7144127,9.94565079 C5.69371429,9.82146032 5.66603175,9.73180952 5.63161905,9.67669841 C5.59034921,9.60774603 5.53168254,9.53879365 5.45574603,9.46984127 C5.37993651,9.40088889 5.31098413,9.36634921 5.24888889,9.36634921 C5.30412698,9.36634921 5.30412698,9.32 5.24888889,9.22666667 C5.19365079,9.13333333 5.14539683,9.06615873 5.104,9.02488889 C5.09015873,9.01104762 5.0487619,8.96634921 4.97980952,8.89028571 C4.91085714,8.81434921 4.85219048,8.74907937 4.80393651,8.69371429 C4.75568254,8.63847619 4.71415873,8.57473016 4.67974603,8.50222222 C4.64533333,8.42971429 4.63834921,8.36952381 4.65904762,8.32114286 C4.66590476,8.31428571 4.65904762,8.30387302 4.63834921,8.29015873 C4.61765079,8.27644444 4.59187302,8.26247619 4.5607619,8.2487619 C4.52977778,8.23504762 4.50044444,8.22298413 4.47288889,8.21257143 C4.44520635,8.20228571 4.42450794,8.19707937 4.41079365,8.19707937 C4.42463492,8.22488889 4.44012698,8.27466667 4.45739683,8.3471746 C4.47466667,8.41968254 4.4935873,8.47314286 4.51428571,8.50768254 C4.52812698,8.53511111 4.58666667,8.63530159 4.69015873,8.80749206 C4.8695873,9.09714286 4.95225397,9.3112381 4.93853968,9.44914286 C4.89714286,9.46273016 4.86946032,9.45612698 4.85574603,9.42844444 C4.84190476,9.40101587 4.83149206,9.36304762 4.82463492,9.31466667 C4.81777778,9.26653968 4.81092063,9.232 4.80393651,9.21130159 C4.7832381,9.16977778 4.72977778,9.12495238 4.64355556,9.07657143 C4.55733333,9.02844444 4.50387302,8.98006349 4.4831746,8.93168254 C4.49015873,8.93168254 4.49866667,8.92850794 4.50907937,8.92139683 C4.51949206,8.9144127 4.52812698,8.91111111 4.53498413,8.91111111 C4.54196825,8.84914286 4.50577778,8.76977778 4.4264127,8.67314286 C4.34704762,8.57650794 4.3144127,8.50755556 4.32812698,8.46615873 C4.27288889,8.4247619 4.22463492,8.34374603 4.1832381,8.22311111 C4.14184127,8.10234921 4.10730159,8.0247619 4.07974603,7.99022222 C4.05219048,7.94895238 4.01777778,7.9127619 3.97638095,7.88165079 C3.93498413,7.85066667 3.88330159,7.81625397 3.82120635,7.77828571 C3.75911111,7.74031746 3.71771429,7.71453968 3.69701587,7.70069841 C3.6831746,7.69396825 3.65561905,7.66298413 3.61422222,7.60774603 C3.38666667,7.33180952 3.31771429,7.18349206 3.40736508,7.16279365 C3.31771429,7.18349206 3.24355556,7.11631746 3.18488889,6.96101587 C3.12622222,6.80584127 3.10730159,6.68673016 3.128,6.60406349 L3.10730159,6.59377778 C3.11428571,6.56609524 3.11771429,6.48520635 3.11771429,6.35060317 C3.11771429,6.216 3.12634921,6.0935873 3.14361905,5.9832381 C3.16088889,5.87288889 3.19365079,5.81765079 3.24190476,5.81765079 C3.19365079,5.82450794 3.15746032,5.78133333 3.13333333,5.68838095 C3.10920635,5.5951746 3.10742857,5.53130159 3.12812698,5.49688889 C3.13498413,5.47619048 3.16609524,5.49015873 3.22120635,5.53828571 C3.27631746,5.5864127 3.30742857,5.61765079 3.31428571,5.63136508 C3.40393651,5.58298413 3.43847619,5.52101587 3.41777778,5.44507937 C3.40393651,5.41752381 3.33155556,5.34514286 3.20050794,5.22780952 C2.90387302,5.03479365 2.75212698,4.9415873 2.74526984,4.94844444 C2.78653968,4.87263492 2.77625397,4.80711111 2.71415873,4.75187302 C2.64520635,4.79326984 2.6055873,4.80355556 2.5951746,4.78298413 C2.58488889,4.76228571 2.57625397,4.72444444 2.56926984,4.66920635 C2.5624127,4.61409524 2.54514286,4.58311111 2.5175873,4.57612698 C2.48304762,4.56926984 2.44165079,4.54171429 2.39339683,4.49346032 C3.0072381,3.51403175 3.81765079,2.74844444 4.82463492,2.19657143 C4.86603175,2.18971429 4.94184127,2.18628571 5.05219048,2.18628571 C5.10730159,2.19314286 5.15911111,2.2104127 5.20736508,2.23796825 C5.25561905,2.26552381 5.30565079,2.30349206 5.35733333,2.35174603 C5.40914286,2.39987302 5.4487619,2.4344127 5.47631746,2.45511111 C5.49015873,2.41371429 5.47288889,2.35161905 5.42463492,2.2688254 C5.43834921,2.22742857 5.51428571,2.18603175 5.65219048,2.14463492 C5.81079365,2.12393651 5.91428571,2.12736508 5.96253968,2.15504762 C5.92126984,2.09295238 5.85231746,2.00673016 5.75568254,1.89638095 L5.704,1.94806349 C5.6487619,1.89980952 5.504,1.92393651 5.26946032,2.02044444 C5.25574603,2.02730159 5.22120635,2.04634921 5.16596825,2.07733333 C5.11085714,2.10831746 5.06590476,2.13079365 5.03149206,2.14450794 C4.99009524,2.15834921 4.94869841,2.16177778 4.90730159,2.15492063 C5.23834921,1.97561905 5.56253968,1.83403175 5.87987302,1.73066667 C5.90044444,1.74438095 5.93498413,1.77371429 5.9832381,1.81853968 C6.03149206,1.86336508 6.06946032,1.89612698 6.09701587,1.9168254 C6.07631746,1.90311111 6.06247619,1.90984127 6.05561905,1.93752381 C6.02806349,2.02019048 6.02806349,2.08914286 6.05561905,2.14438095 C6.09003175,2.1927619 6.13663492,2.22019048 6.19530159,2.2271746 C6.25396825,2.23403175 6.32457143,2.23060317 6.40736508,2.2167619 C6.49015873,2.20304762 6.54539683,2.19606349 6.57295238,2.19606349 L6.67644444,2.20647619 C6.89714286,2.2271746 6.98336508,2.20647619 6.93511111,2.14438095 C6.95580952,2.17206349 6.97993651,2.22895238 7.00749206,2.3151746 C7.03504762,2.40139683 7.06615873,2.46184127 7.10057143,2.49625397 C7.13511111,2.46857143 7.14196825,2.42031746 7.12126984,2.35136508 C7.10057143,2.2824127 7.10057143,2.23403175 7.12126984,2.20647619 C7.12812698,2.1927619 7.1488254,2.17879365 7.18336508,2.16507937 C7.21790476,2.15136508 7.25752381,2.13587302 7.30234921,2.11860317 C7.3471746,2.10133333 7.37650794,2.08926984 7.39034921,2.0824127 C7.43174603,2.05473016 7.40406349,2.00647619 7.30755556,1.93752381 C7.29371429,1.93053968 7.26450794,1.92025397 7.21968254,1.9064127 C7.17485714,1.8928254 7.13511111,1.87885714 7.10069841,1.86514286 C7.06628571,1.85142857 7.03009524,1.83238095 6.99212698,1.80825397 C6.95415873,1.78412698 6.93688889,1.75657143 6.94031746,1.72546032 C6.94374603,1.69434921 6.96279365,1.65473016 6.99720635,1.60647619 C7.03860317,1.57206349 7.10590476,1.55822222 7.19898413,1.56507937 C7.29206349,1.57193651 7.36279365,1.58907937 7.41104762,1.6167619 C7.59733333,1.72025397 7.62488889,1.81346032 7.49384127,1.89612698 C7.56292063,1.90298413 7.64571429,1.93053968 7.74222222,1.97879365 C7.83873016,2.0271746 7.87669841,2.07885714 7.856,2.13409524 C7.9112381,2.03060317 7.96634921,1.97879365 8.0215873,1.97879365 C8.056,1.98577778 8.08888889,2.03238095 8.11987302,2.11860317 C8.15085714,2.2048254 8.16977778,2.25130159 8.17663492,2.25828571 C8.232,2.33409524 8.28685714,2.35136508 8.34234921,2.30996825 C8.39746032,2.26857143 8.45434921,2.20825397 8.51301587,2.12888889 C8.57155556,2.04965079 8.60431746,2.01346032 8.6111746,2.02031746 C8.54222222,1.99288889 8.53511111,1.96520635 8.59060317,1.93765079 C8.69384127,1.87555556 8.78704762,1.85828571 8.86984127,1.88596825 C8.8904127,1.89968254 8.91822222,1.93079365 8.95250794,1.97892063 C9.01434921,2.1032381 9.00393651,2.16177778 8.92152381,2.15492063 C8.98349206,2.21015873 9.00914286,2.27911111 8.99898413,2.36177778 C8.98869841,2.44457143 8.93498413,2.48253968 8.83847619,2.47555556 C8.80406349,2.47555556 8.75390476,2.45828571 8.68838095,2.42387302 C8.62285714,2.38946032 8.5728254,2.37053968 8.53828571,2.36698413 C8.50374603,2.36342857 8.45549206,2.38247619 8.39339683,2.42387302 C8.36584127,2.4584127 8.32965079,2.51707937 8.2848254,2.59974603 C8.23987302,2.68266667 8.20025397,2.74120635 8.16571429,2.77561905 C8.06234921,2.87911111 7.88977778,2.91707937 7.64838095,2.88939683 C7.66907937,2.88939683 7.66730159,2.91009524 7.6431746,2.95149206 C7.61892063,2.99288889 7.58628571,3.03949206 7.54488889,3.0911746 C7.50349206,3.14285714 7.47936508,3.17219048 7.47250794,3.17904762 C7.4104127,3.248 7.36901587,3.32736508 7.34831746,3.41701587 C7.34831746,3.43085714 7.34488889,3.47746032 7.33790476,3.55669841 C7.33092063,3.63606349 7.31720635,3.69650794 7.29650794,3.73777778 C7.37930159,3.71707937 7.4448254,3.75860317 7.49307937,3.86196825 C7.53447619,3.95860317 7.53447619,4.01028571 7.49307937,4.01726984 C7.7207619,3.98285714 7.9207619,3.99657143 8.09333333,4.05866667 C8.3415873,4.14831746 8.4831746,4.23796825 8.5175873,4.32761905 C8.55885714,4.26552381 8.65879365,4.26196825 8.81752381,4.31720635 C8.87961905,4.35161905 8.93460317,4.4552381 8.98311111,4.62755556 C9.01066667,4.73092063 9.05726984,4.82069841 9.12279365,4.89650794 C9.18844444,4.97231746 9.25892063,4.99301587 9.33498413,4.95860317 L9.36584127,4.93790476 C9.39352381,4.92419048 9.41587302,4.912 9.43314286,4.90171429 C9.4504127,4.89142857 9.46933333,4.8775873 9.48990476,4.86031746 C9.51073016,4.84304762 9.52279365,4.82755556 9.52609524,4.81384127 C9.52939683,4.80012698 9.52431746,4.78615873 9.51073016,4.77244444 C9.46234921,4.73104762 9.42615873,4.67415873 9.40215873,4.60177778 C9.37815873,4.52939683 9.38336508,4.46552381 9.41765079,4.41028571 C9.43834921,4.38273016 9.49346032,4.34133333 9.5832381,4.28609524 C9.67288889,4.23085714 9.72812698,4.17574603 9.74869841,4.12050794 C9.77650794,4.03085714 9.74196825,3.95669841 9.64546032,3.89803175 C9.5488254,3.83949206 9.50044444,3.78603175 9.50044444,3.73765079 C9.50044444,3.70311111 9.52292063,3.66184127 9.56761905,3.61346032 C9.61257143,3.56520635 9.63161905,3.52025397 9.62463492,3.47898413 C9.62463492,3.45815873 9.61244444,3.41511111 9.58844444,3.3495873 C9.56444444,3.28393651 9.55047619,3.23568254 9.54704762,3.20469841 C9.54361905,3.1735873 9.5592381,3.13739683 9.59352381,3.09612698 C9.64165079,3.06844444 9.75555556,3.07022222 9.93485714,3.10120635 C10.1141587,3.13231746 10.2314921,3.16507937 10.2867302,3.19949206 C10.3075556,3.21320635 10.352381,3.23390476 10.4213333,3.2615873 C10.4902857,3.28901587 10.5507302,3.31834921 10.6025397,3.34946032 C10.6539683,3.38044444 10.6834286,3.40965079 10.6901587,3.43733333 L10.6386032,3.43733333 C10.6868571,3.47885714 10.7161905,3.52698413 10.7263492,3.58222222 C10.7367619,3.6375873 10.7109841,3.67885714 10.6490159,3.70653968 C10.6901587,3.69955556 10.7456508,3.70996825 10.8146032,3.73752381 C10.9249524,3.77892063 10.928381,3.81688889 10.8248889,3.85130159 C10.8455873,3.84431746 10.8747937,3.8375873 10.9126349,3.83060317 C10.9506032,3.82374603 10.9798095,3.81333333 11.0006349,3.79961905 C11.0142222,3.79263492 11.031619,3.78069841 11.0521905,3.76342857 C11.0730159,3.74615873 11.088381,3.73574603 11.0987937,3.73244444 C11.1092063,3.72901587 11.1245714,3.72546032 11.1453968,3.72203175 C11.1659683,3.71860317 11.1865397,3.72380952 11.2072381,3.73752381 C11.2143492,3.73752381 11.2297143,3.72025397 11.2538413,3.68584127 C11.2777143,3.65142857 11.303873,3.61688889 11.3313016,3.58247619 C11.3588571,3.54806349 11.3828571,3.53079365 11.4036825,3.53079365 C11.424254,3.53079365 11.4433016,3.53930159 11.4604444,3.55657143 C11.4778413,3.57384127 11.4914286,3.5927619 11.5018413,3.61346032 C11.512127,3.63415873 11.5224127,3.65663492 11.5328254,3.68063492 C11.5432381,3.7047619 11.551619,3.72380952 11.5586032,3.73752381 C11.5723175,3.77193651 11.6052063,3.80825397 11.6567619,3.84609524 C11.7084444,3.88393651 11.7412063,3.92025397 11.7550476,3.95466667 C11.7620317,3.97536508 11.7754921,4.0271746 11.7963175,4.10996825 C11.8168889,4.1927619 11.8446984,4.24965079 11.8789841,4.28063492 C11.9135238,4.31174603 11.9652063,4.33752381 12.0341587,4.35822222 C12.048,4.36520635 12.0791111,4.36165079 12.1272381,4.34793651 C12.1754921,4.33409524 12.2152381,4.33066667 12.2462222,4.33752381 C12.2774603,4.34438095 12.2928254,4.37193651 12.2928254,4.42031746 C12.3342222,4.37892063 12.3547937,4.3512381 12.3547937,4.33752381 C12.3617778,4.4271746 12.384,4.49968254 12.4220952,4.55479365 C12.4600635,4.60990476 12.520381,4.63415873 12.6031746,4.6271746 L12.5824762,4.85485714 C12.5619048,4.88926984 12.5100952,4.91504762 12.4271746,4.93231746 C12.344381,4.9495873 12.2926984,4.96520635 12.271873,4.97892063 C12.2513016,4.98577778 12.2011429,5.0271746 12.1219048,5.10311111 C12.0425397,5.17904762 12.0099048,5.22387302 12.023619,5.2375873 C11.9065397,5.10653968 11.7305397,5.06857143 11.496127,5.12380952 C11.2340317,5.16520635 11.0546032,5.20660317 10.9582222,5.248 C10.847873,5.3032381 10.7719365,5.35492063 10.7305397,5.4031746 C10.7235556,5.41003175 10.711746,5.43428571 10.6943492,5.47555556 C10.6770794,5.51695238 10.6599365,5.55492063 10.6427937,5.58933333 C10.6253968,5.62374603 10.6100317,5.64101587 10.5963175,5.64101587 C10.6378413,5.63428571 10.6841905,5.60139683 10.736,5.54285714 C10.7876825,5.48419048 10.8205714,5.45155556 10.8341587,5.44457143 C11.0133333,5.32736508 11.1616508,5.28596825 11.279619,5.32126984 C11.4312381,5.36266667 11.4553651,5.41790476 11.351873,5.48685714 C11.3382857,5.50057143 11.3019683,5.50577778 11.2434286,5.50234921 C11.1848889,5.49892063 11.1451429,5.50057143 11.1243175,5.50755556 C11.1865397,5.52126984 11.2382222,5.54031746 11.279746,5.56431746 C11.3210159,5.58844444 11.3314286,5.62120635 11.3107302,5.66260317 C11.4209524,5.72469841 11.4417778,5.79365079 11.3728254,5.8695873 C11.2830476,5.95936508 11.176381,5.99720635 11.0520635,5.98336508 C11.0728889,5.98336508 11.0728889,5.99720635 11.0520635,6.0247619 L10.8760635,6.13853968 C10.8623492,6.14526984 10.8175238,6.16253968 10.7415873,6.19022222 C10.6656508,6.21765079 10.6139683,6.24888889 10.5862857,6.28330159 C10.5657143,6.31085714 10.5553016,6.35225397 10.5553016,6.40761905 C10.5553016,6.46285714 10.551873,6.50425397 10.5448889,6.53180952 C10.5381587,6.55949206 10.5104762,6.56622222 10.4623492,6.55250794 C10.4415238,6.59390476 10.3777778,6.62666667 10.2708571,6.65066667 C10.1639365,6.67479365 10.0933333,6.71098413 10.0587937,6.7592381 C10.1000635,6.81447619 10.0967619,6.8695873 10.048381,6.9248254 C9.9655873,6.99390476 9.89307937,6.98692063 9.83111111,6.90412698 C9.79669841,6.91796825 9.77079365,6.95238095 9.75352381,7.00761905 C9.73638095,7.06285714 9.71034921,7.1008254 9.67606349,7.12139683 C9.72444444,7.19733333 9.71733333,7.25257143 9.65549206,7.28698413 C9.66234921,7.28698413 9.67784127,7.29396825 9.70196825,7.30768254 C9.72596825,7.32139683 9.75187302,7.33866667 9.77955556,7.35936508 C9.80711111,7.38006349 9.82425397,7.39047619 9.83111111,7.39047619 C9.80368254,7.45244444 9.7655873,7.48342857 9.71733333,7.48342857 C9.75873016,7.59390476 9.7071746,7.71466667 9.56228571,7.8455873 C9.53447619,7.87314286 9.49142857,7.90069841 9.4327619,7.92838095 C9.37396825,7.95593651 9.32063492,7.97828571 9.27225397,7.99555556 C9.22387302,8.0128254 9.19644444,8.02488889 9.1895873,8.03174603 C9.12063492,8.09396825 9.0688254,8.15771429 9.0344127,8.2232381 C9,8.2887619 8.99479365,8.35250794 9.01879365,8.41460317 C9.04292063,8.4768254 9.10679365,8.51796825 9.2104127,8.53892063 L9.22044444,8.6215873 L9.22044444,8.80774603 L9.23085714,8.89053968 C9.23796825,8.93879365 9.2431746,8.98196825 9.24647619,9.02006349 C9.24977778,9.05803175 9.24977778,9.10615873 9.24647619,9.16495238 C9.2431746,9.22349206 9.22755556,9.25625397 9.2,9.26298413 C9.17257143,9.27009524 9.13460317,9.26298413 9.08622222,9.24228571 C9.03085714,9.21473016 8.96546032,9.06298413 8.88952381,8.7871746 C8.87568254,8.71822222 8.83415873,8.63555556 8.76520635,8.53892063 C8.73079365,8.57333333 8.70146032,8.59568254 8.67733333,8.60596825 C8.65346032,8.61638095 8.63606349,8.61828571 8.62590476,8.6111746 C8.61549206,8.60431746 8.59657143,8.58869841 8.56888889,8.56469841 C8.54133333,8.54069841 8.51733333,8.52152381 8.49650794,8.50793651 C8.46209524,8.4872381 8.40177778,8.46996825 8.31542857,8.45625397 C8.22933333,8.44253968 8.17561905,8.42514286 8.1551746,8.40457143 C7.98946032,8.52888889 7.88939683,8.49765079 7.85498413,8.31161905 C7.84126984,8.34603175 7.84292063,8.39263492 7.86019048,8.45130159 C7.87746032,8.50996825 7.88609524,8.54260317 7.88609524,8.54946032 C7.83784127,8.6392381 7.76203175,8.64609524 7.65853968,8.57003175 C7.61714286,8.52888889 7.52228571,8.52368254 7.37396825,8.55466667 C7.22565079,8.58565079 7.12736508,8.59085714 7.07911111,8.57003175 C7.08609524,8.57003175 7.09980952,8.58044444 7.12050794,8.60126984 C7.14120635,8.61485714 7.15504762,8.62514286 7.16190476,8.63212698 C7.15492063,8.65980952 7.14463492,8.68038095 7.13079365,8.69422222 C7.11695238,8.70780952 7.10311111,8.71301587 7.08939683,8.70971429 C7.07555556,8.70628571 7.06006349,8.70628571 7.04279365,8.70971429 C7.02552381,8.71301587 7.01003175,8.71822222 6.99619048,8.72520635 C6.96863492,8.74577778 6.93422222,8.78196825 6.8928254,8.83365079 C6.85142857,8.88533333 6.82044444,8.91809524 6.79974603,8.93180952 C6.84101587,9.04203175 6.86006349,9.12660317 6.85663492,9.18514286 C6.85307937,9.24393651 6.84279365,9.33015873 6.82552381,9.44380952 C6.80825397,9.5575873 6.79961905,9.64914286 6.79961905,9.71809524 C6.79961905,9.82831746 6.83238095,9.95619048 6.89790476,10.1009524 C6.96342857,10.2457143 7.04101587,10.3456508 7.13066667,10.4008889 C7.17904762,10.4285714 7.26184127,10.4457143 7.37904762,10.4524444 C7.49625397,10.4594286 7.57904762,10.4524444 7.62730159,10.431873 C7.66869841,10.4113016 7.69968254,10.3870476 7.72038095,10.359619 C7.74107937,10.3319365 7.75834921,10.2921905 7.77206349,10.2405079 C7.78590476,10.1889524 7.79631746,10.1527619 7.8031746,10.1320635 C7.85142857,10.0010159 7.94107937,9.93206349 8.072,9.92507937 C8.15504762,9.91809524 8.21511111,9.92698413 8.25320635,9.95085714 C8.2911746,9.97498413 8.30666667,10.007746 8.29968254,10.0491429 C8.29269841,10.0905397 8.27898413,10.1335873 8.2584127,10.1785397 C8.23771429,10.2234921 8.21180952,10.2732698 8.1808254,10.3286349 C8.14996825,10.384 8.13092063,10.4252698 8.12419048,10.4529524 C8.11034921,10.5081905 8.09815873,10.5856508 8.088,10.6858413 C8.0775873,10.7857778 8.0688254,10.8462222 8.06196825,10.8669206 C8.07580952,10.8737778 8.12749206,10.8772063 8.21714286,10.8772063 C8.21714286,10.8634921 8.22234921,10.8410159 8.2327619,10.8100317 C8.24292063,10.7789206 8.24812698,10.76 8.24812698,10.7531429 C8.28266667,10.808381 8.33790476,10.8392381 8.41384127,10.8462222 C8.48965079,10.8530794 8.54488889,10.8255238 8.57942857,10.7634286 C8.59326984,10.784127 8.63466667,10.8359365 8.70374603,10.9188571 C8.77269841,11.0013968 8.81066667,11.0703492 8.81752381,11.1257143 C8.82438095,11.1533968 8.83809524,11.1980952 8.85866667,11.2603175 C8.87949206,11.3224127 8.88647619,11.3655873 8.87949206,11.3898413 C8.87263492,11.4137143 8.83809524,11.4259048 8.77612698,11.4259048 C8.74857143,11.4259048 8.73130159,11.4363175 8.72444444,11.4568889 C8.71733333,11.4777143 8.71733333,11.5033651 8.72444444,11.5344762 C8.73142857,11.5654603 8.74006349,11.5947937 8.75022222,11.6223492 C8.76063492,11.6497778 8.77434921,11.6792381 8.79149206,11.7102222 C8.80901587,11.7410794 8.81752381,11.760127 8.81752381,11.7669841 C8.9415873,11.9945397 9.11060317,12.0566349 9.32444444,11.9532698 C9.32444444,12.1532698 9.27606349,12.2634921 9.17942857,12.2841905 C9.12469841,12.2979048 9.06273016,12.2631111 8.99377778,12.1805714 L8.99377778,12.1805714 Z M9.14831746,14.5178413 C9.13473016,14.4488889 9.12774603,14.3937778 9.12850794,14.3526349 C9.12139683,14.2972698 9.14565079,14.2231111 9.2007619,14.1301587 C9.25587302,14.0372063 9.28342857,13.9663492 9.28342857,13.9180952 C9.17307937,13.8905397 9.13168254,13.8007619 9.15911111,13.6491429 C9.17295238,13.5456508 9.27288889,13.407746 9.45904762,13.2353016 C9.59034921,13.1179683 9.63149206,12.952381 9.58336508,12.7386667 C9.56253968,12.6490159 9.54526984,12.5178413 9.53155556,12.3453968 C9.51796825,12.1729524 9.504,12.0521905 9.49015873,11.9832381 C9.49015873,12.0039365 9.52292063,12.0228571 9.58857143,12.040127 C9.65409524,12.0572698 9.69371429,12.079746 9.70755556,12.1071746 C9.72126984,12.0866032 9.7384127,12.0486349 9.7592381,11.9933968 C9.77980952,11.9381587 9.80063492,11.8968889 9.82107937,11.8692063 C9.83492063,11.8485079 9.86412698,11.8227302 9.90907937,11.791619 C9.95390476,11.7606349 9.9832381,11.7417143 9.99695238,11.7348571 C10.0105397,11.728 10.0416508,11.7056508 10.0899048,11.6676825 C10.1381587,11.6297143 10.1779048,11.6005079 10.2090159,11.5798095 C10.240254,11.5591111 10.2813968,11.543619 10.3332063,11.5333333 C10.3850159,11.5229206 10.4210794,11.5384127 10.4416508,11.5798095 C10.4761905,11.6212063 10.4694603,11.6849524 10.4210794,11.7713016 C10.3726984,11.8575238 10.3726984,11.9179683 10.4210794,11.9525079 C10.4280635,11.9316825 10.4347937,11.8867302 10.4416508,11.8177778 C10.4486349,11.7488254 10.4694603,11.6970159 10.503873,11.6624762 C10.5451429,11.6212063 10.5847619,11.5969524 10.6228571,11.5902222 C10.6606984,11.5831111 10.6951111,11.5883175 10.7260952,11.6057143 C10.7572063,11.6228571 10.7933968,11.6468571 10.8346667,11.6780952 C10.8760635,11.7089524 10.9140317,11.728 10.9484444,11.7348571 C11.0518095,11.7692698 11.176127,11.8452063 11.3210159,11.9624127 C11.3140317,11.9554286 11.3140317,11.9469206 11.3210159,11.9365079 C11.328,11.9262222 11.3415873,11.9159365 11.3624127,11.9055238 C11.3829841,11.8953651 11.4019048,11.8849524 11.4191746,11.8745397 C11.4363175,11.864127 11.4552381,11.855746 11.4759365,11.8487619 L11.5070476,11.8383492 C11.5551746,11.8383492 11.5897143,11.8350476 11.6102857,11.8279365 C11.6308571,11.8210794 11.6604444,11.8279365 11.6981587,11.8487619 C11.736,11.8693333 11.7620317,11.8848254 11.775619,11.8952381 C11.7894603,11.9055238 11.8135873,11.9244444 11.848,11.952127 C11.8824127,11.9796825 11.9067937,12.000381 11.920254,12.0140952 C11.9410794,12.0276825 11.9789206,12.0520635 12.0340317,12.0864762 C12.0893968,12.1208889 12.1324444,12.1484444 12.1635556,12.1691429 C12.1946667,12.1897143 12.2222222,12.2208254 12.2460952,12.2619683 C12.2702222,12.303619 12.2791111,12.3484444 12.272127,12.3966984 C12.3135238,12.4036825 12.3961905,12.4311111 12.520381,12.4793651 C12.5412063,12.4930794 12.584127,12.5052698 12.6497778,12.5154286 C12.7154286,12.5258413 12.7584762,12.5414603 12.7791746,12.5620317 C11.7798095,13.6177778 10.5691429,14.2695873 9.14831746,14.5178413 L9.14831746,14.5178413 Z" id="Shape"></path>
                </g>
            </g>
        </g>
    </g>
</svg>