<?xml version="1.0" encoding="utf-8"?>
<!-- Generator: Adobe Illustrator 28.0.0, SVG Export Plug-In . SVG Version: 6.00 Build 0)  -->
<svg version="1.1" id="Layer_1" xmlns="http://www.w3.org/2000/svg" xmlns:xlink="http://www.w3.org/1999/xlink" x="0px" y="0px"
	 viewBox="0 0 932.4 769.4" style="enable-background:new 0 0 932.4 769.4;" xml:space="preserve">
<style type="text/css">
	.st0{fill:#4AC1E0;}
	.st1{fill:#E4E5E6;}
	.st2{fill:#81CFE7;}
	.st3{fill:#7B868C;}
	.st4{fill:#FFFFFF;}
	.st5{fill:#152128;}
</style>
<path id="Fill-1" class="st0" d="M276.5,139.8c154.1-3.2,197-28.9,288-77c90.9-48.1,298.1-141.1,351.1,73.8S860,409.3,885.3,531.2
	s-27.8,269.4-212.2,231c-184.4-38.5-245-44.9-323.3-22.4C271.5,762.2,82.1,749.4,24,534.5S39.2,255.4,56.8,233
	C56.8,232.8,122.4,143,276.5,139.8z"/>
<path class="st1" d="M612.5,272.3l-19,26.7l-90.2,126.8l-5.4,7.6l19.3-4.7l84-118.1l18.7-26.2l18.7-26.3l-19.3,4.7L612.5,272.3z
	 M507.3,478.4L300.6,667.3L228,733.6l-17.4,32.8l102.8-93.9l203.1-185.6l69.3-63.3l-25.2,6.1L507.3,478.4z M341.8,369.2l7.7-15.5
	l-27.3,6.6l-31.4,7.6l-8.3,15.6l52.1-12.7L341.8,369.2z M716,53.4l-10.1,13.8l-14,19l-129.4,176l5.3-1.3l6.5-1.6l9.2-2.2
	l114.4-155.6l13.8-18.7L737,48.3L716,53.4z M327.9,514.4l-15.6,3.8l-31.7,7.7l-6.2,12.4l46.9-11.4L327.9,514.4z"/>
<polygon class="st2" points="480.1,118.4 454.1,124.7 343.6,316.9 434.6,295.1 337.6,467.5 413.8,453.8 284.1,649.2 323,613.6 
	351.9,587.2 451.3,478.2 426.1,481.5 539.7,305.3 470.3,320.5 653.7,76.2 633.4,81.1 "/>
<polygon class="st3" points="539.7,305.3 426.1,481.5 451.3,478.2 351.9,587.2 490.8,460.3 439.9,472.7 573.5,284.8 502.9,302 
	670.5,74 672.2,71.7 653.7,76.2 470.3,320.5 "/>
<polygon class="st4" points="343.6,316.9 454.1,124.7 425.1,131.8 325.7,319.1 316.5,336.5 395.1,317.4 306.5,494.4 311.6,493.1 
	375.1,477.7 284.1,649.2 413.8,453.8 337.6,467.5 434.6,295.1 "/>
<path class="st5" d="M666.4,47.9l-247,60.1l-10.7,2.6l-5.2,9.7L294.8,325l-25.6,48.2l21.6-5.3l31.4-7.6l27.3-6.6l-7.7,15.5
	l-57.2,114.2L261,530.7l19.7-4.8l31.7-7.7l15.6-3.8l-6.6,12.5l-58.9,110.9L196,762.9l32-29.2l72.6-66.4l206.7-188.9l53.3-48.7
	l17.2-15.7l-60.7,14.8l-19.3,4.7l5.4-7.6L593.5,299l19-26.7l6.8-9.6l12.3-17.3l-48.2,11.7l-9.2,2.2l-6.5,1.6l-5.3,1.3l129.4-176
	l14-19L716,53.4L731.8,32L666.4,47.9z M395.1,317.4l-78.6,19.1l9.3-17.4l99.4-187.3l28.9-7l26-6.3l153.2-37.3l20.4-5l18.4-4.5
	l-1.7,2.3L502.9,302l70.7-17.2L439.9,472.7l50.9-12.4L351.9,587.2L323,613.6l-38.9,35.6l91-171.5l-63.5,15.4l-5.1,1.2L395.1,317.4z"
	/>
</svg>
