<?xml version="1.0" encoding="UTF-8"?>
<svg width="16px" height="16px" viewBox="0 0 16 16" version="1.1" xmlns="http://www.w3.org/2000/svg" xmlns:xlink="http://www.w3.org/1999/xlink">
    <!-- Generator: Sketch 47.1 (45422) - http://www.bohemiancoding.com/sketch -->
    <title>github10</title>
    <desc>Created with Sketch.</desc>
    <defs></defs>
    <g id="Home" stroke="none" stroke-width="1" fill="none" fill-rule="evenodd">
        <g id="Mobile" transform="translate(-154.000000, -3247.000000)" fill="#FDB81C">
            <g id="Group" transform="translate(131.000000, 3246.000000)">
                <g id="github10" transform="translate(23.000000, 1.000000)">
                    <path d="M14.879746,4.11038573 C14.1692698,2.86231919 13.2054603,1.87422854 11.9881905,1.14585342 C10.7706667,0.417478303 9.44152381,0.0533558341 7.99987302,0.0533558341 C6.55834921,0.0533558341 5.2288254,0.417608486 4.01155556,1.14585342 C2.79415873,1.87422854 1.83034921,2.86231919 1.11987302,4.11038573 C0.409396825,5.35845227 0.0542222222,6.72134041 0.0542222222,8.19905014 C0.0542222222,9.97396818 0.559365079,11.5701446 1.56990476,12.9878399 C2.58031746,14.4055352 3.8855873,15.3865959 5.48571429,15.9310222 C5.672,15.966432 5.80990476,15.941567 5.89955556,15.8569479 C5.98920635,15.7720685 6.03403175,15.6659691 6.03403175,15.5387801 C6.03403175,15.5175603 6.03225397,15.3267117 6.0288254,14.9661041 C6.02526984,14.6053664 6.02361905,14.2907136 6.02361905,14.0222758 L5.78565079,14.0644552 C5.63390476,14.0929653 5.44253968,14.1050723 5.21142857,14.1015574 C4.98044444,14.0983028 4.74069841,14.0734378 4.49244444,14.0273529 C4.24406349,13.9815284 4.01307937,13.8755593 3.7992381,13.7094455 C3.58552381,13.5432015 3.43377778,13.3256654 3.34412698,13.0570974 L3.24063492,12.8130039 C3.17168254,12.6505352 3.06311111,12.4701013 2.91479365,12.2722228 C2.76647619,12.0742141 2.61650794,11.939865 2.4647619,11.8691755 L2.39238095,11.8161909 C2.34412698,11.7807811 2.29930159,11.7382112 2.25790476,11.6887416 C2.21650794,11.6392719 2.18552381,11.5898023 2.1648254,11.5402025 C2.14412698,11.4907329 2.16126984,11.4499855 2.21650794,11.4180906 C2.27174603,11.3861958 2.37168254,11.3705738 2.51657143,11.3705738 L2.72342857,11.4023385 C2.86133333,11.4305882 3.032,11.5153375 3.23555556,11.6568467 C3.43898413,11.7982257 3.60622222,11.9820444 3.73726984,12.2081726 C3.896,12.4982208 4.0872381,12.7191418 4.31149206,12.8711958 C4.53561905,13.0232498 4.76152381,13.0991466 4.98907937,13.0991466 C5.21663492,13.0991466 5.41320635,13.0814417 5.57879365,13.046162 C5.74425397,13.0108824 5.89942857,12.9577676 6.04431746,12.8870781 C6.1064127,12.4132112 6.27542857,12.0490887 6.5512381,11.7945805 C6.15809524,11.7521408 5.80469841,11.688351 5.49079365,11.6036017 C5.17701587,11.5187223 4.8528254,11.3808582 4.51834921,11.1897493 C4.18374603,10.9989007 3.90615873,10.7619672 3.68546032,10.4792093 C3.4647619,10.1963211 3.28368254,9.82503857 3.14234921,9.3654918 C3.00101587,8.90581485 2.93028571,8.37557859 2.93028571,7.77452266 C2.93028571,6.91882835 3.20279365,6.19058341 3.74768254,5.58952748 C3.49244444,4.94616201 3.51657143,4.22494696 3.82006349,3.42588235 C4.02006349,3.36222276 4.31669841,3.41 4.70984127,3.5690839 C5.10298413,3.72816779 5.39085714,3.86446962 5.57371429,3.97746866 C5.75657143,4.0904677 5.90311111,4.18615236 6.01346032,4.26387175 C6.65498413,4.08005304 7.31707937,3.98814368 7.99987302,3.98814368 C8.68266667,3.98814368 9.34488889,4.08005304 9.98653968,4.26387175 L10.3796825,4.00936355 C10.6485079,3.83960463 10.9659683,3.68403568 11.3313016,3.5426567 C11.6968889,3.40127772 11.976381,3.36235294 12.1695238,3.42601254 C12.479873,4.22507715 12.5074286,4.94629219 12.2521905,5.58965767 C12.7970794,6.1907136 13.0695873,6.91908872 13.0695873,7.77465284 C13.0695873,8.37570878 12.9987302,8.90763742 12.8575238,9.37082932 C12.7160635,9.8341514 12.5334603,10.2051736 12.3093333,10.4845468 C12.0850794,10.76392 11.8057143,10.9990309 11.4712381,11.1898795 C11.1366349,11.3808582 10.8124444,11.5187223 10.4986667,11.6036017 C10.1847619,11.6884812 9.83136508,11.752271 9.43822222,11.7947107 C9.7968254,12.1128785 9.97612698,12.614865 9.97612698,13.3008004 L9.97612698,15.5385198 C9.97612698,15.6657088 10.0193016,15.7718081 10.1055238,15.8565574 C10.191746,15.9413067 10.327873,15.9661716 10.5141587,15.9307618 C12.1144127,15.3863356 13.4196825,14.4052748 14.4300952,12.9874494 C15.4405079,11.5698843 15.9457778,9.97370781 15.9457778,8.19865959 C15.9453968,6.72121022 15.5899683,5.35845227 14.879746,4.11038573 L14.879746,4.11038573 Z" id="Shape"></path>
                </g>
            </g>
        </g>
    </g>
</svg>