<?xml version="1.0" encoding="UTF-8"?>
<svg width="24px" height="24px" viewBox="0 0 24 24" version="1.1" xmlns="http://www.w3.org/2000/svg" xmlns:xlink="http://www.w3.org/1999/xlink">
    <!-- Generator: Sketch 47.1 (45422) - http://www.bohemiancoding.com/sketch -->
    <title>Fill 28</title>
    <desc>Created with Sketch.</desc>
    <defs></defs>
    <g id="Home" stroke="none" stroke-width="1" fill="none" fill-rule="evenodd">
        <g id="Mobile" transform="translate(-216.000000, -5872.000000)" fill="#FDB81C">
            <g id="Mobile-Footer" transform="translate(-45.000000, 4279.000000)">
                <g id="Group-9" transform="translate(125.000000, 1593.000000)">
                    <path d="M154.824579,14.054687 L153.269826,14.575188 L153.808327,16.1846908 C154.026577,16.835692 153.675577,17.5406932 153.023826,17.7589436 C152.882075,17.8069437 152.738075,17.8271937 152.597075,17.8234437 C152.088574,17.8099437 151.619823,17.4844431 151.449573,16.9744422 L150.910322,15.3656894 L147.704066,16.4396913 L148.242567,18.0484441 C148.460817,18.7001953 148.109817,19.4051966 147.458066,19.623447 C147.316315,19.670697 147.172315,19.6909471 147.031315,19.6871971 C146.522814,19.674447 146.054063,19.3481965 145.883813,18.8389456 L145.344562,17.2294427 L143.789809,17.7506936 C143.648059,17.7979437 143.503309,17.8181937 143.362308,17.8144437 C142.854557,17.8016937 142.385807,17.4754431 142.214806,16.9654422 C141.996556,16.3144411 142.347557,15.6094398 142.999308,15.3911894 L144.55481,14.8699385 L143.520559,11.783683 L141.965806,12.3049339 C141.824056,12.352184 141.680055,12.372434 141.538305,12.368684 C141.030554,12.355934 140.561803,12.0296834 140.390803,11.5196825 C140.172553,10.8686813 140.524303,10.1636801 141.175304,9.9454297 L142.730807,9.42417877 L142.191556,7.8154259 C141.973306,7.16367474 142.324307,6.45867348 142.976058,6.24117309 C143.627809,6.0229227 144.33281,6.37392333 144.55106,7.02567449 L145.089561,8.63442736 L148.296567,7.56042545 L147.757316,5.95167258 C147.539066,5.29992142 147.890816,4.59492016 148.541818,4.37666977 C149.193569,4.15841938 149.89857,4.51017001 150.11682,5.16117117 L150.655321,6.77067404 L152.210824,6.24942311 C152.862575,6.03117272 153.566827,6.38292335 153.785077,7.03392451 C154.003327,7.68567567 153.652327,8.39067693 153.000576,8.60892731 L151.445823,9.12942824 L152.479325,12.2164337 L154.034827,11.6951828 C154.685829,11.4776824 155.39083,11.8286831 155.60908,12.4796842 C155.827331,13.1314354 155.47633,13.8364366 154.824579,14.054687 M158.995336,8.70117748 C156.521832,0.454162777 152.948075,-1.46959065 144.701061,1.00466376 C136.454796,3.47816817 134.530293,7.05192454 137.004547,15.2989392 C139.478801,23.5452039 143.052558,25.4697074 151.298823,22.995453 C159.545837,20.5211986 161.469591,16.9474422 158.995336,8.70117748" id="Fill-28"></path>
                </g>
            </g>
        </g>
    </g>
</svg>