<?xml version="1.0" encoding="utf-8"?>
<!-- Generator: Adobe Illustrator 22.1.0, SVG Export Plug-In . SVG Version: 6.00 Build 0)  -->
<svg version="1.1" id="Layer_1" xmlns="http://www.w3.org/2000/svg" xmlns:xlink="http://www.w3.org/1999/xlink" x="0px" y="0px"
	 viewBox="0 0 243 138" style="enable-background:new 0 0 243 138;" xml:space="preserve">
<style type="text/css">
	.st0{fill:#4AC0E0;}
	.st1{fill:#45555F;}
	.st2{fill:#78E6F9;}
	.st3{fill:#FFFFFF;}
	.st4{fill:#2A6C77;}
	.st5{fill:#B0B7BB;}
	.st6{fill:#1D918B;}
</style>
<title>Boat  Icon Copy</title>
<desc>Created with Sketch.</desc>
<g id="Home">
	<g id="Mobile" transform="translate(-39.000000, -1614.000000)">
		<g id="Group-8" transform="translate(39.000000, 1614.000000)">
			<g id="Boat--Icon-Copy">
				<g id="Group-3" transform="translate(23.516129, 0.128508)">
					<g>
						<g>
							<path id="Fill-1_9_" class="st0" d="M49.3,25.1c27.6-0.6,35.3-5.2,51.6-13.8s53.4-25.3,62.9,13.2s-9.9,48.8-5.4,70.6
								s-5,48.2-38,41.4c-33-6.9-43.9-8-57.9-4s-47.9,1.7-58.3-36.8s2.7-50,5.9-54C10,41.8,21.7,25.7,49.3,25.1z"/>
						</g>
					</g>
				</g>
				<g id="Clip-5">
				</g>
				<path id="Fill-6" class="st1" d="M50.3,74.9v-4.5L38.8,70v4.7L50.3,74.9z M65.2,75.2v-4.4L54,70.5V75L65.2,75.2z M79.9,75.5
					v-4.2L68.8,71v4.3L79.9,75.5z M95.6,75.9v-4.1l-12-0.4v4.2L95.6,75.9z M106.8,76.1v-3.9L99.3,72v4L106.8,76.1z M120.5,76.4v-3.8
					l-10.1-0.3v3.9L120.5,76.4z M136,76.7v-3.6l-11.8-0.4v3.8L136,76.7z M148.3,77v-3.5l-8.7-0.3v3.6L148.3,77z M155.9,77.1v-5.2
					l-3.9,1.2V77L155.9,77.1z M196.7,119.1c-11.9,0-24.8-0.9-26.5-1.1c-0.6-0.1-11.3-1-26.2-2.2c-21.8-1.8-54.8-4.6-81.9-7
					c-49-4.3-49.4-4.8-49.9-5.3c-1.4-1.4-6.6-5.3-6.7-5.4L3,96.2l2.3,0.2l1.5-5.8L14.7,80l0.4-0.1l0.2-0.3h0.8l19.1-4.8v-7.4
					L55,62.8l93.5,2.8l11,2.2v0.1h0.1v9.3l44.6,0.9l13.9,2.8l4.3,14c5.7,0.1,17.7,0.7,19.3,4.9l0.1,0.1v0.1c0,0.3-0.1,1.3-1.5,2.5
					c-1.2,2-4,4.5-8.3,7.5c-3.7,3.1-8.6,5.4-15.8,7.3C212.5,118.6,205.9,119.1,196.7,119.1L196.7,119.1z"/>
				<path id="Fill-7" class="st0" d="M140.5,75.9v-1.8l6.9,0.2V76L140.5,75.9z M125.1,75.6v-1.9l10,0.3v1.8L125.1,75.6z M111.3,75.3
					v-2.1l8.3,0.3v2L111.3,75.3z M152.9,73.8l2.2-0.7v3h-2.2V73.8z M100.1,75.1v-2.2l5.7,0.2v2.1L100.1,75.1z M84.5,74.7v-2.4
					l10.2,0.3v2.2L84.5,74.7z M69.7,74.4v-2.5l9.3,0.3v2.4L69.7,74.4z M54.9,74.1v-2.7l9.4,0.3v2.6L54.9,74.1z M39.7,73.8V71
					l9.8,0.3V74L39.7,73.8z M54.9,61.9L54.6,62l-19,4.4l-1.4,0.3v1.5v6L16,78.7h-0.2h-0.9l-0.3,0.4l-0.4,0.1l-0.4,0.5L6.2,89.9
					L6,90.2l-0.1,0.4l-1.2,4.6l-0.1,0.2L0,95l4.7,3.5L5,98.8L5.3,99c1.6,1.2,5.3,4.1,6.3,5.1c0.6,0.6,0.8,0.8,15.8,2.3
					c8.1,0.8,19.8,1.9,34.6,3.2c27.1,2.4,60.1,5.2,81.9,7c14.2,1.2,25.4,2.1,26.1,2.2c1.7,0.2,14.7,1.1,26.6,1.1
					c9.3,0,15.9-0.5,19.7-1.6c7.3-2,12.3-4.3,16.1-7.5c4.4-3.1,7.2-5.6,8.5-7.6c1.6-1.4,1.8-2.7,1.7-3.2v-0.3l-0.1-0.3
					c-1-2.4-4.3-4-10.4-4.8c-3.4-0.5-7-0.6-9.1-0.7L219,81l-0.3-1l-1-0.2l-13.3-2.7h-0.2H204l-43.6-0.9v-7.5V67H160l-1.1-0.2
					l-10.2-2.1h-0.1h-0.1l-93.3-2.8L54.9,61.9z M222.7,96.9c-0.2-0.2-0.5-0.4-0.8-0.6v0.1C221.9,96.4,222.2,96.6,222.7,96.9
					L222.7,96.9z M149.2,77.9v-5.3l-10.5-0.3v5.4L149.2,77.9L149.2,77.9z M136.9,77.6v-5.4l-13.6-0.4v5.6L136.9,77.6L136.9,77.6z
					 M121.4,77.3v-5.6l-11.9-0.4V77L121.4,77.3L121.4,77.3z M107.7,77v-5.8L98.4,71v5.9L107.7,77L107.7,77z M156.8,78.1v-7.4
					l-5.7,1.7v5.5L156.8,78.1L156.8,78.1z M96.5,76.8v-5.9l-13.8-0.4v6L96.5,76.8L96.5,76.8z M80.8,76.5v-6L68,70v6.2L80.8,76.5
					L80.8,76.5z M66.1,76.2V70l-13-0.4v6.3L66.1,76.2L66.1,76.2z M51.2,75.9v-6.4l-13.3-0.4v6.5L51.2,75.9L51.2,75.9z M55,63.7
					l93.3,2.8l10.2,2.1v0.3h0.1v9.2L204,79l13.3,2.7l4.4,14.1c3.2,0,17.6,0.3,19.2,4.4c0,0,0,0.8-1.3,1.8c-0.9,1.5-3,3.8-8.2,7.4
					c-3.2,2.7-7.6,5-15.4,7.2c-4.1,1.1-11.6,1.5-19.2,1.5c-12.1,0-24.9-0.9-26.4-1.1c-2.5-0.4-156.1-12.8-157.5-14.2
					c-1.4-1.5-6.8-5.5-6.8-5.5s0.5,0,1.3,0.1l-0.7-0.1L7,95.6H6.5L7.6,91l7.6-10.2l0.4-0.1l0.1-0.2h0.4l19.7-5h0.1v-7.4L55,63.7
					L55,63.7z"/>
				<path id="Fill-8" class="st2" d="M6.7,97.3l1-6.3l7.6-10.5l191.9,4.1l10.2-2.9l4.5,14.6c0,0,6.9,4.4,1.4,6.8s10-2.2,10-2.2
					l6.4-1.2c0,0,3.3,1.9-9.7,10.7c0,0-15.4,3.2-16.2,3.4c-0.7,0.2-40.4,0.7-40.4,0.7s-139-11.9-141.6-11.7s-3.1-2.4-3.1-2.4
					L6.7,97.3z"/>
				<polygon id="Fill-9" class="st3" points="112.8,106.1 119,106.1 119,82.4 112.8,82.4 				"/>
				<path id="Fill-10" class="st1" d="M113.5,105.4h4.8V83.1l-4.8-0.3V105.4z M112.1,106.8h7.7V81.6h-7.7V106.8z"/>
				<polygon id="Fill-11" class="st3" points="208.7,86.9 215.8,84.9 218.6,97.3 210.1,101 				"/>
				<path id="Fill-12" class="st1" d="M209.4,87.5l1.3,12.5l7.1-3l-2.5-11.1L209.4,87.5z M209.5,102l-1.6-15.6l8.4-2.4l3.2,13.8
					L209.5,102z"/>
				<polygon id="Fill-13" class="st3" points="207.4,101.7 187.2,101.7 187.2,87.6 206,87.6 				"/>
				<path id="Fill-14" class="st1" d="M187.9,101h18.7l-1.3-12.7h-17.4V101z M208.2,102.4h-21.7V86.9h20.1L208.2,102.4z"/>
				<polygon id="Fill-15" class="st3" points="183.9,101.7 160.1,101.7 160.1,86.9 183.9,87.6 				"/>
				<path id="Fill-16" class="st1" d="M160.8,101h22.3V88.3l-22.3-0.7V101z M184.6,102.4h-25.2V86.1l25.2,0.8V102.4z"/>
				<polygon id="Fill-17" class="st3" points="142.6,101.7 123.4,100.6 123.4,86.5 142.6,86.9 				"/>
				<path id="Fill-18" class="st1" d="M124.1,99.9l17.7,1V87.6l-17.7-0.3C124.1,87.3,124.1,99.9,124.1,99.9z M143.3,102.5l-20.5-1.2
					V85.7l20.5,0.4V102.5z"/>
				<path id="Fill-19" class="st4" d="M145.9,102.4c0,0,63.2,4,71.4,2s7.8-6.6,3.7-8.6c0,0,18-0.2,19.8,4.4c0,0,0.7,12.9-92.6,4.1
					L145.9,102.4z"/>
				<polygon id="Fill-20" class="st3" points="83.2,85.2 83.2,98.2 100.2,99.1 100.9,86 				"/>
				<path id="Fill-21" class="st1" d="M84,97.5l15.6,0.9l0.6-11.7L84,85.9V97.5z M100.9,99.9l-18.4-1V84.4l19.1,0.9L100.9,99.9z"/>
				<polygon id="Fill-22" class="st3" points="64.1,84.3 64.1,97.1 79.6,98.1 79.6,85.1 				"/>
				<path id="Fill-23" class="st1" d="M64.8,96.5l14,0.9V85.8l-14-0.7V96.5z M80.3,98.9l-16.9-1V83.6l16.9,0.8V98.9z"/>
				<polygon id="Fill-24" class="st3" points="43.7,83.5 34.5,83 32.9,95.4 43.7,96.1 				"/>
				<path id="Fill-25" class="st1" d="M33.7,94.7l9.3,0.6V84.2l-7.9-0.4L33.7,94.7z M44.5,96.8L32.1,96l1.8-13.8l10.6,0.5V96.8z"/>
				<polygon id="Fill-26" class="st3" points="47.1,83.6 47.1,96.2 60.8,97 60.8,84.2 				"/>
				<path id="Fill-27" class="st1" d="M47.8,95.5l12.3,0.8V84.9l-12.3-0.6V95.5z M61.5,97.8l-15.1-0.9V82.8l15.1,0.7V97.8z"/>
				<polygon id="Fill-28" class="st3" points="105,106.1 111.2,106.1 111.2,82.4 105,82.4 				"/>
				<path id="Fill-29" class="st1" d="M105.7,105.4h4.8V82.9h-4.8V105.4z M104.3,106.8h7.7V81.6h-7.7V106.8z"/>
				<polygon id="Fill-30" class="st5" points="217.4,81.7 206.2,85.2 15.2,80.8 35.9,75.5 204.1,79 				"/>
				<polygon id="Fill-31" class="st5" points="51.2,79.3 53.1,79.3 53.1,68.1 51.2,68.1 				"/>
				<polygon id="Fill-32" class="st5" points="66.1,79.3 68,79.3 68,68.1 66.1,68.1 				"/>
				<polygon id="Fill-33" class="st5" points="80.8,79.3 82.7,79.3 82.7,68.1 80.8,68.1 				"/>
				<polygon id="Fill-34" class="st5" points="96.5,79.3 98.4,79.3 98.4,68.1 96.5,68.1 				"/>
				<polygon id="Fill-35" class="st5" points="107.7,79.3 109.5,79.3 109.5,68.1 107.7,68.1 				"/>
				<polygon id="Fill-36" class="st5" points="121.4,79.3 123.3,79.3 123.3,68.1 121.4,68.1 				"/>
				<polygon id="Fill-37" class="st5" points="136.9,79.3 138.7,79.3 138.7,68.1 136.9,68.1 				"/>
				<polygon id="Fill-38" class="st5" points="156.8,79.3 158.7,79.3 158.7,68.8 156.8,68.8 				"/>
				<polygon id="Fill-39" class="st5" points="149.2,79.3 151.1,79.3 151.1,68.8 149.2,68.8 				"/>
				<path id="Fill-40" class="st6" d="M158.9,70l-0.4-1.6"/>
				<polygon id="Fill-41" class="st5" points="158.6,68.6 148.4,66.5 55,63.7 36,68.1 36.1,69.2 37.2,69.1 150.5,72.6 158.6,70.2 
									"/>
				<path id="Fill-42" class="st4" d="M234.5,106.5c0,0-15.7,5.1-51,3.7S6.1,97.3,6.1,97.3s5.3,4,6.8,5.5
					c1.4,1.5,155,13.9,157.5,14.2c2.5,0.4,34.9,2.6,45.6-0.4C226.6,113.8,230.9,110.5,234.5,106.5"/>
				<polygon id="Fill-43" class="st3" points="6.4,94.9 7.6,90.3 15.2,82.3 30.1,82.3 27,96.4 				"/>
				<path id="Fill-44" class="st1" d="M7.3,94.3l19.2,1.4L29.3,83H15.5l-7.3,7.6L7.3,94.3z M27.6,97.2L5.5,95.6L6.9,90l7.9-8.4H31
					L27.6,97.2z"/>
			</g>
		</g>
	</g>
</g>
<rect x="169.9" y="-97.3" class="st1" width="89.5" height="49.3"/>
<rect x="-68.7" y="-103.3" class="st5" width="67" height="55.3"/>
<rect x="-4" y="-96.2" class="st2" width="47.7" height="38.7"/>
<rect x="115.9" y="-92.8" class="st4" width="51.6" height="35.3"/>
<rect x="44.3" y="-119.8" class="st0" width="72" height="72"/>
</svg>
