<?xml version="1.0" encoding="utf-8"?>
<!-- Generator: Adobe Illustrator 22.1.0, SVG Export Plug-In . SVG Version: 6.00 Build 0)  -->
<svg version="1.1" id="Layer_1" xmlns="http://www.w3.org/2000/svg" xmlns:xlink="http://www.w3.org/1999/xlink" x="0px" y="0px"
	 viewBox="0 0 167 149" style="enable-background:new 0 0 167 149;" xml:space="preserve">
<style type="text/css">
	.st0{fill:#4AC0E0;}
	.st1{fill:#45555F;}
	.st2{fill:#78E6F9;}
	.st3{fill:#2A6C77;}
	.st4{fill:#B0B7BB;}
</style>
<title>Group 13</title>
<desc>Created with Sketch.</desc>
<g id="Home">
	<g id="Group-14" transform="translate(-27.000000, 0.000000)">
		<g id="Group-13" transform="translate(27.000000, 0.000000)">
			<g id="Group-3">
				<g>
					<g>
						<path id="Fill-1_9_" class="st0" d="M10,41.8c0,0,11.8-16.1,39.3-16.7c27.6-0.6,35.3-5.2,51.6-13.8s53.4-25.3,62.9,13.2
							s-9.9,48.8-5.4,70.6s-5,48.2-38,41.4c-33-6.9-43.9-8-57.9-4s-47.9,1.7-58.3-36.8C-6.3,57.3,6.8,45.8,10,41.8"/>
					</g>
				</g>
			</g>
			<g id="icon" transform="translate(45.000000, 27.000000)">
				<path id="Shape" class="st1" d="M7.2,93.1c-2-0.5-3.6-0.9-5.1-1.3c-1.5-0.3-2.1-1.1-2-2.7C0,81,0,72.8,0,64.6
					c0-1.2,0.1-2.2,1.6-2.4c0.3,0,0.7-0.3,0.7-0.5c0.9-3.1,3.4-4.6,6.5-6.4c-3.9,0-3.8-2.2-3.8-4.6c0.1-7.4,0-14.8,0-22.2
					c0-1.4-0.2-3,1.8-3.2c0.2,0,0.4-0.3,0.5-0.5c1.8-4.9,6.2-6.2,10.5-7.5c0.8-0.3,1.6-0.4,1.6-1.6c0-1.3,1-1.6,2.1-1.7
					c4.5-0.3,8.9-0.5,13.4-0.9c0.8-0.1,2,0.5,2.2-0.7c0.1-1.2,0.8-2.8-0.6-3.7c-1.9-1.4-2.8-3.2-1.9-5.5c0.9-2.4,3-3,5.3-3
					c7,0,14,0,21,0c2.3,0,4.3,0.5,5.2,2.8c0.9,2.3,0.2,4.3-1.9,5.8c-1.4,0.9-0.7,2.5-0.5,3.7c0.3,1,1.6,0.5,2.3,0.5
					c4.5,0.3,8.9,0.6,13.4,0.9c1.2,0.1,2.2,0.4,2.1,1.9C81.4,17,82.3,17,83,17.2c2.4,0.7,4.8,1.5,6.9,3c1.3,0.9,2.4,1.8,3,3.2
					c0.5,1,0.8,2,2.1,2.2c0.8,0.2,0.9,1.2,0.9,2c0,8.3,0,16.6,0,24.8c0,2.4-1.8,2.5-3.7,3.1c2.9,1.6,4.5,4.3,6.6,6.2
					s1.9,3.4,1.9,5.3c0.1,7.1-0.1,14.2,0.1,21.3c0.1,2.4-0.8,3.5-3,3.9c-1.3,0.2-2.6,0.6-3.9,0.9c3.5,5.2,2.4,10.8,1.7,16.1
					c-0.4,3.3-3.7,5.4-7.3,5.6c-1.3,0.1-2.7,0-4,0c-2.1,0-4-0.2-5.4,2.3c-1.7,2.9-6.2,2.3-7.8-0.7c-0.7-1.3-1.4-1.6-2.7-1.6
					c-12.1,0-24.2,0-36.3,0c-1.3,0-2,0.3-2.7,1.6c-1.9,3.5-6.6,3.4-8.6-0.1c-0.6-1.1-1.2-1.5-2.3-1.4c-1.9,0.1-3.8,0.1-5.7,0
					c-5-0.1-8.3-3.4-8.4-8.3c0-1.9,0.1-3.8,0-5.7C4.6,98,5.1,95.4,7.2,93.1z"/>
				<path id="Shape_1_" class="st2" d="M50.1,16c8.7,0,17.3,0.3,25.9,0.9c1.5,0.1,2,0.6,1.9,2c-0.1,12.7-0.1,25.3,0,38
					c0,1.4-0.4,1.9-1.8,2.1c-10.7,1.4-21.4,2.3-32.2,1.8c-6.4-0.3-12.9-0.9-19.3-1.7C22.8,59,22,58.5,22,56.3
					c0.1-12.4,0.1-24.7,0-37.1c0-1.6,0.3-2.2,2.1-2.3C32.8,16.3,41.4,16,50.1,16z"/>
				<path id="Shape_2_" class="st2" d="M19.9,59c-0.3,3.4,1.7,3.4,3.4,3.7c3.9,0.6,3.9,0.6,3.9,4.6c0,5.2,0,10.4,0,15.6
					c0,7.8,3.6,13.2,10.9,15.7c8.1,2.8,16.4,2.8,24.5,0c7.2-2.5,10.8-7.9,10.8-15.7c0-5.7,0.1-11.5-0.1-17.2c-0.1-2,0.6-2.6,2.4-2.7
					c0.8,0,1.7-0.2,2.5-0.3c1.8-0.2,2.9-0.9,2.4-3.6c2.1,2.3,3.2,4.6,3.6,7.1c0.9,6.3,1,12.7-0.2,19c-0.4,2.3-1.4,4.3-2.8,6.2
					C80,93,79.3,94.9,76.5,93c-2.8-1.9-6.5,0.7-6.5,4.2c0.1,2.3-0.9,3.1-2.8,3.7c-11.5,3-23,3-34.5-0.2c-1.7-0.5-2.5-1.2-2.5-3.2
					c0-4.2-3.9-6.4-7.5-4.1c-1,0.7-1.5,0.6-2.2-0.3c-2.8-3.4-4.5-7.2-4.6-11.6c-0.2-4.2-0.1-8.5,0-12.8C16.2,65.3,17.4,62.3,19.9,59
					z"/>
				<path id="Shape_3_" class="st3" d="M69.3,63c2,5.6-0.4,11.9-5.5,14.9c-4.6,2.7-9.6,3.1-14.7,3c-3.6,0-7.2-0.3-10.6-1.5
					c-7.2-2.5-10.5-8.1-9.2-15.6c0.1-0.4,0-0.9,0.5-0.8c0.6,0,0.5,0.5,0.5,0.9c0,0.5-0.1,1.3,0.6,1.3c0.8,0,0.6-0.7,0.7-1.3
					c0.2-1.2,1.1-0.6,1.6-0.6c8.1,0.7,16.2,0.9,24.3,0.5c2.6-0.1,5.1-0.4,7.7-0.5c0.8,0,1.5-0.3,2.3,0.8
					C68.8,65.6,68.3,62.8,69.3,63z"/>
				<path id="Shape_4_" class="st3" d="M29,79.1c1.5,0.5,1.5,1.4,1.3,2.4c-0.1,0.4,0,1,0.5,1.2s0.6-0.3,0.7-0.7
					c0.2-1,0.8-0.4,1.2-0.2c8.9,4.9,18.2,4.7,27.8,2.5c3.5-0.8,6.5-2.7,9.1-5.2c1.9,10-1.9,16-11.7,18c-6.6,1.4-13.2,1.4-19.6-0.8
					c-6.5-2.2-9.2-6.1-9.2-13.1C29,81.9,29,80.6,29,79.1z"/>
				<path id="Shape_5_" class="st3" d="M81.3,47.1c0-2.1-0.8-4.8,0.2-6.3c1.1-1.7,4.2-0.6,6.3-0.9c1.9-0.3,4.5-1.4,5.5-0.6
					c1.3,1,0.4,3.5,0.4,5.4c0.1,1.5,0,3,0,4.4c0,3.6,0,3.6-3.9,4.2c-0.3,0-0.5,0.1-0.8,0.1C81.2,54.6,81.2,54.6,81.3,47.1z"/>
				<path id="Shape_6_" class="st3" d="M19,47.1c0,1.7-0.1,3.5,0,5.2c0.1,1.3-0.4,1.7-1.7,1.7c-3-0.1-5.9-0.6-8.9-1.1
					C7.2,52.6,7,52,7,50.9c0-3.5,0.1-6.9,0-10.4c0-1.3,0.4-1.8,1.7-1.4c2.7,0.7,5.5,1,8.4,1c1.6,0,2,0.7,1.9,2.1
					C18.9,43.8,19,45.5,19,47.1z"/>
				<path id="Shape_7_" class="st3" d="M15,90.9c-3.7,0.3-7-0.3-10.3-1C3.5,89.7,3,89.2,3,88c0.1-3.5,0.1-7,0-10.5
					c0-1.4,0.4-1.8,1.7-1.4c1.3,0.3,2.6,0.6,3.9,0.7c3.8,0.5,3.8,0.5,4,4.5C12.8,84.6,13.7,87.7,15,90.9z"/>
				<path id="Shape_8_" class="st3" d="M86,90.9c1.8-4.1,2.6-8.2,2.4-12.4c-0.1-1.1,0.4-1.5,1.5-1.5c2.2,0,4.5-0.4,6.6-0.9
					c1.1-0.2,1.5,0.1,1.5,1.2c0,3.6,0,7.3,0,10.9c0,1-0.5,1.5-1.4,1.7C93.2,90.6,89.8,91.3,86,90.9z"/>
				<path id="Shape_9_" class="st3" d="M93.9,100.6c0.4,1.6-0.4,2.7-1.7,3.9c-2.3,2-4.4,4.2-6.6,6.3c-0.5,0.5-1,1.2-1.9,1.1
					c-1.1-0.1-2.9,0.6-3.3-0.4c-0.5-1.4-0.9-3.2,0.5-4.6c3.5-3.5,7.2-6.8,10.7-10.3c1.1-1.1,1.5-0.4,1.9,0.5
					C93.9,98.2,94,99.3,93.9,100.6z"/>
				<path id="Shape_10_" class="st3" d="M87.2,28c5.9,0,5.9,0,5.7,5.2c0,1-0.3,1.5-1.5,1.7c-2.9,0.5-5.8,0.8-8.8,1
					c-1.4,0.1-1.7-0.4-1.6-1.5c0.1-1.6,0.1-3.3,0-4.9c-0.1-1.4,0.6-1.7,2-1.6C84.4,28.1,85.8,28,87.2,28z"/>
				<path id="Shape_11_" class="st3" d="M13.1,28c5.9,0,5.9,0,5.9,5c0,3.2,0,3.2-3.7,2.8c-2.2-0.3-4.4-0.6-6.6-0.9
					c-1.1-0.1-1.6-0.5-1.7-1.6C6.8,28,6.8,28,13.1,28z"/>
				<path id="Shape_12_" class="st3" d="M7,107.6c-0.1-1.2,0.5-2,1.3-2.8c2.4-2.4,4.7-4.8,7.1-7.2c0.6-0.6,1.2-2.1,2.1-1.5
					c1.1,0.8,2.5,1.6,2.5,3.4c0.1,1.2-0.3,2.2-1.2,3.1c-2.7,2.7-5.4,5.5-8.1,8.3c-1.6,1.7-2.5,1.5-3.3-0.8
					C7.2,109.3,7.2,108.5,7,107.6z"/>
				<path id="Shape_13_" class="st3" d="M77,106.1c0,2.5,0,5,0,7.6c0,1.3-0.3,2.3-1.4,2.4c-1.2,0.1-1.6-1.1-1.6-2.4
					c0-5,0-10.1,0-15.1c0-1.3,0.3-2.5,1.5-2.5s1.5,1.2,1.5,2.5C77,101,77,103.6,77,106.1z"/>
				<path id="Shape_14_" class="st3" d="M23,105.9c0-2.5,0-5,0-7.6c0-1.3,0.3-2.3,1.4-2.3c1.1-0.1,1.6,0.9,1.6,2.2
					c0,5.2,0,10.4,0,15.6c0,1.2-0.4,2.3-1.5,2.2c-1.1,0-1.4-1.1-1.4-2.3C23,111.1,23,108.5,23,105.9z"/>
				<path id="Shape_15_" class="st3" d="M50.4,6C47,6,43.6,6,40.1,6c-1,0-2.1,0-2.1-1.6C38,3.1,39,3,40,3c6.9,0,13.8,0,20.8,0
					c1,0,2.2,0.1,2.2,1.5C63,6,61.9,6,60.9,6C57.4,6,53.9,6,50.4,6z"/>
				<path id="Shape_16_" class="st3" d="M7.6,65c1.4,0.1,3.1-0.3,4,0.4c1,0.7-0.1,2.3-0.1,3.6c0,4.4-0.1,4.5-4.6,3.6
					c-1.8-0.3-4.1,0.1-3.9-3.2C3.3,65.1,3.1,65.1,7.6,65z"/>
				<path id="Shape_17_" class="st3" d="M92.3,65c4.6,0,4.5,0,4.7,4.5c0.1,1.9-0.7,2.5-2.4,2.7c-1.9,0.3-4.2,1.2-5.6,0.4
					c-1.5-0.9-0.3-3.3-0.7-5c-0.1-0.3,0-0.7-0.1-1.1c-0.6-1.4,0.1-1.7,1.4-1.6C90.5,65.1,91.4,65,92.3,65z"/>
				<path id="Shape_18_" class="st3" d="M67,104c-3.5,4.3-7.6,7.2-14,5.5C55.8,104.7,61.2,104.2,67,104z"/>
				<path id="Shape_19_" class="st3" d="M38,105.1c-1.8,1.9-3.2,3.3-4.6,4.8c-1.2,1.3-3,1.3-3.8,0.4s-0.7-2.9,0.3-4.3
					c1.3-1.7,2.6-2.7,4.7-1.7C35.5,104.8,36.6,104.8,38,105.1z"/>
				<path id="Shape_20_" class="st3" d="M39,109.8c4.7-5.1,4.8-5.1,13-4.7C49.6,109.4,46.6,110.4,39,109.8z"/>
				<path id="Shape_21_" class="st3" d="M5,61.8c3.3-3.4,7.5-4,12-4.8C15,61.8,13.5,62.4,5,61.8z"/>
				<path id="Shape_22_" class="st3" d="M97,62c-3.2,0-5.6,0-8,0c-0.7,0-1.4-0.1-1.8-0.6c-1-1.4-2-2.7-3.2-4.4
					C89,57.7,93.4,58.5,97,62z"/>
				<path id="Shape_23_" class="st3" d="M51,11c-1.2,0-2.4,0-3.6,0c-1.5,0-2.4,0-2.4-1.6C45,8,45.9,8,47.3,8c2.6,0,5.2,0.1,7.7,0
					c1.4,0,2,0.3,2,1.5c0,1.1-0.4,1.6-1.9,1.5C53.7,10.9,52.4,11,51,11z"/>
				<path id="Shape_24_" class="st3" d="M89,25c-2.3,0-4.4-0.1-6.5,0c-1.1,0-1.6-0.3-1.5-1.5c0.1-0.8,0-1.7,0-2.5
					c0-0.4,0-0.9,0.6-0.9C83.4,19.8,88,22.8,89,25z"/>
				<path id="Shape_25_" class="st3" d="M80.2,101c-1.1-4,2.4-7.9,6.8-6.8C84.8,96.4,82.5,98.7,80.2,101z"/>
				<path id="Shape_26_" class="st3" d="M15.7,24.9c-0.7,0-1.3,0.1-2,0c-0.6-0.1-1.5,0.4-1.7-0.4c-0.2-0.7,0.6-1.2,1.1-1.6
					c1.6-1.4,3.5-2.1,5.5-2.8c1-0.4,1.2,0,1.3,1C20.2,24.9,20.2,24.9,15.7,24.9z"/>
				<path id="Shape_27_" class="st3" d="M15,111c2.1-2.1,4-4,6-6c0,1.6,0,3.2,0,4.9c0,1-0.5,1.1-1.3,1.1C18.1,111,16.5,111,15,111z"
					/>
				<path id="Shape_28_" class="st3" d="M64,110c2.1-2.1,3.9-3.9,6-6c0,1.8,0,3.4,0,5c0,0.7-0.3,1-1,1C67.4,110,65.9,110,64,110z"/>
				<path id="Shape_29_" class="st3" d="M12,95c-1.7,1.7-3.3,3.4-4.9,5C6.5,97.1,8.4,95,12,95z"/>
				<path id="Shape_30_" class="st3" d="M61,12.5c0,0.6,0.1,1.4-0.9,1.5c-1.3,0.1-1.1-0.8-1.1-1.5c0-0.6-0.2-1.4,0.9-1.5
					C61.1,10.9,60.9,11.8,61,12.5z"/>
				<path id="Shape_31_" class="st3" d="M89,110c1.2-1.2,2-2,3-3C91.8,108.7,90.9,109.6,89,110z"/>
				<path id="Shape_32_" class="st3" d="M40,12c0.1-0.4-0.2-1,0.4-1c0.7-0.1,0.5,0.5,0.5,0.9s0.2,1-0.4,1.1C39.9,13.1,40,12.5,40,12
					z"/>
				<path id="Shape_33_" class="st1" d="M53.9,59c0.4,0,1.1-0.1,1.1,0.5c0,0.5-0.6,0.5-1.1,0.5c-0.4,0-0.9-0.1-0.9-0.4
					C52.9,59,53.5,59.1,53.9,59z"/>
				<path id="Shape_34_" class="st1" d="M66.1,59c-0.6,0-1.1,0-1.1-0.4c0-0.5,0.5-0.5,1-0.6c0.4,0,1.1-0.1,1,0.5
					C67,58.9,66.4,58.9,66.1,59z"/>
				<path id="Shape_35_" class="st1" d="M76.4,23c0.4,0,0.6,0.3,0.6,0.8s0,1.1-0.5,1.2c-0.3,0.1-0.5-0.3-0.4-0.7
					C76,23.8,75.9,23.3,76.4,23z"/>
				<path id="Shape_36_" class="st1" d="M40,58.5c-0.1,0.4-0.4,0.5-0.9,0.5s-1.2,0-1.1-0.6c0-0.4,0.5-0.4,0.9-0.4
					C39.4,58,39.8,58,40,58.5z"/>
				<path id="Shape_37_" class="st1" d="M76.5,46c0.5,0.2,0.5,0.6,0.5,1.1s-0.1,1-0.6,0.9C76,47.9,76,47.4,76,47.1
					C76,46.6,76,46.1,76.5,46z"/>
				<path id="Shape_38_" class="st1" d="M77,20c0,0.4-0.1,0.9-0.5,1c-0.6,0-0.5-0.6-0.5-1.1c0-0.4,0-0.9,0.4-0.9
					C77,19,77,19.5,77,20z"/>
				<path id="Shape_39_" class="st1" d="M76.5,40c-0.6-0.2-0.5-0.7-0.5-1.1c0-0.4,0-0.9,0.5-0.9c0.5,0.1,0.5,0.6,0.5,1.1
					S76.9,39.9,76.5,40z"/>
				<path id="Shape_40_" class="st1" d="M76,34.2c0-0.5-0.1-1.1,0.5-1.2c0.4,0,0.5,0.5,0.5,0.9c0,0.5,0,1-0.5,1.1
					C76,35,76,34.5,76,34.2z"/>
				<path id="Shape_41_" class="st1" d="M76.3,42c0.5,0,0.7,0.4,0.7,0.8c0,0.5,0,1-0.5,1.2C76,44.1,76,43.6,76,43.2
					C76,42.7,76,42.2,76.3,42z"/>
				<path id="Shape_42_" class="st1" d="M63,58.3c0,0.5-0.4,0.6-0.8,0.6c-0.5,0.1-1,0.2-1.2-0.4C60.9,58,61.4,58,61.8,58
					C62.2,58,62.8,57.9,63,58.3z"/>
				<path id="Shape_43_" class="st1" d="M58.1,58c0.4,0,0.9,0.1,0.9,0.5c0,0.6-0.6,0.5-1.1,0.5c-0.4,0-0.9,0-0.9-0.4
					C57,58.1,57.6,58.1,58.1,58z"/>
				<path id="Shape_44_" class="st1" d="M77,28.1c0,0.4-0.1,1-0.6,0.8c-0.5-0.1-0.4-0.7-0.4-1.1s0.1-0.9,0.5-0.8
					C77,27.1,77,27.6,77,28.1z"/>
				<path id="Shape_45_" class="st1" d="M76.4,54c-0.5-0.3-0.4-0.8-0.4-1.3c0-0.4,0.2-0.7,0.5-0.7c0.6,0.1,0.5,0.7,0.5,1.2
					C77,53.6,76.8,54,76.4,54z"/>
				<path id="Shape_46_" class="st1" d="M25.1,58c-0.7,0-1.1-0.4-1.1-1.1c0-0.4,0.1-0.9,0.6-0.9c0.8,0,1.2,0.7,1.4,1.3
					C26.1,57.8,25.6,58,25.1,58z"/>
				<path id="Shape_47_" class="st1" d="M29.1,58c-0.4-0.2-1.1,0-1.1-0.6c0-0.5,0.5-0.4,0.9-0.4s1.1-0.1,1.1,0.5
					C30,58,29.6,58,29.1,58z"/>
				<path id="Shape_48_" class="st1" d="M48.1,60c-0.6-0.1-1.2-0.1-1.1-0.6c0.1-0.4,0.6-0.3,1-0.3s0.9-0.1,1,0.4
					C49.1,60,48.4,59.9,48.1,60z"/>
				<path id="Shape_49_" class="st1" d="M25,28c0,0.4,0,1-0.4,1c-0.7,0-0.5-0.6-0.5-1s0-0.9,0.4-1C25.1,27,24.9,27.6,25,28z"/>
				<path id="Shape_50_" class="st1" d="M44,58.6c-0.1,0.5-0.6,0.4-1,0.4s-1,0.1-1-0.4c0-0.6,0.6-0.6,1.1-0.5
					C43.4,58.1,43.9,58.1,44,58.6z"/>
				<path id="Shape_51_" class="st1" d="M77,57c-0.1,0.7-0.5,1-1.2,1c-0.5,0-0.9-0.2-0.7-0.7c0.2-0.6,0.4-1.4,1.3-1.2
					C76.9,56.1,77,56.5,77,57z"/>
				<path id="Shape_52_" class="st1" d="M24.5,54C24,53.9,24,53.5,24,53.1s-0.1-1,0.5-1.1c0.5,0,0.5,0.5,0.5,0.9
					C25,53.3,25.1,53.8,24.5,54z"/>
				<path id="Shape_53_" class="st1" d="M70,58c-0.5,0-1,0-1-0.5c0-0.6,0.6-0.5,1.1-0.5c0.4,0,0.9-0.1,0.9,0.4
					C71,58,70.3,57.8,70,58z"/>
				<path id="Shape_54_" class="st1" d="M34,58.4c0.1-0.5,0.6-0.4,1-0.4s0.9,0,1,0.4c0.1,0.5-0.4,0.6-0.8,0.5
					C34.7,59,34.2,58.9,34,58.4z"/>
				<path id="Shape_55_" class="st1" d="M24.6,21c-0.7-0.7-0.6-1.3-0.3-1.9c0-0.1,0.4-0.2,0.5-0.1C25.2,19.6,25.1,20.2,24.6,21z"/>
				<path id="Shape_56_" class="st1" d="M24.4,46c0.5,0,0.6,0.3,0.6,0.7c0,0.5,0.2,1.1-0.4,1.3c-0.4,0.1-0.5-0.3-0.5-0.7
					C24,46.8,23.9,46.3,24.4,46z"/>
				<path id="Shape_57_" class="st1" d="M24.5,42c0.5,0,0.5,0.4,0.5,0.8c0,0.5,0.2,1.1-0.5,1.2c-0.6,0.1-0.5-0.6-0.5-1
					S23.9,42.2,24.5,42z"/>
				<path id="Shape_58_" class="st1" d="M24.4,33c0.5,0,0.5,0.4,0.6,0.7c0,0.5,0.2,1.1-0.4,1.3c-0.4,0.1-0.5-0.3-0.5-0.7
					C24,33.8,23.9,33.3,24.4,33z"/>
				<path id="Shape_59_" class="st1" d="M25,38.9c0,0.4,0.1,1-0.4,1.1C24,40.1,24,39.5,24,39.1s-0.1-1,0.4-1.1
					C25,37.9,24.9,38.5,25,38.9z"/>
				<path id="Shape_60_" class="st1" d="M24.4,25c-0.5-0.3-0.4-0.8-0.4-1.3c0-0.4,0.1-0.8,0.6-0.7c0.6,0.2,0.4,0.8,0.4,1.3
					C25,24.6,24.9,25,24.4,25z"/>
				<path id="Shape_61_" class="st1" d="M66,40c-0.4-0.4-0.7-0.8-1.1-1.2c-0.4-0.9,0.1-3.1-2-1.6c-1.5,1-1.4,3.6-3.8,4.1
					c-1.9-2.9-3.8-5.9-5.7-8.8c-1.6-2.3-2.5-1.7-2.9,0.7c-2.1,2.4-3.5,5.3-4.7,8.2c-2.2,1-2.1-1.2-2.9-2.2c-1-1.3-2-3-3.5-0.5
					c-1,0.4-1.3,1.3-1.4,2.3l0,0c-1.6,2.5-3.2,5-5.1,7.8c4.6,0.4,4.3-3.6,6.3-5.1c1.2,0.1,2.4,0.2,3.6,0.3l0,0
					c2.7,4.5,3.4,1.3,4.4-1.1c1.2-1.4,2.3-2.9,4.4-1.4c1.9,1.4,2.4,0,3-1.5l0,0l0,0c1.7,0.8,2.2,2.6,2.9,4c1.8,4.1,3.3,1.1,4.9,0
					c1.1,0,2.1,0,3.2,0l0,0c1.6,1.8,1.8,5,6.3,5.8C69.6,45.9,67.8,42.9,66,40z"/>
				<path id="Shape_62_" class="st1" d="M53,74.5c0,1.8-1.7,3.4-3.5,3.5c-1.8,0-3.5-1.6-3.5-3.4c0-1.9,1.7-3.6,3.6-3.6
					C51.4,71.1,53,72.8,53,74.5z"/>
				<path id="Shape_63_" class="st4" d="M43.7,79c0.6,0,1.2,0,1.3,0.5c0.1,0.4-0.4,0.5-0.8,0.5c-0.5-0.1-1.1-0.1-1.1-0.5
					C42.9,79,43.5,79,43.7,79z"/>
				<path id="Shape_64_" class="st4" d="M48.1,81c-0.5,0-1.1,0-1.1-0.5c0-0.4,0.5-0.5,0.9-0.5c0.5,0,1.1,0,1.1,0.5
					C49,80.9,48.5,81,48.1,81z"/>
				<path id="Shape_65_" class="st4" d="M68.5,67c0.4,0.1,0.5,0.4,0.5,0.9s0,1.1-0.5,1.1c-0.4,0.1-0.5-0.4-0.5-0.8
					C68,67.7,68,67.2,68.5,67z"/>
				<path id="Shape_66_" class="st4" d="M41,78.7c-0.1,0.3-0.4,0.4-0.8,0.3c-0.5-0.1-1.2-0.1-1.2-0.6c0-0.3,0.4-0.4,0.8-0.3
					C40.3,78.2,41,78.2,41,78.7z"/>
				<path id="Shape_67_" class="st4" d="M62,78.3c-0.1,0.5-0.7,0.5-1.2,0.6C60.4,79,60,79,60,78.7c0-0.5,0.7-0.5,1.2-0.7
					C61.6,77.9,61.9,78.1,62,78.3z"/>
				<path id="Shape_68_" class="st4" d="M68,73.8c-0.3,0.5-0.4,1.1-1.2,1.2c-0.4,0.1-0.9-0.3-0.7-0.7c0.2-0.5,0.4-1.2,1.2-1.3
					C67.8,73,68.1,73.2,68,73.8z"/>
				<path id="Shape_69_" class="st4" d="M36.7,76c0.5,0.3,1.3,0.5,1.3,1.5c0,0.4-0.4,0.6-0.6,0.5c-0.7-0.2-1.3-0.6-1.3-1.5
					C36,76.2,36.3,76,36.7,76z"/>
				<path id="Shape_70_" class="st4" d="M66,76.7c-0.3,0.7-0.8,1.2-1.5,1.3c-0.3,0-0.6-0.3-0.5-0.7c0.2-0.8,0.8-1.2,1.5-1.3
					C65.8,75.9,66,76.3,66,76.7z"/>
				<path id="Shape_71_" class="st4" d="M35,74.5c-0.2,0.2-0.5,0.5-0.7,0.5c-0.9-0.1-1.2-0.8-1.3-1.4c-0.1-0.2,0.1-0.6,0.6-0.6
					C34.5,73.1,34.7,73.8,35,74.5z"/>
				<path id="Shape_72_" class="st4" d="M32.6,69c-0.5-0.2-0.5-0.7-0.6-1.2c0-0.4,0.1-0.9,0.5-0.8c0.5,0.1,0.4,0.8,0.4,1.2
					C33,68.6,33,69,32.6,69z"/>
				<path id="Shape_73_" class="st4" d="M59,79.5c-0.1,0.5-0.8,0.4-1.2,0.5S57,80,57,79.7c0-0.7,0.8-0.5,1.3-0.6
					C58.6,78.9,58.9,79.1,59,79.5z"/>
				<path id="Shape_74_" class="st4" d="M54,81c-0.4,0-0.9,0-1-0.4C52.9,80,53.5,80,54,80c0.4,0,0.9-0.1,1,0.3
					C55.1,80.9,54.4,80.9,54,81z"/>
				<path id="Shape_75_" class="st4" d="M69,81.9c0,0.5-0.1,1-0.5,1.1C68,83,68,82.4,68,81.9c0-0.4,0-0.9,0.4-0.9
					C68.9,80.9,69,81.5,69,81.9z"/>
				<path id="Shape_76_" class="st4" d="M33,85.1c0,0.5-0.1,0.9-0.5,0.8c-0.5,0-0.5-0.6-0.5-1s0-0.9,0.4-0.9
					C32.9,84.1,32.9,84.7,33,85.1z"/>
				<path id="Shape_77_" class="st4" d="M49.1,96c-0.5,0-1.1,0-1-0.6c0.1-0.4,0.6-0.4,1-0.4c0.5,0,1.1,0,1,0.6
					C49.9,96,49.4,96,49.1,96z"/>
				<path id="Shape_78_" class="st4" d="M58.9,96c-0.4,0-0.9,0-0.9-0.4c0.1-0.4,0.7-0.5,1.1-0.6c0.4-0.1,0.9,0,0.9,0.4
					C59.9,95.9,59.4,95.9,58.9,96z"/>
				<path id="Shape_79_" class="st4" d="M42,94.5c0,0.4-0.3,0.5-0.7,0.5c-0.5,0-1-0.1-1.2-0.5c-0.2-0.3,0.2-0.5,0.6-0.5
					C41.2,94,41.7,94.2,42,94.5z"/>
				<path id="Shape_80_" class="st4" d="M38,93.4c-0.1,0.5-0.4,0.8-0.8,0.5c-0.5-0.3-1.2-0.5-1.2-1.3c0-0.6,0.4-0.7,0.8-0.5
					C37.3,92.3,37.9,92.6,38,93.4z"/>
				<path id="Shape_81_" class="st4" d="M36,88.4c0,0.4-0.3,0.7-0.6,0.6c-0.9-0.1-1.2-0.7-1.4-1.4c-0.1-0.3,0.1-0.6,0.5-0.6
					C35.4,87.1,35.7,87.8,36,88.4z"/>
				<path id="Shape_82_" class="st4" d="M67.6,85c0.3,0,0.4,0.1,0.4,0.5c0,0.6-0.1,1.2-0.5,1.5c-0.3,0.2-0.5-0.2-0.5-0.5
					C67,85.8,67.1,85.3,67.6,85z"/>
				<path id="Shape_83_" class="st4" d="M46,95.6c-0.2,0.5-0.7,0.4-1.1,0.4c-0.4,0-1-0.1-0.9-0.5c0.1-0.5,0.6-0.5,1.1-0.4
					C45.6,95.1,45.9,95.3,46,95.6z"/>
				<path id="Shape_84_" class="st4" d="M67,91.6c-0.2,0.6-0.6,1.1-1.3,1.3c-0.5,0.2-0.8-0.2-0.7-0.7c0.2-0.7,0.6-1.2,1.3-1.3
					C66.7,91,67,91.1,67,91.6z"/>
				<path id="Shape_85_" class="st4" d="M63,93.4c-0.2,0.4-0.8,0.6-1.3,0.6c-0.4,0-0.8-0.1-0.6-0.4c0.2-0.4,0.8-0.6,1.4-0.6
					C62.7,93,63,93.1,63,93.4z"/>
				<path id="Shape_86_" class="st4" d="M56,95.4c-0.1,0.6-0.7,0.5-1.2,0.6c-0.4,0.1-0.9,0-0.8-0.5c0.1-0.5,0.6-0.4,1-0.4
					C55.4,95,55.9,94.9,56,95.4z"/>
				<path id="Shape_87_" class="st4" d="M86,35.4c0,0.5-0.4,0.6-0.8,0.6s-1,0.2-1.2-0.3s0.5-0.5,0.9-0.6
					C85.4,34.9,85.8,35.1,86,35.4z"/>
				<path id="Shape_88_" class="st4" d="M90,34.5C89.7,35,89.1,35,88.5,35c-0.3,0-0.6-0.1-0.5-0.4c0.1-0.6,0.8-0.6,1.3-0.6
					C89.7,34,90,34.2,90,34.5z"/>
				<path id="Shape_89_" class="st4" d="M9.9,34c0.4,0.1,1,0.1,1.1,0.6S10.5,35,10.1,35C9.6,35,9,35,9,34.5C9,34.1,9.4,34,9.9,34z"
					/>
				<path id="Shape_90_" class="st4" d="M16,36c-0.4-0.1-1.1,0.1-1-0.6c0-0.4,0.4-0.5,0.8-0.4c0.5,0.1,1.1,0,1.2,0.5S16.5,36,16,36z
					"/>
				<path id="Shape_91_" class="st4" d="M9.1,73C8.6,73,8,73,8,72.5S8.5,72,8.9,72c0.5,0,1.1,0.1,1.1,0.6S9.5,73,9.1,73z"/>
				<path id="Shape_92_" class="st4" d="M6,71.6C5.9,72,5.5,72,5,72s-1-0.1-1-0.6C4,71,4.5,71,4.9,71C5.4,71,5.8,71.2,6,71.6z"/>
				<path id="Shape_93_" class="st4" d="M90.1,72c0.4,0,0.9,0,0.9,0.5c0,0.6-0.6,0.5-1.1,0.5c-0.4,0-0.9,0.1-0.9-0.4
					S89.6,72.1,90.1,72z"/>
				<path id="Shape_94_" class="st4" d="M97,71.5C96.8,72,96.2,72,95.6,72c-0.4,0-0.7-0.2-0.6-0.5c0.2-0.5,0.8-0.5,1.4-0.5
					C96.8,71,97,71.2,97,71.5z"/>
			</g>
			
				<g id="stick" transform="translate(29.874737, 86.271774) rotate(-10.000000) translate(-29.874737, -86.271774) translate(19.874737, 22.771774)">
				<path id="Shape_95_" class="st1" d="M9,91c0-8.5,0-16.9,0-26c4.3,8.9,3.4,17.4,0.7,26C9.5,91,9.2,91,9,91z"/>
				<path id="Shape_96_" class="st1" d="M7,0c1.2,0,2.4,0,3.9,0C11.3,4.7,9.6,8.9,7,13C7,8.7,7,4.5,7,0z"/>
				<path id="Shape_97_" class="st1" d="M18.5,40.3c0.7-12.7,1-25.5,1.5-38.2c0.1-2.3-1-2.5-3-1.7c0,2.1,0,4.1,0,6.1
					c-0.2,0-0.4,0-0.7,0c-0.3-2.1-0.6-4.2-0.9-6.4c-0.9,0-1.8,0-3,0c0.3,1.7,0.3,3.2,0.7,4.5c0.9,3.1,2,6.2,3,9.3
					c1.5,4.4,2.1,8.9,0.8,13.5c-0.7,2.4-1.8,4.6-4.6,5.5c3.6-3.8,4.6-8.4,3.6-13.2c-0.9-4.6-2.4-9.1-3.6-13.5C6.8,15.2,7,25,8,35
					c-3-0.8-5.4-1.5-7.9-2.2c-0.4,4.6-0.4,4.6,3.5,5.7c2.9,0.8,5.3,2.2,6.6,5.6c-0.9-0.3-1.4-0.4-2.3-0.7c1.6,8-0.6,16,3.4,23.8
					c3.9,7.7,2.2,16-0.8,23.8c-0.5,1.3-0.9,2.7-0.9,4.1c0.2,7.9,0.4,15.8,0.7,23.7c0.1,2.7,0.4,5.4,0.6,7.9c2.6,0.8,3.4-0.2,3.4-2.4
					c0-3.4,0-6.7,0-10.1c0.2,0,0.5,0,0.7,0c0.2,4.1,0.5,8.2,0.7,12.4c0.3,0,0.5,0,0.8-0.1c0-2.8,0.1-5.6,0-8.3
					c-0.1-3.1-0.1-6.3-0.5-9.4c-0.6-5.5-2-10.9-2.1-16.4c-0.1-8.1,0.6-16.1,1.1-24.2c0.2-3.7,0.6-7.4,1-11.1c0.3,0,0.7,0,1,0
					c-0.6,16.5-3.6,32.9,0,49.3c0.5-20.1,1.1-40.2,1.6-60.3C18.3,46,18,46,17.8,45.9c-1.2,2.3-2.8,4.5-3.5,7
					c-0.7,2.4-0.6,4.9-0.8,7.6c-0.4-0.3-0.5-0.4-0.6-0.6c-0.1-0.2-0.1-0.5-0.2-0.8c-0.9-4.5,0.5-8.4,2.9-12.2
					C16.9,44.9,18.4,42.6,18.5,40.3z M12.1,109.9c0,0.9,0,1.9,0,2.8c-0.2,0-0.4,0.1-0.6,0.1c0-4.7,0-9.4,0-14.1c0.2,0,0.4,0,0.6,0
					c0,4.7,0.7,3.3,0.7,8C12.7,106.7,12.4,108.3,12.1,109.9z M11.2,28.9c-0.3,0.1-1-0.7-1.2-1.2c-1.2-3.6-1.4-7.2,0.1-10.7
					c0.3-0.7,1.2-1,1.9-1.6c0.5,0.6,1.2,1.1,1.3,1.8c0.4,1.4,0.4,2.9,0.7,5c-0.4,1.5-0.8,3.6-1.4,5.5C12.6,28.2,11.8,28.7,11.2,28.9
					z M11.7,48.7c0.6-4,1.2-7.9,1.8-11.9C15,41.1,14.3,45,11.7,48.7z"/>
			</g>
		</g>
	</g>
</g>
<rect x="171.5" y="-51.8" class="st1" width="89.5" height="49.3"/>
<rect x="-67" y="-57.8" class="st4" width="67" height="55.3"/>
<rect x="0.3" y="-50.9" class="st2" width="47.7" height="38.7"/>
<rect x="120.1" y="-47.6" class="st3" width="51.6" height="35.3"/>
<rect x="48.5" y="-74.6" class="st0" width="72" height="72"/>
</svg>
