<?xml version="1.0" encoding="UTF-8"?>
<svg width="24px" height="24px" viewBox="0 0 24 24" version="1.1" xmlns="http://www.w3.org/2000/svg" xmlns:xlink="http://www.w3.org/1999/xlink">
    <!-- Generator: Sketch 47.1 (45422) - http://www.bohemiancoding.com/sketch -->
    <title>Fill 28</title>
    <desc>Created with Sketch.</desc>
    <defs></defs>
    <g id="Home" stroke="none" stroke-width="1" fill="none" fill-rule="evenodd">
        <g id="Tablet" transform="translate(-484.000000, -5372.000000)" fill="#3DD94A">
            <g id="Tablet-Footer" transform="translate(-37.000000, 4091.000000)">
                <path d="M539.824579,1295.05469 L538.269826,1295.57519 L538.808327,1297.18469 C539.026577,1297.83569 538.675577,1298.54069 538.023826,1298.75894 C537.882075,1298.80694 537.738075,1298.82719 537.597075,1298.82344 C537.088574,1298.80994 536.619823,1298.48444 536.449573,1297.97444 L535.910322,1296.36569 L532.704066,1297.43969 L533.242567,1299.04844 C533.460817,1299.7002 533.109817,1300.4052 532.458066,1300.62345 C532.316315,1300.6707 532.172315,1300.69095 532.031315,1300.6872 C531.522814,1300.67445 531.054063,1300.3482 530.883813,1299.83895 L530.344562,1298.22944 L528.789809,1298.75069 C528.648059,1298.79794 528.503309,1298.81819 528.362308,1298.81444 C527.854557,1298.80169 527.385807,1298.47544 527.214806,1297.96544 C526.996556,1297.31444 527.347557,1296.60944 527.999308,1296.39119 L529.55481,1295.86994 L528.520559,1292.78368 L526.965806,1293.30493 C526.824056,1293.35218 526.680055,1293.37243 526.538305,1293.36868 C526.030554,1293.35593 525.561803,1293.02968 525.390803,1292.51968 C525.172553,1291.86868 525.524303,1291.16368 526.175304,1290.94543 L527.730807,1290.42418 L527.191556,1288.81543 C526.973306,1288.16367 527.324307,1287.45867 527.976058,1287.24117 C528.627809,1287.02292 529.33281,1287.37392 529.55106,1288.02567 L530.089561,1289.63443 L533.296567,1288.56043 L532.757316,1286.95167 C532.539066,1286.29992 532.890816,1285.59492 533.541818,1285.37667 C534.193569,1285.15842 534.89857,1285.51017 535.11682,1286.16117 L535.655321,1287.77067 L537.210824,1287.24942 C537.862575,1287.03117 538.566827,1287.38292 538.785077,1288.03392 C539.003327,1288.68568 538.652327,1289.39068 538.000576,1289.60893 L536.445823,1290.12943 L537.479325,1293.21643 L539.034827,1292.69518 C539.685829,1292.47768 540.39083,1292.82868 540.60908,1293.47968 C540.827331,1294.13144 540.47633,1294.83644 539.824579,1295.05469 M543.995336,1289.70118 C541.521832,1281.45416 537.948075,1279.53041 529.701061,1282.00466 C521.454796,1284.47817 519.530293,1288.05192 522.004547,1296.29894 C524.478801,1304.5452 528.052558,1306.46971 536.298823,1303.99545 C544.545837,1301.5212 546.469591,1297.94744 543.995336,1289.70118" id="Fill-28"></path>
            </g>
        </g>
    </g>
</svg>