<?xml version="1.0" encoding="UTF-8"?>
<svg width="30px" height="26px" viewBox="0 0 30 26" version="1.1" xmlns="http://www.w3.org/2000/svg" xmlns:xlink="http://www.w3.org/1999/xlink">
    <!-- Generator: Sketch 47.1 (45422) - http://www.bohemiancoding.com/sketch -->
    <title>twitter16</title>
    <desc>Created with Sketch.</desc>
    <defs></defs>
    <g id="Home" stroke="none" stroke-width="1" fill="none" fill-rule="evenodd">
        <g id="Mobile" transform="translate(-124.000000, -5871.000000)" fill="#000000">
            <g id="Mobile-Footer" transform="translate(-45.000000, 4279.000000)">
                <g id="Group-9" transform="translate(125.000000, 1593.000000)">
                    <g id="twitter16" transform="translate(44.000000, 0.000000)">
                        <path d="M30.0471094,2.82484615 C28.8632812,3.32630769 27.6789844,3.63946154 26.495625,3.76523077 C27.8322656,2.97553846 28.73625,1.86 29.2073437,0.418615385 C27.9848437,1.13284615 26.6800781,1.62161538 25.2925781,1.88492308 C24.0703125,0.606461538 22.5684375,-0.033 20.7860156,-0.033 C19.0802344,-0.033 17.6259375,0.559153846 16.4226562,1.74369231 C15.2196094,2.92823077 14.6182031,4.36015385 14.6182031,6.03969231 C14.6182031,6.49084615 14.6690625,6.95469231 14.7710156,7.431 C12.2503125,7.30569231 9.88570312,6.68215385 7.67695312,5.56038462 C5.46820312,4.43838462 3.59367187,2.94369231 2.05335937,1.07607692 C1.49320312,2.016 1.213125,3.03761538 1.213125,4.14069231 C1.213125,5.181 1.46132812,6.14630769 1.95796875,7.03615385 C2.454375,7.926 3.1228125,8.64669231 3.96304687,9.19823077 C2.97,9.16061538 2.04070312,8.90353846 1.17515625,8.42723077 L1.17515625,8.50246154 C1.17515625,9.969 1.64296875,11.2566923 2.57859375,12.3662308 C3.51421875,13.4757692 4.695,14.1743077 6.12070312,14.4625385 C5.58609375,14.6003077 5.04492187,14.6693077 4.49765625,14.6693077 C4.14117187,14.6693077 3.7528125,14.6379231 3.3328125,14.5756154 C3.7275,15.7913077 4.453125,16.7907692 5.5096875,17.5742308 C6.56625,18.3579231 7.76296875,18.7617692 9.09960937,18.7871538 C6.85921875,20.5165385 4.306875,21.3814615 1.44257812,21.3814615 C0.895078125,21.3814615 0.398671875,21.3567692 -0.046875,21.3064615 C2.81742187,23.1237692 5.97445312,24.0323077 9.42445312,24.0323077 C11.6139844,24.0323077 13.6699219,23.691 15.5917969,23.0079231 C17.514375,22.3248462 19.1564062,21.4098462 20.5185937,20.2626923 C21.8805469,19.116 23.055,17.7966923 24.0414844,16.305 C25.0279687,14.8135385 25.7629687,13.2563077 26.2469531,11.6330769 C26.7307031,10.0096154 26.9725781,8.38361538 26.9725781,6.75392308 C26.9725781,6.40292308 26.96625,6.13984615 26.9533594,5.96423077 C28.1629688,5.09976923 29.1942188,4.053 30.0471094,2.82484615 L30.0471094,2.82484615 Z" id="Shape" fill="#FDB81C"></path>
                    </g>
                </g>
            </g>
        </g>
    </g>
</svg>