<?xml version="1.0" encoding="UTF-8"?>
<svg width="167px" height="146px" viewBox="0 0 167 146" version="1.1" xmlns="http://www.w3.org/2000/svg" xmlns:xlink="http://www.w3.org/1999/xlink">
    <!-- Generator: Sketch 47.1 (45422) - http://www.bohemiancoding.com/sketch -->
    <title>Conference Icon Copy</title>
    <desc>Created with Sketch.</desc>
    <defs></defs>
    <g id="Home" stroke="none" stroke-width="1" fill="none" fill-rule="evenodd">
        <g id="Mobile" transform="translate(-76.000000, -2471.000000)">
            <g id="Group-5" transform="translate(50.000000, 2471.000000)">
                <g id="Conference-Icon-Copy" transform="translate(26.000000, 0.000000)">
                    <path d="M9.85675482,41.769981 C9.85675482,41.769981 21.6586842,25.7325546 49.3463544,25.1591132 C77.033667,24.5864 84.7499968,20.0046943 101.090607,11.4129037 C117.430145,2.82147731 154.650404,-13.7890264 164.182277,24.5864 C173.713793,62.9625546 154.196607,73.2724848 158.73493,95.0384998 C163.274327,116.803422 153.742453,143.150779 120.607793,136.277128 C87.473849,129.404205 76.5798704,128.258415 62.5086006,132.2685 C48.4384036,136.277128 14.3957934,133.986275 3.95632655,95.6108489 C-6.48314026,57.2350584 6.6794636,45.7793377 9.85675482,41.769981" id="Fill-1" fill="#3DD94A"></path>
                    <path d="M114.671748,136.804549 C114.687125,136.67202 114.699283,136.538763 114.699283,136.404414 C114.699283,136.270429 114.687125,136.137172 114.671748,136.004279 L114.671748,134.110648 L113.91542,134.110648 C111.116472,130.090005 101.131874,127.115392 89.2430478,127.115392 C77.3538636,127.115392 67.3696238,130.090005 64.5703176,134.110648 L63.7868122,134.110648 L63.7868122,136.400045 C63.7868122,136.401137 63.7864546,136.402594 63.7864546,136.404414 C63.7864546,136.406234 63.7868122,136.407691 63.7868122,136.409147 L63.7868122,136.83404 L63.8161355,136.83404 C64.4319257,141.765272 75.5787287,145.6938 89.2430478,145.6938 C102.907009,145.6938 114.053812,141.765272 114.669602,136.83404 L114.671748,136.83404 L114.671748,136.804549 Z" id="Fill-4" fill="#4D3C10"></path>
                    <path d="M114.699355,134.225337 C114.699355,139.355726 103.301873,143.514723 89.2427617,143.514723 C75.1832927,143.514723 63.7865261,139.355726 63.7865261,134.225337 C63.7865261,129.094948 75.1832927,124.93595 89.2427617,124.93595 C103.301873,124.93595 114.699355,129.094948 114.699355,134.225337" id="Fill-6" fill="#48D347"></path>
                    <path d="M89.2429405,125.62408 C74.4196343,125.62408 64.4622146,130.071436 64.4622146,134.225337 C64.4622146,138.378873 74.4196343,142.826594 89.2429405,142.826594 C104.065889,142.826594 114.023666,138.378873 114.023666,134.225337 C114.023666,130.071436 104.065889,125.62408 89.2429405,125.62408 M89.2429405,144.202489 C76.3971717,144.202489 63.1108377,140.470569 63.1108377,134.225337 C63.1108377,127.980105 76.3971717,124.248185 89.2429405,124.248185 C102.088352,124.248185 115.375043,127.980105 115.375043,134.225337 C115.375043,140.470569 102.088352,144.202489 89.2429405,144.202489" id="Fill-8" fill="#4D3C10"></path>
                    <path d="M92.8475657,76.8459895 L85.4133837,76.8459895 L85.4133837,132.896154 C85.4133837,132.897246 85.4130261,132.89761 85.4130261,132.898703 C85.4130261,132.899795 85.4133837,132.900523 85.4133837,132.901615 L85.4133837,132.963875 L85.4208934,132.963875 C85.5031418,133.788174 87.1298719,134.447177 89.1299383,134.447177 C91.1307199,134.447177 92.7570925,133.788174 92.8393409,132.963875 L92.8475657,132.963875 L92.8475657,76.8459895 Z" id="Fill-10" fill="#257241"></path>
                    <path d="M86.0894655,132.85716 L86.0937567,132.894297 C86.1570522,133.150981 87.2677632,133.75901 89.1301529,133.75901 C90.9925426,133.75901 92.1028959,133.150981 92.1672642,132.89102 L92.1719131,132.848058 L92.1719131,77.5344469 L86.0894655,77.5344469 L86.0894655,132.85716 Z M89.1301529,135.13527 C87.434048,135.13527 85.5820287,134.666686 84.9594441,133.651968 L84.7452407,133.651968 L84.7373734,132.830946 L84.737731,132.829489 L84.737731,76.1578234 L93.5236475,76.1578234 L93.5236475,133.651968 L93.3008617,133.651968 C92.6786347,134.666686 90.8262578,135.13527 89.1301529,135.13527 L89.1301529,135.13527 Z" id="Fill-12" fill="#26D913"></path>
                    <path d="M38.8822131,82.6625421 L38.796031,82.6527117 C37.287667,82.5216394 36.2359604,80.5464524 35.7750118,79.4793052 L35.3176392,79.5899885 L35.5003737,78.5457791 L43.7377291,35.6851307 C43.7749197,34.0918738 45.0587099,32.807001 46.6321574,32.807001 L131.835057,32.807001 C133.408147,32.807001 134.692652,34.0918738 134.729843,35.6851307 L143.169243,79.5979985 L142.68362,79.4800334 C142.223387,80.5471805 141.177044,82.5209112 139.692997,82.6487067 L139.576776,82.6625421 L38.8822131,82.6625421 Z" id="Fill-14" fill="#1ED416"></path>
                    <path d="M131.834914,32.1191262 L46.6320143,32.1191262 C44.7116931,32.1191262 43.1411064,33.6708768 43.0638645,35.6071062 L34.9788473,77.3041237 L35.2041364,79.6554155 L35.3958109,80.2827421 C36.0105283,81.5366673 37.116948,83.1976449 38.7089908,83.3345426 L38.7715711,83.3421885 L38.8448794,83.3505626 L38.9192606,83.3505626 L139.5398,83.3505626 L139.614181,83.3505626 L139.687847,83.3421885 L139.749355,83.3349067 C141.342828,83.1976449 142.449248,81.5355751 143.063607,80.2809217 L143.484505,78.7062334 L143.634697,77.1362783 L135.403421,35.6071062 C135.326894,33.6708768 133.755235,32.1191262 131.834914,32.1191262 M131.834914,33.4950214 C133.060772,33.4950214 134.054905,34.5075551 134.054905,35.7556549 L142.304061,78.680019 C142.287254,78.6756499 142.276169,78.6731012 142.276169,78.6731012 C142.276169,78.6731012 141.135777,81.8341287 139.635995,81.9630165 C139.601308,81.9659292 139.573057,81.9710264 139.5398,81.9746673 L38.9192606,81.9746673 C38.8860036,81.9710264 38.8577531,81.9659292 38.8227081,81.9630165 C37.3232842,81.8341287 36.1828923,78.6731012 36.1828923,78.6731012 C36.1828923,78.6731012 36.1757403,78.6749217 36.1635818,78.6778344 L44.4127381,35.7556549 C44.4127381,34.5075551 45.4068709,33.4950214 46.6320143,33.4950214 L131.834914,33.4950214" id="Fill-16" fill="#4D3C10"></path>
                    <path d="M38.184103,78.878011 C36.5874113,78.878011 35.2886019,77.5552728 35.2886019,75.9292479 L35.2886019,75.8629835 L43.7376576,31.9005995 C43.7748482,30.3073426 45.0589959,29.0224698 46.6320859,29.0224698 L131.834985,29.0224698 C133.408075,29.0224698 134.692581,30.3073426 134.729771,31.9005995 L143.178469,75.8629835 L143.178469,75.9292479 C143.178469,77.5552728 141.87966,78.878011 140.282968,78.878011 L38.184103,78.878011 Z" id="Fill-18" fill="#B2F0B4"></path>
                    <path d="M131.834914,28.334595 L46.6320143,28.334595 C44.7116931,28.334595 43.1411064,29.8863456 43.0638645,31.8225751 L34.6380529,75.6655377 L34.6130208,75.7958818 L34.6130208,75.9295027 C34.6130208,77.9345451 36.2150764,79.5660314 38.1840315,79.5660314 L140.282897,79.5660314 C142.252209,79.5660314 143.854265,77.9345451 143.854265,75.9295027 L143.854265,75.7958818 L143.829233,75.6655377 L135.403421,31.8225751 C135.326894,29.8863456 133.755235,28.334595 131.834914,28.334595 M131.834914,29.7104903 C133.060772,29.7104903 134.054905,30.7230239 134.054905,31.9711237 L142.50253,75.9295027 C142.50253,77.1779666 141.508755,78.1901362 140.282897,78.1901362 L38.1840315,78.1901362 C36.958888,78.1901362 35.9643976,77.1779666 35.9643976,75.9295027 L44.4127381,31.9711237 C44.4127381,30.7230239 45.4068709,29.7104903 46.6320143,29.7104903 L131.834914,29.7104903" id="Fill-20" fill="#4D3C10"></path>
                    <polygon id="Fill-22" fill="#FFFFFF" points="139.479687 73.7498065 39.2310535 73.7498065 39.5686296 72.0291182 139.142111 72.0291182"></polygon>
                    <polygon id="Fill-24" fill="#4D3C10" points="138.803927 75.469985 39.9066704 75.469985 39.2311608 73.7496608 139.479795 73.7496608"></polygon>
                    <polygon id="Fill-26" fill="#FFFFFF" points="58.7179152 35.7895152 119.768395 36.0188918 124.04853 67.7857247 54.3251358 67.7857247"></polygon>
                    <path d="M55.1017394,67.0977042 L123.273857,67.0977042 L119.17896,36.704582 L59.3057051,36.4795746 L55.1017394,67.0977042 Z M124.823703,68.4739636 L53.5483176,68.4739636 L58.1302683,35.0989461 L120.357973,35.3330559 L124.823703,68.4739636 Z" id="Fill-28" fill="#4D3C10"></path>
                    <path d="M73.7686203,44.0014509 C73.7686203,45.3791666 72.6718559,46.496194 71.3183334,46.496194 C69.9655261,46.496194 68.8687617,45.3791666 68.8687617,44.0014509 C68.8687617,42.6240993 69.9655261,41.5070718 71.3183334,41.5070718 C72.6718559,41.5070718 73.7686203,42.6240993 73.7686203,44.0014509" id="Fill-30" fill="#5FEA6B"></path>
                    <path d="M107.785841,44.1796 C107.785841,45.2689566 106.978734,46.1518743 105.982813,46.1518743 L77.8241814,46.1518743 C76.8282606,46.1518743 76.0215111,45.2689566 76.0215111,44.1796 C76.0215111,43.0902434 76.8282606,42.2073257 77.8241814,42.2073257 L105.982813,42.2073257 C106.978734,42.2073257 107.785841,43.0902434 107.785841,44.1796" id="Fill-32" fill="#5FEA6B"></path>
                    <path d="M71.7410544,51.9147237 C71.7410544,53.2920753 70.6442899,54.4091027 69.2911251,54.4091027 C67.9379602,54.4091027 66.8411957,53.2920753 66.8411957,51.9147237 C66.8411957,50.537008 67.9379602,49.4203446 69.2911251,49.4203446 C70.6442899,49.4203446 71.7410544,50.537008 71.7410544,51.9147237" id="Fill-34" fill="#5FEA6B"></path>
                    <path d="M110.038303,52.0928728 C110.038303,53.1818653 109.116763,54.064783 107.979947,54.064783 L75.8269043,54.064783 C74.6900884,54.064783 73.7685488,53.1818653 73.7685488,52.0928728 C73.7685488,51.0035162 74.6900884,50.1205985 75.8269043,50.1205985 L107.979947,50.1205985 C109.116763,50.1205985 110.038303,51.0035162 110.038303,52.0928728" id="Fill-36" fill="#5FEA6B"></path>
                    <path d="M70.3892126,59.3117172 C70.3892126,60.6890688 69.2924482,61.8060963 67.9392833,61.8060963 C66.586476,61.8060963 65.4897116,60.6890688 65.4897116,59.3117172 C65.4897116,57.9343656 66.586476,56.8173382 67.9392833,56.8173382 C69.2924482,56.8173382 70.3892126,57.9343656 70.3892126,59.3117172" id="Fill-38" fill="#5FEA6B"></path>
                    <path d="M112.065869,59.4898663 C112.065869,60.5788589 111.058862,61.4621406 109.815481,61.4621406 L74.6671662,61.4621406 C73.4241426,61.4621406 72.4167786,60.5788589 72.4167786,59.4898663 C72.4167786,58.4005097 73.4241426,57.517592 74.6671662,57.517592 L109.815481,57.517592 C111.058862,57.517592 112.065869,58.4005097 112.065869,59.4898663" id="Fill-40" fill="#5FEA6B"></path>
                </g>
            </g>
        </g>
    </g>
</svg>