<?xml version="1.0" encoding="UTF-8"?>
<svg width="25px" height="24px" viewBox="0 0 25 24" version="1.1" xmlns="http://www.w3.org/2000/svg" xmlns:xlink="http://www.w3.org/1999/xlink">
    <!-- Generator: Sketch 47.1 (45422) - http://www.bohemiancoding.com/sketch -->
    <title>github10</title>
    <desc>Created with Sketch.</desc>
    <defs></defs>
    <g id="Symbols" stroke="none" stroke-width="1" fill="none" fill-rule="evenodd">
        <g id="Footer" transform="translate(-549.000000, -377.000000)" fill="#000000">
            <g transform="translate(-1.000000, 0.000000)" id="github10">
                <g transform="translate(550.000000, 377.000000)">
                    <path d="M23.2496032,6.12236066 C22.1394841,4.23639344 20.6335317,2.74327869 18.7315476,1.64262295 C16.8291667,0.541967213 14.752381,-0.00826229508 12.4998016,-0.00826229508 C10.2474206,-0.00826229508 8.17003968,0.542163934 6.26805556,1.64262295 C4.36587302,2.74327869 2.85992063,4.23639344 1.74980159,6.12236066 C0.63968254,8.00832787 0.0847222222,10.0678033 0.0847222222,12.3007869 C0.0847222222,14.9828852 0.874007937,17.3948852 2.45297619,19.5371803 C4.03174603,21.6794754 6.07123016,23.1619672 8.57142857,23.9846557 C8.8625,24.0381639 9.07797619,24.0005902 9.21805556,23.8727213 C9.35813492,23.744459 9.4281746,23.5841311 9.4281746,23.3919344 C9.4281746,23.3598689 9.42539683,23.0714754 9.42003968,22.5265574 C9.41448413,21.9814426 9.41190476,21.5059672 9.41190476,21.1003279 L9.04007937,21.1640656 C8.80297619,21.2071475 8.50396825,21.2254426 8.14285714,21.2201311 C7.78194444,21.2152131 7.40734127,21.1776393 7.01944444,21.108 C6.63134921,21.0387541 6.27043651,20.878623 5.93630952,20.6276066 C5.60238095,20.3763934 5.36527778,20.0476721 5.22519841,19.6418361 L5.06349206,19.2729836 C4.95575397,19.0274754 4.78611111,18.7548197 4.55436508,18.4558033 C4.32261905,18.1565902 4.08829365,17.9535738 3.85119048,17.8467541 L3.73809524,17.7666885 C3.66269841,17.7131803 3.59265873,17.6488525 3.52797619,17.5740984 C3.46329365,17.4993443 3.41488095,17.4245902 3.38253968,17.3496393 C3.35019841,17.2748852 3.37698413,17.2133115 3.46329365,17.1651148 C3.54960317,17.116918 3.70575397,17.0933115 3.93214286,17.0933115 L4.25535714,17.1413115 C4.47083333,17.184 4.7375,17.3120656 5.05555556,17.5259016 C5.3734127,17.739541 5.63472222,18.0173115 5.83948413,18.3590164 C6.0875,18.7973115 6.38630952,19.1311475 6.73670635,19.360918 C7.08690476,19.5906885 7.43988095,19.705377 7.79543651,19.705377 C8.15099206,19.705377 8.45813492,19.678623 8.71686508,19.6253115 C8.97539683,19.572 9.21785714,19.4917377 9.44424603,19.384918 C9.54126984,18.6688525 9.80535714,18.118623 10.2363095,17.7340328 C9.62202381,17.6699016 9.06984127,17.5735082 8.57936508,17.4454426 C8.0890873,17.3171803 7.58253968,17.1088525 7.05992063,16.8200656 C6.53710317,16.5316721 6.10337302,16.1736393 5.75853175,15.7463607 C5.41369048,15.3188852 5.13075397,14.7578361 4.90992063,14.0634098 C4.6890873,13.3687869 4.57857143,12.567541 4.57857143,11.6592787 C4.57857143,10.3662295 5.00436508,9.26577049 5.85575397,8.3575082 C5.45694444,7.38531148 5.49464286,6.29547541 5.96884921,5.088 C6.28134921,4.99180328 6.74484127,5.064 7.35912698,5.30439344 C7.9734127,5.54478689 8.42321429,5.7507541 8.70892857,5.9215082 C8.99464286,6.0922623 9.22361111,6.23685246 9.39603175,6.35429508 C10.3984127,6.07652459 11.4329365,5.93763934 12.4998016,5.93763934 C13.5666667,5.93763934 14.6013889,6.07652459 15.6039683,6.35429508 L16.218254,5.96970492 C16.6382937,5.71318033 17.1343254,5.47809836 17.7051587,5.26445902 C18.2763889,5.05081967 18.7130952,4.992 19.014881,5.08819672 C19.4998016,6.29567213 19.5428571,7.3855082 19.1440476,8.35770492 C19.9954365,9.26596721 20.4212302,10.366623 20.4212302,11.6594754 C20.4212302,12.5677377 20.3105159,13.371541 20.089881,14.0714754 C19.8688492,14.7716066 19.5835317,15.3322623 19.2333333,15.7544262 C18.8829365,16.1765902 18.4464286,16.5318689 17.9238095,16.8202623 C17.4009921,17.1088525 16.8944444,17.3171803 16.4041667,17.4454426 C15.9136905,17.5737049 15.3615079,17.6700984 14.7472222,17.7342295 C15.3075397,18.2150164 15.5876984,18.9735738 15.5876984,20.0100984 L15.5876984,23.391541 C15.5876984,23.5837377 15.6551587,23.7440656 15.789881,23.8721311 C15.9246032,24.0001967 16.1373016,24.0377705 16.428373,23.9842623 C18.9287698,23.1615738 20.968254,21.679082 22.5470238,19.5365902 C24.1257937,17.3944918 24.9152778,14.9824918 24.9152778,12.3001967 C24.9146825,10.0676066 24.3593254,8.00832787 23.2496032,6.12236066 L23.2496032,6.12236066 Z" id="Shape" fill="#83DB84"></path>
                </g>
            </g>
        </g>
    </g>
</svg>