<?xml version="1.0" encoding="UTF-8"?>
<svg width="167px" height="149px" viewBox="0 0 167 149" version="1.1" xmlns="http://www.w3.org/2000/svg" xmlns:xlink="http://www.w3.org/1999/xlink">
    <!-- Generator: Sketch 47.1 (45422) - http://www.bohemiancoding.com/sketch -->
    <title>Group 13</title>
    <desc>Created with Sketch.</desc>
    <defs>
        <polygon id="path-1" points="166.383816 137.634921 0.148552742 137.634921 0.148552742 0.236574582 166.383816 0.236574582 166.383816 137.634921"></polygon>
    </defs>
    <g id="Home" stroke="none" stroke-width="1" fill="none" fill-rule="evenodd">
        <g id="Group-14" transform="translate(-27.000000, 0.000000)">
            <g id="Group-13" transform="translate(27.000000, 0.000000)">
                <g id="Group-3">
                    <mask id="mask-2" fill="white">
                        <use xlink:href="#path-1"></use>
                    </mask>
                    <g id="Clip-2"></g>
                    <path d="M9.96959164,41.7552222 C9.96959164,41.7552222 21.7287251,25.6742063 49.3159949,25.0992063 C76.9029084,24.5249365 84.5912573,19.9307778 100.872614,11.3156349 C117.152901,2.70085714 154.238193,-13.9547937 163.735502,24.5249365 C173.232455,63.0053968 153.786042,73.3433492 158.307908,95.1685238 C162.830844,116.992603 153.333534,143.411571 120.319027,136.519238 C87.3052324,129.627635 76.4507573,128.47873 62.4305125,132.499714 C48.4113365,136.519238 14.4921708,134.222159 4.09055938,95.7424286 C-6.31105205,57.2623333 6.80382185,45.7754762 9.96959164,41.7552222" id="Fill-1" fill="#2ECC71" mask="url(#mask-2)"></path>
                </g>
                <g id="icon" transform="translate(45.000000, 27.000000)">
                    <path d="M7.19088425,93.1045256 C5.21804486,92.6196145 3.64032376,92.1852479 2.04097927,91.85276 C0.561546303,91.5455444 -0.00970432146,90.7380174 0.000124491764,89.2027289 C0.0496617104,80.9991235 0.0303972365,72.7955181 0.0154574404,64.5915178 C0.0130985252,63.398984 0.103916759,62.3584786 1.60654573,62.1717009 C1.86917161,62.1393209 2.25839262,61.9063424 2.32326279,61.686395 C3.23183828,58.6177925 5.73897196,57.1125148 8.86296195,55.2751441 C5.0073151,55.2652721 5.07297157,53.0602693 5.10245801,50.6345294 C5.19248994,43.2206814 5.13705544,35.8044641 5.13312391,28.3898264 C5.13273076,26.9670783 4.89172826,25.4242872 6.98133395,25.2173707 C7.15903889,25.1992063 7.39139204,24.9500378 7.4637321,24.7577319 C9.28048994,19.905857 13.6228596,18.6015726 17.9184442,17.2384513 C18.7546796,16.9730928 19.5036351,16.7906588 19.5201476,15.5981251 C19.5386257,14.3321439 20.5038152,13.957404 21.6471027,13.8894848 C26.1117429,13.6249161 30.5767761,13.3556088 35.038271,13.0302287 C35.8068842,12.9745508 37.0810916,13.4906573 37.1998236,12.2914107 C37.3205215,11.0653122 37.96883,9.53436742 36.6462649,8.55032965 C34.7048777,7.10625816 33.8961629,5.30679583 34.7532354,3.00544264 C35.6665288,0.555615058 37.7427673,-0.00392808997 40.1001098,2.06972381e-05 C47.0895755,0.0110773014 54.0798275,0.00633875678 61.0696863,0.00396948445 C63.3240229,0.00317972701 65.4128423,0.498357643 66.2824957,2.84077822 C67.1423202,5.1551624 66.5136693,7.11889428 64.3819963,8.60363827 C63.0287653,9.5458189 63.6912273,11.1075642 63.8429842,12.3233958 C63.9876643,13.4847341 65.257547,12.974156 66.0336301,13.0314134 C70.4947318,13.3556088 74.959372,13.625311 79.4244052,13.8930387 C80.6628357,13.9676708 81.6535801,14.3337234 81.5635481,15.7963542 C81.4900286,16.9928367 82.3966384,16.9802006 83.0878005,17.1776399 C85.5139448,17.8702572 87.8649969,18.717667 89.9715081,20.1514716 C91.2225195,21.003225 92.3559782,21.9817345 93.0156882,23.3721024 C93.4839328,24.3596941 93.7721136,25.3322804 95.1296693,25.5830284 C95.9670842,25.7378209 96.0547572,26.7487104 96.0547572,27.5680837 C96.0527915,35.8514547 96.0189803,44.1340358 96.0732354,52.4162221 C96.0881752,54.7827303 94.3107326,54.8707883 92.394114,55.4725834 C95.2849646,57.0927708 96.9134023,59.8004542 98.9876751,61.6437481 C101.099297,63.5202118 100.878739,65.0934086 100.903114,66.9880367 C100.994719,74.0863766 100.836278,81.1890602 100.997471,88.2846359 C101.051726,90.6673341 100.23908,91.797477 97.9804183,92.1418112 C96.6896985,92.3384609 95.4241406,92.7076725 94.0878151,93.0125188 C97.6088892,98.1929328 96.4628495,103.7856 95.8334123,109.142525 C95.4410461,112.489517 92.1322744,114.570528 88.5585179,114.780998 C87.2273035,114.859184 85.8886191,114.816142 84.5534731,114.797583 C82.4174754,114.768362 80.5932477,114.616729 79.1436943,117.109203 C77.4610015,120.002874 72.9495762,119.435039 71.3219248,116.360513 C70.6460956,115.08466 69.9337032,114.774285 68.6307957,114.778629 C56.5358513,114.818906 44.4413001,114.816932 32.3467488,114.781788 C31.0638921,114.777444 30.3381325,115.048331 29.6371416,116.332477 C27.7059764,119.875328 22.9952228,119.780558 21.0770316,116.193084 C20.4920206,115.099665 19.9266673,114.729269 18.7676536,114.779813 C16.8864188,114.862343 14.9981072,114.831937 13.1141202,114.795609 C8.15725316,114.700838 4.84808833,111.399652 4.7588427,106.463273 C4.72503158,104.570619 4.82764439,102.672832 4.73446725,100.784522 C4.5956844,98.0041807 5.07415103,95.4453666 7.19088425,93.1045256 Z" id="Shape" fill="#725617"></path>
                    <path d="M50.1039439,16.0047176 C58.7660126,15.9555876 67.4123076,16.2925346 76.0526876,16.90608 C77.5937677,17.0155588 78.0038811,17.4704953 77.9975717,18.9451707 C77.9431528,31.6110532 77.9431528,44.2765489 77.9999377,56.9428183 C78.0058528,58.3060805 77.591796,58.8530876 76.2313236,59.0287179 C65.5297293,60.4124832 54.8076294,61.3738075 43.9948312,60.8592959 C37.5477694,60.5532969 31.1334377,59.9412989 24.7258099,59.1896478 C22.8006428,58.9641138 21.9760782,58.4650762 22.0005273,56.2793691 C22.1357859,43.9241278 22.0955632,31.5661785 22.0297084,19.2097766 C22.0214273,17.5923534 22.3246746,17.0051138 24.1548058,16.8809347 C32.7963688,16.2956294 41.4426639,15.9633246 50.1039439,16.0047176 Z" id="Shape" fill="#DEF0B2"></path>
                    <path d="M19.8954958,59.0252205 C19.6023058,62.3846676 21.583653,62.4272272 23.3435647,62.6948008 C27.2055716,63.2807829 27.208272,63.2669905 27.2086578,67.2991152 C27.2098151,72.4949288 27.2055716,77.6903483 27.2098151,82.8861619 C27.2167591,90.7297322 30.7817182,96.1190341 38.0748198,98.5926118 C46.2004267,101.348344 54.4695425,101.345585 62.5932205,98.5800016 C69.826141,96.1174579 73.4289062,90.6410664 73.4312209,82.8329625 C73.432764,77.086633 73.539624,71.3359688 73.3725829,65.5947623 C73.3147164,63.607467 74.0129716,62.94937 75.7493509,62.8654331 C76.5926579,62.8248439 77.4282495,62.6345081 78.270785,62.5623932 C80.0958928,62.4071296 81.2107864,61.6237184 80.7139065,59 C82.8337475,61.3340769 83.9440118,63.6334756 84.3054842,66.1366086 C85.2193883,72.4673439 85.3139035,78.8331515 84.0894494,85.1477299 C83.6519791,87.4029928 82.6651632,89.4647673 81.3326918,91.3299008 C80.1664899,92.962139 79.4512606,94.7886537 76.670199,92.8967234 C73.917299,91.0244966 70.1363052,93.6088079 70.2200187,97.1093322 C70.276342,99.4461676 69.3612805,100.249282 67.3972932,100.761967 C55.8864989,103.765569 44.4123534,103.776603 32.9277919,100.609068 C31.2311476,100.140913 30.4275755,99.4579897 30.4468643,97.428923 C30.4869851,93.2009454 26.504616,91.066268 22.9813207,93.3475395 C21.9624854,94.0072128 21.4818081,93.9701702 20.7361024,93.0622328 C17.9693146,89.6984508 16.276528,85.8653315 16.1091011,81.4828785 C15.9474608,77.23835 15.9856527,72.9804231 16.0928985,68.7327421 C16.1785408,65.3484685 17.4130251,62.3342267 19.8954958,59.0252205 Z" id="Shape" fill="#DEF0B2"></path>
                    <path d="M69.3043671,63.018008 C71.2715765,68.5968512 68.947759,74.9555876 63.8320761,77.957137 C59.270074,80.6332408 54.2071784,81.0084835 49.1118283,80.9998572 C45.523851,80.9935836 41.9456491,80.6885273 38.5015663,79.470655 C31.3174003,76.9294347 27.9867126,71.3364757 29.2696412,63.8665191 C29.3329861,63.4979422 29.2665131,63.0160475 29.8178479,63.0238895 C30.3750479,63.0317316 30.2960624,63.51245 30.3308629,63.8825954 C30.3797401,64.406053 30.242102,65.1537937 30.9787791,65.1686936 C31.733443,65.1839856 31.5938497,64.4280108 31.6626688,63.9061216 C31.8268962,62.6733493 32.7321019,63.2736592 33.3006415,63.3230642 C41.4060449,64.0174788 49.5223967,64.1758885 57.647351,63.8476982 C60.2206377,63.7433988 62.7876681,63.4920607 65.3601728,63.3544325 C66.1824827,63.3105169 66.8237516,63.0627077 67.6480166,64.1304045 C68.7608526,65.5725598 68.2603501,62.7505936 69.3043671,63.018008 Z" id="Shape" fill="#83DB84"></path>
                    <path d="M29.0005051,79.0619284 C30.5326722,79.5824408 30.4719064,80.4400321 30.252518,81.4253997 C30.1526884,81.8714412 30.2422589,82.4319328 30.7737626,82.6051756 C31.2835643,82.7717552 31.4133822,82.323754 31.4994014,81.9325858 C31.7290489,80.8864655 32.2498989,81.504574 32.6768381,81.7389614 C41.5644333,86.6117101 50.9215828,86.4125985 60.438933,84.22237 C63.9444115,83.4153406 66.8947111,81.5261314 69.5388141,79 C71.4091392,88.9998744 67.6065395,94.9685213 57.8413909,97.0435158 C51.2909128,98.4353378 44.6603343,98.4118206 38.2325716,96.2831287 C31.6966931,94.1187691 29.0048455,90.1455504 29.0001105,83.2244599 C28.9997159,81.8992698 29.0005051,80.5748636 29.0005051,79.0619284 Z" id="Shape" fill="#83DB84"></path>
                    <path d="M81.3010798,47.0798483 C81.3010798,44.9441911 80.4965119,42.326502 81.5178455,40.8047532 C82.6278957,39.1511277 85.6739784,40.2441742 87.8420726,39.8692146 C89.7099288,39.5467576 92.3237912,38.5095211 93.3027331,39.2768033 C94.613379,40.3045315 93.6575996,42.8139081 93.7445681,44.6833317 C93.8131814,46.1612594 93.7585529,47.6445614 93.7585529,49.1245562 C93.7585529,52.7385546 93.7585529,52.7393814 89.8790585,53.3346865 C89.6216492,53.3743736 89.3598696,53.3851221 89.1024604,53.4239823 C81.1992523,54.6063245 81.1992523,54.6067379 81.3010798,47.0798483 Z" id="Shape" fill="#83DB84"></path>
                    <path d="M18.9636907,47.119431 C18.9624427,48.8506994 18.9033692,50.5832085 18.9828272,52.3107546 C19.0414847,53.5957644 18.5876172,54.032097 17.2705281,53.998183 C14.2710926,53.9208425 11.3427949,53.4398427 8.41283313,52.8645455 C7.2475878,52.6350056 6.9975655,51.983195 7.00796576,50.9430278 C7.04166261,47.4817318 7.05871904,44.0196086 7.00089359,40.5595534 C6.97884503,39.2393888 7.35949461,38.7571483 8.73607326,39.1136589 C11.4734222,39.8233714 14.2848209,40.1252887 17.1037079,40.0897204 C18.7174125,40.0682139 19.0751815,40.749389 18.9878193,42.1762586 C18.8863128,43.8181925 18.9641067,45.4717069 18.9636907,47.119431 Z" id="Shape" fill="#83DB84"></path>
                    <path d="M15,90.9338907 C11.2702342,91.1959731 7.96570215,90.638475 4.66281987,89.9713938 C3.503429,89.7372279 2.97879535,89.2484796 3.00065509,87.9930671 C3.06087247,84.5101619 3.06128492,81.0239234 3.00147998,77.5406016 C2.97797046,76.1768562 3.42258922,75.7697742 4.74159741,76.1181063 C6.00781226,76.4518552 7.30908519,76.6768545 8.60664608,76.8551872 C12.3974542,77.3764355 12.3764193,77.3593522 12.6292498,81.355589 C12.8346489,84.5976616 13.667381,87.703068 15,90.9338907 Z" id="Shape" fill="#83DB84"></path>
                    <path d="M86,90.9028724 C87.7804109,86.8525715 88.5797621,82.7439568 88.3767986,78.4708144 C88.32512,77.3824314 88.8089817,77.0142222 89.8421368,77.0033925 C92.0889054,76.9788174 94.295248,76.5876993 96.4765848,76.0795373 C97.543081,75.8304547 98.0077716,76.1486807 97.998186,77.2857973 C97.9669288,80.9333174 97.9644282,84.5820871 97.9998531,88.2287741 C98.0098554,89.2700896 97.5089064,89.7203545 96.5745241,89.9098739 C93.1699883,90.6013074 89.7629519,91.2515049 86,90.9028724 Z" id="Shape" fill="#83DB84"></path>
                    <path d="M93.8962034,100.59179 C94.2953433,102.151509 93.5013007,103.336116 92.2348154,104.469572 C89.9569215,106.506706 87.806566,108.674561 85.5964666,110.781522 C85.0676698,111.285731 84.6049726,111.961663 83.7304241,111.867479 C82.596138,111.744877 80.8262789,112.461812 80.4631548,111.447305 C79.9657129,110.061745 79.5716576,108.2008 80.9266994,106.868827 C84.4528588,103.398229 88.0798624,100.021409 91.6204281,96.5642078 C92.7309861,95.4794683 93.1356343,96.1249533 93.4839283,97.1041418 C93.8690856,98.1856336 93.9915393,99.3073159 93.8962034,100.59179 Z" id="Shape" fill="#83DB84"></path>
                    <path d="M87.2119805,28.0317475 C93.1541665,28.0328152 93.1227461,28.0317475 92.9524142,33.217142 C92.9197534,34.2126495 92.655987,34.733716 91.4285223,34.9572335 C88.5262649,35.4857743 85.5971348,35.7641036 82.6502272,35.9869093 C81.2788899,36.0908379 80.9708868,35.5736865 81.0221518,34.5158931 C81.0998761,32.8907636 81.142459,31.2542447 81.0118161,29.6337422 C80.8997774,28.250994 81.5856528,27.9256834 83.019831,28.0132397 C84.4101859,28.0983045 85.8137705,28.0317475 87.2119805,28.0317475 Z" id="Shape" fill="#83DB84"></path>
                    <path d="M13.0759551,28 C19.0019915,28 19.0019915,28 18.9999249,33.0361127 C18.998685,36.207117 18.9945519,36.2305954 15.3404797,35.808696 C13.1437379,35.5550584 10.961462,35.2039499 8.76967991,34.9143832 C7.65291674,34.7674654 7.14413233,34.3697559 7.0883355,33.2652048 C6.81885749,27.9982213 6.77008693,28 13.0759551,28 Z" id="Shape" fill="#83DB84"></path>
                    <path d="M7.02024876,107.647563 C6.88003539,106.422379 7.48600102,105.614083 8.28094989,104.818319 C10.6527912,102.442306 12.9470072,99.9844189 15.3416078,97.6334692 C15.9683006,97.0177442 16.570202,95.5189511 17.4504982,96.1534736 C18.529938,96.9312754 19.9194728,97.7792548 19.9942533,99.5529102 C20.0470873,100.795639 19.7414628,101.742201 18.8343432,102.636548 C16.0955087,105.338385 13.4477112,108.137553 10.7568336,110.889517 C9.11410183,112.569185 8.24843664,112.377868 7.44332738,110.079969 C7.1750931,109.315952 7.1543659,108.460871 7.02024876,107.647563 Z" id="Shape" fill="#83DB84"></path>
                    <path d="M76.989148,106.077329 C76.989148,108.597402 76.9722201,111.117474 76.9958552,113.637547 C77.0079922,114.893839 76.6905146,115.947516 75.5975485,115.997972 C74.3787411,116.054736 74.0082441,114.911578 74.0060083,113.592215 C73.9967459,108.552069 74.0012174,103.511529 74.0002592,98.4713836 C73.9999398,97.1520212 74.3333871,95.9828461 75.5400575,96.0001906 C76.7550322,96.0179292 77.0182128,97.1796146 76.9990492,98.5171099 C76.9635964,101.036 76.989148,103.556862 76.989148,106.077329 Z" id="Shape" fill="#83DB84"></path>
                    <path d="M23.0090901,105.893114 C23.0097294,103.373854 23.0301865,100.8542 23.0004598,98.3353347 C22.9854366,97.0583686 23.336084,96.0548411 24.4219083,96.0020446 C25.5109291,95.9488541 25.985278,96.9401675 25.9887941,98.1942813 C26.0041369,103.390402 26.0041369,108.58613 25.9862369,113.781857 C25.9814423,115.019422 25.5502451,116.037922 24.4410869,115.998916 C23.3373626,115.959909 22.9959848,114.945744 23.0039758,113.686114 C23.0209169,111.089235 23.0090901,108.491175 23.0090901,105.893114 Z" id="Shape" fill="#83DB84"></path>
                    <path d="M50.3527814,5.99343051 C46.9287171,5.99343051 43.5038906,5.99134511 40.0794453,5.99468176 C39.0510066,5.99551592 37.9467402,6.00802835 38.0019916,4.43104497 C38.0496221,3.06176795 39.0487204,3.00587909 40.0074279,3.00587909 C46.9325275,3.0079645 53.856865,3.01338655 60.7812026,3.00003996 C61.8325039,2.99795455 62.9588709,3.07219498 62.9988805,4.48818507 C63.0407954,5.96798857 61.8980435,6.0046917 60.853601,5.99968673 C57.3533278,5.98342057 53.8530546,5.99343051 50.3527814,5.99343051 Z" id="Shape" fill="#83DB84"></path>
                    <path d="M7.57426728,65.0401127 C8.93515482,65.117743 10.6290178,64.7370693 11.5659867,65.3962153 C12.5844784,66.113406 11.492435,67.7400828 11.4819276,68.986086 C11.4449706,73.375407 11.3746798,73.437725 6.89418584,72.546044 C5.13764091,72.1970634 2.76731976,72.6774458 3.01841003,69.3849209 C3.343052,65.1334116 3.09413567,65.1148942 7.57426728,65.0401127 Z" id="Shape" fill="#83DB84"></path>
                    <path d="M92.316172,65.0330589 C96.9585807,65.0341308 96.841056,65.0380612 96.9960254,69.5098201 C97.0612757,71.3771323 96.3257272,72.0124329 94.5962242,72.2561196 C92.6976637,72.5237463 90.4320703,73.4924189 88.9917447,72.6852513 C87.4668903,71.8309184 88.6803229,69.4144178 88.3310857,67.7157569 C88.2595328,67.3673777 88.3318272,66.9789797 88.2039218,66.6577562 C87.6289038,65.2149306 88.3195927,64.9119301 89.6527745,65.0198383 C90.5347654,65.0913007 91.4278785,65.0334162 92.316172,65.0330589 Z" id="Shape" fill="#83DB84"></path>
                    <path d="M67,104 C63.4773006,108.327466 59.3893661,111.234994 53,109.480972 C55.7754601,104.666778 61.2413088,104.201213 67,104 Z" id="Shape" fill="#83DB84"></path>
                    <path d="M38,105.128642 C36.2303448,106.97934 34.7918591,108.448373 33.3919927,109.960063 C32.1794132,111.269321 30.3489239,111.265954 29.5450945,110.375778 C28.7416067,109.48635 28.8116684,107.518908 29.8533658,106.111615 C31.1093494,104.414331 32.4418882,103.407411 34.5488647,104.380655 C35.4757293,104.808717 36.5577549,104.833039 38,105.128642 Z" id="Shape" fill="#83DB84"></path>
                    <path d="M39,109.847076 C43.701322,104.752665 43.760411,104.731556 52,105.177745 C49.6185461,109.352483 46.6420409,110.448666 39,109.847076 Z" id="Shape" fill="#83DB84"></path>
                    <path d="M5,61.824644 C8.26320132,58.4682231 12.5222772,57.7930228 17,57 C14.9822607,61.7962856 13.5239274,62.3884363 5,61.824644 Z" id="Shape" fill="#83DB84"></path>
                    <path d="M97,61.9972471 C93.8012179,61.9972471 91.3892997,61.9931533 88.9769465,61.9999764 C88.2575033,62.001341 87.6215746,61.9453915 87.2109613,61.3678151 C86.2518486,60.0175212 85.2448891,58.6876967 84,57 C88.953458,57.7160856 93.3662462,58.4939203 97,61.9972471 Z" id="Shape" fill="#83DB84"></path>
                    <path d="M50.9849733,10.9707152 C49.7801856,10.9710549 48.5714933,10.9313027 47.3693086,10.9812478 C45.9337154,11.0420654 44.9653732,10.9836262 45.0009485,9.4404224 C45.0339207,7.99608967 45.945863,7.99133299 47.2643181,8.01069948 C49.84613,8.04773365 52.4322804,8.07049778 55.0127908,8.00288493 C56.4197503,7.96653028 57.022361,8.26382295 56.9993673,9.46284676 C56.9781089,10.5613007 56.6462174,11.0852153 55.1160459,10.9887226 C53.7481324,10.902083 52.3628652,10.9703754 50.9849733,10.9707152 Z" id="Shape" fill="#83DB84"></path>
                    <path d="M89,24.9760404 C86.688497,24.9760404 84.6019341,24.9250093 82.5200649,24.9971436 C81.4274988,25.0347455 80.9028793,24.710525 81.0148078,23.4631395 C81.0895471,22.6293749 81.0209458,21.7817974 81.0361103,20.9411263 C81.0440536,20.4975774 81.0014486,20.0663066 81.6585769,20.0060668 C83.3746928,19.8479854 87.9911997,22.8127801 89,24.9760404 Z" id="Shape" fill="#83DB84"></path>
                    <path d="M80.18921,101 C79.1370402,97.0347213 82.6196875,93.1012588 87,94.1812837 C84.8149123,96.3693457 82.4711253,98.7151058 80.18921,101 Z" id="Shape" fill="#83DB84"></path>
                    <path d="M15.6936865,24.933739 C15.0390672,24.9341233 14.3763888,24.9963921 13.7312939,24.9160577 C13.1374843,24.8418733 12.2319337,25.3530924 12.0220306,24.4920918 C11.8593832,23.8236632 12.6341564,23.3416567 13.1356527,22.9203814 C14.7522363,21.5623836 16.661512,20.8301487 18.5953313,20.1367358 C19.6008881,19.7758074 19.8247114,20.1340451 19.899075,21.1564833 C20.1727183,24.9371983 20.2060537,24.9341233 15.6936865,24.933739 Z" id="Shape" fill="#83DB84"></path>
                    <path d="M15,110.99245 C17.0521914,108.939517 18.9685675,107.021887 20.9889152,105 C20.9889152,106.597578 20.9605245,108.241918 20.999274,109.884341 C21.0222936,110.847181 20.4959136,111.011998 19.7009723,110.99935 C18.1164611,110.974819 16.5315663,110.99245 15,110.99245 Z" id="Shape" fill="#83DB84"></path>
                    <path d="M64,109.995541 C66.1287525,107.865671 67.9347943,106.059943 69.9941657,104 C69.9941657,105.773314 69.9817127,107.377272 69.9998585,108.980866 C70.0080419,109.72348 69.6611368,110.005739 68.9705286,109.999912 C67.4373856,109.986072 65.9042426,109.995541 64,109.995541 Z" id="Shape" fill="#83DB84"></path>
                    <path d="M12,95.0005022 C10.3091378,96.7373886 8.68332285,98.408169 7.13394769,100 C6.4581173,97.0596078 8.3794013,94.9627274 12,95.0005022 Z" id="Shape" fill="#83DB84"></path>
                    <path d="M61,12.533368 C60.9513578,13.1642909 61.1222748,13.9385676 60.0824926,13.9960758 C58.8276139,14.0665025 59.0079023,13.1747091 59.0105798,12.4691922 C59.0128111,11.850771 58.8307377,11.0581584 59.8919403,11.0031506 C61.1276299,10.9406417 60.9486803,11.8207667 61,12.533368 Z" id="Shape" fill="#83DB84"></path>
                    <path d="M89,110 C90.1652614,108.834245 91.0229342,107.976694 92,107 C91.7527825,108.724376 90.9456998,109.635077 89,110 Z" id="Shape" fill="#83DB84"></path>
                    <path d="M40,12.0450636 C40.0743551,11.6676526 39.8234385,11.0734738 40.4448532,11.0058949 C41.0989739,10.9345934 40.9865469,11.5256224 40.9735156,11.9399727 C40.9607398,12.3359965 41.1784393,12.9267392 40.5514033,12.9943181 C39.9049481,13.0636151 40.0390939,12.4846128 40,12.0450636 Z" id="Shape" fill="#83DB84"></path>
                    <path d="M53.9414267,59 C54.3868275,59.028461 55.0084778,58.9301155 54.9999124,59.4697475 C54.9926648,59.9403404 54.4158181,59.9907812 53.9466977,59.9995167 C53.535888,60.0068433 53.0740153,59.934141 53.0107631,59.5556941 C52.9109433,58.955195 53.527652,59.0614307 53.9414267,59 Z" id="Shape" fill="#725617"></path>
                    <path d="M66.1032729,58.989761 C65.49652,59.0272889 65.0368688,58.9771583 65.0025117,58.5747127 C64.9581477,58.0459602 65.5101961,58.0257959 65.9681795,58.0126331 C66.4111524,57.9994703 67.0339164,57.913492 66.9985586,58.4638091 C66.9702057,58.9035026 66.3744604,58.9494324 66.1032729,58.989761 Z" id="Shape" fill="#725617"></path>
                    <path d="M76.4030661,23 C76.8500981,23.0013177 76.9701501,23.3475358 76.990393,23.7576609 C77.016259,24.2794587 77.0303166,24.8704342 76.4691368,24.9923188 C76.1595883,25.0595201 76.0162006,24.673113 76.0212614,24.3278831 C76.0288525,23.8439684 75.8517266,23.2668284 76.4030661,23 Z" id="Shape" fill="#725617"></path>
                    <path d="M40,58.4964542 C39.8966866,58.8927427 39.5594374,59.0292483 39.1396033,58.9949108 C38.6440938,58.9555071 37.9870337,58.9822453 38.0001946,58.3745843 C38.0090783,57.9411437 38.5450577,58.0005307 38.9165253,58.0053155 C39.3649845,58.0115075 39.8483201,57.995746 40,58.4964542 Z" id="Shape" fill="#725617"></path>
                    <path d="M76.4937245,46 C76.9706117,46.1530153 77.0237247,46.5975511 76.9929304,47.0691285 C76.9635488,47.5202598 76.9220189,48.0624089 76.3886286,47.9941456 C75.9606167,47.939403 76.0066669,47.438146 76.0024291,47.0618734 C75.9964963,46.6114017 75.9648545,46.1259738 76.4937245,46 Z" id="Shape" fill="#725617"></path>
                    <path d="M77,20.0416848 C76.9703397,20.467908 76.9130155,20.9704283 76.5094644,20.9981727 C75.9085584,21.0387489 76.0175029,20.3947322 76.0043839,19.9456199 C75.9926909,19.543673 75.9713013,19.0123679 76.4338877,19.0002297 C76.9760436,18.9870511 76.9940109,19.5433262 77,20.0416848 Z" id="Shape" fill="#725617"></path>
                    <path d="M76.4662672,40 C75.8983141,39.8446665 76.009963,39.3064256 76.0071075,38.8604353 C76.0045376,38.4595527 76.0265247,37.9358955 76.4908243,38.00644 C76.9845351,38.0817327 77.0010969,38.642697 76.9999547,39.1266729 C76.9993836,39.5689325 76.8666042,39.9077495 76.4662672,40 Z" id="Shape" fill="#725617"></path>
                    <path d="M76,34.1721143 C76.0364681,33.6510479 75.9282035,33.0270804 76.4777885,33.0004919 C76.8604182,32.9821907 76.9695375,33.4780497 76.9931847,33.9045023 C77.0216754,34.4069222 76.9806488,34.95216 76.4786432,34.9977403 C76.027351,35.0388317 76.0364681,34.5101686 76,34.1721143 Z" id="Shape" fill="#725617"></path>
                    <path d="M76.3153745,42 C76.8634316,42.0071852 76.9849067,42.3688413 76.9962595,42.8109034 C77.0084638,43.2909444 77.0195328,43.8517337 76.5319294,43.9800412 C76.0377982,44.1097173 76.0321218,43.580064 76.0131059,43.1841926 C75.9915355,42.7243386 75.9520845,42.2319799 76.3153745,42 Z" id="Shape" fill="#725617"></path>
                    <path d="M62.999511,58.3238257 C63.0167446,58.8213622 62.5752207,58.8866867 62.1884996,58.9475061 C61.7238829,59.0207146 61.1662048,59.0975836 61.0214429,58.577803 C60.8915019,58.1101131 61.377833,58.0442254 61.7873024,58.0338072 C62.2271028,58.0222628 62.7523817,57.8696512 62.999511,58.3238257 Z" id="Shape" fill="#725617"></path>
                    <path d="M58.0774228,58.0008635 C58.5204578,57.9907312 58.9925897,58.0648421 58.999864,58.4866378 C59.0106021,59.0740251 58.3832867,58.9825444 57.934363,58.9949927 C57.5422475,59.0051251 56.9897527,59.0416016 57.0001445,58.5749341 C57.0115754,58.0515253 57.6170681,58.0665791 58.0774228,58.0008635 Z" id="Shape" fill="#725617"></path>
                    <path d="M76.9982089,28.1435383 C76.9589806,28.5309712 76.9305542,29.0946928 76.4018241,28.9864395 C75.9009519,28.8835486 76.0138045,28.2913393 76.0052766,27.8532988 C75.9970329,27.4360376 76.1056216,26.9550979 76.4950626,27.0033595 C76.9507369,27.0589943 77.0124221,27.5952336 76.9982089,28.1435383 Z" id="Shape" fill="#725617"></path>
                    <path d="M76.4151535,54 C75.865928,53.7309038 76.0207072,53.1655702 76.0184435,52.6760336 C76.0167457,52.3185627 76.1955765,51.9491761 76.4731604,52.0057756 C77.0354021,52.1206297 77.0192734,52.7097948 76.9870159,53.2301135 C76.9618325,53.6349163 76.8429892,53.9781546 76.4151535,54 Z" id="Shape" fill="#725617"></path>
                    <path d="M25.1082794,57.9998533 C24.3645118,57.9994168 23.9709121,57.643621 24.0016762,56.9198057 C24.0184155,56.5063841 24.0650141,55.9702893 24.6232923,56.0012851 C25.416373,56.044941 25.8149492,56.7080745 25.9814373,57.3323542 C26.1040414,57.7937974 25.5973383,58.0064017 25.1082794,57.9998533 Z" id="Shape" fill="#725617"></path>
                    <path d="M29.0881108,57.9882358 C28.6986055,57.8353733 28.0188942,57.94696 28.000363,57.4183463 C27.9839296,56.9449567 28.5290273,56.987371 28.9206305,57.0155523 C29.3667785,57.0480036 29.9964904,56.9651675 29.9999869,57.531641 C30.0027841,57.9617624 29.5569858,58.0334967 29.0881108,57.9882358 Z" id="Shape" fill="#725617"></path>
                    <path d="M48.0749659,60 C47.5237306,59.8924701 46.903591,59.9169995 47.0125725,59.3522537 C47.0976483,58.9095842 47.638337,59.0082721 48.0215298,59.0116948 C48.409996,59.0151176 48.9538486,58.96121 48.9967381,59.4050203 C49.0515804,59.9726184 48.4012071,59.8804907 48.0749659,60 Z" id="Shape" fill="#725617"></path>
                    <path d="M25,28.0190847 C24.9534029,28.4211033 25.0367526,28.9749572 24.5520772,28.9987678 C23.8895452,29.0318955 24.0234298,28.389701 24.0066942,27.9586957 C23.9912712,27.5742762 23.9627223,27.0269788 24.4378815,27.0014428 C25.1027105,26.9652094 24.9189473,27.6198268 25,28.0190847 Z" id="Shape" fill="#725617"></path>
                    <path d="M44,58.5885032 C43.8728534,59.0976511 43.3891282,58.9941862 43.002006,58.9860096 C42.6116873,58.9778331 42.0295833,59.062429 42.0015258,58.5715211 C41.9656548,57.95482 42.5694235,57.9689717 43.0577658,58.0249497 C43.4487947,58.0692918 43.9271926,58.0664615 44,58.5885032 Z" id="Shape" fill="#725617"></path>
                    <path d="M77,56.9723022 C76.8896816,57.6784359 76.4577118,58.0101969 75.7718767,57.9997614 C75.2995897,57.9923696 74.8476829,57.7501797 75.0492688,57.2575385 C75.2809818,56.6892401 75.4883273,55.889622 76.3806218,56.0126736 C76.8529088,56.0783301 76.9738603,56.5479264 77,56.9723022 Z" id="Shape" fill="#725617"></path>
                    <path d="M24.521185,54 C23.9889715,53.9042066 24.0037734,53.4682281 24.0113389,53.0931783 C24.0202201,52.6707395 23.8633191,52.0556984 24.4886206,52.002555 C25.0030718,51.9582125 24.9856383,52.5008162 24.9892566,52.8704501 C24.9951774,53.2999973 25.0981334,53.8107826 24.521185,54 Z" id="Shape" fill="#725617"></path>
                    <path d="M70.0263616,57.9941323 C69.4763762,58.0227029 69.001421,57.9585648 69.0000053,57.5402096 C68.9978818,56.9816252 69.6310375,57.0568417 70.0762637,57.0192335 C70.4694644,56.9859983 70.997153,56.9396439 70.9999844,57.4168896 C71.0038774,57.9807216 70.2794115,57.7976366 70.0263616,57.9941323 Z" id="Shape" fill="#725617"></path>
                    <path d="M34,58.4267362 C34.0934226,57.9053889 34.5755691,58.0071372 34.9718097,58.0095383 C35.3970436,58.0122396 35.9149842,58.0476564 35.9905097,58.4582511 C36.073552,58.9099654 35.5964167,59.0195173 35.1532858,58.9973068 C34.666844,58.9732954 34.1607155,58.9318758 34,58.4267362 Z" id="Shape" fill="#725617"></path>
                    <path d="M24.5531192,21 C23.8432586,20.3167626 23.921269,19.7181102 24.2083201,19.1184742 C24.2528974,19.0273322 24.6463263,18.9634016 24.6932676,19.023398 C25.1515363,19.60992 25.0893982,20.213818 24.5531192,21 Z" id="Shape" fill="#725617"></path>
                    <path d="M24.4050362,46.0008586 C24.8707604,45.9803804 24.9632996,46.3295874 24.9733948,46.6895725 C24.986855,47.1645228 25.1312161,47.77815 24.5742987,47.9728725 C24.1553487,48.1187347 24.0379082,47.6452214 24.030505,47.2960143 C24.0210829,46.8325605 23.8558584,46.2861162 24.4050362,46.0008586 Z" id="Shape" fill="#725617"></path>
                    <path d="M24.4671246,42 C24.9406255,42.0361488 24.9734595,42.4301702 24.9738051,42.7696071 C24.9748419,43.2326727 25.1628598,43.9101005 24.5162028,43.9939656 C23.9379787,44.068432 24.0164347,43.4365517 24.0102135,43.0443377 C24.0033011,42.6488702 23.9086009,42.1579701 24.4671246,42 Z" id="Shape" fill="#725617"></path>
                    <path d="M24.4105227,33.0000365 C24.8783209,32.9957414 24.9533579,33.3712053 24.963836,33.7115925 C24.9773562,34.1754641 25.1581886,34.7921698 24.5622867,34.9757857 C24.1323451,35.108934 24.0214796,34.66618 24.0191136,34.3021697 C24.0157335,33.8332872 23.8751237,33.2967568 24.4105227,33.0000365 Z" id="Shape" fill="#725617"></path>
                    <path d="M25,38.9129256 C24.9609432,39.3248581 25.0933216,39.9016364 24.5752137,39.988608 C23.9765726,40.0894078 24.0221965,39.4991653 24.0114818,39.0908717 C24.0007671,38.6782114 23.9185058,38.1036165 24.4182951,38.0130059 C25.025577,37.9031088 24.9312185,38.5144573 25,38.9129256 Z" id="Shape" fill="#725617"></path>
                    <path d="M24.4040594,24.9997374 C23.8820322,24.692378 24.0117827,24.1592402 24.0205223,23.6858567 C24.0275813,23.320532 24.1536342,22.8865077 24.5751552,23.0271273 C25.1603769,23.2228497 24.9751632,23.8357793 24.9617175,24.3002176 C24.9519694,24.6462205 24.862892,25.0111873 24.4040594,24.9997374 Z" id="Shape" fill="#725617"></path>
                    <path d="M66.0499864,39.9982076 C65.6809658,39.6089139 65.3139144,39.2196202 64.946863,38.8303264 C64.5790239,37.8961019 65.0524099,35.7549864 62.9532855,37.1987514 C61.4807477,38.209789 61.5788118,40.7631215 59.2020358,41.304835 C57.3080978,38.3630131 55.4373959,35.3898225 53.4993487,32.4632827 C51.949226,30.1247052 51.0335666,30.7496664 50.6117725,33.2012517 C48.4898058,35.6170445 47.1448696,38.4949225 45.913357,41.4399618 C43.6889939,42.4791508 43.7866642,40.2547876 43.0009694,39.2739122 C41.9663728,37.9809583 40.995577,36.2745809 39.4801115,38.8102183 C38.4344876,39.2155985 38.1745585,40.1136284 38.0902784,41.1218509 L38.0902784,41.1218509 C36.4810809,43.6007833 34.8730649,46.0821286 33,48.9700607 C37.6184677,49.3802669 37.3490866,45.3835716 39.3186404,43.8822973 C40.5076191,43.9695667 41.6922657,44.056836 42.8804568,44.1441054 L42.8804568,44.1441054 C45.5478809,48.6684385 46.3032506,45.4744604 47.2401769,43.0160383 C48.4248235,41.576295 49.5893847,40.0951289 51.6759066,41.6297827 C53.5631494,43.0160383 54.1208155,41.5996205 54.6446121,40.134943 L54.6446121,40.134943 C54.6446121,40.134943 54.6446121,40.134943 54.6453997,40.134943 C56.3329698,40.9308235 56.8815778,42.6902864 57.5321882,44.1694417 C59.3284559,48.2610474 60.8411645,45.3095736 62.4641461,44.1364643 C63.5385198,44.1428989 64.611712,44.1513443 65.6868733,44.1585833 L65.6868733,44.1585833 C67.2866188,45.9140245 67.5166167,49.1120242 72,50 C69.559817,45.8995466 67.8060832,42.948475 66.0499864,39.9982076 Z" id="Shape" fill="#725617"></path>
                    <path d="M52.9997195,74.5427865 C52.974895,76.3334775 51.3026283,77.9916919 49.5137618,77.9999717 C47.7282804,78.0078751 46.0409686,76.3598222 46.0007228,74.569884 C45.9589726,72.6963952 47.7324178,70.9380707 49.5991429,71.0016745 C51.3981649,71.0626438 53.0245439,72.7569882 52.9997195,74.5427865 Z" id="Shape" fill="#725617"></path>
                    <path d="M43.7416548,79 C44.3414873,79.0478844 44.9314698,79.0212215 44.9956647,79.506867 C45.0479718,79.9008247 44.6186466,80.0485589 44.1563748,79.9862548 C43.6907064,79.9236786 43.0952895,79.8646394 43.0100358,79.4461953 C42.9176494,78.99211 43.4869128,79.042715 43.7416548,79 Z" id="Shape" fill="#908686"></path>
                    <path d="M48.1063576,81 C47.6251274,80.9828035 47.0507338,80.9667535 47.0024395,80.4752213 C46.960653,80.0498954 47.463804,79.9931471 47.8885196,80.0005989 C48.3608445,80.0089105 48.9575014,79.9773837 48.998603,80.4918445 C49.0294291,80.8770453 48.5444313,80.9939812 48.1063576,81 Z" id="Shape" fill="#8F8484"></path>
                    <path d="M68.4802891,67 C68.9105263,67.0568834 69.0120269,67.4089365 68.9989116,67.8591482 C68.9846559,68.3450854 68.9555743,68.9125325 68.4879872,68.9926549 C68.0554691,69.0668809 67.9964505,68.563948 68.000157,68.1428717 C68.0038635,67.6704616 67.9744968,67.164407 68.4802891,67 Z" id="Shape" fill="#8D8283"></path>
                    <path d="M41,78.6771996 C40.8717349,78.9517 40.6148423,79.0696828 40.2010604,78.9583603 C39.7053917,78.8244403 38.9832662,78.8208723 39.0002958,78.3265814 C39.0086294,78.0658774 39.4282085,77.932671 39.8014094,78.0340031 C40.2829471,78.1650686 40.9749992,78.1707775 41,78.6771996 Z" id="Shape" fill="#8B8182"></path>
                    <path d="M62,78.3321517 C61.8749891,78.8047595 61.2663177,78.8587999 60.7652055,78.9690914 C60.4282815,79.0437654 59.9823736,78.9963572 60.0005376,78.6797297 C60.0283178,78.1923836 60.6854265,78.1417821 61.1993603,78.0282973 C61.5897077,77.9420783 61.861099,78.0555631 62,78.3321517 Z" id="Shape" fill="#887D7D"></path>
                    <path d="M67.9597186,73.7582625 C67.6900245,74.2088094 67.5524065,74.8755899 66.7368588,74.9931082 C66.3106127,75.0545792 65.8663562,74.6958774 66.0376859,74.2746196 C66.2519634,73.7477762 66.416366,73.0958211 67.2845596,73.005784 C67.778691,72.9555224 68.1208886,73.235035 67.9597186,73.7582625 Z" id="Shape" fill="#8B7F80"></path>
                    <path d="M36.7034628,76.0072667 C37.2438562,76.3425719 37.9879153,76.5426458 37.9999413,77.4764664 C38.0053724,77.8740547 37.6329549,78.0728489 37.3501503,77.9755848 C36.6910489,77.7482086 36.0664737,77.3608587 36.0013007,76.5021191 C35.9768608,76.1770523 36.3000106,75.9565017 36.7034628,76.0072667 Z" id="Shape" fill="#887C7D"></path>
                    <path d="M66,76.6731397 C65.6936002,77.3510862 65.2447678,77.9011493 64.5212713,77.9970619 C64.2288502,78.0360008 63.9307621,77.6810421 64.014257,77.3387897 C64.2054263,76.5591922 64.783468,76.1419312 65.4722064,76.0066698 C65.7706724,75.9472368 65.9667532,76.2944077 66,76.6731397 Z" id="Shape" fill="#8D8283"></path>
                    <path d="M35,74.5317642 C34.7837956,74.6853522 34.5140972,75.0227303 34.3041337,74.9987897 C33.3617498,74.8912412 33.1495574,74.213907 33.0100276,73.582244 C32.9565337,73.3409966 33.1130033,72.9457928 33.5775085,73.0061968 C34.5305912,73.1292145 34.651844,73.8455903 35,74.5317642 Z" id="Shape" fill="#8A7F80"></path>
                    <path d="M32.563322,69 C32.0787182,68.8230253 32.0314911,68.3152636 32.0032151,67.831388 C31.9770447,67.3847893 32.1063927,66.8983803 32.5479807,67.0185349 C33.0431128,67.1535278 32.9769348,67.7734821 32.9976906,68.2541005 C33.0130319,68.6189073 32.9609919,68.9572945 32.563322,69 Z" id="Shape" fill="#7D7171"></path>
                    <path d="M59,79.4659118 C58.8525957,79.9821118 58.2495135,79.8683825 57.8158046,79.9692852 C57.4533175,80.0536558 57.0061438,79.9704253 57.0001201,79.642064 C56.9887813,78.9648186 57.7832056,79.1386905 58.261561,79.0238211 C58.6378672,78.9331796 58.9287782,79.1056264 59,79.4659118 Z" id="Shape" fill="#7F7373"></path>
                    <path d="M54.0293268,80.9980719 C53.5954139,81.0048643 53.1091751,81.0163818 53.0184057,80.5931865 C52.8820738,79.9585413 53.5334772,80.0462517 53.9705937,80.0199681 C54.3568083,79.9966377 54.8971528,79.9210355 54.9861423,80.3575202 C55.1053883,80.9463907 54.4269321,80.8678352 54.0293268,80.9980719 Z" id="Shape" fill="#908586"></path>
                    <path d="M69,81.9481877 C68.9850136,82.4306158 68.9151712,82.9948172 68.4610541,82.9999495 C67.9368118,83.0064503 68.0049576,82.3844259 68.000999,81.9382654 C67.9976058,81.5468486 67.9905367,81.0558668 68.4101568,81.0052289 C68.9454268,80.940563 68.9575856,81.4883413 69,81.9481877 Z" id="Shape" fill="#938889"></path>
                    <path d="M32.9916996,85.1497434 C33.0340542,85.6192348 32.9202782,86.0509992 32.5122347,85.9951073 C32.0330466,85.9294344 32.0219735,85.3495567 32.0039797,84.8702842 C31.9882005,84.4584313 31.9984432,83.9246643 32.442751,84.0088514 C32.8729407,84.0909425 32.9200013,84.6774574 32.9916996,85.1497434 Z" id="Shape" fill="#8D8283"></path>
                    <path d="M49.0527602,96 C48.5153554,95.9555064 47.9320958,95.9577592 48.0064362,95.4013076 C48.0641021,94.966791 48.5820533,94.9924171 48.9933573,95.0056525 C49.467538,95.0211408 50.0730302,95.0067789 49.9927843,95.5660466 C49.9361605,95.9577592 49.4237675,95.9884542 49.0527602,96 Z" id="Shape" fill="#8E8384"></path>
                    <path d="M58.8751376,95.9988532 C58.463647,96.0002356 57.9268891,96.0359009 58.0082593,95.5752939 C58.0839194,95.1492463 58.6592211,95.0745981 59.1342375,95.0168149 C59.5707102,94.9640082 60.0600022,95.0168149 59.9939781,95.4497744 C59.9268834,95.8946223 59.3626452,95.9482584 58.8751376,95.9988532 Z" id="Shape" fill="#887C7D"></path>
                    <path d="M42,94.5251394 C41.9806364,94.9568519 41.6539644,95.0174101 41.2738632,94.9964166 C40.7618022,94.9684252 40.2303776,94.8796066 40.0378169,94.4877279 C39.8793218,94.1644818 40.246514,94.0011093 40.6284082,94.0000327 C41.2186409,93.9973412 41.7220958,94.1607137 42,94.5251394 Z" id="Shape" fill="#8A7F80"></path>
                    <path d="M38,93.3883892 C37.8545548,93.8650008 37.5987337,94.1391421 37.1845472,93.9277129 C36.6625688,93.6602907 36.029107,93.4300479 36.0006824,92.5910502 C35.9803792,92.0154431 36.4170839,91.9065929 36.7792202,92.0674045 C37.3115349,92.3030227 37.8593538,92.5820913 38,93.3883892 Z" id="Shape" fill="#8B8081"></path>
                    <path d="M36,88.3561662 C35.9619053,88.7431615 35.729874,89.0365722 35.3861561,88.9963001 C34.5082467,88.8923599 34.171455,88.2625816 34.0134486,87.5898464 C33.9476487,87.3090927 34.122105,86.9470277 34.5632242,87.0064769 C35.4419994,87.1246083 35.6995714,87.7915903 36,88.3561662 Z" id="Shape" fill="#897D7E"></path>
                    <path d="M67.5620169,85 C67.8156688,85.0089885 67.9887709,85.1297942 67.9981061,85.4832228 C68.0138427,86.0800606 67.9386273,86.670067 67.5017379,86.943318 C67.1774049,87.1457395 66.9971013,86.7689408 67.0000353,86.3978946 C67.0040361,85.819753 67.1429978,85.2825991 67.5620169,85 Z" id="Shape" fill="#8A7F80"></path>
                    <path d="M46,95.5960689 C45.7885034,96.1163136 45.3161846,95.987311 44.9237093,95.9822299 C44.4772953,95.976302 43.9659419,95.8385487 44.0017828,95.4710182 C44.0525278,94.9640408 44.6284657,94.9567014 45.1479809,95.0391276 C45.5805554,95.1080043 45.9201565,95.2626945 46,95.5960689 Z" id="Shape" fill="#8C8081"></path>
                    <path d="M67,91.6080756 C66.8334019,92.2561784 66.3714709,92.7272222 65.7387347,92.9543922 C65.2359956,93.134792 64.9086892,92.7518601 65.0226995,92.3000256 C65.1876148,91.6444061 65.6369248,91.1224161 66.3567463,91.0084134 C66.6853147,90.9562144 66.9890617,91.1458012 67,91.6080756 Z" id="Shape" fill="#857A7B"></path>
                    <path d="M62.9977111,93.378135 C62.7574619,93.7802134 62.2327167,93.9378508 61.6560455,93.9945179 C61.2479509,94.0344424 60.876424,93.8528503 61.0391499,93.5623029 C61.2669661,93.1548154 61.8465627,92.9984659 62.451391,93.0000113 C62.7165062,93.0005265 63.0298906,93.0716179 62.9977111,93.378135 Z" id="Shape" fill="#867B7C"></path>
                    <path d="M56,95.4165756 C55.8729208,96.0508639 55.2771477,95.9114882 54.8484338,95.9808534 C54.4157934,96.0511865 53.9410311,95.9398796 54.0059986,95.4433538 C54.0698951,94.9526354 54.6189059,95.029421 55.0076398,95.0158706 C55.3920901,95.001675 55.8629258,94.90779 56,95.4165756 Z" id="Shape" fill="#7D7171"></path>
                    <path d="M85.9999467,35.3751929 C86.0053046,35.8922022 85.6058035,35.946841 85.2133346,35.961393 C84.7846997,35.9775925 84.1993451,36.1324482 84.0349234,35.6810603 C83.8430423,35.1530683 84.4859947,35.1343978 84.8881748,35.0399468 C85.3693845,34.9273744 85.7672113,35.0569699 85.9999467,35.3751929 Z" id="Shape" fill="#988E8E"></path>
                    <path d="M90,34.5252299 C89.6920132,35.0331603 89.1055579,35.0045283 88.5415081,34.997084 C88.2345881,34.9927892 87.9422496,34.8636593 88.0098218,34.5996729 C88.1574136,34.0253165 88.7879687,34.0092826 89.3409935,34.0001204 C89.7112179,33.9946803 89.9946654,34.1736299 90,34.5252299 Z" id="Shape" fill="#8B8081"></path>
                    <path d="M9.93674963,34.012434 C10.337497,34.0951386 10.9358825,34.1323557 10.9953791,34.5756525 C11.0555596,35.0266684 10.515303,35.0090248 10.1097685,34.9946893 C9.62866657,34.977597 9.04806164,34.9538884 9.00224241,34.4744772 C8.96428767,34.0794248 9.41358971,33.9575733 9.93674963,34.012434 Z" id="Shape" fill="#938989"></path>
                    <path d="M16.0491681,36 C15.6429894,35.894616 14.9588412,36.1240189 15.0019429,35.4268141 C15.0256853,35.0409418 15.4333251,34.9660806 15.7949411,35.0120254 C16.2551796,35.0695368 16.924717,34.976362 16.9948486,35.5251296 C17.0616928,36.0436958 16.4633827,35.9624088 16.0491681,36 Z" id="Shape" fill="#7F7374"></path>
                    <path d="M9.0617523,73 C8.60167939,72.9531659 7.98542199,73.0318931 8.00026305,72.4667238 C8.01086381,72.0443553 8.49178487,71.9676394 8.92676931,72.0104509 C9.39249595,72.0561356 9.99285222,72.0699272 9.99991939,72.5874005 C10.0076933,73.0701074 9.45150684,72.9686815 9.0617523,73 Z" id="Shape" fill="#8C8283"></path>
                    <path d="M6,71.5516779 C5.88920956,72.0355407 5.45408623,72.0116256 5.04936911,71.9916037 C4.57055869,71.9674106 4.01241254,71.928201 4.00018016,71.4326588 C3.98934576,70.9952358 4.46920466,70.9774385 4.89489159,71.0110865 C5.38243942,71.0497399 5.81826174,71.1623631 6,71.5516779 Z" id="Shape" fill="#8C8182"></path>
                    <path d="M90.0718889,72.0015841 C90.5151916,71.988932 90.9913709,72.0438539 90.9998552,72.4691393 C91.010814,73.032736 90.3974725,72.9783892 89.9350801,72.9921916 C89.5405619,73.0042686 88.9943874,73.0560275 89.0000436,72.5864595 C89.0060533,72.0697333 89.6123246,72.0792225 90.0718889,72.0015841 Z" id="Shape" fill="#8D8282"></path>
                    <path d="M96.9959588,71.5453299 C96.7558592,72.0353808 96.1708574,72.00258 95.6359787,71.997814 C95.2816127,71.9944498 94.8872886,71.8439021 95.0299463,71.5156129 C95.2427061,71.0261227 95.8494395,70.9944432 96.4039468,71.0006109 C96.7895082,71.0048161 97.0348654,71.1679795 96.9959588,71.5453299 Z" id="Shape" fill="#8C8181"></path>
                </g>
                <g id="stick" transform="translate(29.874737, 86.271774) rotate(-10.000000) translate(-29.874737, -86.271774) translate(19.874737, 22.771774)" fill="#725617">
                    <path d="M9,91 C9,82.5359664 9,74.0719328 9,65 C13.3313673,73.9311956 12.4233457,82.4300121 9.73258008,90.9860868 C9.48805539,90.9903678 9.24402769,90.9951839 9,91 Z" id="Shape"></path>
                    <path d="M7,0 C8.15580968,0 9.39260345,0 10.9455924,0 C11.3332442,4.7272235 9.61114139,8.90531139 7,13 C7,8.72714018 7,4.4537388 7,0 Z" id="Shape"></path>
                    <path d="M18.5330963,40.3168814 C19.2305071,27.5968924 19.5125758,14.8552815 19.9948222,2.12316322 C20.083136,-0.203033771 19.0394283,-0.329600825 17.0392564,0.381284131 C17.0392564,2.46120273 17.0392564,4.47520098 17.0392564,6.48919924 C16.8155283,6.50554748 16.5912649,6.52189573 16.3675368,6.53877134 C16.0752987,4.44461395 15.7825253,2.35045655 15.471554,0.124458483 C14.5691483,0.124458483 13.7208014,0.124458483 12.4683522,0.124458483 C12.7258001,1.85368087 12.7787883,3.27703287 13.1684392,4.60493221 C14.08262,7.72111857 15.1557655,10.7919517 16.1678943,13.8796605 C17.6189155,18.3052885 18.2601267,22.8010558 16.9627178,27.356415 C16.2781526,29.7596069 15.1520189,31.9597642 12.344713,32.9063803 C15.943631,29.0840553 16.8968839,24.5455717 15.925433,19.7476256 C14.9893075,15.1268734 13.5115246,10.6131758 12.317416,6.22182634 C6.78844182,15.1548236 7.02929742,25.0017404 8.04463761,34.9530751 C5.0564224,34.1356629 2.66071199,33.4806783 0.172405976,32.7998531 C-0.231696205,37.4269336 -0.224738155,37.4016202 3.63376863,38.4600372 C6.53206441,39.2547729 8.96791742,40.6306622 10.2289303,44.0395349 C9.30029816,43.7658336 8.78272623,43.6134258 7.89316619,43.3518539 C9.48227795,51.3371803 7.25570169,59.3683873 11.2646094,67.1749377 C15.193232,74.8253888 13.4654944,83.1255508 10.4291081,91.0006584 C9.93455125,92.2837319 9.52616719,93.7081386 9.55346416,95.0576598 C9.71564027,102.963354 9.9923566,110.867467 10.2894118,118.769998 C10.390036,121.45902 10.6619352,124.141714 10.8471264,126.712608 C13.4183938,127.552169 14.2383733,126.487951 14.23088,124.357933 C14.2185696,121.005488 14.2276686,117.652516 14.2276686,114.300071 C14.4578195,114.288996 14.6885057,114.278449 14.9186566,114.267902 C15.1670055,118.386077 15.4158896,122.503198 15.6642385,126.621374 C15.916334,126.603443 16.1684295,126.58604 16.4205251,126.56811 C16.4205251,123.792073 16.4767247,121.014453 16.4055385,118.240525 C16.3252533,115.098498 16.299562,111.941178 15.9473776,108.823409 C15.3291816,103.353076 13.9268667,97.9149111 13.8572862,92.4514332 C13.7545211,84.3843656 14.4888631,76.3051686 14.9518411,68.2354642 C15.163794,64.5370694 15.5791362,60.8502765 15.9018827,57.1576827 C16.2476443,57.1692847 16.5934059,57.1808867 16.9391675,57.1919613 C16.4467516,73.5871411 13.3910968,90.007107 17.0210584,106.36959 C17.5461236,86.2681053 18.071724,66.1660928 18.5973245,46.0640804 C18.3184672,45.9897222 18.0401452,45.9158915 17.7618232,45.8420607 C16.5634327,48.1492726 15.0069703,50.351012 14.2688817,52.7937562 C13.5586252,55.1447392 13.6956453,57.7435827 13.4424793,60.4210033 C13.0758436,60.0871827 12.8992161,59.9959489 12.8392698,59.8556704 C12.73704,59.6173025 12.7017145,59.3499296 12.6497968,59.0925766 C11.7356159,54.5757148 13.1625516,50.6632107 15.5882351,46.8735822 C16.8797564,44.8569471 18.4099924,42.558173 18.5330963,40.3168814 Z M12.1011812,109.912413 C12.1011812,110.846373 12.1011812,111.779805 12.1011812,112.713764 C11.8860169,112.741714 11.6713878,112.769664 11.4562234,112.798142 C11.4562234,108.081937 11.4562234,103.36626 11.4562234,98.6500547 C11.6708525,98.6405622 11.8860169,98.631597 12.1011812,98.6221045 C12.1011812,103.318797 12.8178605,101.947654 12.8178605,106.644874 C12.7059964,106.659112 12.3993069,108.320305 12.1011812,109.912413 Z M11.2196497,28.8773291 C10.9370458,28.9448315 10.2332122,28.1896481 10.064078,27.6928724 C8.84909533,24.1205173 8.668186,20.5022816 10.1636317,16.9736976 C10.4430242,16.3144942 11.3978829,15.9326836 12.0412349,15.4227238 C12.4972549,16.0096786 13.1941304,16.538096 13.3600532,17.1962447 C13.7186604,18.618542 13.8053684,20.1072869 14.0831552,22.1634742 C13.7256185,23.6791147 13.3295448,25.7142075 12.7225887,27.6870714 C12.561483,28.21127 11.8009146,28.737578 11.2196497,28.8773291 Z M11.7040371,48.7293716 C12.3120637,44.7588576 12.919555,40.7883437 13.5275816,36.8178297 C15.0032236,41.0899951 14.2940377,45.0446882 11.7040371,48.7293716 Z" id="Shape"></path>
                </g>
            </g>
        </g>
    </g>
</svg>