<?xml version="1.0" encoding="UTF-8"?>
<svg width="24px" height="24px" viewBox="0 0 24 24" version="1.1" xmlns="http://www.w3.org/2000/svg" xmlns:xlink="http://www.w3.org/1999/xlink">
    <!-- Generator: Sketch 47.1 (45422) - http://www.bohemiancoding.com/sketch -->
    <title>Fill 28</title>
    <desc>Created with Sketch.</desc>
    <defs></defs>
    <g id="Symbols" stroke="none" stroke-width="1" fill="none" fill-rule="evenodd">
        <g id="Footer" transform="translate(-685.000000, -377.000000)" fill="#83DB84">
            <g transform="translate(-1.000000, 0.000000)" id="Fill-28">
                <path d="M704.824579,391.054687 L703.269826,391.575188 L703.808327,393.184691 C704.026577,393.835692 703.675577,394.540693 703.023826,394.758944 C702.882075,394.806944 702.738075,394.827194 702.597075,394.823444 C702.088574,394.809944 701.619823,394.484443 701.449573,393.974442 L700.910322,392.365689 L697.704066,393.439691 L698.242567,395.048444 C698.460817,395.700195 698.109817,396.405197 697.458066,396.623447 C697.316315,396.670697 697.172315,396.690947 697.031315,396.687197 C696.522814,396.674447 696.054063,396.348196 695.883813,395.838946 L695.344562,394.229443 L693.789809,394.750694 C693.648059,394.797944 693.503309,394.818194 693.362308,394.814444 C692.854557,394.801694 692.385807,394.475443 692.214806,393.965442 C691.996556,393.314441 692.347557,392.60944 692.999308,392.391189 L694.55481,391.869938 L693.520559,388.783683 L691.965806,389.304934 C691.824056,389.352184 691.680055,389.372434 691.538305,389.368684 C691.030554,389.355934 690.561803,389.029683 690.390803,388.519683 C690.172553,387.868681 690.524303,387.16368 691.175304,386.94543 L692.730807,386.424179 L692.191556,384.815426 C691.973306,384.163675 692.324307,383.458673 692.976058,383.241173 C693.627809,383.022923 694.33281,383.373923 694.55106,384.025674 L695.089561,385.634427 L698.296567,384.560425 L697.757316,382.951673 C697.539066,382.299921 697.890816,381.59492 698.541818,381.37667 C699.193569,381.158419 699.89857,381.51017 700.11682,382.161171 L700.655321,383.770674 L702.210824,383.249423 C702.862575,383.031173 703.566827,383.382923 703.785077,384.033925 C704.003327,384.685676 703.652327,385.390677 703.000576,385.608927 L701.445823,386.129428 L702.479325,389.216434 L704.034827,388.695183 C704.685829,388.477682 705.39083,388.828683 705.60908,389.479684 C705.827331,390.131435 705.47633,390.836437 704.824579,391.054687 M708.995336,385.701177 C706.521832,377.454163 702.948075,375.530409 694.701061,378.004664 C686.454796,380.478168 684.530293,384.051925 687.004547,392.298939 C689.478801,400.545204 693.052558,402.469707 701.298823,399.995453 C709.545837,397.521199 711.469591,393.947442 708.995336,385.701177"></path>
            </g>
        </g>
    </g>
</svg>