<?xml version="1.0" encoding="UTF-8"?>
<svg width="32px" height="32px" viewBox="0 0 32 32" version="1.1" xmlns="http://www.w3.org/2000/svg" xmlns:xlink="http://www.w3.org/1999/xlink">
    <!-- Generator: Sketch 47.1 (45422) - http://www.bohemiancoding.com/sketch -->
    <title>slack</title>
    <desc>Created with Sketch.</desc>
    <defs></defs>
    <g id="Home" stroke="none" stroke-width="1" fill="none" fill-rule="evenodd">
        <g id="Home-Page" transform="translate(-681.000000, -543.000000)" fill-rule="nonzero" fill="#000000">
            <g id="Slack-Advertisement-Copy" transform="translate(0.000000, 504.000000)">
                <g id="slack" transform="translate(681.000000, 39.000000)">
                    <path d="M17.442984,13.2497582 L18.8216767,17.3715492 L14.5498725,18.8002462 L13.1711798,14.6784552 L17.442984,13.2497582 Z M20.400387,30.6584319 C9.39941956,33.9587221 4.64185834,31.4013544 1.34156812,20.400387 C-1.9587221,9.39941956 0.598645649,4.64185834 11.599613,1.34156812 C22.6005804,-1.9587221 27.3581417,0.598645649 30.6584319,11.599613 C33.9587221,22.6005804 31.4013544,27.3581417 20.400387,30.6584319 Z M26.1580361,16.6429137 C25.8794402,15.7714085 24.9293567,15.3142254 24.0578514,15.5928213 L21.9862407,16.2857394 L20.607548,12.1639484 L22.6791588,11.4710303 C23.550664,11.1924344 24.007847,10.2423508 23.7292511,9.37084562 C23.4506552,8.49934041 22.5005716,8.04215735 21.6290664,8.32075328 L19.5574557,9.01367136 L18.8431072,6.86348227 C18.5645112,5.99197707 17.6144277,5.53479401 16.7429225,5.81338993 C15.8714173,6.09198586 15.4142342,7.04206941 15.6928301,7.91357462 L16.4071787,10.0637637 L12.1353744,11.4996042 L11.4210259,9.34941517 C11.14243,8.47790996 10.1923464,8.0207269 9.32084123,8.29932282 C8.44933602,8.57791875 7.99215296,9.5280023 8.27074888,10.3995075 L8.98509742,12.5496966 L6.91348667,13.2426147 C6.04198146,13.5212106 5.5847984,14.4712941 5.86339433,15.3427994 C6.09198586,16.0071435 6.73489954,16.4428961 7.39924367,16.47147 C7.70641354,16.5143309 7.94929204,16.4000352 10.0351898,15.7071171 L11.4138824,19.8289081 L9.34227168,20.5218262 C8.47076647,20.8004221 8.01358341,21.7505057 8.29217934,22.6220109 C8.52077087,23.286355 9.16368455,23.7221076 9.82802868,23.7506816 C10.1351986,23.7935425 10.3780771,23.6792467 12.4639748,22.9863286 L13.1783233,25.1365177 C13.4426323,25.9080141 14.306994,26.465206 15.278508,26.1866101 C16.1500132,25.9080141 16.6071963,24.9579306 16.3286003,24.0864254 L15.6142518,21.9362363 L19.886056,20.5003958 L20.6004045,22.6505848 C20.8647135,23.4220812 21.7290752,23.9792731 22.7005892,23.7006772 C23.5720944,23.4220812 24.0292775,22.4719977 23.7506816,21.6004925 L23.036333,19.4503034 L25.1079438,18.7573853 C25.979449,18.457359 26.4366321,17.5072754 26.1580361,16.6429137 Z" id="Shape"></path>
                </g>
            </g>
        </g>
    </g>
</svg>