<?xml version="1.0" encoding="UTF-8"?>
<svg width="16px" height="13px" viewBox="0 0 16 13" version="1.1" xmlns="http://www.w3.org/2000/svg" xmlns:xlink="http://www.w3.org/1999/xlink">
    <!-- Generator: Sketch 47.1 (45422) - http://www.bohemiancoding.com/sketch -->
    <title>twitter16</title>
    <desc>Created with Sketch.</desc>
    <defs></defs>
    <g id="Symbols" stroke="none" stroke-width="1" fill="none" fill-rule="evenodd">
        <g id="Speaker-Single-Header" transform="translate(-71.000000, -39.000000)" fill="#514024">
            <g id="Group" transform="translate(70.000000, 37.000000)">
                <g id="twitter16" transform="translate(0.000000, 1.000000)">
                    <path d="M17.025125,2.530125 C16.39375,2.80175 15.762125,2.971375 15.131,3.0395 C15.843875,2.61175 16.326,2.0075 16.57725,1.22675 C15.92525,1.613625 15.229375,1.878375 14.489375,2.021 C13.8375,1.3285 13.0365,0.982125 12.085875,0.982125 C11.176125,0.982125 10.4005,1.302875 9.75875,1.9445 C9.117125,2.586125 8.796375,3.36175 8.796375,4.2715 C8.796375,4.515875 8.8235,4.767125 8.877875,5.025125 C7.5335,4.95725 6.272375,4.6195 5.094375,4.011875 C3.916375,3.404125 2.916625,2.5945 2.095125,1.582875 C1.796375,2.092 1.647,2.645375 1.647,3.242875 C1.647,3.806375 1.779375,4.32925 2.04425,4.81125 C2.309,5.29325 2.6655,5.683625 3.113625,5.982375 C2.584,5.962 2.088375,5.82275 1.62675,5.56475 L1.62675,5.6055 C1.62675,6.399875 1.87625,7.097375 2.37525,7.698375 C2.87425,8.299375 3.504,8.67775 4.264375,8.833875 C3.97925,8.9085 3.690625,8.945875 3.39875,8.945875 C3.208625,8.945875 3.0015,8.928875 2.7775,8.895125 C2.988,9.553625 3.375,10.095 3.9385,10.519375 C4.502,10.943875 5.14025,11.162625 5.853125,11.176375 C4.65825,12.113125 3.297,12.581625 1.769375,12.581625 C1.477375,12.581625 1.212625,12.56825 0.975,12.541 C2.502625,13.525375 4.186375,14.0175 6.026375,14.0175 C7.194125,14.0175 8.290625,13.832625 9.315625,13.462625 C10.341,13.092625 11.21675,12.597 11.94325,11.975625 C12.669625,11.3545 13.296,10.639875 13.822125,9.831875 C14.34825,9.024 14.74025,8.1805 14.998375,7.30125 C15.256375,6.421875 15.385375,5.541125 15.385375,4.658375 C15.385375,4.46825 15.382,4.32575 15.375125,4.230625 C16.02025,3.762375 16.57025,3.195375 17.025125,2.530125 L17.025125,2.530125 Z" id="Shape"></path>
                </g>
            </g>
        </g>
    </g>
</svg>