<?xml version="1.0" encoding="UTF-8"?>
<svg width="16px" height="17px" viewBox="0 0 16 17" version="1.1" xmlns="http://www.w3.org/2000/svg" xmlns:xlink="http://www.w3.org/1999/xlink">
    <!-- Generator: Sketch 47.1 (45422) - http://www.bohemiancoding.com/sketch -->
    <title>earth17</title>
    <desc>Created with Sketch.</desc>
    <defs></defs>
    <g id="Home" stroke="none" stroke-width="1" fill="none" fill-rule="evenodd">
        <g id="Mobile" transform="translate(-176.000000, -3246.000000)" fill="#FDB81C">
            <g id="Group" transform="translate(131.000000, 3246.000000)">
                <g id="earth17" transform="translate(45.000000, 0.000000)">
                    <path d="M14.88,4.24766387 C14.1695238,2.95878992 13.2057143,1.93828571 11.9884444,1.18601681 C10.7709206,0.433747899 9.44177778,0.0576806723 8.00012698,0.0576806723 C6.55860317,0.0576806723 5.22920635,0.433747899 4.01180952,1.18601681 C2.7944127,1.93815126 1.83060317,2.95865546 1.12012698,4.24766387 C0.40952381,5.53667227 0.0543492063,6.94440336 0.0543492063,8.47058824 C0.0543492063,9.99677311 0.409650794,11.4043697 1.12,12.6935126 C1.83047619,13.9821176 2.79428571,15.0028908 4.01168254,15.7551597 C5.22907937,16.5074286 6.55847619,16.8834958 8,16.8834958 C9.44152381,16.8834958 10.7710476,16.5074286 11.9883175,15.7551597 C13.2055873,15.0030252 14.1693968,13.9823866 14.879873,12.6935126 C15.5902222,11.4043697 15.9453968,9.99663866 15.9453968,8.47058824 C15.9453968,6.94440336 15.5902222,5.53653782 14.88,4.24766387 L14.88,4.24766387 Z M8.99377778,12.8970756 C8.92457143,12.8095462 8.90057143,12.7364034 8.92139683,12.6777815 C8.91453968,12.7143529 8.89028571,12.7471597 8.84901587,12.7763361 C8.81447619,12.7325042 8.75225397,12.6776471 8.66273016,12.6120336 C8.57295238,12.5461513 8.51098413,12.4914286 8.47644444,12.4474622 C8.46260317,12.4256807 8.44368254,12.3946218 8.41955556,12.3544202 C8.39542857,12.3142185 8.36444444,12.2613782 8.32647619,12.1956303 C8.2887619,12.1298824 8.26120635,12.0732773 8.24380952,12.0256807 C8.22666667,11.9782185 8.22514286,11.9509244 8.23873016,11.9436639 C8.10768254,12.0022857 7.91796825,11.962084 7.66971429,11.8231933 C7.62146032,11.7940168 7.54895238,11.7173782 7.45244444,11.5931429 C7.35593651,11.469042 7.25587302,11.4143193 7.15238095,11.4288403 C7.11796825,11.4361008 7.07136508,11.4488739 7.01269841,11.4671597 C6.95415873,11.4854454 6.90412698,11.4944538 6.86273016,11.4944538 C6.82133333,11.4944538 6.76609524,11.4799328 6.69714286,11.4506218 C6.64203175,11.4287059 6.56787302,11.3866218 6.47479365,11.3246387 C6.38171429,11.2626555 6.31784127,11.2240672 6.28342857,11.2096807 C6.19377778,11.1585882 6.14895238,11.133042 6.14895238,11.133042 L5.98336508,11.0456471 C5.94196825,11.0237311 5.89879365,10.9891765 5.85396825,10.9415798 C5.80914286,10.8941176 5.77993651,10.8447731 5.76609524,10.7936807 C5.75238095,10.7498487 5.73511111,10.6621849 5.7144127,10.5306891 C5.69371429,10.3991933 5.66603175,10.3042689 5.63161905,10.245916 C5.59034921,10.1729076 5.53168254,10.0998992 5.45574603,10.0268908 C5.37993651,9.95388235 5.31098413,9.91731092 5.24888889,9.91731092 C5.30412698,9.91731092 5.30412698,9.86823529 5.24888889,9.76941176 C5.19365079,9.67058824 5.14539683,9.59946218 5.104,9.55576471 C5.09015873,9.54110924 5.0487619,9.49378151 4.97980952,9.4132437 C4.91085714,9.33284034 4.85219048,9.26373109 4.80393651,9.20510924 C4.75568254,9.14662185 4.71415873,9.07912605 4.67974603,9.00235294 C4.64533333,8.92557983 4.63834921,8.86184874 4.65904762,8.81062185 C4.66590476,8.80336134 4.65904762,8.79233613 4.63834921,8.77781513 C4.61765079,8.76329412 4.59187302,8.7485042 4.5607619,8.73398319 C4.52977778,8.71946218 4.50044444,8.70668908 4.47288889,8.69566387 C4.44520635,8.68477311 4.42450794,8.6792605 4.41079365,8.6792605 C4.42463492,8.70870588 4.44012698,8.76141176 4.45739683,8.83818487 C4.47466667,8.91495798 4.4935873,8.97156303 4.51428571,9.00813445 C4.52812698,9.03717647 4.58666667,9.1432605 4.69015873,9.32557983 C4.8695873,9.63226891 4.95225397,9.85895798 4.93853968,10.0049748 C4.89714286,10.0193613 4.86946032,10.0123697 4.85574603,9.98305882 C4.84190476,9.95401681 4.83149206,9.91381513 4.82463492,9.86258824 C4.81777778,9.81163025 4.81092063,9.77505882 4.80393651,9.75314286 C4.7832381,9.70917647 4.72977778,9.66171429 4.64355556,9.61048739 C4.55733333,9.55952941 4.50387302,9.50830252 4.4831746,9.45707563 C4.49015873,9.45707563 4.49866667,9.45371429 4.50907937,9.44618487 C4.51949206,9.43878992 4.52812698,9.43529412 4.53498413,9.43529412 C4.54196825,9.36968067 4.50577778,9.28564706 4.4264127,9.18332773 C4.34704762,9.0810084 4.3144127,9.008 4.32812698,8.96416807 C4.27288889,8.92033613 4.22463492,8.83455462 4.1832381,8.70682353 C4.14184127,8.57895798 4.10730159,8.49680672 4.07974603,8.46023529 C4.05219048,8.41653782 4.01777778,8.37821849 3.97638095,8.34527731 C3.93498413,8.31247059 3.88330159,8.27603361 3.82120635,8.23583193 C3.75911111,8.19563025 3.71771429,8.16833613 3.69701587,8.15368067 C3.6831746,8.14655462 3.65561905,8.1137479 3.61422222,8.0552605 C3.38666667,7.76309244 3.31771429,7.60605042 3.40736508,7.58413445 C3.31771429,7.60605042 3.24355556,7.53492437 3.18488889,7.37048739 C3.12622222,7.20618487 3.10730159,7.08006723 3.128,6.99253782 L3.10730159,6.98164706 C3.11428571,6.95233613 3.11771429,6.86668908 3.11771429,6.72416807 C3.11771429,6.58164706 3.12634921,6.45203361 3.14361905,6.33519328 C3.16088889,6.21835294 3.19365079,6.15986555 3.24190476,6.15986555 C3.19365079,6.16712605 3.15746032,6.12141176 3.13333333,6.0229916 C3.10920635,5.92430252 3.10742857,5.85667227 3.12812698,5.82023529 C3.13498413,5.79831933 3.16609524,5.81310924 3.22120635,5.86406723 C3.27631746,5.91502521 3.30742857,5.94810084 3.31428571,5.96262185 C3.40393651,5.91139496 3.43847619,5.84578151 3.41777778,5.76537815 C3.40393651,5.73620168 3.33155556,5.65956303 3.20050794,5.53532773 C2.90387302,5.33095798 2.75212698,5.23226891 2.74526984,5.23952941 C2.78653968,5.1592605 2.77625397,5.08988235 2.71415873,5.03139496 C2.64520635,5.07522689 2.6055873,5.08611765 2.5951746,5.06433613 C2.58488889,5.04242017 2.57625397,5.00235294 2.56926984,4.94386555 C2.5624127,4.88551261 2.54514286,4.85270588 2.5175873,4.84531092 C2.48304762,4.83805042 2.44165079,4.80887395 2.39339683,4.75778151 C3.0072381,3.7207395 3.81765079,2.91011765 4.82463492,2.32578151 C4.86603175,2.31852101 4.94184127,2.31489076 5.05219048,2.31489076 C5.10730159,2.32215126 5.15911111,2.34043697 5.20736508,2.36961345 C5.25561905,2.39878992 5.30565079,2.4389916 5.35733333,2.49008403 C5.40914286,2.54104202 5.4487619,2.57761345 5.47631746,2.59952941 C5.49015873,2.55569748 5.47288889,2.48994958 5.42463492,2.40228571 C5.43834921,2.35845378 5.51428571,2.31462185 5.65219048,2.27078992 C5.81079365,2.24887395 5.91428571,2.2525042 5.96253968,2.28181513 C5.92126984,2.21606723 5.85231746,2.12477311 5.75568254,2.00793277 L5.704,2.06265546 C5.6487619,2.01156303 5.504,2.03710924 5.26946032,2.13929412 C5.25574603,2.14655462 5.22120635,2.16672269 5.16596825,2.19952941 C5.11085714,2.23233613 5.06590476,2.25613445 5.03149206,2.27065546 C4.99009524,2.28531092 4.94869841,2.28894118 4.90730159,2.28168067 C5.23834921,2.09183193 5.56253968,1.94191597 5.87987302,1.83247059 C5.90044444,1.8469916 5.93498413,1.87805042 5.9832381,1.92551261 C6.03149206,1.97297479 6.06946032,2.00766387 6.09701587,2.02957983 C6.07631746,2.01505882 6.06247619,2.02218487 6.05561905,2.0514958 C6.02806349,2.13902521 6.02806349,2.21203361 6.05561905,2.27052101 C6.09003175,2.3217479 6.13663492,2.35078992 6.19530159,2.35818487 C6.25396825,2.36544538 6.32457143,2.36181513 6.40736508,2.34715966 C6.49015873,2.33263866 6.54539683,2.3252437 6.57295238,2.3252437 L6.67644444,2.33626891 C6.89714286,2.35818487 6.98336508,2.33626891 6.93511111,2.27052101 C6.95580952,2.29983193 6.97993651,2.36006723 7.00749206,2.45136134 C7.03504762,2.54265546 7.06615873,2.60665546 7.10057143,2.64309244 C7.13511111,2.61378151 7.14196825,2.56268908 7.12126984,2.48968067 C7.10057143,2.41667227 7.10057143,2.36544538 7.12126984,2.33626891 C7.12812698,2.3217479 7.1488254,2.30695798 7.18336508,2.29243697 C7.21790476,2.27791597 7.25752381,2.26151261 7.30234921,2.24322689 C7.3471746,2.22494118 7.37650794,2.21216807 7.39034921,2.20490756 C7.43174603,2.17559664 7.40406349,2.1245042 7.30755556,2.0514958 C7.29371429,2.04410084 7.26450794,2.03321008 7.21968254,2.01855462 C7.17485714,2.00416807 7.13511111,1.98937815 7.10069841,1.97485714 C7.06628571,1.96033613 7.03009524,1.94016807 6.99212698,1.91462185 C6.95415873,1.88907563 6.93688889,1.85989916 6.94031746,1.82695798 C6.94374603,1.79401681 6.96279365,1.75206723 6.99720635,1.70097479 C7.03860317,1.66453782 7.10590476,1.64988235 7.19898413,1.65714286 C7.29206349,1.66440336 7.36279365,1.68255462 7.41104762,1.71186555 C7.59733333,1.82144538 7.62488889,1.92013445 7.49384127,2.00766387 C7.56292063,2.01492437 7.64571429,2.04410084 7.74222222,2.09519328 C7.83873016,2.14642017 7.87669841,2.20114286 7.856,2.25963025 C7.9112381,2.15005042 7.96634921,2.09519328 8.0215873,2.09519328 C8.056,2.10258824 8.08888889,2.15193277 8.11987302,2.24322689 C8.15085714,2.33452101 8.16977778,2.38373109 8.17663492,2.39112605 C8.232,2.47139496 8.28685714,2.48968067 8.34234921,2.44584874 C8.39746032,2.40201681 8.45434921,2.33815126 8.51301587,2.25411765 C8.57155556,2.17021849 8.60431746,2.13189916 8.6111746,2.13915966 C8.54222222,2.11011765 8.53511111,2.08080672 8.59060317,2.05163025 C8.69384127,1.98588235 8.78704762,1.96759664 8.86984127,1.99690756 C8.8904127,2.01142857 8.91822222,2.04436975 8.95250794,2.09532773 C9.01434921,2.22695798 9.00393651,2.28894118 8.92152381,2.28168067 C8.98349206,2.34016807 9.00914286,2.41317647 8.99898413,2.50070588 C8.98869841,2.58836975 8.93498413,2.62857143 8.83847619,2.62117647 C8.80406349,2.62117647 8.75390476,2.60289076 8.68838095,2.56645378 C8.62285714,2.53001681 8.5728254,2.50998319 8.53828571,2.50621849 C8.50374603,2.50245378 8.45549206,2.52262185 8.39339683,2.56645378 C8.36584127,2.60302521 8.32965079,2.66514286 8.2848254,2.75267227 C8.23987302,2.84047059 8.20025397,2.90245378 8.16571429,2.93889076 C8.06234921,3.04847059 7.88977778,3.08867227 7.64838095,3.05936134 C7.66907937,3.05936134 7.66730159,3.08127731 7.6431746,3.12510924 C7.61892063,3.16894118 7.58628571,3.21828571 7.54488889,3.2730084 C7.50349206,3.32773109 7.47936508,3.35878992 7.47250794,3.36605042 C7.4104127,3.43905882 7.36901587,3.52309244 7.34831746,3.61801681 C7.34831746,3.63267227 7.34488889,3.68201681 7.33790476,3.76591597 C7.33092063,3.84994958 7.31720635,3.91394958 7.29650794,3.95764706 C7.37930159,3.93573109 7.4448254,3.97969748 7.49307937,4.08914286 C7.53447619,4.19146218 7.53447619,4.24618487 7.49307937,4.25357983 C7.7207619,4.21714286 7.9207619,4.23166387 8.09333333,4.29741176 C8.3415873,4.39233613 8.4831746,4.4872605 8.5175873,4.58218487 C8.55885714,4.51643697 8.65879365,4.51267227 8.81752381,4.57115966 C8.87961905,4.60759664 8.93460317,4.71731092 8.98311111,4.89976471 C9.01066667,5.00921008 9.05726984,5.10426891 9.12279365,5.18453782 C9.18844444,5.26480672 9.25892063,5.28672269 9.33498413,5.25028571 L9.36584127,5.22836975 C9.39352381,5.21384874 9.41587302,5.20094118 9.43314286,5.19005042 C9.4504127,5.17915966 9.46933333,5.1645042 9.48990476,5.14621849 C9.51073016,5.12793277 9.52279365,5.11152941 9.52609524,5.0970084 C9.52939683,5.08248739 9.52431746,5.06769748 9.51073016,5.05317647 C9.46234921,5.00934454 9.42615873,4.94910924 9.40215873,4.87247059 C9.37815873,4.79583193 9.38336508,4.72820168 9.41765079,4.66971429 C9.43834921,4.64053782 9.49346032,4.59670588 9.5832381,4.53821849 C9.67288889,4.47973109 9.72812698,4.42137815 9.74869841,4.36289076 C9.77650794,4.26796639 9.74196825,4.18944538 9.64546032,4.12732773 C9.5488254,4.06534454 9.50044444,4.0087395 9.50044444,3.95751261 C9.50044444,3.92094118 9.52292063,3.8772437 9.56761905,3.82601681 C9.61257143,3.77492437 9.63161905,3.72732773 9.62463492,3.68363025 C9.62463492,3.66157983 9.61244444,3.616 9.58844444,3.54662185 C9.56444444,3.47710924 9.55047619,3.42601681 9.54704762,3.39321008 C9.54361905,3.36026891 9.5592381,3.32194958 9.59352381,3.2782521 C9.64165079,3.24894118 9.75555556,3.25082353 9.93485714,3.28363025 C10.1141587,3.31657143 10.2314921,3.3512605 10.2867302,3.38769748 C10.3075556,3.40221849 10.352381,3.42413445 10.4213333,3.45344538 C10.4902857,3.48248739 10.5507302,3.51354622 10.6025397,3.54648739 C10.6539683,3.57929412 10.6834286,3.61021849 10.6901587,3.63952941 L10.6386032,3.63952941 C10.6868571,3.6834958 10.7161905,3.73445378 10.7263492,3.79294118 C10.7367619,3.85156303 10.7109841,3.8952605 10.6490159,3.92457143 C10.6901587,3.91717647 10.7456508,3.92820168 10.8146032,3.95737815 C10.9249524,4.00121008 10.928381,4.04141176 10.8248889,4.07784874 C10.8455873,4.07045378 10.8747937,4.06332773 10.9126349,4.05593277 C10.9506032,4.04867227 10.9798095,4.03764706 11.0006349,4.02312605 C11.0142222,4.01573109 11.031619,4.00309244 11.0521905,3.98480672 C11.0730159,3.96652101 11.088381,3.9554958 11.0987937,3.952 C11.1092063,3.94836975 11.1245714,3.94460504 11.1453968,3.94097479 C11.1659683,3.93734454 11.1865397,3.94285714 11.2072381,3.95737815 C11.2143492,3.95737815 11.2297143,3.93909244 11.2538413,3.90265546 C11.2777143,3.86621849 11.303873,3.82964706 11.3313016,3.79321008 C11.3588571,3.75677311 11.3828571,3.73848739 11.4036825,3.73848739 C11.424254,3.73848739 11.4433016,3.7474958 11.4604444,3.76578151 C11.4778413,3.78406723 11.4914286,3.80410084 11.5018413,3.82601681 C11.512127,3.84793277 11.5224127,3.87173109 11.5328254,3.89714286 C11.5432381,3.92268908 11.551619,3.94285714 11.5586032,3.95737815 C11.5723175,3.99381513 11.6052063,4.03226891 11.6567619,4.07233613 C11.7084444,4.11240336 11.7412063,4.15085714 11.7550476,4.18729412 C11.7620317,4.20921008 11.7754921,4.26406723 11.7963175,4.35173109 C11.8168889,4.43939496 11.8446984,4.49963025 11.8789841,4.53243697 C11.9135238,4.56537815 11.9652063,4.59267227 12.0341587,4.61458824 C12.048,4.62198319 12.0791111,4.61821849 12.1272381,4.60369748 C12.1754921,4.58904202 12.2152381,4.58541176 12.2462222,4.59267227 C12.2774603,4.59993277 12.2928254,4.62910924 12.2928254,4.68033613 C12.3342222,4.6365042 12.3547937,4.60719328 12.3547937,4.59267227 C12.3617778,4.68759664 12.384,4.76436975 12.4220952,4.82272269 C12.4600635,4.88107563 12.520381,4.9067563 12.6031746,4.89936134 L12.5824762,5.14043697 C12.5619048,5.17687395 12.5100952,5.20416807 12.4271746,5.22245378 C12.344381,5.2407395 12.2926984,5.25727731 12.271873,5.27179832 C12.2513016,5.27905882 12.2011429,5.32289076 12.1219048,5.40329412 C12.0425397,5.48369748 12.0099048,5.53115966 12.023619,5.54568067 C11.9065397,5.40692437 11.7305397,5.36672269 11.496127,5.42521008 C11.2340317,5.46904202 11.0546032,5.51287395 10.9582222,5.55670588 C10.847873,5.61519328 10.7719365,5.66991597 10.7305397,5.7210084 C10.7235556,5.72826891 10.711746,5.75394958 10.6943492,5.79764706 C10.6770794,5.84147899 10.6599365,5.88168067 10.6427937,5.91811765 C10.6253968,5.95455462 10.6100317,5.97284034 10.5963175,5.97284034 C10.6378413,5.96571429 10.6841905,5.93089076 10.736,5.86890756 C10.7876825,5.80678992 10.8205714,5.77223529 10.8341587,5.76484034 C11.0133333,5.6407395 11.1616508,5.59690756 11.279619,5.63428571 C11.4312381,5.67811765 11.4553651,5.73660504 11.351873,5.80961345 C11.3382857,5.82413445 11.3019683,5.82964706 11.2434286,5.82601681 C11.1848889,5.82238655 11.1451429,5.82413445 11.1243175,5.83152941 C11.1865397,5.84605042 11.2382222,5.86621849 11.279746,5.89163025 C11.3210159,5.91717647 11.3314286,5.95186555 11.3107302,5.99569748 C11.4209524,6.06144538 11.4417778,6.13445378 11.3728254,6.21485714 C11.2830476,6.30991597 11.176381,6.34998319 11.0520635,6.33532773 C11.0728889,6.33532773 11.0728889,6.34998319 11.0520635,6.37915966 L10.8760635,6.49963025 C10.8623492,6.5067563 10.8175238,6.52504202 10.7415873,6.55435294 C10.6656508,6.58339496 10.6139683,6.61647059 10.5862857,6.65290756 C10.5657143,6.68208403 10.5553016,6.72591597 10.5553016,6.78453782 C10.5553016,6.84302521 10.551873,6.88685714 10.5448889,6.91603361 C10.5381587,6.94534454 10.5104762,6.95247059 10.4623492,6.93794958 C10.4415238,6.98178151 10.3777778,7.01647059 10.2708571,7.04188235 C10.1639365,7.06742857 10.0933333,7.1057479 10.0587937,7.15684034 C10.1000635,7.21532773 10.0967619,7.27368067 10.048381,7.33216807 C9.9655873,7.40531092 9.89307937,7.39791597 9.83111111,7.3102521 C9.79669841,7.32490756 9.77079365,7.36134454 9.75352381,7.41983193 C9.73638095,7.47831933 9.71034921,7.51852101 9.67606349,7.54030252 C9.72444444,7.62070588 9.71733333,7.67919328 9.65549206,7.71563025 C9.66234921,7.71563025 9.67784127,7.72302521 9.70196825,7.73754622 C9.72596825,7.75206723 9.75187302,7.77035294 9.77955556,7.79226891 C9.80711111,7.81418487 9.82425397,7.82521008 9.83111111,7.82521008 C9.80368254,7.89082353 9.7655873,7.92363025 9.71733333,7.92363025 C9.75873016,8.04060504 9.7071746,8.16847059 9.56228571,8.30709244 C9.53447619,8.33626891 9.49142857,8.36544538 9.4327619,8.3947563 C9.37396825,8.42393277 9.32063492,8.44759664 9.27225397,8.46588235 C9.22387302,8.48416807 9.19644444,8.49694118 9.1895873,8.50420168 C9.12063492,8.57008403 9.0688254,8.63757983 9.0344127,8.70695798 C9,8.77633613 8.99479365,8.84383193 9.01879365,8.90957983 C9.04292063,8.97546218 9.10679365,9.01902521 9.2104127,9.04121008 L9.22044444,9.1287395 L9.22044444,9.32584874 L9.23085714,9.41351261 C9.23796825,9.46460504 9.2431746,9.51031933 9.24647619,9.55065546 C9.24977778,9.59085714 9.24977778,9.64181513 9.24647619,9.70406723 C9.2431746,9.76605042 9.22755556,9.8007395 9.2,9.80786555 C9.17257143,9.81539496 9.13460317,9.80786555 9.08622222,9.78594958 C9.03085714,9.75677311 8.96546032,9.59610084 8.88952381,9.30406723 C8.87568254,9.23105882 8.83415873,9.14352941 8.76520635,9.04121008 C8.73079365,9.07764706 8.70146032,9.10131092 8.67733333,9.11220168 C8.65346032,9.12322689 8.63606349,9.1252437 8.62590476,9.11771429 C8.61549206,9.11045378 8.59657143,9.09391597 8.56888889,9.0685042 C8.54133333,9.04309244 8.51733333,9.02278992 8.49650794,9.00840336 C8.46209524,8.98648739 8.40177778,8.96820168 8.31542857,8.95368067 C8.22933333,8.93915966 8.17561905,8.9207395 8.1551746,8.89895798 C7.98946032,9.03058824 7.88939683,8.99751261 7.85498413,8.80053782 C7.84126984,8.83697479 7.84292063,8.88631933 7.86019048,8.94843697 C7.87746032,9.01055462 7.88609524,9.04510924 7.88609524,9.05236975 C7.83784127,9.14742857 7.76203175,9.15468908 7.65853968,9.07415126 C7.61714286,9.03058824 7.52228571,9.02507563 7.37396825,9.05788235 C7.22565079,9.09068908 7.12736508,9.09620168 7.07911111,9.07415126 C7.08609524,9.07415126 7.09980952,9.08517647 7.12050794,9.10722689 C7.14120635,9.12161345 7.15504762,9.1325042 7.16190476,9.13989916 C7.15492063,9.16921008 7.14463492,9.1909916 7.13079365,9.20564706 C7.11695238,9.22003361 7.10311111,9.22554622 7.08939683,9.22205042 C7.07555556,9.21842017 7.06006349,9.21842017 7.04279365,9.22205042 C7.02552381,9.22554622 7.01003175,9.23105882 6.99619048,9.23845378 C6.96863492,9.26023529 6.93422222,9.29855462 6.8928254,9.35327731 C6.85142857,9.408 6.82044444,9.44268908 6.79974603,9.45721008 C6.84101587,9.57391597 6.86006349,9.66346218 6.85663492,9.72544538 C6.85307937,9.78769748 6.84279365,9.8789916 6.82552381,9.99932773 C6.80825397,10.1197983 6.79961905,10.2167395 6.79961905,10.2897479 C6.79961905,10.4064538 6.83238095,10.5418487 6.89790476,10.6951261 C6.96342857,10.8484034 7.04101587,10.9542185 7.13066667,11.0127059 C7.17904762,11.0420168 7.26184127,11.0601681 7.37904762,11.0672941 C7.49625397,11.0746891 7.57904762,11.0672941 7.62730159,11.0455126 C7.66869841,11.0237311 7.69968254,10.9980504 7.72038095,10.9690084 C7.74107937,10.9396975 7.75834921,10.8976134 7.77206349,10.8428908 C7.78590476,10.7883025 7.79631746,10.7499832 7.8031746,10.7280672 C7.85142857,10.5893109 7.94107937,10.5163025 8.072,10.5089076 C8.15504762,10.5015126 8.21511111,10.5109244 8.25320635,10.5362017 C8.2911746,10.5617479 8.30666667,10.596437 8.29968254,10.6402689 C8.29269841,10.6841008 8.27898413,10.7296807 8.2584127,10.7772773 C8.23771429,10.8248739 8.21180952,10.8775798 8.1808254,10.9362017 C8.14996825,10.9948235 8.13092063,11.038521 8.12419048,11.0678319 C8.11034921,11.1263193 8.09815873,11.2083361 8.088,11.3144202 C8.0775873,11.4202353 8.0688254,11.4842353 8.06196825,11.5061513 C8.07580952,11.5134118 8.12749206,11.517042 8.21714286,11.517042 C8.21714286,11.502521 8.22234921,11.4787227 8.2327619,11.445916 C8.24292063,11.4129748 8.24812698,11.3929412 8.24812698,11.3856807 C8.28266667,11.4441681 8.33790476,11.4768403 8.41384127,11.4842353 C8.48965079,11.4914958 8.54488889,11.4623193 8.57942857,11.3965714 C8.59326984,11.4184874 8.63466667,11.4733445 8.70374603,11.5611429 C8.77269841,11.6485378 8.81066667,11.7215462 8.81752381,11.7801681 C8.82438095,11.809479 8.83809524,11.8568067 8.85866667,11.9226891 C8.87949206,11.988437 8.88647619,12.0341513 8.87949206,12.0598319 C8.87263492,12.0851092 8.83809524,12.0980168 8.77612698,12.0980168 C8.74857143,12.0980168 8.73130159,12.109042 8.72444444,12.1308235 C8.71733333,12.1528739 8.71733333,12.1800336 8.72444444,12.2129748 C8.73142857,12.2457815 8.74006349,12.2768403 8.75022222,12.3060168 C8.76063492,12.3350588 8.77434921,12.3662521 8.79149206,12.3990588 C8.80901587,12.4317311 8.81752381,12.4518992 8.81752381,12.4591597 C8.9415873,12.7001008 9.11060317,12.7658487 9.32444444,12.6564034 C9.32444444,12.8681681 9.27606349,12.9848739 9.17942857,13.0067899 C9.12469841,13.0213109 9.06273016,12.9844706 8.99377778,12.8970756 L8.99377778,12.8970756 Z M9.14831746,15.3718319 C9.13473016,15.2988235 9.12774603,15.2404706 9.12850794,15.1969076 C9.12139683,15.1382857 9.14565079,15.0597647 9.2007619,14.9613445 C9.25587302,14.8629244 9.28342857,14.7878992 9.28342857,14.7368067 C9.17307937,14.7076303 9.13168254,14.6125714 9.15911111,14.4520336 C9.17295238,14.3424538 9.27288889,14.196437 9.45904762,14.0138487 C9.59034921,13.8896134 9.63149206,13.7142857 9.58336508,13.488 C9.56253968,13.3930756 9.54526984,13.2541849 9.53155556,13.0715966 C9.51796825,12.8890084 9.504,12.7611429 9.49015873,12.6881345 C9.49015873,12.7100504 9.52292063,12.730084 9.58857143,12.7483697 C9.65409524,12.766521 9.69371429,12.7903193 9.70755556,12.8193613 C9.72126984,12.7975798 9.7384127,12.7573782 9.7592381,12.6988908 C9.77980952,12.6404034 9.80063492,12.5967059 9.82107937,12.567395 C9.83492063,12.545479 9.86412698,12.5181849 9.90907937,12.4852437 C9.95390476,12.452437 9.9832381,12.4324034 9.99695238,12.4251429 C10.0105397,12.4178824 10.0416508,12.3942185 10.0899048,12.3540168 C10.1381587,12.3138151 10.1779048,12.2828908 10.2090159,12.2609748 C10.240254,12.2390588 10.2813968,12.2226555 10.3332063,12.2117647 C10.3850159,12.2007395 10.4210794,12.2171429 10.4416508,12.2609748 C10.4761905,12.3048067 10.4694603,12.3723025 10.4210794,12.4637311 C10.3726984,12.5550252 10.3726984,12.6190252 10.4210794,12.6555966 C10.4280635,12.6335462 10.4347937,12.5859496 10.4416508,12.5129412 C10.4486349,12.4399328 10.4694603,12.3850756 10.503873,12.3485042 C10.5451429,12.3048067 10.5847619,12.2791261 10.6228571,12.272 C10.6606984,12.2644706 10.6951111,12.2699832 10.7260952,12.2884034 C10.7572063,12.3065546 10.7933968,12.3319664 10.8346667,12.365042 C10.8760635,12.3977143 10.9140317,12.4178824 10.9484444,12.4251429 C11.0518095,12.4615798 11.176127,12.5419832 11.3210159,12.666084 C11.3140317,12.6586891 11.3140317,12.6496807 11.3210159,12.6386555 C11.328,12.6277647 11.3415873,12.6168739 11.3624127,12.6058487 C11.3829841,12.5950924 11.4019048,12.5840672 11.4191746,12.573042 C11.4363175,12.5620168 11.4552381,12.5531429 11.4759365,12.5457479 L11.5070476,12.5347227 C11.5551746,12.5347227 11.5897143,12.5312269 11.6102857,12.5236975 C11.6308571,12.516437 11.6604444,12.5236975 11.6981587,12.5457479 C11.736,12.5675294 11.7620317,12.5839328 11.775619,12.594958 C11.7894603,12.6058487 11.8135873,12.6258824 11.848,12.6551933 C11.8824127,12.6843697 11.9067937,12.7062857 11.920254,12.7208067 C11.9410794,12.7351933 11.9789206,12.7610084 12.0340317,12.7974454 C12.0893968,12.8338824 12.1324444,12.8630588 12.1635556,12.8849748 C12.1946667,12.9067563 12.2222222,12.9396975 12.2460952,12.9832605 C12.2702222,13.0273613 12.2791111,13.0748235 12.272127,13.125916 C12.3135238,13.1333109 12.3961905,13.1623529 12.520381,13.2134454 C12.5412063,13.2279664 12.584127,13.2408739 12.6497778,13.2516303 C12.7154286,13.2626555 12.7584762,13.2791933 12.7791746,13.3009748 C11.7798095,14.4188235 10.5691429,15.1089748 9.14831746,15.3718319 L9.14831746,15.3718319 Z" id="Shape"></path>
                </g>
            </g>
        </g>
    </g>
</svg>