<?xml version="1.0" encoding="utf-8"?>
<!-- Generator: Adobe Illustrator 15.1.0, SVG Export Plug-In . SVG Version: 6.00 Build 0)  -->
<!DOCTYPE svg PUBLIC "-//W3C//DTD SVG 1.1//EN" "http://www.w3.org/Graphics/SVG/1.1/DTD/svg11.dtd">
<svg version="1.1" id="Layer_1" xmlns="http://www.w3.org/2000/svg" xmlns:xlink="http://www.w3.org/1999/xlink" x="0px" y="0px"
	 width="198px" height="198px" viewBox="0 0 198 198" enable-background="new 0 0 198 198" xml:space="preserve">
<g>
	<g enable-background="new    ">
		<path fill="#152128" d="M78.084,35.865c-0.94,0.089-1.254,0.582-1.479,1.612l-5.645,24.416h-6.138l-4.704-19.936h-0.134
			l-4.569,19.936h-6.317l-6.183-25.85l-2.553-0.135v-3.808h11.11v3.629l-1.479,0.135c-0.986,0.089-1.568,0.492-1.344,1.567
			l3.898,17.293h0.179l4.659-20.25h5.779l4.838,20.34h0.09l3.808-18.727l-2.419-0.18v-3.808h10.08v3.629L78.084,35.865z"/>
		<path fill="#152128" d="M81.221,58.265l1.479-0.135c0.762-0.089,1.299-0.357,1.299-1.254V36.044l-2.553-0.135v-3.808h12.23
			c6.586,0,10.752,2.15,10.752,8.243c0,4.48-2.911,6.899-5.376,7.885c1.21,0.448,1.882,1.21,2.554,2.732l3.226,7.034l2.554,0.09
			v3.808H96.318v-3.629l1.299-0.135c1.031-0.134,1.255-0.537,0.852-1.434l-2.105-4.479c-0.627-1.389-1.255-2.061-2.823-2.061h-4.077
			v7.795l2.912,0.135v3.808H81.221V58.265z M93.361,45.9c3.808,0,5.511-1.747,5.511-4.929c0-4.031-2.33-4.524-6.138-4.524h-3.271
			V45.9H93.361z"/>
		<path fill="#152128" d="M112.043,36.044l-2.553-0.135v-3.808h10.841v3.629l-1.479,0.135c-0.761,0.089-1.299,0.358-1.299,1.434
			v20.652l2.554,0.135v3.808h-10.842v-3.629l1.479-0.135c0.852-0.089,1.299-0.357,1.299-1.478V36.044z"/>
		<path fill="#152128" d="M131.353,36.537h-3.495c-0.94,0-1.029,0.627-1.029,1.389v2.105l-4.57-0.313v-7.616h23.431v7.616
			l-4.569,0.313v-2.105c0-0.852-0.09-1.389-1.3-1.389h-3.046v21.414l3.539,0.135v3.808h-12.634v-3.629l2.374-0.135
			c0.852-0.089,1.3-0.357,1.3-1.254V36.537z"/>
		<path fill="#152128" d="M147.884,61.894v-3.629l1.478-0.135c0.762-0.089,1.3-0.357,1.3-1.254V36.044l-2.554-0.135v-3.808h20.519
			v7.437l-4.569,0.314V38.06c0-0.851-0.09-1.389-1.3-1.389h-6.63v7.661h10.349v4.569h-10.349v8.378h7.213
			c1.164,0,1.254-0.538,1.254-1.434v-2.24l4.57,0.313v7.975H147.884z"/>
	</g>
	<g enable-background="new    ">
		<path fill="#152128" d="M99.454,73.537h-3.495c-0.941,0-1.03,0.627-1.03,1.389v2.105l-4.57-0.313v-7.616h23.431v7.616
			l-4.569,0.313v-2.105c0-0.852-0.09-1.389-1.3-1.389h-3.046v21.414l3.539,0.135v3.808H95.78v-3.629l2.375-0.135
			c0.851-0.089,1.299-0.357,1.299-1.254V73.537z"/>
		<path fill="#152128" d="M136.816,85.901h-12.678v9.05l2.599,0.135v3.808h-10.842v-3.629l1.479-0.135
			c0.762-0.089,1.299-0.357,1.299-1.254V73.044l-2.554-0.135v-3.808h10.842v3.629l-1.479,0.135
			c-0.852,0.089-1.344,0.358-1.344,1.478v6.944h12.678v-8.243l-2.553-0.135v-3.808h10.842v3.629l-1.479,0.135
			c-0.762,0.089-1.3,0.358-1.3,1.434v20.652l2.554,0.135v3.808h-10.842v-3.629l1.479-0.135c0.852-0.089,1.299-0.357,1.299-1.478
			V85.901z"/>
		<path fill="#152128" d="M147.883,98.894v-3.629l1.479-0.135c0.762-0.089,1.299-0.357,1.299-1.254V73.044l-2.553-0.135v-3.808
			h20.518v7.437l-4.569,0.314V75.06c0-0.851-0.089-1.389-1.299-1.389h-6.631v7.661h10.349v4.569h-10.349v8.378h7.213
			c1.165,0,1.255-0.538,1.255-1.434v-2.24l4.569,0.313v7.975H147.883z"/>
	</g>
	<g enable-background="new    ">
		<path fill="#152128" d="M62.584,132.265l1.478-0.135c0.762-0.089,1.299-0.357,1.299-1.254v-20.832l-2.554-0.135v-3.808h12.275
			c8.557,0,13.978,4.524,13.978,13.843c0,11.738-6.541,15.949-13.754,15.949H62.584V132.265z M70.827,131.593h4.569
			c5.018,0,8.153-3.674,8.153-10.842c0-8.063-3.897-10.304-8.736-10.304h-3.987V131.593z"/>
		<path fill="#152128" d="M105.637,136.476c-7.974,0-12.992-5.196-12.992-15.411c0-11.469,7.212-15.5,13.485-15.5
			c6.675,0,12.679,4.121,12.679,15.5C118.809,131.324,113.477,136.476,105.637,136.476z M105.951,131.951
			c5.689,0,7.302-5.376,7.302-10.752c0-4.569-1.21-11.021-7.392-11.021c-5.734,0-7.616,5.331-7.616,10.662
			C98.245,125.948,99.5,131.951,105.951,131.951z"/>
		<path fill="#152128" d="M136.459,109.999c-5.645,0-8.467,4.032-8.467,10.797c0,7.033,2.33,11.379,8.557,11.245
			c1.254,0,2.419-0.135,3.271-0.403c0.806-0.269,0.94-0.627,0.94-1.479v-3.584l4.57,0.313v7.751
			c-2.465,1.299-6.004,1.836-8.871,1.836c-9.094,0-14.066-5.106-14.066-15.321c0-11.692,7.168-15.59,14.066-15.59
			c2.644,0,5.734,0.582,8.423,1.837v7.615l-4.569,0.313v-3.494c0-0.851-0.135-1.21-0.941-1.479
			C138.52,110.089,137.355,109.999,136.459,109.999z"/>
		<path fill="#152128" d="M163.742,127.561c0-2.822-2.553-3.629-5.689-4.479c-4.436-1.21-8.557-3.002-8.557-8.736
			c0-5.466,4.211-8.78,10.394-8.78c2.957,0,5.734,0.582,8.423,1.837v6.72l-4.57,0.313v-2.599c0-0.851-0.134-1.21-0.94-1.479
			c-0.851-0.269-2.017-0.358-2.912-0.358c-2.644,0-4.704,1.075-4.704,3.854c0,2.777,2.599,3.539,5.959,4.569
			c4.076,1.299,8.377,3.136,8.377,8.915c0,5.913-4.659,9.139-10.842,9.139c-3.584,0-6.361-0.582-9.049-1.836v-7.079l4.569-0.313
			v2.732c0,0.852,0.134,1.21,0.94,1.479c0.852,0.27,2.017,0.403,3.227,0.403C161.323,131.861,163.742,130.921,163.742,127.561z"/>
	</g>
	<g>
		<g enable-background="new    ">
			<path fill="#FDB913" d="M38.435,166.802l1.183-0.107c0.61-0.072,1.04-0.287,1.04-1.004v-16.675l-2.044-0.107v-3.048H48.87
				c5.271,0,8.499,2.51,8.499,7.315c0,5.45-3.873,8.176-9.287,8.176h-3.048v5.199l3.442,0.107v3.048h-10.04V166.802z
				 M47.615,157.873c3.12,0,5.235-1.076,5.235-4.268c0-3.693-2.116-4.267-5.63-4.267h-2.188v8.534H47.615z"/>
			<path fill="#FDB913" d="M59.595,166.802l1.183-0.107c0.61-0.072,1.04-0.287,1.04-1.004v-16.675l-2.044-0.107v-3.048h9.79
				c5.271,0,8.606,1.722,8.606,6.598c0,3.586-2.331,5.522-4.303,6.312c0.968,0.358,1.506,0.968,2.044,2.188l2.582,5.629l2.044,0.072
				v3.048h-8.857v-2.904l1.04-0.107c0.825-0.108,1.004-0.431,0.681-1.147l-1.685-3.586c-0.502-1.112-1.004-1.649-2.259-1.649h-3.263
				v6.239l2.331,0.107v3.048h-8.929V166.802z M69.313,156.904c3.048,0,4.41-1.398,4.41-3.944c0-3.227-1.864-3.621-4.913-3.621
				h-2.618v7.565H69.313z"/>
			<path fill="#FDB913" d="M89.111,148.98l-2.259-0.216v-2.904h8.211l7.315,20.69h0.035l2.044,0.107v3.048h-9.251v-2.904
				l1.362-0.107c0.753-0.072,1.112-0.287,0.861-1.076l-0.753-2.223h-8.391l-1.076,3.155l2.151,0.107v3.048h-8.283v-2.904
				l1.184-0.107c0.609-0.072,0.825-0.323,1.076-1.004L89.111,148.98z M89.147,160.096h6.669l-3.227-10.219h-0.108L89.147,160.096z"
				/>
			<path fill="#FDB913" d="M124.865,167.842c-1.972,1.362-4.912,2.295-8.247,2.295c-6.49,0-10.542-3.98-10.542-12.3
				c0-9.287,6.275-12.407,11.438-12.407c2.402,0,4.877,0.467,7.028,1.471v6.096l-3.658,0.251v-2.797
				c0-0.682-0.107-0.968-0.752-1.184c-0.682-0.215-1.614-0.286-2.654-0.286c-4.805,0-6.92,3.227-6.92,8.569
				c0,5.63,1.864,9.036,6.238,9.036c1.398,0,3.084-0.394,3.802-0.86v-5.343h-0.036l-2.761-0.107v-3.048h8.929v2.868l-0.825,0.072
				c-0.753,0.071-1.04,0.322-1.04,1.184V167.842z"/>
			<path fill="#FDB913" d="M134.48,161.961c0,3.514,1.828,4.554,4.697,4.554c2.868,0,4.661-1.435,4.661-4.375v-13.124l-2.079-0.107
				v-3.048h8.498v2.904l-1.184,0.107c-0.646,0.072-1.04,0.359-1.04,1.076v12.802c0,4.697-3.55,7.422-9.001,7.422
				c-5.88,0-8.893-2.366-8.893-7.996v-13.16l-2.079-0.107v-3.048h8.677v2.904l-1.183,0.107c-0.681,0.072-1.075,0.287-1.075,1.184
				V161.961z"/>
			<path fill="#FDB913" d="M152.127,169.706v-2.904l1.184-0.107c0.609-0.072,1.039-0.287,1.039-1.004v-16.675l-2.043-0.107v-3.048
				h16.422v5.952l-3.656,0.251v-1.434c0-0.682-0.072-1.112-1.041-1.112h-5.307v6.132h8.283v3.658h-8.283v6.705h5.773
				c0.932,0,1.004-0.431,1.004-1.147v-1.793l3.658,0.251v6.383H152.127z"/>
		</g>
	</g>
</g>
</svg>
