<?xml version="1.0" encoding="utf-8"?>
<!-- Generator: Adobe Illustrator 21.1.0, SVG Export Plug-In . SVG Version: 6.00 Build 0)  -->
<svg version="1.1" id="Layer_1" xmlns="http://www.w3.org/2000/svg" xmlns:xlink="http://www.w3.org/1999/xlink" x="0px" y="0px"
	 viewBox="0 0 354.8 80" style="enable-background:new 0 0 354.8 80;" xml:space="preserve">
<style type="text/css">
	.st0{enable-background:new    ;}
	.st1{fill:#152128;}
	.st2{fill:#FDB913;}
</style>
<g class="st0">
	<path class="st1" d="M38.1,15.2c-0.7,0.1-1,0.5-1.2,1.3l-4.4,19.2h-4.8L24,19.9h-0.1l-3.6,15.7h-5l-4.9-20.3l-2-0.1v-3h8.7v2.9
		L16,15.2c-0.8,0.1-1.2,0.4-1.1,1.2L18,30h0.1l3.7-15.9h4.5l3.8,16h0.1l3-14.7l-1.9-0.1v-3h7.9v2.9L38.1,15.2z"/>
	<path class="st1" d="M40.5,32.8l1.2-0.1c0.6-0.1,1-0.3,1-1V15.3l-2-0.1v-3h9.6c5.2,0,8.5,1.7,8.5,6.5c0,3.5-2.3,5.4-4.2,6.2
		c1,0.4,1.5,1,2,2.1l2.5,5.5l2,0.1v3h-8.7v-2.9l1-0.1c0.8-0.1,1-0.4,0.7-1.1L52.5,28c-0.5-1.1-1-1.6-2.2-1.6H47v6.1l2.3,0.1v3h-8.8
		V32.8z M50.1,23c3,0,4.3-1.4,4.3-3.9c0-3.2-1.8-3.6-4.8-3.6H47V23H50.1z"/>
	<path class="st1" d="M64.8,15.3l-2-0.1v-3h8.5v2.9l-1.2,0.1c-0.6,0.1-1,0.3-1,1.1v16.2l2,0.1v3h-8.5v-2.9l1.2-0.1
		c0.7-0.1,1-0.3,1-1.2V15.3z"/>
	<path class="st1" d="M80,15.7h-2.7c-0.7,0-0.8,0.5-0.8,1.1v1.7l-3.6-0.2v-6h18.4v6l-3.6,0.2v-1.7c0-0.7-0.1-1.1-1-1.1h-2.4v16.8
		l2.8,0.1v3h-9.9v-2.9l1.9-0.1c0.7-0.1,1-0.3,1-1V15.7z"/>
	<path class="st1" d="M93,35.6v-2.9l1.2-0.1c0.6-0.1,1-0.3,1-1V15.3l-2-0.1v-3h16.1V18l-3.6,0.2v-1.4c0-0.7-0.1-1.1-1-1.1h-5.2v6
		h8.1v3.6h-8.1V32h5.7c0.9,0,1-0.4,1-1.1v-1.8l3.6,0.2v6.3H93z"/>
	<path class="st1" d="M125.8,15.7h-2.7c-0.7,0-0.8,0.5-0.8,1.1v1.7l-3.6-0.2v-6h18.4v6l-3.6,0.2v-1.7c0-0.7-0.1-1.1-1-1.1h-2.4v16.8
		l2.8,0.1v3h-9.9v-2.9l1.9-0.1c0.7-0.1,1-0.3,1-1V15.7z"/>
	<path class="st1" d="M155.2,25.4h-10v7.1l2,0.1v3h-8.5v-2.9l1.2-0.1c0.6-0.1,1-0.3,1-1V15.3l-2-0.1v-3h8.5v2.9l-1.2,0.1
		c-0.7,0.1-1.1,0.3-1.1,1.2v5.5h10v-6.5l-2-0.1v-3h8.5v2.9l-1.2,0.1c-0.6,0.1-1,0.3-1,1.1v16.2l2,0.1v3H153v-2.9l1.2-0.1
		c0.7-0.1,1-0.3,1-1.2V25.4z"/>
	<path class="st1" d="M163.9,35.6v-2.9l1.2-0.1c0.6-0.1,1-0.3,1-1V15.3l-2-0.1v-3h16.1V18l-3.6,0.2v-1.4c0-0.7-0.1-1.1-1-1.1h-5.2v6
		h8.1v3.6h-8.1V32h5.7c0.9,0,1-0.4,1-1.1v-1.8l3.6,0.2v6.3H163.9z"/>
	<path class="st1" d="M190.3,32.8l1.2-0.1c0.6-0.1,1-0.3,1-1V15.3l-2-0.1v-3h9.7c6.7,0,11,3.6,11,10.9c0,9.2-5.1,12.5-10.8,12.5h-10
		V32.8z M196.7,32.2h3.6c3.9,0,6.4-2.9,6.4-8.5c0-6.3-3.1-8.1-6.9-8.1h-3.1V32.2z"/>
	<path class="st1" d="M224.1,36.1c-6.3,0-10.2-4.1-10.2-12.1c0-9,5.7-12.2,10.6-12.2c5.2,0,10,3.2,10,12.2
		C234.5,32,230.3,36.1,224.1,36.1z M224.4,32.5c4.5,0,5.7-4.2,5.7-8.5c0-3.6-1-8.7-5.8-8.7c-4.5,0-6,4.2-6,8.4
		C218.3,27.8,219.3,32.5,224.4,32.5z"/>
	<path class="st1" d="M248.3,15.3c-4.4,0-6.7,3.2-6.7,8.5c0,5.5,1.8,8.9,6.7,8.8c1,0,1.9-0.1,2.6-0.3c0.6-0.2,0.7-0.5,0.7-1.2v-2.8
		l3.6,0.2v6.1c-1.9,1-4.7,1.4-7,1.4c-7.1,0-11.1-4-11.1-12c0-9.2,5.6-12.3,11.1-12.3c2.1,0,4.5,0.5,6.6,1.4v6l-3.6,0.2v-2.7
		c0-0.7-0.1-1-0.7-1.2C250,15.3,249,15.3,248.3,15.3z"/>
	<path class="st1" d="M269.8,29.1c0-2.2-2-2.9-4.5-3.5c-3.5-1-6.7-2.4-6.7-6.9c0-4.3,3.3-6.9,8.2-6.9c2.3,0,4.5,0.5,6.6,1.4v5.3
		l-3.6,0.2v-2c0-0.7-0.1-1-0.7-1.2c-0.7-0.2-1.6-0.3-2.3-0.3c-2.1,0-3.7,0.8-3.7,3c0,2.2,2,2.8,4.7,3.6c3.2,1,6.6,2.5,6.6,7
		c0,4.6-3.7,7.2-8.5,7.2c-2.8,0-5-0.5-7.1-1.4v-5.6l3.6-0.2V31c0,0.7,0.1,1,0.7,1.2c0.7,0.2,1.6,0.3,2.5,0.3
		C267.9,32.4,269.8,31.7,269.8,29.1z"/>
	<path class="st1" d="M283.7,32.8l1.2-0.1c0.6-0.1,1-0.3,1-1V15.3l-2-0.1v-3h9.7c6.7,0,11,3.6,11,10.9c0,9.2-5.1,12.5-10.8,12.5h-10
		V32.8z M290.2,32.2h3.6c3.9,0,6.4-2.9,6.4-8.5c0-6.3-3.1-8.1-6.9-8.1h-3.1V32.2z"/>
	<path class="st1" d="M314,15.3l-2.2-0.2v-2.9h8.1l7.2,20.3h0l2,0.1v3H320v-2.9l1.3-0.1c0.7-0.1,1.1-0.3,0.8-1.1l-0.7-2.2h-8.2
		l-1.1,3.1l2.1,0.1v3h-8.1v-2.9l1.2-0.1c0.6-0.1,0.8-0.3,1.1-1L314,15.3z M314,26.2h6.6l-3.2-10h-0.1L314,26.2z"/>
	<path class="st1" d="M334.2,26.7l-6-11.4l-1.7-0.1v-3h8.6v2.9l-1.1,0.1c-0.8,0.1-1,0.6-0.6,1.4l3,6.1h0.1l3.8-7.3l-1.8-0.1v-3h7.6
		v2.9l-1.1,0.1c-0.6,0.1-0.8,0.4-1.2,1.1l-5.5,10.5v5.8l2.7,0.1v3h-9.9v-2.9l1.9-0.1c0.7,0,1-0.3,1-1V26.7z"/>
</g>
<g>
	<g>
		<g class="st0">
			<path class="st2" d="M106.3,55.4l-1.9-0.2v-2.5h6.9l6.2,17.5h0l1.7,0.1v2.6h-7.8v-2.5l1.1-0.1c0.6-0.1,0.9-0.2,0.7-0.9l-0.6-1.9
				h-7.1l-0.9,2.7l1.8,0.1v2.6h-7v-2.5l1-0.1c0.5-0.1,0.7-0.3,0.9-0.8L106.3,55.4z M106.3,64.7h5.6l-2.7-8.6h-0.1L106.3,64.7z"/>
			<path class="st2" d="M124.8,66.3c0,3,1.5,3.8,4,3.8s3.9-1.2,3.9-3.7V55.4l-1.8-0.1v-2.6h7.2v2.5l-1,0.1c-0.5,0.1-0.9,0.3-0.9,0.9
				V67c0,4-3,6.3-7.6,6.3c-5,0-7.5-2-7.5-6.7V55.4l-1.8-0.1v-2.6h7.3v2.5l-1,0.1c-0.6,0.1-0.9,0.2-0.9,1V66.3z"/>
			<path class="st2" d="M149.3,67.2c0-1.9-1.7-2.5-3.8-3c-3-0.8-5.8-2-5.8-5.9c0-3.7,2.8-5.9,7-5.9c2,0,3.9,0.4,5.7,1.2v4.5
				l-3.1,0.2v-1.8c0-0.6-0.1-0.8-0.6-1c-0.6-0.2-1.4-0.2-2-0.2c-1.8,0-3.2,0.7-3.2,2.6c0,1.9,1.8,2.4,4,3.1c2.8,0.9,5.7,2.1,5.7,6
				c0,4-3.1,6.2-7.3,6.2c-2.4,0-4.3-0.4-6.1-1.2v-4.8l3.1-0.2v1.8c0,0.6,0.1,0.8,0.6,1c0.6,0.2,1.4,0.3,2.2,0.3
				C147.6,70.1,149.3,69.5,149.3,67.2z"/>
			<path class="st2" d="M160.8,55.7h-2.4c-0.6,0-0.7,0.4-0.7,0.9v1.4l-3.1-0.2v-5.1h15.8v5.1l-3.1,0.2v-1.4c0-0.6-0.1-0.9-0.9-0.9
				h-2.1v14.5l2.4,0.1v2.6h-8.5v-2.5l1.6-0.1c0.6-0.1,0.9-0.2,0.9-0.8V55.7z"/>
			<path class="st2" d="M171.9,70.4l1-0.1c0.5-0.1,0.9-0.2,0.9-0.8V55.4l-1.7-0.1v-2.6h8.3c4.4,0,7.3,1.5,7.3,5.6c0,3-2,4.7-3.6,5.3
				c0.8,0.3,1.3,0.8,1.7,1.8l2.2,4.7l1.7,0.1v2.6H182v-2.5l0.9-0.1c0.7-0.1,0.8-0.4,0.6-1l-1.4-3c-0.4-0.9-0.8-1.4-1.9-1.4h-2.8v5.3
				l2,0.1v2.6h-7.5V70.4z M180.1,62c2.6,0,3.7-1.2,3.7-3.3c0-2.7-1.6-3.1-4.1-3.1h-2.2V62H180.1z"/>
			<path class="st2" d="M196.8,55.4l-1.9-0.2v-2.5h6.9l6.2,17.5h0l1.7,0.1v2.6h-7.8v-2.5l1.1-0.1c0.6-0.1,0.9-0.2,0.7-0.9l-0.6-1.9
				h-7.1l-0.9,2.7l1.8,0.1v2.6h-7v-2.5l1-0.1c0.5-0.1,0.7-0.3,0.9-0.8L196.8,55.4z M196.8,64.7h5.6l-2.7-8.6h-0.1L196.8,64.7z"/>
			<path class="st2" d="M210.8,72.8v-2.5l1-0.1c0.5-0.1,0.9-0.2,0.9-0.8V55.4l-1.7-0.1v-2.6h7.3v2.5l-1,0.1c-0.5,0.1-0.9,0.2-0.9,1
				v13.5h5c0.6,0,0.7-0.4,0.7-1v-2.1l3.1,0.2v6H210.8z"/>
			<path class="st2" d="M229,55.4l-1.7-0.1v-2.6h7.3v2.5l-1,0.1c-0.5,0.1-0.9,0.2-0.9,1v13.9l1.7,0.1v2.6h-7.3v-2.5l1-0.1
				c0.6-0.1,0.9-0.2,0.9-1V55.4z"/>
			<path class="st2" d="M242.3,55.4l-1.9-0.2v-2.5h6.9l6.2,17.5h0l1.7,0.1v2.6h-7.8v-2.5l1.1-0.1c0.6-0.1,0.9-0.2,0.7-0.9l-0.6-1.9
				h-7.1l-0.9,2.7l1.8,0.1v2.6h-7v-2.5l1-0.1c0.5-0.1,0.7-0.3,0.9-0.8L242.3,55.4z M242.4,64.7h5.6l-2.7-8.6h-0.1L242.4,64.7z"/>
		</g>
	</g>
</g>
</svg>
