<?xml version="1.0" encoding="utf-8"?>
<!-- Generator: Adobe Illustrator 21.1.0, SVG Export Plug-In . SVG Version: 6.00 Build 0)  -->
<svg version="1.1" id="Layer_1" xmlns="http://www.w3.org/2000/svg" xmlns:xlink="http://www.w3.org/1999/xlink" x="0px" y="0px"
	 viewBox="0 0 198 198" style="enable-background:new 0 0 198 198;" xml:space="preserve">
<style type="text/css">
	.st0{enable-background:new    ;}
	.st1{fill:#152128;}
	.st2{fill:#FDB913;}
</style>
<g>
	<g>
		<g class="st0">
			<path class="st1" d="M95.1,34.7c-0.8,0.1-1,0.5-1.2,1.3l-4.6,20.1h-5l-3.9-16.4h-0.1l-3.8,16.4h-5.2l-5.1-21.3l-2.1-0.1v-3.1h9.1
				v3L72,34.7c-0.8,0.1-1.3,0.4-1.1,1.3l3.2,14.2h0.1l3.8-16.7h4.8l4,16.7h0.1L90,34.8l-2-0.1v-3.1h8.3v3L95.1,34.7z"/>
			<path class="st1" d="M97.7,53.1l1.2-0.1c0.6-0.1,1.1-0.3,1.1-1V34.8l-2.1-0.1v-3.1h10.1c5.4,0,8.8,1.8,8.8,6.8
				c0,3.7-2.4,5.7-4.4,6.5c1,0.4,1.5,1,2.1,2.2l2.7,5.8l2.1,0.1v3.1h-9.1v-3l1.1-0.1c0.8-0.1,1-0.4,0.7-1.2l-1.7-3.7
				c-0.5-1.1-1-1.7-2.3-1.7h-3.4v6.4l2.4,0.1v3.1h-9.2V53.1z M107.7,42.9c3.1,0,4.5-1.4,4.5-4.1c0-3.3-1.9-3.7-5-3.7h-2.7v7.8H107.7
				z"/>
			<path class="st1" d="M123,34.8l-2.1-0.1v-3.1h8.9v3l-1.2,0.1c-0.6,0.1-1.1,0.3-1.1,1.2v17l2.1,0.1v3.1h-8.9v-3L122,53
				c0.7-0.1,1.1-0.3,1.1-1.2V34.8z"/>
			<path class="st1" d="M138.9,35.2H136c-0.8,0-0.8,0.5-0.8,1.1v1.7l-3.8-0.3v-6.3h19.3v6.3l-3.8,0.3v-1.7c0-0.7-0.1-1.1-1.1-1.1
				h-2.5v17.6l2.9,0.1v3.1h-10.4v-3l2-0.1c0.7-0.1,1.1-0.3,1.1-1V35.2z"/>
			<path class="st1" d="M152.5,56.1v-3l1.2-0.1c0.6-0.1,1.1-0.3,1.1-1V34.8l-2.1-0.1v-3.1h16.9v6.1l-3.8,0.3v-1.5
				c0-0.7-0.1-1.1-1.1-1.1h-5.5v6.3h8.5v3.8h-8.5v6.9h5.9c1,0,1-0.4,1-1.2v-1.8l3.8,0.3v6.6H152.5z"/>
		</g>
		<g class="st0">
			<path class="st1" d="M112.7,65.6h-2.9c-0.8,0-0.8,0.5-0.8,1.1v1.7l-3.8-0.3V62h19.3v6.3l-3.8,0.3v-1.7c0-0.7-0.1-1.1-1.1-1.1
				h-2.5v17.6l2.9,0.1v3.1h-10.4v-3l2-0.1c0.7-0.1,1.1-0.3,1.1-1V65.6z"/>
			<path class="st1" d="M143.4,75.8H133v7.4l2.1,0.1v3.1h-8.9v-3l1.2-0.1c0.6-0.1,1.1-0.3,1.1-1V65.2l-2.1-0.1V62h8.9v3l-1.2,0.1
				c-0.7,0.1-1.1,0.3-1.1,1.2V72h10.4v-6.8l-2.1-0.1V62h8.9v3l-1.2,0.1c-0.6,0.1-1.1,0.3-1.1,1.2v17l2.1,0.1v3.1h-8.9v-3l1.2-0.1
				c0.7-0.1,1.1-0.3,1.1-1.2V75.8z"/>
			<path class="st1" d="M152.5,86.5v-3l1.2-0.1c0.6-0.1,1.1-0.3,1.1-1V65.2l-2.1-0.1V62h16.9v6.1l-3.8,0.3v-1.5
				c0-0.7-0.1-1.1-1.1-1.1h-5.5V72h8.5v3.8h-8.5v6.9h5.9c1,0,1-0.4,1-1.2v-1.8l3.8,0.3v6.6H152.5z"/>
		</g>
		<g class="st0">
			<path class="st1" d="M82.4,113.9l1.2-0.1c0.6-0.1,1.1-0.3,1.1-1V95.7l-2.1-0.1v-3.1h10.1c7,0,11.5,3.7,11.5,11.4
				c0,9.7-5.4,13.1-11.3,13.1H82.4V113.9z M89.1,113.4h3.8c4.1,0,6.7-3,6.7-8.9c0-6.6-3.2-8.5-7.2-8.5h-3.3V113.4z"/>
			<path class="st1" d="M117.8,117.4c-6.6,0-10.7-4.3-10.7-12.7c0-9.4,5.9-12.8,11.1-12.8c5.5,0,10.4,3.4,10.4,12.8
				C128.6,113.2,124.2,117.4,117.8,117.4z M118,113.7c4.7,0,6-4.4,6-8.8c0-3.8-1-9.1-6.1-9.1c-4.7,0-6.3,4.4-6.3,8.8
				C111.7,108.7,112.7,113.7,118,113.7z"/>
			<path class="st1" d="M143.1,95.6c-4.6,0-7,3.3-7,8.9c0,5.8,1.9,9.4,7,9.2c1,0,2-0.1,2.7-0.3c0.7-0.2,0.8-0.5,0.8-1.2v-2.9
				l3.8,0.3v6.4c-2,1.1-4.9,1.5-7.3,1.5c-7.5,0-11.6-4.2-11.6-12.6c0-9.6,5.9-12.8,11.6-12.8c2.2,0,4.7,0.5,6.9,1.5v6.3l-3.8,0.3
				v-2.9c0-0.7-0.1-1-0.8-1.2C144.8,95.7,143.8,95.6,143.1,95.6z"/>
			<path class="st1" d="M165.6,110.1c0-2.3-2.1-3-4.7-3.7c-3.6-1-7-2.5-7-7.2c0-4.5,3.5-7.2,8.5-7.2c2.4,0,4.7,0.5,6.9,1.5V99
				l-3.8,0.3v-2.1c0-0.7-0.1-1-0.8-1.2c-0.7-0.2-1.7-0.3-2.4-0.3c-2.2,0-3.9,0.9-3.9,3.2c0,2.3,2.1,2.9,4.9,3.8
				c3.4,1.1,6.9,2.6,6.9,7.3c0,4.9-3.8,7.5-8.9,7.5c-2.9,0-5.2-0.5-7.4-1.5v-5.8l3.8-0.3v2.2c0,0.7,0.1,1,0.8,1.2
				c0.7,0.2,1.7,0.3,2.7,0.3C163.6,113.6,165.6,112.8,165.6,110.1z"/>
		</g>
		<g>
			<g class="st0">
				<path class="st1" d="M105.8,143.7l1.2-0.1c0.6-0.1,1.1-0.3,1.1-1v-17.1l-2.1-0.1v-3.1h10.1c7,0,11.5,3.7,11.5,11.4
					c0,9.7-5.4,13.1-11.3,13.1h-10.5V143.7z M112.6,143.1h3.8c4.1,0,6.7-3,6.7-8.9c0-6.6-3.2-8.5-7.2-8.5h-3.3V143.1z"/>
				<path class="st1" d="M137.5,125.4l-2.3-0.2v-3h8.4l7.5,21.3h0l2.1,0.1v3.1h-9.5v-3l1.4-0.1c0.8-0.1,1.1-0.3,0.9-1.1l-0.8-2.3
					h-8.6l-1.1,3.2l2.2,0.1v3.1h-8.5v-3l1.2-0.1c0.6-0.1,0.8-0.3,1.1-1L137.5,125.4z M137.5,136.8h6.9l-3.3-10.5h-0.1L137.5,136.8z"
					/>
				<path class="st1" d="M158.7,137.3l-6.3-11.9l-1.7-0.1v-3.1h9v3l-1.1,0.1c-0.8,0.1-1,0.7-0.6,1.4l3.1,6.4h0.1l4-7.7l-1.8-0.1
					v-3.1h7.9v3l-1.1,0.1c-0.6,0.1-0.9,0.4-1.3,1.1l-5.8,10.9v6.1l2.9,0.1v3.1h-10.4v-3l2-0.1c0.7,0,1.1-0.3,1.1-1V137.3z"/>
			</g>
		</g>
	</g>
	<g>
		<g>
			<g class="st0">
				<path class="st2" d="M53,155.7l-1.5-0.1v-1.9H57l4.9,13.9h0l1.4,0.1v2h-6.2v-1.9l0.9-0.1c0.5,0,0.7-0.2,0.6-0.7l-0.5-1.5h-5.6
					l-0.7,2.1l1.4,0.1v2h-5.5v-1.9l0.8-0.1c0.4,0,0.6-0.2,0.7-0.7L53,155.7z M53,163.1h4.5l-2.2-6.8h-0.1L53,163.1z"/>
				<path class="st2" d="M67.7,164.4c0,2.4,1.2,3,3.1,3s3.1-1,3.1-2.9v-8.8l-1.4-0.1v-2h5.7v1.9l-0.8,0.1c-0.4,0-0.7,0.2-0.7,0.7
					v8.6c0,3.1-2.4,5-6,5c-3.9,0-6-1.6-6-5.4v-8.8l-1.4-0.1v-2h5.8v1.9l-0.8,0.1c-0.5,0-0.7,0.2-0.7,0.8V164.4z"/>
				<path class="st2" d="M87.1,165.1c0-1.5-1.4-1.9-3.1-2.4c-2.4-0.6-4.6-1.6-4.6-4.7c0-2.9,2.3-4.7,5.6-4.7c1.6,0,3.1,0.3,4.5,1
					v3.6l-2.4,0.2v-1.4c0-0.5-0.1-0.6-0.5-0.8c-0.5-0.1-1.1-0.2-1.6-0.2c-1.4,0-2.5,0.6-2.5,2.1s1.4,1.9,3.2,2.4
					c2.2,0.7,4.5,1.7,4.5,4.8c0,3.2-2.5,4.9-5.8,4.9c-1.9,0-3.4-0.3-4.9-1v-3.8l2.4-0.2v1.5c0,0.5,0.1,0.6,0.5,0.8
					c0.5,0.1,1.1,0.2,1.7,0.2C85.8,167.4,87.1,166.9,87.1,165.1z"/>
				<path class="st2" d="M96.2,156h-1.9c-0.5,0-0.6,0.3-0.6,0.7v1.1l-2.4-0.2v-4.1h12.6v4.1l-2.4,0.2v-1.1c0-0.5,0-0.7-0.7-0.7h-1.6
					v11.5l1.9,0.1v2h-6.8v-1.9l1.3-0.1c0.5,0,0.7-0.2,0.7-0.7V156z"/>
				<path class="st2" d="M105.1,167.6l0.8-0.1c0.4,0,0.7-0.2,0.7-0.7v-11.2l-1.4-0.1v-2h6.6c3.5,0,5.8,1.2,5.8,4.4
					c0,2.4-1.6,3.7-2.9,4.2c0.6,0.2,1,0.6,1.4,1.5l1.7,3.8l1.4,0v2h-5.9v-1.9l0.7-0.1c0.6-0.1,0.7-0.3,0.5-0.8l-1.1-2.4
					c-0.3-0.7-0.7-1.1-1.5-1.1h-2.2v4.2l1.6,0.1v2h-6V167.6z M111.6,161c2,0,3-0.9,3-2.6c0-2.2-1.2-2.4-3.3-2.4h-1.8v5.1H111.6z"/>
				<path class="st2" d="M124.8,155.7l-1.5-0.1v-1.9h5.5l4.9,13.9h0l1.4,0.1v2h-6.2v-1.9l0.9-0.1c0.5,0,0.7-0.2,0.6-0.7l-0.5-1.5
					h-5.6l-0.7,2.1l1.4,0.1v2h-5.5v-1.9l0.8-0.1c0.4,0,0.6-0.2,0.7-0.7L124.8,155.7z M124.9,163.1h4.5l-2.2-6.8h-0.1L124.9,163.1z"
					/>
				<path class="st2" d="M136,169.6v-1.9l0.8-0.1c0.4,0,0.7-0.2,0.7-0.7v-11.2l-1.4-0.1v-2h5.8v1.9l-0.8,0.1c-0.4,0-0.7,0.2-0.7,0.8
					v10.7h4c0.5,0,0.6-0.3,0.6-0.8v-1.7l2.5,0.2v4.8H136z"/>
				<path class="st2" d="M150.4,155.7l-1.4-0.1v-2h5.8v1.9l-0.8,0.1c-0.4,0-0.7,0.2-0.7,0.8v11.1l1.4,0.1v2h-5.8v-1.9l0.8-0.1
					c0.5,0,0.7-0.2,0.7-0.8V155.7z"/>
				<path class="st2" d="M161,155.7l-1.5-0.1v-1.9h5.5l4.9,13.9h0l1.4,0.1v2h-6.2v-1.9l0.9-0.1c0.5,0,0.7-0.2,0.6-0.7l-0.5-1.5h-5.6
					l-0.7,2.1l1.4,0.1v2h-5.5v-1.9l0.8-0.1c0.4,0,0.6-0.2,0.7-0.7L161,155.7z M161,163.1h4.5l-2.2-6.8h-0.1L161,163.1z"/>
			</g>
		</g>
	</g>
</g>
</svg>
