<?xml version="1.0" encoding="utf-8"?>
<!-- Generator: Adobe Illustrator 21.0.1, SVG Export Plug-In . SVG Version: 6.00 Build 0)  -->
<svg version="1.1" id="Layer_1" xmlns="http://www.w3.org/2000/svg" xmlns:xlink="http://www.w3.org/1999/xlink" x="0px" y="0px"
	 viewBox="0 0 198 198" style="enable-background:new 0 0 198 198;" xml:space="preserve">
<style type="text/css">
	.st0{enable-background:new    ;}
	.st1{fill:#152128;}
	.st2{fill:#FDB913;}
</style>
<g>
	<g class="st0">
		<path class="st1" d="M67.1,6.8C65.8,6.9,65.3,7.6,65,9l-8,34.4h-8.6l-6.6-28.1h-0.2l-6.4,28.1h-8.9L17.6,7L14,6.8V1.5h15.7v5.1
			l-2.1,0.2c-1.4,0.1-2.2,0.7-1.9,2.2l5.5,24.4h0.3l6.6-28.5h8.1l6.8,28.7H53l5.4-26.4L55,6.8V1.5h14.2v5.1L67.1,6.8z"/>
		<path class="st1" d="M71.5,38.3l2.1-0.2c1.1-0.1,1.8-0.5,1.8-1.8V7l-3.6-0.2V1.5h17.2c9.3,0,15.1,3,15.1,11.6
			c0,6.3-4.1,9.7-7.6,11.1c1.7,0.6,2.7,1.7,3.6,3.8l4.5,9.9l3.6,0.1v5.4H92.8v-5.1l1.8-0.2c1.5-0.2,1.8-0.8,1.2-2l-3-6.3
			c-0.9-2-1.8-2.9-4-2.9h-5.7v11l4.1,0.2v5.4H71.5V38.3z M88.6,20.9c5.4,0,7.8-2.5,7.8-6.9c0-5.7-3.3-6.4-8.6-6.4h-4.6v13.3H88.6z"
			/>
		<path class="st1" d="M115,7l-3.6-0.2V1.5h15.3v5.1l-2.1,0.2c-1.1,0.1-1.8,0.5-1.8,2v29.1l3.6,0.2v5.4H111v-5.1l2.1-0.2
			c1.2-0.1,1.8-0.5,1.8-2.1C115,36.1,115,7,115,7z"/>
		<path class="st1" d="M142.2,7.7h-4.9c-1.3,0-1.4,0.9-1.4,2v3l-6.4-0.4V1.5h33v10.7l-6.4,0.4v-3c0-1.2-0.1-2-1.8-2h-4.3v30.2l5,0.2
			v5.4H137v-5.1l3.3-0.2c1.2-0.1,1.8-0.5,1.8-1.8L142.2,7.7L142.2,7.7z"/>
		<path class="st1" d="M165.5,43.4v-5.1l2.1-0.2c1.1-0.1,1.8-0.5,1.8-1.8V7l-3.6-0.2V1.5h28.9v10.5l-6.4,0.4V9.9c0-1.2-0.1-2-1.8-2
			h-9.3v10.8h14.6v6.4h-14.6v11.8h10.2c1.6,0,1.8-0.8,1.8-2v-3.2l6.4,0.4v11.2L165.5,43.4L165.5,43.4z"/>
	</g>
	<g class="st0">
		<path class="st1" d="M97.2,59.8h-4.9c-1.3,0-1.5,0.9-1.5,2v3l-6.4-0.4V53.6h33v10.7l-6.4,0.4v-3c0-1.2-0.1-2-1.8-2h-4.3V90l5,0.2
			v5.4H92v-5.1l3.3-0.2c1.2-0.1,1.8-0.5,1.8-1.8V59.8z"/>
		<path class="st1" d="M149.9,77.3H132V90l3.7,0.2v5.4h-15.3v-5.1l2.1-0.2c1.1-0.1,1.8-0.5,1.8-1.8V59.2l-3.6-0.2v-5.4H136v5.1
			l-2.1,0.2c-1.2,0.1-1.9,0.5-1.9,2.1v9.8h17.9V59.2l-3.6-0.2v-5.4h15.3v5.1l-2.1,0.2c-1.1,0.1-1.8,0.5-1.8,2V90l3.6,0.2v5.4h-15.3
			v-5.1l2.1-0.2c1.2-0.1,1.8-0.5,1.8-2.1V77.3z"/>
		<path class="st1" d="M165.5,95.6v-5.1l2.1-0.2c1.1-0.1,1.8-0.5,1.8-1.8V59.2l-3.6-0.2v-5.4h28.9v10.5l-6.4,0.4V62
			c0-1.2-0.1-2-1.8-2h-9.3v10.8h14.6v6.4h-14.6v11.8h10.2c1.6,0,1.8-0.8,1.8-2v-3.2l6.4,0.4v11.2L165.5,95.6L165.5,95.6z"/>
	</g>
	<g class="st0">
		<path class="st1" d="M45.3,142.6l2.1-0.2c1.1-0.1,1.8-0.5,1.8-1.8v-29.4l-3.6-0.2v-5.4h17.3c12.1,0,19.7,6.4,19.7,19.5
			c0,16.5-9.2,22.5-19.4,22.5H45.3V142.6z M56.9,141.6h6.4c7.1,0,11.5-5.2,11.5-15.3c0-11.4-5.5-14.5-12.3-14.5h-5.6L56.9,141.6
			L56.9,141.6z"/>
		<path class="st1" d="M105.9,148.5c-11.2,0-18.3-7.3-18.3-21.7c0-16.2,10.2-21.8,19-21.8c9.4,0,17.9,5.8,17.9,21.8
			C124.5,141.3,117,148.5,105.9,148.5z M106.4,142.1c8,0,10.3-7.6,10.3-15.1c0-6.4-1.7-15.5-10.4-15.5c-8.1,0-10.7,7.5-10.7,15
			C95.5,133.7,97.3,142.1,106.4,142.1z"/>
		<path class="st1" d="M149.4,111.2c-8,0-11.9,5.7-11.9,15.2c0,9.9,3.3,16,12.1,15.8c1.8,0,3.4-0.2,4.6-0.6c1.1-0.4,1.3-0.9,1.3-2.1
			v-5l6.4,0.4v10.9c-3.5,1.8-8.5,2.6-12.5,2.6c-12.8,0-19.8-7.2-19.8-21.6c0-16.5,10.1-22,19.8-22c3.7,0,8.1,0.8,11.9,2.6v10.7
			l-6.4,0.4v-4.9c0-1.2-0.2-1.7-1.3-2.1C152.3,111.3,150.6,111.2,149.4,111.2z"/>
		<path class="st1" d="M187.8,136c0-4-3.6-5.1-8-6.3c-6.3-1.7-12.1-4.2-12.1-12.3c0-7.7,5.9-12.4,14.6-12.4c4.2,0,8.1,0.8,11.9,2.6
			v9.5l-6.4,0.4v-3.7c0-1.2-0.2-1.7-1.3-2.1c-1.2-0.4-2.8-0.5-4.1-0.5c-3.7,0-6.6,1.5-6.6,5.4c0,3.9,3.7,5,8.4,6.4
			c5.7,1.8,11.8,4.4,11.8,12.6c0,8.3-6.6,12.9-15.3,12.9c-5,0-9-0.8-12.7-2.6v-10l6.4-0.4v3.8c0,1.2,0.2,1.7,1.3,2.1
			c1.2,0.4,2.8,0.6,4.5,0.6C184.4,142,187.8,140.7,187.8,136z"/>
	</g>
	<g>
		<g class="st0">
			<path class="st2" d="M11.3,191.3l1.7-0.2c0.9-0.1,1.5-0.4,1.5-1.4v-23.5l-2.9-0.2v-4.3H26c7.4,0,12,3.5,12,10.3
				c0,7.7-5.5,11.5-13.1,11.5h-4.3v7.3l4.8,0.2v4.3H11.3L11.3,191.3L11.3,191.3z M24.2,178.7c4.4,0,7.4-1.5,7.4-6c0-5.2-3-6-7.9-6
				h-3.1v12L24.2,178.7L24.2,178.7z"/>
			<path class="st2" d="M41.1,191.3l1.7-0.2c0.9-0.1,1.5-0.4,1.5-1.4v-23.5l-2.9-0.2v-4.3h13.8c7.4,0,12.1,2.4,12.1,9.3
				c0,5.1-3.3,7.8-6.1,8.9c1.4,0.5,2.1,1.4,2.9,3.1l3.6,7.9l2.9,0.1v4.3H58.1v-4.1l1.5-0.2c1.2-0.2,1.4-0.6,1-1.6l-2.4-5.1
				c-0.7-1.6-1.4-2.3-3.2-2.3h-4.6v8.8l3.3,0.2v4.3H41.1L41.1,191.3L41.1,191.3z M54.8,177.3c4.3,0,6.2-2,6.2-5.6
				c0-4.5-2.6-5.1-6.9-5.1h-3.7v10.7H54.8z"/>
			<path class="st2" d="M82.6,166.1l-3.2-0.3v-4.1H91l10.3,29.2h0l2.9,0.2v4.3h-13v-4.1l1.9-0.2c1.1-0.1,1.6-0.4,1.2-1.5l-1.1-3.1
				H81.5l-1.5,4.4l3,0.2v4.3H71.3v-4.1l1.7-0.2c0.9-0.1,1.2-0.5,1.5-1.4L82.6,166.1z M82.7,181.8h9.4l-4.5-14.4h-0.2L82.7,181.8z"/>
			<path class="st2" d="M133,192.7c-2.8,1.9-6.9,3.2-11.6,3.2c-9.1,0-14.9-5.6-14.9-17.3c0-13.1,8.8-17.5,16.1-17.5
				c3.4,0,6.9,0.7,9.9,2.1v8.6l-5.2,0.4v-3.9c0-1-0.2-1.4-1.1-1.7c-1-0.3-2.3-0.4-3.7-0.4c-6.8,0-9.7,4.5-9.7,12.1
				c0,7.9,2.6,12.7,8.8,12.7c2,0,4.3-0.6,5.4-1.2v-7.5H127l-3.9-0.2v-4.3h12.6v4l-1.2,0.1c-1.1,0.1-1.5,0.5-1.5,1.7V192.7z"/>
			<path class="st2" d="M146.6,184.4c0,5,2.6,6.4,6.6,6.4c4,0,6.6-2,6.6-6.2v-18.5l-2.9-0.2v-4.3h12v4.1l-1.7,0.2
				c-0.9,0.1-1.5,0.5-1.5,1.5v18c0,6.6-5,10.5-12.7,10.5c-8.3,0-12.5-3.3-12.5-11.3v-18.5l-2.9-0.2v-4.3h12.2v4.1l-1.7,0.2
				c-1,0.1-1.5,0.4-1.5,1.7L146.6,184.4L146.6,184.4z"/>
			<path class="st2" d="M171.4,195.3v-4.1l1.7-0.2c0.9-0.1,1.5-0.4,1.5-1.4v-23.5l-2.9-0.2v-4.3h23.1v8.4l-5.2,0.4v-2
				c0-1-0.1-1.6-1.5-1.6h-7.5v8.6h11.7v5.2h-11.7v9.4h8.1c1.3,0,1.4-0.6,1.4-1.6V186l5.2,0.4v9L171.4,195.3L171.4,195.3z"/>
		</g>
	</g>
</g>
</svg>
