<?xml version="1.0" encoding="utf-8"?>
<!-- Generator: Adobe Illustrator 19.2.0, SVG Export Plug-In . SVG Version: 6.00 Build 0)  -->
<svg version="1.1" id="DeveloperHub.io_Full-400pt_xA0_Image_1_"
	 xmlns="http://www.w3.org/2000/svg" xmlns:xlink="http://www.w3.org/1999/xlink" x="0px" y="0px" viewBox="0 0 4400 1024"
	 style="enable-background:new 0 0 4400 1024;" xml:space="preserve">
<style type="text/css">
	.st0{fill:#FEFCF9;}
	.st1{fill:#444444;}
	.st2{fill:#9B6F8A;}
	.st3{fill:#5BC0DE;}
	.st4{fill:#EFAC4E;}
	.st5{fill:#27AD44;}
	.st6{fill:#D9524F;}
</style>
<g>
	<path class="st0" d="M4,564c-0.7,0-1.3,0-2,0"/>
	<path class="st1" d="M1298,371.9c10.3,2.1,20.7,4,31,6.2c21.8,4.5,41.7,14.1,59,27.6c10.5,8.1,18.9,19,26,30.8
		c11.3,18.8,16.3,38.9,18.4,60.6c2.4,23.9-0.4,46.7-8.4,69c-4.7,13-12.6,24.1-20.5,35.4c-11.7,16.7-28.7,26.5-45.6,36
		c-9.2,5.2-19.4,9.9-30.7,10.4c-5.4,0.3-9.6,4.9-15.8,4c-4.3-0.6-8.8,1.3-13.3,2c-36.7,0.1-73.4,0.3-110.1,0.3
		c-3.9,0-7.8-0.7-11.7-1.1c0.1-2.7,0.4-5.3,0.4-8c0-88.2,0-176.4,0-264.6c0-2.7-0.3-5.3-0.4-8c3.9-0.4,7.9-1,11.8-1
		C1224.7,371.7,1261.3,371.8,1298,371.9z M1227.6,610.5c24.3-1,47.6,1.6,70.7-2.5c28-5,51.9-16.5,67.7-41.4
		c12-18.9,14.5-39.8,13.4-61.4c-2.5-49.4-28.5-78.7-76.9-87.7c-22.2-4.1-44.5-2.8-66.8-3.1c-2.6,0-5.2,0.4-8.2,0.6
		C1227.6,480.1,1227.6,544.6,1227.6,610.5z"/>
	<path class="st1" d="M3178.1,530c-0.3,2.3-1,4.5-1,6.8c-0.1,36.8-0.1,73.5,0,110.3c0,1.9,0.5,3.9,0.7,5.8
		c-17.2,0.1-34.5,0.2-51.7,0.4c0.1-2.7,0.4-5.3,0.4-8c0-88.2,0-176.4,0-264.6c0-2.7-0.3-5.3-0.4-8c16-0.3,32-0.7,48-0.9
		c1.2,0,2.4,0.8,3.7,1.3c-0.2,1.3-0.7,2.6-0.7,3.9c0,34.1,0,68.2,0,102.2c0,1.6,0.6,3.2,0.9,4.8c2.1,0.6,4.1,1.6,6.2,1.6
		c39.6,0.1,79.3,0.1,118.9,0c1.9,0,3.8-0.4,6.7-0.7c0-37.9,0-75.3,0-112.5c17.2,0,33.4,0,49.4,0c0,94.2,0,187.6,0,281.4
		c-16.7,0-32.8,0-50.1,0c0-42,0-83.4,0-124.9c-2.4-0.3-3.7-0.5-5-0.5c-40.3,0-80.6,0-120.9,0C3181.6,528.4,3179.9,529.5,3178.1,530z
		"/>
	<path class="st1" d="M3701.8,354.9c-0.2,1-0.6,1.9-0.6,2.9c0,40.3,0,80.6,0,120.9c0,1,0.3,1.9,0.7,3.7c1.8-0.8,3.9-1.2,4.9-2.3
		c15.1-16.8,35-22.5,56.3-23.5c17.4-0.9,34.2,3.3,49.4,12.1c27.4,15.9,40.4,40.9,45.5,71.3c4.4,26.5-0.8,51.1-12.7,74.7
		c-6.7,13.1-17,23.1-28.9,31.4c-15.6,10.8-33.1,16.6-52.1,15.8c-24.9-1-46.8-9-62.3-29.9c-0.7-1.3-1.5-2.7-2.2-4
		c-0.6,0.2-1.2,0.3-1.8,0.5c0,8.5,0,16.9,0,25.9c-8.2,0-15.5,0-22.8,0c-7.2,0-14.4,0-21.4,0c-2.2-29.1-1.1-294.1,1.3-302.2
		c13.8,0,27.7-0.1,41.7,0.1C3698.5,352.4,3700.1,354,3701.8,354.9z M3751.2,620.4c26.5,0.1,42.7-10.2,52.3-29.7
		c10.1-20.5,10.5-41.8,1-62.7c-15.7-34.6-58.2-42.5-85.6-16.1c-25,24.1-25.9,67.1-1.7,92C3727.6,614.5,3740.2,620.7,3751.2,620.4z"
		/>
	<path class="st1" d="M2496.8,462.2c14.6,0,29.2,0,45.2,0c0,7.7,0,14.8,0,21.8c0.7,0.2,1.4,0.5,2.1,0.7c1.8-1.6,3.7-3.1,5.4-4.8
		c12-12.2,26.5-18.8,43.3-21.9c19.7-3.7,38.1,0.4,56.3,6.7c5.4,1.9,10.3,5.4,15,8.8c18.4,13.6,29.7,32.5,35,54.2
		c5.9,24.1,5.3,48.5-3.6,72.1c-5.5,14.8-13.3,28.8-25.6,38.9c-13,10.7-27.7,17.9-44.9,21.3c-20.4,4-38.9,1.3-56.7-8.2
		c-6.6-3.5-12-9.1-18-13.7c-0.4-3.5-2.5-5.5-6.7-7.4c0,40.7,0,80.1,0,119.5c-16,0-31.2,0-47.4,0c0-3.8,0-7.1,0-10.3
		c0-89.2,0-178.4,0-267.7C2496.2,468.8,2496.6,465.5,2496.8,462.2z M2654.2,559.3c0-13.2-2.5-24.1-7.9-34.3
		c-15.9-30.2-53.3-38-80-16.8c-28.7,22.8-31.5,68.2-6.4,95.2c23.9,25.7,70,23.4,87.5-13.9C2652.1,579.4,2654.5,568.8,2654.2,559.3z"
		/>
	<path class="st2" d="M590,932c-10.8-0.2-21.5-1.2-31.9-4.7c13.3-13.1,26.5-26.2,39.8-39.4c15.4,0,30.8,0.1,46.2-0.1
		c3.5,0,7-1.1,10.5-1.6c19.8-0.2,38.7-5,57.4-10.8c20-6.1,39.3-14.1,57.7-24.1c20.2-11,38.6-24.4,56.1-39.3
		c19.3-16.5,35.9-35.3,49.9-56.3c20.4-30.5,36.1-63.3,46.9-98.4c5-16.1,9.7-32.2,11.6-49.1c1.6-13.9,4.5-27.7,6-41.6
		c0.8-7.5,0.1-15.3,0.1-22.9c2.9-2,6.1-3.7,8.6-6.1c11.6-11.2,23.1-22.5,34.6-33.8c0.8,2.7,1.6,5.5,2.3,8.2c0,20.7,0,41.4-0.1,62
		c-0.6,2.2-1.7,4.3-1.8,6.5c-2.4,38.9-11.9,76.3-25.3,112.7c-5.4,14.8-11.6,29.5-18.8,43.6c-10.2,19.6-21,38.9-34.8,56.4
		c-7.3,9.3-15.2,18.2-22.9,27.2c-5.2,6-9.9,12.5-15.8,17.7c-27.5,24.2-56.5,46.3-90.2,61.4c-16.1,7.2-32,14.8-49.5,18.8
		c-13.6,3.1-26.9,7.9-40.5,10.9c-8.6,1.9-17.6,1.9-26.4,2.7C636.7,932,613.3,932,590,932z"/>
	<path class="st3" d="M480.4,391.7c10.2-2.5,20.3-6,30.7-7.2c14.5-1.7,29.1-2.3,43.7-2.3c28.9,0,56.4,6.7,82.9,17.9
		c15.6,6.5,30.2,14.7,43.9,24.6c14,10.1,26.6,21.5,36.6,35.7c-1.6,2.4-2.9,5-4.9,7.1c-6.6,6.9-13.5,13.4-20.1,20.3
		c-2.2,2.3-3.5,5.3-5.3,7.9c-2.5-3-5.1-5.9-7.6-9c-24.2-30-56.9-45.4-93.3-54.7c-18.9-4.8-38.2-5.4-57.1-3.7
		c-38.8,3.4-74.2,17.5-103.9,42.9c-25.3,21.6-44.2,48.1-56.2,79.6c-7.1,18.7-12.9,37.7-15.1,57.4c-1.7,15.3-3.3,30.8-1.4,46.6
		c2.2,18.5,4.6,36.7,9.9,54.6c7.7,25.7,19.4,49.3,35,71c-1.9,2.6-3.5,5.4-5.7,7.7c-6.4,6.6-13.1,12.9-19.4,19.6
		c-2.1,2.3-3.5,5.3-5.2,7.9c-7.7-11-16.4-21.5-23.1-33.1c-15.8-27.9-27.4-57.4-32.8-89.3c-3.4-20.2-6.6-40.3-5.7-60.7
		c0.5-10.8,2.2-21.5,3.9-32.1c1.7-11.3,4.3-22.4,6.1-33.7c1.1-7,4-13.1,8.2-18.7c2.1-1.5,4.5-2.7,6.3-4.6
		c48.8-48.6,97.5-97.3,146.2-146.1C478.5,395.7,479.3,393.6,480.4,391.7z"/>
	<path class="st1" d="M1519.8,584.4c1.2,2.9,2,6.2,3.8,8.7c17.5,24.3,32.2,30,60.2,26.5c12.8-1.6,24.5-8.4,33.4-18.7
		c5.4-6.2,5.5-5.7,12.1,0c7.3,6.4,15.1,12.3,22.6,18.5c0.7,0.6,1.2,1.5,2,2.6c-10.7,17.2-26.5,26.9-45.2,33.6
		c-15.2,5.4-30.6,7.8-46.3,6.2c-37.9-3.8-68-20.2-85.1-55.9c-9.3-19.4-11.1-40.3-8.8-61.2c2.2-21.1,10.5-40.3,25-56.2
		c13.6-14.9,30.3-24.6,50.3-28.9c19.2-4.1,38.2-4.1,57,1.3c30.5,8.8,48.4,30,57.3,59.6c5,16.7,5.8,33.8,6,51.1
		c-3.5,0.7-6.9,2-10.4,2c-41.6,0.1-83.3,0.1-124.9,0.1c-3.5,0-7,0-11.7,0C1518.1,578.3,1519,581.4,1519.8,584.4z M1615.1,539.3
		c0-19-6.6-32.4-19.4-40.2c-24.1-14.7-66.2-5.5-76.5,29.5c-1,3.3-1.1,6.9-1.6,10.7C1550.6,539.3,1582.5,539.3,1615.1,539.3z"/>
	<path class="st1" d="M2787.8,580.5c2.9,18.2,14.9,28.9,30.8,35.5c23.2,9.8,51.2,3.9,68.3-15.8c1-1.2,2.1-2.4,3.4-3.9
		c13.1,5.4,21.3,17,34,24c-9.3,12.5-19.3,22.8-32.7,29.4c-10.3,5.2-21,8.2-32.6,10.2c-29,5.1-55.2-0.1-79.6-15.7
		c-22.4-14.4-35.3-35.7-40.9-61.3c-1.9-8.9-2.6-18.3-2.1-27.3c1.8-29.8,11.9-56,35.1-76c13.1-11.2,28.3-17.8,45.1-21
		c21.7-4.1,42.9-2.1,63.3,6c21.9,8.8,36,25.2,43.8,47.1c2.8,8,4.2,16.5,6.4,24.8c0.3,1.2,1.2,2.3,1.8,3.5c-0.6,11.1,2,22.3-0.9,34.1
		c-48.4,0-96.4,0-144.5,0c0,1.9-0.2,2.9,0,3.8C2786.8,578.8,2787.4,579.6,2787.8,580.5z M2883.7,539.3c0.7-18.4-6.2-32.3-19.2-40.2
		c-26.6-16.2-65.3-2.5-75.5,26.9c-1.4,4.1-1.9,8.6-2.8,13.4C2819.4,539.3,2851.3,539.3,2883.7,539.3z"/>
	<path class="st1" d="M1953.8,580.5c2.9,18.2,14.9,28.9,30.8,35.5c23.2,9.8,51.2,3.9,68.3-15.8c1-1.2,2.1-2.4,3.4-3.9
		c13.1,5.4,21.3,17,34,24c-9.3,12.5-19.3,22.8-32.7,29.4c-10.3,5.2-21,8.2-32.6,10.2c-29,5.1-55.2-0.1-79.6-15.7
		c-22.4-14.4-35.3-35.7-40.9-61.3c-1.9-8.9-2.6-18.3-2.1-27.3c1.8-29.8,11.9-56,35.1-76c13.1-11.2,28.3-17.8,45.1-21
		c21.7-4.1,42.9-2.1,63.3,6c21.9,8.8,36,25.2,43.8,47.1c2.8,8,4.2,16.5,6.4,24.8c0.3,1.2,1.2,2.3,1.8,3.5c-0.6,11.1,2,22.3-0.9,34.1
		c-48.4,0-96.4,0-145.2,0C1952.7,576.9,1953.3,578.7,1953.8,580.5z M2049.3,539.1c2.6-21.3-10.5-40.3-30.9-45.2
		c-10-2.4-19.9-2-29.6,0.7c-20.9,5.9-36.6,25.4-35.9,44.5C1985,539.1,2017.2,539.1,2049.3,539.1z"/>
	<path class="st1" d="M2240.1,559.3c-1.2-27.7,7.9-50.7,25.3-70.1c10.4-11.6,23.1-20.3,38.3-25.5c35.2-12.1,69-8.8,100.9,8.9
		c16.8,9.2,28.8,24.1,36.2,42.1c12.9,31,12.1,61.6-2.5,91.8c-8.1,16.8-20.8,29.5-36.4,39.3c-20.1,12.5-42.3,18.4-65.7,16
		c-43.6-4.5-74.5-27-90.6-68.2C2241.2,582.2,2238.6,570.4,2240.1,559.3z M2347.8,620.4c19.5,0.1,35.6-9.8,45.3-29
		c10.7-21.1,11.1-43,0.9-64.5c-9.8-20.7-26.8-30.9-49.6-30.5c-22.5,0.3-38.7,11.1-48,31.5c-9.2,20.2-9.1,40.9,0.2,60.9
		C2306.1,609.4,2322.4,620.4,2347.8,620.4z"/>
	<path class="st1" d="M4310.8,557.5c1.2,19.3-4.7,37.1-13.6,53.4c-9.2,16.9-23.4,29.6-40.7,38.5c-18.3,9.4-37.9,14.3-58.3,12.3
		c-38.5-3.6-76.7-23.9-92.1-70.8c-3.8-11.7-6.7-23.8-5.8-36.1c3-40.6,20.2-72.1,59.1-88.8c18.8-8,38.2-10.9,58.8-8.3
		c14.2,1.7,27.7,4.9,40.5,11.2c26.4,13.1,41.8,35.1,49,63C4309.8,540.2,4309.8,549,4310.8,557.5z M4203.1,620.4
		c26.8,0.1,43.3-11.4,52.9-32.9c7.9-17.8,8.2-36.2,1.7-54.5c-8.2-23-26.9-36.4-50.7-36.6c-24.3-0.2-43.1,13.1-51.7,36.5
		c-6.7,18.3-6.2,36.7,1.5,54.5C4166.2,608.5,4182.4,620.1,4203.1,620.4z"/>
	<path class="st4" d="M421.9,149.5c-10.2,2-20.4,3.3-30.6,5.7c-20.7,4.9-40.9,11-60.7,18.2c-35.2,12.9-68.7,29.6-99.7,51
		c-17.2,11.9-33.5,25-50.2,37.7c-2.6,2-4.7,4.7-7,7c-10.9,10.9-21.8,21.8-32.7,32.7c-10.4,12.3-21.4,24.1-31,37
		c-12,16.2-22.8,33.3-34.7,50.8c-12-6.7-24.8-14-38.8-21.8c3.5-6.3,6.4-12.5,10-18.2c20-31,42.1-60.3,67.6-87.2
		c34-35.9,72.3-66.4,114.7-91.6c25.6-15.2,52.6-28,80.5-38.8c36.2-14,73.7-23.1,111.8-29.5c16-2.7,32.3-3,48.5-4.4
		c-13.7,13.9-27.5,27.8-41,41.8C426.1,142.9,424.2,146.4,421.9,149.5z"/>
	<path class="st1" d="M3467.8,588.5c2.8,25.7,24.6,39.1,48.9,28.2c14.3-6.4,22.6-16.7,25.8-31.7c0.2-0.9,1.1-1.6,1.7-2.4
		c0.7-5.5,2-11.1,2-16.6c0.2-28.6,0.1-57.3,0.1-85.9c0-6,0.4-12,0.6-17.9c15.6,0,31.1-0.1,46.7-0.1c0.3,2.3,0.7,4.6,0.7,6.9
		c0,59.5,0,119.1,0,178.6c0,2.2-0.6,4.4-0.9,6.7c-12.3,0-23.9,0.1-35.6-0.1c-3.2,0-6.5-0.9-9.7-1.4c1.4-11.9,1.2-16.5-1.5-23.6
		c-2.3,2.5-4.4,4.7-6.3,7.1c-14.6,18.3-33.8,26.7-56.8,25.6c-31.2-1.5-53.9-19.6-63.3-50.7c-1.5-4.9-1.6-10.1-2.3-15.2
		c0-40.6-0.1-81.3,0-121.9c0-4,0.4-7.9,0.7-11.9c15.5,0,31.1,0,46.6,0.1c0.2,3.6,0.6,7.3,0.6,10.9c0,31.9-0.1,63.8,0.1,95.8
		C3465.9,575.4,3467.2,582,3467.8,588.5z"/>
	<path class="st5" d="M687.8,495.6c1.7-2.7,3.1-5.7,5.3-7.9c6.6-6.9,13.5-13.4,20.1-20.3c2-2,3.3-4.7,4.9-7.1
		c16.5,21.8,28.4,45.7,34.6,72.3c5.4,22.7,6.4,45.6,3.7,69c-2.5,21.3-9.1,41.1-17.7,60.3c-5.2,11.6-12.7,22.6-20.9,32.4
		c-15.9,19.2-35.3,34.5-58.2,44.5c-12.9,5.6-26.4,9.3-40.6,11.4c-11.3,1.7-22.5,2.6-33.5,1.5c-40.1-4.1-75.6-18.2-101.8-50.5
		c1.4-2.8,2.2-6.1,4.2-8.3c6.7-7.2,13.8-14.1,20.9-21c1.8-1.8,4.2-2.9,6.4-4.3c15.4,20.7,36.6,31.6,61.5,36.7
		c15.6,3.2,30.9,2.7,46.1-1.5c29.9-8.3,53.5-25.2,69.5-52c9.5-16,15.2-33.2,18.1-51.7c5.8-36.9-2.7-70.3-22-101.5
		C688.1,496.9,688,496.2,687.8,495.6z"/>
	<path class="st1" d="M1758,654.2c-8-19.1-16.1-38.1-23.8-57.2c-13.6-33.6-27-67.2-40.5-100.9c-4.3-10.8-8.8-21.5-13.5-33.1
		c17.6,0,34.7,0,53.5,0c16.1,44.6,32.6,90.2,49,135.7c0.7,0.1,1.4,0.2,2.1,0.2c16.6-45.5,33.1-90.9,49.7-136.4c17.2,0,33.9,0,51.6,0
		c-4.2,10.8-8.2,21.1-12.3,31.4c-20.2,51-40.5,102.1-60.8,153.1c-0.6,1.5-0.8,3.1-1.1,4.7c-2.7,0.8-5.4,2.4-8.1,2.4
		C1788.6,654.4,1773.3,654.3,1758,654.2z"/>
	<path class="st1" d="M2193.8,354.9c-0.2,3.3-0.6,6.6-0.6,9.9c0,92.7,0,185.5,0,278.2c0,3.3,0.5,6.6,0.7,9.9
		c-2.9,0.5-5.8,1.4-8.7,1.4c-11,0.2-22,0.1-33,0c-2.2,0-4.4-0.6-6.5-0.8c-2.2-37.4-1.1-293.1,1.5-301.4c13.5,0,27.1-0.1,40.7,0.1
		C2189.9,352.3,2191.8,354,2193.8,354.9z"/>
	<path class="st3" d="M515.2,667.5c-2.1,1.4-4.6,2.5-6.4,4.3c-7.1,6.9-14.2,13.8-20.9,21c-2,2.2-2.8,5.5-4.2,8.3
		c-9.1-9.2-15.6-20.3-20.5-32c-7.2-17.4-11.9-35.7-10.9-54.7c1.9-35.6,14-66.9,41.5-90.8c14.4-12.5,31.4-19.9,50.2-23.4
		c30.2-5.6,58,0.8,83.1,17.8c7,4.7,12.4,11.7,18.6,17.7c-10.6,10.6-21.3,21.2-31.9,31.8c-1.3-0.9-2.9-1.5-3.8-2.6
		c-8.6-11-20.2-16.4-33.7-19.1c-43.1-8.8-72.7,25.5-76.9,59.2c-1.8,14.7-0.2,28.4,4.6,41.8C506.7,654.1,511.4,660.6,515.2,667.5z"/>
	<path class="st6" d="M421.9,149.5c2.3-3.2,4.1-6.7,6.8-9.4c13.6-14,27.3-27.9,41-41.8c14.6-0.7,29.1-2.3,43.7-1.8
		c46,1.4,91.4,7.4,135.7,20.3c25,7.3,49.4,16.1,73.2,26.8c1.8,0.8,3.5,1.9,5.2,2.8c-8.9,9.1-17.9,18.1-26.7,27.3
		c-2.1,2.2-3.6,5.2-5.3,7.8c-19.4-6.7-38.8-13.8-58.4-20c-12.3-3.9-25-6.7-37.7-9.6c-11.1-2.5-22.3-4.6-33.6-6.2
		c-8.7-1.2-17.7-1.2-26.5-1.9c-7.5-0.6-15.1-2.7-22.5-2.1c-10.8,0.8-21.8-2.4-32.5,1.5c-3,1.1-6.6,0.3-9.9,0.6
		c-16.3,1.3-32.6,2.6-48.9,4.1C424.3,148,423.1,149,421.9,149.5z"/>
	<path class="st1" d="M3091,501.9c-6.9,0-13.8,0.2-20.7-0.1c-16.3-0.6-27.6,7.9-35.6,20.7c-3.7,6-8.5,12.6-6.9,20.8
		c-0.5,4.2-1.5,8.5-1.6,12.7c-0.1,29.6-0.1,59.3-0.1,88.9c0,2.9-0.3,5.8-0.5,8.7c-16.1,0-31.5,0-47.5,0c0-2.7,0-4.6,0-6.6
		c0-58.9,0-117.9,0-176.8c0-2.6,0.4-5.3,0.6-7.9c14.6,0,29.1,0,45.1,0c0,8.3,0,16,0,23.7c0.8,0.3,1.5,0.6,2.3,0.9
		c5.4-5.8,10.1-12.4,16.3-17.2c6-4.6,13.1-8.2,20.4-10.3c7.8-2.2,16.3-2.2,24.5-3.1c3.8,1.4,5.6,3.7,5.4,8.2
		c-0.4,8.6,0,17.2-0.2,25.9C3092.3,494.1,3091.5,498,3091,501.9z"/>
	<path class="st5" d="M983.6,503.8c-11.5,11.3-23,22.7-34.6,33.8c-2.5,2.4-5.7,4.1-8.6,6.1c-0.1-3.7-0.4-7.3-0.4-11
		c0-13.7-2.3-27.3-3.5-40.9c-2.8-30.9-11.7-60.1-22.1-88.9c-8.3-23-19.6-44.9-32.8-65.6c-4.9-7.7-9.3-15.8-13.9-23.7
		c10.1-10.5,20.2-21,30.4-31.6c10.8,10.2,17.9,23.1,25.3,35.7c17.7,30.1,32.5,61.6,42.8,95.2c8.1,26.2,13.6,52.8,17.3,79.9
		C984.1,496.4,983.6,500.1,983.6,503.8z"/>
	<path class="st5" d="M367.8,815.5c1.7-2.7,3.1-5.7,5.2-7.9c6.3-6.7,13-13,19.4-19.6c2.2-2.3,3.8-5.1,5.7-7.7
		c9.6,10.6,19.3,21.1,28.9,31.8c17.6,19.7,39.7,33.2,62.9,44.9c29.2,14.7,60.2,23.9,92.5,28.9c4.2,0.7,8.6,0.2,12.9,0.3
		c0.9,0.6,1.8,1.1,2.7,1.7c-13.3,13.1-26.5,26.2-39.8,39.4c-8.4-1.8-16.9-3.4-25.2-5.5c-23.8-5.7-46.4-14.7-68.2-26
		C426.6,876.1,393.8,849.9,367.8,815.5z"/>
	<path class="st3" d="M898.1,282.1c-10.1,10.5-20.2,21-30.4,31.6c-3-2.9-6.3-5.5-8.8-8.7c-22-29.1-48.3-53.6-77.7-75.1
		c-26.7-19.5-56.3-33.7-85.7-48.2c1.7-2.6,3.2-5.5,5.3-7.8c8.8-9.2,17.8-18.2,26.7-27.3c18.3,7.4,35.4,17.3,52.5,27
		c20.1,11.4,38.5,25.3,55.9,40.2c17.1,14.7,34.1,30.1,47.5,48.7C888.2,269.1,893.2,275.5,898.1,282.1z"/>
	<path class="st1" d="M4006.7,462.2c15.5,0,31.1,0,46.6,0c0.2,2.6,0.6,5.3,0.6,7.9c0,58.9,0,117.9,0,176.8c0,2.2-0.4,4.5-0.6,7.4
		c-16,0-31.4,0.1-47.3,0c0-3.4,0-5.4,0-7.4c0-58.9,0-117.9,0-176.8C4006.1,467.5,4006.5,464.8,4006.7,462.2z"/>
	<path class="st6" d="M480.4,391.7c-1.1,1.8-1.9,4-3.4,5.5c-48.7,48.8-97.4,97.4-146.2,146.1c-1.8,1.8-4.2,3.1-6.3,4.6
		c-2.6-4.7,0.4-8.9,1.9-12.7c15-37.6,36.7-70.8,67.4-97.4c18.2-15.8,38.7-28.2,60.9-37.6C463.1,396.6,471.1,392.3,480.4,391.7z"/>
	<path class="st5" d="M613.8,567.6c10.6-10.6,21.3-21.2,31.9-31.8c23.5,32.3,23.8,66.3,7.2,102.8c-13.6-7.8-26.9-15.3-41-23.4
		c8.2-9.7,6.5-20.5,6.3-30.8C618,578.7,615.3,573.1,613.8,567.6z"/>
	<path class="st1" d="M3956,624.9c0.9,18.1-16,33.2-31.6,33.1c-14.9-0.1-32.2-14-32.1-26.3c0.1-9.7-0.9-19.8,7.4-27.4
		c7-6.6,15.4-10.5,24.7-9.7C3942.7,596.1,3955.8,605,3956,624.9z"/>
	<path class="st1" d="M4060,398.4c1.5,14.6-13,29.9-30.8,29.6c-16.9-0.2-31.2-14.7-31.3-31.4c-0.1-13.2,10.7-28.4,31.7-28
		C4048.7,368.9,4061.2,380.9,4060,398.4z"/>
</g>
</svg>
