<svg height="116" viewBox="0 0 441 116" width="441" xmlns="http://www.w3.org/2000/svg"><g fill="#f44599" fill-rule="evenodd"><path d="m43.3263158.20912985v87.62537085c0 1.2314015.5671746 2.3941719 1.5375886 3.1522262 1.7409265 1.3599522 4.2546854 1.0511116 5.6146376-.6898149l6.8069889-8.7138848c.0502332-.0643053.1081484-.1222205.1724538-.1724537.4352316-.339988 1.0636713-.2627779 1.4036594.1724537l6.8069889 8.7138848c.7580543.9704141 1.9208247 1.5375887 3.1522262 1.5375887 2.209139 0 4-1.7908611 4-4v-87.50878131c24.6977493 6.6825802 42.8885038 29.50779881 42.8885038 56.63774971 0 32.3738128-25.9024234 58.6179739-57.8546816 58.6179739-31.9522583 0-57.8546814-26.2441611-57.8546814-58.6179739 0-27.2900121 18.406031-50.22434805 43.3263158-56.75433925z"/><path d="m59.0558097 68.1372369c-.5546786.5735809-1.4001289.5699904-1.9532273-.0053858-2.6216862-2.7332611-4.6594586-5.0778517-6.5581663-7.5947858-1.9603386-2.227002-1.7612232-5.9781673.5973463-7.8954895 1.3535107-1.1004854 3.1858465-1.2216645 4.6752614-.3761039.8588827.4874092 1.4609698 1.184862 1.8631513 1.9792581.1762013.3491753.6194702.3446871.7964616-.0044881.4306266-.8500487 1.0911841-1.5887922 2.0512048-2.0779966 1.2452615-.6337216 2.7149228-.6049977 3.9285786.1041242 2.895865 1.6911213 3.2016494 5.9997103 1.0982953 8.389182-2.2052821 2.867007-4.4153051 5.3264932-6.4989057 7.4816854"/><path d="m178.969969 75.5365402c-2.718588 0-4.949224-2.2550746-4.949224-4.8518272v-14.7604885h-21.957824v14.7604885c0 2.5967526-2.160928 4.8518272-4.879516 4.8518272-2.788295 0-5.018931-2.2550746-5.018931-4.8518272v-36.8328858c0-2.6650882 2.230636-4.8518272 4.949223-4.8518272 2.788296 0 4.949224 2.186739 4.949224 4.8518272v13.5304479h21.957824v-13.5304479c0-2.6650882 2.230636-4.8518272 5.018931-4.8518272 2.718588 0 4.949224 2.186739 4.949224 4.8518272v36.8328858c0 2.5967526-2.230636 4.8518272-5.018931 4.8518272zm11.780547-17.0155631c0-9.5669833 7.179859-17.2889056 17.426844-17.2889056 10.037862 0 16.869185 7.3802443 16.869185 15.9905293 0 2.870095-1.882099 4.1001357-5.29776 4.1001357h-19.727188c.557659 4.1684713 3.97332 7.6535866 9.689325 7.6535866 2.230636 0 4.740102-.6833559 6.831323-1.8450611.487952-.2733423 1.045611-.4100135 1.672977-.4100135 1.882099 0 3.485369 1.5717187 3.485369 3.4167797 0 1.2983763-.836488 2.3917459-1.882099 3.0067662-3.276247 1.8450611-7.17986 2.7334238-11.083473 2.7334238-10.246984 0-17.984503-6.7652239-17.984503-17.3572411zm17.426844-10.3870105c-5.506883 0-7.876934 4.0318001-8.295178 7.3119087h16.590356c-.209122-3.1434374-2.439758-7.3119087-8.295178-7.3119087zm27.743536 27.4025736c-2.509465 0-4.461272-1.9817322-4.461272-4.373478v-37.7895841c0-2.3917458 1.951807-4.3734781 4.461272-4.3734781 2.370051 0 4.391565 1.9817323 4.391565 4.3734781v37.7895841c0 2.3917458-2.021514 4.373478-4.391565 4.373478zm32.413931-34.3044687c8.643714 0 14.917378 6.2868748 14.917378 17.2889056s-6.273664 17.3572411-14.917378 17.3572411c-3.973321 0-7.598105-1.6400543-10.3864-5.056834v21.9786158c-4.047401 0-3.061753-4.6897103-4.391564-4.6897103s-.897997 4.6897103-4.38471 4.6897103c-.064143 0-.076563-3.1026555-.076563-3.3800023v-43.4727701c0-2.4600814 1.951807-4.5101493 4.461273-4.5101493 2.439758 0 4.461272 2.0500679 4.461272 4.5101493v.2050068c2.64888-3.211773 6.273664-4.9201629 10.316692-4.9201629zm-2.788296 26.9242245c5.088639 0 8.5043-3.8951289 8.5043-9.6353189 0-5.6718544-3.415661-9.5669833-8.5043-9.5669833-2.858002 0-6.134249 1.6400542-7.598104 3.7584577v11.6853867c1.463855 2.0500679 4.740102 3.7584578 7.598104 3.7584578zm29.765051 6.9018951c-3.345955 0-5.228054-1.8450611-5.228054-5.1935052v-35.2611671c0-3.2801086 1.882099-5.1251696 5.228054-5.1251696h13.104986c14.568842 0 24.676412 9.0886341 24.676412 22.8240887s-10.10757 22.7557532-24.676412 22.7557532zm4.670394-8.5419494h8.434592c9.201374 0 14.568842-6.4918815 14.568842-14.2138038 0-8.0636002-5.018931-14.2821394-14.568842-14.2821394h-8.434592zm55.556779 9.3619765c-11.083473 0-17.775381-7.926929-17.775381-17.3572411 0-9.3619766 6.691908-17.2889056 17.775381-17.2889056 11.153181 0 17.845089 7.926929 17.845089 17.2889056 0 9.4303121-6.691908 17.3572411-17.845089 17.3572411zm0-7.7219222c5.506883 0 8.643715-4.4418137 8.643715-9.6353189 0-5.1251697-3.136832-9.5669833-8.643715-9.5669833-5.506882 0-8.574007 4.4418136-8.574007 9.5669833 0 5.1935052 3.067125 9.6353189 8.574007 9.6353189zm22.236654-9.6353189c0-10.1136681 7.458689-17.2889056 17.845088-17.2889056 4.461273 0 7.737519 1.2300407 10.246985 3.0751018 1.045611.6833559 1.742684 1.9133967 1.742684 3.211773 0 2.1184034-1.812392 3.8951289-3.97332 3.8951289-.906196 0-1.672977-.2733424-2.300344-.7516916-1.533562-1.1617051-3.276246-1.7083898-5.29776-1.7083898-5.367468 0-9.131667 3.8267933-9.131667 9.5669833s3.764199 9.6353189 9.131667 9.6353189c2.021514 0 3.764198-.5466848 5.228053-1.7083899.627366-.4783492 1.463855-.7516915 2.300343-.7516915 2.230636 0 4.043028 1.7083898 4.043028 3.8951289 0 1.2983763-.697073 2.528417-1.742684 3.2117729-2.509466 1.8450611-5.785712 3.0751018-10.246985 3.0751018-10.386399 0-17.845088-7.1752375-17.845088-17.3572411zm36.247836 14.1454681c-1.115318-.6150203-1.882099-1.845061-1.882099-3.1434373 0-1.9817323 1.672977-3.6217866 3.694491-3.6217866.697074 0 1.32444.2050068 1.882099.4783492 2.718588 1.6400543 6.064542 2.8017594 9.131666 2.8017594 3.833906 0 5.646298-1.2983763 5.646298-3.3484442 0-2.3234102-2.92771-3.1434373-6.761616-3.8951289-5.785712-1.0933695-13.244401-2.4600814-13.244401-10.3186748 0-5.5351832 4.949223-10.3870105 13.80206-10.3870105 4.321858 0 8.016349 1.0933695 11.083473 2.9384306 1.045611.5466848 1.742685 1.6400543 1.742685 2.870095 0 1.8450611-1.533562 3.3484442-3.415662 3.3484442-.557659 0-1.254732-.1366712-1.672977-.4100136-2.160928-1.2983763-4.809809-2.1184035-7.667811-2.1184035-3.20654 0-5.297761 1.1617052-5.297761 3.0751018 0 2.0500679 2.64888 2.8017594 6.413079 3.553451 5.785712 1.0933695 13.523231 2.5967526 13.523231 10.797024 0 6.0818679-5.228053 10.5920172-14.568842 10.5920172-4.530979 0-8.852837-1.0933695-12.407913-3.211773z"/></g></svg>