<svg id="Layer_1" data-name="Layer 1" xmlns="http://www.w3.org/2000/svg" xmlns:xlink="http://www.w3.org/1999/xlink" width="466" height="140" viewBox="0 0 466 140">
  <defs>
    <linearGradient id="linear-gradient" x1="32.12777" y1="32.12523" x2="102.09384" y2="102.0913" gradientUnits="userSpaceOnUse">
      <stop offset="0.25601" stop-color="#ff318c"/>
      <stop offset="0.72287" stop-color="#af1df5"/>
    </linearGradient>
  </defs>
  <g>
    <path d="M0,0H466V140H0Z" fill="none"/>
    <g>
      <path d="M39.98471,30.03554,110,30.03676l-.00085,69.91648-10.02108-.00017.00072-59.97386-59.9942-.001ZM90.01444,49.9473l-.00107,60.0116L30,109.95816l.00106-60.0116ZM70.08887,89.79382l-30.12975-.00037-.00018,10.2474,30.12975.00038Z" fill="url(#linear-gradient)"/>
      <g>
        <g>
          <path d="M141.65869,52.44092l2.00244-1.74365c1.51026,2.313,3.05567,3.55859,5.62012,3.55859,2.7749,0,4.812-2.02832,4.812-5.978v-16.689h2.81006V48.24219a9.05827,9.05827,0,0,1-2.24805,6.54736,7.48572,7.48572,0,0,1-5.40918,2.064A8.40225,8.40225,0,0,1,141.65869,52.44092Z"/>
          <path d="M161.01562,47.35254v-.07129c0-5.30176,3.688-9.57178,8.71094-9.57178,5.37451,0,8.46533,4.34131,8.46533,9.71436a7.23436,7.23436,0,0,1-.03515.88965H163.75537c.38623,3.98535,3.16113,6.227,6.39258,6.227a7.473,7.473,0,0,0,5.72559-2.59766l1.686,1.53027a9.327,9.327,0,0,1-7.48145,3.45166C165.08984,56.9248,161.01562,53.0459,161.01562,47.35254Zm14.43653-1.06738c-.28125-3.34473-2.17774-6.2627-5.7959-6.2627-3.16113,0-5.5498,2.66895-5.90088,6.2627Z"/>
          <path d="M183.00684,51.62256v-11.102h-2.5293V38.10107h2.5293V32.5498h2.70459v5.55127h5.76074v2.41944h-5.76074V51.2666c0,2.24219,1.22949,3.06055,3.05615,3.06055a5.62959,5.62959,0,0,0,2.63428-.64063v2.34864a6.73338,6.73338,0,0,1-3.26661.78271C185.21973,56.81787,183.00684,55.35889,183.00684,51.62256Z"/>
          <path d="M195.8291,31.58887h10.46729a8.96158,8.96158,0,0,1,6.42822,2.20654,5.56929,5.56929,0,0,1,1.58057,3.98535v.0708a6.008,6.008,0,0,1-3.89893,5.76465c2.91553.88965,5.26855,2.59766,5.26855,6.01367v.07129c0,4.27-3.54736,6.79639-8.92187,6.79639H195.8291Zm15.666,6.583c0-2.45508-1.93213-4.05616-5.44434-4.05616h-7.48193v8.57569h7.271c3.33692,0,5.65528-1.53028,5.65528-4.44825Zm-5.16358,7.01025h-7.76269v8.78906h8.25439c3.72364,0,6.042-1.67236,6.042-4.44775v-.07129C212.86523,46.74756,210.61719,45.18213,206.33154,45.18213Z"/>
          <path d="M219.85791,38.10107h2.70459v4.80372c1.33447-3.06006,3.96924-5.26661,7.41162-5.124v2.95313h-.21094c-3.96923,0-7.20068,2.88232-7.20068,8.43359v7.33008h-2.70459Z"/>
          <path d="M230.95947,51.16016v-.07129c0-3.87842,3.16114-5.94239,7.7627-5.94239a19.05738,19.05738,0,0,1,5.585.78272v-.64063c0-3.30908-2.00195-5.01709-5.40918-5.01709a12.51669,12.51669,0,0,0-5.51465,1.35206l-.8081-2.2417a14.83663,14.83663,0,0,1,6.60351-1.53028,7.90762,7.90762,0,0,1,5.86621,2.02832,7.31777,7.31777,0,0,1,1.86182,5.373V56.49756h-2.59961V53.72217a7.92334,7.92334,0,0,1-6.56836,3.167C234.3667,56.88916,230.95947,54.93164,230.95947,51.16016Zm13.38282-1.42334v-1.7793a18.70862,18.70862,0,0,0-5.33887-.78272c-3.40723,0-5.3042,1.49415-5.3042,3.80713v.07129c0,2.313,2.10742,3.665,4.5664,3.665C241.60254,54.71826,244.34229,52.6543,244.34229,49.73682Z"/>
          <path d="M251.86133,31.05518h3.09131v3.0249h-3.09131Zm.17578,7.04589h2.70459V56.49756h-2.70459Z"/>
          <path d="M260.15234,38.10107h2.70459v3.20215a6.863,6.863,0,0,1,6.21729-3.59375c4.39062,0,6.95459,2.98877,6.95459,7.36573V56.49756h-2.70459V45.75146c0-3.416-1.82666-5.55126-5.023-5.55126-3.126,0-5.44434,2.313-5.44434,5.76464V56.49756h-2.70459Z"/>
          <path d="M279.40332,54.14893l1.37012-1.957a10.53109,10.53109,0,0,0,6.2876,2.34864c2.17773,0,3.7583-1.13867,3.7583-2.918v-.07129c0-1.8501-2.14258-2.562-4.53125-3.23779-2.84522-.81836-6.00635-1.81494-6.00635-5.19532v-.07128c0-3.167,2.59912-5.26612,6.18213-5.26612a12.30019,12.30019,0,0,1,6.5332,2.02832l-1.22949,2.06348a10.177,10.177,0,0,0-5.374-1.77881c-2.14257,0-3.51269,1.13867-3.51269,2.66846v.07129c0,1.74365,2.24805,2.41943,4.67187,3.167,2.81006.854,5.83057,1.957,5.83057,5.26611v.07129c0,3.48731-2.84521,5.51563-6.46289,5.51563A12.39254,12.39254,0,0,1,279.40332,54.14893Z"/>
        </g>
        <g>
          <path d="M139.68066,65.60742h5.3711L157.542,102.49023,169.5332,65.48145h4.05957L185.584,102.49023,198.0752,65.60742h5.18359L187.64551,110.208h-4.18457l-11.99121-35.9336L159.416,110.208H155.294Z"/>
          <path d="M207.63086,77.18457h4.80957v8.541c2.37305-5.44141,7.05664-9.36329,13.17773-9.11036v5.251h-.375c-7.05761,0-12.80273,5.124-12.80273,14.99317V109.8916h-4.80957Z"/>
          <path d="M231.48828,64.65918h5.4961v5.37695h-5.4961Zm.3125,12.52539h4.8086v32.707h-4.8086Z"/>
          <path d="M247.91309,101.22461V81.48633H243.416V77.18457h4.49707V67.31543h4.80859v9.86914h10.24316v4.30176H252.72168V100.5918c0,3.98535,2.18652,5.44043,5.43359,5.44043a10.01059,10.01059,0,0,0,4.68457-1.13868v4.17579a11.97215,11.97215,0,0,1-5.80859,1.3916C251.84766,110.46094,247.91309,107.86719,247.91309,101.22461Z"/>
          <path d="M266.96094,93.63281v-.126c0-9.42676,6.55761-17.01758,15.48926-17.01758,9.55468,0,15.05078,7.71777,15.05078,17.27051a12.84883,12.84883,0,0,1-.0625,1.581H271.833c.68652,7.08594,5.62011,11.07129,11.36621,11.07129a13.28961,13.28961,0,0,0,10.17969-4.61816l2.998,2.7207a16.58073,16.58073,0,0,1-13.30273,6.13574C274.20605,110.65039,266.96094,103.75488,266.96094,93.63281Zm25.66894-1.89746c-.5-5.94726-3.87207-11.13476-10.30468-11.13476-5.6211,0-9.86817,4.74511-10.49219,11.13476Z"/>
          <path d="M304.37109,77.18457h4.8086v8.541c2.373-5.44141,7.05761-9.36329,13.17773-9.11036v5.251h-.375c-7.05664,0-12.80273,5.124-12.80273,14.99317V109.8916h-4.8086Z"/>
          <path d="M325.418,105.71582l2.43555-3.47949a18.726,18.726,0,0,0,11.17871,4.17578c3.87207,0,6.68261-2.02441,6.68261-5.1875v-.12695c0-3.28907-3.80957-4.55469-8.05664-5.75684-5.05859-1.45508-10.67871-3.22656-10.67871-9.23633v-.126c0-5.63086,4.6211-9.36329,10.99121-9.36329a21.86687,21.86687,0,0,1,11.61621,3.60645l-2.18554,3.66895a18.09945,18.09945,0,0,0-9.55567-3.16309c-3.80957,0-6.24511,2.02441-6.24511,4.74414v.12695c0,3.09961,3.99707,4.30176,8.30664,5.63086,4.99609,1.51758,10.36718,3.47852,10.36718,9.36231v.12695c0,6.19922-5.05859,9.80566-11.49218,9.80566A22.028,22.028,0,0,1,325.418,105.71582Z"/>
          <path d="M357.76855,64.65918h5.4961v5.37695h-5.4961Zm.3125,12.52539h4.8086v32.707h-4.8086Z"/>
          <path d="M370.63184,93.63281v-.126c0-10.69141,7.68261-17.01758,15.42675-17.01758,5.99512,0,9.86719,3.28906,12.36621,6.958V63.71h4.8086V109.8916h-4.8086v-6.5791c-2.624,3.92188-6.43359,7.27539-12.36621,7.27539C378.31445,110.58789,370.63184,104.3877,370.63184,93.63281Zm27.97949-.06347v-.126c0-7.52832-5.68262-12.58984-11.67871-12.58984-6.24512,0-11.36621,4.68164-11.36621,12.58984v.126c0,7.71875,5.24609,12.65332,11.36621,12.65332C392.92871,106.22266,398.61133,101.09766,398.61133,93.56934Z"/>
          <path d="M410.415,93.63281v-.126c0-9.42676,6.55859-17.01758,15.48926-17.01758,9.55566,0,15.05175,7.71777,15.05175,17.27051a12.84883,12.84883,0,0,1-.0625,1.581H415.28711c.68652,7.08594,5.62109,11.07129,11.36621,11.07129A13.29166,13.29166,0,0,0,436.834,101.794l2.99707,2.7207a16.58073,16.58073,0,0,1-13.30273,6.13574C417.66016,110.65039,410.415,103.75488,410.415,93.63281ZM436.084,91.73535c-.499-5.94726-3.87207-11.13476-10.30468-11.13476-5.6211,0-9.86817,4.74511-10.49219,11.13476Z"/>
        </g>
      </g>
    </g>
  </g>
</svg>
