<?xml version="1.0" encoding="UTF-8"?>
<svg width="600px" height="270px" viewBox="0 0 600 270" version="1.1" xmlns="http://www.w3.org/2000/svg" xmlns:xlink="http://www.w3.org/1999/xlink">
    <!-- Generator: Sketch 49.1 (51147) - http://www.bohemiancoding.com/sketch -->
    <title>KauriLogoDark</title>
    <desc>Created with Sketch.</desc>
    <defs>
        <linearGradient x1="27.1603954%" y1="8.20732527%" x2="71.5282207%" y2="87.281586%" id="linearGradient-1">
            <stop stop-color="#42DCC7" offset="0%"></stop>
            <stop stop-color="#0BA986" offset="100%"></stop>
        </linearGradient>
    </defs>
    <g id="KauriLogoDark" stroke="none" stroke-width="1" fill="none" fill-rule="evenodd">
        <path d="M260.508231,151.253637 L254.139578,151.253637 L254.139578,178.777989 L240,178.777989 L240,88 L254.139578,88 L254.139578,139.906388 L260.040807,139.906388 L275.991653,115.815307 L292.702064,115.815307 L271.843265,144.445288 L295.798748,178.777989 L279.32205,178.777989 L260.508231,151.253637 Z M340.61303,178.777989 C340.106652,177.187426 339.687922,175.635681 339.356828,174.122707 C339.025734,172.609733 338.801763,171.096782 338.684906,169.583808 C336.737296,172.532167 334.176227,175.005261 331.001623,177.003163 C327.827019,179.001064 324.272684,180 320.338511,180 C313.75559,180 308.701617,178.312477 305.176443,174.937381 C301.651269,171.562285 299.888709,166.926447 299.888709,161.029728 C299.888709,154.939038 302.303709,150.196517 307.133782,146.802024 C311.963854,143.407531 318.760911,141.71031 327.525157,141.71031 L338.56805,141.71031 L338.56805,136.182163 C338.56805,132.884656 337.59426,130.30488 335.64665,128.442758 C333.69904,126.580636 330.913999,125.649589 327.291444,125.649589 C324.058412,125.649589 321.487605,126.425461 319.578947,127.97723 C317.67029,129.528998 316.715975,131.52687 316.715975,133.970904 L303.043821,133.970904 L302.985393,133.621758 C302.712728,128.6561 304.942708,124.253024 309.6754,120.412397 C314.408092,116.571771 320.572186,114.651486 328.167865,114.651486 C335.52983,114.651486 341.469952,116.51358 345.988407,120.237824 C350.506862,123.962068 352.766056,129.315588 352.766056,136.298545 L352.766056,164.288425 C352.766056,166.887637 352.941338,169.380127 353.291908,171.765971 C353.642478,174.151815 354.207276,176.48913 354.98632,178.777989 L340.61303,178.777989 Z M323.201484,168.652751 C326.785086,168.652751 330.008333,167.760498 332.871319,165.975965 C335.734306,164.191431 337.633197,162.154766 338.56805,159.865908 L338.56805,150.555345 L327.291444,150.555345 C323.162511,150.555345 319.929527,151.573677 317.592395,153.610373 C315.255263,155.647069 314.086715,158.042575 314.086715,160.796964 C314.086715,163.202205 314.875485,165.112791 316.453049,166.528779 C318.030613,167.944768 320.280069,168.652751 323.201484,168.652751 Z M402.045676,169.583808 C400.059114,172.920109 397.546734,175.490187 394.508463,177.294118 C391.470191,179.098048 387.964546,180 383.991421,180 C377.213738,180 371.916319,177.846954 368.099003,173.540797 C364.281687,169.23464 362.373058,162.54274 362.373058,153.464896 L362.373058,115.815307 L376.512636,115.815307 L376.512636,153.581278 C376.512636,159.090055 377.408523,162.950021 379.200325,165.16129 C380.992126,167.37256 383.699263,168.478178 387.321818,168.478178 C390.749611,168.478178 393.622293,167.867179 395.939949,166.645161 C398.257605,165.423144 400.078593,163.648335 401.402968,161.320683 L401.402968,115.815307 L415.600974,115.815307 L415.600974,178.777989 L403.214236,178.777989 L402.045676,169.583808 Z M457.934384,128.55914 L451.857872,128.326376 C449.092265,128.326376 446.784382,128.90828 444.934153,130.072106 C443.083923,131.235932 441.652451,132.884661 440.639694,135.018343 L440.639694,178.777989 L426.441688,178.777989 L426.441688,115.815307 L439.412706,115.815307 L440.347554,124.951297 C441.944594,121.731378 443.999292,119.209792 446.511709,117.386464 C449.024126,115.563137 451.916283,114.651486 455.188268,114.651486 C456.045216,114.651486 456.843725,114.719375 457.583816,114.855155 C458.323908,114.990935 459.005561,115.155808 459.628797,115.349779 L457.934384,128.55914 Z M483,178.777989 L468.801994,178.777989 L468.801994,115.815307 L483,115.815307 L483,178.777989 Z M483,100.394687 L468.801994,100.394687 L468.801994,88 L483,88 L483,100.394687 Z" id="kauri" fill="#FFFFFF"></path>
        <path d="M225.853122,151.666667 C219.854265,144.938278 214.062647,139.888879 211.57377,138.012923 C215.840273,136.244056 220.105769,134.848085 223.969865,133.761905 C225.291767,138.251003 226,142.980094 226,147.86408 C226,149.142445 225.948693,150.411249 225.853122,151.666667 Z M198.04918,171.786531 C188.373154,174.98968 178.546698,183 170.097866,183 C161.649033,183 151.822577,174.98968 142.147541,171.785552 C152.849857,162.329849 166.325235,156.210473 167.086293,155.87263 C168.944898,155.039282 171.250834,155.039282 173.109439,155.87263 C173.870497,156.210473 187.347854,162.328869 198.04918,171.786531 Z M129.52459,137.836862 C127.155989,139.649669 121.775711,144.404428 116.089871,150.771429 C116.031954,149.779206 116,148.77927 116,147.772584 C116,142.922363 116.681023,138.225458 117.954195,133.761905 C121.592973,134.825482 125.558282,136.166766 129.52459,137.836862 Z M203.390099,141.142361 C205.284189,140.609621 207.426504,141.071134 208.768317,142.305412 C209.200967,142.705455 218.869796,149.93062 225.098361,159.090626 C224.746459,160.814713 224.309821,162.507578 223.791439,164.167268 C218.878768,165.500094 209.770871,166.741857 202.443734,169.571429 C193.961203,160.725602 180.723827,154.7526 177.311475,152.803123 C188.732836,145.971171 202.72019,141.326771 203.390099,141.142361 Z M135.39735,133.354657 C132.665543,134.699322 126.630499,132.517581 119.606557,129.684781 C123.629262,118.870074 131.01047,109.669163 140.492841,103.32381 C143.694424,103.890765 153.673218,105.648031 167.393443,112.773073 C153.182716,117.778709 140.688252,130.746462 135.39735,133.354657 Z M173.280315,118.372842 C174.045549,118.765672 189.994056,124.955413 200.754098,135.939037 C191.024982,139.659705 175.743194,149.87619 170.252219,149.87619 C164.761244,149.87619 151.047049,139.66068 141.317933,135.939037 C152.079965,124.958338 166.458888,118.765672 167.224122,118.372842 C169.092924,117.405878 171.411513,117.405878 173.280315,118.372842 Z M163.786885,153.019266 C160.395047,155.004241 145.270007,162.355007 136.839462,171.361905 C129.974533,168.646721 123.283011,166.240511 118.447437,164.835729 C117.811282,162.77823 117.292052,160.670063 116.901639,158.518183 C123.09375,149.623548 132.103969,142.724817 132.519155,142.330405 C133.852901,141.074645 135.982337,140.603735 137.86504,141.146176 C138.530922,141.333944 152.434187,146.062913 163.786885,153.019266 Z M196.245902,99.6697249 C187.661575,101.736878 175.123167,106.904762 171.44935,106.904762 C167.776512,106.903808 155.237124,101.736878 146.655738,99.6697249 C156.148474,93.5683805 168.102834,89.6209565 168.778997,89.4026086 C170.426286,88.8657971 172.472413,88.8657971 174.120682,89.4026086 C174.795865,89.6209565 186.752185,93.5683805 196.245902,99.6697249 Z M205.846344,133.355974 C200.531245,130.757255 187.980633,117.836612 173.704918,112.849161 C188.552692,105.202853 199.035165,103.760544 201.34819,103.32381 C210.874917,109.593861 218.305744,118.706138 222.393443,129.425362 C215.046888,132.37899 208.678882,134.739131 205.846344,133.355974 Z" id="kauriLogo" fill="url(#linearGradient-1)"></path>
    </g>
</svg>