<?xml version="1.0" encoding="UTF-8"?>
<svg width="600px" height="270px" viewBox="0 0 600 270" version="1.1" xmlns="http://www.w3.org/2000/svg" xmlns:xlink="http://www.w3.org/1999/xlink">
    <!-- Generator: Sketch 49.1 (51147) - http://www.bohemiancoding.com/sketch -->
    <title>kauri Light</title>
    <desc>Created with Sketch.</desc>
    <defs>
        <linearGradient x1="27.1603954%" y1="8.20732527%" x2="71.5282207%" y2="87.281586%" id="linearGradient-1">
            <stop stop-color="#42DCC7" offset="0%"></stop>
            <stop stop-color="#0BA986" offset="100%"></stop>
        </linearGradient>
    </defs>
    <g id="kauri-Light" stroke="none" stroke-width="1" fill="none" fill-rule="evenodd">
        <path d="M260.508231,142.511245 L254.139578,142.511245 L254.139578,170.147693 L240,170.147693 L240,79 L254.139578,79 L254.139578,131.117783 L260.040807,131.117783 L275.991653,106.928588 L292.702064,106.928588 L271.843265,135.675168 L295.798748,170.147693 L279.32205,170.147693 L260.508231,142.511245 Z M340.61303,170.147693 C340.106652,168.550653 339.687922,166.992588 339.356828,165.473452 C339.025734,163.954317 338.801763,162.435204 338.684906,160.916068 C336.737296,163.876435 334.176227,166.3596 331.001623,168.365639 C327.827019,170.371677 324.272684,171.374681 320.338511,171.374681 C313.75559,171.374681 308.701617,169.680286 305.176443,166.291444 C301.651269,162.902603 299.888709,158.247885 299.888709,152.32715 C299.888709,146.211655 302.303709,141.44982 307.133782,138.041502 C311.963854,134.633185 318.760911,132.929052 327.525157,132.929052 L338.56805,132.929052 L338.56805,127.378391 C338.56805,124.067454 337.59426,121.477171 335.64665,119.607466 C333.69904,117.73776 330.913999,116.802921 327.291444,116.802921 C324.058412,116.802921 321.487605,117.581954 319.578947,119.140042 C317.67029,120.69813 316.715975,122.704138 316.715975,125.158127 L303.043821,125.158127 L302.985393,124.807559 C302.712728,119.821677 304.942708,115.400668 309.6754,111.544401 C314.408092,107.688133 320.572186,105.760028 328.167865,105.760028 C335.52983,105.760028 341.469952,107.629705 345.988407,111.369117 C350.506862,115.108528 352.766056,120.483851 352.766056,127.495247 L352.766056,155.599119 C352.766056,158.208916 352.941338,160.711558 353.291908,163.107118 C353.642478,165.502678 354.207276,167.849513 354.98632,170.147693 L340.61303,170.147693 Z M323.201484,159.98122 C326.785086,159.98122 330.008333,159.085332 332.871319,157.293531 C335.734306,155.50173 337.633197,153.45677 338.56805,151.15859 L338.56805,141.810109 L327.291444,141.810109 C323.162511,141.810109 319.929527,142.832589 317.592395,144.877579 C315.255263,146.92257 314.086715,149.327832 314.086715,152.093438 C314.086715,154.508475 314.875485,156.426842 316.453049,157.848597 C318.030613,159.270353 320.280069,159.98122 323.201484,159.98122 Z M407.045676,160.916068 C405.059114,164.265957 402.546734,166.846501 399.508463,168.657779 C396.470191,170.469056 392.964546,171.374681 388.991421,171.374681 C382.213738,171.374681 376.916319,169.212867 373.099003,164.889172 C369.281687,160.565478 367.373058,153.846324 367.373058,144.731509 L367.373058,106.928588 L381.512636,106.928588 L381.512636,144.848365 C381.512636,150.379578 382.408523,154.255264 384.200325,156.475539 C385.992126,158.695814 388.699263,159.805936 392.321818,159.805936 C395.749611,159.805936 398.622293,159.192448 400.939949,157.965453 C403.257605,156.738459 405.078593,154.956423 406.402968,152.619291 L406.402968,106.928588 L420.600974,106.928588 L420.600974,170.147693 L408.214236,170.147693 L407.045676,160.916068 Z M466.934384,119.724322 L460.857872,119.49061 C458.092265,119.49061 455.784382,120.074884 453.934153,121.24345 C452.083923,122.412016 450.652451,124.06746 449.639694,126.209831 L449.639694,170.147693 L435.441688,170.147693 L435.441688,106.928588 L448.412706,106.928588 L449.347554,116.101785 C450.944594,112.868753 452.999292,110.336898 455.511709,108.506144 C458.024126,106.675391 460.916283,105.760028 464.188268,105.760028 C465.045216,105.760028 465.843725,105.828193 466.583816,105.964526 C467.323908,106.100859 468.005561,106.266403 468.628797,106.461164 L466.934384,119.724322 Z M492,170.147693 L477.801994,170.147693 L477.801994,106.928588 L492,106.928588 L492,170.147693 Z M492,91.4451658 L477.801994,91.4451658 L477.801994,79 L492,79 L492,91.4451658 Z" id="kauri" fill="#1E2428"></path>
        <path d="M217.853122,140.666667 C211.854265,133.938278 206.062647,128.888879 203.57377,127.012923 C207.840273,125.244056 212.105769,123.848085 215.969865,122.761905 C217.291767,127.251003 218,131.980094 218,136.86408 C218,138.142445 217.948693,139.411249 217.853122,140.666667 Z M190.04918,160.786531 C180.373154,163.98968 170.546698,172 162.097866,172 C153.649033,172 143.822577,163.98968 134.147541,160.785552 C144.849857,151.329849 158.325235,145.210473 159.086293,144.87263 C160.944898,144.039282 163.250834,144.039282 165.109439,144.87263 C165.870497,145.210473 179.347854,151.328869 190.04918,160.786531 Z M121.52459,126.836862 C119.155989,128.649669 113.775711,133.404428 108.089871,139.771429 C108.031954,138.779206 108,137.77927 108,136.772584 C108,131.922363 108.681023,127.225458 109.954195,122.761905 C113.592973,123.825482 117.558282,125.166766 121.52459,126.836862 Z M195.390099,130.142361 C197.284189,129.609621 199.426504,130.071134 200.768317,131.305412 C201.200967,131.705455 210.869796,138.93062 217.098361,148.090626 C216.746459,149.814713 216.309821,151.507578 215.791439,153.167268 C210.878768,154.500094 201.770871,155.741857 194.443734,158.571429 C185.961203,149.725602 172.723827,143.7526 169.311475,141.803123 C180.732836,134.971171 194.72019,130.326771 195.390099,130.142361 Z M127.39735,122.354657 C124.665543,123.699322 118.630499,121.517581 111.606557,118.684781 C115.629262,107.870074 123.01047,98.6691631 132.492841,92.3238095 C135.694424,92.8907653 145.673218,94.6480315 159.393443,101.773073 C145.182716,106.778709 132.688252,119.746462 127.39735,122.354657 Z M165.280315,107.372842 C166.045549,107.765672 181.994056,113.955413 192.754098,124.939037 C183.024982,128.659705 167.743194,138.87619 162.252219,138.87619 C156.761244,138.87619 143.047049,128.66068 133.317933,124.939037 C144.079965,113.958338 158.458888,107.765672 159.224122,107.372842 C161.092924,106.405878 163.411513,106.405878 165.280315,107.372842 Z M155.786885,142.019266 C152.395047,144.004241 137.270007,151.355007 128.839462,160.361905 C121.974533,157.646721 115.283011,155.240511 110.447437,153.835729 C109.811282,151.77823 109.292052,149.670063 108.901639,147.518183 C115.09375,138.623548 124.103969,131.724817 124.519155,131.330405 C125.852901,130.074645 127.982337,129.603735 129.86504,130.146176 C130.530922,130.333944 144.434187,135.062913 155.786885,142.019266 Z M188.245902,88.6697249 C179.661575,90.7368783 167.123167,95.9047619 163.44935,95.9047619 C159.776512,95.9038084 147.237124,90.7368783 138.655738,88.6697249 C148.148474,82.5683805 160.102834,78.6209565 160.778997,78.4026086 C162.426286,77.8657971 164.472413,77.8657971 166.120682,78.4026086 C166.795865,78.6209565 178.752185,82.5683805 188.245902,88.6697249 Z M197.846344,122.355974 C192.531245,119.757255 179.980633,106.836612 165.704918,101.849161 C180.552692,94.2028531 191.035165,92.7605442 193.34819,92.3238095 C202.874917,98.5938606 210.305744,107.706138 214.393443,118.425362 C207.046888,121.37899 200.678882,123.739131 197.846344,122.355974 Z" id="kauriLogo" fill="url(#linearGradient-1)"></path>
    </g>
</svg>