<svg width="287" height="65" viewBox="0 0 287 65" xmlns="http://www.w3.org/2000/svg"><g fill="none" fill-rule="evenodd"><path d="M86.423 9.48c0-.326.163-.49.486-.49h7.134c.323 0 .485.164.485.49v22.684h2.427c.406 0 .73-.17.973-.505l7.97-10.9c.1-.13.232-.198.394-.198h8.835c.2 0 .347.087.438.26.09.184.076.357-.045.52l-10.46 14.312 11.052 15.137c.12.165.136.333.046.507-.09.183-.232.275-.425.275h-7.453c-1.093 0-1.963-.444-2.61-1.33l-8-10.96c-.244-.327-.567-.49-.972-.49h-2.17v12.29c0 .327-.163.49-.486.49H86.91c-.324 0-.487-.163-.487-.49V9.48zm60.643 11.082h1.032c.324 0 .486.163.486.49v30.03c0 .327-.162.49-.486.49h-1.032c-2.094 0-3.8-.827-5.115-2.48-2.55 2.347-5.65 3.52-9.304 3.52-4.524 0-8.39-1.617-11.598-4.85-3.208-3.236-4.812-7.134-4.812-11.695 0-4.57 1.604-8.474 4.812-11.71 3.208-3.223 7.074-4.835 11.598-4.835 3.653 0 6.754 1.172 9.305 3.52 1.316-1.653 3.022-2.48 5.116-2.48zm-20.295 9.582c1.62-1.633 3.578-2.45 5.876-2.45 2.296 0 4.255.817 5.874 2.45 1.62 1.622 2.43 3.596 2.43 5.923 0 2.316-.81 4.29-2.43 5.923s-3.578 2.45-5.874 2.45c-2.298 0-4.256-.817-5.875-2.45-1.618-1.632-2.427-3.607-2.427-5.923 0-2.327.81-4.3 2.428-5.923zm41.98 30.06c-.738 1.673-1.952 2.847-3.642 3.52-1.7.664-3.38.628-5.04-.107l-.956-.413c-.294-.132-.375-.352-.243-.658l5.236-12.015-12.75-29.278c-.072-.164-.062-.323.03-.475.1-.143.237-.215.41-.215h6.238c1.235 0 2.1.567 2.596 1.7l7.893 18.137 8.516-19.546c.08-.195.227-.292.44-.292h7.77c.173 0 .31.072.41.215.093.152.102.31.032.475l-16.94 38.952zm47.276-39.642h1.033c.323 0 .484.163.484.49v30.03c0 .327-.16.49-.485.49h-1.034c-2.094 0-3.8-.827-5.115-2.48-2.55 2.347-5.65 3.52-9.304 3.52-4.524 0-8.39-1.617-11.598-4.85-3.207-3.236-4.812-7.134-4.812-11.695 0-4.57 1.605-8.474 4.812-11.71 3.208-3.223 7.074-4.835 11.598-4.835 3.653 0 6.754 1.172 9.305 3.52 1.316-1.653 3.022-2.48 5.116-2.48zm-20.295 9.582c1.62-1.633 3.578-2.45 5.876-2.45 2.296 0 4.254.817 5.875 2.45 1.62 1.622 2.43 3.596 2.43 5.923 0 2.316-.81 4.29-2.43 5.923s-3.578 2.45-5.874 2.45c-2.298 0-4.256-.817-5.875-2.45-1.618-1.632-2.427-3.607-2.427-5.923 0-2.327.81-4.3 2.428-5.923zM224.108 9.48c0-.326.163-.49.486-.49h7.135c.323 0 .485.164.485.49v22.684h2.428c.407 0 .73-.17.974-.505l7.97-10.9c.1-.13.232-.198.393-.198h8.836c.202 0 .348.087.44.26.09.184.075.357-.046.52l-10.46 14.312L253.8 50.79c.12.165.135.333.045.507-.092.183-.233.275-.426.275h-7.454c-1.093 0-1.963-.444-2.61-1.33l-8-10.96c-.244-.327-.567-.49-.97-.49h-2.173v12.29c0 .327-.162.49-.485.49h-7.135c-.323 0-.486-.163-.486-.49V9.48zm57.82 14.878c3.21 3.235 4.812 7.138 4.812 11.71 0 4.56-1.604 8.458-4.812 11.693-3.21 3.235-7.074 4.853-11.598 4.853-4.523 0-8.39-1.618-11.597-4.852-3.208-3.234-4.812-7.132-4.812-11.693 0-4.57 1.605-8.474 4.813-11.71 3.208-3.223 7.074-4.835 11.597-4.835 4.524 0 8.39 1.612 11.598 4.836zm-17.47 5.786c-1.62 1.622-2.43 3.596-2.43 5.923 0 2.316.81 4.29 2.43 5.923 1.618 1.633 3.575 2.45 5.873 2.45 2.297 0 4.255-.817 5.875-2.45 1.62-1.632 2.43-3.607 2.43-5.923 0-2.327-.81-4.3-2.43-5.923-1.62-1.633-3.578-2.45-5.875-2.45-2.298 0-4.255.817-5.874 2.45z" fill="#40364D"/><path d="M.048 51.588c.125-.05.895.41.895.41l16.817-8.732s.12-.71.342-.85c-.226-.274.227-.475 0-.746-2.718-3.224-5.75-6.584-8.792-9.497-.092-.09-.73.05-.823-.04-.18.173-.925.04-.925.04L.526 38.44s-.294.847-.478.992v12.156" fill="#FA8176"/><path d="M54.136 64c2.043 0 2.798-1.447 2.043-2.746-6.404-11.012-14.597-20.83-24.16-29.08-.356-.04-1.105-.04-1.105-.04L18.102 41.67s-.043.42 0 .745c.11.135-.043.725-.043.725l13.52 20.693s.316-.038.42.167h22.136z" fill="#F37036"/><path d="M.048 61.345C.048 62.915.965 64 2.523 64H32c-3.956-7.8-8.385-14.915-13.898-21.585-5.704 3.57-11.733 6.657-18.054 9.173v9.757z" fill="#F15713"/><path d="M56.47 2.594C57.11 1.48 56.29.08 55.01.08H32.346c-.105.208-.76.486-.76.486L18.168 20.63s.03 1.105-.11 1.273c.235.147.11.867.11.867s8.89 6.12 12.747 9.364c.352.297.756-.26 1.104.04 9.707-8.377 18.005-18.366 24.45-29.58" fill="#85B8C1"/><path d="M.048 24.837c1.405 3.305 5.083 6.587 8.44 7.297.188-.18.634.22.822.04 2.93-2.823 5.644-5.672 8.27-8.786.22-.26.26-1.22.48-1.485-3.782-5.75-13.793-9.5-18.012-9.144v12.077" fill="#F39D90"/><path d="M.048 3.177v9.582c6.305 2.508 12.32 5.586 18.01 9.143C23.59 15.22 28.38 7.9 32.346.08H3.12C1.423.08.048 1.466.048 3.176" fill="#69AAB5"/><path d="M18.102 42.415C23 39.35 27.658 35.935 32.02 32.173c-4.375-3.773-9.05-7.198-13.96-10.27-2.984 3.605-6.19 7.012-9.573 10.23 3.4 3.236 6.62 6.66 9.615 10.282z" fill="#FFB1A2"/><path d="M.048 39.432c2.928-2.3 5.743-4.733 8.44-7.298-2.697-2.564-5.512-5-8.44-7.297v14.595" fill="#F76F6D"/></g></svg>
