<?xml version="1.0" encoding="utf-8"?>
<!-- Generator: Adobe Illustrator 25.0.1, SVG Export Plug-In . SVG Version: 6.00 Build 0)  -->
<svg version="1.1" id="Layer_1" xmlns="http://www.w3.org/2000/svg" xmlns:xlink="http://www.w3.org/1999/xlink" x="0px" y="0px"
	 viewBox="0 0 74.5 88.6" style="enable-background:new 0 0 74.5 88.6;" xml:space="preserve">
<style type="text/css">
	.st0{fill:#010101;}
</style>
<path class="st0" d="M62.8,22.4h-1.1V21c0-4.1-3.3-7.4-7.4-7.4h-1.1v-1.4c0-4.1-3.3-7.4-7.4-7.4H11.7c-4.1,0-7.4,3.3-7.4,7.4v47.3
	c0,4.1,3.3,7.4,7.4,7.4h1.1h0h3.8h1.1v-4.9V21c0-1.4,1.1-2.5,2.5-2.5h28h4.9h1.1c1.4,0,2.5,1.1,2.5,2.5v1.4h-3.6h-4.9H28.7
	c-4.1,0-7.4,3.3-7.4,7.4v32.2v4.9v3.9v4.9V77c0,4.1,3.3,7.4,7.4,7.4h34.1c4.1,0,7.4-3.3,7.4-7.4V29.8C70.2,25.7,66.9,22.4,62.8,22.4
	z M48.3,13.6h-28c-4.1,0-7.4,3.3-7.4,7.4v41h0h-1.1c-1.4,0-2.5-1.1-2.5-2.5V12.2c0-1.4,1.1-2.5,2.5-2.5h34.1c1.4,0,2.5,1.1,2.5,2.5
	V13.6z M65.3,77c0,1.4-1.1,2.5-2.5,2.5H28.7c-1.4,0-2.5-1.1-2.5-2.5v-1.4v-4.9v-3.9v-4.9V29.8c0-1.4,1.1-2.5,2.5-2.5h19.5h4.9h3.6
	h4.9h1.1c1.4,0,2.5,1.1,2.5,2.5V77z"/>
</svg>
