<svg version="1.1" viewBox="0 0 27.500001 3.5236001" xmlns="http://www.w3.org/2000/svg" xmlns:cc="http://creativecommons.org/ns#" xmlns:dc="http://purl.org/dc/elements/1.1/" xmlns:rdf="http://www.w3.org/1999/02/22-rdf-syntax-ns#">
<metadata>
<rdf:RDF>
<cc:Work rdf:about="">
<dc:format>image/svg+xml</dc:format>
<dc:type rdf:resource="http://purl.org/dc/dcmitype/StillImage"/>
<dc:title>OpenDevise</dc:title>
</cc:Work>
</rdf:RDF>
</metadata>
<title>OpenDevise</title>
<g fill="#fff" aria-label="OpenDevise">
<g stroke-width=".067971">
<path d="m5.5115 0.62918q0.32989 0 0.57278 0.10876 0.24651 0.10875 0.37703 0.31177 0.13052 0.20302 0.13051 0.48215 0 0.2755-0.13051 0.48215-0.13051 0.20301-0.37703 0.31177-0.24288 0.10876-0.57278 0.10876h-0.57278v0.73227h-0.47126v-2.5376zm-0.021752 1.4066q0.30813 0 0.46764-0.13051 0.15951-0.13051 0.15951-0.37338-2.6e-6 -0.24287-0.15951-0.37338-0.1595-0.13051-0.46764-0.13051h-0.55102v1.0078z"/>
<path d="m9.0259 2.7717v0.39514h-1.9032v-2.5376h1.8525v0.39514h-1.3812v0.65977h1.2253v0.38789h-1.2253v0.69964z"/>
<path d="m11.863 0.62918v2.5376h-0.38789l-1.3993-1.7183v1.7183h-0.46764v-2.5376h0.38789l1.3993 1.7183v-1.7183z"/>
</g>
<g transform="matrix(.2569 0 0 .2569 .21907 -72.78)">
<path d="m7.1818 297q-2.0383 0-3.6766-0.8763-1.6383-0.89535-2.5717-2.4574-0.93345-1.5812-0.93345-3.5242t0.93345-3.5052q0.93345-1.5812 2.5717-2.4574 1.6383-0.89535 3.6766-0.89535t3.6767 0.89535q1.6383 0.8763 2.5717 2.4384t0.93345 3.5242-0.93345 3.5242-2.5717 2.4574q-1.6383 0.8763-3.6767 0.8763zm0-2.1717q1.3335 0 2.4003-0.59055 1.0668-0.6096 1.6764-1.6764 0.6096-1.0858 0.6096-2.4194t-0.6096-2.4003q-0.6096-1.0858-1.6764-1.6764-1.0668-0.6096-2.4003-0.6096t-2.4003 0.6096q-1.0668 0.59055-1.6764 1.6764-0.6096 1.0668-0.6096 2.4003t0.6096 2.4194q0.6096 1.0668 1.6764 1.6764 1.0668 0.59055 2.4003 0.59055z" stroke-width=".26458"/>
</g>
<g transform="matrix(.2569 0 0 .2569 .53899 -72.78)">
<path d="m47.713 283.47h5.8293q2.1336 0 3.791 0.8382 1.6574 0.81915 2.5718 2.3432 0.9144 1.505 0.9144 3.4862t-0.9144 3.5052q-0.9144 1.505-2.5718 2.3432-1.6574 0.81915-3.791 0.81915h-5.8293zm5.715 11.24q1.4668 0 2.5718-0.55245 1.124-0.5715 1.7145-1.6002 0.6096-1.0478 0.6096-2.4194t-0.6096-2.4003q-0.59055-1.0478-1.7145-1.6002-1.1049-0.5715-2.5718-0.5715h-3.2385v9.144z" stroke-width=".26458"/>
</g>
<g stroke-width=".067971">
<path d="m18.643 2.7717v0.39514h-1.9032v-2.5376h1.8525v0.39514h-1.3812v0.65977h1.2253v0.38789h-1.2253v0.69964z"/>
<path d="m21.51 0.62918-1.1057 2.5376h-0.46401l-1.1093-2.5376h0.51115l0.84466 1.9576 0.85191-1.9576z"/>
<path d="m21.831 0.62918h0.47126v2.5376h-0.47126z"/>
<path d="m23.828 3.2033q-0.29364 0-0.56914-0.083377-0.27188-0.083379-0.43139-0.22113l0.16313-0.36613q0.15588 0.12325 0.38065 0.20301 0.22838 0.076127 0.45677 0.076127 0.28277 0 0.42052-0.090629 0.14138-0.090627 0.14138-0.23926 0-0.10875-0.07975-0.17763-0.07613-0.072505-0.19576-0.11238-0.11963-0.039876-0.32626-0.090629-0.29001-0.068878-0.47126-0.13776-0.17763-0.068877-0.30813-0.21388-0.12688-0.14863-0.12688-0.39876 0-0.21026 0.11238-0.38065 0.11601-0.17401 0.3444-0.2755 0.23201-0.1015 0.56551-0.1015 0.23201 0 0.45677 0.058003t0.38789 0.16676l-0.14864 0.36613q-0.16676-0.097879-0.34802-0.14863-0.18126-0.050753-0.35164-0.050753-0.27915 0-0.4169 0.094254-0.13413 0.094254-0.13413 0.25014 0 0.10875 0.07613 0.17763 0.07975 0.068877 0.19938 0.10876 0.11963 0.039876 0.32626 0.090627 0.28277 0.065253 0.46401 0.13776 0.18126 0.068877 0.30812 0.21388 0.13051 0.145 0.13051 0.39152 0 0.21026-0.11601 0.38065-0.11238 0.17038-0.3444 0.27188-0.23202 0.1015-0.56551 0.1015z"/>
<path d="m27.281 2.7717v0.39514h-1.9034v-2.5376h1.8526v0.39514h-1.3814v0.65977h1.2255v0.38789h-1.2255v0.69964z"/>
</g>
</g>
</svg>
