<svg width="2576" height="768" viewBox="0 0 2576 768" fill="none" xmlns="http://www.w3.org/2000/svg">
<path d="M215.753 202.344C160.052 202.344 113.517 222.795 80.3784 262.289V212.217H0V755.951H80.3784V554.96C113.517 594.453 160.052 614.905 215.753 614.905C325.04 614.905 413.879 522.519 413.879 408.977C413.879 295.434 325.04 202.344 215.753 202.344ZM333.501 408.271C333.501 480.91 279.21 536.624 207.292 536.624C135.374 536.624 80.3784 481.616 80.3784 408.271C80.3784 334.927 135.374 279.919 207.292 279.919C279.21 279.919 333.501 335.633 333.501 408.271Z" fill="#1B1B1F"/>
<path d="M778.399 262.289C745.261 222.795 698.726 202.344 643.025 202.344C533.738 202.344 444.898 294.729 444.898 408.271C444.898 521.813 533.738 614.199 643.025 614.199C698.726 614.199 745.261 593.747 778.399 554.254V604.326H858.776V212.217H778.399V262.289ZM651.486 536.624C579.568 536.624 524.572 481.616 524.572 408.271C524.572 334.927 578.863 279.919 651.486 279.919C723.403 279.919 778.399 334.927 778.399 408.271C778.399 481.616 723.403 536.624 651.486 536.624Z" fill="#1B1B1F"/>
<path d="M1001.2 38.0234H920.828V604.325H1001.2V38.0234Z" fill="#1B1B1F"/>
<path d="M1146.46 212.219H1066.08V605.033H1146.46V212.219Z" fill="#1B1B1F"/>
<path d="M1106.26 54.9453C1078.06 54.9453 1054.79 78.218 1054.79 106.427C1054.79 134.637 1078.06 157.204 1106.26 157.204C1134.46 157.204 1157.03 133.931 1157.03 106.427C1157.73 78.9232 1134.46 54.9453 1106.26 54.9453Z" fill="#1B1B1F"/>
<path d="M1525.79 262.289C1492.65 223.501 1445.41 202.344 1391.12 202.344C1279.01 202.344 1190.88 291.908 1190.88 406.156C1190.88 520.403 1279.01 610.673 1391.12 610.673C1445.41 610.673 1492.65 588.811 1525.79 550.023V581.758C1525.79 649.461 1481.37 690.365 1406.64 690.365C1332.6 690.365 1303.69 658.629 1290.29 631.125L1286.77 624.073L1216.26 663.565L1219.79 669.913C1252.22 731.973 1317.79 765.824 1405.22 765.824C1501.82 765.824 1605.46 707.995 1605.46 581.758V211.512H1525.79V262.289ZM1525.79 406.156C1525.79 478.794 1470.79 533.097 1398.88 533.097C1326.96 533.097 1271.96 478.089 1271.96 406.156C1271.96 334.222 1326.96 279.214 1398.88 279.214C1470.79 279.919 1525.79 334.222 1525.79 406.156Z" fill="#1B1B1F"/>
<path d="M1848 202.344C1732.37 202.344 1642.12 293.318 1642.12 408.271C1642.12 523.224 1732.37 614.199 1848 614.199C1963.63 614.199 2054.59 523.224 2054.59 408.271C2054.59 293.318 1963.63 202.344 1848 202.344ZM1974.21 408.271C1974.21 480.91 1919.92 535.213 1847.29 535.213C1774.67 535.213 1721.79 480.205 1721.79 408.271C1721.79 336.337 1776.09 281.329 1847.29 281.329C1919.21 281.329 1974.21 335.633 1974.21 408.271Z" fill="#1B1B1F"/>
<path d="M2226.82 116C2258.76 116 2284.83 90.1296 2284.83 58.4173C2284.83 26.705 2259.6 0 2226.82 0C2194.88 0 2168.83 25.8705 2168.83 57.5827C2168.83 89.2952 2194.88 116 2226.82 116Z" fill="#017EFA"/>
<path d="M2226 260C2257.94 260 2284 234.13 2284 202.418C2284 170.705 2258.78 144 2226 144C2194.06 144 2168 169.87 2168 201.582C2168 233.295 2194.06 260 2226 260Z" fill="#017EFA"/>
<path d="M2226 404C2257.94 404 2284 378.13 2284 346.418C2284 314.705 2258.78 288 2226 288C2194.06 288 2168 313.87 2168 345.582C2168 377.295 2194.06 404 2226 404Z" fill="#51CBFF"/>
<path d="M2370.82 116C2402.76 116 2428.83 90.1296 2428.83 58.4173C2428.83 26.705 2403.6 0 2370.82 0C2338.88 0 2312.83 25.8705 2312.83 57.5827C2312.83 89.2952 2338.88 116 2370.82 116Z" fill="#017EFA"/>
<path d="M2369.17 260C2401.12 260 2427.17 234.13 2427.17 202.418C2427.17 170.705 2401.96 144 2369.17 144C2337.24 144 2311.17 169.87 2311.17 201.582C2311.17 233.295 2337.24 260 2369.17 260Z" fill="#017EFA"/>
<path d="M2370 404C2401.94 404 2428 378.13 2428 346.418C2428 314.705 2402.78 288 2370 288C2338.06 288 2312 313.87 2312 345.582C2312 377.295 2338.06 404 2370 404Z" fill="#017EFA"/>
<path d="M2514 116C2545.94 116 2572 90.1296 2572 58.4173C2572 26.705 2546.78 0 2514 0C2482.06 0 2456 25.8705 2456 57.5827C2456 89.2952 2482.06 116 2514 116Z" fill="#017EFA"/>
<path d="M2513.17 260C2545.12 260 2571.17 234.13 2571.17 202.418C2571.17 170.705 2545.96 144 2513.17 144C2481.24 144 2455.17 169.87 2455.17 201.582C2455.17 233.295 2481.24 260 2513.17 260Z" fill="#51CBFF"/>
<path d="M2514 404C2545.94 404 2572 378.13 2572 346.418C2572 314.705 2546.78 288 2514 288C2482.06 288 2456 313.87 2456 345.582C2456 377.295 2482.06 404 2514 404Z" fill="#51CBFF"/>
</svg>
