<?xml version="1.0" encoding="UTF-8" standalone="no"?>
<!-- Created with Inkscape (http://www.inkscape.org/) -->

<svg
   xmlns:dc="http://purl.org/dc/elements/1.1/"
   xmlns:cc="http://creativecommons.org/ns#"
   xmlns:rdf="http://www.w3.org/1999/02/22-rdf-syntax-ns#"
   xmlns:svg="http://www.w3.org/2000/svg"
   xmlns="http://www.w3.org/2000/svg"
   xmlns:sodipodi="http://sodipodi.sourceforge.net/DTD/sodipodi-0.dtd"
   xmlns:inkscape="http://www.inkscape.org/namespaces/inkscape"
   version="1.1"
   width="220"
   height="55"
   id="svg2"
   inkscape:version="0.48.2 r9819"
   sodipodi:docname="Square, Inc. logo.svg">
  <sodipodi:namedview
     pagecolor="#ffffff"
     bordercolor="#666666"
     borderopacity="1"
     objecttolerance="10"
     gridtolerance="10"
     guidetolerance="10"
     inkscape:pageopacity="0"
     inkscape:pageshadow="2"
     inkscape:window-width="1280"
     inkscape:window-height="945"
     id="namedview18"
     showgrid="false"
     inkscape:zoom="5.3422072"
     inkscape:cx="110.13092"
     inkscape:cy="27.5"
     inkscape:window-x="0"
     inkscape:window-y="27"
     inkscape:window-maximized="1"
     inkscape:current-layer="layer3" />
  <title
     id="title3166">Square, Inc. logo</title>
  <defs
     id="defs4">
    <clipPath
       id="clipPath3045">
      <path
         d="m 0,76.21 288,0 L 288,0 0,0 0,76.21 z"
         id="path3047" />
    </clipPath>
  </defs>
  <metadata
     id="metadata7">
    <rdf:RDF>
      <cc:Work
         rdf:about="">
        <dc:format>image/svg+xml</dc:format>
        <dc:type
           rdf:resource="http://purl.org/dc/dcmitype/StillImage" />
        <dc:title>Square, Inc. logo</dc:title>
        <dc:source>http://www.brandsoftheworld.com</dc:source>
        <dc:description>Original version converted from Adobe Illustrator file obtained at Brands of the World to SVG using Inkscape.  Revised 2016 version used proprietary SQMarket TrueType font, obtained from GitHub repository at https://github.com/square/square.github.io/tree/master/fonts, with kerning and weight tweaks applied to match the appearance of sample logo posted by Square, Inc. at their Web site.</dc:description>
        <dc:creator>
          <cc:Agent>
            <dc:title>Square, Inc.</dc:title>
          </cc:Agent>
        </dc:creator>
        <dc:publisher>
          <cc:Agent>
            <dc:title>Square, Inc.</dc:title>
          </cc:Agent>
        </dc:publisher>
        <dc:date>2017-06-15</dc:date>
        <dc:contributor>
          <cc:Agent>
            <dc:title>Hydrargyrum for Wikimedia Foundation</dc:title>
          </cc:Agent>
        </dc:contributor>
      </cc:Work>
    </rdf:RDF>
  </metadata>
  <g
     inkscape:groupmode="layer"
     id="layer2"
     inkscape:label="original"
     style="display:none"
     sodipodi:insensitive="true">
    <g
       transform="translate(-623.84206,-727.74211)"
       id="layer1">
      <g
         transform="matrix(0.62481102,0,0,0.62481102,275.95426,282.79555)"
         id="g3156">
        <path
           d="m 629.34431,713.57188 -56.7625,0 c -7.80375,0 -14.1925,6.38625 -14.1925,14.1925 l 0,56.7625 c 0,7.8025 6.38875,14.1875 14.1925,14.1875 l 56.7625,0 c 7.80375,0 14.1925,-6.385 14.1925,-14.1875 l 0,-56.7625 c 0,-7.80625 -6.38875,-14.1925 -14.1925,-14.1925 m -1.29,65.15375 c 0,2.48 -2.03125,4.505 -4.51375,4.505 l -45.15875,0 c -2.48125,0 -4.5125,-2.025 -4.5125,-4.505 l 0,-45.1575 c 0,-2.48125 2.03125,-4.5125 4.5125,-4.5125 l 45.15875,0 c 2.4825,0 4.51375,2.03125 4.51375,4.5125 l 0,45.1575 z m -15.4775,-13.5525 c 0,1.42375 -1.16125,2.58125 -2.5775,2.58125 l -18.06,0 c -1.42,0 -2.5775,-1.1575 -2.5775,-2.58125 l 0,-18.05875 c 0,-1.41875 1.1575,-2.57875 2.5775,-2.57875 l 18.06,0 c 1.41625,0 2.5775,1.16 2.5775,2.57875 l 0,18.05875 z"
           id="path3051"
           style="fill:#242627;fill-opacity:1;fill-rule:nonzero;stroke:none"
           inkscape:connector-curvature="0" />
        <g
           id="g3148">
          <path
             d="m 682.94419,784.101 c -5.04875,0 -9.90125,-1.945 -13.32,-5.36 -3.05125,-3.04375 -4.7425,-7 -4.7425,-11.1375 l 5.11375,0 c 0,2.77125 1.1475,5.44375 3.24,7.52625 2.46375,2.4525 6.00625,3.865 9.7125,3.865 l 0.0425,0 c 7.135,0 12.93125,-4.99 12.93125,-11.1225 -0.004,-4.60125 -2.54875,-8.2525 -14.92875,-11.11875 -5.03875,-1.16625 -8.435,-2.72625 -10.69875,-4.9075 -2.40625,-2.33375 -3.585,-5.44 -3.585,-9.49375 0,-8.00625 7.1775,-14.52375 16.00125,-14.52375 4.23,0 8.215,1.455 11.22875,4.09875 3.1075,2.72875 4.825,6.41125 4.825,10.36625 l -5.11375,0 c 0,-5.16125 -4.90375,-9.355 -10.94,-9.355 -5.90625,0 -10.8925,4.3125 -10.8925,9.41375 0,4.66375 1.60125,7.40375 10.33125,9.425 9.3225,2.15375 18.86375,5.75625 18.8875,16.09125 0,4.39875 -1.9075,8.51 -5.37,11.5775 -3.3925,3.005 -7.89375,4.655 -12.6725,4.655 l -0.05,0 z"
             id="path3055"
             style="fill:#242627;fill-opacity:1;fill-rule:nonzero;stroke:none"
             inkscape:connector-curvature="0" />
          <path
             d="m 743.14856,798.639 0,-22.38125 -0.14375,0 c -3.31625,5.08 -9.03125,7.6925 -15.03875,7.6925 -11.575,0 -20.76,-8.6925 -20.76,-20.3375 0,-11.58125 9.40125,-20.195 20.76,-20.195 6.0075,0 11.7225,2.61375 15.03875,7.76875 l 0.14375,0 0,-6.78125 4.945,0 0,54.23375 -4.945,0 z m -15.1825,-50.77125 c -9.18125,0 -15.80875,6.84625 -15.80875,15.95625 0,9.04125 6.7725,15.6775 15.80875,15.6775 8.76125,0 15.4675,-7.13625 15.4675,-15.7525 0,-8.6125 -6.70625,-15.88125 -15.4675,-15.88125"
             id="path3059"
             style="fill:#242627;fill-opacity:1;fill-rule:nonzero;stroke:none"
             inkscape:connector-curvature="0" />
          <path
             d="m 834.20569,783.02988 0,-6.77625 -0.14375,0 c -3.3925,5.0775 -9.0375,7.69 -15.04125,7.69 -11.5725,0 -20.7575,-8.6825 -20.7575,-20.33125 0,-11.58 9.38875,-20.19875 20.7575,-20.19875 6.07625,0 11.72375,2.5475 15.04125,7.77 l 0.14375,0 0,-6.77625 4.93625,0 0,38.6225 -4.93625,0 z m -15.185,-35.1625 c -9.1725,0 -15.81,6.84625 -15.81,15.9575 0,9.03625 6.7775,15.6775 15.81,15.6775 8.75625,0 15.46125,-7.1375 15.46125,-15.7525 0,-8.6125 -6.705,-15.8825 -15.46125,-15.8825"
             id="path3063"
             style="fill:#242627;fill-opacity:1;fill-rule:nonzero;stroke:none"
             inkscape:connector-curvature="0" />
          <path
             d="m 853.95669,760.43463 0,22.59875 -4.94875,0 0,-38.63 4.94875,0 0,5.57875 0.13125,0 c 2.125,-4.9425 5.865,-6.215 10.87875,-6.5675 l 0,5.23125 c -6.7775,0.5625 -11.01,4.8675 -11.01,11.78875"
             id="path3067"
             style="fill:#242627;fill-opacity:1;fill-rule:nonzero;stroke:none"
             inkscape:connector-curvature="0" />
          <path
             d="m 907.21106,765.52063 -35.1625,0 c 0.355,7.625 7.42125,13.98125 14.9775,13.98125 5.92875,0 11.72125,-3.3925 13.84,-9.11125 l 5.2175,0 c -2.81625,8.04625 -10.44125,13.5525 -18.99,13.5525 -11.15375,0 -20.12125,-9.105 -20.12125,-20.19375 0,-11.01125 8.9675,-20.33625 20.05375,-20.33625 11.30125,0 20.26875,9.53625 20.26875,20.69625 0,0.4875 -0.0838,0.9125 -0.0838,1.41125 m -20.1175,-17.65625 c -7.70125,0 -13.84125,5.64875 -15.045,13.205 l 30.15375,0 c -1.27125,-7.55625 -7.34,-13.205 -15.10875,-13.205"
             id="path3071"
             style="fill:#242627;fill-opacity:1;fill-rule:nonzero;stroke:none"
             inkscape:connector-curvature="0" />
          <path
             d="m 786.44819,783.07988 0,-6.035 -0.14,0 c -2.2725,4.75875 -7.30875,6.95875 -12.41875,6.95875 -5.03875,0 -10.145,-1.7725 -13.34125,-5.815 -2.7625,-3.47875 -3.4,-8.1625 -3.4,-12.48625 l 0,-21.42875 4.96375,0 0,21.35375 c 0,8.0175 2.90625,13.91 11.7775,13.91 3.26,0 5.815,-0.8575 8.23,-3.1275 3.40875,-3.25625 4.04125,-7.09625 4.04125,-11.63125 l 0,-20.505 4.97,0 0,38.80625 -4.6825,0 z"
             id="path3075"
             style="fill:#242627;fill-opacity:1;fill-rule:nonzero;stroke:none"
             inkscape:connector-curvature="0" />
        </g>
      </g>
    </g>
  </g>
  <g
     inkscape:groupmode="layer"
     id="layer3"
     inkscape:label="2016-rev"
     style="display:inline">
    <g
       id="g3486">
      <g
         id="g3478">
        <path
           style="font-size:48px;font-style:normal;font-variant:normal;font-weight:normal;font-stretch:normal;text-align:start;line-height:110.00000237999999797%;letter-spacing:0px;word-spacing:0px;writing-mode:lr-tb;text-anchor:start;fill:#000000;fill-opacity:1;stroke:none;font-family:SQ Market;-inkscape-font-specification:SQ Market"
           d="m 110.09599,19.0625 c -2.15849,0.06202 -4.2168,0.936493 -5.90625,2.25 -0.60419,0.431488 -1.3399,1.144543 -1.73776,1.79042 -0.86536,1.186472 -1.59946,2.454052 -2.01373,3.870303 -1.198386,3.956806 -0.98548,8.436984 0.93158,12.131 0.74648,1.313848 1.54604,2.453577 2.72616,3.427027 0.95717,0.596111 2.06939,1.381015 3.25559,1.689364 3.24364,1.029562 7.00209,0.500483 9.71316,-1.595614 0.67831,-0.421332 1.29657,-1.232078 1.84375,-1.90625 -0.0396,-0.177078 0.51922,-0.903134 0.5625,-0.3375 -0.002,4.022378 0.002,8.081355 0,12.11875 1.21875,0 2.4375,0 3.65625,0 0,-10.958333 0,-21.916667 0,-32.875 -1.21875,0 -2.4375,0 -3.65625,0 0,1.458333 0,2.916667 0,4.375 -0.65477,-0.959262 -1.23326,-2.010929 -2.15625,-2.625 -2.01811,-1.619075 -4.62218,-2.515883 -7.21875,-2.3125 z m 1.28125,3.3125 c 1.67857,-0.0043 3.58299,0.46943 4.78125,1.53125 0.95531,0.774052 1.67021,1.591807 2.1863,2.728967 1.36709,2.938761 1.48858,6.433306 0.42104,9.485514 -0.47922,1.47611 -1.40042,2.7232 -2.60734,3.691769 -1.77666,1.519691 -4.34998,1.77378 -6.59701,1.381996 -1.48758,-0.25529 -2.75007,-1.10639 -3.70555,-2.238417 -1.77914,-1.953522 -2.28665,-4.780058 -2.25407,-7.368406 0.0896,-2.2465 0.52114,-4.603244 1.90038,-6.431423 0.92865,-1.148264 2.14317,-2.140818 3.6311,-2.492454 0.72272,-0.233519 1.48693,-0.310231 2.2439,-0.288796 z"
           id="path3299"
           inkscape:connector-curvature="0" />
        <path
           style="font-size:48px;font-style:normal;font-variant:normal;font-weight:normal;font-stretch:normal;text-align:start;line-height:110.00000237999999797%;letter-spacing:0px;word-spacing:0px;writing-mode:lr-tb;text-anchor:start;fill:#000000;fill-opacity:1;stroke:none;font-family:SQ Market;-inkscape-font-specification:SQ Market"
           d="m 83.237735,9.65625 c -2.78174,0.1113705 -5.614077,0.840776 -7.84375,2.5625 -0.457618,0.303837 -0.963531,0.852275 -1.280144,1.328935 -1.360275,1.718414 -2.056025,3.951802 -1.838984,6.145892 0.07786,1.596262 0.666997,3.148117 1.744128,4.337673 0.315373,0.475145 0.924123,1.014713 1.419243,1.326245 2.878957,2.237478 6.622826,2.653061 10.020507,3.670505 2.121658,0.645968 4.577872,1.0844 5.9665,2.972 1.176055,1.436089 1.14301,3.5945 0.5,5.28125 -0.550121,1.381693 -1.750693,2.369375 -3.03125,3.0625 -2.681676,1.160125 -5.787808,1.084742 -8.562085,0.307852 -2.090019,-0.639688 -3.943929,-1.881549 -5.300734,-3.603828 -0.34711,-0.565804 -0.655804,-0.930295 -1.198817,-0.276504 -0.823204,0.576243 -1.646409,1.152487 -2.469614,1.72873 0.661152,1.038354 1.441905,2.035083 2.375,2.75 1.596164,1.220742 3.327212,2.300413 5.290505,2.806922 3.673489,1.094496 7.751131,0.980525 11.303245,-0.494422 1.433752,-0.748809 2.80311,-1.505353 3.817267,-2.761494 1.31181,-1.550497 2.15467,-3.725186 2.195209,-5.844367 C 96.451356,32.92211 95.794933,30.858547 94.456485,29.3125 94.201255,28.910381 93.740591,28.499216 93.298473,28.242241 92.629669,27.648383 91.873183,27.275963 91.053503,26.83242 87.398021,25.003828 83.229648,24.609166 79.495736,23.01105 78.352079,22.442741 77.207129,21.655432 76.612735,20.5 c -0.889025,-1.972852 -0.196348,-4.469865 1.544687,-5.721221 1.520799,-1.218698 3.60866,-1.577227 5.536563,-1.591279 3.347658,-0.03421 6.741958,1.425656 8.7625,4.125 1,-0.75 2,-1.5 3,-2.25 C 94.579348,13.841173 93.482753,12.895154 92.282577,12.086206 89.633196,10.343693 86.406746,9.4930109 83.237735,9.65625 z"
           id="path3297"
           inkscape:connector-curvature="0" />
        <path
           style="font-size:48px;font-style:normal;font-variant:normal;font-weight:normal;font-stretch:normal;text-align:start;line-height:110.00000237999999797%;letter-spacing:0px;word-spacing:0px;writing-mode:lr-tb;text-anchor:start;fill:#000000;fill-opacity:1;stroke:none;font-family:SQ Market;-inkscape-font-specification:SQ Market"
           d="m 129.298,35.5625 c 0.004,2.147386 0.43984,4.378484 1.75,6.125 0.57292,0.931335 1.70304,1.671587 2.70734,2.21982 2.62423,1.214354 5.7747,1.028749 8.37323,-0.161622 1.18358,-0.640644 2.32029,-1.437615 3.07568,-2.464448 0.3463,-0.319486 0.73663,-1.226589 0.9375,-1.275 0,1.383333 0,2.766667 0,4.15 1.21875,0 2.4375,0 3.65625,0 0,-8.177083 0,-16.354167 0,-24.53125 -1.21875,0 -2.4375,0 -3.65625,0 -0.0254,5.010103 0.0591,10.023066 -0.0625,15.03125 -0.29542,2.01655 -1.21176,3.963938 -2.875,5.1875 -2.01592,1.536071 -4.9373,1.909346 -7.3125,0.96875 -1.66356,-0.747642 -2.61141,-2.573252 -2.73011,-4.366474 -0.28622,-3.136868 -0.0841,-6.294089 -0.14489,-9.439776 0,-2.460417 0,-4.920833 0,-7.38125 -1.23958,0 -2.47917,0 -3.71875,0 0,5.3125 0,10.625 0,15.9375 z"
           id="path3301"
           inkscape:connector-curvature="0" />
        <path
           style="font-size:48px;font-style:normal;font-variant:normal;font-weight:normal;font-stretch:normal;text-align:start;line-height:110.00000237999999797%;letter-spacing:0px;word-spacing:0px;writing-mode:lr-tb;text-anchor:start;fill:#000000;fill-opacity:1;stroke:none;font-family:SQ Market;-inkscape-font-specification:SQ Market"
           d="m 164.8125,19.0625 c -3.17355,0.103044 -6.3179,1.134927 -8.90625,2.96875 0.53125,0.895833 1.0625,1.791667 1.59375,2.6875 2.15468,-1.653606 4.92699,-2.329831 7.60625,-2.4375 1.95147,-0.02675 4.2495,0.346479 5.37165,2.077749 0.64077,1.17474 0.49454,2.860808 -0.6029,3.703501 -0.91925,0.882664 -2.48036,1.245665 -3.8125,1.5 -2.52772,0.464433 -5.17772,0.564166 -7.54958,1.634164 -1.06658,0.499211 -2.056,1.233324 -2.66917,2.178336 -1.31074,1.624927 -1.40264,3.880726 -1.01399,5.850279 0.22239,1.111507 0.79201,2.081155 1.48274,2.962221 0.36259,0.539196 1.08171,0.899899 1.6875,1.34375 2.28574,1.305478 5.09101,1.411611 7.63153,0.920243 1.49716,-0.341031 2.87874,-1.109047 3.95545,-2.084366 0.56458,-0.365294 0.67406,-0.97698 1.16302,-1.335877 0.46867,0.127384 0.10397,0.879876 0.21875,1.25 0,0.625 0,1.25 0,1.875 1.17708,0 2.35417,0 3.53125,0 -0.0262,-6.364261 0.0605,-12.73137 -0.0625,-19.09375 -0.28569,-1.745751 -1.21399,-3.550508 -2.73865,-4.400403 -1.99605,-1.308033 -4.52731,-1.733216 -6.88635,-1.599597 z m 6.03125,11.5625 c -0.10168,2.560717 0.41481,5.326811 -0.86491,7.678916 -1.05307,1.909709 -3.14328,3.03737 -5.29724,3.204389 -1.90951,0.15892 -4.13658,-0.08093 -5.4316,-1.633305 -0.92097,-1.125848 -1.09764,-2.835749 -0.65036,-4.217848 0.34333,-1.198994 1.41655,-1.940749 2.55684,-2.316326 2.69232,-0.924548 5.62489,-0.930756 8.28102,-1.965826 0.52625,-0.292107 1.00999,-0.568143 1.40625,-0.96875 0,0.07292 0,0.145833 0,0.21875 z"
           id="path3303"
           inkscape:connector-curvature="0" />
        <path
           style="font-size:48px;font-style:normal;font-variant:normal;font-weight:normal;font-stretch:normal;text-align:start;line-height:110.00000237999999797%;letter-spacing:0px;word-spacing:0px;writing-mode:lr-tb;text-anchor:start;fill:#000000;fill-opacity:1;stroke:none;font-family:SQ Market;-inkscape-font-specification:SQ Market"
           d="m 191.35826,19.15625 c -1.95125,0.152154 -3.85988,1.04279 -5.21302,2.319201 -0.59289,0.6535 -1.14755,1.472376 -1.66198,2.274549 0,-1.375 0,-2.75 0,-4.125 -1.21875,0 -2.4375,0 -3.65625,0 0,8.177083 0,16.354167 0,24.53125 1.21875,0 2.4375,0 3.65625,0 0.0338,-4.782359 -0.0765,-9.570236 0.0766,-14.348995 0.2836,-2.314126 1.25109,-4.669868 3.22012,-6.025914 1.75618,-1.321605 4.2721,-1.422889 6.29699,-0.625091 0.43428,-0.2216 0.25944,-0.971576 0.49023,-1.395812 0.15951,-0.607646 0.31901,-1.215292 0.47852,-1.822938 -1.10515,-0.638928 -2.42553,-0.856506 -3.6875,-0.78125 z"
           id="path3305"
           inkscape:connector-curvature="0" />
        <path
           style="font-size:48px;font-style:normal;font-variant:normal;font-weight:normal;font-stretch:normal;text-align:start;line-height:110.00000237999999797%;letter-spacing:0px;word-spacing:0px;writing-mode:lr-tb;text-anchor:start;fill:#000000;fill-opacity:1;stroke:none;font-family:SQ Market;-inkscape-font-specification:SQ Market"
           d="m 207.34151,19.0625 c -2.13829,0.03665 -4.19886,0.798237 -5.96875,1.96875 -0.35579,0.27072 -0.77995,0.582572 -1.16446,0.914461 -0.91491,0.88582 -1.60571,1.976144 -2.27304,3.116789 -1.80811,3.567489 -2.01259,7.8505 -0.87425,11.658487 0.49677,1.745241 1.55119,3.364559 2.67916,4.662806 0.46069,0.472688 0.96512,0.864025 1.41384,1.178707 1.86354,1.344907 4.12796,2.069795 6.42463,2.139981 3.05584,0.170154 6.25511,-0.551318 8.64005,-2.543018 0.74955,-0.507245 1.36652,-1.1098 1.96657,-1.846963 -0.82292,-0.75 -1.64583,-1.5 -2.46875,-2.25 -1.26864,1.628734 -3.11631,2.757321 -5.16028,3.114703 -2.83059,0.54826 -6.11624,-0.05355 -8.07489,-2.287374 -1.64594,-1.582786 -2.18163,-4.005813 -2.23358,-6.233579 0.34687,-0.564064 1.21658,-0.09075 1.7875,-0.25 5.70625,0 11.4125,0 17.11875,0 0.41251,-3.32279 -0.34852,-6.849649 -2.45625,-9.49375 -0.50588,-0.78276 -1.3236,-1.349798 -2.10625,-1.9125 -2.06552,-1.470233 -4.73394,-2.09184 -7.25,-1.9375 z m 1.3125,3.125 c 2.44018,0.146241 4.80066,1.514769 5.93263,3.685788 0.53724,1.157077 0.85338,2.43898 0.87987,3.720462 -5.0625,0 -10.125,0 -15.1875,0 0.23744,-1.79709 0.66584,-3.730686 2,-5.03125 0.23884,-0.411238 0.90344,-0.814517 1.29141,-1.20469 1.48744,-0.969271 3.32773,-1.293911 5.08359,-1.17031 z"
           id="path3307"
           inkscape:connector-curvature="0" />
      </g>
      <path
         d="m 45.33346,0.90101419 -35.4658353,0 c -4.875869,0 -8.86763036,3.99019941 -8.86763036,8.86763041 l 0,35.4658354 c 0,4.875088 3.99176136,8.864506 8.86763036,8.864506 l 35.4658353,0 c 4.875869,0 8.867631,-3.989418 8.867631,-8.864506 l 0,-35.4658354 c 0,-4.877431 -3.991762,-8.86763041 -8.867631,-8.86763041 M 44.527454,41.609795 c 0,1.549532 -1.269147,2.814774 -2.820241,2.814774 l -28.215684,0 c -1.550313,0 -2.81946,-1.265242 -2.81946,-2.814774 l 0,-28.214903 c 0,-1.550313 1.269147,-2.81946 2.81946,-2.81946 l 28.215684,0 c 1.551094,0 2.820241,1.269147 2.820241,2.81946 l 0,28.214903 z m -9.670513,-8.467751 c 0,0.889575 -0.725561,1.612793 -1.61045,1.612793 l -11.284087,0 c -0.887232,0 -1.61045,-0.723218 -1.61045,-1.612793 l 0,-11.283306 c 0,-0.886451 0.723218,-1.611232 1.61045,-1.611232 l 11.284087,0 c 0.884889,0 1.61045,0.724781 1.61045,1.611232 l 0,11.283306 z"
         id="path3010"
         style="fill:#000000;fill-opacity:1;fill-rule:nonzero;stroke:none"
         inkscape:connector-curvature="0" />
    </g>
  </g>
</svg>
