<svg width="1354" height="328" viewBox="0 0 1354 328" fill="none" xmlns="http://www.w3.org/2000/svg">
<rect width="1354" height="328" />
<path d="M351.659 253.289C334.623 253.289 320.118 249.41 308.143 241.651C296.336 233.892 288.071 223.266 283.349 209.773L308.396 195.099C315.48 215.002 330.154 224.953 352.418 224.953C363.381 224.953 371.561 222.845 376.959 218.628C382.525 214.243 385.308 208.592 385.308 201.677C385.308 194.424 382.356 188.943 376.453 185.232C370.549 181.353 360.092 177.136 345.081 172.582C336.647 170.052 329.816 167.691 324.588 165.498C319.359 163.305 313.793 160.269 307.89 156.39C302.155 152.342 297.854 147.366 294.987 141.463C292.119 135.56 290.686 128.644 290.686 120.717C290.686 105.031 296.252 92.6341 307.384 83.5261C318.516 74.2494 331.925 69.611 347.611 69.611C361.779 69.611 374.176 73.0687 384.802 79.9841C395.428 86.8994 403.608 96.4291 409.343 108.573L384.802 122.741C377.38 106.212 364.983 97.9471 347.611 97.9471C339.177 97.9471 332.431 99.9711 327.371 104.019C322.311 107.898 319.781 113.211 319.781 119.958C319.781 126.536 322.311 131.765 327.371 135.644C332.599 139.355 341.96 143.318 355.454 147.535C362.2 149.728 367.092 151.414 370.128 152.595C373.332 153.607 377.718 155.294 383.284 157.655C389.018 160.016 393.319 162.378 396.187 164.739C399.054 167.1 402.09 170.052 405.295 173.594C408.668 177.136 411.029 181.184 412.379 185.738C413.728 190.292 414.403 195.436 414.403 201.171C414.403 217.194 408.584 229.929 396.946 239.374C385.476 248.651 370.381 253.289 351.659 253.289Z" fill="#333333"/>
<path d="M498.254 149.812H466.882V210.532C466.882 215.761 468.063 219.556 470.424 221.917C472.786 224.11 476.243 225.375 480.797 225.712C485.52 225.881 491.339 225.796 498.254 225.459V250C477.34 252.53 462.328 250.759 453.22 244.687C444.112 238.446 439.558 227.061 439.558 210.532V149.812H416.282V123.5H439.558V96.1761L466.882 88.0801V123.5H498.254V149.812Z" fill="#333333"/>
<path d="M611.711 123.5H639.035V250H611.711V231.784C601.422 246.121 586.664 253.289 567.436 253.289C550.063 253.289 535.221 246.88 522.908 234.061C510.595 221.074 504.439 205.303 504.439 186.75C504.439 168.028 510.595 152.258 522.908 139.439C535.221 126.62 550.063 120.211 567.436 120.211C586.664 120.211 601.422 127.295 611.711 141.463V123.5ZM543.148 215.845C550.738 223.435 560.268 227.23 571.737 227.23C583.206 227.23 592.736 223.435 600.326 215.845C607.916 208.086 611.711 198.388 611.711 186.75C611.711 175.112 607.916 165.498 600.326 157.908C592.736 150.149 583.206 146.27 571.737 146.27C560.268 146.27 550.738 150.149 543.148 157.908C535.558 165.498 531.763 175.112 531.763 186.75C531.763 198.388 535.558 208.086 543.148 215.845Z" fill="#333333"/>
<path d="M724.266 253.289C705.207 253.289 689.268 246.88 676.449 234.061C663.799 221.242 657.474 205.472 657.474 186.75C657.474 167.859 663.799 152.089 676.449 139.439C689.268 126.62 705.207 120.211 724.266 120.211C736.579 120.211 747.795 123.163 757.915 129.066C768.035 134.969 775.625 142.897 780.685 152.848L757.156 166.51C754.289 160.438 749.904 155.715 744 152.342C738.266 148.8 731.603 147.029 724.013 147.029C712.881 147.029 703.52 150.824 695.93 158.414C688.509 166.004 684.798 175.449 684.798 186.75C684.798 198.051 688.509 207.496 695.93 215.086C703.52 222.676 712.881 226.471 724.013 226.471C731.435 226.471 738.097 224.7 744 221.158C750.072 217.616 754.626 212.893 757.662 206.99L781.191 220.399C775.794 230.519 768.035 238.531 757.915 244.434C747.795 250.337 736.579 253.289 724.266 253.289Z" fill="#333333"/>
<path d="M906.442 250H873.805L821.94 191.557V250H794.616V72.9001H821.94V179.413L871.022 123.5H904.418L848.758 185.485L906.442 250Z" fill="#333333"/>
<path d="M1024.5 158.161C1032.26 162.209 1038.33 167.775 1042.72 174.859C1047.11 181.943 1049.3 190.123 1049.3 199.4C1049.3 213.905 1044.15 225.965 1033.87 235.579C1023.58 245.193 1011.01 250 996.168 250H920.268V72.9001H990.602C1005.11 72.9001 1017.34 77.6227 1027.29 87.0681C1037.41 96.3447 1042.47 107.983 1042.47 121.982C1042.47 137.331 1036.48 149.39 1024.5 158.161ZM990.602 100.224H949.363V146.776H990.602C997.012 146.776 1002.41 144.583 1006.79 140.198C1011.18 135.644 1013.37 130.078 1013.37 123.5C1013.37 116.922 1011.18 111.44 1006.79 107.055C1002.41 102.501 997.012 100.224 990.602 100.224ZM996.168 222.676C1002.91 222.676 1008.57 220.315 1013.12 215.592C1017.84 210.701 1020.2 204.797 1020.2 197.882C1020.2 190.967 1017.84 185.148 1013.12 180.425C1008.57 175.534 1002.91 173.088 996.168 173.088H949.363V222.676H996.168Z" fill="#333333"/>
<path d="M1066.59 250V65.3101H1093.92V250H1066.59Z" fill="#333333"/>
<path d="M1145.12 99.4651C1141.75 102.838 1137.7 104.525 1132.98 104.525C1128.26 104.525 1124.12 102.838 1120.58 99.4651C1117.21 95.9231 1115.52 91.7907 1115.52 87.0681C1115.52 82.3454 1117.21 78.2974 1120.58 74.9241C1123.95 71.3821 1128.09 69.611 1132.98 69.611C1137.87 69.611 1142 71.3821 1145.37 74.9241C1148.75 78.2974 1150.43 82.3454 1150.43 87.0681C1150.43 91.7907 1148.66 95.9231 1145.12 99.4651ZM1119.32 250V123.5H1146.64V250H1119.32Z" fill="#333333"/>
<path d="M1242.63 149.812H1211.26V210.532C1211.26 215.761 1212.44 219.556 1214.8 221.917C1217.16 224.11 1220.62 225.375 1225.17 225.712C1229.89 225.881 1235.71 225.796 1242.63 225.459V250C1221.71 252.53 1206.7 250.759 1197.59 244.687C1188.49 238.446 1183.93 227.061 1183.93 210.532V149.812H1160.66V123.5H1183.93V96.1761L1211.26 88.0801V123.5H1242.63V149.812Z" fill="#333333"/>
<path d="M1292.49 224.194H1353.97V250H1255.3V231.784L1314.5 149.306H1257.83V123.5H1351.44V141.716L1292.49 224.194Z" fill="#333333"/>
<path d="M0 192.157H96.126L40.126 328L224 134.685H127.433L182.992 0L0 192.157Z" fill="#1389FD"/>
</svg>
