<svg width="100%" height="100%" viewBox="0 0 690 500" fill="none" xmlns="http://www.w3.org/2000/svg">

	<defs>
    <style type="text/css">
      <![CDATA[
        @import url(/_static/survey/css/svg.css);
      ]]>
    </style>  
	</defs>

<g class="donut-chart">

	<g class="slices">
		<path d="M427.807 424.126C394.174 447.672 354.503 461.097 313.484 462.812C272.464 464.528 231.81 454.463 196.329 433.807C160.848 413.151 132.023 382.768 113.262 346.25C94.5006 309.732 86.5872 268.605 90.4574 227.733L218.883 239.893C217.335 256.242 220.5 272.693 228.005 287.3C235.509 301.907 247.039 314.06 261.232 322.323C275.424 330.585 291.686 334.611 308.093 333.925C324.501 333.239 340.37 327.869 353.823 318.45L427.807 424.126Z" fill="#1E73BE"/>
		<path d="M90.4778 227.519C93.6028 194.864 104.159 163.357 121.337 135.41C138.516 107.464 161.862 83.8188 189.587 66.2857C217.313 48.7526 248.683 37.7964 281.295 34.2559C313.908 30.7154 346.898 34.6845 377.74 45.8594L333.796 167.144C321.459 162.674 308.263 161.086 295.218 162.502C282.173 163.919 269.625 168.301 258.535 175.314C247.445 182.328 238.106 191.786 231.235 202.964C224.364 214.143 220.141 226.745 218.891 239.807L90.4778 227.519Z" fill="#A06BC7"/>
		<path d="M377.942 45.9326C407.904 56.8222 435.068 74.2381 457.47 96.9194C479.871 119.601 496.948 146.98 507.464 177.074C517.981 207.168 521.673 239.224 518.275 270.921C514.876 302.619 504.471 333.163 487.814 360.344L377.825 292.937C384.488 282.065 388.65 269.847 390.01 257.169C391.369 244.49 389.892 231.667 385.686 219.63C381.479 207.592 374.648 196.64 365.688 187.568C356.727 178.495 345.861 171.529 333.877 167.173L377.942 45.9326Z" fill="#F35DA3"/>
		<path d="M487.701 360.527C479.704 373.547 470.342 385.677 459.774 396.711L366.609 307.485C370.837 303.071 374.582 298.219 377.78 293.011L487.701 360.527Z" fill="#FF6A6B"/>
		<path d="M459.625 396.867C449.991 406.906 439.404 415.986 428.015 423.98L353.906 318.392C358.462 315.194 362.696 311.562 366.55 307.547L459.625 396.867Z" fill="#FFA600"/>
	</g>

	<g class="pointers">
		<path d="M176.167 459.693C181.167 459.693 194.255 437.228 195.262 435.5L196.269 433.771" stroke="#1E73BE"/>
		<path d="M168.593 40.9047C173.593 40.9047 187.486 62.8821 188.554 64.5727L189.623 66.2633" stroke="#A06BC7"/>
		<path d="M540.824 167.289C535.824 167.289 511.275 175.855 509.387 176.513L507.499 177.172" stroke="#F35DA3"/>
		<path d="M503.343 397.833C498.343 397.833 477.772 381.933 476.189 380.709L474.607 379.486" stroke="#FF6A6B"/>
		<path d="M468.893 434.062C463.893 434.062 446.978 414.316 445.677 412.797L444.375 411.279" stroke="#FFA600"/>
	</g>

	<g class="value-labels-inner">
		<text x="206" y="132">29.0%</text>
		<text x="421" y="215">28.2%</text>
		<text x="206" y="378">36.2%</text>
	</g>

	<g class="value-labels-outer">
		<text x="22" y="467">Remote (not required)</text>
		<text x="33" y="48">Remote (required)</text>
		<text x="551" y="174">Hybrid</text>
		<text x="513" y="405">On-site (not required)</text>
		<text x="479" y="441">On-site (required)</text>
	</g>

</g>

</svg>

