<svg width="100%" height="100%" viewBox="0 0 660 448" fill="none" xmlns="http://www.w3.org/2000/svg">

		<defs>
    <style type="text/css">
      <![CDATA[
        @import url(/_static/survey/css/svg.css);
      ]]>
    </style>
    
  </defs>

	<g class="donut-chart">

		<g class="slices">
			<path d="M390.569 49.2C417.313 58.926 441.469 74.6591 461.177 95.1881C480.885 115.717 495.62 140.495 504.247 167.613C512.874 194.732 515.164 223.469 510.939 251.612C506.715 279.754 496.089 306.552 479.879 329.943C463.67 353.333 442.31 372.692 417.443 386.53C392.576 400.368 364.865 408.315 336.444 409.76C308.023 411.205 279.649 406.109 253.507 394.865C227.365 383.62 204.151 366.527 185.653 344.901L270.461 272.36C277.86 281.011 287.146 287.848 297.603 292.346C308.06 296.844 319.409 298.882 330.778 298.304C342.146 297.726 353.23 294.547 363.177 289.012C373.124 283.477 381.668 275.733 388.152 266.377C394.635 257.021 398.886 246.302 400.576 235.045C402.265 223.788 401.35 212.293 397.899 201.445C394.448 190.598 388.554 180.687 380.671 172.475C372.788 164.264 363.125 157.97 352.427 154.08L390.569 49.2Z" fill="#1E73BE"/>
			<path d="M185.532 344.76C158.877 313.533 143.302 274.364 141.236 233.36C139.17 192.355 150.729 151.819 174.111 118.071C197.493 84.3236 231.384 59.2603 270.5 46.7889C309.617 34.3175 351.76 35.1388 390.361 49.1248L352.345 154.05C336.904 148.456 320.047 148.127 304.4 153.116C288.753 158.104 275.197 168.129 265.844 181.629C256.491 195.128 251.868 211.342 252.694 227.744C253.521 244.146 259.751 259.813 270.413 272.304L185.532 344.76Z" fill="#A06BC7"/>
		</g>

		<g class="pointers">
			<path d="M509.454 347.15C504.454 347.15 483.094 332.327 481.451 331.186L479.808 330.046" stroke="#1E73BE"/>
			<path d="M144.546 100.85C149.546 100.85 170.906 115.673 172.549 116.814L174.192 117.954" stroke="#A06BC7"/>
		</g>

		<g class="value-labels-inner">
			<text x="425" y="311.661">58.2%</text>
			<text x="194" y="140.661">41.8%</text>
		</g>

		<g class="value-labels-outer">
			<text x="519" y="354.661">First-time &#10;<tspan x="519" y="370.661">participant</tspan></text>
			<text x="75.7754" y="98.6611">Repeat &#10;<tspan x="61.3613" y="114.661">participant</tspan></text>
		</g>

	</g>

</svg>