<svg width="100%" height="100%" viewBox="0 0 650 345" fill="none" xmlns="http://www.w3.org/2000/svg">

	<defs>
    <style type="text/css">
      <![CDATA[
        @import url(/_static/survey/css/svg.css);
      ]]>
    </style>  
	</defs>

<g class="donut-chart">

	<g class="slices">
		<path d="M421.898 253.056C406.31 280.031 383.23 301.903 355.457 316.021C327.685 330.139 296.413 335.895 265.433 332.593C234.454 329.29 205.098 317.07 180.926 297.415C156.754 277.76 138.804 251.513 129.253 221.859C119.701 192.204 118.959 160.415 127.116 130.347C135.273 100.279 151.979 73.2233 175.207 52.4613C198.436 31.6993 227.189 18.1227 257.981 13.378C288.772 8.63331 320.279 12.9243 348.68 25.7307L308.972 113.792C297.612 108.67 285.009 106.953 272.692 108.851C260.376 110.749 248.874 116.18 239.583 124.485C230.292 132.789 223.609 143.612 220.346 155.639C217.084 167.666 217.381 180.382 221.201 192.243C225.022 204.105 232.202 214.604 241.87 222.466C251.539 230.328 263.282 235.216 275.673 236.537C288.065 237.858 300.574 235.555 311.683 229.908C322.792 224.261 332.024 215.512 338.259 204.722L421.898 253.056Z" fill="#1E73BE"/>
		<path d="M348.827 25.797C385.128 42.2095 414.056 71.4986 430.016 108.001C445.976 144.504 447.836 185.628 435.235 223.423L343.594 192.869C348.634 177.751 347.89 161.302 341.506 146.701C335.122 132.099 323.551 120.384 309.031 113.819L348.827 25.797Z" fill="#A06BC7"/>
		<path d="M435.184 223.575C432.85 230.55 430.042 237.358 426.778 243.949L340.211 201.08C341.517 198.443 342.64 195.72 343.573 192.93L435.184 223.575Z" fill="#F35DA3"/>
		<path d="M426.706 244.093C425.226 247.074 423.655 250.008 421.993 252.891L338.297 204.656C338.962 203.503 339.591 202.329 340.182 201.137L426.706 244.093Z" fill="#FF6A6B"/>
	</g>

	<g class="pointers">
		<path d="M95.6761 230.99C100.676 230.99 125.427 223.028 127.331 222.415L129.235 221.803" stroke="#1E73BE"/>
		<path d="M462.543 96.0748C457.543 96.0748 433.716 106.478 431.883 107.279L430.05 108.079" stroke="#A06BC7"/>
		<path d="M473.36 238.864C467.235 239.776 435.38 237.88 433.01 237.508L430.64 237.136" stroke="#F35DA3"/>
		<path d="M456 278C450.637 278 427.781 252.204 425.891 250.602L424 249" stroke="#FF6A6B"/>
	</g>

	<g class="value-labels-inner">
		<text x="273" y="316.661">73.5%</text>
		<text x="370" y="142.661">23.4%</text>
	</g>

	<g class="value-labels-outer">
		<text x="10" y="235.661">Wholly docs</text>
		<text x="473" y="97.6611">Partly docs</text>
		<text><tspan x="481" y="231.661">Not docs,</tspan><tspan x="481" y="247.661">but expected</tspan></text>
		<text><tspan x="464" y="277.661">Not docs,</tspan><tspan x="464" y="293.661">not expected</tspan></text>
	</g>

</g>

</svg>

