<svg width="100%" height="100%" viewBox="0 0 604 389" fill="none" xmlns="http://www.w3.org/2000/svg">
	<defs>
    <style type="text/css">
      <![CDATA[
        @import url(/_static/survey/css/svg.css);
      ]]>
    </style>  
	</defs>

<g class="bar-chart-horizontal">

	<g class="data-series">
		
		<g class="a">

			<g class="bars">
				<path d="M594 10H10V42H594V10Z"/>
				<path d="M516.34 58H10V91H516.34V58Z"/>
				<path d="M393.638 106H10V139H393.638V106Z"/>
				<path d="M387.426 154H10V187H387.426V154Z"/>
				<path d="M361.021 202H10V235H361.021V202Z"/>
				<path d="M284.915 250H10V283H284.915V250Z"/>
				<path d="M201.043 298H10V331H201.043V298Z"/>
				<path d="M160.66 346H10V379H160.66V346Z"/>
			</g>

			<g class="value-labels">
				<text x="551.106" y="31.3843">35.1%</text>
				<text x="467.447" y="80.3843">30.5%</text>
				<text x="346.745" y="128.384">23.1%</text>
				<text x="339.532" y="176.384">22.7%</text>
				<text x="309.128" y="224.384">21.1%</text>
				<text x="232.021" y="272.384">16.5%</text>
				<text x="158.809" y="320.384">11.5%</text>
				<text x="127.979" y="368.384">8.7%</text>
			</g>

			<g class="axis-labels">
				<text x="19.3192" y="31.3843">None</text>
				<text x="19.3192" y="79.3843">Salary too low</text>
				<text x="19.3192" y="128.384">Cost of living</text>
				<text x="19.3192" y="175.384">Excess responsibility</text>
				<text x="19.3192" y="223.384">Insufficient benefits</text>
				<text x="19.3192" y="272.384">Unfair salary</text>
				<text x="19.3192" y="319.384">Gender pay gap</text>
				<text x="19.3192" y="367.384">Too many hours</text>
			</g>

		</g>

	</g>

</g>

</svg>
