<svg width="100%" height="100%" viewBox="0 0 660 446" fill="none" xmlns="http://www.w3.org/2000/svg">

		<defs>
    <style type="text/css">
      <![CDATA[
        @import url(/_static/survey/css/svg.css);
      ]]>
    </style>
    
  </defs>

	<g class="donut-chart">

		<g class="slices">
			<path d="M453.049 347.698C433.407 371.113 408.512 389.556 380.39 401.526C352.269 413.496 321.718 418.653 291.226 416.578C260.734 414.503 231.163 405.253 204.923 389.584C178.683 373.914 156.516 352.268 140.228 326.407C123.939 300.547 113.99 271.205 111.191 240.771C108.391 210.336 112.821 179.671 124.12 151.274C135.418 122.876 153.265 97.5493 176.206 77.3563C199.148 57.1632 226.535 42.6754 256.137 35.0729L285.095 147.829C273.254 150.87 262.3 156.665 253.123 164.742C243.946 172.82 236.808 182.95 232.288 194.309C227.769 205.669 225.997 217.935 227.117 230.108C228.236 242.282 232.216 254.019 238.731 264.363C245.247 274.707 254.114 283.366 264.61 289.634C275.106 295.901 286.934 299.601 299.131 300.431C311.328 301.261 323.548 299.198 334.797 294.41C346.045 289.622 356.003 282.245 363.86 272.879L453.049 347.698Z" fill="#1E73BE"/>
			<path d="M256.325 35.0248C290.671 26.2407 326.767 27.0344 360.693 37.3199C394.619 47.6053 425.08 66.9892 448.765 93.3667C472.451 119.744 488.458 152.107 495.046 186.941C501.635 221.774 498.554 257.747 486.138 290.953L377.095 250.181C382.062 236.899 383.294 222.51 380.659 208.576C378.023 194.643 371.621 181.698 362.147 171.147C352.672 160.596 340.488 152.842 326.918 148.728C313.347 144.614 298.909 144.296 285.17 147.81L256.325 35.0248Z" fill="#A06BC7"/>
			<path d="M486.07 291.135C481.956 302.103 476.858 312.676 470.837 322.725L370.975 262.89C373.383 258.87 375.423 254.641 377.068 250.254L486.07 291.135Z" fill="#F35DA3"/>
			<path d="M470.737 322.891C466.173 330.49 461.095 337.767 455.536 344.672L364.855 271.669C367.078 268.907 369.11 265.996 370.935 262.956L470.737 322.891Z" fill="#FF6A6B"/>
			<path d="M455.414 344.823C454.683 345.729 453.944 346.629 453.197 347.521L363.919 272.809C364.218 272.451 364.514 272.092 364.806 271.729L455.414 344.823Z" fill="#FFA600"/>
		</g>

		<g class="pointers">
			<path d="M114.982 339.582C119.128 339.582 137.374 328.101 138.778 327.218L140.181 326.334" stroke="#1E73BE"/>
			<path d="M470.234 74C466.088 74 450.042 88.3974 448.808 89.5049L447.574 90.6124" stroke="#A06BC7"/>
			<path d="M505.66 318.204C501.514 318.204 482.102 308.827 480.608 308.106L479.115 307.385" stroke="#F35DA3"/>
			<path d="M490.079 345.325C485.933 345.325 466.133 336.078 464.774 335.128L463.415 334.177" stroke="#FF6A6B"/>
			<path d="M474.948 365.226C470.802 365.226 456.763 348.419 455.482 347.365L454.202 346.311" stroke="#FFA600"/>
		</g>

		<g class="value-labels-inner">
			<text x="402.243" y="123.723">34.7%</text>
			<text x="156.574" y="309.661">59.9%</text>
		</g>

		<g class="value-labels-outer">
			<text x="67.5736" y="345.661">Woman</text>
			<text x="483.574" y="73.6611">Man</text>
			<text x="514.181" y="326.87">Non-binary</text>
			<text x="498.426" y="354.232">Not specified</text>
			<text x="483.501" y="374.132">Other</text>
		</g>

	</g>

</svg>
