<svg width="100%" height="100%" viewBox="0 0 660 478" fill="none" xmlns="http://www.w3.org/2000/svg">

	<defs>
    <style type="text/css">
      <![CDATA[
        @import url(/_static/survey/css/svg.css);
      ]]>
    </style>  
	</defs>

<g class="bar-chart">

	<g class="labels">
				
	</g>

	<g class="data-series">
		
		<g class="a">

			<g class="axis-labels">
					<text x="46.9805" y="474.657">Category One</text>
					<text x="211.98" y="474.657">Category Two</text>
					<text x="370.975" y="474.657">Category Three</text>
					<text x="538.978" y="474.657">Category Four</text>
			</g>

			<g class="bars">
				<path d="M149.531 405.142H13.4062V455.826H149.531V405.142Z"/>
				<path d="M314.531 374.52H178.406V455.826H314.531V374.52Z"/>
				<path d="M479.531 225.635H343.406V455.826H479.531V225.635Z"/>
				<path d="M644.531 35.5699H508.406V455.826H644.531V35.5699Z"/>
			</g>

			<g class="value-labels">
				<text x="78" y="384.384">4.2%&#x200b;</text>
				<text x="238" y="355.384">8.6%&#x200b;</text>
				<text x="396" y="214.384">30.0%&#x200b;</text>
				<text x="556" y="34.3843">57.2%&#x200b;</text>
			</g>

		</g>

	</g>

	<g class="legend">
		
	</g>

</g>

<g class="stamp">
	<path d="M501.071 110.398L518.306 145.552C518.687 146.33 519.111 146.815 519.576 147.007C519.833 147.129 520.047 147.185 520.215 147.176C520.375 147.148 520.892 147.042 521.768 146.861C522.833 146.611 523.58 146.924 524.011 147.802C524.265 148.321 524.211 148.867 523.849 149.44C523.587 149.865 523.018 150.293 522.14 150.723L521.123 151.222L507.779 157.764L507.001 158.145C506.283 158.497 505.661 158.641 505.135 158.578C504.619 158.484 504.239 158.188 503.995 157.69C503.594 156.872 503.728 156.138 504.399 155.487C504.95 154.945 505.265 154.63 505.345 154.541C505.436 154.422 505.497 154.244 505.528 154.006C505.611 153.569 505.482 153.002 505.139 152.304L490.456 122.356C490.114 121.657 489.745 121.207 489.349 121.006C489.142 120.885 488.968 120.834 488.829 120.853C488.7 120.842 488.252 120.888 487.487 120.991C486.562 121.123 485.899 120.78 485.498 119.962C485.253 119.464 485.257 118.992 485.509 118.547C485.771 118.072 486.261 117.658 486.979 117.306L487.757 116.925L501.071 110.398ZM520.465 126.718C522.437 126.097 523.994 125.717 525.138 125.577C526.301 125.427 527.424 125.446 528.505 125.633C529.646 125.841 530.646 126.266 531.506 126.908C532.385 127.541 533.059 128.336 533.529 129.294L536.565 135.487C536.878 136.125 537.244 136.341 537.662 136.136C537.822 136.058 537.932 135.954 537.993 135.826C538.064 135.667 538.135 135.41 538.207 135.052C538.374 134.13 538.716 133.541 539.235 133.287C539.574 133.121 540.001 133.134 540.516 133.327C541.031 133.52 541.376 133.796 541.552 134.155C541.856 134.773 541.928 135.678 541.77 136.869C541.622 138.03 541.28 139.175 540.744 140.303C540.249 141.362 539.592 142.266 538.771 143.015C537.96 143.783 536.907 144.485 535.61 145.121C532.978 146.412 530.556 146.671 528.347 145.899C526.128 145.106 524.358 143.364 523.038 140.671L520.574 135.645C520.026 134.528 519.698 133.885 519.59 133.715C519.1 132.966 518.483 132.415 517.741 132.061C516.82 131.647 515.792 131.644 514.656 132.052L513.086 128.851C514.085 128.163 514.716 127.507 514.979 126.884C515.202 126.329 515.271 125.788 515.186 125.261C515.121 124.724 514.868 124.007 514.428 123.109L510.541 115.181C509.925 113.924 509.216 113.109 508.414 112.735C507.632 112.351 506.515 112.293 505.062 112.56L503.434 109.239L504.212 108.857C506.426 107.772 508.35 106.928 509.984 106.325C512.405 105.41 514.841 105.155 517.292 105.562C520.814 106.136 523.416 108.138 525.098 111.569C526.477 114.381 526.729 117.115 525.854 119.771C525.487 120.891 524.923 121.934 524.16 122.902C523.418 123.86 522.186 125.132 520.465 126.718Z"/>
	<path d="M465.108 128.029L485.131 168.868L471.817 175.395L471.039 175.776C470.321 176.128 469.699 176.273 469.173 176.209C468.657 176.115 468.277 175.819 468.032 175.321C467.631 174.503 467.766 173.769 468.437 173.118C468.988 172.576 469.303 172.261 469.383 172.172C469.474 172.054 469.535 171.875 469.566 171.637C469.649 171.201 469.519 170.633 469.177 169.935L454.494 139.987C454.152 139.289 453.783 138.839 453.387 138.637C453.179 138.516 453.006 138.465 452.867 138.484C452.738 138.473 452.29 138.519 451.525 138.622C450.6 138.754 449.937 138.411 449.536 137.593C449.291 137.095 449.295 136.623 449.547 136.178C449.809 135.703 450.299 135.29 451.017 134.938L451.795 134.556L465.108 128.029ZM467.771 126.723L479.828 120.812L485.021 131.403C485.324 132.022 485.424 132.529 485.322 132.926C485.22 133.322 484.909 133.648 484.39 133.902C483.952 134.117 483.588 134.184 483.301 134.102C483.014 134.02 482.643 133.744 482.19 133.274C480.298 131.332 478.315 130.114 476.243 129.621C474.19 129.118 471.938 129.319 469.487 130.224L467.771 126.723ZM478.3 148.577L476.599 145.107C477.482 143.981 478.041 142.952 478.277 142.02C478.513 141.088 478.491 140.01 478.213 138.786C478.001 137.95 477.956 137.329 478.078 136.922C478.191 136.496 478.486 136.166 478.965 135.931C479.603 135.618 480.164 135.652 480.648 136.033C480.915 136.224 481.273 136.778 481.723 137.696L487.312 149.095C487.771 150.032 487.979 150.734 487.936 151.201C487.913 151.658 487.622 152.023 487.063 152.297C486.604 152.522 486.177 152.558 485.781 152.406C485.385 152.254 484.945 151.888 484.463 151.308C483.449 150.098 482.442 149.28 481.442 148.855C480.462 148.42 479.415 148.328 478.3 148.577ZM487.823 167.547L486.239 164.316C487.438 163.481 488.368 162.679 489.03 161.909C489.711 161.13 490.3 160.161 490.796 159.002C491.292 157.844 491.598 156.753 491.716 155.731C491.843 154.679 491.818 153.392 491.641 151.871C491.548 151.125 491.567 150.584 491.699 150.247C491.821 149.89 492.091 149.609 492.51 149.404C493.069 149.13 493.541 149.109 493.926 149.34C494.302 149.552 494.691 150.067 495.091 150.884L500.269 161.446L487.823 167.547Z" />
	<path d="M425.377 147.508L445.399 188.347L432.085 194.874L431.307 195.256C430.589 195.608 429.967 195.752 429.441 195.688C428.925 195.595 428.545 195.299 428.301 194.8C427.9 193.982 428.035 193.248 428.705 192.598C429.256 192.056 429.571 191.74 429.652 191.651C429.742 191.533 429.803 191.355 429.835 191.116C429.917 190.68 429.788 190.113 429.445 189.415L414.763 159.466C414.42 158.768 414.051 158.318 413.655 158.116C413.448 157.995 413.274 157.944 413.135 157.963C413.006 157.952 412.559 157.998 411.793 158.102C410.868 158.234 410.205 157.891 409.804 157.073C409.56 156.574 409.563 156.102 409.815 155.657C410.077 155.182 410.567 154.769 411.285 154.417L412.063 154.036L425.377 147.508ZM447.247 176.827L435.674 153.222C434.96 151.766 434.184 150.711 433.344 150.059C432.811 149.628 432.292 149.375 431.786 149.302C431.279 149.228 430.573 149.302 429.668 149.524L428.04 146.203C429.097 145.685 430.014 145.284 430.791 145.002C433.461 144.04 436.442 143.914 439.735 144.625C442.978 145.286 445.882 146.794 448.447 149.149C451.071 151.524 453.263 154.507 455.023 158.097C457.018 162.166 458.045 166.152 458.104 170.057C458.153 173.942 457.227 177.477 455.324 180.661C454.398 182.203 453.425 183.423 452.404 184.319C451.404 185.205 449.956 186.113 448.062 187.042L446.477 183.81C447.208 183.18 447.688 182.697 447.919 182.361C448.17 182.015 448.323 181.594 448.376 181.098C448.46 180.513 448.42 179.926 448.256 179.339C448.102 178.722 447.766 177.884 447.247 176.827Z" />
	<path d="M412.728 204.365L399.414 210.892L398.636 211.274C397.918 211.626 397.296 211.77 396.77 211.706C396.254 211.613 395.874 211.317 395.63 210.818C395.229 210 395.363 209.266 396.034 208.616C396.585 208.073 396.9 207.758 396.98 207.669C397.071 207.551 397.132 207.372 397.163 207.134C397.246 206.698 397.117 206.13 396.774 205.432L382.091 175.484C381.749 174.786 381.38 174.336 380.984 174.134C380.777 174.013 380.603 173.962 380.464 173.981C380.335 173.97 379.887 174.016 379.122 174.119C378.197 174.251 377.534 173.908 377.133 173.091C376.888 172.592 376.892 172.12 377.144 171.675C377.406 171.2 377.896 170.787 378.614 170.435L379.392 170.053L392.736 163.511L393.753 163.013C394.63 162.582 395.317 162.394 395.814 162.448C396.489 162.512 396.953 162.804 397.208 163.323C397.638 164.2 397.428 164.984 396.578 165.672C395.888 166.233 395.488 166.578 395.378 166.706C395.268 166.834 395.177 167.027 395.105 167.285C394.982 167.791 395.106 168.423 395.478 169.181L412.728 204.365ZM415.151 203.177L413.508 199.826C414.398 199.167 415.068 198.591 415.519 198.098C415.99 197.595 416.382 197.007 416.695 196.334C417.21 195.265 417.533 193.981 417.664 192.482C417.795 190.983 417.732 189.417 417.477 187.786C417.258 186.533 417.195 185.673 417.288 185.207C417.392 184.711 417.703 184.336 418.221 184.081C418.78 183.808 419.301 183.837 419.785 184.168C420.012 184.329 420.287 184.738 420.61 185.397L426.58 197.573L415.151 203.177Z" />
	<path d="M354.401 185.311C353.56 186.169 353.082 187.01 352.966 187.834C352.85 188.657 353.086 189.667 353.673 190.864L366.786 217.611C367.647 219.367 368.492 220.486 369.323 220.969C369.995 221.382 370.894 221.473 372.018 221.244L373.632 224.535C369.028 226.346 364.501 226.5 360.052 224.995C354.266 223.032 349.676 218.59 346.283 211.669C344.581 208.199 343.554 204.818 343.203 201.527C342.861 198.206 343.218 195.074 344.274 192.132C345.077 189.883 346.175 187.934 347.569 186.286C348.963 184.638 350.712 183.236 352.817 182.08L354.401 185.311ZM356.855 184.109L355.271 180.877C357.474 179.921 359.653 179.397 361.81 179.304C363.986 179.202 366.209 179.522 368.479 180.265C374.493 182.24 379.232 186.757 382.693 193.818C386.087 200.739 386.787 207.088 384.795 212.864C383.27 217.323 380.367 220.812 376.085 223.332L374.471 220.041C374.931 219.667 375.257 219.322 375.448 219.005C375.649 218.659 375.782 218.248 375.845 217.772C375.983 216.69 375.646 215.321 374.834 213.666L361.721 186.918C361.202 185.861 360.612 185.112 359.95 184.669C359.505 184.368 359.055 184.18 358.598 184.107C358.162 184.024 357.581 184.025 356.855 184.109Z" />
	<path d="M319.794 222.207L324.671 219.816L318.275 206.771C317.728 205.654 317.116 205.138 316.44 205.222L315.335 205.392C314.46 205.524 313.817 205.172 313.406 204.334C312.898 203.297 313.362 202.426 314.798 201.722L315.576 201.341L328.889 194.813L329.697 194.417C331.193 193.684 332.195 193.836 332.704 194.873C333.105 195.691 332.97 196.425 332.299 197.075C331.749 197.617 331.428 197.948 331.338 198.066C331.258 198.155 331.202 198.318 331.17 198.557C331.087 198.993 331.217 199.56 331.559 200.258L346.183 230.087C346.721 231.184 347.348 231.706 348.064 231.652L349.182 231.511C350.107 231.38 350.775 231.733 351.186 232.57C351.704 233.627 351.215 234.523 349.719 235.256L348.912 235.652L335.598 242.179L334.76 242.59C333.364 243.275 332.407 243.088 331.888 242.031C331.478 241.194 331.588 240.459 332.219 239.828L333.015 239.03C333.505 238.567 333.467 237.757 332.9 236.6L326.123 222.778L321.246 225.169L319.794 222.207ZM328.238 245.788L314.894 252.33L314.116 252.711C313.398 253.063 312.776 253.207 312.25 253.144C311.734 253.05 311.354 252.754 311.11 252.256C310.709 251.438 310.844 250.704 311.514 250.053C312.065 249.511 312.38 249.196 312.461 249.107C312.551 248.988 312.612 248.81 312.644 248.572C312.726 248.135 312.597 247.568 312.255 246.87L297.572 216.922C297.229 216.224 296.86 215.774 296.465 215.572C296.257 215.451 296.083 215.4 295.944 215.419C295.815 215.408 295.368 215.454 294.602 215.557C293.677 215.689 293.014 215.346 292.613 214.528C292.369 214.03 292.372 213.558 292.624 213.113C292.886 212.638 293.376 212.225 294.094 211.872L294.872 211.491L308.216 204.949L308.994 204.568C310.41 203.873 311.372 204.045 311.881 205.082C312.291 205.92 312.176 206.644 311.536 207.255L310.755 208.009C310.274 208.492 310.308 209.292 310.855 210.409L325.538 240.357C326.086 241.474 326.698 241.991 327.374 241.907L328.448 241.751C329.324 241.619 329.967 241.972 330.377 242.809C330.886 243.846 330.432 244.712 329.016 245.406L328.238 245.788Z" />
	<path d="M271.596 222.903L291.618 263.742L278.304 270.269L277.526 270.65C276.808 271.003 276.186 271.147 275.66 271.083C275.144 270.99 274.764 270.693 274.519 270.195C274.118 269.377 274.253 268.643 274.924 267.993C275.475 267.45 275.79 267.135 275.87 267.046C275.961 266.928 276.022 266.749 276.053 266.511C276.136 266.075 276.006 265.507 275.664 264.809L260.981 234.861C260.639 234.163 260.27 233.713 259.874 233.511C259.667 233.39 259.493 233.339 259.354 233.358C259.225 233.347 258.777 233.393 258.012 233.496C257.087 233.628 256.424 233.285 256.023 232.468C255.778 231.969 255.782 231.497 256.034 231.052C256.296 230.577 256.786 230.164 257.504 229.812L258.282 229.43L271.596 222.903ZM274.258 221.598L286.315 215.686L291.508 226.277C291.811 226.896 291.911 227.403 291.809 227.8C291.707 228.196 291.396 228.522 290.877 228.776C290.439 228.991 290.076 229.058 289.788 228.976C289.501 228.894 289.13 228.618 288.677 228.148C286.785 226.206 284.802 224.988 282.73 224.495C280.677 223.992 278.425 224.193 275.974 225.098L274.258 221.598ZM284.787 243.452L283.086 239.981C283.969 238.855 284.528 237.826 284.764 236.894C285 235.962 284.978 234.884 284.7 233.66C284.488 232.824 284.443 232.203 284.565 231.796C284.678 231.37 284.974 231.04 285.452 230.805C286.09 230.492 286.652 230.526 287.135 230.908C287.402 231.098 287.76 231.653 288.21 232.57L293.799 243.969C294.258 244.906 294.467 245.608 294.423 246.075C294.4 246.532 294.109 246.897 293.55 247.171C293.092 247.396 292.664 247.432 292.268 247.28C291.872 247.128 291.432 246.762 290.95 246.182C289.936 244.972 288.929 244.154 287.929 243.729C286.949 243.295 285.902 243.202 284.787 243.452ZM294.31 262.422L292.726 259.19C293.925 258.355 294.855 257.553 295.517 256.783C296.198 256.004 296.787 255.035 297.283 253.876C297.779 252.718 298.085 251.627 298.203 250.605C298.33 249.553 298.305 248.266 298.128 246.745C298.035 245.999 298.054 245.458 298.186 245.121C298.308 244.764 298.578 244.483 298.997 244.278C299.556 244.004 300.028 243.983 300.413 244.214C300.789 244.426 301.178 244.941 301.579 245.758L306.756 256.32L294.31 262.422Z" />
	<path d="M235.477 239.609L237.252 243.229C236.163 243.986 235.54 244.935 235.382 246.076C235.224 247.217 235.536 248.585 236.318 250.181L248.434 274.894L249.065 276.18C249.29 276.639 249.619 277.084 250.053 277.514C250.497 277.915 250.956 278.222 251.432 278.434C251.946 278.677 252.427 278.8 252.874 278.803C253.311 278.787 253.854 278.657 254.501 278.413L256.291 282.063C252.422 283.961 248.567 284.601 244.727 283.985C241.344 283.442 238.28 281.987 235.537 279.621C232.784 277.235 230.4 273.988 228.385 269.879C226.909 266.867 225.944 263.865 225.49 260.871C225.047 257.847 225.144 254.992 225.781 252.304C226.428 249.587 227.57 247.098 229.207 244.835C230.864 242.563 232.72 240.924 234.774 239.917L235.477 239.609ZM239.63 242.1L237.855 238.48C238.911 238.161 239.782 237.944 240.468 237.83C241.174 237.706 242.467 237.543 244.346 237.339C245.54 237.199 246.306 237.046 246.645 236.88C247.223 236.596 247.535 236.122 247.58 235.457L247.617 234.548C247.621 233.952 247.953 233.492 248.611 233.17C249.15 232.906 249.637 232.865 250.072 233.047C250.528 233.219 250.907 233.615 251.211 234.233L257.313 246.679C257.704 247.477 257.808 248.144 257.625 248.679C257.442 249.214 257.121 249.594 256.662 249.818C256.183 250.053 255.721 250.094 255.275 249.942C254.84 249.76 254.361 249.363 253.839 248.753C252.648 247.383 251.633 246.347 250.794 245.645C249.007 244.17 247.277 243.114 245.603 242.475C244.473 242.039 243.437 241.792 242.494 241.735C241.541 241.658 240.586 241.78 239.63 242.1ZM258.744 280.861L256.955 277.211C258.452 276.328 259.799 274.938 260.996 273.04C261.63 272.012 262.071 270.843 262.32 269.533C262.559 268.204 262.574 266.873 262.366 265.54C262.253 264.804 262.262 264.243 262.394 263.856C262.536 263.44 262.827 263.124 263.266 262.909C263.744 262.675 264.231 262.659 264.727 262.861C265.222 263.064 265.601 263.434 265.865 263.973C266.305 264.87 266.489 266.128 266.417 267.747C266.365 269.356 266.064 270.963 265.515 272.568C264.844 274.53 263.967 276.173 262.884 277.495C261.82 278.808 260.44 279.93 258.744 280.861Z" />
	<path d="M193.478 261.202L205.535 255.29L231.088 286.367C231.551 286.907 231.999 287.368 232.433 287.748C232.799 288.039 233.349 288.153 234.085 288.089C234.711 288.054 235.177 288.098 235.484 288.219C235.791 288.341 236.038 288.591 236.224 288.97C236.732 290.007 236.209 290.907 234.653 291.67L219.723 298.99C219.125 299.283 218.578 299.378 218.082 299.275C217.576 299.152 217.206 298.851 216.971 298.372C216.776 297.973 216.709 297.635 216.771 297.357C216.832 297.079 217.069 296.654 217.481 296.081C217.782 295.686 217.954 295.33 217.996 295.012C218.038 294.695 217.971 294.356 217.795 293.997C217.629 293.658 217.453 293.374 217.266 293.144L214.181 289.275L205.834 293.367L204.896 289.411L211.598 286.125L194.168 264.5L193.478 261.202ZM195.14 269.813L199.702 275.258L203.882 297.182C203.996 297.819 204.171 298.376 204.405 298.855C205.021 300.112 206.05 300.721 207.491 300.682L208.772 300.648C209.577 300.624 210.151 300.961 210.493 301.659C210.982 302.657 210.499 303.512 209.043 304.226L201.443 307.952C200.705 308.314 200.043 308.453 199.458 308.368C198.883 308.255 198.463 307.929 198.199 307.39C197.915 306.812 198.12 306.118 198.811 305.309C199.453 304.549 199.895 303.936 200.137 303.471C200.389 302.976 200.573 302.392 200.687 301.717C200.845 300.625 200.771 299.313 200.465 297.781L195.14 269.813Z" />
	<path d="M185.168 315.931L171.854 322.459L171.076 322.84C170.358 323.192 169.736 323.336 169.21 323.273C168.694 323.179 168.314 322.883 168.069 322.384C167.669 321.567 167.803 320.833 168.474 320.182C169.025 319.64 169.34 319.325 169.42 319.236C169.511 319.117 169.572 318.939 169.603 318.701C169.686 318.264 169.557 317.697 169.214 316.999L154.531 287.05C154.189 286.352 153.82 285.902 153.424 285.701C153.217 285.58 153.043 285.529 152.904 285.548C152.775 285.537 152.327 285.583 151.562 285.686C150.637 285.818 149.974 285.475 149.573 284.657C149.328 284.159 149.332 283.687 149.584 283.242C149.846 282.767 150.336 282.353 151.054 282.001L151.832 281.62L165.175 275.078L166.193 274.579C167.07 274.149 167.757 273.961 168.254 274.014C168.929 274.079 169.393 274.371 169.648 274.889C170.078 275.767 169.868 276.55 169.018 277.239C168.328 277.8 167.928 278.144 167.818 278.273C167.708 278.401 167.617 278.594 167.545 278.852C167.422 279.357 167.546 279.989 167.918 280.747L185.168 315.931ZM187.591 314.743L185.948 311.392C186.838 310.734 187.508 310.158 187.959 309.665C188.429 309.162 188.822 308.573 189.135 307.9C189.65 306.831 189.973 305.547 190.104 304.048C190.235 302.549 190.172 300.984 189.917 299.353C189.698 298.099 189.635 297.239 189.728 296.773C189.832 296.277 190.142 295.902 190.661 295.648C191.22 295.374 191.741 295.403 192.225 295.735C192.452 295.895 192.727 296.305 193.05 296.963L199.02 309.14L187.591 314.743Z" />
	<path d="M126.132 294.22L143.367 329.374C143.748 330.152 144.172 330.637 144.637 330.83C144.894 330.951 145.108 331.007 145.276 330.999C145.436 330.97 145.953 330.865 146.829 330.683C147.894 330.433 148.641 330.747 149.072 331.624C149.326 332.143 149.272 332.689 148.91 333.262C148.648 333.687 148.079 334.115 147.201 334.545L146.184 335.044L132.84 341.586L132.062 341.967C131.344 342.319 130.722 342.464 130.196 342.4C129.68 342.306 129.3 342.01 129.056 341.512C128.655 340.694 128.789 339.96 129.46 339.309C130.011 338.767 130.326 338.452 130.406 338.363C130.497 338.245 130.558 338.066 130.589 337.828C130.672 337.392 130.543 336.824 130.2 336.126L115.517 306.178C115.175 305.48 114.806 305.03 114.41 304.828C114.203 304.707 114.029 304.656 113.89 304.675C113.761 304.664 113.313 304.71 112.548 304.813C111.623 304.945 110.96 304.602 110.559 303.785C110.314 303.286 110.318 302.814 110.57 302.369C110.832 301.894 111.322 301.481 112.04 301.129L112.818 300.747L126.132 294.22ZM141.025 318.165L139.456 314.963C140.216 314.343 140.711 313.841 140.943 313.455C141.194 313.059 141.337 312.569 141.372 311.983C141.409 311 141.105 309.85 140.46 308.533L135.766 298.96C135.306 298.022 134.894 297.358 134.53 296.968C134.165 296.578 133.681 296.296 133.076 296.122C132.224 295.847 131.275 295.879 130.229 296.219L128.645 292.988C132.754 290.973 135.976 289.876 138.312 289.695C141.006 289.488 143.466 289.989 145.692 291.199C147.957 292.438 149.764 294.434 151.114 297.187C152.62 300.258 153.174 303.104 152.776 305.724C152.368 308.323 151.172 310.679 149.189 312.789C147.536 314.515 144.815 316.307 141.025 318.165Z" />
	<rect x="61.3023" y="288.823" width="524.104" height="110.338" rx="55.1688" transform="rotate(-26.1175 61.3023 288.823)" stroke-width="7.66234"/>
</g>

</svg>
