<svg width="100%" height="100%" viewBox="0 0 660 497" fill="none" xmlns="http://www.w3.org/2000/svg">

	<defs>
    <style type="text/css">
      <![CDATA[
        @import url(/_static/survey/css/svg.css);
      ]]>
    </style>  
	</defs>

<g class="donut-chart">

	<g class="slices">
		<path d="M463.881 410.26C443.302 430.856 418.736 447.036 391.687 457.81C364.639 468.583 335.676 473.724 306.572 472.918C277.468 472.111 248.835 465.374 222.424 453.119C196.014 440.864 172.382 423.349 152.975 401.645C133.567 379.941 118.793 354.505 109.556 326.894C100.319 299.283 96.8128 270.078 99.2529 241.065C101.693 212.052 110.028 183.842 123.747 158.162C137.466 132.482 156.282 109.871 179.041 91.7134L259.117 192.085C250.013 199.348 242.487 208.393 236.999 218.665C231.511 228.937 228.177 240.221 227.201 251.826C226.225 263.431 227.627 275.113 231.322 286.158C235.017 297.202 240.927 307.376 248.69 316.058C256.453 324.739 265.906 331.746 276.47 336.648C287.034 341.55 298.487 344.244 310.129 344.567C321.771 344.89 333.356 342.833 344.175 338.524C354.994 334.214 364.821 327.742 373.052 319.504L463.881 410.26Z" fill="#1E73BE"/>
		<path d="M179.209 91.5801C204.725 71.2654 234.547 57.0518 266.397 50.0252C298.246 42.9986 331.28 43.345 362.976 51.038C394.671 58.7309 424.188 73.5667 449.273 94.4121C474.358 115.257 494.346 141.561 507.71 171.312L390.584 223.925C385.238 212.024 377.243 201.503 367.209 193.165C357.175 184.827 345.368 178.892 332.69 175.815C320.012 172.738 306.798 172.599 294.059 175.41C281.319 178.221 269.39 183.906 259.183 192.032L179.209 91.5801Z" fill="#A06BC7"/>
		<path d="M507.797 171.508C519.929 198.588 526.297 227.896 526.495 257.569C526.694 287.243 520.719 316.633 508.95 343.873L391.08 292.949C395.787 282.053 398.177 270.297 398.098 258.428C398.019 246.559 395.472 234.835 390.619 224.003L507.797 171.508Z" fill="#F35DA3"/>
		<path d="M508.865 344.07C499.971 364.599 487.913 383.607 473.13 400.4L376.752 315.56C382.665 308.843 387.488 301.24 391.046 293.028L508.865 344.07Z" fill="#FF6A6B"/>
		<path d="M472.989 400.561C470.063 403.878 467.035 407.103 463.909 410.233L373.064 319.493C374.314 318.241 375.525 316.951 376.695 315.624L472.989 400.561Z" fill="#FFA600"/>
	</g>

	<g class="pointers">
		<path d="M125.49 421.507C130.49 421.507 149.885 404.191 151.377 402.859L152.869 401.527" stroke="#1E73BE"/>
		<path d="M375.206 21.9219C370.206 21.9219 364.057 47.1843 363.584 49.1276L363.111 51.0708" stroke="#A06BC7"/>
		<path d="M561.495 257.467C556.495 257.467 530.496 257.63 528.496 257.643L526.496 257.655" stroke="#F35DA3"/>
		<path d="M523.516 389.742C518.516 389.742 496.563 375.81 494.875 374.739L493.186 373.667" stroke="#FF6A6B"/>
		<path d="M495.368 426.03C490.368 426.03 471.415 408.231 469.957 406.862L468.499 405.493" stroke="#FFA600"/>
	</g>

	<g class="value-labels-inner">
		<text x="193" y="362.661">51.8%</text>
		<text x="325" y="123.661">29.0%</text>
		<text x="443" y="264.661">13.2%</text>
		<text x="435" y="351.661">5.0%</text>
	</g>

	<g class="value-labels-outer">
		<text x="22" y="428.661">Very positive</text>
		<text x="385" y="22.6611">Positive</text>
		<text x="571" y="264.661">Neutral</text>
		<text x="534" y="397.661">Negative</text>
		<text x="505" y="433.661">Very negative</text>
	</g>

</g>


</svg>
