<svg width="100%" height="100%" viewBox="0 0 605 470" fill="none" xmlns="http://www.w3.org/2000/svg">

		<defs>
    <style type="text/css">
      <![CDATA[
        @import url(/_static/survey/css/svg.css);
      ]]>
    </style>
    
  </defs>

	<g class="donut-chart">

		<g class="slices">
			<path d="M456.274 385.389C432.585 413.628 402.56 435.871 368.645 450.307C334.731 464.743 297.885 470.963 261.111 468.46C224.337 465.957 188.674 454.802 157.028 435.905C125.382 417.007 98.6473 390.9 79.0029 359.712C59.3584 328.524 47.3594 293.136 43.9835 256.432C40.6076 219.727 45.9502 182.745 59.5761 148.496C73.202 114.248 94.7258 83.7032 122.394 59.3499C150.062 34.9966 183.092 17.5239 218.793 8.35513L253.717 144.342C239.437 148.01 226.225 154.999 215.158 164.74C204.09 174.481 195.481 186.699 190.03 200.399C184.58 214.098 182.443 228.891 183.793 243.573C185.144 258.255 189.943 272.41 197.801 284.885C205.659 297.36 216.353 307.803 229.011 315.362C241.67 322.921 255.935 327.383 270.644 328.384C285.354 329.385 300.092 326.897 313.658 321.123C327.224 315.348 339.234 306.451 348.71 295.155L456.274 385.389Z" fill="#1E73BE" />
			<path d="M219.019 8.29703C260.441 -2.29687 303.974 -1.33961 344.89 11.0649C385.806 23.4694 422.542 46.8469 451.108 78.6589C479.673 110.471 498.977 149.501 506.923 191.511C514.869 233.522 511.154 276.906 496.179 316.953L364.672 267.781C370 251.762 372.148 234.409 368.969 217.605C365.791 200.8 358.069 185.188 346.643 172.464C335.217 159.739 320.522 150.388 304.156 145.426C287.79 140.464 270.376 140.081 253.808 144.319L219.019 8.29703Z" fill="#A06BC7" />
			<path d="M496.097 317.173C491.136 330.4 484.987 343.152 477.726 355.271L357.29 283.108C360.195 278.261 362.654 273.16 364.639 267.869L496.097 317.173Z" fill="#F35DA3" />
			<path d="M477.606 355.471C472.102 364.636 465.977 373.413 459.273 381.74L349.909 293.696C352.591 290.365 355.041 286.854 357.242 283.189L477.606 355.471Z" fill="#FF6A6B" />
			<path d="M459.126 381.922C458.245 383.015 457.353 384.099 456.452 385.176L348.781 295.07C349.141 294.64 349.498 294.206 349.851 293.769L459.126 381.922Z" fill="#FFA600" />
		</g>

		<g class="pointers">
			<path d="M48.5559 375.601C53.5559 375.601 75.5618 361.754 77.2545 360.689L78.9473 359.624" stroke="#1E73BE"/>
			<path d="M478.498 58.6922C473.498 58.6922 454.146 76.0558 452.658 77.3915L451.169 78.7272" stroke="#A06BC7"/>
			<path d="M519.724 349.818C514.724 349.818 491.312 338.51 489.511 337.64L487.71 336.771" stroke="#F35DA3"/>
			<path d="M500.933 382.528C495.933 382.528 472.053 371.375 470.414 370.229L468.775 369.083" stroke="#FF6A6B"/>
			<path d="M482.684 406.528C477.684 406.528 460.752 386.258 459.208 384.987L457.664 383.716" stroke="#FFA600"/>
		</g>

		<g class="value-labels-outer">
			<text x="0" y="380">Woman</text>
			<text x="488" y="58">Man</text>
			<text x="530" y="357">Non-binary</text>
			<text x="511" y="390">Not specified</text>
			<text x="493" y="414">Other</text>
		</g>

		<g class="value-labels-inner">
			<text x="395" y="112">34.7%</text>
			<text x="451" y="328">2.9%</text>
			<text x="100" y="342">59.9%</text>	
		</g>

	</g>

</svg>
