<?xml version="1.0" encoding="UTF-8"?>
<svg width="174px" height="141px" viewBox="0 0 174 141" version="1.1" xmlns="http://www.w3.org/2000/svg" xmlns:xlink="http://www.w3.org/1999/xlink">
    <!-- Generator: Sketch 47.1 (45422) - http://www.bohemiancoding.com/sketch -->
    <title>Page 1 Copy</title>
    <desc>Created with Sketch.</desc>
    <defs>
        <polygon id="path-1" points="0 140 174 140 174 0 0 0"></polygon>
    </defs>
    <g id="Home" stroke="none" stroke-width="1" fill="none" fill-rule="evenodd">
        <g id="Mobile" transform="translate(-73.000000, -2060.000000)">
            <g id="Group-6" transform="translate(50.000000, 2060.000000)">
                <g id="Page-1-Copy" transform="translate(23.000000, 0.000000)">
                    <g id="Group-3" fill="#FED429">
                        <path d="M10.2699122,42.7761088 C10.2699122,42.7761088 22.5665332,26.3019231 51.4147645,25.7128647 C80.2626231,25.1245544 88.3023919,20.4180716 105.327938,11.5922944 C122.352366,2.76689125 161.132756,-14.2959788 171.064169,25.1245544 C180.99521,64.5458355 160.659938,75.1365438 165.38849,97.4953289 C170.118161,119.852992 160.186747,146.917886 125.66321,139.85704 C91.1404176,132.796942 79.7898051,131.619947 65.1287216,135.739241 C50.4687559,139.85704 14.9992099,137.503798 4.1221606,98.0832653 C-6.75488865,58.6623581 6.95944111,46.8946552 10.2699122,42.7761088" id="Fill-1"></path>
                    </g>
                    <polygon id="Fill-4" fill="#FFFFFF" points="147 116.743844 78.7128777 135 53 39.2557852 121.287122 21"></polygon>
                    <path d="M53.8262105,40.7211452 L79.2004349,135.178809 L146.173417,117.278855 L120.799192,22.8211914 L53.8262105,40.7211452 Z M78.1462354,137 L52,39.6696284 L121.853392,21 L148,118.330743 L78.1462354,137 Z" id="Fill-6" fill="#523C0E"></path>
                    <polygon id="Fill-8" fill="#C4E1F7" points="90.2779837 131 66 40.1940115 66.7220163 40 91 130.805989"></polygon>
                    <polygon id="Fill-10" fill="#DBB783" points="58.0975976 50 58 49.6319696 122.903153 32 123 32.3680304"></polygon>
                    <polygon id="Fill-12" fill="#DBB783" points="59.0975976 53 59 52.6319773 123.903153 35 124 35.3680227"></polygon>
                    <polygon id="Fill-14" fill="#DBB783" points="60.0972228 56 60 55.6319773 124.903153 38 125 38.3680227"></polygon>
                    <polygon id="Fill-16" fill="#DBB783" points="60.0972222 59 60 58.6319773 124.903153 41 125 41.3680227"></polygon>
                    <polygon id="Fill-18" fill="#DBB783" points="61.0968474 62 61 61.6319773 125.903153 44 126 44.3680227"></polygon>
                    <polygon id="Fill-20" fill="#DBB783" points="62.0968474 65 62 64.6319696 126.903153 47 127 47.3680304"></polygon>
                    <polygon id="Fill-22" fill="#DBB783" points="62.0972228 67 62 66.6319851 126.903153 49 127 49.3680149"></polygon>
                    <polygon id="Fill-24" fill="#DBB783" points="63.0972222 70 63 69.6319696 127.903153 52 128 52.3680304"></polygon>
                    <polygon id="Fill-26" fill="#DBB783" points="64.0972222 74 64 73.6319773 128.903153 56 129 56.3680227"></polygon>
                    <polygon id="Fill-28" fill="#DBB783" points="65.0975976 77 65 76.6319773 129.903153 59 130 59.3680227"></polygon>
                    <polygon id="Fill-30" fill="#DBB783" points="65.0972228 79 65 78.6319773 129.903153 61 130 61.3680227"></polygon>
                    <polygon id="Fill-32" fill="#DBB783" points="66.0972222 82 66 81.6319773 130.903153 64 131 64.3680227"></polygon>
                    <polygon id="Fill-34" fill="#DBB783" points="67.0972222 85 67 84.6319696 131.903153 67 132 67.3680304"></polygon>
                    <polygon id="Fill-36" fill="#DBB783" points="68.0968474 87 68 86.6319851 132.903153 69 133 69.3680149"></polygon>
                    <polygon id="Fill-38" fill="#DBB783" points="68.0972228 91 68 90.6319696 132.903153 73 133 73.3680304"></polygon>
                    <polygon id="Fill-40" fill="#DBB783" points="69.0972222 94 69 93.6319773 133.903153 76 134 76.3680227"></polygon>
                    <polygon id="Fill-42" fill="#DBB783" points="70.0972222 96 70 95.6319773 134.903153 78 135 78.3680227"></polygon>
                    <polygon id="Fill-44" fill="#DBB783" points="72.0975976 99 72 98.6319773 136.903153 81 137 81.3680227"></polygon>
                    <polygon id="Fill-46" fill="#DBB783" points="72.0975976 102 72 101.631977 136.903153 84 137 84.3680227"></polygon>
                    <polygon id="Fill-48" fill="#DBB783" points="73.0972222 106 73 105.631977 137.903153 88 138 88.3680227"></polygon>
                    <polygon id="Fill-50" fill="#DBB783" points="74.0968474 108 74 107.631977 138.903153 90 139 90.3680227"></polygon>
                    <polygon id="Fill-52" fill="#DBB783" points="74.0968474 111 74 110.63197 138.903153 93 139 93.3680304"></polygon>
                    <polygon id="Fill-54" fill="#DBB783" points="75.0972228 114 75 113.631977 139.903153 96 140 96.3680227"></polygon>
                    <polygon id="Fill-56" fill="#DBB783" points="76.0972222 116 76 115.631977 140.903153 98 141 98.3680227"></polygon>
                    <polygon id="Fill-58" fill="#DBB783" points="77.0972222 119 77 118.631977 141.903153 101 142 101.368023"></polygon>
                    <polygon id="Fill-60" fill="#DBB783" points="77.0975976 123 77 122.631977 141.903153 105 142 105.368023"></polygon>
                    <polygon id="Fill-62" fill="#DBB783" points="78.0975976 125 78 124.631977 142.903153 107 143 107.368023"></polygon>
                    <polygon id="Fill-64" fill="#DBB783" points="79.0972222 128 79 127.631977 143.903153 110 144 110.368023"></polygon>
                    <polygon id="Fill-66" fill="#DBB783" points="80.0972222 131 80 130.63197 144.903153 113 145 113.36803"></polygon>
                    <path d="M81.4986528,127 C80.8217442,127 80.2262147,126.542671 80.051456,125.888167 C79.8369454,125.089341 80.312844,124.265775 81.1120086,124.051731 C81.23989,124.017618 81.3703964,124 81.5009029,124 C82.1781865,124 82.773341,124.457329 82.9488497,125.111833 C83.1626103,125.910659 82.6867117,126.734225 81.8882971,126.948269 C81.7604158,126.982382 81.6299093,127 81.4986528,127" id="Fill-68" fill="#FFFFFF"></path>
                    <path d="M82.0013305,123 C81.8297666,123 81.6558033,123.022393 81.4826398,123.068779 C80.4156647,123.354294 79.7829981,124.450765 80.0685379,125.517245 C80.3084873,126.410577 81.1159171,127 81.998931,127 C82.1700949,127 82.3444581,126.977607 82.5176216,126.931221 C83.5841968,126.645306 84.2172634,125.548835 83.9313236,124.482355 C83.692174,123.589423 82.8843443,123 82.0013305,123 M82.0013305,123.79976 L82.0013305,123.79976 C82.5424164,123.79976 83.018716,124.16565 83.1594863,124.689893 C83.3302503,125.328501 82.9495306,125.987904 82.3100654,126.158652 C82.2080869,126.186244 82.103309,126.20024 81.998931,126.20024 C81.4574451,126.20024 80.9815454,125.83435 80.841175,125.310507 C80.6700111,124.671898 81.0507309,124.012496 81.6893962,123.841348 C81.7925745,123.813756 81.8969525,123.79976 82.0013305,123.79976" id="Fill-70" fill="#1485E0"></path>
                    <path d="M71.4985007,88 C70.8219328,88 70.2270779,87.5426715 70.0520323,86.8881669 C69.9478297,86.501312 70.0014303,86.0972135 70.2012146,85.7504686 C70.4017486,85.4033487 70.7252267,85.1555667 71.1120511,85.0517306 C71.2398681,85.0172435 71.3703089,85 71.5014993,85 C72.1776923,85 72.7725473,85.4573285 72.9479677,86.1118331 C73.0521703,86.498688 72.9985697,86.9027865 72.7987854,87.2499063 C72.5982514,87.5966513 72.2747733,87.8448082 71.8879489,87.9482694 C71.7605067,87.9823816 71.6296911,88 71.4985007,88" id="Fill-72" fill="#FFFFFF"></path>
                    <path d="M71.0017304,84 C70.8301666,84 70.6558033,84.0223933 70.4826398,84.0691792 C69.4156647,84.3542937 68.7829981,85.4507648 69.0685379,86.5176447 C69.3084873,87.4105768 70.1159171,88 70.998931,88 C71.1704948,88 71.3444581,87.9776067 71.5176216,87.9312206 C72.5841968,87.6453064 73.2172634,86.5488353 72.9313236,85.4823553 C72.692174,84.5894232 71.8843443,84 71.0017304,84 M71.0017304,84.7997601 L71.0017304,84.7997601 C71.5424164,84.7997601 72.018716,85.1656503 72.1594863,85.689893 C72.2422689,85.9990003 72.1994779,86.3225032 72.0391117,86.5996201 C71.8787455,86.8771369 71.6204,87.0758772 71.3100654,87.1586524 C71.2080869,87.1862441 71.103309,87.2002399 70.998931,87.2002399 C70.4574451,87.2002399 69.9815454,86.8343497 69.841175,86.3105068 C69.7583925,86.0013996 69.8007836,85.6774968 69.9611497,85.39998 C70.1215159,85.1228631 70.3798615,84.9245226 70.6893962,84.8413476 C70.7925745,84.8137559 70.8969525,84.7997601 71.0017304,84.7997601" id="Fill-74" fill="#1485E0"></path>
                    <path d="M61.4988742,50 C60.8216021,50 60.2260827,49.5422966 60.051327,48.8881669 C59.8371951,48.0889666 60.3127105,47.2657753 61.1118616,47.0517306 C61.2401157,47.0172435 61.370245,47 61.5011242,47 C62.1783963,47 62.7735407,47.4573285 62.9486714,48.1118331 C63.1628033,48.9106585 62.6872879,49.7345995 61.8885119,49.9478945 C61.7606327,49.9827565 61.6297534,50 61.4988742,50" id="Fill-76" fill="#FFFFFF"></path>
                    <path d="M62.0014612,47 C61.8299063,47 61.6555521,47.0223933 61.4827976,47.0691792 C60.4158781,47.3542937 59.7832444,48.4507648 60.0683695,49.5176447 C60.3083064,50.4105768 61.1156941,51 61.9990618,51 C62.1702168,51 62.3441711,50.9776067 62.5177254,50.9312206 C63.5838451,50.6453064 64.2172786,49.5488353 63.9313537,48.4823553 C63.6922166,47.5894232 62.8840291,47 62.0014612,47 M62.0014612,47.7997601 L62.0014612,47.7997601 C62.5425189,47.7997601 63.0183938,48.1656503 63.1591568,48.689893 C63.3299119,49.3285014 62.9496119,49.9879036 62.31018,50.1586524 C62.2082068,50.1862441 62.1030345,50.2002399 61.9990618,50.2002399 C61.4580041,50.2002399 60.9813294,49.8347496 60.8413662,49.3105068 C60.758588,49.0013996 60.8009768,48.6774968 60.9609348,48.39998 C61.1212926,48.1228631 61.3796247,47.9245226 61.6891433,47.8409477 C61.7923162,47.8137559 61.8966887,47.7997601 62.0014612,47.7997601" id="Fill-78" fill="#52370D"></path>
                    <mask id="mask-2" fill="white">
                        <use xlink:href="#path-1"></use>
                    </mask>
                    <g id="Clip-81"></g>
                    <polygon id="Fill-80" fill="#FFFFFF" mask="url(#mask-2)" points="65 129 137 129 137 30 65 30"></polygon>
                    <path d="M65.5051546,128.509225 L135.494845,128.509225 L135.494845,30.4907749 L65.5051546,30.4907749 L65.5051546,128.509225 Z M64,130 L137,130 L137,29 L64,29 L64,130 Z" id="Fill-82" fill="#543C11" mask="url(#mask-2)"></path>
                    <polygon id="Fill-83" fill="#DBB783" mask="url(#mask-2)" points="77 127 78 127 78 33 77 33"></polygon>
                    <polygon id="Fill-84" fill="#DBB783" mask="url(#mask-2)" points="67 40.5 133 40.5 133 40 67 40"></polygon>
                    <polygon id="Fill-85" fill="#DBB783" mask="url(#mask-2)" points="67 43.5 133 43.5 133 43 67 43"></polygon>
                    <polygon id="Fill-86" fill="#DBB783" mask="url(#mask-2)" points="67 46.5 133 46.5 133 46 67 46"></polygon>
                    <polygon id="Fill-87" fill="#DBB783" mask="url(#mask-2)" points="67 48.5 133 48.5 133 48 67 48"></polygon>
                    <polygon id="Fill-88" fill="#DBB783" mask="url(#mask-2)" points="67 51.5 133 51.5 133 51 67 51"></polygon>
                    <polygon id="Fill-89" fill="#DBB783" mask="url(#mask-2)" points="67 54.5 133 54.5 133 54 67 54"></polygon>
                    <polygon id="Fill-90" fill="#DBB783" mask="url(#mask-2)" points="67 58.5 133 58.5 133 58 67 58"></polygon>
                    <polygon id="Fill-91" fill="#DBB783" mask="url(#mask-2)" points="67 61.5 133 61.5 133 61 67 61"></polygon>
                    <polygon id="Fill-92" fill="#DBB783" mask="url(#mask-2)" points="67 64.5 133 64.5 133 64 67 64"></polygon>
                    <polygon id="Fill-93" fill="#DBB783" mask="url(#mask-2)" points="67 66.5 133 66.5 133 66 67 66"></polygon>
                    <polygon id="Fill-94" fill="#DBB783" mask="url(#mask-2)" points="67 69.5 133 69.5 133 69 67 69"></polygon>
                    <polygon id="Fill-95" fill="#DBB783" mask="url(#mask-2)" points="67 73.5 133 73.5 133 73 67 73"></polygon>
                    <polygon id="Fill-96" fill="#DBB783" mask="url(#mask-2)" points="67 76.5 133 76.5 133 76 67 76"></polygon>
                    <polygon id="Fill-97" fill="#DBB783" mask="url(#mask-2)" points="67 79.5 133 79.5 133 79 67 79"></polygon>
                    <polygon id="Fill-98" fill="#DBB783" mask="url(#mask-2)" points="67 81.5 133 81.5 133 81 67 81"></polygon>
                    <polygon id="Fill-99" fill="#DBB783" mask="url(#mask-2)" points="67 84.5 133 84.5 133 84 67 84"></polygon>
                    <polygon id="Fill-100" fill="#DBB783" mask="url(#mask-2)" points="67 88.5 133 88.5 133 88 67 88"></polygon>
                    <polygon id="Fill-101" fill="#DBB783" mask="url(#mask-2)" points="67 91.5 133 91.5 133 91 67 91"></polygon>
                    <polygon id="Fill-102" fill="#DBB783" mask="url(#mask-2)" points="67 94.5 133 94.5 133 94 67 94"></polygon>
                    <polygon id="Fill-103" fill="#DBB783" mask="url(#mask-2)" points="67 96.5 133 96.5 133 96 67 96"></polygon>
                    <polygon id="Fill-104" fill="#DBB783" mask="url(#mask-2)" points="67 99.5 133 99.5 133 99 67 99"></polygon>
                    <polygon id="Fill-105" fill="#DBB783" mask="url(#mask-2)" points="67 103.5 133 103.5 133 103 67 103"></polygon>
                    <polygon id="Fill-106" fill="#DBB783" mask="url(#mask-2)" points="67 105.5 133 105.5 133 105 67 105"></polygon>
                    <polygon id="Fill-107" fill="#DBB783" mask="url(#mask-2)" points="67 108.5 133 108.5 133 108 67 108"></polygon>
                    <polygon id="Fill-108" fill="#DBB783" mask="url(#mask-2)" points="67 111.5 133 111.5 133 111 67 111"></polygon>
                    <polygon id="Fill-109" fill="#DBB783" mask="url(#mask-2)" points="67 114.5 133 114.5 133 114 67 114"></polygon>
                    <polygon id="Fill-110" fill="#DBB783" mask="url(#mask-2)" points="133 116.5 67 116.5 67 116"></polygon>
                    <polygon id="Fill-111" fill="#DBB783" mask="url(#mask-2)" points="67 120.5 133 120.5 133 120 67 120"></polygon>
                    <polygon id="Fill-112" fill="#DBB783" mask="url(#mask-2)" points="67 123.5 133 123.5 133 123 67 123"></polygon>
                    <path d="M70.5,120 C69.673125,120 69,119.32725 69,118.5 C69,117.67275 69.673125,117 70.5,117 C71.327625,117 72,117.67275 72,118.5 C72,119.32725 71.327625,120 70.5,120" id="Fill-113" fill="#FFFFFF" mask="url(#mask-2)"></path>
                    <path d="M70,116 C68.896,116 68,116.8956 68,118 C68,119.1044 68.896,120 70,120 C71.1048,120 72,119.1044 72,118 C72,116.8956 71.1048,116 70,116 M70,116.8 C70.6616,116.8 71.2,117.3384 71.2,118 C71.2,118.6616 70.6616,119.2 70,119.2 C69.3388,119.2 68.8,118.6616 68.8,118 C68.8,117.3384 69.3388,116.8 70,116.8" id="Fill-114" fill="#4D3C10" mask="url(#mask-2)"></path>
                    <path d="M70.5,81 C69.673125,81 69,80.32725 69,79.5 C69,78.67275 69.673125,78 70.5,78 C71.327625,78 72,78.67275 72,79.5 C72,80.32725 71.327625,81 70.5,81" id="Fill-115" fill="#FFFFFF" mask="url(#mask-2)"></path>
                    <path d="M70,77 C68.896,77 68,77.8956 68,79 C68,80.1048 68.896,81 70,81 C71.1048,81 72,80.1048 72,79 C72,77.8956 71.1048,77 70,77 M70,77.8 C70.6616,77.8 71.2,78.3384 71.2,79 C71.2,79.6616 70.6616,80.2 70,80.2 C69.3388,80.2 68.8,79.6616 68.8,79 C68.8,78.3384 69.3388,77.8 70,77.8" id="Fill-116" fill="#52370D" mask="url(#mask-2)"></path>
                    <path d="M70.5,41 C69.673125,41 69,40.32725 69,39.5 C69,38.67275 69.673125,38 70.5,38 C71.327625,38 72,38.67275 72,39.5 C72,40.32725 71.327625,41 70.5,41" id="Fill-117" fill="#FFFFFF" mask="url(#mask-2)"></path>
                    <path d="M70,37 C68.896,37 68,37.8956 68,39 C68,40.1048 68.896,41 70,41 C71.1048,41 72,40.1048 72,39 C72,37.8956 71.1048,37 70,37 M70,37.8 C70.6616,37.8 71.2,38.3384 71.2,39 C71.2,39.6616 70.6616,40.2 70,40.2 C69.3388,40.2 68.8,39.6616 68.8,39 C68.8,38.3384 69.3388,37.8 70,37.8" id="Fill-118" fill="#52370D" mask="url(#mask-2)"></path>
                    <path d="M47.3185147,76 L45.1520491,77.6303548 C44.9822525,77.7580197 44.9487604,77.9904447 45.0815602,78.1537806 L54.2240995,89.4457339 C54.756856,90.1035832 55.6993056,90.1749253 56.377324,89.6646415 L61,86.1857752" id="Fill-119" fill="#FFFFFF" mask="url(#mask-2)"></path>
                    <path d="M56.4080993,89.6822061 C55.5964413,90.2219817 54.5479561,90.0638113 53.9547638,89.2863961 L45.1576803,77.7407245 C45.0336458,77.578715 44.9800599,77.376779 45.0066655,77.1729235 C45.0325216,76.972907 45.1333231,76.7928538 45.2899588,76.6676996 L47.3756875,75 L47.8369761,75.6050402 L45.7519968,77.2727398 L54.545333,88.8138045 C54.9215586,89.3067433 55.5870732,89.3743112 56.0910805,88.9712071 L60.5390862,85.4146764 L61,86.0201005 L56.5523691,89.5766311 C56.5055283,89.6146381 56.4571885,89.6499577 56.4080993,89.6822061" id="Fill-120" fill="#4D3A09" mask="url(#mask-2)"></path>
                    <path d="M56,87.4289734 L86.8209725,127.543021 C86.9456886,127.705757 87.1592787,127.764461 87.318374,127.638507 L87.6314444,127.390317 L88.7524265,128.849739 C88.8771426,129.011732 89.1024362,129.051487 89.2611658,128.925905 L91.8564313,126.868298 C92.0151609,126.742345 92.0488087,126.496383 91.9244583,126.334762 L90.8027448,124.87534 L91.0664407,124.666532 C91.2255361,124.540208 91.2705216,124.27604 91.1461713,124.114419 L60.3241015,84 L56,87.4289734 Z" id="Fill-121" fill="#DBB783" mask="url(#mask-2)"></path>
                    <path d="M85.9937724,124.587387 L87.3515363,126.352023 L89.3832133,124.744891 L88.0243453,122.979882 L88.6044038,122.520435 L58.2588046,83.0953178 L55.0666425,85.6217172 L85.4133458,125.046088 L85.9937724,124.587387 Z M87.8808029,127.821432 C87.4015921,128.137186 86.7707416,128.02447 86.4137259,127.560171 L85.7048473,126.638664 C85.273484,126.792808 84.7755023,126.645755 84.4696466,126.247518 L53,85.3630682 L58.5123962,81 L89.9827789,121.885196 C90.1664395,122.122571 90.2444677,122.437205 90.1969883,122.748479 C90.1738007,122.901504 90.1208004,123.047437 90.0438764,123.176948 L90.7663731,124.115624 C91.1421598,124.603436 91.0556663,125.314441 90.5713027,125.698869 L87.8808029,127.821432 Z" id="Fill-122" fill="#4D3C10" mask="url(#mask-2)"></path>
                    <path d="M56.7050233,88 L45.0787276,72.6033223 C44.9552252,72.4399793 44.9788359,72.2154295 45.1368463,72.0873836 L48.85899,69.0837491 C49.0173636,68.9568297 49.2509284,68.9737272 49.3740675,69.1374458 L61,84.534499" id="Fill-123" fill="#DBB783" mask="url(#mask-2)"></path>
                    <path d="M56.3396733,88 L44.2443057,72.765936 C43.8554369,72.2755213 43.9393328,71.5941421 44.4351499,71.2129561 L48.3079652,68.2407458 C48.8075614,67.8584452 49.5221881,67.9405525 49.9042545,68.4224221 L62,83.6568577 L60.8084517,84.5708123 L48.9492774,69.6343409 L45.6720473,72.1492023 L57.5312216,87.0853023 L56.3396733,88 Z" id="Fill-124" fill="#4D3C10" mask="url(#mask-2)"></path>
                    <polygon id="Fill-125" fill="#4D3C10" mask="url(#mask-2)" points="57.4283349 88 57 87.3416188 60.5716651 84 61 84.658799"></polygon>
                    <polygon id="Fill-126" fill="#4D3A09" mask="url(#mask-2)" points="46.4292683 76 46 75.3416876 49.5710801 72 50 72.6583124"></polygon>
                    <path d="M154.284814,28.3447405 L156.119734,29.6239915 C156.795953,30.0949577 157.280663,30.8260659 156.816737,31.5119974 L118.345023,88.2880795 L112,93 L114.063172,85.3030349 L152.534885,28.5261999 C152.998811,27.8402684 153.608967,27.8741508 154.284814,28.3447405" id="Fill-127" fill="#F0E7B2" mask="url(#mask-2)"></path>
                    <polygon id="Fill-128" fill="#4D3A09" mask="url(#mask-2)" points="150 38.4223205 116.61513 87 116 86.5773064 149.385616 38"></polygon>
                    <polygon id="Fill-129" fill="#4D3A09" mask="url(#mask-2)" points="149 37.4223237 115.61513 86 115 85.5773032 148.385989 37"></polygon>
                    <polygon id="Fill-130" fill="#4D3A09" mask="url(#mask-2)" points="117 86.3235334 116.637964 87 114 84.6760563 114.362356 84"></polygon>
                    <polygon id="Fill-131" fill="#FFFFFF" mask="url(#mask-2)" points="118 86.9530319 112 91 113.663764 84"></polygon>
                    <polygon id="Fill-132" fill="#4D3A09" mask="url(#mask-2)" points="113.015238 89 114 89.6285714 112.984762 91 112 90.371706"></polygon>
                    <path d="M118.075078,87.9443128 L156.463562,31.8020333 C156.509569,31.7345272 156.595276,31.6088392 156.334446,31.3018918 C156.237237,31.1873926 156.107378,31.0728934 155.958226,30.9692101 L154.123507,29.7018866 C153.630415,29.3609997 153.540997,29.4915363 153.405944,29.6892059 L115.01746,85.8318584 L113.544119,91.2785894 L118.075078,87.9443128 Z M157.463475,30.3333106 C158.089394,31.0699097 158.172875,31.9351806 157.686461,32.6467913 L119.155132,88.9986752 L111,95 L113.651345,85.195959 L113.723324,85.0915297 L152.183046,28.844075 C152.849778,27.8691534 153.889019,27.7300387 154.96425,28.4722323 L156.798969,29.7403017 C157.05646,29.9182043 157.280189,30.1177388 157.463475,30.3333106 L157.463475,30.3333106 Z" id="Fill-133" fill="#4D3A09" mask="url(#mask-2)"></path>
                </g>
            </g>
        </g>
    </g>
</svg>