<svg width="100%" height="100%" viewBox="0 0 660 660" fill="none" xmlns="http://www.w3.org/2000/svg">
  <defs>
    <style type="text/css">
      <![CDATA[
        @import url(/_static/css/survey-2021-svg.css);
      ]]>
    </style>
    <linearGradient id="paint0_linear_25_172" x1="330" y1="76.6333" x2="330" y2="583.367" gradientUnits="userSpaceOnUse">
			<stop stop-opacity="0"/>
			<stop offset="1"/>
		</linearGradient>
		<linearGradient id="paint1_linear_25_172" x1="272.4" y1="76.6336" x2="272.4" y2="239.706" gradientUnits="userSpaceOnUse">
			<stop stop-opacity="0"/>
			<stop offset="1"/>
		</linearGradient>
  </defs>
  <title>Basis of employment, combined status (2021)</title>
  <desc>Donut chart showing proportion of employee and contractor respondents, with both unemployed and employed statuses combined (2021)</desc>
	<g class="donut-chart">
		<g class="data">
			<path d="M329.948 76.6333C391.978 76.6207 451.857 99.3637 498.238 140.552C544.619 181.741 574.279 238.513 581.597 300.109C588.915 361.706 573.383 423.847 537.943 474.756C502.504 525.665 449.62 561.805 389.314 576.326C329.008 590.847 265.47 582.741 210.742 553.544C156.013 524.347 113.897 476.088 92.3738 417.912C70.8511 359.735 71.4176 295.685 93.9661 237.899C116.514 180.112 159.478 132.606 214.714 104.381L283.886 239.752C261.791 251.042 244.606 270.045 235.586 293.16C226.567 316.274 226.34 341.894 234.95 365.165C243.559 388.435 260.405 407.739 282.297 419.418C304.188 431.097 329.603 434.339 353.726 428.53C377.848 422.722 399.002 408.266 413.177 387.902C427.353 367.539 433.566 342.682 430.639 318.044C427.712 293.405 415.848 270.696 397.295 254.221C378.743 237.745 354.791 228.648 329.979 228.653L329.948 76.6333Z" fill="#1E73BE"/>
			<path d="M329.948 76.6333C391.978 76.6207 451.857 99.3637 498.238 140.552C544.619 181.741 574.279 238.513 581.597 300.109C588.915 361.706 573.383 423.847 537.943 474.756C502.504 525.665 449.62 561.805 389.314 576.326C329.008 590.847 265.47 582.741 210.742 553.544C156.013 524.347 113.897 476.088 92.3738 417.912C70.8511 359.735 71.4176 295.685 93.9661 237.899C116.514 180.112 159.478 132.606 214.714 104.381L283.886 239.752C261.791 251.042 244.606 270.045 235.586 293.16C226.567 316.274 226.34 341.894 234.95 365.165C243.559 388.435 260.405 407.739 282.297 419.418C304.188 431.097 329.603 434.339 353.726 428.53C377.848 422.722 399.002 408.266 413.177 387.902C427.353 367.539 433.566 342.682 430.639 318.044C427.712 293.405 415.848 270.696 397.295 254.221C378.743 237.745 354.791 228.648 329.979 228.653L329.948 76.6333Z" fill="url(#paint0_linear_25_172)" fill-opacity="0.1"/>
			<path d="M329.948 76.6333C391.978 76.6207 451.857 99.3637 498.238 140.552C544.619 181.741 574.279 238.513 581.597 300.109C588.915 361.706 573.383 423.847 537.943 474.756C502.504 525.665 449.62 561.805 389.314 576.326C329.008 590.847 265.47 582.741 210.742 553.544C156.013 524.347 113.897 476.088 92.3738 417.912C70.8511 359.735 71.4176 295.685 93.9661 237.899C116.514 180.112 159.478 132.606 214.714 104.381L283.886 239.752C261.791 251.042 244.606 270.045 235.586 293.16C226.567 316.274 226.34 341.894 234.95 365.165C243.559 388.435 260.405 407.739 282.297 419.418C304.188 431.097 329.603 434.339 353.726 428.53C377.848 422.722 399.002 408.266 413.177 387.902C427.353 367.539 433.566 342.682 430.639 318.044C427.712 293.405 415.848 270.696 397.295 254.221C378.743 237.745 354.791 228.648 329.979 228.653L329.948 76.6333Z" stroke="white" stroke-width="2"/>
			<path d="M214.94 104.266C250.469 86.1565 289.77 76.689 329.648 76.6336L329.859 228.653C313.908 228.676 298.187 232.463 283.976 239.706L214.94 104.266Z" fill="#FFA600"/>
			<path d="M214.94 104.266C250.469 86.1565 289.77 76.689 329.648 76.6336L329.859 228.653C313.908 228.676 298.187 232.463 283.976 239.706L214.94 104.266Z" fill="url(#paint1_linear_25_172)" fill-opacity="0.1"/>
			<path d="M214.94 104.266C250.469 86.1565 289.77 76.689 329.648 76.6336L329.859 228.653C313.908 228.676 298.187 232.463 283.976 239.706L214.94 104.266Z" stroke="white" stroke-width="2"/>
			<path d="M432.167 633.5C414.682 633.5 393.435 575.433 391.801 570.967L390.167 566.5" stroke="#1E73BE"/>
			<path d="M232.167 17.5C245.905 17.5 262.598 85.9667 263.883 91.2333L265.167 96.5" stroke="#FFA600"/>
		</g>
		<g class="value-labels">
			<text><tspan x="439" y="639">Employees: 887 (92.5%)</tspan></text>
			<text><tspan x="47" y="20">Contractors: 72 (7.5%)</tspan></text>
		</g>
	</g>
</svg>