<svg width="100%" height="100%" viewBox="0 0 660 428" fill="none" xmlns="http://www.w3.org/2000/svg">
  <defs>
    <style type="text/css">
      <![CDATA[
        @import url(/_static/css/survey-2021-svg.css);
      ]]>
    </style>
    <linearGradient id="paint0_linear_25_242" x1="324.299" y1="63.6184" x2="324.299" y2="366.85" gradientUnits="userSpaceOnUse">
			<stop stop-opacity="0"/>
			<stop offset="1"/>
		</linearGradient>
		<linearGradient id="paint1_linear_25_242" x1="289.831" y1="63.6186" x2="289.831" y2="161.202" gradientUnits="userSpaceOnUse">
			<stop stop-opacity="0"/>
			<stop offset="1"/>
		</linearGradient>
  </defs>
  <title>Basis of employment, combined status (2021)</title>
  <desc>Donut chart showing proportion of employee and contractor respondents, with both unemployed and employed statuses combined (2021)</desc>
	<g class="donut-chart">
		<g class="data">
			<path d="M324.268 63.6184C361.387 63.6109 397.219 77.2203 424.974 101.868C452.728 126.515 470.477 160.488 474.856 197.347C479.235 234.207 469.94 271.392 448.733 301.856C427.526 332.321 395.88 353.947 359.793 362.636C323.706 371.326 285.684 366.475 252.935 349.004C220.185 331.532 194.982 302.653 182.103 267.841C169.224 233.028 169.563 194.7 183.056 160.12C196.549 125.541 222.258 97.1124 255.312 80.2228L296.704 161.229C283.483 167.985 273.199 179.357 267.802 193.188C262.405 207.02 262.269 222.351 267.421 236.277C272.572 250.202 282.654 261.753 295.753 268.742C308.853 275.73 324.062 277.671 338.497 274.195C352.932 270.719 365.59 262.069 374.073 249.883C382.556 237.697 386.274 222.823 384.522 208.079C382.77 193.335 375.671 179.746 364.569 169.887C353.467 160.028 339.134 154.585 324.287 154.588L324.268 63.6184Z" fill="#1E73BE"/>
			<path d="M324.268 63.6184C361.387 63.6109 397.219 77.2203 424.974 101.868C452.728 126.515 470.477 160.488 474.856 197.347C479.235 234.207 469.94 271.392 448.733 301.856C427.526 332.321 395.88 353.947 359.793 362.636C323.706 371.326 285.684 366.475 252.935 349.004C220.185 331.532 194.982 302.653 182.103 267.841C169.224 233.028 169.563 194.7 183.056 160.12C196.549 125.541 222.258 97.1124 255.312 80.2228L296.704 161.229C283.483 167.985 273.199 179.357 267.802 193.188C262.405 207.02 262.269 222.351 267.421 236.277C272.572 250.202 282.654 261.753 295.753 268.742C308.853 275.73 324.062 277.671 338.497 274.195C352.932 270.719 365.59 262.069 374.073 249.883C382.556 237.697 386.274 222.823 384.522 208.079C382.77 193.335 375.671 179.746 364.569 169.887C353.467 160.028 339.134 154.585 324.287 154.588L324.268 63.6184Z" fill="url(#paint0_linear_25_242)" fill-opacity="0.1"/>
			<path d="M324.268 63.6184C361.387 63.6109 397.219 77.2203 424.974 101.868C452.728 126.515 470.477 160.488 474.856 197.347C479.235 234.207 469.94 271.392 448.733 301.856C427.526 332.321 395.88 353.947 359.793 362.636C323.706 371.326 285.684 366.475 252.935 349.004C220.185 331.532 194.982 302.653 182.103 267.841C169.224 233.028 169.563 194.7 183.056 160.12C196.549 125.541 222.258 97.1124 255.312 80.2228L296.704 161.229C283.483 167.985 273.199 179.357 267.802 193.188C262.405 207.02 262.269 222.351 267.421 236.277C272.572 250.202 282.654 261.753 295.753 268.742C308.853 275.73 324.062 277.671 338.497 274.195C352.932 270.719 365.59 262.069 374.073 249.883C382.556 237.697 386.274 222.823 384.522 208.079C382.77 193.335 375.671 179.746 364.569 169.887C353.467 160.028 339.134 154.585 324.287 154.588L324.268 63.6184Z" stroke="white" stroke-width="2"/>
			<path d="M255.447 80.1539C276.708 69.3171 300.226 63.6517 324.089 63.6186L324.215 154.588C314.67 154.601 305.263 156.867 296.758 161.202L255.447 80.1539Z" fill="#FFA600"/>
			<path d="M255.447 80.1539C276.708 69.3171 300.226 63.6517 324.089 63.6186L324.215 154.588C314.67 154.601 305.263 156.867 296.758 161.202L255.447 80.1539Z" fill="url(#paint1_linear_25_242)" fill-opacity="0.1"/>
			<path d="M255.447 80.1539C276.708 69.3171 300.226 63.6517 324.089 63.6186L324.215 154.588C314.67 154.601 305.263 156.867 296.758 161.202L255.447 80.1539Z" stroke="white" stroke-width="2"/>
			<path d="M385.436 396.849C374.973 396.849 362.259 362.102 361.281 359.429L360.303 356.756" stroke="#1E73BE"/>
			<path d="M265.755 28.2328C273.976 28.2328 283.966 69.2035 284.734 72.3551L285.503 75.5067" stroke="#FFA600"/>
		</g>
		<g class="value-labels">
			<text><tspan x="400.472" y="396.07">Employees</tspan><tspan x="417.151" y="424.07">92.5%</tspan></text>
			<text><tspan x="175.21" y="24.582">Contractors</tspan><tspan x="199.678" y="52.582">7.5%</tspan></text>
		</g>
	</g>
</svg>