<svg width="100%" height="100%" viewBox="0 0 660 467" fill="none" xmlns="http://www.w3.org/2000/svg">
  <defs>
    <style type="text/css">
      <![CDATA[
        @import url(/_static/css/survey-2021-svg.css);
      ]]>
    </style>
		<radialGradient id="paint0_radial_89_206" cx="0" cy="0" r="1" gradientUnits="userSpaceOnUse" gradientTransform="translate(349 257) scale(150)">
			<stop stop-opacity="0"/>
			<stop offset="1"/>
		</radialGradient>
  </defs>
  <title>Team breakdown (2021)</title>
  <desc>Donut chart showing team breakdown: whether respondents worked solo (16.3%), as part of a team (52.5%), as part of multiple teams (15.5%), as a team leader (15.2%), or some other configuration (0.5%)</desc>
	<g class="donut-chart">
		<g class="data">
			<path d="M348.909 107.179C369.595 107.175 390.058 111.449 409.013 119.734C427.967 128.018 445.003 140.133 459.051 155.318C473.098 170.503 483.852 188.429 490.639 207.97C497.425 227.511 500.096 248.244 498.484 268.867C496.872 289.49 491.012 309.557 481.272 327.806C471.532 346.055 458.123 362.093 441.887 374.911C425.652 387.729 406.94 397.05 386.929 402.289C366.917 407.528 346.039 408.571 325.605 405.353L339.606 316.449C347.779 317.736 356.131 317.319 364.135 315.223C372.14 313.127 379.625 309.399 386.119 304.272C392.613 299.145 397.977 292.73 401.873 285.43C405.769 278.13 408.113 270.104 408.758 261.854C409.402 253.605 408.334 245.312 405.619 237.495C402.905 229.679 398.603 222.509 392.984 216.435C387.365 210.361 380.551 205.515 372.969 202.201C365.387 198.887 357.202 197.177 348.928 197.179L348.909 107.179Z" fill="#1E73BE" stroke="white"/>
			<path d="M325.456 405.329C300.058 401.304 276.121 390.816 255.944 374.873C235.768 358.93 220.028 338.068 210.237 314.29L293.459 280.023C297.375 289.535 303.671 297.88 311.742 304.257C319.813 310.634 329.387 314.829 339.546 316.439L325.456 405.329Z" fill="#7271C9" stroke="white"/>
			<path d="M210.18 314.151C200.896 291.537 197.278 266.997 199.644 242.666C202.009 218.335 210.285 194.951 223.751 174.548L298.865 224.127C293.478 232.288 290.168 241.641 289.221 251.374C288.275 261.106 289.722 270.922 293.436 279.968L210.18 314.151Z" fill="#C066C0" stroke="white"/>
			<path d="M223.834 174.423C237.055 154.437 254.872 137.908 275.793 126.223C296.715 114.537 320.131 108.034 344.082 107.258L346.997 197.211C337.416 197.521 328.05 200.122 319.681 204.797C311.313 209.471 304.186 216.082 298.898 224.077L223.834 174.423Z" fill="#F35DA3" stroke="white"/>
			<path d="M344.232 107.253C345.732 107.206 347.232 107.181 348.732 107.179L348.857 197.179C348.257 197.18 347.657 197.19 347.057 197.209L344.232 107.253Z" fill="#FFA600" stroke="white"/>
			<path d="M539.056 273.645C533.347 273.645 501.474 271.136 500.336 271.047L499.198 270.957" stroke="#1E73BE"/>
			<path d="M229.64 405.022C235.349 405.022 255.182 379.946 255.89 379.05L256.598 378.155" stroke="#7271C9"/>
			<path d="M159.858 240.945C165.567 240.945 197.387 244.054 198.523 244.165L199.66 244.276" stroke="#C066C0"/>
			<path d="M240.793 104.895C246.502 104.895 275.695 124.432 276.251 125.429L276.808 126.426" stroke="#F35DA3"/>
			<path d="M352.766 71.2115C347.057 71.2115 346.555 103.202 346.537 104.343L346.519 105.485" stroke="#FFA600"/>
			<g style="mix-blend-mode:color-burn" opacity="0.5">
				<path fill-rule="evenodd" clip-rule="evenodd" d="M349 407C431.843 407 499 339.843 499 257C499 174.157 431.843 107 349 107C266.157 107 199 174.157 199 257C199 339.843 266.157 407 349 407ZM347.214 318.607C380.746 318.607 407.929 291.424 407.929 257.893C407.929 224.361 380.746 197.179 347.214 197.179C313.683 197.179 286.5 224.361 286.5 257.893C286.5 291.424 313.683 318.607 347.214 318.607Z" fill="url(#paint0_radial_89_206)" fill-opacity="0.25" style="mix-blend-mode:multiply"/>
			</g>
		</g>
		<g class="value-labels">
			<text><tspan x="537.803" y="265.135">Single team</tspan><tspan x="557.647" y="283.135">52.5%</tspan></text>
			<text><tspan x="191.143" y="407.135">Solo</tspan><tspan x="185.518" y="425.135">16.3%</tspan></text>
			<text><tspan x="57.8377" y="234.135">Multiple teams</tspan><tspan x="90.5487" y="252.135">15.5%</tspan></text>
			<text><tspan x="159.483" y="98.1349">Team leader</tspan><tspan x="182.483" y="116.135">15.2%</tspan></text>
			<text><tspan x="358.455" y="64.1349">Other</tspan><tspan x="361.392" y="82.1349">0.5%</tspan></text>
		</g>
	</g>
</svg>