<svg xmlns="http://www.w3.org/2000/svg" xmlns:xlink="http://www.w3.org/1999/xlink" viewBox="0 0 640 447.1606"><defs><style>.cls-1{fill:none;}.cls-10,.cls-2{fill:#fff;}.cls-3{clip-path:url(#clip-path);}.cls-4,.cls-8{fill:#003f5c;}.cls-4,.cls-5{fill-rule:evenodd;}.cls-5,.cls-9{fill:#ffa600;}.cls-6{font-size:28px;}.cls-10,.cls-11,.cls-6,.cls-7{font-family:Georgia;}.cls-7{font-size:20px;}.cls-10{font-size:19.7578px;}.cls-11{font-size:19.802px;}</style><clipPath id="clip-path"><path class="cls-1" d="M263.8114,50.1792c-100.1831-26.7949-203.1588,32.55-230.0028,132.55S66.4177,385.5166,166.6008,412.3115s203.1588-32.55,230.0028-132.55S363.9945,76.9742,263.8114,50.1792Zm-78.42,292.1325a114.9986,114.9986,0,1,1,141.0842-81.3062A114.9627,114.9627,0,0,1,185.3915,342.3117Z"/></clipPath></defs><title>1</title><g id="Layer_2" data-name="Layer 2"><g id="Basis_of_Employment" data-name="Basis of Employment"><g id="background"><rect class="cls-2" width="640" height="440"/></g><g id="Chart"><g class="cls-3"><path class="cls-4" d="M215.6972,230.0773l-158.5458-99.07c54.7151-87.5624,170.0538-114.19,257.6162-59.4753s114.19,170.0537,59.4754,257.6161-170.0538,114.19-257.6162,59.4754C50.0794,347.04,17.9573,274.8923,31.5837,197.6131Z"/><path class="cls-5" d="M215.6972,230.0773,31.5837,197.6131a181.1928,181.1928,0,0,1,25.5677-66.6062Z"/></g></g><g id="Headline"><text id="Headline-2" data-name="Headline" class="cls-6" transform="translate(98.291 60.9528) rotate(-31.9851)">B</text><text class="cls-6" transform="matrix(0.8849, -0.4657, 0.4657, 0.8849, 113.0625, 51.779)">a</text><text class="cls-6" transform="translate(124.8965 45.5598) rotate(-24.3289)">s</text><text class="cls-6" transform="translate(135.4209 40.8366) rotate(-21.6636)">i</text><text class="cls-6" transform="translate(142.4844 37.968) rotate(-19)">s</text><text class="cls-6" transform="translate(153.4385 34.2453) rotate(-16.5224)"> </text><text class="cls-6" transform="translate(159.2744 32.3889) rotate(-13.6581)">o</text><text class="cls-6" transform="matrix(0.9833, -0.1819, 0.1819, 0.9833, 173.3057, 29.0456)">f</text><text class="cls-6" transform="translate(181.832 27.4821) rotate(-8.4058)"> </text><text class="cls-6" transform="translate(187.7715 26.4182) rotate(-5.1544)">E</text><text class="cls-6" transform="translate(204.7002 24.5529) rotate(0.9287)">m</text><text class="cls-6" transform="translate(228.3643 24.9724) rotate(5.6179)">p</text><text class="cls-6" transform="translate(243.5996 26.5612) rotate(8.7438)">l</text><text class="cls-6" transform="translate(250.8955 27.571) rotate(11.7665)">o</text><text class="cls-6" transform="translate(264.8711 30.4763) rotate(15.5545)">y</text><text class="cls-6" transform="matrix(0.936, 0.3519, -0.3519, 0.936, 277.2061, 33.6125)">m</text><text class="cls-6" transform="translate(299.2051 42.0934) rotate(25.6125)">e</text><text class="cls-6" transform="matrix(0.87, 0.4931, -0.4931, 0.87, 310.6787, 47.5056)">n</text><text class="cls-6" transform="matrix(0.839, 0.5441, -0.5441, 0.839, 324.3975, 55.3727)">t</text></g><g id="Legend"><text class="cls-7" transform="translate(488.3427 288.4326)">Contractor,<tspan x="0" y="24">freelance,</tspan><tspan x="0" y="48">self-employed</tspan></text><text class="cls-7" transform="translate(488.3427 251.4326)">Employee</text><rect id="Swatch_1" data-name="Swatch 1" class="cls-8" x="450" y="232.1606" width="24.7508" height="24.7508" transform="translate(706.9114 -217.8394) rotate(90)"/><rect id="Swatch_2" data-name="Swatch 2" class="cls-9" x="450" y="268.4667" width="24.7508" height="24.7508" transform="translate(743.2174 -181.5333) rotate(90)"/></g><g id="Inner_Labels" data-name="Inner Labels"><text class="cls-10" transform="translate(215.7119 82.1389) rotate(0.9288)"> </text><text class="cls-10" transform="translate(220.3808 82.2111) rotate(2.63)"> </text><text class="cls-10" transform="translate(224.2051 90.2014) rotate(5.5726)">9</text><text class="cls-10" transform="translate(234.458 91.1721) rotate(9.7229)">4</text><text class="cls-10" transform="matrix(0.9666, 0.2563, -0.2563, 0.9666, 244.4843, 92.7302)">%</text><text class="cls-10" transform="matrix(0.9467, 0.322, -0.322, 0.9467, 259.289, 96.8308)"> </text><text class="cls-10" transform="translate(263.2177 98.0217) rotate(22.1031)">E</text><text class="cls-10" transform="matrix(0.8846, 0.4663, -0.4663, 0.8846, 274.2285, 102.3146)">m</text><text class="cls-10" transform="translate(288.6543 110.0261) rotate(33.1597)">p</text><text class="cls-10" transform="matrix(0.8057, 0.5923, -0.5923, 0.8057, 297.5556, 115.9152)">l</text><text class="cls-10" transform="matrix(0.7734, 0.6339, -0.6339, 0.7734, 301.6572, 118.8278)">o</text><text class="cls-10" transform="translate(309.3418 125.1149) rotate(43.1323)">y</text><text class="cls-10" transform="matrix(0.6857, 0.7279, -0.7279, 0.6857, 315.9345, 131.2658)">e</text><text class="cls-10" transform="matrix(0.6394, 0.7689, -0.7689, 0.6394, 322.0215, 137.6945)">e</text></g><g id="Outside_Labels" data-name="Outside Labels"><text class="cls-11" transform="translate(19.6876 173.3314) rotate(-70.8366) scale(1.025 1)">6</text><text class="cls-11" transform="matrix(0.4039, -0.9421, 0.9191, 0.394, 23.2872, 162.6732)">%</text><text class="cls-11" transform="translate(29.8936 147.6473) rotate(-63.7157) scale(1.025 1)"> </text><text class="cls-11" transform="translate(32.0177 143.3451) rotate(-62.3226) scale(1.025 1)"> </text><text class="cls-11" transform="translate(34.2608 139.0682) rotate(-60.9236) scale(1.025 1)"> </text><text class="cls-11" transform="translate(36.5948 134.8665) rotate(-59.5349) scale(1.025 1)"> </text><text class="cls-11" transform="translate(39.0284 130.7264) rotate(-58.1508) scale(1.025 1)"> </text><text class="cls-11" transform="translate(41.5723 126.6327) rotate(-56.7657) scale(1.025 1)"> </text><text class="cls-11" transform="matrix(0.5823, -0.8436, 0.823, 0.5681, 44.21, 122.6029)"> </text><text class="cls-11" transform="translate(46.9444 118.64) rotate(-54.0088) scale(1.025 1)"> </text><text class="cls-11" transform="translate(49.7725 114.744) rotate(-52.6363) scale(1.025 1)"> </text><text class="cls-11" transform="translate(52.6944 110.9178) rotate(-51.2669) scale(1.025 1)"> </text><text class="cls-11" transform="matrix(0.6602, -0.7841, 0.7649, 0.6441, 55.7052, 107.162)"> </text><text class="cls-11" transform="matrix(0.6787, -0.7681, 0.7494, 0.6621, 58.8048, 103.4788)"> </text><text class="cls-11" transform="translate(61.9932 99.8695) rotate(-47.1776) scale(1.025 1)"> </text><text class="cls-11" transform="translate(65.2657 96.3353) rotate(-45.8196) scale(1.025 1)"> </text><text class="cls-11" transform="translate(68.6251 92.8787) rotate(-44.4635) scale(1.025 1)"> </text><text class="cls-11" transform="matrix(0.7483, -0.7005, 0.6834, 0.7301, 72.0655, 89.5003)"> </text><text class="cls-11" transform="matrix(0.7646, -0.6827, 0.666, 0.7459, 75.5743, 86.2147)"> </text><text class="cls-11" transform="matrix(0.7804, -0.6645, 0.6483, 0.7614, 79.1612, 83.0101)"> </text><text class="cls-11" transform="matrix(0.7959, -0.6459, 0.6302, 0.7765, 82.8419, 79.8763)"> </text><text class="cls-11" transform="matrix(0.8108, -0.6271, 0.6118, 0.791, 86.5684, 76.8504)"> </text><text class="cls-11" transform="matrix(0.8253, -0.6079, 0.5931, 0.8051, 90.3829, 73.8978)"> </text><text class="cls-11" transform="matrix(0.8393, -0.5883, 0.574, 0.8189, 94.2725, 71.033)"> </text><text class="cls-11" transform="matrix(0.8529, -0.5685, 0.5547, 0.8321, 98.2149, 68.2674)"> </text><text class="cls-11" transform="matrix(0.8659, -0.5486, 0.5352, 0.8447, 102.1973, 65.6117)"> </text><text class="cls-11" transform="translate(106.2774 63.0252) rotate(-31.0114) scale(1.025 1)"> </text><text class="cls-11" transform="translate(110.4073 60.5413) rotate(-29.6716) scale(1.025 1)"> </text><text class="cls-11" transform="matrix(0.9022, -0.4864, 0.4745, 0.8802, 114.6016, 58.1507)"> </text><text class="cls-11" transform="translate(118.8419 55.8636) rotate(-26.991) scale(1.025 1)"> </text><text class="cls-11" transform="translate(123.1075 53.6898) rotate(-25.6613) scale(1.025 1)"> </text><text class="cls-11" transform="translate(127.4688 51.5946) rotate(-24.3186) scale(1.025 1)"> </text><text class="cls-11" transform="translate(131.8516 49.6126) rotate(-22.9838) scale(1.025 1)"> </text><text class="cls-11" transform="translate(136.2872 47.7303) rotate(-21.6465) scale(1.025 1)"> </text><text class="cls-11" transform="translate(140.7608 45.9535) rotate(-20.3124) scale(1.025 1)"> </text><text class="cls-11" transform="matrix(0.9693, -0.3333, 0.3252, 0.9457, 145.2862, 44.2777)"> </text><text class="cls-11" transform="translate(149.8438 42.7098) rotate(-17.6409) scale(1.025 1)"> </text><text class="cls-11" transform="translate(154.4122 41.2552) rotate(-16.3146) scale(1.025 1)"> </text><text class="cls-11" transform="translate(159.047 39.8983) rotate(-14.9801) scale(1.025 1)"> </text><text class="cls-11" transform="matrix(0.996, -0.242, 0.2361, 0.9717, 163.6886, 38.6551)"> </text><text class="cls-11" transform="translate(168.3946 37.5116) rotate(-12.3195) scale(1.025 1)"> </text><text class="cls-11" transform="translate(173.0821 36.4867) rotate(-10.9995) scale(1.025 1)"> </text><text class="cls-11" transform="translate(177.8106 35.5667) rotate(-9.6767) scale(1.025 1)"> </text><text class="cls-11" transform="matrix(1.0141, -0.149, 0.1454, 0.9894, 182.5577, 34.7562)"> </text><text class="cls-11" transform="translate(187.3448 34.0526) rotate(-7.0365) scale(1.025 1)"> </text><text class="cls-11" transform="translate(192.1251 33.4613) rotate(-5.7246) scale(1.025 1)"> </text><text class="cls-11" transform="translate(196.8975 32.9818) rotate(-4.422) scale(1.025 1)"> </text><text class="cls-11" transform="matrix(1.0235, -0.0558, 0.0544, 0.9985, 201.7052, 32.6092)"> </text><text class="cls-11" transform="translate(206.5225 32.346) rotate(-1.8195) scale(1.025 1)"> </text><text class="cls-11" transform="translate(211.3682 32.2079) rotate(-0.9063) scale(1.025 1)"> </text><text class="cls-11" transform="translate(216.1505 32.141) rotate(0.9063) scale(1.025 1)"> </text><text class="cls-11" transform="translate(220.9942 32.2103) rotate(2.0573) scale(1.025 1)"> </text><text class="cls-11" transform="matrix(1.0232, 0.0599, -0.0584, 0.9983, 225.7891, 32.3817)"> </text><text class="cls-11" transform="matrix(1.0216, 0.0832, -0.0811, 0.9967, 230.5977, 32.662)"> </text><text class="cls-11" transform="translate(235.418 33.0536) rotate(5.967) scale(1.025 1)"> </text><text class="cls-11" transform="translate(240.2042 33.5531) rotate(7.2786) scale(1.025 1)"> </text><text class="cls-11" transform="translate(244.9796 34.162) rotate(8.5941) scale(1.025 1)"> </text><text class="cls-11" transform="matrix(1.0097, 0.1766, -0.1722, 0.9851, 249.7569, 34.8836)"> </text><text class="cls-11" transform="translate(254.4805 35.7074) rotate(11.2354) scale(1.025 1)"> </text><text class="cls-11" transform="translate(259.2052 36.6449) rotate(12.5606) scale(1.025 1)"> </text><text class="cls-11" transform="translate(263.9268 37.6966) rotate(13.8943) scale(1.025 1)"> </text><text class="cls-11" transform="matrix(0.989, 0.2691, -0.2625, 0.9649, 268.5909, 38.8495)"> </text><text class="cls-11" transform="translate(273.2462 40.1156) rotate(16.5537) scale(1.025 1)"> </text><text class="cls-11" transform="translate(277.8595 41.4852) rotate(17.8852) scale(1.025 1)"> </text><text class="cls-11" transform="translate(282.4444 42.9642) rotate(19.2193) scale(1.025 1)"> </text><text class="cls-11" transform="translate(286.9991 44.5506) rotate(20.5556) scale(1.025 1)"> </text><text class="cls-11" transform="translate(291.504 46.2391) rotate(21.8896) scale(1.025 1)"> </text><text class="cls-11" transform="translate(295.9757 48.0345) rotate(23.2261) scale(1.025 1)"> </text><text class="cls-11" transform="translate(300.4112 49.9373) rotate(24.5659) scale(1.025 1)"> </text><text class="cls-11" transform="matrix(0.9221, 0.4477, -0.4368, 0.8996, 304.7745, 51.93)"> </text><text class="cls-11" transform="matrix(0.9113, 0.4691, -0.4577, 0.8891, 309.1153, 54.0365)"> </text><text class="cls-11" transform="matrix(0.9001, 0.4903, -0.4783, 0.8782, 313.3966, 56.2401)"> </text><text class="cls-11" transform="translate(317.6202 58.5384) rotate(29.9119) scale(1.025 1)"> </text><text class="cls-11" transform="translate(321.8126 60.9505) rotate(31.2569) scale(1.025 1)"> </text><text class="cls-11" transform="translate(325.9093 63.4354) rotate(32.5896) scale(1.025 1)"> </text><text class="cls-11" transform="matrix(0.8504, 0.5722, -0.5582, 0.8297, 329.9727, 66.0321)"> </text><text class="cls-11" transform="translate(333.9698 68.7201) rotate(35.2741) scale(1.025 1)"> </text><text class="cls-11" transform="translate(337.8966 71.4964) rotate(36.6153) scale(1.025 1)"> </text><text class="cls-11" transform="matrix(0.8081, 0.6306, -0.6152, 0.7884, 341.7833, 74.3846)"> </text><text class="cls-11" transform="matrix(0.7931, 0.6493, -0.6335, 0.7738, 345.5675, 77.3358)"> </text><text class="cls-11" transform="translate(349.3087 80.3968) rotate(40.6587) scale(1.025 1)"> </text><text class="cls-11" transform="translate(352.9425 83.5169) rotate(42.0008) scale(1.025 1)"> </text><text class="cls-11" transform="matrix(0.7453, 0.7037, -0.6865, 0.7271, 356.5294, 86.7454)"> </text><text class="cls-11" transform="translate(360.0352 90.0545) rotate(44.7087) scale(1.025 1)"> </text><text class="cls-11" transform="translate(363.461 93.4437) rotate(46.0651) scale(1.025 1)"> </text><text class="cls-11" transform="matrix(0.6935, 0.7548, -0.7364, 0.6766, 366.8038, 96.9124)"> </text><text class="cls-11" transform="translate(370.0626 100.4579) rotate(48.7845) scale(1.025 1)"> </text><text class="cls-11" transform="translate(373.2345 104.0785) rotate(50.1484) scale(1.025 1)"> </text><text class="cls-11" transform="translate(376.3204 107.7733) rotate(51.5146) scale(1.025 1)"> </text><text class="cls-11" transform="translate(379.3175 111.5404) rotate(52.8841) scale(1.025 1)"> </text><text class="cls-11" transform="translate(382.2227 115.3787) rotate(54.2579) scale(1.025 1)"> </text><text class="cls-11" transform="translate(385.0362 119.2865) rotate(55.6349) scale(1.025 1)"> </text><text class="cls-11" transform="matrix(0.558, 0.8598, -0.8388, 0.5444, 387.7559, 123.2616)"> </text></g></g></g></svg>