<svg xmlns="http://www.w3.org/2000/svg" xmlns:xlink="http://www.w3.org/1999/xlink" viewBox="0 0 640 448.0901"><defs><style>.cls-1{fill:none;}.cls-10,.cls-2{fill:#fff;}.cls-3{clip-path:url(#clip-path);}.cls-4,.cls-8{fill:#003f5c;}.cls-4,.cls-5{fill-rule:evenodd;}.cls-5,.cls-9{fill:#ffa600;}.cls-6{font-size:30.3531px;}.cls-10,.cls-11,.cls-6,.cls-7{font-family:Georgia;}.cls-7{font-size:20px;}.cls-10{font-size:19.7578px;}.cls-11{font-size:19.802px;}</style><clipPath id="clip-path"><path class="cls-1" d="M263.8114,51.1087c-100.1831-26.7949-203.1588,32.55-230.0028,132.55S66.4177,386.4461,166.6008,413.241s203.1588-32.5495,230.0028-132.55S363.9945,77.9037,263.8114,51.1087Zm-78.42,292.1325A114.9986,114.9986,0,1,1,326.4757,261.935,114.9627,114.9627,0,0,1,185.3915,343.2412Z"/></clipPath></defs><title>1</title><g id="Layer_2" data-name="Layer 2"><g id="Basis_of_Employment" data-name="Basis of Employment"><g id="background"><rect class="cls-2" y="0.9295" width="640" height="440"/></g><g id="Chart"><g class="cls-3"><path class="cls-4" d="M215.6972,231.0068l-158.5458-99.07C111.8665,44.374,227.2052,17.746,314.7676,72.4611s114.19,170.0537,59.4754,257.6161-170.0538,114.19-257.6162,59.4754c-66.5474-41.5835-98.6695-113.7308-85.0431-191.01Z"/><path class="cls-5" d="M215.6972,231.0068,31.5837,198.5426a181.1928,181.1928,0,0,1,25.5677-66.6062Z"/></g></g><g id="Headline"><text id="Headline-2" data-name="Headline" class="cls-6" transform="translate(89.9434 67.8872) rotate(-34.607)">B</text><text class="cls-6" transform="translate(105.4658 57.2363) rotate(-30.0402)">a</text><text class="cls-6" transform="translate(118.0088 49.9937) rotate(-26.3322)">s</text><text class="cls-6" transform="translate(129.2119 44.4902) rotate(-23.4528)">i</text><text class="cls-6" transform="translate(136.7471 41.1455) rotate(-20.5733)">s</text><text class="cls-6" transform="translate(148.4736 36.8008) rotate(-17.8983)"> </text><text class="cls-6" transform="translate(154.752 34.625) rotate(-14.7914)">o</text><text class="cls-6" transform="translate(169.8682 30.7114) rotate(-11.3516)">f</text><text class="cls-6" transform="translate(179.0449 28.8843) rotate(-9.1096)"> </text><text class="cls-6" transform="matrix(0.9953, -0.0972, 0.0972, 0.9953, 185.4756, 27.6343)">E</text><text class="cls-6" transform="translate(203.7939 25.4663) rotate(0.9287)">m</text><text class="cls-6" transform="matrix(0.9944, 0.1059, -0.1059, 0.9944, 229.3779, 25.9375)">p</text><text class="cls-6" transform="translate(245.8447 27.7974) rotate(9.4642)">l</text><text class="cls-6" transform="translate(253.7285 28.9785) rotate(12.7412)">o</text><text class="cls-6" transform="translate(268.8086 32.3813) rotate(16.8444)">y</text><text class="cls-6" transform="translate(282.0488 36.0366) rotate(22.301)">m</text><text class="cls-6" transform="translate(305.585 45.938) rotate(27.7143)">e</text><text class="cls-6" transform="translate(317.7969 52.2461) rotate(31.9634)">n</text><text class="cls-6" transform="translate(332.2676 61.3857) rotate(35.6542)">t</text></g><g id="Legend"><text class="cls-7" transform="translate(488.3427 289.3621)">Contractor,<tspan x="0" y="24">freelance,</tspan><tspan x="0" y="48">self-employed</tspan></text><text class="cls-7" transform="translate(488.3427 252.3621)">Employee</text><rect id="Swatch_1" data-name="Swatch 1" class="cls-8" x="450" y="233.0901" width="24.7508" height="24.7508" transform="translate(707.8409 -216.9099) rotate(90)"/><rect id="Swatch_2" data-name="Swatch 2" class="cls-9" x="450" y="269.3962" width="24.7508" height="24.7508" transform="translate(744.1469 -180.6038) rotate(90)"/></g><g id="Inner_Labels" data-name="Inner Labels"><text class="cls-10" transform="translate(215.7119 83.0684) rotate(0.9288)"> </text><text class="cls-10" transform="translate(220.3808 83.1406) rotate(2.63)"> </text><text class="cls-10" transform="translate(224.2051 91.1309) rotate(5.5726)">9</text><text class="cls-10" transform="translate(234.458 92.1016) rotate(9.7229)">4</text><text class="cls-10" transform="matrix(0.9666, 0.2563, -0.2563, 0.9666, 244.4843, 93.6597)">%</text><text class="cls-10" transform="matrix(0.9467, 0.322, -0.322, 0.9467, 259.289, 97.7603)"> </text><text class="cls-10" transform="translate(263.2177 98.9512) rotate(22.1031)">E</text><text class="cls-10" transform="matrix(0.8846, 0.4663, -0.4663, 0.8846, 274.2285, 103.2441)">m</text><text class="cls-10" transform="translate(288.6543 110.9556) rotate(33.1597)">p</text><text class="cls-10" transform="matrix(0.8057, 0.5923, -0.5923, 0.8057, 297.5556, 116.8447)">l</text><text class="cls-10" transform="matrix(0.7734, 0.6339, -0.6339, 0.7734, 301.6572, 119.7573)">o</text><text class="cls-10" transform="translate(309.3418 126.0444) rotate(43.1323)">y</text><text class="cls-10" transform="matrix(0.6857, 0.7279, -0.7279, 0.6857, 315.9345, 132.1953)">e</text><text class="cls-10" transform="matrix(0.6394, 0.7689, -0.7689, 0.6394, 322.0215, 138.624)">e</text></g><g id="Outside_Labels" data-name="Outside Labels"><text class="cls-11" transform="translate(19.6876 174.2609) rotate(-70.8366) scale(1.025 1)">6</text><text class="cls-11" transform="matrix(0.4039, -0.9421, 0.9191, 0.394, 23.2872, 163.6027)">%</text><text class="cls-11" transform="translate(29.8936 148.5768) rotate(-63.7157) scale(1.025 1)"> </text><text class="cls-11" transform="translate(32.0177 144.2746) rotate(-62.3226) scale(1.025 1)"> </text><text class="cls-11" transform="translate(34.2608 139.9977) rotate(-60.9236) scale(1.025 1)"> </text><text class="cls-11" transform="translate(36.5948 135.796) rotate(-59.5349) scale(1.025 1)"> </text><text class="cls-11" transform="translate(39.0284 131.6559) rotate(-58.1508) scale(1.025 1)"> </text><text class="cls-11" transform="translate(41.5723 127.5622) rotate(-56.7657) scale(1.025 1)"> </text><text class="cls-11" transform="matrix(0.5823, -0.8436, 0.823, 0.5681, 44.21, 123.5324)"> </text><text class="cls-11" transform="translate(46.9444 119.5695) rotate(-54.0088) scale(1.025 1)"> </text><text class="cls-11" transform="translate(49.7725 115.6735) rotate(-52.6363) scale(1.025 1)"> </text><text class="cls-11" transform="translate(52.6944 111.8473) rotate(-51.2669) scale(1.025 1)"> </text><text class="cls-11" transform="matrix(0.6602, -0.7841, 0.7649, 0.6441, 55.7052, 108.0915)"> </text><text class="cls-11" transform="matrix(0.6787, -0.7681, 0.7494, 0.6621, 58.8048, 104.4083)"> </text><text class="cls-11" transform="translate(61.9932 100.799) rotate(-47.1776) scale(1.025 1)"> </text><text class="cls-11" transform="translate(65.2657 97.2648) rotate(-45.8196) scale(1.025 1)"> </text><text class="cls-11" transform="translate(68.6251 93.8083) rotate(-44.4635) scale(1.025 1)"> </text><text class="cls-11" transform="matrix(0.7483, -0.7005, 0.6834, 0.7301, 72.0655, 90.4298)"> </text><text class="cls-11" transform="matrix(0.7646, -0.6827, 0.666, 0.7459, 75.5743, 87.1442)"> </text><text class="cls-11" transform="matrix(0.7804, -0.6645, 0.6483, 0.7614, 79.1612, 83.9396)"> </text><text class="cls-11" transform="matrix(0.7959, -0.6459, 0.6302, 0.7765, 82.8419, 80.8058)"> </text><text class="cls-11" transform="matrix(0.8108, -0.6271, 0.6118, 0.791, 86.5684, 77.7799)"> </text><text class="cls-11" transform="matrix(0.8253, -0.6079, 0.5931, 0.8051, 90.3829, 74.8273)"> </text><text class="cls-11" transform="matrix(0.8393, -0.5883, 0.574, 0.8189, 94.2725, 71.9625)"> </text><text class="cls-11" transform="matrix(0.8529, -0.5685, 0.5547, 0.8321, 98.2149, 69.1969)"> </text><text class="cls-11" transform="matrix(0.8659, -0.5486, 0.5352, 0.8447, 102.1973, 66.5412)"> </text><text class="cls-11" transform="translate(106.2774 63.9547) rotate(-31.0114) scale(1.025 1)"> </text><text class="cls-11" transform="translate(110.4073 61.4708) rotate(-29.6716) scale(1.025 1)"> </text><text class="cls-11" transform="matrix(0.9022, -0.4864, 0.4745, 0.8802, 114.6016, 59.0802)"> </text><text class="cls-11" transform="translate(118.8419 56.7931) rotate(-26.991) scale(1.025 1)"> </text><text class="cls-11" transform="translate(123.1075 54.6193) rotate(-25.6613) scale(1.025 1)"> </text><text class="cls-11" transform="translate(127.4688 52.5241) rotate(-24.3186) scale(1.025 1)"> </text><text class="cls-11" transform="translate(131.8516 50.5421) rotate(-22.9838) scale(1.025 1)"> </text><text class="cls-11" transform="translate(136.2872 48.6598) rotate(-21.6465) scale(1.025 1)"> </text><text class="cls-11" transform="translate(140.7608 46.883) rotate(-20.3124) scale(1.025 1)"> </text><text class="cls-11" transform="matrix(0.9693, -0.3333, 0.3252, 0.9457, 145.2862, 45.2072)"> </text><text class="cls-11" transform="translate(149.8438 43.6393) rotate(-17.6409) scale(1.025 1)"> </text><text class="cls-11" transform="translate(154.4122 42.1847) rotate(-16.3146) scale(1.025 1)"> </text><text class="cls-11" transform="translate(159.047 40.8278) rotate(-14.9801) scale(1.025 1)"> </text><text class="cls-11" transform="matrix(0.996, -0.242, 0.2361, 0.9717, 163.6886, 39.5846)"> </text><text class="cls-11" transform="translate(168.3946 38.4411) rotate(-12.3195) scale(1.025 1)"> </text><text class="cls-11" transform="translate(173.0821 37.4162) rotate(-10.9995) scale(1.025 1)"> </text><text class="cls-11" transform="translate(177.8106 36.4962) rotate(-9.6767) scale(1.025 1)"> </text><text class="cls-11" transform="matrix(1.0141, -0.149, 0.1454, 0.9894, 182.5577, 35.6857)"> </text><text class="cls-11" transform="translate(187.3448 34.9821) rotate(-7.0365) scale(1.025 1)"> </text><text class="cls-11" transform="translate(192.1251 34.3908) rotate(-5.7246) scale(1.025 1)"> </text><text class="cls-11" transform="translate(196.8975 33.9113) rotate(-4.422) scale(1.025 1)"> </text><text class="cls-11" transform="matrix(1.0235, -0.0558, 0.0544, 0.9985, 201.7052, 33.5387)"> </text><text class="cls-11" transform="translate(206.5225 33.2755) rotate(-1.8195) scale(1.025 1)"> </text><text class="cls-11" transform="translate(211.3682 33.1374) rotate(-0.9063) scale(1.025 1)"> </text><text class="cls-11" transform="translate(216.1505 33.0705) rotate(0.9063) scale(1.025 1)"> </text><text class="cls-11" transform="translate(220.9942 33.1398) rotate(2.0573) scale(1.025 1)"> </text><text class="cls-11" transform="matrix(1.0232, 0.0599, -0.0584, 0.9983, 225.7891, 33.3112)"> </text><text class="cls-11" transform="matrix(1.0216, 0.0832, -0.0811, 0.9967, 230.5977, 33.5915)"> </text><text class="cls-11" transform="translate(235.418 33.9831) rotate(5.967) scale(1.025 1)"> </text><text class="cls-11" transform="translate(240.2042 34.4826) rotate(7.2786) scale(1.025 1)"> </text><text class="cls-11" transform="translate(244.9796 35.0915) rotate(8.5941) scale(1.025 1)"> </text><text class="cls-11" transform="matrix(1.0097, 0.1766, -0.1722, 0.9851, 249.7569, 35.8131)"> </text><text class="cls-11" transform="translate(254.4805 36.6369) rotate(11.2354) scale(1.025 1)"> </text><text class="cls-11" transform="translate(259.2052 37.5744) rotate(12.5606) scale(1.025 1)"> </text><text class="cls-11" transform="translate(263.9268 38.6261) rotate(13.8943) scale(1.025 1)"> </text><text class="cls-11" transform="matrix(0.989, 0.2691, -0.2625, 0.9649, 268.5909, 39.779)"> </text><text class="cls-11" transform="translate(273.2462 41.0451) rotate(16.5537) scale(1.025 1)"> </text><text class="cls-11" transform="translate(277.8595 42.4147) rotate(17.8852) scale(1.025 1)"> </text><text class="cls-11" transform="translate(282.4444 43.8937) rotate(19.2193) scale(1.025 1)"> </text><text class="cls-11" transform="translate(286.9991 45.4801) rotate(20.5556) scale(1.025 1)"> </text><text class="cls-11" transform="translate(291.504 47.1686) rotate(21.8896) scale(1.025 1)"> </text><text class="cls-11" transform="translate(295.9757 48.964) rotate(23.2261) scale(1.025 1)"> </text><text class="cls-11" transform="translate(300.4112 50.8668) rotate(24.5659) scale(1.025 1)"> </text><text class="cls-11" transform="matrix(0.9221, 0.4477, -0.4368, 0.8996, 304.7745, 52.8595)"> </text><text class="cls-11" transform="matrix(0.9113, 0.4691, -0.4577, 0.8891, 309.1153, 54.966)"> </text><text class="cls-11" transform="matrix(0.9001, 0.4903, -0.4783, 0.8782, 313.3966, 57.1696)"> </text><text class="cls-11" transform="translate(317.6202 59.4679) rotate(29.9119) scale(1.025 1)"> </text><text class="cls-11" transform="translate(321.8126 61.88) rotate(31.2569) scale(1.025 1)"> </text><text class="cls-11" transform="translate(325.9093 64.3649) rotate(32.5896) scale(1.025 1)"> </text><text class="cls-11" transform="matrix(0.8504, 0.5722, -0.5582, 0.8297, 329.9727, 66.9616)"> </text><text class="cls-11" transform="translate(333.9698 69.6496) rotate(35.2741) scale(1.025 1)"> </text><text class="cls-11" transform="translate(337.8966 72.4259) rotate(36.6153) scale(1.025 1)"> </text><text class="cls-11" transform="matrix(0.8081, 0.6306, -0.6152, 0.7884, 341.7833, 75.3141)"> </text><text class="cls-11" transform="matrix(0.7931, 0.6493, -0.6335, 0.7738, 345.5675, 78.2653)"> </text><text class="cls-11" transform="translate(349.3087 81.3263) rotate(40.6587) scale(1.025 1)"> </text><text class="cls-11" transform="translate(352.9425 84.4464) rotate(42.0008) scale(1.025 1)"> </text><text class="cls-11" transform="matrix(0.7453, 0.7037, -0.6865, 0.7271, 356.5294, 87.6749)"> </text><text class="cls-11" transform="translate(360.0352 90.984) rotate(44.7087) scale(1.025 1)"> </text><text class="cls-11" transform="translate(363.461 94.3732) rotate(46.0651) scale(1.025 1)"> </text><text class="cls-11" transform="matrix(0.6935, 0.7548, -0.7364, 0.6766, 366.8038, 97.8419)"> </text><text class="cls-11" transform="translate(370.0626 101.3874) rotate(48.7845) scale(1.025 1)"> </text><text class="cls-11" transform="translate(373.2345 105.008) rotate(50.1484) scale(1.025 1)"> </text><text class="cls-11" transform="translate(376.3204 108.7028) rotate(51.5146) scale(1.025 1)"> </text><text class="cls-11" transform="translate(379.3175 112.4699) rotate(52.8841) scale(1.025 1)"> </text><text class="cls-11" transform="translate(382.2227 116.3083) rotate(54.2579) scale(1.025 1)"> </text><text class="cls-11" transform="translate(385.0362 120.216) rotate(55.6349) scale(1.025 1)"> </text><text class="cls-11" transform="matrix(0.558, 0.8598, -0.8388, 0.5444, 387.7559, 124.1911)"> </text></g></g></g></svg>