<svg xmlns="http://www.w3.org/2000/svg" xmlns:xlink="http://www.w3.org/1999/xlink" viewBox="0 0 640 423.0633"><defs><style>.cls-1{fill:none;}.cls-2,.cls-9{fill:#fff;}.cls-3{clip-path:url(#clip-path);}.cls-4,.cls-7{fill:#003f5c;}.cls-4,.cls-5{fill-rule:evenodd;}.cls-5,.cls-8{fill:#ffa600;}.cls-6,.cls-9{font-size:18px;font-family:Georgia;}</style><clipPath id="clip-path"><path class="cls-1" d="M263.8114,33.2425C163.6283,6.4476,60.6526,65.7921,33.8086,165.7921S66.4177,368.58,166.6008,395.3748s203.1588-32.5495,230.0028-132.55S363.9945,60.0375,263.8114,33.2425Zm-78.42,292.1325a114.9986,114.9986,0,1,1,141.0842-81.3062A114.9627,114.9627,0,0,1,185.3915,325.375Z"/></clipPath></defs><g id="Layer_2" data-name="Layer 2"><g id="Basis_of_Employment" data-name="Basis of Employment"><g id="background"><rect class="cls-2" y="2.7964" width="640" height="420.2669"/></g><g id="Chart"><g class="cls-3"><path class="cls-4" d="M215.6972,213.1406,57.1514,114.07C111.8665,26.5078,227.2052-.12,314.7676,54.5948S428.958,224.6486,374.243,312.211s-170.0538,114.19-257.6162,59.4754c-66.5474-41.5835-98.6695-113.7308-85.0431-191.01Z"/><path class="cls-5" d="M215.6972,213.1406,31.5837,180.6764A181.1928,181.1928,0,0,1,57.1514,114.07Z"/></g></g><g id="Legend"><text class="cls-6" transform="translate(488.3427 271.4959)">Contractor,<tspan x="0" y="20">freelance,</tspan><tspan x="0" y="40">self-employed</tspan></text><text class="cls-6" transform="translate(488.3427 234.4959)">Employee</text><rect id="Swatch_1" data-name="Swatch 1" class="cls-7" x="450" y="215.2239" width="24.7508" height="24.7508" transform="translate(689.9747 -234.7761) rotate(90)"/><rect id="Swatch_2" data-name="Swatch 2" class="cls-8" x="450" y="251.5299" width="24.7508" height="24.7508" transform="translate(726.2807 -198.4701) rotate(90)"/></g><g id="Inner_Labels" data-name="Inner Labels"><text class="cls-9" transform="translate(215.7734 65.2041) rotate(0.9288)"> </text><text class="cls-9" transform="translate(220.0234 65.2676) rotate(2.4147)"> </text><text class="cls-9" transform="translate(223.5146 73.2451) rotate(5.0977)">9</text><text class="cls-9" transform="translate(232.9013 74.0576) rotate(8.89)">4</text><text class="cls-9" transform="matrix(0.9721, 0.2346, -0.2346, 0.9721, 242.0761, 75.3623)">%</text><text class="cls-9" transform="translate(255.6855 78.792) rotate(17.1664)"> </text><text class="cls-9" transform="matrix(0.9385, 0.3453, -0.3453, 0.9385, 259.3066, 79.7915)">E</text><text class="cls-9" transform="matrix(0.9033, 0.4289, -0.4289, 0.9033, 269.4726, 83.3857)">m</text><text class="cls-9" transform="matrix(0.8633, 0.5047, -0.5047, 0.8633, 282.9287, 89.8648)">p</text><text class="cls-9" transform="translate(291.3144 94.8252) rotate(33.2028)">l</text><text class="cls-9" transform="translate(295.2168 97.2983) rotate(35.9764)">o</text><text class="cls-9" transform="matrix(0.7723, 0.6352, -0.6352, 0.7723, 302.54, 102.6055)">y</text><text class="cls-9" transform="matrix(0.7349, 0.6782, -0.6782, 0.7349, 308.9131, 107.8267)">e</text><text class="cls-9" transform="translate(314.8584 113.291) rotate(45.9397)">e</text></g><g id="Outside_Labels" data-name="Outside Labels"><text class="cls-6" transform="translate(19.7071 156.3771) rotate(-70.9829) scale(1.025 1)">6</text><text class="cls-6" transform="matrix(0.3956, -0.9456, 0.9225, 0.3859, 22.9747, 146.652)">%</text><text class="cls-6" transform="translate(28.8468 132.9406) rotate(-64.4972) scale(1.025 1)"> </text><text class="cls-6" transform="translate(30.7403 128.9689) rotate(-63.2175) scale(1.025 1)"> </text><text class="cls-6" transform="translate(32.712 125.0607) rotate(-61.9477) scale(1.025 1)"> </text><text class="cls-6" transform="translate(34.7686 121.2018) rotate(-60.6816) scale(1.025 1)"> </text><text class="cls-6" transform="matrix(0.5215, -0.8824, 0.8609, 0.5088, 36.9151, 117.3756)"> </text><text class="cls-6" transform="translate(39.1466 113.6002) rotate(-58.1508) scale(1.025 1)"> </text><text class="cls-6" transform="translate(41.4581 109.8771) rotate(-56.8911) scale(1.025 1)"> </text><text class="cls-6" transform="translate(43.8507 106.2072) rotate(-55.6353) scale(1.025 1)"> </text><text class="cls-6" transform="translate(46.3331 102.5763) rotate(-54.377) scale(1.025 1)"> </text><text class="cls-6" transform="translate(48.8829 99.0167) rotate(-53.1272) scale(1.025 1)"> </text><text class="cls-6" transform="translate(51.5079 95.5143) rotate(-51.8809) scale(1.025 1)"> </text><text class="cls-6" transform="matrix(0.6502, -0.7924, 0.7731, 0.6343, 54.2218, 92.0548)"> </text><text class="cls-6" transform="matrix(0.6672, -0.7781, 0.7591, 0.651, 57.0108, 88.6554)"> </text><text class="cls-6" transform="matrix(0.6838, -0.7635, 0.7449, 0.6672, 59.8487, 85.3454)"> </text><text class="cls-6" transform="translate(62.7823 82.0685) rotate(-46.9098) scale(1.025 1)"> </text><text class="cls-6" transform="translate(65.7755 78.8683) rotate(-45.6754) scale(1.025 1)"> </text><text class="cls-6" transform="matrix(0.7318, -0.7177, 0.7002, 0.714, 68.837, 75.7321)"> </text><text class="cls-6" transform="translate(71.9815 72.6481) rotate(-43.2051) scale(1.025 1)"> </text><text class="cls-6" transform="matrix(0.762, -0.6856, 0.6689, 0.7434, 75.1671, 69.6559)"> </text><text class="cls-6" transform="translate(78.4288 66.7184) rotate(-40.7496) scale(1.025 1)"> </text><text class="cls-6" transform="matrix(0.7907, -0.6523, 0.6363, 0.7714, 81.7589, 63.8493)"> </text><text class="cls-6" transform="translate(85.1368 61.0622) rotate(-38.2964) scale(1.025 1)"> </text><text class="cls-6" transform="matrix(0.8178, -0.6179, 0.6028, 0.7979, 88.5753, 58.3444)"> </text><text class="cls-6" transform="matrix(0.8308, -0.6003, 0.5857, 0.8106, 92.0772, 55.6984)"> </text><text class="cls-6" transform="translate(95.6368 53.1261) rotate(-34.625) scale(1.025 1)"> </text><text class="cls-6" transform="matrix(0.8557, -0.5643, 0.5506, 0.8348, 99.2393, 50.6374)"> </text><text class="cls-6" transform="matrix(0.8675, -0.546, 0.5327, 0.8463, 102.8995, 48.2223)"> </text><text class="cls-6" transform="translate(106.6153 45.8834) rotate(-30.9634) scale(1.025 1)"> </text><text class="cls-6" transform="translate(110.3858 43.6203) rotate(-29.7409) scale(1.025 1)"> </text><text class="cls-6" transform="matrix(0.9006, -0.4894, 0.4775, 0.8786, 114.1915, 41.445)"> </text><text class="cls-6" transform="matrix(0.9108, -0.4702, 0.4588, 0.8886, 118.0343, 39.3561)"> </text><text class="cls-6" transform="matrix(0.9206, -0.4508, 0.4398, 0.8981, 121.9259, 37.3458)"> </text><text class="cls-6" transform="translate(125.8839 35.4069) rotate(-24.8667) scale(1.025 1)"> </text><text class="cls-6" transform="translate(129.8555 33.5651) rotate(-23.6511) scale(1.025 1)"> </text><text class="cls-6" transform="translate(133.8751 31.8048) rotate(-22.434) scale(1.025 1)"> </text><text class="cls-6" transform="matrix(0.9555, -0.3709, 0.3619, 0.9322, 137.9386, 30.1261)"> </text><text class="cls-6" transform="translate(142.0098 28.5451) rotate(-20.0043) scale(1.025 1)"> </text><text class="cls-6" transform="translate(146.1231 27.046) rotate(-18.7909) scale(1.025 1)"> </text><text class="cls-6" transform="matrix(0.9772, -0.3095, 0.302, 0.9533, 150.2804, 25.632)"> </text><text class="cls-6" transform="translate(154.4757 24.3024) rotate(-16.3581) scale(1.025 1)"> </text><text class="cls-6" transform="translate(158.672 23.069) rotate(-15.1492) scale(1.025 1)"> </text><text class="cls-6" transform="translate(162.9073 21.9225) rotate(-13.9378) scale(1.025 1)"> </text><text class="cls-6" transform="translate(167.1798 20.8615) rotate(-12.7249) scale(1.025 1)"> </text><text class="cls-6" transform="translate(171.4473 19.8966) rotate(-11.5201) scale(1.025 1)"> </text><text class="cls-6" transform="translate(175.7501 19.0197) rotate(-10.3139) scale(1.025 1)"> </text><text class="cls-6" transform="matrix(1.0121, -0.1623, 0.1583, 0.9874, 180.0636, 18.2331)"> </text><text class="cls-6" transform="translate(184.4112 17.5358) rotate(-7.9062) scale(1.025 1)"> </text><text class="cls-6" transform="translate(188.7462 16.9328) rotate(-6.7114) scale(1.025 1)"> </text><text class="cls-6" transform="matrix(1.0203, -0.0985, 0.0961, 0.9954, 193.1124, 16.4186)"> </text><text class="cls-6" transform="translate(197.4854 15.9962) rotate(-4.3226) scale(1.025 1)"> </text><text class="cls-6" transform="translate(201.8468 15.6652) rotate(-3.1409) scale(1.025 1)"> </text><text class="cls-6" transform="matrix(1.0244, -0.035, 0.0342, 0.9994, 206.2305, 15.4245)"> </text><text class="cls-6" transform="translate(210.6192 15.279) rotate(-0.9063) scale(1.025 1)"> </text><text class="cls-6" transform="translate(214.9884 15.193) rotate(0.9063) scale(1.025 1)"> </text><text class="cls-6" transform="translate(219.4063 15.2428) rotate(1.5709) scale(1.025 1)"> </text><text class="cls-6" transform="translate(223.7823 15.3629) rotate(2.7482) scale(1.025 1)"> </text><text class="cls-6" transform="matrix(1.0226, 0.0704, -0.0686, 0.9976, 228.1759, 15.5724)"> </text><text class="cls-6" transform="translate(232.545 15.8727) rotate(5.1232) scale(1.025 1)"> </text><text class="cls-6" transform="translate(236.9298 16.2653) rotate(6.3201) scale(1.025 1)"> </text><text class="cls-6" transform="translate(241.2677 16.7448) rotate(7.5098) scale(1.025 1)"> </text><text class="cls-6" transform="translate(245.6163 17.3175) rotate(8.7097) scale(1.025 1)"> </text><text class="cls-6" transform="matrix(1.0097, 0.1766, -0.1722, 0.9851, 249.9776, 17.985)"> </text><text class="cls-6" transform="translate(254.2882 18.7374) rotate(11.1202) scale(1.025 1)"> </text><text class="cls-6" transform="translate(258.6055 19.5861) rotate(12.3308) scale(1.025 1)"> </text><text class="cls-6" transform="translate(262.8712 20.5172) rotate(13.5338) scale(1.025 1)"> </text><text class="cls-6" transform="matrix(0.9912, 0.2609, -0.2545, 0.9671, 267.1407, 21.5446)"> </text><text class="cls-6" transform="matrix(0.9855, 0.2818, -0.2749, 0.9615, 271.3751, 22.6583)"> </text><text class="cls-6" transform="translate(275.6124 23.8688) rotate(17.1736) scale(1.025 1)"> </text><text class="cls-6" transform="translate(279.7911 25.1598) rotate(18.3847) scale(1.025 1)"> </text><text class="cls-6" transform="translate(283.9688 26.5475) rotate(19.6037) scale(1.025 1)"> </text><text class="cls-6" transform="matrix(0.9581, 0.3642, -0.3554, 0.9347, 288.087, 28.0138)"> </text><text class="cls-6" transform="translate(292.1993 29.5768) rotate(22.0351) scale(1.025 1)"> </text><text class="cls-6" transform="translate(296.2686 31.2228) rotate(23.2532) scale(1.025 1)"> </text><text class="cls-6" transform="translate(300.295 32.9518) rotate(24.4687) scale(1.025 1)"> </text><text class="cls-6" transform="matrix(0.9237, 0.4442, -0.4334, 0.9012, 304.2745, 34.7624)"> </text><text class="cls-6" transform="matrix(0.914, 0.4638, -0.4525, 0.8918, 308.2423, 36.6696)"> </text><text class="cls-6" transform="matrix(0.904, 0.4832, -0.4714, 0.8819, 312.1622, 38.6574)"> </text><text class="cls-6" transform="matrix(0.8935, 0.5023, -0.4901, 0.8717, 316.0313, 40.7252)"> </text><text class="cls-6" transform="translate(319.8487 42.8708) rotate(30.5633) scale(1.025 1)"> </text><text class="cls-6" transform="matrix(0.8713, 0.5398, -0.5267, 0.8501, 323.6153, 45.0944)"> </text><text class="cls-6" transform="matrix(0.8596, 0.5583, -0.5447, 0.8386, 327.3604, 47.4142)"> </text><text class="cls-6" transform="matrix(0.8476, 0.5764, -0.5624, 0.8269, 331.0186, 49.7897)"> </text><text class="cls-6" transform="translate(334.6534 52.2599) rotate(35.4445) scale(1.025 1)"> </text><text class="cls-6" transform="translate(338.2296 54.8048) rotate(36.6688) scale(1.025 1)"> </text><text class="cls-6" transform="translate(341.7481 57.423) rotate(37.8922) scale(1.025 1)"> </text><text class="cls-6" transform="translate(345.2052 60.1129) rotate(39.116) scale(1.025 1)"> </text><text class="cls-6" transform="translate(348.6016 62.8737) rotate(40.3396) scale(1.025 1)"> </text><text class="cls-6" transform="matrix(0.7668, 0.6802, -0.6636, 0.7481, 351.9639, 65.7287)"> </text><text class="cls-6" transform="translate(355.2335 68.6286) rotate(42.7996) scale(1.025 1)"> </text><text class="cls-6" transform="matrix(0.7369, 0.7125, -0.6951, 0.7189, 358.4659, 71.6208)"> </text><text class="cls-6" transform="matrix(0.7214, 0.7281, -0.7104, 0.7038, 361.6046, 74.6544)"> </text></g></g></g></svg>