<svg xmlns="http://www.w3.org/2000/svg" viewBox="0 0 620 460"><defs><style>.cls-1,.cls-11,.cls-13,.cls-15,.cls-17{fill:#fff;}.cls-2{font-size:28px;}.cls-11,.cls-13,.cls-15,.cls-17,.cls-2,.cls-3{font-family:Georgia;}.cls-3{font-size:19.5px;}.cls-10,.cls-4{fill:#003f5c;}.cls-12,.cls-5{fill:#7a5195;}.cls-18,.cls-6{fill:#374c80;}.cls-20,.cls-7{fill:#ff764a;}.cls-8{fill:#bc5090;}.cls-9{fill:#ffa600;}.cls-10,.cls-12,.cls-14,.cls-16,.cls-18,.cls-19,.cls-20{stroke:#fff;stroke-miterlimit:10;stroke-width:2px;}.cls-11{font-size:66.5586px;}.cls-13{font-size:45.0249px;}.cls-14{fill:#b230a5;}.cls-15{font-size:31.3217px;}.cls-16{fill:#ef5675;}.cls-17{font-size:35.2369px;}.cls-19{fill:#fa0;}</style></defs><title>10-2</title><g id="Layer_2" data-name="Layer 2"><g id="Reasons_for_Dissatisfaction" data-name="Reasons for Dissatisfaction"><g id="background"><rect class="cls-1" width="620" height="460"/></g><g id="Headline"><text id="Headline-2" data-name="Headline" class="cls-2" transform="translate(80.7549 90.896) rotate(-43.0615)">R</text><text class="cls-2" transform="translate(94.4733 78.188) rotate(-38.5784)">e</text><text class="cls-2" transform="translate(104.4316 70.1993) rotate(-34.831)">a</text><text class="cls-2" transform="translate(115.3973 62.5787) rotate(-31.2758)">s</text><text class="cls-2" transform="matrix(0.8864, -0.4629, 0.4629, 0.8864, 125.0384, 56.6364)">o</text><text class="cls-2" transform="matrix(0.9187, -0.3949, 0.3949, 0.9187, 137.5877, 50.0133)">n</text><text class="cls-2" transform="translate(152.0498 43.8491) rotate(-19.3382)">s</text><text class="cls-2" transform="translate(162.9707 40.0679) rotate(-16.7561)"> </text><text class="cls-2" transform="translate(168.9913 38.223) rotate(-14.5848)">f</text><text class="cls-2" transform="translate(177.1167 35.9989) rotate(-11.2727)">o</text><text class="cls-2" transform="translate(191.1749 33.2309) rotate(-7.655)">r</text><text class="cls-2" transform="translate(202.0243 31.8126) rotate(-5.1871)"> </text><text class="cls-2" transform="translate(207.9674 31.0162) rotate(-1.4557)">D</text><text class="cls-2" transform="translate(228.1076 30.6928) rotate(2.4386)">i</text><text class="cls-2" transform="translate(235.7457 30.9577) rotate(5.1778)">s</text><text class="cls-2" transform="matrix(0.9891, 0.1472, -0.1472, 0.9891, 247.1155, 31.9683)">s</text><text class="cls-2" transform="matrix(0.978, 0.2085, -0.2085, 0.978, 258.3426, 33.5827)">a</text><text class="cls-2" transform="translate(271.4574 36.423) rotate(15.2869)">t</text><text class="cls-2" transform="translate(280.2952 38.8438) rotate(17.737)">i</text><text class="cls-2" transform="translate(287.5722 41.1069) rotate(20.5172)">s</text><text class="cls-2" transform="translate(298.3286 45.1565) rotate(23.4184)">f</text><text class="cls-2" transform="translate(306.1032 48.4286) rotate(26.5861)">a</text><text class="cls-2" transform="translate(318.0491 54.4046) rotate(30.2431)">c</text><text class="cls-2" transform="translate(328.4619 60.5026) rotate(33.2804)">t</text><text class="cls-2" transform="translate(336.1153 65.5327) rotate(35.7045)">i</text><text class="cls-2" transform="translate(342.2988 69.837) rotate(38.8543)">o</text><text class="cls-2" transform="translate(353.3918 78.6957) rotate(43.1282)">n</text></g><g id="Legend"><text class="cls-3" transform="translate(474.4778 425.6623)">Lack of Respect</text><text class="cls-3" transform="translate(474.2679 388.5346)">Unsupportive</text><text class="cls-3" transform="translate(474.4161 350.407)">Too Much Stress</text><text class="cls-3" transform="translate(473.6018 312.5668)">Workload</text><text class="cls-3" transform="translate(473.6018 262.5668)">Professional <tspan x="0" y="23.4004">Development</tspan></text><text class="cls-3" transform="translate(472.3298 228.8014)">Advancement</text><text class="cls-3" transform="translate(472.3298 191.8014)">Salary too low</text><rect id="Swatch_1" data-name="Swatch 1" class="cls-4" x="435.259" y="172.5294" width="24.7508" height="24.7508" transform="translate(632.5392 -262.7297) rotate(90)"/><rect id="Swatch_2" data-name="Swatch 2" class="cls-5" x="435.259" y="208.8354" width="24.7508" height="24.7508" transform="translate(668.8453 -226.4236) rotate(90)"/><rect id="Swatch_3" data-name="Swatch 3" class="cls-6" x="435.259" y="242.9069" width="24.7508" height="24.7508" transform="translate(702.9167 -192.3521) rotate(90)"/><rect id="Swatch_4" data-name="Swatch 4" class="cls-7" x="435.259" y="292.9784" width="24.7508" height="24.7508" transform="translate(752.9882 -142.2806) rotate(90)"/><rect id="Swatch_5" data-name="Swatch 5" class="cls-8" x="435.4603" y="331.5397" width="24.7508" height="24.7508" transform="translate(791.7508 -103.9206) rotate(90)"/><rect id="Swatch_6" data-name="Swatch 6" class="cls-7" x="435.3122" y="368.9734" width="24.7508" height="24.7508" transform="translate(829.0364 -66.3388) rotate(90)"/><rect id="Swatch_7" data-name="Swatch 7" class="cls-9" x="435.5221" y="406.407" width="24.7508" height="24.7508" transform="translate(866.6799 -29.115) rotate(90)"/></g><g id="Circles"><path class="cls-10" d="M222.3449,200.7354a92.0075,92.0075,0,1,1-92.0084-92.0086A92.0094,92.0094,0,0,1,222.3449,200.7354Z"/><text class="cls-11" transform="translate(67.6129 213.1366)">47%</text><path class="cls-12" d="M388.5318,184.9057a78.3043,78.3043,0,1,1-78.3051-78.3051A78.3059,78.3059,0,0,1,388.5318,184.9057Z"/><text class="cls-13" transform="translate(265.2907 195.0279)">40%</text><path class="cls-14" d="M260.1354,116.347a50.8978,50.8978,0,1,1-50.8961-50.8985A50.8972,50.8972,0,0,1,260.1354,116.347Z"/><text class="cls-15" transform="translate(179.692 127.8915)">26%</text><path class="cls-16" d="M288.6939,277.9814a56.7706,56.7706,0,1,1-56.7688-56.7706A56.77,56.77,0,0,1,288.6939,277.9814Z"/><text class="cls-17" transform="translate(199.1285 286.9668)">29%</text><circle class="cls-18" cx="320.7773" cy="325.4509" r="56.7707" transform="translate(-102.6563 497.2657) rotate(-67.5)"/><text class="cls-17" transform="translate(286.5633 335.5421)">29%</text><path class="cls-19" d="M325.2824,399.357a43.0674,43.0674,0,1,1-43.0754-43.0665A43.0647,43.0647,0,0,1,325.2824,399.357Z"/><text class="cls-15" transform="translate(253.883 407.912)">22%</text><path class="cls-20" d="M198.159,307.3388a43.0674,43.0674,0,1,1-43.0755-43.0665A43.0648,43.0648,0,0,1,198.159,307.3388Z"/><text class="cls-15" transform="translate(124.7993 315.0614)">22%</text></g></g></g></svg>