<svg xmlns="http://www.w3.org/2000/svg" viewBox="0 0 620 400"><defs><style>.cls-1,.cls-10,.cls-12,.cls-14,.cls-16,.cls-19{fill:#fff;}.cls-2{font-size:18px;}.cls-10,.cls-12,.cls-14,.cls-16,.cls-19,.cls-2{font-family:Georgia;}.cls-3,.cls-9{fill:#003f5c;}.cls-11,.cls-4{fill:#7a5195;}.cls-17,.cls-5{fill:#374c80;}.cls-20,.cls-6{fill:#ff764a;}.cls-7{fill:#bc5090;}.cls-8{fill:#ffa600;}.cls-11,.cls-13,.cls-15,.cls-17,.cls-18,.cls-20,.cls-9{stroke:#fff;stroke-miterlimit:10;stroke-width:2px;}.cls-10{font-size:47px;}.cls-12{font-size:40px;}.cls-13{fill:#b230a5;}.cls-14{font-size:26px;}.cls-15{fill:#ef5675;}.cls-16{font-size:29px;}.cls-18{fill:#fa0;}.cls-19{font-size:22px;}</style></defs><g id="Layer_2" data-name="Layer 2"><g id="Reasons_for_Dissatisfaction" data-name="Reasons for Dissatisfaction"><g id="background"><rect class="cls-1" width="620" height="400"/></g><g id="Legend"><text class="cls-2" transform="translate(469.2188 365.7832)">Lack of respect</text><text class="cls-2" transform="translate(469.0089 328.6556)">Unsupportive</text><text class="cls-2" transform="translate(469.1571 290.528)">Too much stress</text><text class="cls-2" transform="translate(468.3428 252.6878)">Workload</text><text class="cls-2" transform="translate(468.3428 202.6878)">Professional <tspan x="0" y="20">development</tspan></text><text class="cls-2" transform="translate(467.0708 168.9224)">Advancement</text><text class="cls-2" transform="translate(467.0708 131.9224)">Salary too low</text><rect id="Swatch_1" data-name="Swatch 1" class="cls-3" x="430" y="112.6504" width="24.7508" height="24.7508" transform="translate(567.4012 -317.3496) rotate(90)"/><rect id="Swatch_2" data-name="Swatch 2" class="cls-4" x="430" y="148.9564" width="24.7508" height="24.7508" transform="translate(603.7072 -281.0436) rotate(90)"/><rect id="Swatch_3" data-name="Swatch 3" class="cls-5" x="430" y="183.0279" width="24.7508" height="24.7508" transform="translate(637.7787 -246.9721) rotate(90)"/><rect id="Swatch_4" data-name="Swatch 4" class="cls-6" x="430" y="233.0994" width="24.7508" height="24.7508" transform="translate(687.8502 -196.9006) rotate(90)"/><rect id="Swatch_5" data-name="Swatch 5" class="cls-7" x="430.2013" y="271.6607" width="24.7508" height="24.7508" transform="translate(726.6128 -158.5406) rotate(90)"/><rect id="Swatch_6" data-name="Swatch 6" class="cls-6" x="430.0531" y="309.0944" width="24.7508" height="24.7508" transform="translate(763.8983 -120.9588) rotate(90)"/><rect id="Swatch_7" data-name="Swatch 7" class="cls-8" x="430.263" y="346.528" width="24.7508" height="24.7508" transform="translate(801.5418 -83.735) rotate(90)"/></g><g id="Circles"><path class="cls-9" d="M218.7906,146.7986A92.0075,92.0075,0,1,1,126.7821,54.79,92.0094,92.0094,0,0,1,218.7906,146.7986Z"/><text class="cls-10" transform="translate(80.6425 159.1998)">47%</text><path class="cls-11" d="M384.9774,130.9689a78.3042,78.3042,0,1,1-78.3051-78.3052A78.3059,78.3059,0,0,1,384.9774,130.9689Z"/><text class="cls-12" transform="translate(269.8057 141.0911)">40%</text><path class="cls-13" d="M256.581,62.41a50.8977,50.8977,0,1,1-50.896-50.8985A50.8972,50.8972,0,0,1,256.581,62.41Z"/><text class="cls-14" transform="translate(180.286 69.9547)">26%</text><path class="cls-15" d="M285.14,224.0446a56.7706,56.7706,0,1,1-56.7687-56.7706A56.77,56.77,0,0,1,285.14,224.0446Z"/><text class="cls-16" transform="translate(201.6083 231.03)">29%</text><circle class="cls-17" cx="317.223" cy="271.514" r="56.7707" transform="translate(-55.0193 460.6858) rotate(-67.5)"/><text class="cls-16" transform="translate(289.0431 277.6053)">29%</text><path class="cls-18" d="M321.728,345.42a43.0673,43.0673,0,1,1-43.0754-43.0665A43.0647,43.0647,0,0,1,321.728,345.42Z"/><text class="cls-19" transform="translate(259.2476 353.9752)">22%</text><path class="cls-20" d="M194.6046,253.402a43.0673,43.0673,0,1,1-43.0754-43.0665A43.0647,43.0647,0,0,1,194.6046,253.402Z"/><text class="cls-19" transform="translate(131.1639 260.1246)">22%</text></g></g></g></svg>