<svg xmlns="http://www.w3.org/2000/svg" xmlns:xlink="http://www.w3.org/1999/xlink" viewBox="0 0 648.959 540"><defs><style>.cls-1,.cls-18{fill:none;}.cls-19,.cls-2{fill:#fff;}.cls-3{clip-path:url(#clip-path);}.cls-11,.cls-17,.cls-20,.cls-4{fill:#003f5c;}.cls-4,.cls-5,.cls-6,.cls-7,.cls-8{fill-rule:evenodd;}.cls-12,.cls-5{fill:#7a5195;}.cls-13,.cls-6{fill:#ef5675;}.cls-14,.cls-7{fill:#ff764a;}.cls-15,.cls-8{fill:#ffa600;}.cls-9{font-size:28px;}.cls-10,.cls-16,.cls-19,.cls-20,.cls-9{font-family:Georgia;}.cls-10,.cls-19,.cls-20{font-size:20px;}.cls-16{font-size:16px;}.cls-17,.cls-18{stroke:#003f5c;stroke-miterlimit:10;}.cls-17{stroke-width:2px;}.cls-18{stroke-linecap:round;stroke-width:4px;}</style><clipPath id="clip-path"><path class="cls-1" d="M199.3048,56.7319C93.4807,73.4928,21.2807,172.8675,38.0416,278.6917s116.1357,178.0241,221.96,161.2632,178.0242-116.1356,161.2633-221.96S305.129,39.971,199.3048,56.7319Zm48.964,309.1464A119,119,0,1,1,347.188,229.7277,119,119,0,0,1,248.2688,365.8783Z"/></clipPath></defs><title>10</title><g id="Layer_2" data-name="Layer 2"><g id="Satisfaction"><g id="background"><rect class="cls-2" x="8.959" width="640" height="540"/></g><g id="Chart"><g class="cls-3"><path class="cls-4" d="M229.6563,248.3429l96.2883,160.2506c-88.504,53.1786-203.36,24.5417-256.539-63.9623-2.1271-3.54-2.8807-4.8722-4.82-8.5188Z"/><path class="cls-5" d="M229.6563,248.3429l-165.07,87.77c-48.4737-91.1659-13.8649-204.3661,77.3009-252.84,65.6394-34.901,140.9095-28.9772,200.281,15.7625Z"/><path class="cls-6" d="M229.6563,248.3429,342.1678,99.035c51.1255,38.5258,77.5363,95.164,74.186,159.0923Z"/><path class="cls-7" d="M229.6563,248.3429l186.6975,9.7844c-2.918,55.68-25.7132,100.4176-69.0437,135.5059Z"/><path class="cls-8" d="M229.6563,248.3429,347.31,393.6332a197,197,0,0,1-21.3655,14.96Z"/></g></g><g id="Headline"><text id="Headline-2" data-name="Headline" class="cls-9" transform="matrix(0.9614, -0.2752, 0.2752, 0.9614, 161.0224, 37.496)">S</text><text class="cls-9" transform="translate(175.3314 33.3994) rotate(-12.3043)">a</text><text class="cls-9" transform="translate(188.4892 30.5703) rotate(-9.3849)">t</text><text class="cls-9" transform="translate(197.5445 29.0786) rotate(-7.1984)">i</text><text class="cls-9" transform="matrix(0.9966, -0.0823, 0.0823, 0.9966, 205.1376, 28.0658)">s</text><text class="cls-9" transform="matrix(0.9993, -0.0378, 0.0378, 0.9993, 216.5991, 27.1383)">f</text><text class="cls-9" transform="translate(225.0311 26.7154) rotate(0.8396)">a</text><text class="cls-9" transform="matrix(0.9977, 0.0673, -0.0673, 0.9977, 238.4689, 26.8873)">c</text><text class="cls-9" transform="matrix(0.9934, 0.1146, -0.1146, 0.9934, 250.5347, 27.723)">t</text><text class="cls-9" transform="translate(259.6633 28.7801) rotate(8.7668)">i</text><text class="cls-9" transform="translate(267.1415 29.8294) rotate(11.6212)">o</text><text class="cls-9" transform="matrix(0.9636, 0.2675, -0.2675, 0.9636, 281.0922, 32.6436)">n</text></g><g id="Legend"><text class="cls-10" transform="translate(497.9148 406.0416)">very unsatisfied</text><text class="cls-10" transform="translate(497.7178 372.2698)">unsatisfied</text><text class="cls-10" transform="translate(497.7178 338.2698)">neutral</text><text class="cls-10" transform="translate(496.4458 304.5044)">satisfied</text><text class="cls-10" transform="translate(496.4458 267.5044)">very satisfied</text><rect id="Swatch_1" data-name="Swatch 1" class="cls-11" x="459.375" y="248.2324" width="24.7508" height="24.7508" transform="translate(732.3582 -211.1426) rotate(90)"/><rect id="Swatch_2" data-name="Swatch 2" class="cls-12" x="459.375" y="284.5385" width="24.7508" height="24.7508" transform="translate(768.6642 -174.8365) rotate(90)"/><rect id="Swatch_3" data-name="Swatch 3" class="cls-13" x="459.375" y="318.61" width="24.7508" height="24.7508" transform="translate(802.7357 -140.765) rotate(90)"/><rect id="Swatch_4" data-name="Swatch 4" class="cls-14" x="459.375" y="352.6814" width="24.7508" height="24.7508" transform="translate(836.8072 -106.6936) rotate(90)"/><rect id="Swatch_5" data-name="Swatch 5" class="cls-15" x="458.959" y="387.1744" width="24.7508" height="24.7508" transform="translate(870.8842 -71.7846) rotate(90)"/></g><g id="Call_Outs" data-name="Call Outs"><text class="cls-16" transform="translate(30.446 504.6987)">71% overall <tspan x="1.043" y="19.2002">are satisfied</tspan></text><path class="cls-17" d="M78.744,477.2967a2.42,2.42,0,1,0,3.6547,3.1726,2.3854,2.3854,0,0,0,.1135-2.9534l42.5324-48.9952-.86-.7465L81.6522,476.7694A2.3855,2.3855,0,0,0,78.744,477.2967Z"/><path id="Master_Segmented_Path" data-name="Master Segmented Path" class="cls-1" d="M429.6761,234.953a207.94,207.94,0,0,0-4.2057-41.72,205.8795,205.8795,0,0,0-31.1486-74.0221A207.6153,207.6153,0,0,0,303.2428,44.21a205.4329,205.4329,0,0,0-38.8581-12.0622,209.027,209.027,0,0,0-83.44,0,205.8769,205.8769,0,0,0-74.0221,31.1485,207.6153,207.6153,0,0,0-75.0014,91.079A205.4338,205.4338,0,0,0,19.8589,193.233a209.027,209.027,0,0,0,0,83.44,205.8775,205.8775,0,0,0,31.1485,74.022,207.6153,207.6153,0,0,0,91.079,75.0014,205.4413,205.4413,0,0,0,38.8582,12.0623,209.0318,209.0318,0,0,0,83.44,0,205.88,205.88,0,0,0,74.022-31.1486,207.6153,207.6153,0,0,0,75.0014-91.079A205.44,205.44,0,0,0,425.47,276.6731,207.9409,207.9409,0,0,0,429.6761,234.953Z"/><path id="Path_1" data-name="Path 1" class="cls-18" d="M342.5727,74.3887a209.0274,209.0274,0,0,0-77.898-29.9023,205.8789,205.8789,0,0,0-80.2682,2.5526A207.6148,207.6148,0,0,0,81.7469,105.19,205.4392,205.4392,0,0,0,56.56,137.1449,209.027,209.027,0,0,0,26.658,215.043a205.8791,205.8791,0,0,0,2.5526,80.2682,207.6148,207.6148,0,0,0,58.1514,102.66,205.4511,205.4511,0,0,0,31.9545,25.1866,209.0295,209.0295,0,0,0,77.898,29.9022,205.8763,205.8763,0,0,0,80.2682-2.5525,208.0342,208.0342,0,0,0,37.6611-12.62"/></g><g id="Inner_Labels" data-name="Inner Labels"><text class="cls-19" transform="translate(79.9383 201.4142) rotate(106.4997)"> </text><text class="cls-19" transform="matrix(-0.2531, 0.9674, -0.9674, -0.2531, 78.5232, 206.2013)"> </text><text class="cls-19" transform="translate(77.2639 211.0216) rotate(102.8304)"> </text><text class="cls-19" transform="translate(76.1624 215.8707) rotate(101.0037)"> </text><text class="cls-19" transform="translate(75.2107 220.7775) rotate(99.1714)"> </text><text class="cls-19" transform="translate(74.4226 225.6759) rotate(97.3572)"> </text><text class="cls-19" transform="matrix(-0.0965, 0.9953, -0.9953, -0.0965, 73.7859, 230.6242)"> </text><text class="cls-19" transform="translate(73.3098 235.5568) rotate(93.7397)"> </text><text class="cls-19" transform="translate(72.9871 240.5333) rotate(91.9384)"> </text><text class="cls-19" transform="translate(72.8553 245.36) rotate(90.9286)"> </text><text class="cls-19" transform="matrix(0.0283, 0.9996, -0.9996, 0.0283, 72.8098, 250.4508)"> </text><text class="cls-19" transform="translate(72.9524 255.4118) rotate(86.5885)"> </text><text class="cls-19" transform="translate(73.2493 260.3639) rotate(84.789)"> </text><text class="cls-19" transform="translate(73.7058 265.3356) rotate(82.97)"> </text><text class="cls-19" transform="translate(74.3157 270.2653) rotate(81.1552)"> </text><text class="cls-19" transform="translate(75.0828 275.1764) rotate(79.3333)"> </text><text class="cls-19" transform="translate(76.013 280.0983) rotate(77.4939)"> </text><text class="cls-19" transform="translate(77.0872 284.9352) rotate(75.6714)"> </text><text class="cls-19" transform="translate(78.3264 289.7741) rotate(73.8336)"> </text><text class="cls-19" transform="matrix(0.309, 0.9511, -0.9511, 0.309, 79.7146, 294.5534)"> </text><text class="cls-19" transform="translate(81.2581 299.2965) rotate(70.1655)"> </text><text class="cls-19" transform="translate(82.9475 303.9733) rotate(68.3365)"> </text><text class="cls-19" transform="matrix(0.3985, 0.9172, -0.9172, 0.3985, 84.7796, 308.5807)"> </text><text class="cls-19" transform="translate(86.7649 313.1422) rotate(64.6875)"> </text><text class="cls-19" transform="translate(88.9016 317.6539) rotate(62.8568)"> </text><text class="cls-19" transform="matrix(0.4843, 0.8749, -0.8749, 0.4843, 91.177, 322.0875)"> </text><text class="cls-19" transform="matrix(0.5118, 0.8591, -0.8591, 0.5118, 93.5877, 326.4362)"> </text><text class="cls-19" transform="matrix(0.5388, 0.8425, -0.8425, 0.5388, 96.1306, 330.6998)"> </text><text class="cls-19" transform="translate(98.8196 334.901) rotate(55.5808)"> </text><text class="cls-19" transform="matrix(0.5911, 0.8066, -0.8066, 0.5911, 101.638, 339.0094)"> </text><text class="cls-19" transform="matrix(0.6163, 0.7875, -0.7875, 0.6163, 104.5818, 343.0221)"> </text><text class="cls-19" transform="translate(107.6482 346.9371) rotate(50.1471)"> </text><text class="cls-19" transform="translate(110.8352 350.7516) rotate(48.3409)"> </text><text class="cls-19" transform="matrix(0.7039, 0.7103, -0.7103, 0.7039, 114.2908, 354.7467)">2</text><text class="cls-19" transform="matrix(0.7559, 0.6547, -0.6547, 0.7559, 122.7566, 363.2487)">6</text><text class="cls-19" transform="translate(131.9881 371.3405) rotate(35.5149)">%</text><text class="cls-19" transform="translate(146.011 381.0631) rotate(31.3915)"> </text><text class="cls-19" transform="translate(150.4251 383.82) rotate(28.5557)">v</text><text class="cls-19" transform="translate(159.7132 388.8463) rotate(24.7336)">e</text><text class="cls-19" transform="matrix(0.932, 0.3624, -0.3624, 0.932, 169.0213, 393.0895)">r</text><text class="cls-19" transform="translate(177.1785 396.2702) rotate(17.7213)">y</text><text class="cls-19" transform="matrix(0.9665, 0.2567, -0.2567, 0.9665, 186.9558, 399.318)"> </text><text class="cls-19" transform="translate(191.9173 400.6725) rotate(12.2816)">s</text><text class="cls-19" transform="translate(200.9441 402.6422) rotate(8.6315)">a</text><text class="cls-19" transform="translate(211.4231 404.1725) rotate(5.3469)">t</text><text class="cls-19" transform="translate(218.5667 404.8239) rotate(2.9355)">i</text><text class="cls-19" transform="translate(224.6995 405.111) rotate(0.9289)">s</text><text class="cls-19" transform="translate(233.8123 405.1618) rotate(-2.6639)">f</text><text class="cls-19" transform="translate(240.5672 404.8356) rotate(-4.9959)">i</text><text class="cls-19" transform="translate(246.8562 404.3239) rotate(-7.9887)">e</text><text class="cls-19" transform="translate(257.1355 402.8893) rotate(-12.1254)">d</text><text class="cls-19" transform="matrix(0.9646, -0.2638, 0.2638, 0.9646, 268.8025, 400.275)"> </text><text class="cls-19" transform="matrix(0.9557, -0.2944, 0.2944, 0.9557, 273.5818, 398.9645)"> </text><text class="cls-19" transform="matrix(0.9457, -0.3249, 0.3249, 0.9457, 278.3572, 397.4918)"> </text><text class="cls-19" transform="translate(283.0652 395.8707) rotate(-20.7936)"> </text><text class="cls-19" transform="translate(287.7068 394.1061) rotate(-22.6194)"> </text><text class="cls-19" transform="translate(292.3035 392.1881) rotate(-24.4493)"> </text><text class="cls-19" transform="translate(296.8523 390.1178) rotate(-26.2828)"> </text><text class="cls-19" transform="matrix(0.8821, -0.471, 0.471, 0.8821, 301.2967, 387.9186)"> </text><text class="cls-19" transform="translate(305.6844 385.5739) rotate(-29.9209)"> </text><text class="cls-19" transform="matrix(0.8505, -0.526, 0.526, 0.8505, 309.99, 383.0924)"> </text><text class="cls-19" transform="matrix(0.8333, -0.5528, 0.5528, 0.8333, 314.2332, 380.4664)"> </text><text class="cls-19" transform="translate(318.3855 377.7086) rotate(-35.3751)"> </text><text class="cls-19" transform="matrix(0.7968, -0.6043, 0.6043, 0.7968, 322.4207, 374.8414)"> </text><text class="cls-19" transform="translate(326.4051 371.8151) rotate(-38.9967)"> </text><text class="cls-19" transform="matrix(0.7569, -0.6535, 0.6535, 0.7569, 330.2693, 368.6852)"> </text><text class="cls-19" transform="matrix(0.736, -0.677, 0.677, 0.736, 334.0281, 365.4352)"> </text><text class="cls-19" transform="translate(337.6824 362.07) rotate(-44.413)"> </text><text class="cls-19" transform="matrix(0.6919, -0.722, 0.722, 0.6919, 341.2303, 358.5924)"> </text><text class="cls-19" transform="matrix(0.6689, -0.7434, 0.7434, 0.6689, 344.6658, 355.0036)"> </text><text class="cls-19" transform="translate(347.989 351.3073) rotate(-49.8266)"> </text><text class="cls-19" transform="translate(351.4588 347.3131) rotate(-52.9201)">1</text><text class="cls-19" transform="matrix(0.5402, -0.8415, 0.8415, 0.5402, 358.6922, 337.695)">1</text><text class="cls-19" transform="translate(364.9558 327.7575) rotate(-60.523)">.</text><text class="cls-19" transform="matrix(0.4423, -0.8969, 0.8969, 0.4423, 367.908, 322.6745)">5</text><text class="cls-19" transform="matrix(0.3552, -0.9348, 0.9348, 0.3552, 373.4109, 311.6793)">%</text><text class="cls-19" transform="translate(110.3426 333.9928) rotate(-124.7843)"> </text><text class="cls-19" transform="matrix(-0.5448, -0.8386, 0.8386, -0.5448, 107.7381, 330.2506)"> </text><text class="cls-19" transform="matrix(-0.5185, -0.8551, 0.8551, -0.5185, 105.2483, 326.4254)"> </text><text class="cls-19" transform="translate(102.8753 322.5192) rotate(-119.4446)"> </text><text class="cls-19" transform="translate(100.6345 318.5582) rotate(-117.6653)"> </text><text class="cls-19" transform="translate(98.5139 314.5231) rotate(-115.8798)"> </text><text class="cls-19" transform="matrix(-0.4081, -0.9129, 0.9129, -0.4081, 96.5159, 310.4147)"> </text><text class="cls-19" transform="matrix(-0.3795, -0.9252, 0.9252, -0.3795, 94.6546, 306.2594)"> </text><text class="cls-19" transform="matrix(-0.3503, -0.9366, 0.9366, -0.3503, 92.9182, 302.0387)"> </text><text class="cls-19" transform="translate(91.3113 297.7506) rotate(-108.7069)"> </text><text class="cls-19" transform="translate(89.843 293.4284) rotate(-106.9109)"> </text><text class="cls-19" transform="matrix(-0.2608, -0.9654, 0.9654, -0.2608, 88.5139, 289.0729)"> </text><text class="cls-19" transform="matrix(-0.2304, -0.9731, 0.9731, -0.2304, 87.3177, 284.6618)"> </text><text class="cls-19" transform="translate(86.263 280.2213) rotate(-101.5308)"> </text><text class="cls-19" transform="translate(85.3479 275.7584) rotate(-99.7454)"> </text><text class="cls-19" transform="matrix(-0.1386, -0.9903, 0.9903, -0.1386, 84.5735, 271.2731)"> </text><text class="cls-19" transform="matrix(-0.1077, -0.9942, 0.9942, -0.1077, 83.9353, 266.7428)"> </text><text class="cls-19" transform="translate(83.4387 262.1979) rotate(-94.4075)"> </text><text class="cls-19" transform="matrix(-0.0463, -0.9989, 0.9989, -0.0463, 83.0862, 257.6676)"> </text><text class="cls-19" transform="translate(82.8714 253.0954) rotate(-90.9286)"> </text><text class="cls-19" transform="matrix(0.0162, -0.9999, 0.9999, 0.0162, 82.7913, 248.5372)"> </text><text class="cls-19" transform="translate(82.8587 243.9562) rotate(-87.3926)"> </text><text class="cls-19" transform="matrix(0.0763, -0.9971, 0.9971, 0.0763, 83.0633, 239.3873)"> </text><text class="cls-19" transform="matrix(0.1069, -0.9943, 0.9943, 0.1069, 83.4051, 234.8556)"> </text><text class="cls-19" transform="matrix(0.1378, -0.9905, 0.9905, 0.1378, 83.8909, 230.3048)"> </text><text class="cls-19" transform="translate(84.5139 225.7965) rotate(-80.2993)"> </text><text class="cls-19" transform="translate(85.282 221.2765) rotate(-78.5026)"> </text><text class="cls-19" transform="translate(86.1819 216.8322) rotate(-76.7218)"> </text><text class="cls-19" transform="matrix(0.2601, -0.9656, 0.9656, 0.2601, 87.2283, 212.3805)"> </text><text class="cls-19" transform="translate(88.4085 207.9826) rotate(-73.1336)"> </text><text class="cls-19" transform="translate(89.7298 203.6124) rotate(-71.3375)"> </text><text class="cls-19" transform="translate(91.1907 199.2731) rotate(-69.537)"> </text><text class="cls-19" transform="matrix(0.3786, -0.9256, 0.9256, 0.3786, 92.7732, 195.0211)"> </text><text class="cls-19" transform="translate(94.5037 190.7799) rotate(-65.9558)"> </text><text class="cls-19" transform="matrix(0.4358, -0.9, 0.9, 0.4358, 96.3611, 186.6056)"> </text><text class="cls-19" transform="translate(98.3445 182.5001) rotate(-62.3784)"> </text><text class="cls-19" transform="translate(100.4505 178.4664) rotate(-60.5989)"> </text><text class="cls-19" transform="translate(102.6912 174.4821) rotate(-58.8138)"> </text><text class="cls-19" transform="translate(104.8831 170.6784) rotate(-55.8499)">4</text><text class="cls-19" transform="translate(110.847 161.8483) rotate(-51.709)">5</text><text class="cls-19" transform="translate(117.2561 153.4962) rotate(-46.6439)">%</text><text class="cls-19" transform="matrix(0.7342, -0.6789, 0.6789, 0.7342, 128.2185, 142.1437)"> </text><text class="cls-19" transform="translate(131.3914 139.0827) rotate(-39.8099)">S</text><text class="cls-19" transform="translate(139.5623 132.2721) rotate(-35.9009)">a</text><text class="cls-19" transform="translate(147.3767 126.6525) rotate(-32.7722)">t</text><text class="cls-19" transform="matrix(0.8623, -0.5063, 0.5063, 0.8623, 152.8904, 123.1071)">i</text><text class="cls-19" transform="matrix(0.8851, -0.4653, 0.4653, 0.8851, 157.6018, 120.2931)">s</text><text class="cls-19" transform="translate(164.8836 116.483) rotate(-24.9301)">f</text><text class="cls-19" transform="translate(170.49 113.8771) rotate(-22.6299)">i</text><text class="cls-19" transform="translate(175.4861 111.7311) rotate(-19.7458)">e</text><text class="cls-19" transform="matrix(0.9622, -0.2725, 0.2725, 0.9622, 184.0354, 108.608)">d</text><text class="cls-19" transform="translate(194.6624 105.6779) rotate(-12.786)"> </text><text class="cls-19" transform="translate(199.117 104.6622) rotate(-10.9925)"> </text><text class="cls-19" transform="matrix(0.9871, -0.16, 0.16, 0.9871, 203.596, 103.7887)"> </text><text class="cls-19" transform="translate(208.094 103.0558) rotate(-7.4247)"> </text><text class="cls-19" transform="matrix(0.9951, -0.0985, 0.0985, 0.9951, 212.6092, 102.463)"> </text><text class="cls-19" transform="translate(217.1682 102.0084) rotate(-3.8755)"> </text><text class="cls-19" transform="translate(221.7107 101.6964) rotate(-2.1198)"> </text><text class="cls-19" transform="translate(226.3406 101.5455) rotate(-0.9286)"> </text><text class="cls-19" transform="translate(230.8562 101.4899) rotate(1.3832)"> </text><text class="cls-19" transform="translate(235.4207 101.5958) rotate(3.14)"> </text><text class="cls-19" transform="matrix(0.9963, 0.0855, -0.0855, 0.9963, 239.9783, 101.8419)"> </text><text class="cls-19" transform="translate(244.5281 102.2282) rotate(6.6801)"> </text><text class="cls-19" transform="translate(249.0652 102.7555) rotate(8.4621)"> </text><text class="cls-19" transform="translate(253.5603 103.4196) rotate(10.24)"> </text><text class="cls-19" transform="matrix(0.978, 0.2085, -0.2085, 0.978, 258.0672, 104.2306)"> </text><text class="cls-19" transform="matrix(0.971, 0.239, -0.239, 0.971, 262.5242, 105.1764)"> </text><text class="cls-19" transform="matrix(0.9631, 0.2693, -0.2693, 0.9631, 266.9597, 106.2633)"> </text><text class="cls-19" transform="translate(271.3416 107.4845) rotate(17.4106)"> </text><text class="cls-19" transform="translate(275.6951 108.8449) rotate(19.2045)"> </text><text class="cls-19" transform="translate(280.0164 110.3463) rotate(21.0032)"> </text><text class="cls-19" transform="matrix(0.9219, 0.3874, -0.3874, 0.9219, 284.2762, 111.9777)"> </text><text class="cls-19" transform="translate(288.4705 113.7355) rotate(24.5803)"> </text><text class="cls-19" transform="translate(292.6258 115.631) rotate(26.3701)"> </text><text class="cls-19" transform="translate(296.7097 117.652) rotate(28.1539)"> </text><text class="cls-19" transform="translate(300.7459 119.8068) rotate(29.9431)"> </text><text class="cls-19" transform="translate(304.7058 122.0841) rotate(31.7259)"> </text><text class="cls-19" transform="matrix(0.8338, 0.552, -0.552, 0.8338, 308.5896, 124.4796)"> </text><text class="cls-19" transform="translate(312.3914 126.9913) rotate(35.2781)"> </text><text class="cls-19" transform="matrix(0.7981, 0.6025, -0.6025, 0.7981, 316.1101, 129.6183)"> </text><text class="cls-19" transform="matrix(0.7791, 0.627, -0.627, 0.7791, 319.7644, 132.3722)"> </text><text class="cls-19" transform="translate(323.3318 135.237) rotate(40.6014)"> </text><text class="cls-19" transform="matrix(0.7388, 0.674, -0.674, 0.7388, 326.8054, 138.2096)"> </text><text class="cls-19" transform="matrix(0.7177, 0.6964, -0.6964, 0.7177, 330.1638, 141.2682)"> </text><text class="cls-19" transform="matrix(0.6958, 0.7182, -0.7182, 0.6958, 333.447, 144.4484)"> </text><text class="cls-19" transform="translate(336.6316 147.7282) rotate(47.679)"> </text><text class="cls-19" transform="translate(339.7117 151.1056) rotate(49.4526)"> </text><text class="cls-19" transform="translate(342.6697 154.5573) rotate(51.2172)"> </text><text class="cls-19" transform="translate(345.5398 158.1232) rotate(52.9941)"> </text><text class="cls-19" transform="translate(348.2654 161.5827) rotate(55.9571)">1</text><text class="cls-19" transform="translate(354.2342 170.3761) rotate(60.1008)">5</text><text class="cls-19" transform="translate(359.5672 179.7858) rotate(63.1837)">.</text><text class="cls-19" transform="translate(361.8826 184.1632) rotate(66.2734)">5</text><text class="cls-19" transform="matrix(0.3189, 0.9478, -0.9478, 0.3189, 366.2527, 193.7399)">%</text><text class="cls-19" transform="matrix(0.2531, 0.9674, -0.9674, 0.2531, 371.1092, 208.7321)"> </text><text class="cls-19" transform="matrix(0.2226, 0.9749, -0.9749, 0.2226, 372.2713, 213.1583)"> </text><text class="cls-19" transform="matrix(0.192, 0.9814, -0.9814, 0.192, 373.2928, 217.6115)"> </text><text class="cls-19" transform="translate(374.1726 222.088) rotate(80.716)"> </text><text class="cls-19" transform="translate(374.9119 226.5831) rotate(82.4963)"> </text><text class="cls-19" transform="translate(375.5095 231.0973) rotate(84.269)"> </text><text class="cls-19" transform="matrix(0.069, 0.9976, -0.9976, 0.069, 375.9715, 235.6544)"> </text><text class="cls-19" transform="translate(376.2898 240.195) rotate(87.8001)"> </text><text class="cls-19" transform="matrix(0.0162, 0.9999, -0.9999, 0.0162, 376.448, 244.8156)"> </text><text class="cls-19" transform="matrix(-0.0227, 0.9997, -0.9997, -0.0227, 376.5086, 249.34)"> </text><text class="cls-19" transform="translate(376.408 253.9059) rotate(93.06)"> </text><text class="cls-19" transform="translate(376.1687 258.4655) rotate(94.8266)"> </text><text class="cls-19" transform="translate(375.7879 263.0163) rotate(96.6002)"> </text><text class="cls-19" transform="matrix(-0.1456, 0.9893, -0.9893, -0.1456, 375.2713, 267.527)"> </text><text class="cls-19" transform="matrix(-0.1764, 0.9843, -0.9843, -0.1764, 374.6092, 272.0524)"> </text><text class="cls-19" transform="matrix(-0.207, 0.9783, -0.9783, -0.207, 373.8113, 276.5329)"> </text><text class="cls-19" transform="translate(372.865 281.0211) rotate(103.7477)"> </text><text class="cls-19" transform="translate(371.7898 285.4313) rotate(105.5317)"> </text></g><g id="Outside_Labels" data-name="Outside Labels"><text id="bottom_side" data-name="bottom side" class="cls-20" transform="translate(420.2215 157.6242) rotate(-116.1523)"> </text><text class="cls-20" transform="translate(417.9022 152.9108) rotate(-117.5834)"> </text><text class="cls-20" transform="translate(415.4588 148.2462) rotate(-119.0169)"> </text><text class="cls-20" transform="translate(412.8934 143.6349) rotate(-120.4513)"> </text><text class="cls-20" transform="translate(410.2293 139.111) rotate(-121.8771)"> </text><text class="cls-20" transform="matrix(-0.5491, -0.8358, 0.8358, -0.5491, 407.4452, 134.6442)"> </text><text class="cls-20" transform="translate(404.5536 130.2521) rotate(-124.7309)"> </text><text class="cls-20" transform="matrix(-0.59, -0.8074, 0.8074, -0.59, 401.5428, 125.9215)"> </text><text class="cls-20" transform="translate(398.4305 121.6696) rotate(-127.5841)"> </text><text class="cls-20" transform="translate(395.2254 117.5153) rotate(-129.0023)"> </text><text class="cls-20" transform="matrix(-0.6484, -0.7613, 0.7613, -0.6484, 391.91, 113.4288)"> </text><text class="cls-20" transform="translate(388.493 109.4269) rotate(-131.8456)"> </text><text class="cls-20" transform="matrix(-0.6854, -0.7282, 0.7282, -0.6854, 384.9813, 105.5119)"> </text><text class="cls-20" transform="translate(381.3856 101.6998) rotate(-134.6797)"> </text><text class="cls-20" transform="matrix(-0.7206, -0.6933, 0.6933, -0.7206, 377.6698, 97.9508)"> </text><text class="cls-20" transform="matrix(-0.7376, -0.6753, 0.6753, -0.7376, 373.8758, 94.3078)"> </text><text class="cls-20" transform="translate(369.992 90.7594) rotate(-138.9446)"> </text><text class="cls-20" transform="matrix(-0.7701, -0.6379, 0.6379, -0.7701, 366.0204, 87.3073)"> </text><text class="cls-20" transform="translate(361.9774 83.9655) rotate(-141.7839)"> </text><text class="cls-20" transform="matrix(-0.8008, -0.5989, 0.5989, -0.8008, 357.8348, 80.7111)"> </text><text class="cls-20" transform="translate(353.6112 77.5582) rotate(-144.6357)"> </text><text class="cls-20" transform="translate(349.3036 74.5094) rotate(-146.065)"> </text><text class="cls-20" transform="translate(344.952 71.5871) rotate(-147.4865)"> </text><text class="cls-20" transform="translate(340.5077 68.7604) rotate(-148.9162)"> </text><text class="cls-20" transform="matrix(-0.8691, -0.4947, 0.4947, -0.8691, 335.9871, 66.0426)"> </text><text class="cls-20" transform="matrix(-0.8811, -0.4728, 0.4728, -0.8811, 331.4129, 63.444)"> </text><text class="cls-20" transform="translate(326.7655 60.9572) rotate(-153.2159)"> </text><text class="cls-20" transform="translate(322.0877 58.6012) rotate(-154.644)"> </text><text class="cls-20" transform="matrix(-0.9142, -0.4053, 0.4053, -0.9142, 317.3065, 56.3419)"> </text><text class="cls-20" transform="translate(312.4969 54.215) rotate(-157.5232)"> </text><text class="cls-20" transform="matrix(-0.9334, -0.359, 0.359, -0.9334, 307.6229, 52.2052)"> </text><text class="cls-20" transform="translate(302.7284 50.3278) rotate(-160.3976)"> </text><text class="cls-20" transform="translate(297.7362 48.5568) rotate(-161.8467)"> </text><text class="cls-20" transform="matrix(-0.9577, -0.2876, 0.2876, -0.9577, 292.745, 46.9259)"> </text><text class="cls-20" transform="matrix(-0.9647, -0.2635, 0.2635, -0.9647, 287.7, 45.4166)"> </text><text class="cls-20" transform="translate(282.6219 44.0353) rotate(-166.1629)"> </text><text class="cls-20" transform="matrix(-0.9767, -0.2146, 0.2146, -0.9767, 277.494, 42.778)"> </text><text class="cls-20" transform="matrix(-0.9818, -0.1901, 0.1901, -0.9818, 272.3582, 41.6549)"> </text><text class="cls-20" transform="translate(267.1961 40.6613) rotate(-170.4739)"> </text><text class="cls-20" transform="translate(261.9901 39.7936) rotate(-171.9098)"> </text><text class="cls-20" transform="translate(256.8045 39.0607) rotate(-173.3311)"> </text><text class="cls-20" transform="matrix(-0.9958, -0.0913, 0.0913, -0.9958, 251.5584, 38.4533)"> </text><text class="cls-20" transform="matrix(-0.9978, -0.0666, 0.0666, -0.9978, 246.3153, 37.9782)"> </text><text class="cls-20" transform="matrix(-0.9991, -0.042, 0.042, -0.9991, 241.0789, 37.6344)"> </text><text class="cls-20" transform="translate(235.8524 37.4196) rotate(-178.991)"> </text><text class="cls-20" transform="translate(230.45 37.3112) rotate(179.0712)"> </text><text class="cls-20" transform="translate(225.4364 37.3707) rotate(178.2312)"> </text><text class="cls-20" transform="translate(220.1585 37.5397) rotate(176.8151)"> </text><text class="cls-20" transform="matrix(-0.9968, 0.0802, -0.0802, -0.9968, 214.9129, 37.8375)"> </text><text class="cls-20" transform="translate(209.679 38.2633) rotate(173.9809)"> </text><text class="cls-20" transform="translate(204.4408 38.8209) rotate(172.5526)"> </text><text class="cls-20" transform="matrix(-0.988, 0.1543, -0.1543, -0.988, 199.2186, 39.5099)"> </text><text class="cls-20" transform="translate(194.0374 40.3244) rotate(169.6926)"> </text><text class="cls-20" transform="matrix(-0.9791, 0.2035, -0.2035, -0.9791, 188.8568, 41.2716)"> </text><text class="cls-20" transform="matrix(-0.9736, 0.2282, -0.2282, -0.9736, 183.68, 42.3541)"> </text><text class="cls-20" transform="matrix(-0.9676, 0.2525, -0.2525, -0.9676, 178.5702, 43.5568)"> </text><text class="cls-20" transform="translate(173.4691 44.8937) rotate(163.9335)"> </text><text class="cls-20" transform="translate(168.4188 46.3541) rotate(162.4952)"> </text><text class="cls-20" transform="translate(163.3827 47.9484) rotate(161.05)"> </text><text class="cls-20" transform="matrix(-0.9374, 0.3483, -0.3483, -0.9374, 158.4193, 49.6583)"> </text><text class="cls-20" transform="translate(153.4759 51.5016) rotate(158.1714)"> </text><text class="cls-20" transform="translate(148.5907 53.4635) rotate(156.7333)"> </text><text class="cls-20" transform="matrix(-0.9085, 0.4179, -0.4179, -0.9085, 143.7669, 55.5441)"> </text><text class="cls-20" transform="translate(138.9696 57.757) rotate(153.8583)"> </text><text class="cls-20" transform="matrix(-0.8864, 0.4629, -0.4629, -0.8864, 134.2557, 60.0763)"> </text><text class="cls-20" transform="translate(129.5916 62.5187) rotate(150.9941)"> </text><text class="cls-20" transform="matrix(-0.8622, 0.5066, -0.5066, -0.8622, 124.9788, 65.0822)"> </text><text class="cls-20" transform="matrix(-0.8493, 0.5279, -0.5279, -0.8493, 120.4544, 67.7472)"> </text><text class="cls-20" transform="matrix(-0.8359, 0.5489, -0.5489, -0.8359, 115.9871, 70.5309)"> </text><text class="cls-20" transform="matrix(-0.8219, 0.5696, -0.5696, -0.8219, 111.5946, 73.4215)"> </text><text class="cls-20" transform="matrix(-0.8075, 0.5899, -0.5899, -0.8075, 107.2635, 76.4308)"> </text><text class="cls-20" transform="matrix(-0.7926, 0.6097, -0.6097, -0.7926, 103.0272, 79.5309)"> </text><text class="cls-20" transform="translate(98.8714 82.734) rotate(141.0136)"> </text><text class="cls-20" transform="translate(94.7835 86.0495) rotate(139.5913)"> </text><text class="cls-20" transform="translate(90.7806 89.4645) rotate(138.1703)"> </text><text class="cls-20" transform="matrix(-0.7284, 0.6852, -0.6852, -0.7284, 86.8651, 92.9767)"> </text><text class="cls-20" transform="translate(83.0379 96.5841) rotate(135.3308)"> </text><text class="cls-20" transform="translate(79.3016 100.2848) rotate(133.9113)"> </text><text class="cls-20" transform="translate(75.6585 104.0778) rotate(132.4915)"> </text><text class="cls-20" transform="translate(72.1087 107.9601) rotate(131.071)"> </text><text class="cls-20" transform="matrix(-0.6381, 0.77, -0.77, -0.6381, 68.6561, 111.9318)"> </text><text class="cls-20" transform="matrix(-0.6188, 0.7856, -0.7856, -0.6188, 65.2996, 115.9889)"> </text><text class="cls-20" transform="translate(62.0448 120.131) rotate(126.8017)"> </text><text class="cls-20" transform="translate(58.891 124.3556) rotate(125.375)"> </text><text class="cls-20" transform="matrix(-0.5585, 0.8295, -0.8295, -0.5585, 55.8524, 128.6437)"> </text><text class="cls-20" transform="matrix(-0.5377, 0.8432, -0.8432, -0.5377, 52.9188, 133.0114)"> </text><text class="cls-20" transform="matrix(-0.5165, 0.8563, -0.8563, -0.5165, 50.1019, 137.4386)"> </text><text class="cls-20" transform="translate(47.3822 141.9577) rotate(119.6669)"> </text><text class="cls-20" transform="translate(44.7733 146.5495) rotate(118.23)"> </text><text class="cls-20" transform="matrix(-0.4509, 0.8926, -0.8926, -0.4509, 42.2953, 151.1769)"> </text><text class="cls-20" transform="translate(39.9286 155.8737) rotate(115.3669)"> </text><text class="cls-20" transform="translate(37.6766 160.6364) rotate(113.9292)"> </text><text class="cls-20" transform="translate(35.5404 165.4635) rotate(112.4875)"> </text><text class="cls-20" transform="translate(33.5301 170.3361) rotate(111.0468)"> </text><text class="cls-20" transform="translate(31.6517 175.2306) rotate(109.6133)"> </text><text class="cls-20" transform="translate(29.8856 180.2038) rotate(108.1697)"> </text><text class="cls-20" transform="translate(28.2479 185.213) rotate(106.7277)"> </text><text class="cls-20" transform="translate(26.7371 190.2579) rotate(105.2869)"> </text><text class="cls-20" transform="matrix(-0.2393, 0.9709, -0.9709, -0.2393, 25.3558, 195.3351)"> </text><text class="cls-20" transform="translate(24.0965 200.4621) rotate(102.4055)"> </text><text class="cls-20" transform="translate(22.973 205.5978) rotate(100.9702)"> </text><text class="cls-20" transform="matrix(-0.1656, 0.9862, -0.9862, -0.1656, 21.9745, 210.7799)"> </text><text class="cls-20" transform="translate(21.1097 215.965) rotate(98.1013)"> </text><text class="cls-20" transform="translate(20.3734 221.172) rotate(96.6741)"> </text><text class="cls-20" transform="translate(19.7674 226.3971) rotate(95.2506)"> </text><text class="cls-20" transform="translate(19.2913 231.6398) rotate(93.8306)"> </text><text class="cls-20" transform="translate(18.9461 236.8756) rotate(92.4204)"> </text><text class="cls-20" transform="matrix(-0.0177, 0.9998, -0.9998, -0.0177, 18.7298, 242.1237)"> </text><text class="cls-20" transform="translate(18.6209 247.547) rotate(89.0712)"> </text><text class="cls-20" transform="translate(18.6825 252.6452) rotate(88.2089)"> </text><text class="cls-20" transform="translate(18.8509 257.8795) rotate(86.8035)"> </text><text class="cls-20" transform="translate(19.1497 263.1256) rotate(85.3885)"> </text><text class="cls-20" transform="matrix(0.1052, 0.9945, -0.9945, 0.1052, 19.5785, 268.3795)"> </text><text class="cls-20" transform="translate(20.1361 273.5973) rotate(82.5412)"> </text><text class="cls-20" transform="matrix(0.1545, 0.988, -0.988, 0.1545, 20.825, 278.819)"> </text><text class="cls-20" transform="translate(21.6478 284.0407) rotate(79.6701)"> </text><text class="cls-20" transform="translate(22.597 289.2204) rotate(78.2336)"> </text><text class="cls-20" transform="translate(23.6727 294.3561) rotate(76.8002)"> </text><text class="cls-20" transform="matrix(0.2528, 0.9675, -0.9675, 0.2528, 24.8812, 299.486)"> </text><text class="cls-20" transform="translate(26.2196 304.5866) rotate(73.917)"> </text><text class="cls-20" transform="matrix(0.3011, 0.9536, -0.9536, 0.3011, 27.681, 309.6364)"> </text><text class="cls-20" transform="translate(29.2708 314.6539) rotate(71.0386)"> </text><text class="cls-20" transform="translate(30.995 319.6539) rotate(69.5918)"> </text><text class="cls-20" transform="translate(32.8324 324.5788) rotate(68.1552)"> </text><text class="cls-20" transform="translate(34.7972 329.4616) rotate(66.7168)"> </text><text class="cls-20" transform="matrix(0.4182, 0.9083, -0.9083, 0.4182, 36.8861, 334.3024)"> </text><text class="cls-20" transform="translate(39.0833 339.0631) rotate(63.8477)"> </text><text class="cls-20" transform="matrix(0.4631, 0.8863, -0.8863, 0.4631, 41.4134, 343.7946)"> </text><text class="cls-20" transform="translate(43.8563 348.4586) rotate(60.9782)"> </text><text class="cls-20" transform="translate(46.412 353.0524) rotate(59.5486)"> </text><text class="cls-20" transform="translate(49.098 357.611) rotate(58.1117)"> </text><text class="cls-20" transform="translate(51.8724 362.0602) rotate(56.6892)"> </text><text class="cls-20" transform="matrix(0.5699, 0.8217, -0.8217, 0.5699, 54.7762, 366.4674)"> </text><text class="cls-20" transform="translate(57.7743 370.7819) rotate(53.8364)"> </text><text class="cls-20" transform="translate(60.8763 375.0172) rotate(52.4161)"> </text><text class="cls-20" transform="translate(64.0926 379.1881) rotate(50.9923)"> </text><text class="cls-20" transform="matrix(0.6485, 0.7612, -0.7612, 0.6485, 67.41, 383.2721)"> </text><text class="cls-20" transform="matrix(0.6672, 0.7449, -0.7449, 0.6672, 70.826, 387.275)"> </text><text class="cls-20" transform="matrix(0.6855, 0.7281, -0.7281, 0.6855, 74.3402, 391.1901)"> </text><text class="cls-20" transform="matrix(0.7033, 0.7109, -0.7109, 0.7033, 77.9486, 395.0163)"> </text><text class="cls-20" transform="matrix(0.7207, 0.6933, -0.6933, 0.7207, 81.6507, 398.7506)"> </text><text class="cls-20" transform="translate(85.4447 402.3932) rotate(42.4704)"> </text><text class="cls-20" transform="translate(89.3294 405.9401) rotate(41.0495)"> </text><text class="cls-20" transform="translate(93.3016 409.3932) rotate(39.6281)"> </text><text class="cls-20" transform="translate(97.3602 412.7467) rotate(38.2051)"> </text><text class="cls-20" transform="translate(101.5033 416.0006) rotate(36.7805)"> </text><text class="cls-20" transform="translate(105.7127 419.1413) rotate(35.3588)"> </text><text class="cls-20" transform="translate(110.0023 422.1784) rotate(33.9348)"> </text><text class="cls-20" transform="matrix(0.8434, 0.5373, -0.5373, 0.8434, 114.3871, 425.1207)"> </text><text class="cls-20" transform="matrix(0.8565, 0.5162, -0.5162, 0.8565, 118.8163, 427.9362)"> </text><text class="cls-20" transform="translate(123.3182 430.6442) rotate(29.6506)"> </text><text class="cls-20" transform="translate(127.8944 433.2428) rotate(28.2191)"> </text><text class="cls-20" transform="matrix(0.8927, 0.4506, -0.4506, 0.8927, 132.5399, 435.7291)"> </text><text class="cls-20" transform="matrix(0.9037, 0.4281, -0.4281, 0.9037, 137.2547, 438.1022)"> </text><text class="cls-20" transform="matrix(0.9142, 0.4054, -0.4054, 0.9142, 141.9998, 440.3454)"> </text><text class="cls-20" transform="translate(146.8285 442.4791) rotate(22.4712)"> </text><text class="cls-20" transform="translate(151.683 444.4811) rotate(21.0359)"> </text><text class="cls-20" transform="translate(156.6161 446.3727) rotate(19.5912)"> </text><text class="cls-20" transform="translate(161.5697 448.1305) rotate(18.1533)"> </text><text class="cls-20" transform="translate(166.5804 449.7663) rotate(16.7112)"> </text><text class="cls-20" transform="translate(171.6263 451.275) rotate(15.2704)"> </text><text class="cls-20" transform="matrix(0.971, 0.239, -0.239, 0.971, 176.723, 452.6618)"> </text><text class="cls-20" transform="translate(181.8123 453.9088) rotate(12.3939)"> </text><text class="cls-20" transform="translate(186.9681 455.0358) rotate(10.9533)"> </text><text class="cls-20" transform="translate(192.1307 456.0289) rotate(9.5207)"> </text><text class="cls-20" transform="translate(197.3158 456.8932) rotate(8.0907)"> </text><text class="cls-20" transform="translate(202.5433 457.6315) rotate(6.6576)"> </text><text class="cls-20" transform="matrix(0.9958, 0.0912, -0.0912, 0.9958, 207.7689, 458.235)"> </text><text class="cls-20" transform="matrix(0.9978, 0.0666, -0.0666, 0.9978, 212.9906, 458.7096)"> </text><text class="cls-20" transform="matrix(0.9991, 0.0419, -0.0419, 0.9991, 218.2479, 459.0543)"> </text><text class="cls-20" transform="translate(223.4544 459.2672) rotate(1.0092)"> </text><text class="cls-20" transform="matrix(0.9999, -0.0162, 0.0162, 0.9999, 228.8568, 459.3756)"> </text><text class="cls-20" transform="translate(233.911 459.3141) rotate(-1.7802)"> </text><text class="cls-20" transform="translate(239.1483 459.1471) rotate(-3.1851)"> </text><text class="cls-20" transform="translate(244.3944 458.8512) rotate(-4.6006)"> </text><text class="cls-20" transform="matrix(0.9945, -0.105, 0.105, 0.9945, 249.6483, 458.4215)"> </text><text class="cls-20" transform="matrix(0.9916, -0.1297, 0.1297, 0.9916, 254.8866, 457.8629)"> </text><text class="cls-20" transform="translate(260.0868 457.1784) rotate(-8.879)"> </text><text class="cls-20" transform="translate(265.3084 456.3561) rotate(-10.3187)"> </text><text class="cls-20" transform="matrix(0.979, -0.2037, 0.2037, 0.979, 270.4901, 455.4079)"> </text><text class="cls-20" transform="translate(275.6258 454.3336) rotate(-13.1884)"> </text><text class="cls-20" transform="translate(280.7567 453.1246) rotate(-14.6297)"> </text><text class="cls-20" transform="matrix(0.9609, -0.2767, 0.2767, 0.9609, 285.8368, 451.7936)"> </text><text class="cls-20" transform="matrix(0.9537, -0.3009, 0.3009, 0.9537, 290.9071, 450.3268)"> </text><text class="cls-20" transform="translate(295.9237 448.7379) rotate(-18.9501)"> </text><text class="cls-20" transform="translate(300.9061 447.0221) rotate(-20.3914)"> </text><text class="cls-20" transform="translate(305.8309 445.1852) rotate(-21.8283)"> </text><text class="cls-20" transform="translate(310.7342 443.2155) rotate(-23.2721)"> </text><text class="cls-20" transform="translate(315.576 441.1266) rotate(-24.7118)"> </text><text class="cls-20" transform="translate(320.3368 438.9293) rotate(-26.1417)"> </text><text class="cls-20" transform="translate(325.0692 436.6012) rotate(-27.5784)"> </text><text class="cls-20" transform="translate(329.7323 434.1598) rotate(-29.0107)"> </text><text class="cls-20" transform="translate(334.328 431.6041) rotate(-30.441)"> </text><text class="cls-20" transform="matrix(0.8492, -0.528, 0.528, 0.8492, 338.868, 428.9303)"> </text><text class="cls-20" transform="matrix(0.8358, -0.549, 0.549, 0.8358, 343.3358, 426.1452)"> </text><text class="cls-20" transform="matrix(0.8219, -0.5696, 0.5696, 0.8219, 347.7284, 423.2545)"> </text><text class="cls-20" transform="matrix(0.8075, -0.5899, 0.5899, 0.8075, 352.0438, 420.2565)"> </text><text class="cls-20" transform="translate(356.2957 417.1442) rotate(-37.573)"> </text><text class="cls-20" transform="translate(360.4657 413.9284) rotate(-38.9973)"> </text><text class="cls-20" transform="translate(364.5526 410.612) rotate(-40.4193)"> </text><text class="cls-20" transform="matrix(0.745, -0.6671, 0.6671, 0.745, 368.5545, 407.1959)"> </text><text class="cls-20" transform="translate(372.4696 403.6832) rotate(-43.2603)"> </text><text class="cls-20" transform="translate(376.2948 400.0758) rotate(-44.6797)"> </text><text class="cls-20" transform="matrix(0.6934, -0.7205, 0.7205, 0.6934, 380.033, 396.3746)"> </text><text class="cls-20" transform="matrix(0.6753, -0.7375, 0.7375, 0.6753, 383.6746, 392.5807)"> </text><text class="cls-20" transform="translate(383.6463 385.2955) rotate(-49.9226)">u</text><text class="cls-20" transform="translate(391.5243 375.9049) rotate(-53.3589)">n</text><text class="cls-20" transform="matrix(0.5537, -0.8327, 0.8327, 0.5537, 398.9286, 365.8493)">s</text><text class="cls-20" transform="translate(404.0448 358.1598) rotate(-59.1485)">a</text><text class="cls-20" transform="matrix(0.4745, -0.8802, 0.8802, 0.4745, 409.4647, 348.9948)">t</text><text class="cls-20" transform="translate(412.9276 342.5397) rotate(-63.5693)">i</text><text class="cls-20" transform="translate(415.7577 336.8834) rotate(-65.7255)">s</text><text class="cls-20" transform="translate(419.4891 328.5368) rotate(-67.9847)">f</text><text class="cls-20" transform="matrix(0.3447, -0.9387, 0.9387, 0.3447, 422.0741, 322.109)">i</text><text class="cls-20" transform="translate(424.2879 316.1618) rotate(-72.1459)">e</text><text class="cls-20" transform="matrix(0.2537, -0.9673, 0.9673, 0.2537, 427.4705, 306.3024)">d</text><text id="inner_tube_top_side" data-name="inner tube top side" class="cls-10" transform="translate(139.7774 290.708) rotate(-113.88)"> </text><text class="cls-10" transform="matrix(-0.3636, -0.9315, 0.9315, -0.3636, 137.9864, 286.6846)"> </text><text class="cls-10" transform="translate(136.376 282.5869) rotate(-108.7622)"> </text><text class="cls-10" transform="matrix(-0.279, -0.9603, 0.9603, -0.279, 134.9512, 278.4189)"> </text><text class="cls-10" transform="matrix(-0.2357, -0.9718, 0.9718, -0.2357, 133.7119, 274.1875)"> </text><text class="cls-10" transform="translate(132.6612 269.8955) rotate(-101.0705)"> </text><text class="cls-10" transform="translate(131.8086 265.5898) rotate(-98.5299)"> </text><text class="cls-10" transform="translate(131.1446 261.2158) rotate(-95.979)"> </text><text class="cls-10" transform="translate(130.6778 256.8584) rotate(-93.4681)"> </text><text class="cls-10" transform="translate(130.4024 252.4414) rotate(-90.9523)"> </text><text class="cls-10" transform="translate(130.3184 248.0283) rotate(-88.4578)"> </text><text class="cls-10" transform="translate(130.4287 243.6152) rotate(-85.9431)"> </text><text class="cls-10" transform="translate(130.7324 239.2129) rotate(-83.4106)"> </text><text class="cls-10" transform="translate(131.2305 234.8252) rotate(-80.863)"> </text><text class="cls-10" transform="translate(131.916 230.4971) rotate(-78.3232)"> </text><text class="cls-10" transform="matrix(0.2462, -0.9692, 0.9692, 0.2462, 132.8037, 226.1567)"> </text><text class="cls-10" transform="translate(133.8789 221.8862) rotate(-73.1888)"> </text><text class="cls-10" transform="matrix(0.3317, -0.9434, 0.9434, 0.3317, 135.1426, 217.6709)"> </text><text class="cls-10" transform="matrix(0.3734, -0.9277, 0.9277, 0.3734, 136.5918, 213.5195)"> </text><text class="cls-10" transform="translate(138.2276 209.4331) rotate(-65.5187)"> </text><text class="cls-10" transform="translate(140.043 205.4204) rotate(-62.966)"> </text><text class="cls-10" transform="matrix(0.4939, -0.8695, 0.8695, 0.4939, 142.0489, 201.4702)"> </text><text class="cls-10" transform="translate(144.2041 197.6553) rotate(-57.8745)"> </text><text class="cls-10" transform="translate(146.544 193.9141) rotate(-55.3346)"> </text><text class="cls-10" transform="matrix(0.6046, -0.7966, 0.7966, 0.6046, 149.041, 190.2861)"> </text><text class="cls-10" transform="translate(151.7061 186.7607) rotate(-50.2648)"> </text><text class="cls-10" transform="translate(154.5215 183.3584) rotate(-47.7333)"> </text><text class="cls-10" transform="matrix(0.7045, -0.7097, 0.7097, 0.7045, 157.4707, 180.0996)"> </text><text class="cls-10" transform="translate(160.5889 176.9473) rotate(-42.6735)"> </text><text class="cls-10" transform="translate(163.8145 173.9595) rotate(-40.1528)"> </text><text class="cls-10" transform="translate(167.1709 171.1157) rotate(-37.6272)"> </text><text class="cls-10" transform="matrix(0.8183, -0.5748, 0.5748, 0.8183, 170.669, 168.4082)"> </text><text class="cls-10" transform="translate(174.2725 165.8657) rotate(-32.5461)"> </text><text class="cls-10" transform="matrix(0.866, -0.5001, 0.5001, 0.866, 177.9746, 163.4912)"> </text><text class="cls-10" transform="matrix(0.8873, -0.4611, 0.4611, 0.8873, 181.791, 161.2778)"> </text><text class="cls-10" transform="translate(185.709 159.231) rotate(-24.8979)"> </text><text class="cls-10" transform="translate(189.6953 157.3706) rotate(-22.3448)"> </text><text class="cls-10" transform="matrix(0.941, -0.3384, 0.3384, 0.941, 193.7735, 155.6836)"> </text><text class="cls-10" transform="matrix(0.9551, -0.2963, 0.2963, 0.9551, 197.8887, 154.1934)"> </text><text class="cls-10" transform="translate(202.1065 152.875) rotate(-14.6633)"> </text><text class="cls-10" transform="translate(206.3672 151.751) rotate(-12.103)"> </text><text class="cls-10" transform="matrix(0.9862, -0.1658, 0.1658, 0.9862, 210.6826, 150.8164)"> </text><text class="cls-10" transform="translate(215.0303 150.0762) rotate(-6.9962)"> </text><text class="cls-10" transform="matrix(0.997, -0.0778, 0.0778, 0.997, 219.4043, 149.5298)"> </text><text class="cls-10" transform="translate(223.7979 149.1782) rotate(-1.9495)"> </text><text class="cls-10" transform="translate(228.1436 149.002) rotate(0.929)"> </text><text class="cls-10" transform="matrix(0.9986, 0.0532, -0.0532, 0.9986, 232.6162, 149.0522)"> </text><text class="cls-10" transform="matrix(0.9953, 0.0971, -0.0971, 0.9953, 237.0215, 149.2773)"> </text><text class="cls-10" transform="translate(241.4121 149.6968) rotate(8.1124)"> </text><text class="cls-10" transform="translate(245.7832 150.3105) rotate(10.667)"> </text><text class="cls-10" transform="translate(250.1114 151.1157) rotate(13.2222)"> </text><text class="cls-10" transform="translate(254.4102 152.1162) rotate(15.7885)"> </text><text class="cls-10" transform="translate(258.6377 153.3013) rotate(18.3414)"> </text><text class="cls-10" transform="translate(262.8233 154.6792) rotate(20.9031)"> </text><text class="cls-10" transform="matrix(0.9173, 0.3982, -0.3982, 0.9173, 266.9434, 156.2427)"> </text><text class="cls-10" transform="translate(270.9746 157.9829) rotate(26.0108)"> </text><text class="cls-10" transform="translate(274.9649 159.9199) rotate(28.5766)"> </text><text class="cls-10" transform="translate(278.8213 162.0088) rotate(31.1103)"> </text><text class="cls-10" transform="translate(282.6055 164.2822) rotate(33.6555)"> </text><text class="cls-10" transform="translate(286.2793 166.7173) rotate(36.1904)"> </text><text class="cls-10" transform="matrix(0.7802, 0.6255, -0.6255, 0.7802, 289.8379, 169.3091)"> </text><text class="cls-10" transform="translate(293.2891 172.0654) rotate(41.2527)"> </text><text class="cls-10" transform="matrix(0.722, 0.6919, -0.6919, 0.722, 296.6143, 174.9692)"> </text><text class="cls-10" transform="translate(299.794 178.0039) rotate(46.3022)"> </text><text class="cls-10" transform="translate(302.7647 180.8813) rotate(50.6704)">n</text><text class="cls-10" transform="translate(309.6651 189.3145) rotate(56.3125)">e</text><text class="cls-10" transform="matrix(0.471, 0.8821, -0.8821, 0.471, 314.6055, 196.5664)">u</text><text class="cls-10" transform="matrix(0.3945, 0.9189, -0.9189, 0.3945, 319.5869, 206.0322)">t</text><text class="cls-10" transform="matrix(0.3293, 0.9442, -0.9442, 0.3293, 322.0987, 211.7607)">r</text><text class="cls-10" transform="translate(324.6006 218.7148) rotate(75.6153)">a</text><text class="cls-10" transform="translate(326.8809 227.8276) rotate(79.8041)">l</text><text class="cls-10" transform="translate(327.8145 233.0234) rotate(82.5983)"> </text><text class="cls-10" transform="matrix(0.0849, 0.9964, -0.9964, 0.0849, 328.3916, 237.3877)"> </text><text class="cls-10" transform="matrix(0.0409, 0.9992, -0.9992, 0.0409, 328.7754, 241.791)"> </text><text class="cls-10" transform="translate(328.9981 246.0693) rotate(90.929)"> </text><text class="cls-10" transform="translate(328.9629 250.6133) rotate(92.6527)"> </text><text class="cls-10" transform="matrix(-0.0902, 0.9959, -0.9959, -0.0902, 328.7666, 255.0244)"> </text><text class="cls-10" transform="matrix(-0.1343, 0.9909, -0.9909, -0.1343, 328.377, 259.4238)"> </text><text class="cls-10" transform="translate(327.7969 263.7852) rotate(100.2628)"> </text><text class="cls-10" transform="matrix(-0.2219, 0.9751, -0.9751, -0.2219, 327.0205, 268.124)"> </text><text class="cls-10" transform="translate(326.0537 272.4141) rotate(105.3765)"> </text><text class="cls-10" transform="translate(324.8926 276.6719) rotate(107.943)"> </text><text class="cls-10" transform="translate(323.542 280.8691) rotate(110.5078)"> </text><text class="cls-10" transform="matrix(-0.3917, 0.9201, -0.9201, -0.3917, 322.0137, 284.9854)"> </text><text class="cls-10" transform="translate(320.293 289.0488) rotate(115.6177)"> </text><text class="cls-10" transform="translate(318.4004 293.0186) rotate(118.1654)"> </text><text class="cls-10" transform="translate(316.3194 296.9248) rotate(120.7215)"> </text><text class="cls-10" transform="matrix(-0.5484, 0.8362, -0.8362, -0.5484, 314.0811, 300.709)"> </text><text class="cls-10" transform="matrix(-0.5849, 0.8111, -0.8111, -0.5849, 311.6709, 304.4014)"> </text><text id="top_side" data-name="top side" class="cls-10" transform="translate(51.5277 152.9655) rotate(-61.0972)"> </text><text class="cls-10" transform="matrix(0.5037, -0.8639, 0.8639, 0.5037, 53.8119, 148.8248)"> </text><text class="cls-10" transform="matrix(0.5239, -0.8518, 0.8518, 0.5239, 56.2088, 144.7121)"> </text><text class="cls-10" transform="translate(58.6903 140.6769) rotate(-57.0611)"> </text><text class="cls-10" transform="translate(61.2621 136.7047) rotate(-55.7211)"> </text><text class="cls-10" transform="matrix(0.5824, -0.8129, 0.8129, 0.5824, 63.9349, 132.7824)"> </text><text class="cls-10" transform="translate(66.6976 128.9259) rotate(-53.0375)"> </text><text class="cls-10" transform="matrix(0.6198, -0.7848, 0.7848, 0.6198, 69.5467, 125.1373)"> </text><text class="cls-10" transform="matrix(0.638, -0.77, 0.77, 0.638, 72.4945, 121.4035)"> </text><text class="cls-10" transform="matrix(0.6559, -0.7549, 0.7549, 0.6559, 75.5282, 117.7413)"> </text><text class="cls-10" transform="translate(78.6322 114.1666) rotate(-47.6793)"> </text><text class="cls-10" transform="translate(81.8187 110.6657) rotate(-46.3447)"> </text><text class="cls-10" transform="translate(85.1117 107.213) rotate(-45)"> </text><text class="cls-10" transform="matrix(0.7234, -0.6905, 0.6905, 0.7234, 88.4583, 103.8659)"> </text><text class="cls-10" transform="translate(91.8817 100.5963) rotate(-42.3313)"> </text><text class="cls-10" transform="matrix(0.7548, -0.6559, 0.6559, 0.7548, 95.3954, 97.3947)"> </text><text class="cls-10" transform="translate(98.9837 94.2755) rotate(-39.6496)"> </text><text class="cls-10" transform="matrix(0.7846, -0.6199, 0.6199, 0.7846, 102.6317, 91.2511)"> </text><text class="cls-10" transform="translate(106.3504 88.3112) rotate(-36.9735)"> </text><text class="cls-10" transform="matrix(0.8128, -0.5826, 0.5826, 0.8128, 110.1395, 85.4577)"> </text><text class="cls-10" transform="matrix(0.8262, -0.5634, 0.5634, 0.8262, 113.9974, 82.6915)"> </text><text class="cls-10" transform="translate(117.9222 80.0148) rotate(-32.9443)"> </text><text class="cls-10" transform="translate(121.9124 77.4269) rotate(-31.5965)"> </text><text class="cls-10" transform="matrix(0.8638, -0.5039, 0.5039, 0.8638, 125.9344, 74.9518)"> </text><text class="cls-10" transform="translate(130.0521 72.5495) rotate(-28.9028)"> </text><text class="cls-10" transform="translate(134.1961 70.2604) rotate(-27.5564)"> </text><text class="cls-10" transform="matrix(0.8972, -0.4416, 0.4416, 0.8972, 138.3993, 68.0656)"> </text><text class="cls-10" transform="translate(142.6605 65.9669) rotate(-24.8537)"> </text><text class="cls-10" transform="matrix(0.917, -0.3988, 0.3988, 0.917, 146.9598, 63.9747)"> </text><text class="cls-10" transform="translate(151.3133 62.0802) rotate(-22.1472)"> </text><text class="cls-10" transform="matrix(0.9349, -0.355, 0.355, 0.9349, 155.7025, 60.2931)"> </text><text class="cls-10" transform="translate(160.1414 58.6061) rotate(-19.4367)"> </text><text class="cls-10" transform="matrix(0.9506, -0.3105, 0.3105, 0.9506, 164.5941, 57.0333)"> </text><text class="cls-10" transform="matrix(0.9577, -0.2877, 0.2877, 0.9577, 169.1307, 55.5514)"> </text><text class="cls-10" transform="translate(173.659 54.1901) rotate(-15.3706)"> </text><text class="cls-10" transform="translate(178.2308 52.9318) rotate(-14.0158)"> </text><text class="cls-10" transform="translate(182.8275 51.7829) rotate(-12.663)"> </text><text class="cls-10" transform="translate(187.4647 50.7409) rotate(-11.3068)"> </text><text class="cls-10" transform="translate(192.1229 49.8087) rotate(-9.9532)"> </text><text class="cls-10" transform="translate(196.7801 48.9899) rotate(-8.6086)"> </text><text class="cls-10" transform="matrix(0.992, -0.1263, 0.1263, 0.992, 201.4935, 48.276)"> </text><text class="cls-10" transform="translate(206.203 47.6754) rotate(-5.9118)"> </text><text class="cls-10" transform="translate(210.9056 47.1871) rotate(-4.5777)"> </text><text class="cls-10" transform="translate(215.6405 46.8078) rotate(-3.2415)"> </text><text class="cls-10" transform="translate(220.3661 46.5387) rotate(-1.9159)"> </text><text class="cls-10" transform="matrix(0.9999, -0.0162, 0.0162, 0.9999, 225.14, 46.3932)"> </text><text class="cls-10" transform="matrix(0.9999, 0.0162, -0.0162, 0.9999, 229.8524, 46.3209)"> </text><text class="cls-10" transform="matrix(0.9994, 0.0358, -0.0358, 0.9994, 234.6063, 46.3883)"> </text><text class="cls-10" transform="translate(239.3534 46.5582) rotate(3.3831)"> </text><text class="cls-10" transform="translate(244.0916 46.8375) rotate(4.719)"> </text><text class="cls-10" transform="translate(248.8221 47.2267) rotate(6.0588)"> </text><text class="cls-10" transform="matrix(0.9917, 0.1288, -0.1288, 0.9917, 253.5409, 47.7272)"> </text><text class="cls-10" transform="translate(258.2469 48.3366) rotate(8.7495)"> </text><text class="cls-10" transform="translate(262.9188 49.0548) rotate(10.0937)"> </text><text class="cls-10" transform="matrix(0.9801, 0.1986, -0.1986, 0.9801, 267.6131, 49.8898)"> </text><text class="cls-10" transform="translate(272.2518 50.8288) rotate(12.8029)"> </text><text class="cls-10" transform="matrix(0.9696, 0.2446, -0.2446, 0.9696, 276.8885, 51.881)"> </text><text class="cls-10" transform="matrix(0.9636, 0.2674, -0.2674, 0.9636, 281.4657, 53.0348)"> </text><text class="cls-10" transform="translate(286.0409 54.3034) rotate(16.8666)"> </text><text class="cls-10" transform="translate(290.5887 55.6813) rotate(18.225)"> </text><text class="cls-10" transform="translate(295.0907 57.1627) rotate(19.5803)"> </text><text class="cls-10" transform="translate(299.5643 58.7526) rotate(20.937)"> </text><text class="cls-10" transform="matrix(0.9253, 0.3793, -0.3793, 0.9253, 303.9911, 60.4454)"> </text><text class="cls-10" transform="translate(308.4002 62.2521) rotate(23.6503)"> </text><text class="cls-10" transform="translate(312.7225 64.1442) rotate(24.9959)"> </text><text class="cls-10" transform="translate(317.0272 66.15) rotate(26.3486)"> </text><text class="cls-10" transform="matrix(0.8854, 0.4648, -0.4648, 0.8854, 321.2762, 68.2536)"> </text><text class="cls-10" transform="translate(325.5018 70.4708) rotate(29.0543)"> </text><text class="cls-10" transform="matrix(0.8625, 0.506, -0.506, 0.8625, 329.6356, 72.7658)"> </text><text class="cls-10" transform="matrix(0.8504, 0.5262, -0.5262, 0.8504, 333.7411, 75.1745)"> </text><text class="cls-10" transform="translate(337.7538 77.6549) rotate(33.0845)"> </text><text class="cls-10" transform="translate(341.7342 80.2472) rotate(34.4298)"> </text><text class="cls-10" transform="matrix(0.8113, 0.5846, -0.5846, 0.8113, 345.6502, 82.9303)"> </text><text class="cls-10" transform="translate(349.4989 85.7023) rotate(37.1129)"> </text><text class="cls-10" transform="matrix(0.7831, 0.6218, -0.6218, 0.7831, 353.2791, 88.5617)"> </text><text class="cls-10" transform="matrix(0.7684, 0.64, -0.64, 0.7684, 357.0047, 91.5187)"> </text><text class="cls-10" transform="translate(360.659 94.5612) rotate(41.1355)"> </text><text class="cls-10" transform="translate(364.2254 97.6759) rotate(42.4702)"> </text><text class="cls-10" transform="matrix(0.7217, 0.6922, -0.6922, 0.7217, 367.7186, 100.8712)"> </text><text class="cls-10" transform="matrix(0.7053, 0.7089, -0.7089, 0.7053, 371.162, 104.1735)"> </text><text class="cls-10" transform="translate(374.5008 107.5285) rotate(46.4833)"> </text><text class="cls-10" transform="matrix(0.6715, 0.741, -0.741, 0.6715, 377.7606, 110.9606)"> </text><text class="cls-10" transform="matrix(0.654, 0.7565, -0.7565, 0.654, 380.9539, 114.4821)"> </text><text class="cls-10" transform="translate(384.0643 118.0792) rotate(50.4999)"> </text><text class="cls-10" transform="translate(387.0799 121.7345) rotate(51.8377)"> </text><text class="cls-10" transform="translate(390.0096 125.4616) rotate(53.1768)"> </text><text class="cls-10" transform="matrix(0.5804, 0.8143, -0.8143, 0.5804, 392.8534, 129.2584)"> </text><text class="cls-10" transform="matrix(0.5612, 0.8277, -0.8277, 0.5612, 395.6082, 133.1242)"> </text></g></g></g></svg>