<svg xmlns="http://www.w3.org/2000/svg" xmlns:xlink="http://www.w3.org/1999/xlink" viewBox="0 0 640 430"><defs><style>.cls-1{fill:none;}.cls-13,.cls-2{fill:#fff;}.cls-3{clip-path:url(#clip-path);}.cls-4,.cls-9{fill:#ef5675;}.cls-4,.cls-5,.cls-6,.cls-7{fill-rule:evenodd;}.cls-10,.cls-5{fill:#7a5195;}.cls-11,.cls-14,.cls-6{fill:#003f5c;}.cls-12,.cls-7{fill:#ffa600;}.cls-13,.cls-14,.cls-8{font-size:18px;font-family:Georgia;}</style><clipPath id="clip-path"><path class="cls-1" d="M175.3458,15.7319C69.5217,32.4928-2.6783,131.8675,14.0826,237.6917s116.1357,178.0241,221.96,161.2632,178.0241-116.1356,161.2632-221.96S281.17-1.029,175.3458,15.7319ZM224.31,324.8783A119,119,0,1,1,323.229,188.7277,119,119,0,0,1,224.31,324.8783Z"/></clipPath></defs><g id="Layer_2" data-name="Layer 2"><g id="Type_of_Organization" data-name="Type of Organization"><g id="background"><rect class="cls-2" width="640" height="430"/></g><g id="Chart"><g class="cls-3"><path class="cls-4" d="M205.6973,207.3429,386.2807,255.73c-14.9652,55.8507-49.17,96.6142-101.5734,121.05Z"/><path class="cls-5" d="M205.6973,207.3429l79.01,169.4376C191.13,420.4166,79.8957,379.9308,36.26,286.353c-27.927-59.89-23.3453-125.4121,12.6451-180.8324Z"/><path class="cls-6" d="M205.6973,207.3429,48.9047,105.5206C105.14,18.9264,220.9254-5.6846,307.52,50.55c50.2246,32.6162,79.2006,80.84,84.42,140.4985Z"/><path class="cls-7" d="M205.6973,207.3429,391.94,191.0488a179.6043,179.6043,0,0,1-5.6589,64.6813Z"/></g></g><g id="Legend"><text class="cls-8" transform="translate(488.3428 332.5739)">Startup, NGO,<tspan x="0" y="20">Non-Profit,</tspan><tspan x="0" y="40">Community,</tspan><tspan x="0" y="60">Education,</tspan><tspan x="0" y="80">Other</tspan></text><text class="cls-8" transform="translate(488.3428 298.5739)">Large Business</text><text class="cls-8" transform="translate(487.0708 264.8085)">Med. Business</text><text class="cls-8" transform="translate(487.0708 227.8085)">Small Business</text><rect id="Swatch_1" data-name="Swatch 1" class="cls-9" x="450" y="208.5365" width="24.7508" height="24.7508" transform="translate(683.2873 -241.4635) rotate(90)"/><rect id="Swatch_2" data-name="Swatch 2" class="cls-10" x="450" y="244.8425" width="24.7508" height="24.7508" transform="translate(719.5933 -205.1575) rotate(90)"/><rect id="Swatch_3" data-name="Swatch 3" class="cls-11" x="450" y="278.914" width="24.7508" height="24.7508" transform="translate(753.6648 -171.086) rotate(90)"/><rect id="Swatch_4" data-name="Swatch 4" class="cls-12" x="450" y="312.9855" width="24.7508" height="24.7508" transform="translate(787.7363 -137.0145) rotate(90)"/></g><g id="Inner_Labels" data-name="Inner Labels"><text class="cls-13" transform="matrix(-0.5186, 0.855, -0.855, -0.5186, 72.6287, 124.258)"> </text><text class="cls-13" transform="translate(70.3289 128.0534) rotate(119.6179)"> </text><text class="cls-13" transform="matrix(-0.4693, 0.883, -0.883, -0.4693, 68.1331, 131.9176)"> </text><text class="cls-13" transform="translate(66.0447 135.8502) rotate(116.3594)"> </text><text class="cls-13" transform="matrix(-0.4182, 0.9083, -0.9083, -0.4182, 64.0652, 139.8488)"> </text><text class="cls-13" transform="translate(62.2087 143.8844) rotate(113.0912)"> </text><text class="cls-13" transform="translate(60.4641 147.9811) rotate(111.4545)"> </text><text class="cls-13" transform="translate(58.8435 152.108) rotate(109.8232)"> </text><text class="cls-13" transform="matrix(-0.3119, 0.9501, -0.9501, -0.3119, 57.3269, 156.3205)"> </text><text class="cls-13" transform="translate(55.946 160.5304) rotate(106.5444)"> </text><text class="cls-13" transform="translate(54.6819 164.7921) rotate(104.9084)"> </text><text class="cls-13" transform="matrix(-0.2295, 0.9733, -0.9733, -0.2295, 53.5354, 169.1046)"> </text><text class="cls-13" transform="matrix(-0.2016, 0.9795, -0.9795, -0.2016, 52.5164, 173.4347)"> </text><text class="cls-13" transform="translate(51.6228 177.7809) rotate(100.0039)"> </text><text class="cls-13" transform="matrix(-0.1456, 0.9893, -0.9893, -0.1456, 50.8499, 182.1701)"> </text><text class="cls-13" transform="translate(50.2048 186.569) rotate(96.7476)"> </text><text class="cls-13" transform="translate(49.6843 190.9772) rotate(95.1317)"> </text><text class="cls-13" transform="translate(49.2864 195.422) rotate(93.5134)"> </text><text class="cls-13" transform="translate(49.0173 199.838) rotate(91.916)"> </text><text class="cls-13" transform="translate(48.8938 204.2018) rotate(90.9286)"> </text><text class="cls-13" transform="matrix(0.0415, 0.9991, -0.9991, 0.0415, 48.782, 208.9059)">4</text><text class="cls-13" transform="matrix(0.1093, 0.994, -0.994, 0.1093, 49.2478, 219.6334)">1</text><text class="cls-13" transform="translate(50.3831 230.5309) rotate(78.8842)">%</text><text class="cls-13" transform="translate(53.5061 245.4655) rotate(75.1812)"> </text><text class="cls-13" transform="translate(54.6013 250.3786) rotate(71.0606)">M</text><text class="cls-13" transform="translate(60.4856 266.8805) rotate(66.0867)">e</text><text class="cls-13" transform="translate(64.2351 275.3541) rotate(62.389)">d</text><text class="cls-13" transform="matrix(0.5092, 0.8606, -0.8606, 0.5092, 69.2791, 284.8317)">i</text><text class="cls-13" transform="translate(72.1213 289.7467) rotate(56.388)">u</text><text class="cls-13" transform="translate(78.2668 299.1422) rotate(51.3022)">m</text><text class="cls-13" transform="translate(88.7258 311.8522) rotate(47.4123)"> </text><text class="cls-13" transform="translate(91.9001 315.4362) rotate(44.3275)">B</text><text class="cls-13" transform="matrix(0.7653, 0.6437, -0.6437, 0.7653, 100.8367, 324.0924)">u</text><text class="cls-13" transform="matrix(0.8031, 0.5959, -0.5959, 0.8031, 109.2014, 331.0553)">s</text><text class="cls-13" transform="matrix(0.8281, 0.5606, -0.5606, 0.8281, 115.6951, 335.8327)">i</text><text class="cls-13" transform="translate(120.365 339.068) rotate(31.0452)">n</text><text class="cls-13" transform="translate(130.0012 344.8092) rotate(27.2956)">e</text><text class="cls-13" transform="translate(138.1404 348.9811) rotate(24.1101)">s</text><text class="cls-13" transform="translate(145.6155 352.3151) rotate(21.1021)">s</text><text class="cls-13" transform="translate(153.1375 355.1745) rotate(18.7733)"> </text><text class="cls-13" transform="translate(157.3567 356.6071) rotate(17.1334)"> </text><text class="cls-13" transform="translate(161.5999 357.9137) rotate(15.4987)"> </text><text class="cls-13" transform="translate(165.8943 359.1032) rotate(13.8592)"> </text><text class="cls-13" transform="translate(170.2078 360.1647) rotate(12.2259)"> </text><text class="cls-13" transform="translate(174.5676 361.1071) rotate(10.588)"> </text><text class="cls-13" transform="translate(178.9412 361.9245) rotate(8.9574)"> </text><text class="cls-13" transform="matrix(0.9918, 0.1277, -0.1277, 0.9918, 183.3264, 362.6139)"> </text><text class="cls-13" transform="translate(187.7512 363.1813) rotate(5.7079)"> </text><text class="cls-13" transform="translate(192.1829 363.6227) rotate(4.0911)"> </text><text class="cls-13" transform="translate(196.5872 363.9372) rotate(2.4937)"> </text><text class="cls-13" transform="translate(200.99 364.1266) rotate(0.9289)"> </text><text class="cls-13" transform="matrix(0.9999, -0.0162, 0.0162, 0.9999, 205.4753, 364.2047)"> </text><text class="cls-13" transform="matrix(0.9992, -0.0396, 0.0396, 0.9992, 209.8347, 364.1432)"> </text><text class="cls-13" transform="translate(214.282 363.9655) rotate(-3.8762)"> </text><text class="cls-13" transform="translate(218.697 363.6657) rotate(-5.4827)"> </text><text class="cls-13" transform="matrix(0.9923, -0.1238, 0.1238, 0.9923, 223.1414, 363.2379)"> </text><text class="cls-13" transform="translate(227.5486 362.6862) rotate(-8.7321)"> </text><text class="cls-13" transform="matrix(0.9837, -0.1799, 0.1799, 0.9837, 231.949, 362.0094)"> </text><text class="cls-13" transform="translate(236.3083 361.2096) rotate(-11.9906)"> </text><text class="cls-13" transform="translate(240.656 360.2858) rotate(-13.6247)"> </text><text class="cls-13" transform="translate(244.989 359.234) rotate(-15.2651)"> </text><text class="cls-13" transform="translate(249.2732 358.0631) rotate(-16.8999)"> </text><text class="cls-13" transform="matrix(0.9481, -0.318, 0.318, 0.9481, 253.5398, 356.7653)"> </text><text class="cls-13" transform="translate(257.7517 355.3512) rotate(-20.1769)"> </text><text class="cls-13" transform="translate(261.9402 353.8112) rotate(-21.8177)"> </text><text class="cls-13" transform="translate(266.0691 352.1549) rotate(-23.4529)"> </text><text class="cls-13" transform="translate(270.1414 350.3864) rotate(-25.0831)"> </text><text class="cls-13" transform="matrix(0.8932, -0.4496, 0.4496, 0.8932, 274.1804, 348.4948)"> </text><text class="cls-13" transform="translate(278.1531 346.4928) rotate(-28.3484)"> </text><text class="cls-13" transform="translate(282.0652 344.3815) rotate(-29.9755)"> </text><text class="cls-13" transform="translate(285.906 342.1637) rotate(-31.5964)"> </text><text class="cls-13" transform="matrix(0.8365, -0.5479, 0.5479, 0.8365, 289.7048, 339.8248)"> </text><text class="cls-13" transform="matrix(0.8092, -0.5876, 0.5876, 0.8092, 293.658, 337.3082)">1</text><text class="cls-13" transform="matrix(0.7672, -0.6414, 0.6414, 0.7672, 302.3416, 330.9772)">4</text><text class="cls-13" transform="translate(310.7839 324.0006) rotate(-44.7012)">%</text><text class="cls-13" transform="matrix(0.6644, -0.7474, 0.7474, 0.6644, 321.5046, 313.1315)"> </text><text class="cls-13" transform="translate(324.6628 309.6715) rotate(-51.1101)">S</text><text class="cls-13" transform="translate(331.6248 301.1803) rotate(-56.1516)">m</text><text class="cls-13" transform="translate(340.7595 287.2409) rotate(-60.9997)">a</text><text class="cls-13" transform="translate(345.2732 278.9879) rotate(-63.7274)">l</text><text class="cls-13" transform="translate(347.6287 274.2096) rotate(-65.6823)">l</text><text class="cls-13" transform="matrix(0.5993, -0.8005, 0.8005, 0.5993, 86.7727, 121.1613)"> </text><text class="cls-13" transform="matrix(0.6214, -0.7835, 0.7835, 0.6214, 89.2322, 117.8707)"> </text><text class="cls-13" transform="translate(91.7996 114.6305) rotate(-49.9762)"> </text><text class="cls-13" transform="translate(94.4353 111.4855) rotate(-48.384)"> </text><text class="cls-13" transform="matrix(0.6848, -0.7288, 0.7288, 0.6848, 97.177, 108.3961)"> </text><text class="cls-13" transform="matrix(0.7047, -0.7095, 0.7095, 0.7047, 99.9841, 105.4039)"> </text><text class="cls-13" transform="matrix(0.7243, -0.6895, 0.6895, 0.7243, 102.8914, 102.4718)"> </text><text class="cls-13" transform="translate(105.8816 99.6217) rotate(-41.9897)"> </text><text class="cls-13" transform="matrix(0.7616, -0.6481, 0.6481, 0.7616, 108.9294, 96.8737)"> </text><text class="cls-13" transform="translate(112.054 94.2106) rotate(-38.8045)"> </text><text class="cls-13" transform="translate(115.2747 91.6163) rotate(-37.1985)"> </text><text class="cls-13" transform="matrix(0.8131, -0.5821, 0.5821, 0.8131, 118.5471, 89.1286)"> </text><text class="cls-13" transform="translate(121.7419 86.7482) rotate(-32.9232)">3</text><text class="cls-13" transform="translate(129.7996 81.5109) rotate(-29.1735)">9</text><text class="cls-13" transform="translate(138.3391 76.8058) rotate(-26.3919)">.</text><text class="cls-13" transform="matrix(0.9163, -0.4005, 0.4005, 0.9163, 142.3064, 74.7545)">5</text><text class="cls-13" transform="translate(150.95 70.8478) rotate(-18.9837)">%</text><text class="cls-13" transform="translate(164.4353 66.362) rotate(-15.4318)"> </text><text class="cls-13" transform="translate(168.2273 65.2218) rotate(-12.5956)">L</text><text class="cls-13" transform="translate(178.3333 62.9767) rotate(-8.8901)">a</text><text class="cls-13" transform="translate(186.8909 61.65) rotate(-5.8442)">r</text><text class="cls-13" transform="translate(193.7903 60.9088) rotate(-2.8113)">g</text><text class="cls-13" transform="matrix(0.9999, 0.0162, -0.0162, 0.9999, 202.4294, 60.4376)">e</text><text class="cls-13" transform="matrix(0.9988, 0.049, -0.049, 0.9988, 210.8523, 60.5773)"> </text><text class="cls-13" transform="matrix(0.9949, 0.1006, -0.1006, 0.9949, 214.8015, 60.6647)">B</text><text class="cls-13" transform="matrix(0.9852, 0.1714, -0.1714, 0.9852, 225.9421, 61.796)">u</text><text class="cls-13" transform="matrix(0.9734, 0.2291, -0.2291, 0.9734, 235.6833, 63.5158)">s</text><text class="cls-13" transform="matrix(0.9628, 0.2702, -0.2702, 0.9628, 242.9216, 65.2389)">i</text><text class="cls-13" transform="matrix(0.9475, 0.3196, -0.3196, 0.9475, 247.6179, 66.4738)">n</text><text class="cls-13" transform="translate(257.2214 69.7291) rotate(22.2459)">e</text><text class="cls-13" transform="translate(264.8816 72.8634) rotate(25.3125)">s</text><text class="cls-13" transform="translate(271.5466 76.0045) rotate(28.1971)">s</text><text class="cls-13" transform="matrix(0.8622, 0.5066, -0.5066, 0.8622, 278.1062, 79.5524)"> </text><text class="cls-13" transform="translate(281.6638 81.6388) rotate(32.05)"> </text><text class="cls-13" transform="translate(285.157 83.8224) rotate(33.6552)"> </text><text class="cls-13" transform="translate(288.5837 86.0997) rotate(35.2569)"> </text><text class="cls-13" transform="matrix(0.8002, 0.5998, -0.5998, 0.8002, 291.9421, 88.4708)"> </text><text class="cls-13" transform="translate(295.2527 90.9494) rotate(38.4618)"> </text><text class="cls-13" transform="translate(298.4714 93.5001) rotate(40.0561)"> </text><text class="cls-13" transform="matrix(0.7471, 0.6647, -0.6647, 0.7471, 301.6355, 96.1569)"> </text><text class="cls-13" transform="matrix(0.7284, 0.6852, -0.6852, 0.7284, 304.7029, 98.882)"> </text><text class="cls-13" transform="translate(307.7136 101.7091) rotate(44.8508)"> </text><text class="cls-13" transform="matrix(0.689, 0.7248, -0.7248, 0.689, 310.6433, 104.6203)"> </text><text class="cls-13" transform="matrix(0.6686, 0.7436, -0.7436, 0.6686, 313.4734, 107.5914)"> </text><text class="cls-13" transform="translate(316.2361 110.6622) rotate(49.6445)"> </text><text class="cls-13" transform="translate(318.8972 113.7882) rotate(51.2381)"> </text><text class="cls-13" transform="translate(321.489 117.0109) rotate(52.8447)"> </text><text class="cls-13" transform="matrix(0.5815, 0.8135, -0.8135, 0.5815, 323.9734, 120.2848)"> </text><text class="cls-13" transform="translate(326.3689 123.63) rotate(56.0433)"> </text><text class="cls-13" transform="matrix(0.5351, 0.8448, -0.8448, 0.5351, 328.6726, 127.0451)"> </text><text class="cls-13" transform="translate(330.8806 130.526) rotate(59.2566)"> </text><text class="cls-13" transform="translate(332.9802 134.0499) rotate(60.8589)"> </text><text class="cls-13" transform="translate(334.9978 137.6593) rotate(62.4757)"> </text><text class="cls-13" transform="translate(336.9001 141.3068) rotate(64.0875)"> </text><text class="cls-13" transform="matrix(0.4114, 0.9114, -0.9114, 0.4114, 338.7058, 145.0138)"> </text><text class="cls-13" transform="translate(340.3962 148.7526) rotate(67.3148)"> </text><text class="cls-13" transform="translate(341.9861 152.5465) rotate(68.9308)"> </text><text class="cls-13" transform="translate(343.4714 156.3927) rotate(70.5528)"> </text><text class="cls-13" transform="translate(344.8425 160.2653) rotate(72.1677)"> </text><text class="cls-13" transform="translate(346.1072 164.1872) rotate(73.7894)"> </text><text class="cls-13" transform="matrix(0.252, 0.9677, -0.9677, 0.252, 347.2566, 168.1295)"> </text><text class="cls-13" transform="translate(348.2986 172.1173) rotate(77.0239)"> </text><text class="cls-13" transform="translate(349.2234 176.1212) rotate(78.6369)"> </text><text class="cls-13" transform="translate(350.0408 180.1666) rotate(80.2547)"> </text><text class="cls-13" transform="matrix(0.1415, 0.9899, -0.9899, 0.1415, 350.741, 184.2238)"> </text><text class="cls-13" transform="translate(351.325 188.2902) rotate(83.4665)"> </text><text class="cls-13" transform="translate(351.7976 192.3932) rotate(85.0721)"> </text><text class="cls-13" transform="matrix(0.0581, 0.9983, -0.9983, 0.0581, 352.1541, 196.5016)"> </text><text class="cls-13" transform="translate(352.3972 200.6134) rotate(88.2543)"> </text><text class="cls-13" transform="matrix(0.0162, 0.9999, -0.9999, 0.0162, 352.4978, 204.7633)"> </text><text class="cls-13" transform="translate(352.5408 208.8473) rotate(91.4058)"> </text><text class="cls-13" transform="translate(352.4431 212.9704) rotate(92.9922)"> </text><text class="cls-13" transform="translate(352.2302 217.0944) rotate(94.589)"> </text><text class="cls-13" transform="matrix(-0.1077, 0.9942, -0.9942, -0.1077, 351.905, 221.1862)"> </text><text class="cls-13" transform="matrix(-0.1355, 0.9908, -0.9908, -0.1355, 351.4666, 225.277)"> </text><text class="cls-13" transform="translate(350.9099 229.36) rotate(99.3967)"> </text><text class="cls-13" transform="matrix(-0.1911, 0.9816, -0.9816, -0.1911, 350.239, 233.4372)"> </text><text class="cls-13" transform="translate(349.4558 237.4743) rotate(102.6291)"> </text><text class="cls-13" transform="matrix(-0.2462, 0.9692, -0.9692, -0.2462, 348.5574, 241.5006)"> </text><text class="cls-13" transform="translate(347.5496 245.484) rotate(105.8661)"> </text><text class="cls-13" transform="matrix(-0.3005, 0.9538, -0.9538, -0.3005, 346.4236, 249.4518)"> </text><text class="cls-13" transform="translate(345.1931 253.3727) rotate(109.1047)"> </text><text class="cls-13" transform="translate(343.8533 257.2467) rotate(110.7168)"> </text><text class="cls-13" transform="translate(342.4021 261.0973) rotate(112.3343)"> </text><text class="cls-13" transform="translate(340.8337 264.9215) rotate(113.957)"> </text><text class="cls-13" transform="translate(339.1609 268.692) rotate(115.5738)"> </text><text class="cls-13" transform="matrix(-0.4569, 0.8895, -0.8895, -0.4569, 337.3865, 272.4069)"> </text><text class="cls-13" transform="matrix(-0.4817, 0.8764, -0.8764, -0.4817, 335.5134, 276.0622)"> </text><text class="cls-13" transform="translate(333.5398 279.6588) rotate(120.3978)"> </text><text class="cls-13" transform="matrix(-0.53, 0.848, -0.848, -0.53, 331.4558, 283.2174)"> </text><text class="cls-13" transform="translate(329.2751 286.7125) rotate(123.6119)"> </text><text class="cls-13" transform="matrix(-0.5766, 0.817, -0.817, -0.5766, 326.9998, 290.1413)"> </text><text class="cls-13" transform="matrix(-0.5992, 0.8006, -0.8006, -0.5992, 324.6316, 293.5036)"> </text><text class="cls-13" transform="matrix(-0.6214, 0.7835, -0.7835, -0.6214, 322.156, 296.8161)"> </text><text class="cls-13" transform="matrix(-0.643, 0.7659, -0.7659, -0.643, 319.6072, 300.0358)"> </text><text class="cls-13" transform="matrix(-0.6641, 0.7476, -0.7476, -0.6641, 316.9519, 303.1998)"> </text><text class="cls-13" transform="translate(314.2302 306.2702) rotate(133.2069)"> </text><text class="cls-13" transform="translate(311.405 309.2838) rotate(134.8081)"> </text><text class="cls-13" transform="translate(308.4958 312.2155) rotate(136.4082)"> </text><text class="cls-13" transform="matrix(-0.7431, 0.6691, -0.6691, -0.7431, 305.5281, 315.0465)"> </text><text class="cls-13" transform="matrix(-0.7616, 0.6481, -0.6481, -0.7616, 302.4587, 317.8131)"> </text><text class="cls-13" transform="translate(299.3337 320.4762) rotate(141.1952)"> </text><text class="cls-13" transform="matrix(-0.7965, 0.6046, -0.6046, -0.7965, 296.114, 323.07)"> </text><text class="cls-13" transform="translate(292.8416 325.5582) rotate(144.3991)"> </text><text class="cls-13" transform="matrix(-0.829, 0.5592, -0.5592, -0.829, 289.4978, 327.9547)"> </text><text class="cls-13" transform="matrix(-0.8444, 0.5358, -0.5358, -0.8444, 286.0847, 330.2614)"> </text><text class="cls-13" transform="matrix(-0.8591, 0.5118, -0.5118, -0.8591, 282.6052, 332.4733)"> </text><text class="cls-13" transform="matrix(-0.873, 0.4876, -0.4876, -0.873, 279.0847, 334.5748)"> </text><text class="cls-13" transform="translate(275.4753 336.5934) rotate(152.433)"> </text><text class="cls-13" transform="translate(271.8298 338.5006) rotate(154.0442)"> </text><text class="cls-13" transform="translate(268.1248 340.3073) rotate(155.6604)"> </text><text class="cls-13" transform="translate(264.3875 342.0006) rotate(157.2713)"> </text><text class="cls-13" transform="translate(260.5691 343.6041) rotate(158.8976)"> </text><text class="cls-13" transform="translate(256.7498 345.0817) rotate(160.5081)"> </text><text class="cls-13" transform="translate(252.8787 346.4557) rotate(162.1234)"> </text><text class="cls-13" transform="matrix(-0.96, 0.2799, -0.2799, -0.96, 248.9578, 347.7233)"> </text><text class="cls-13" transform="matrix(-0.9676, 0.2526, -0.2526, -0.9676, 244.989, 348.8834)"> </text><text class="cls-13" transform="translate(241.032 349.9196) rotate(166.9789)"> </text><text class="cls-13" transform="translate(237.0007 350.8561) rotate(168.6032)"> </text><text class="cls-13" transform="translate(232.9841 351.6686) rotate(170.2093)"> </text><text class="cls-13" transform="matrix(-0.9898, 0.1423, -0.1423, -0.9898, 228.9285, 352.3707)"> </text><text class="cls-13" transform="translate(224.8337 352.9625) rotate(173.4328)"> </text><text class="cls-13" transform="translate(220.7605 353.4352) rotate(175.027)"> </text><text class="cls-13" transform="translate(216.6521 353.7955) rotate(176.6224)"> </text><text class="cls-13" transform="translate(212.5408 354.0416) rotate(178.2083)"> </text><text class="cls-13" transform="translate(208.3669 354.1471) rotate(179.071)"> </text><text class="cls-13" transform="matrix(-0.9997, -0.0239, 0.0239, -0.9997, 204.2786, 354.192)"> </text><text class="cls-13" transform="matrix(-0.9987, -0.0514, 0.0514, -0.9987, 200.1843, 354.0963)"> </text></g><g id="Outside_Labels" data-name="Outside Labels"><text class="cls-14" transform="translate(275.9316 290.9385) rotate(-41.1992)"> </text><text class="cls-14" transform="translate(279.5586 287.748) rotate(-43.7181)"> </text><text class="cls-14" transform="translate(283.0264 284.4189) rotate(-46.2272)"> </text><text class="cls-14" transform="matrix(0.6595, -0.7517, 0.7517, 0.6595, 286.3467, 280.9385)"> </text><text class="cls-14" transform="translate(289.5127 277.3154) rotate(-51.2483)"> </text><text class="cls-14" transform="matrix(0.5911, -0.8066, 0.8066, 0.5911, 292.5176, 273.5527)"> </text><text class="cls-14" transform="translate(295.3486 269.6729) rotate(-56.2797)"> </text><text class="cls-14" transform="matrix(0.5178, -0.8555, 0.8555, 0.5178, 298.0215, 265.6484)"> </text><text class="cls-14" transform="translate(300.499 261.5361) rotate(-61.3359)"> </text><text class="cls-14" transform="matrix(0.4402, -0.8979, 0.8979, 0.4402, 302.8076, 257.2891)"> </text><text class="cls-14" transform="translate(304.916 252.9697) rotate(-66.415)"> </text><text class="cls-14" transform="matrix(0.359, -0.9334, 0.9334, 0.359, 306.8359, 248.542)"> </text><text class="cls-14" transform="translate(308.5654 244.0156) rotate(-71.5249)"> </text><text class="cls-14" transform="translate(310.0781 239.4551) rotate(-74.067)"> </text><text class="cls-14" transform="matrix(0.2058, -0.9786, 0.9786, 0.2058, 311.5381, 234.5752)">5</text><text class="cls-14" transform="translate(313.5488 224.4561) rotate(-82.3269)">.</text><text class="cls-14" transform="matrix(0.0613, -0.9981, 0.9981, 0.0613, 314.3564, 218.8794)">5</text><text class="cls-14" transform="translate(315.0986 208.0698) rotate(-93.423)">%</text></g></g></g></svg>