<svg xmlns="http://www.w3.org/2000/svg" xmlns:xlink="http://www.w3.org/1999/xlink" viewBox="0 0 647.3646 476.3556"><defs><style>.cls-1{fill:none;}.cls-13,.cls-2{fill:#fff;}.cls-3{clip-path:url(#clip-path);}.cls-4{fill:#ef5675;}.cls-4,.cls-5,.cls-6,.cls-7{fill-rule:evenodd;}.cls-12,.cls-5{fill:#7a5195;}.cls-10,.cls-14,.cls-15,.cls-6{fill:#003f5c;}.cls-11,.cls-7{fill:#ffa600;}.cls-8{font-size:28px;}.cls-13,.cls-14,.cls-15,.cls-8,.cls-9{font-family:Georgia;}.cls-13,.cls-15,.cls-9{font-size:20px;}.cls-14{font-size:10.4963px;}</style><clipPath id="clip-path"><path class="cls-1" d="M182.938,48.9664C77.1138,65.7273,4.9138,165.1021,21.6747,270.9263S137.81,448.95,243.6345,432.19,421.6587,316.0538,404.8978,210.23,288.7621,32.2055,182.938,48.9664Zm48.9639,309.1465a119,119,0,1,1,98.9193-136.1506A119,119,0,0,1,231.9019,358.1129Z"/></clipPath></defs><title>11</title><g id="Layer_2" data-name="Layer 2"><g id="Type_of_Organization" data-name="Type of Organization"><g id="background"><rect class="cls-2" x="7.3646" y="6.3556" width="640" height="470"/></g><g id="Chart"><g class="cls-3"><path class="cls-4" d="M213.2894,240.5775l180.5834,48.3872c-14.9651,55.8507-49.17,96.6142-101.5733,121.05Z"/><path class="cls-5" d="M213.2894,240.5775,292.3,410.0151c-93.5779,43.6361-204.8117,3.15-248.4477-90.4276-27.9271-59.89-23.3453-125.4121,12.645-180.8323Z"/><path class="cls-6" d="M213.2894,240.5775,56.4968,138.7552C112.7317,52.161,228.5175,27.55,315.1117,83.7849c50.2246,32.6162,79.2006,80.84,84.42,140.4985Z"/><path class="cls-7" d="M213.2894,240.5775l186.2423-16.2941a179.6043,179.6043,0,0,1-5.6589,64.6813Z"/></g></g><g id="Headline"><text id="Headline-2" data-name="Headline" class="cls-8" transform="matrix(0.8475, -0.5309, 0.5309, 0.8475, 96.8842, 70.6829)">T</text><text class="cls-8" transform="translate(110.8443 61.9756) rotate(-27.9719)">y</text><text class="cls-8" transform="matrix(0.9132, -0.4075, 0.4075, 0.9132, 122.2381, 55.8489)">p</text><text class="cls-8" transform="matrix(0.9388, -0.3444, 0.3444, 0.9388, 136.0801, 49.6867)">e</text><text class="cls-8" transform="translate(148.2793 45.2828) rotate(-17.4556)"> </text><text class="cls-8" transform="matrix(0.9679, -0.2514, 0.2514, 0.9679, 154.1005, 43.325)">o</text><text class="cls-8" transform="matrix(0.9804, -0.1971, 0.1971, 0.9804, 168.0442, 39.7686)">f</text><text class="cls-8" transform="matrix(0.9869, -0.1611, 0.1611, 0.9869, 176.5494, 38.0727)"> </text><text class="cls-8" transform="matrix(0.9951, -0.0985, 0.0985, 0.9951, 182.4157, 36.8658)">O</text><text class="cls-8" transform="matrix(0.9997, -0.0253, 0.0253, 0.9997, 202.2595, 35.0419)">r</text><text class="cls-8" transform="translate(213.0247 34.7092) rotate(1.8717)">g</text><text class="cls-8" transform="translate(226.4765 35.1242) rotate(5.5623)">a</text><text class="cls-8" transform="matrix(0.986, 0.1666, -0.1666, 0.986, 239.6718, 36.3356)">n</text><text class="cls-8" transform="matrix(0.9749, 0.2224, -0.2224, 0.9749, 255.2659, 39.0695)">i</text><text class="cls-8" transform="translate(262.7256 40.7063) rotate(15.5871)">z</text><text class="cls-8" transform="translate(273.9804 43.7948) rotate(19.0985)">a</text><text class="cls-8" transform="translate(286.6631 48.232) rotate(22.2443)">t</text><text class="cls-8" transform="translate(295.1227 51.6959) rotate(24.6003)">i</text><text class="cls-8" transform="matrix(0.8856, 0.4644, -0.4644, 0.8856, 302.0356, 54.7398)">o</text><text class="cls-8" transform="translate(314.6504 61.2899) rotate(31.836)">n</text><text/></g><g id="Legend"><text class="cls-9" transform="translate(495.9349 365.8085)">Startup, NGO,<tspan x="0" y="24">Non-Profit,</tspan><tspan x="0" y="48">Community,</tspan><tspan x="0" y="72">Education,</tspan><tspan x="0" y="96">Other</tspan></text><text class="cls-9" transform="translate(495.9349 331.8085)">Large Business</text><text class="cls-9" transform="translate(494.6629 298.043)">Med. Business</text><text class="cls-9" transform="translate(494.6629 261.043)">Small Business</text><rect id="Swatch_1" data-name="Swatch 1" class="cls-10" x="457.5921" y="241.7711" width="24.7508" height="24.7508" transform="translate(724.114 -215.8211) rotate(90)"/><rect id="Swatch_2" data-name="Swatch 2" class="cls-11" x="457.5921" y="278.0771" width="24.7508" height="24.7508" transform="translate(760.42 -179.515) rotate(90)"/><rect id="Swatch_3" data-name="Swatch 3" class="cls-12" x="457.5921" y="312.1486" width="24.7508" height="24.7508" transform="translate(794.4915 -145.4435) rotate(90)"/><rect id="Swatch_4" data-name="Swatch 4" class="cls-10" x="457.5921" y="346.2201" width="24.7508" height="24.7508" transform="translate(828.563 -111.372) rotate(90)"/></g><g id="Inner_Labels" data-name="Inner Labels"><text class="cls-13" transform="translate(80.2052 157.5125) rotate(121.143)"> </text><text class="cls-13" transform="translate(77.6207 161.7938) rotate(119.3146)"> </text><text class="cls-13" transform="translate(75.1847 166.1375) rotate(117.4912)"> </text><text class="cls-13" transform="matrix(-0.4332, 0.9013, -0.9013, -0.4332, 72.8966, 170.5389)"> </text><text class="cls-13" transform="translate(70.7447 175.0218) rotate(113.8471)"> </text><text class="cls-13" transform="translate(68.7306 179.5828) rotate(112.0151)"> </text><text class="cls-13" transform="translate(66.8702 184.1908) rotate(110.1872)"> </text><text class="cls-13" transform="translate(65.1519 188.8709) rotate(108.3525)"> </text><text class="cls-13" transform="matrix(-0.2844, 0.9587, -0.9587, -0.2844, 63.5894, 193.5912)"> </text><text class="cls-13" transform="translate(62.172 198.3773) rotate(104.6852)"> </text><text class="cls-13" transform="translate(60.9117 203.1966) rotate(102.853)"> </text><text class="cls-13" transform="translate(59.8077 208.0453) rotate(101.0263)"> </text><text class="cls-13" transform="translate(58.8604 212.9217) rotate(99.2051)"> </text><text class="cls-13" transform="translate(58.0641 217.8495) rotate(97.3798)"> </text><text class="cls-13" transform="translate(57.4259 222.7967) rotate(95.5615)"> </text><text class="cls-13" transform="translate(56.9478 227.7298) rotate(93.7624)"> </text><text class="cls-13" transform="translate(56.6236 232.7059) rotate(91.9614)"> </text><text class="cls-13" transform="translate(56.4884 237.533) rotate(90.9286)"> </text><text class="cls-13" transform="translate(56.442 242.6209) rotate(88.4014)"> </text><text class="cls-13" transform="translate(56.5826 247.5828) rotate(86.6107)"> </text><text class="cls-13" transform="translate(56.8204 252.8641) rotate(83.5233)">4</text><text class="cls-13" transform="translate(58.2037 264.7938) rotate(79.131)">1</text><text class="cls-13" transform="matrix(0.281, 0.9597, -0.9597, 0.281, 60.4522, 276.8875)">%</text><text class="cls-13" transform="translate(65.4752 293.201) rotate(69.5147)"> </text><text class="cls-13" transform="matrix(0.4238, 0.9058, -0.9058, 0.4238, 67.2208, 298.5662)">M</text><text class="cls-13" transform="matrix(0.5092, 0.8606, -0.8606, 0.5092, 75.7525, 316.1756)">e</text><text class="cls-13" transform="translate(81.0304 325.1102) rotate(55.2695)">d</text><text class="cls-13" transform="matrix(0.6167, 0.7872, -0.7872, 0.6167, 87.9488, 334.9198)">i</text><text class="cls-13" transform="matrix(0.6615, 0.75, -0.75, 0.6615, 91.8185, 339.9676)">u</text><text class="cls-13" transform="translate(100.0797 349.4813) rotate(42.9082)">m</text><text class="cls-13" transform="translate(113.7135 361.784) rotate(38.5583)"> </text><text class="cls-13" transform="matrix(0.8181, 0.5751, -0.5751, 0.8181, 117.8399, 365.2118)">B</text><text class="cls-13" transform="translate(129.3009 373.1834) rotate(30.2998)">u</text><text class="cls-13" transform="matrix(0.8959, 0.4442, -0.4442, 0.8959, 139.8404, 379.2586)">s</text><text class="cls-13" transform="translate(147.9332 383.2235) rotate(23.5731)">i</text><text class="cls-13" transform="translate(153.7838 385.8563) rotate(20.121)">n</text><text class="cls-13" transform="translate(165.5875 390.1092) rotate(15.9001)">e</text><text class="cls-13" transform="matrix(0.9769, 0.2135, -0.2135, 0.9769, 175.4317, 392.8787)">s</text><text class="cls-13" transform="translate(184.379 394.8182) rotate(8.9695)">s</text><text class="cls-13" transform="matrix(0.9938, 0.1112, -0.1112, 0.9938, 193.2555, 396.1678)"> </text><text class="cls-13" transform="translate(198.1974 396.7196) rotate(4.578)"> </text><text class="cls-13" transform="translate(203.1549 397.1131) rotate(2.7772)"> </text><text class="cls-13" transform="translate(208.0904 397.3504) rotate(0.9982)"> </text><text class="cls-13" transform="matrix(0.9999, -0.0162, 0.0162, 0.9999, 213.0719, 397.4412)"> </text><text class="cls-13" transform="translate(218.003 397.3661) rotate(-2.5618)"> </text><text class="cls-13" transform="translate(222.9737 397.1405) rotate(-4.3623)"> </text><text class="cls-13" transform="translate(227.9366 396.7606) rotate(-6.1716)"> </text><text class="cls-13" transform="translate(232.8878 396.2215) rotate(-7.9887)"> </text><text class="cls-13" transform="translate(237.8204 395.5262) rotate(-9.8124)"> </text><text class="cls-13" transform="translate(242.7071 394.6805) rotate(-11.6325)"> </text><text class="cls-13" transform="translate(247.5987 393.6707) rotate(-13.4683)"> </text><text class="cls-13" transform="matrix(0.9646, -0.2638, 0.2638, 0.9646, 252.4356, 392.5096)"> </text><text class="cls-13" transform="translate(257.2452 391.1912) rotate(-17.1335)"> </text><text class="cls-13" transform="matrix(0.9457, -0.3249, 0.3249, 0.9457, 261.9903, 389.7264)"> </text><text class="cls-13" transform="translate(266.6983 388.1053) rotate(-20.7936)"> </text><text class="cls-13" transform="translate(271.3673 386.3299) rotate(-22.6302)"> </text><text class="cls-13" transform="translate(275.964 384.411) rotate(-24.4598)"> </text><text class="cls-13" transform="translate(280.4854 382.3524) rotate(-26.2828)"> </text><text class="cls-13" transform="matrix(0.882, -0.4712, 0.4712, 0.882, 284.9542, 380.1414)"> </text><text class="cls-13" transform="matrix(0.8666, -0.499, 0.499, 0.8666, 289.3438, 377.7928)"> </text><text class="cls-13" transform="translate(293.6495 375.3123) rotate(-31.7478)"> </text><text class="cls-13" transform="matrix(0.8333, -0.5528, 0.5528, 0.8333, 297.8663, 372.701)"> </text><text class="cls-13" transform="translate(302.0186 369.9432) rotate(-35.3751)"> </text><text class="cls-13" transform="matrix(0.7967, -0.6044, 0.6044, 0.7967, 306.0772, 367.0584)"> </text><text class="cls-13" transform="translate(310.0382 364.0496) rotate(-38.9967)"> </text><text class="cls-13" transform="matrix(0.7569, -0.6535, 0.6535, 0.7569, 313.9024, 360.9198)"> </text><text class="cls-13" transform="translate(317.9405 357.5291) rotate(-43.88)">S</text><text class="cls-13" transform="translate(326.8868 349.0702) rotate(-49.5059)">m</text><text class="cls-13" transform="translate(338.7989 334.7743) rotate(-54.9046)">a</text><text class="cls-13" transform="translate(344.797 326.119) rotate(-57.9497)">l</text><text class="cls-13" transform="translate(347.9474 321.0789) rotate(-60.1228)">l</text><text class="cls-13" transform="translate(94.3502 154.4105) rotate(-53.0909)"> </text><text class="cls-13" transform="translate(97.0782 150.7703) rotate(-51.3238)"> </text><text class="cls-13" transform="translate(99.9342 147.1971) rotate(-49.5487)"> </text><text class="cls-13" transform="translate(102.8971 143.7157) rotate(-47.7755)"> </text><text class="cls-13" transform="translate(105.9659 140.3285) rotate(-46.0034)"> </text><text class="cls-13" transform="translate(109.1187 137.0575) rotate(-44.2422)"> </text><text class="cls-13" transform="matrix(0.7376, -0.6752, 0.6752, 0.7376, 112.3902, 133.8656)"> </text><text class="cls-13" transform="translate(115.7599 130.7757) rotate(-40.697)"> </text><text class="cls-13" transform="matrix(0.778, -0.6283, 0.6283, 0.778, 119.2252, 127.7904)"> </text><text class="cls-13" transform="matrix(0.797, -0.604, 0.604, 0.797, 122.7613, 124.929)"> </text><text class="cls-13" transform="matrix(0.8154, -0.5789, 0.5789, 0.8154, 126.4093, 122.1595)"> </text><text class="cls-13" transform="matrix(0.8329, -0.5534, 0.5534, 0.8329, 130.1222, 119.5184)"> </text><text class="cls-13" transform="translate(133.7286 117.0091) rotate(-30.635)">3</text><text class="cls-13" transform="translate(142.8897 111.5575) rotate(-26.4685)">9</text><text class="cls-13" transform="translate(152.5792 106.8075) rotate(-23.387)">.</text><text class="cls-13" transform="translate(157.0958 104.7547) rotate(-20.2864)">5</text><text class="cls-13" transform="matrix(0.9652, -0.2614, 0.2614, 0.9652, 166.9137, 100.9691)">%</text><text class="cls-13" transform="translate(182.1627 97.0228) rotate(-11.2282)"> </text><text class="cls-13" transform="translate(186.4259 96.0628) rotate(-8.1012)">L</text><text class="cls-13" transform="matrix(0.9975, -0.0702, 0.0702, 0.9975, 197.8023, 94.4588)">a</text><text class="cls-13" transform="translate(207.401 93.8158) rotate(-0.9286)">r</text><text class="cls-13" transform="translate(215.0831 93.6634) rotate(2.6411)">g</text><text class="cls-13" transform="translate(224.714 94.0975) rotate(6.2732)">e</text><text class="cls-13" transform="translate(233.9259 95.158) rotate(8.9461)"> </text><text class="cls-13" transform="translate(238.256 95.7044) rotate(12.2709)">B</text><text class="cls-13" transform="translate(250.3683 98.3431) rotate(16.8334)">u</text><text class="cls-13" transform="translate(260.8604 101.5482) rotate(20.5843)">s</text><text class="cls-13" transform="translate(268.5714 104.4691) rotate(23.2773)">i</text><text class="cls-13" transform="translate(273.5567 106.5067) rotate(26.5552)">n</text><text class="cls-13" transform="matrix(0.8614, 0.5079, -0.5079, 0.8614, 283.5968, 111.5438)">e</text><text class="cls-13" transform="translate(291.4972 116.2025) rotate(33.9021)">s</text><text class="cls-13" transform="matrix(0.7977, 0.6031, -0.6031, 0.7977, 298.3106, 120.7664)">s</text><text class="cls-13" transform="matrix(0.7709, 0.6369, -0.6369, 0.7709, 304.8917, 125.7845)"> </text><text class="cls-13" transform="matrix(0.7509, 0.6604, -0.6604, 0.7509, 308.3985, 128.6766)"> </text><text class="cls-13" transform="matrix(0.7302, 0.6833, -0.6833, 0.7302, 311.8331, 131.6917)"> </text><text class="cls-13" transform="translate(315.1739 134.8119) rotate(44.8722)"> </text><text class="cls-13" transform="matrix(0.6865, 0.7271, -0.7271, 0.6865, 318.4151, 138.0335)"> </text><text class="cls-13" transform="translate(321.5567 141.3553) rotate(48.4161)"> </text><text class="cls-13" transform="matrix(0.6404, 0.7681, -0.7681, 0.6404, 324.5763, 144.7518)"> </text><text class="cls-13" transform="translate(327.5089 148.263) rotate(51.9554)"> </text><text class="cls-13" transform="translate(330.3165 151.8436) rotate(53.7235)"> </text><text class="cls-13" transform="translate(333.0304 155.536) rotate(55.5062)"> </text><text class="cls-13" transform="translate(335.6173 159.2909) rotate(57.2819)"> </text><text class="cls-13" transform="translate(338.087 163.1302) rotate(59.0625)"> </text><text class="cls-13" transform="translate(340.4259 167.0252) rotate(60.8369)"> </text><text class="cls-13" transform="translate(342.6622 171.0223) rotate(62.6279)"> </text><text class="cls-13" transform="translate(344.7638 175.0706) rotate(64.4141)"> </text><text class="cls-13" transform="translate(346.7403 179.1912) rotate(66.2074)"> </text><text class="cls-13" transform="matrix(0.3747, 0.9272, -0.9272, 0.3747, 348.5811, 183.3573)"> </text><text class="cls-13" transform="translate(350.295 187.5892) rotate(69.7908)"> </text><text class="cls-13" transform="matrix(0.316, 0.9488, -0.9488, 0.316, 351.8722, 191.8597)"> </text><text class="cls-13" transform="translate(353.3194 196.1922) rotate(73.378)"> </text><text class="cls-13" transform="translate(354.627 200.5575) rotate(75.1698)"> </text><text class="cls-13" transform="translate(355.8019 204.9788) rotate(76.9678)"> </text><text class="cls-13" transform="translate(356.8302 209.3983) rotate(78.749)"> </text><text class="cls-13" transform="matrix(0.1642, 0.9864, -0.9864, 0.1642, 357.7286, 213.8978)"> </text><text class="cls-13" transform="matrix(0.1335, 0.991, -0.991, 0.1335, 358.4806, 218.39)"> </text><text class="cls-13" transform="matrix(0.1028, 0.9947, -0.9947, 0.1028, 359.0919, 222.8988)"> </text><text class="cls-13" transform="matrix(0.0719, 0.9974, -0.9974, 0.0719, 359.5665, 227.452)"> </text><text class="cls-13" transform="translate(359.8995 232.0174) rotate(87.6424)"> </text><text class="cls-13" transform="matrix(0.0162, 0.9999, -0.9999, 0.0162, 360.0772, 236.6214)"> </text><text class="cls-13" transform="matrix(-0.0198, 0.9998, -0.9998, -0.0198, 360.1436, 241.1307)"> </text><text class="cls-13" transform="translate(360.0587 245.7) rotate(92.8911)"> </text><text class="cls-13" transform="matrix(-0.0812, 0.9967, -0.9967, -0.0812, 359.8311, 250.2635)"> </text><text class="cls-13" transform="translate(359.463 254.8182) rotate(96.4317)"> </text><text class="cls-13" transform="matrix(-0.1429, 0.9897, -0.9897, -0.1429, 358.9552, 259.3612)"> </text><text class="cls-13" transform="translate(358.3097 263.8621) rotate(99.9924)"> </text><text class="cls-13" transform="translate(357.5245 268.3455) rotate(101.7783)"> </text><text class="cls-13" transform="translate(356.5909 272.8397) rotate(103.5795)"> </text><text class="cls-13" transform="translate(355.5294 277.2537) rotate(105.3648)"> </text><text class="cls-13" transform="translate(354.3204 281.6707) rotate(107.167)"> </text><text class="cls-13" transform="translate(352.9767 286.0321) rotate(108.961)"> </text><text class="cls-13" transform="translate(351.504 290.3348) rotate(110.7498)"> </text><text class="cls-13" transform="matrix(-0.3834, 0.9236, -0.9236, -0.3834, 349.8907, 294.6034)"> </text><text class="cls-13" transform="translate(348.1495 298.8075) rotate(114.3288)"> </text><text class="cls-13" transform="translate(346.2716 302.9715) rotate(116.1194)"> </text><text class="cls-13" transform="matrix(-0.468, 0.8837, -0.8837, -0.468, 344.2686, 307.0662)"> </text><text class="cls-13" transform="translate(342.13 311.1121) rotate(119.6937)"> </text><text class="cls-13" transform="translate(339.8702 315.0838) rotate(121.478)"> </text><text class="cls-13" transform="translate(337.4913 318.9764) rotate(123.2565)"> </text><text class="cls-13" transform="translate(334.9952 322.7899) rotate(125.0314)"> </text><text class="cls-13" transform="translate(332.3849 326.5213) rotate(126.8024)"> </text><text class="cls-13" transform="translate(329.6456 330.1883) rotate(128.5802)"> </text><text class="cls-13" transform="translate(326.796 333.7674) rotate(130.3555)"> </text><text class="cls-13" transform="translate(323.8565 337.2332) rotate(132.1181)"> </text><text class="cls-13" transform="translate(320.794 340.6258) rotate(133.8897)"> </text><text class="cls-13" transform="translate(317.629 343.9227) rotate(135.6613)"> </text><text class="cls-13" transform="matrix(-0.7365, 0.6764, -0.6764, -0.7365, 314.3624, 347.12)"> </text><text class="cls-13" transform="matrix(-0.7571, 0.6533, -0.6533, -0.7571, 310.9972, 350.2157)"> </text><text class="cls-13" transform="matrix(-0.7768, 0.6297, -0.6297, -0.7768, 307.5587, 353.1893)"> </text><text class="cls-13" transform="translate(304.005 356.0741) rotate(142.7477)"> </text><text class="cls-13" transform="matrix(-0.8143, 0.5804, -0.5804, -0.8143, 300.3858, 358.8328)"> </text><text class="cls-13" transform="translate(296.6544 361.4969) rotate(146.302)"> </text><text class="cls-13" transform="matrix(-0.8487, 0.5289, -0.5289, -0.8487, 292.8849, 364.0164)"> </text><text class="cls-13" transform="translate(289.0108 366.4344) rotate(149.8512)"> </text><text class="cls-13" transform="translate(285.0558 368.7362) rotate(151.6397)"> </text><text class="cls-13" transform="translate(281.0499 370.9041) rotate(153.4232)"> </text><text class="cls-13" transform="translate(276.9688 372.95) rotate(155.2118)"> </text><text class="cls-13" transform="translate(272.8155 374.8719) rotate(157.0076)"> </text><text class="cls-13" transform="matrix(-0.9323, 0.3616, -0.3616, -0.9323, 268.6202, 376.6571)"> </text><text class="cls-13" transform="translate(264.3849 378.3045) rotate(160.5852)"> </text><text class="cls-13" transform="matrix(-0.9531, 0.3027, -0.3027, -0.9531, 260.087, 379.8241)"> </text><text class="cls-13" transform="translate(255.7276 381.2118) rotate(164.1789)"> </text><text class="cls-13" transform="translate(251.336 382.4608) rotate(165.9731)"> </text><text class="cls-13" transform="translate(246.9181 383.5692) rotate(167.7631)"> </text><text class="cls-13" transform="translate(242.4474 384.5418) rotate(169.5575)"> </text><text class="cls-13" transform="translate(237.9825 385.369) rotate(171.3357)"> </text><text class="cls-13" transform="translate(233.4698 386.0623) rotate(173.1163)"> </text><text class="cls-13" transform="translate(228.9415 386.6131) rotate(174.8908)"> </text><text class="cls-13" transform="translate(224.3683 387.0243) rotate(176.6683)"> </text><text class="cls-13" transform="translate(219.8136 387.2938) rotate(178.424)"> </text><text class="cls-13" transform="translate(215.3185 387.4559) rotate(-179.0711)"> </text><text class="cls-13" transform="translate(210.6949 387.4139) rotate(-178.0843)"> </text><text class="cls-13" transform="translate(206.1129 387.2635) rotate(-176.317)"> </text><text class="cls-13" transform="translate(201.5655 386.9764) rotate(-174.5521)"> </text><text class="cls-13" transform="matrix(-0.9921, -0.1257, 0.1257, -0.9921, 197.0284, 386.5477)"> </text><text class="cls-13" transform="translate(192.5035 385.9774) rotate(-170.9969)"> </text><text class="cls-13" transform="translate(187.9942 385.2674) rotate(-169.2097)"> </text><text class="cls-13" transform="translate(183.502 384.4149) rotate(-167.4157)"> </text><text class="cls-13" transform="matrix(-0.9687, -0.2482, 0.2482, -0.9687, 179.0592, 383.4286)"> </text><text class="cls-13" transform="translate(174.6402 382.2996) rotate(-163.834)"> </text><text class="cls-13" transform="translate(170.2481 381.0311) rotate(-162.0352)"> </text><text class="cls-13" transform="translate(165.9122 379.6297) rotate(-160.2428)"> </text><text class="cls-13" transform="translate(161.6104 378.0877) rotate(-158.4464)"> </text></g><g id="Outside_Labels" data-name="Outside Labels"><text class="cls-14" transform="matrix(0.2089, -0.9779, 0.9779, 0.2089, 316.6947, 264.069)"> </text><text class="cls-14" transform="translate(317.2455 261.4836) rotate(-79.3776)"> </text><text class="cls-14" transform="translate(317.7337 258.8752) rotate(-80.8173)"> </text><text class="cls-14" transform="translate(318.1537 256.2658) rotate(-82.2487)"> </text><text class="cls-14" transform="translate(318.5101 253.6345) rotate(-83.6818)"> </text><text class="cls-14" transform="translate(318.8001 251.0031) rotate(-85.1053)"> </text><text class="cls-14" transform="matrix(0.0609, -0.9981, 0.9981, 0.0609, 319.0228, 248.3957)"> </text><text class="cls-14" transform="translate(319.183 245.7492) rotate(-87.9252)"> </text><text class="cls-14" transform="matrix(0.0162, -0.9999, 0.9999, 0.0162, 319.2708, 243.1276)"> </text><text class="cls-14" transform="matrix(-0.0162, -0.9999, 0.9999, -0.0162, 319.3109, 240.4299)"> </text><text class="cls-14" transform="matrix(-0.0372, -0.9993, 0.9993, -0.0372, 319.2708, 237.8293)"> </text><text class="cls-14" transform="matrix(-0.0619, -0.9981, 0.9981, -0.0619, 319.1722, 235.1809)"> </text><text class="cls-14" transform="translate(319.0072 232.548) rotate(-94.9624)"> </text><text class="cls-14" transform="translate(318.7767 229.9118) rotate(-96.3866)"> </text><text class="cls-14" transform="translate(318.4798 227.2736) rotate(-97.8194)"> </text><text class="cls-14" transform="translate(318.1185 224.656) rotate(-99.2496)"> </text><text class="cls-14" transform="translate(317.6917 222.0368) rotate(-100.6901)"> </text><text class="cls-14" transform="translate(317.2005 219.4411) rotate(-102.1255)"> </text><text class="cls-14" transform="translate(316.641 216.8469) rotate(-103.5687)"> </text><text class="cls-14" transform="translate(316.0189 214.2766) rotate(-105.0091)"> </text><text class="cls-14" transform="translate(315.3294 211.7102) rotate(-106.4561)"> </text><text class="cls-14" transform="translate(314.5775 209.1706) rotate(-107.898)"> </text><text class="cls-14" transform="translate(313.764 206.6574) rotate(-109.3371)"> </text><text class="cls-14" transform="matrix(-0.3547, -0.935, 0.935, -0.3547, 312.891, 204.1721)"> </text><text class="cls-14" transform="matrix(-0.3782, -0.9257, 0.9257, -0.3782, 311.9437, 201.677)"> </text><text class="cls-14" transform="matrix(-0.4011, -0.916, 0.916, -0.4011, 310.9496, 199.2502)"> </text><text class="cls-14" transform="translate(309.8822 196.8161) rotate(-115.0944)"> </text><text class="cls-14" transform="translate(308.7552 194.4152) rotate(-116.5336)"> </text><text class="cls-14" transform="matrix(-0.469, -0.8832, 0.8832, -0.469, 307.5716, 192.0461)"> </text><text class="cls-14" transform="translate(306.3304 189.7121) rotate(-119.4025)"> </text><text class="cls-14" transform="matrix(-0.5125, -0.8587, 0.8587, -0.5125, 305.0326, 187.4123)"> </text><text class="cls-14" transform="translate(303.681 185.1481) rotate(-122.2553)"> </text><text class="cls-14" transform="translate(302.2621 182.905) rotate(-123.6875)"> </text><text class="cls-14" transform="matrix(-0.5753, -0.818, 0.818, -0.5753, 300.7904, 180.6999)"> </text><text class="cls-14" transform="translate(299.2777 178.5495) rotate(-126.5344)"> </text><text class="cls-14" transform="matrix(-0.6153, -0.7883, 0.7883, -0.6153, 297.6878, 176.4069)"> </text><text class="cls-14" transform="matrix(-0.6345, -0.7729, 0.7729, -0.6345, 296.0716, 174.3376)"> </text><text class="cls-14" transform="matrix(-0.6536, -0.7568, 0.7568, -0.6536, 294.3792, 172.279)"> </text><text class="cls-14" transform="matrix(-0.672, -0.7405, 0.7405, -0.672, 292.6624, 170.2936)"> </text><text class="cls-14" transform="matrix(-0.6903, -0.7235, 0.7235, -0.6903, 290.8714, 168.3229)"> </text><text class="cls-14" transform="matrix(-0.7079, -0.7063, 0.7063, -0.7079, 289.0609, 166.4255)"> </text><text class="cls-14" transform="matrix(-0.7253, -0.6884, 0.6884, -0.7253, 287.1742, 164.5451)"> </text><text class="cls-14" transform="matrix(-0.7422, -0.6702, 0.6702, -0.7422, 285.2562, 162.7272)"> </text><text class="cls-14" transform="translate(283.2933 160.9562) rotate(-139.3351)"> </text><text class="cls-14" transform="translate(281.2855 159.2336) rotate(-140.7569)"> </text><text class="cls-14" transform="translate(279.2347 157.5607) rotate(-142.1814)"> </text><text class="cls-14" transform="translate(277.1585 155.9499) rotate(-143.5956)"> </text><text class="cls-14" transform="translate(275.0091 154.3669) rotate(-145.0336)"> </text><text class="cls-14" transform="translate(272.8509 152.8596) rotate(-146.4532)"> </text><text class="cls-14" transform="matrix(-0.8469, -0.5318, 0.5318, -0.8469, 270.6537, 151.4055)"> </text><text class="cls-14" transform="matrix(-0.86, -0.5104, 0.5104, -0.86, 268.4037, 149.9934)"> </text><text class="cls-14" transform="translate(266.1146 148.6369) rotate(-150.751)"> </text><text class="cls-14" transform="translate(263.808 147.3454) rotate(-152.1833)"> </text><text class="cls-14" transform="translate(261.4632 146.1115) rotate(-153.6198)"> </text><text class="cls-14" transform="translate(259.1039 144.9421) rotate(-155.0482)"> </text><text class="cls-14" transform="translate(256.7132 143.8312) rotate(-156.4817)"> </text><text class="cls-14" transform="translate(254.2699 142.7692) rotate(-157.9305)"> </text><text class="cls-14" transform="matrix(-0.9358, -0.3525, 0.3525, -0.9358, 251.8324, 141.7829)"> </text><text class="cls-14" transform="translate(249.346 140.8488) rotate(-160.8066)"> </text><text class="cls-14" transform="translate(246.8324 139.9748) rotate(-162.2569)"> </text><text class="cls-14" transform="translate(244.308 139.1686) rotate(-163.6999)"> </text><text class="cls-14" transform="matrix(-0.9665, -0.2565, 0.2565, -0.9665, 241.7767, 138.4299)"> </text><text class="cls-14" transform="translate(239.2191 137.7526) rotate(-166.5771)"> </text><text class="cls-14" transform="translate(236.6566 137.1423) rotate(-168.0099)"> </text><text class="cls-14" transform="matrix(-0.9831, -0.1832, 0.1832, -0.9831, 234.0697, 136.5949)"> </text><text class="cls-14" transform="matrix(-0.9874, -0.1584, 0.1584, -0.9874, 231.4613, 136.1096)"> </text><text class="cls-14" transform="translate(228.8294 135.6892) rotate(-172.3276)"> </text><text class="cls-14" transform="translate(226.2171 135.3386) rotate(-173.7491)"> </text><text class="cls-14" transform="matrix(-0.9965, -0.0841, 0.0841, -0.9965, 223.5863, 135.0524)"> </text><text class="cls-14" transform="translate(220.9564 134.8312) rotate(-176.5883)"> </text><text class="cls-14" transform="matrix(-0.9994, -0.0348, 0.0348, -0.9994, 218.308, 134.675)"> </text><text class="cls-14" transform="translate(215.7083 134.592) rotate(-179.0714)"> </text><text class="cls-14" transform="translate(213.0101 134.5563) rotate(179.0714)"> </text><text class="cls-14" transform="translate(210.388 134.5969) rotate(177.789)"> </text><text class="cls-14" transform="matrix(-0.998, 0.0633, -0.0633, -0.998, 207.7406, 134.7004)"> </text><text class="cls-14" transform="translate(205.1097 134.8693) rotate(174.9591)"> </text><text class="cls-14" transform="translate(202.474 135.1022) rotate(173.5345)"> </text><text class="cls-14" transform="matrix(-0.9905, 0.1374, -0.1374, -0.9905, 199.8373, 135.403)"> </text><text class="cls-14" transform="translate(197.2191 135.7678) rotate(170.6709)"> </text><text class="cls-14" transform="translate(194.6234 136.1955) rotate(169.2435)"> </text><text class="cls-14" transform="matrix(-0.9774, 0.2112, -0.2112, -0.9774, 192.0277, 136.6896)"> </text><text class="cls-14" transform="translate(189.4144 137.2565) rotate(166.3528)"> </text><text class="cls-14" transform="matrix(-0.9656, 0.2601, -0.2601, -0.9656, 186.8656, 137.8767)"> </text><text class="cls-14" transform="translate(184.3001 138.5686) rotate(163.4775)"> </text><text class="cls-14" transform="translate(181.7621 139.3234) rotate(162.0357)"> </text><text class="cls-14" transform="translate(179.2494 140.1394) rotate(160.5965)"> </text><text class="cls-14" transform="translate(176.7474 141.0227) rotate(159.1511)"> </text><text class="cls-14" transform="translate(174.2728 141.9665) rotate(157.71)"> </text><text class="cls-14" transform="matrix(-0.9155, 0.4024, -0.4024, -0.9155, 171.8285, 142.9699)"> </text><text class="cls-14" transform="translate(169.4144 144.0324) rotate(154.8408)"> </text><text class="cls-14" transform="matrix(-0.8942, 0.4477, -0.4477, -0.8942, 167.014, 145.1608)"> </text><text class="cls-14" transform="matrix(-0.8827, 0.47, -0.47, -0.8827, 164.6468, 146.3483)"> </text><text class="cls-14" transform="translate(162.3158 147.592) rotate(150.5335)"> </text><text class="cls-14" transform="translate(160.0179 148.8918) rotate(149.1052)"> </text><text class="cls-14" transform="translate(157.7376 150.257) rotate(147.6693)"> </text><text class="cls-14" transform="matrix(-0.8313, 0.5558, -0.5558, -0.8313, 155.4955, 151.6779)"> </text><text class="cls-14" transform="translate(153.308 153.1413) rotate(144.8184)"> </text><text class="cls-14" transform="matrix(-0.8026, 0.5965, -0.5965, -0.8026, 151.1283, 154.6804)"> </text><text class="cls-14" transform="matrix(-0.7876, 0.6161, -0.6161, -0.7876, 149.0199, 156.2487)"> </text><text class="cls-14" transform="translate(146.9369 157.8801) rotate(140.5428)"> </text><text class="cls-14" transform="translate(144.8958 159.5622) rotate(139.1216)"> </text><text class="cls-14" transform="translate(142.8988 161.2936) rotate(137.7008)"> </text><text class="cls-14" transform="matrix(-0.7227, 0.6911, -0.6911, -0.7227, 140.9427, 163.0734)"> </text><text class="cls-14" transform="translate(139.0208 164.9152) rotate(134.8505)"> </text><text class="cls-14" transform="translate(137.1722 166.7756) rotate(133.4417)"> </text><text class="cls-14" transform="matrix(-0.6693, 0.743, -0.743, -0.6693, 135.3402, 168.7102)"> </text><text class="cls-14" transform="matrix(-0.6508, 0.7593, -0.7593, -0.6508, 133.5853, 170.6608)"> </text><text class="cls-14" transform="translate(131.8529 172.6857) rotate(129.1682)"> </text><text class="cls-14" transform="translate(130.1937 174.7228) rotate(127.7559)"> </text><text class="cls-14" transform="matrix(-0.5923, 0.8057, -0.8057, -0.5923, 128.5628, 176.8322)"> </text><text class="cls-14" transform="translate(127.0062 178.9523) rotate(124.9024)"> </text><text class="cls-14" transform="translate(125.4896 181.1276) rotate(123.4716)"> </text><text class="cls-14" transform="matrix(-0.5305, 0.8477, -0.8477, -0.5305, 124.0267, 183.343)"> </text><text class="cls-14" transform="matrix(-0.5092, 0.8606, -0.8606, -0.5092, 122.6283, 185.5793)"> </text><text class="cls-14" transform="matrix(-0.4876, 0.8731, -0.8731, -0.4876, 121.2855, 187.8532)"> </text><text class="cls-14" transform="matrix(-0.4656, 0.885, -0.885, -0.4656, 119.9964, 190.1628)"> </text><text class="cls-14" transform="matrix(-0.4433, 0.8964, -0.8964, -0.4433, 118.765, 192.507)"> </text><text class="cls-14" transform="translate(117.5912 194.8864) rotate(114.8756)"> </text><text class="cls-14" transform="translate(116.4818 197.28) rotate(113.4415)"> </text><text class="cls-14" transform="translate(115.432 199.7058) rotate(112.0041)"> </text><text class="cls-14" transform="matrix(-0.3512, 0.9363, -0.9363, -0.3512, 114.4388, 202.1628)"> </text><text class="cls-14" transform="translate(113.5091 204.6501) rotate(109.1165)"> </text><text class="cls-14" transform="translate(112.6449 207.1472) rotate(107.6764)"> </text><text class="cls-14" transform="translate(111.8412 209.6726) rotate(106.2329)"> </text><text class="cls-14" transform="matrix(-0.2552, 0.9669, -0.9669, -0.2552, 111.0999, 212.2248)"> </text><text class="cls-14" transform="matrix(-0.231, 0.9729, -0.9729, -0.231, 110.431, 214.7644)"> </text><text class="cls-14" transform="translate(109.8197 217.3474) rotate(101.9118)"> </text><text class="cls-14" transform="translate(109.2738 219.9353) rotate(100.4764)"> </text><text class="cls-14" transform="translate(108.7962 222.5251) rotate(99.0483)"> </text><text class="cls-14" transform="translate(108.3792 225.1584) rotate(97.6052)"> </text><text class="cls-14" transform="matrix(-0.1077, 0.9942, -0.9942, -0.1077, 108.0316, 227.7702)"> </text><text class="cls-14" transform="translate(107.7494 230.4025) rotate(94.7588)"> </text><text class="cls-14" transform="translate(107.5287 233.0549) rotate(93.3317)"> </text><text class="cls-14" transform="translate(107.3773 235.6818) rotate(91.9272)"> </text><text class="cls-14" transform="matrix(-0.0162, 0.9999, -0.9999, -0.0162, 107.2992, 238.2834)"> </text><text class="cls-14" transform="matrix(0.0162, 0.9999, -0.9999, 0.0162, 107.266, 240.9816)"> </text><text class="cls-14" transform="translate(107.3099 243.6232) rotate(87.7112)"> </text><text class="cls-14" transform="translate(107.4164 246.2492) rotate(86.3056)"> </text><text class="cls-14" transform="translate(107.5882 248.9006) rotate(84.8796)"> </text><text class="cls-14" transform="translate(107.8255 251.5344) rotate(83.4556)"> </text><text class="cls-14" transform="translate(108.1263 254.1496) rotate(82.0334)"> </text><text class="cls-14" transform="translate(108.4984 256.7863) rotate(80.5924)"> </text><text class="cls-14" transform="translate(108.933 259.403) rotate(79.1542)"> </text><text class="cls-14" transform="translate(109.43 261.9968) rotate(77.718)"> </text><text class="cls-14" transform="translate(109.9925 264.569) rotate(76.2872)"> </text><text class="cls-14" transform="translate(110.6214 267.1369) rotate(74.8464)"> </text><text class="cls-14" transform="translate(111.3167 269.7004) rotate(73.4005)"> </text><text class="cls-14" transform="translate(112.0667 272.218) rotate(71.9684)"> </text><text class="cls-14" transform="translate(112.8919 274.7482) rotate(70.5186)"> </text><text class="cls-14" transform="matrix(0.3572, 0.934, -0.934, 0.3572, 113.7796, 277.2502)"> </text><text class="cls-14" transform="translate(114.7269 279.7228) rotate(67.6337)"> </text><text class="cls-14" transform="matrix(0.4036, 0.9149, -0.9149, 0.4036, 115.7337, 282.1643)"> </text><text class="cls-14" transform="matrix(0.4265, 0.9045, -0.9045, 0.4265, 116.808, 284.5959)"> </text><text class="cls-14" transform="matrix(0.4491, 0.8935, -0.8935, 0.4491, 117.9398, 286.9934)"> </text><text class="cls-14" transform="translate(119.1214 289.34) rotate(61.8897)"> </text><text class="cls-14" transform="translate(120.3773 291.6887) rotate(60.4471)"> </text><text class="cls-14" transform="matrix(0.5148, 0.8573, -0.8573, 0.5148, 121.681, 293.9836)"> </text><text class="cls-14" transform="translate(123.0384 296.2443) rotate(57.5948)"> </text><text class="cls-14" transform="translate(124.4515 298.468) rotate(56.1726)"> </text><text class="cls-14" transform="matrix(0.5774, 0.8165, -0.8165, 0.5774, 125.9388, 300.6857)"> </text><text class="cls-14" transform="matrix(0.5974, 0.8019, -0.8019, 0.5974, 127.4583, 302.8322)"> </text><text class="cls-14" transform="matrix(0.6172, 0.7868, -0.7868, 0.6172, 129.0414, 304.9543)"> </text><text class="cls-14" transform="translate(130.6761 307.0353) rotate(50.4687)"> </text><text class="cls-14" transform="translate(132.3597 309.0744) rotate(49.0468)"> </text><text class="cls-14" transform="translate(134.0951 311.0695) rotate(47.6253)"> </text><text class="cls-14" transform="translate(135.8773 313.0217) rotate(46.2068)"> </text><text class="cls-14" transform="matrix(0.7097, 0.7045, -0.7045, 0.7097, 137.7074, 314.9279)"> </text><text class="cls-14" transform="matrix(0.7271, 0.6865, -0.6865, 0.7271, 139.598, 316.8039)"> </text><text class="cls-14" transform="matrix(0.7438, 0.6684, -0.6684, 0.7438, 141.5062, 318.6037)"> </text><text class="cls-14" transform="matrix(0.7602, 0.6497, -0.6497, 0.7602, 143.4896, 320.384)"> </text><text class="cls-14" transform="translate(145.4847 322.0871) rotate(39.1047)"> </text><text class="cls-14" transform="translate(147.555 323.7687) rotate(37.6699)"> </text><text class="cls-14" transform="translate(149.6361 325.3723) rotate(36.2552)"> </text><text class="cls-14" transform="matrix(0.8209, 0.5711, -0.5711, 0.8209, 151.7738, 326.9387)"> </text><text class="cls-14" transform="translate(153.9515 328.4523) rotate(33.3972)"> </text><text class="cls-14" transform="matrix(0.8483, 0.5295, -0.5295, 0.8483, 156.1527, 329.9006)"> </text><text class="cls-14" transform="matrix(0.8612, 0.5083, -0.5083, 0.8612, 158.39, 331.2971)"> </text><text class="cls-14" transform="translate(160.6839 332.6486) rotate(29.1085)"> </text><text class="cls-14" transform="translate(162.9945 333.9338) rotate(27.6757)"> </text><text class="cls-14" transform="matrix(0.897, 0.4421, -0.4421, 0.897, 165.3402, 335.1633)"> </text><text class="cls-14" transform="matrix(0.9077, 0.4196, -0.4196, 0.9077, 167.7025, 336.3264)"> </text><text class="cls-14" transform="translate(170.1175 337.4406) rotate(23.3656)"> </text><text class="cls-14" transform="translate(172.5433 338.4875) rotate(21.927)"> </text><text class="cls-14" transform="matrix(0.9368, 0.35, -0.35, 0.9368, 175.0033, 339.4748)"> </text><text class="cls-14" transform="translate(177.473 340.3967) rotate(19.05)"> </text><text class="cls-14" transform="matrix(0.9532, 0.3023, -0.3023, 0.9532, 179.9915, 341.2648)"> </text><text class="cls-14" transform="matrix(0.9605, 0.2783, -0.2783, 0.9605, 182.5179, 342.0637)"> </text><text class="cls-14" transform="translate(185.0521 342.7971) rotate(14.7189)"> </text><text class="cls-14" transform="translate(187.6107 343.468) rotate(13.278)"> </text><text class="cls-14" transform="translate(190.1976 344.0764) rotate(11.8341)"> </text><text class="cls-14" transform="translate(192.7855 344.6184) rotate(10.3967)"> </text><text class="cls-14" transform="translate(195.3978 345.0949) rotate(8.958)"> </text><text class="cls-14" transform="translate(197.9906 345.5031) rotate(7.5373)"> </text><text class="cls-14" transform="translate(200.6234 345.8498) rotate(6.1046)"> </text><text class="cls-14" transform="translate(203.2367 346.1281) rotate(4.6904)"> </text><text class="cls-14" transform="matrix(0.9984, 0.057, -0.057, 0.9984, 205.889, 346.343)"> </text><text class="cls-14" transform="translate(208.5169 346.4914) rotate(1.8602)"> </text><text class="cls-14" transform="translate(211.1195 346.5656) rotate(0.9286)"> </text><text class="cls-14" transform="translate(213.8177 346.5969) rotate(-0.9527)"> </text><text class="cls-14" transform="translate(216.4583 346.551) rotate(-2.3579)"> </text><text class="cls-14" transform="translate(219.0843 346.4416) rotate(-3.7622)"> </text><text class="cls-14" transform="translate(221.7337 346.2658) rotate(-5.1882)"> </text><text class="cls-14" transform="translate(224.3665 346.0256) rotate(-6.6117)"> </text><text class="cls-14" transform="translate(226.9818 345.7209) rotate(-8.0339)"> </text><text class="cls-14" transform="matrix(0.9864, -0.1646, 0.1646, 0.9864, 229.6185, 345.3469)"> </text><text class="cls-14" transform="translate(232.2328 344.9094) rotate(-10.9136)"> </text><text class="cls-14" transform="translate(234.8265 344.4074) rotate(-12.3491)"> </text><text class="cls-14" transform="translate(237.3968 343.8449) rotate(-13.7815)"> </text><text class="cls-14" transform="translate(239.9837 343.2082) rotate(-15.2313)"> </text><text class="cls-14" transform="translate(242.5453 342.508) rotate(-16.6764)"> </text><text class="cls-14" transform="matrix(0.9504, -0.311, 0.311, 0.9504, 245.0814, 341.7473)"> </text><text class="cls-14" transform="translate(247.5892 340.925) rotate(-19.557)"> </text><text class="cls-14" transform="matrix(0.9336, -0.3582, 0.3582, 0.9336, 250.0716, 340.0432)"> </text><text class="cls-14" transform="translate(252.5619 339.0852) rotate(-22.4434)"> </text><text class="cls-14" transform="translate(254.9837 338.0822) rotate(-23.8689)"> </text><text class="cls-14" transform="translate(257.4124 337.007) rotate(-25.3116)"> </text><text class="cls-14" transform="translate(259.8099 335.8703) rotate(-26.7509)"> </text><text class="cls-14" transform="translate(262.1742 334.6779) rotate(-28.1859)"> </text><text class="cls-14" transform="translate(264.5023 333.4279) rotate(-29.6172)"> </text><text class="cls-14" transform="matrix(0.8568, -0.5157, 0.5157, 0.8568, 266.7962, 332.1242)"> </text><text class="cls-14" transform="translate(269.055 330.7609) rotate(-32.4701)"> </text><text class="cls-14" transform="translate(271.3099 329.3244) rotate(-33.9126)"> </text><text class="cls-14" transform="matrix(0.8158, -0.5783, 0.5783, 0.8158, 273.4925, 327.8557)"> </text><text class="cls-14" transform="translate(275.6527 326.3225) rotate(-36.7585)"> </text><text class="cls-14" transform="translate(277.7728 324.7365) rotate(-38.1836)"> </text><text class="cls-14" transform="translate(279.8363 323.1125) rotate(-39.5957)"> </text><text class="cls-14" transform="translate(281.89 321.4123) rotate(-41.0277)"> </text><text class="cls-14" transform="translate(283.8831 319.677) rotate(-42.4484)"> </text><text class="cls-15" transform="matrix(0.7, -0.7142, 0.7142, 0.7, 288.2445, 320.05)">1</text><text class="cls-15" transform="matrix(0.6272, -0.7788, 0.7788, 0.6272, 294.804, 313.3996)">4</text><text class="cls-15" transform="matrix(0.5161, -0.8566, 0.8566, 0.5161, 302.6371, 303.8342)">%</text></g></g></g></svg>