<svg xmlns="http://www.w3.org/2000/svg" xmlns:xlink="http://www.w3.org/1999/xlink" viewBox="0 0 529.2246 404"><defs><style>.cls-1{fill:none;}.cls-2{clip-path:url(#clip-path);}.cls-3,.cls-9{fill:#ffa600;}.cls-3,.cls-4,.cls-5,.cls-6,.cls-7{fill-rule:evenodd;}.cls-10,.cls-15,.cls-4{fill:#003f5c;}.cls-11,.cls-5{fill:#bc5090;}.cls-12,.cls-6{fill:#ef5675;}.cls-13,.cls-7{fill:#ff764a;}.cls-14,.cls-15,.cls-8{font-size:18px;font-family:Georgia;}.cls-14{fill:#fff;}</style><clipPath id="clip-path"><path class="cls-1" d="M181.1863,10.3885C75.3622,27.1494,3.1622,126.5241,19.9231,232.3483s116.1356,178.0241,221.96,161.2632,178.0241-116.1356,161.2632-221.96S287.01-6.3724,181.1863,10.3885ZM230.15,319.5349A119,119,0,1,1,329.07,183.3843,119,119,0,0,1,230.15,319.5349Z"/></clipPath></defs><g id="Layer_2" data-name="Layer 2"><g id="Age"><g id="Chart"><g class="cls-2"><path class="cls-3" d="M211.5377,202,26.4034,175.9806a175.4576,175.4576,0,0,1,14.3436-50.022Z"/><path class="cls-4" d="M211.5377,202,40.747,125.9586c41.9963-94.3252,152.5066-136.7461,246.8317-94.75C332.8547,51.367,364.2646,83.33,383.63,128.9509Z"/><path class="cls-5" d="M211.5377,202,383.63,128.9509c40.3436,95.0436-3.9995,204.7968-99.0432,245.14a179.6046,179.6046,0,0,1-63.2643,14.6057Z"/><path class="cls-6" d="M211.5377,202l9.7844,186.6975C142.9584,392.8039,75.2635,352.1287,42.1,281.01Z"/><path class="cls-7" d="M211.5377,202,42.1,281.01c-15.709-33.688-20.87-68.22-15.6967-105.029Z"/></g></g><g id="Legend"><text class="cls-8" transform="translate(481.9567 359.8078)">56-65</text><text class="cls-8" transform="translate(481.7596 326.036)">46-55</text><text class="cls-8" transform="translate(481.7596 292.0361)">36-45</text><text class="cls-8" transform="translate(480.4877 258.2706)">26-35</text><text class="cls-8" transform="translate(480.4877 221.2706)">18-25</text><rect id="Swatch_1" data-name="Swatch 1" class="cls-9" x="443.417" y="201.9987" width="24.7508" height="24.7508" transform="translate(670.1664 -241.4183) rotate(90)"/><rect id="Swatch_2" data-name="Swatch 2" class="cls-10" x="443.417" y="238.3047" width="24.7508" height="24.7508" transform="translate(706.4724 -205.1123) rotate(90)"/><rect id="Swatch_3" data-name="Swatch 3" class="cls-11" x="443.417" y="272.3762" width="24.7508" height="24.7508" transform="translate(740.5439 -171.0408) rotate(90)"/><rect id="Swatch_4" data-name="Swatch 4" class="cls-12" x="443.417" y="306.4477" width="24.7508" height="24.7508" transform="translate(774.6154 -136.9693) rotate(90)"/><rect id="Swatch_5" data-name="Swatch 5" class="cls-13" x="443.001" y="340.9406" width="24.7508" height="24.7508" transform="translate(808.6923 -102.0604) rotate(90)"/></g><g id="Inner_Labels" data-name="Inner Labels"><text class="cls-14" transform="translate(56.1268 180.6133) rotate(96.9735)"> </text><text class="cls-14" transform="translate(55.5868 185.0469) rotate(95.3469)"> </text><text class="cls-14" transform="translate(55.1757 189.4546) rotate(93.7397)"> </text><text class="cls-14" transform="translate(54.8861 193.8975) rotate(92.1313)"> </text><text class="cls-14" transform="translate(54.7391 198.2148) rotate(90.9286)"> </text><text class="cls-14" transform="matrix(0.018, 0.9998, -0.9998, 0.018, 54.6825, 202.7085)"> </text><text class="cls-14" transform="translate(54.7626 207.1143) rotate(87.3814)"> </text><text class="cls-14" transform="translate(54.9672 211.5547) rotate(85.7734)"> </text><text class="cls-14" transform="translate(55.2538 216.2646) rotate(83.0037)">9</text><text class="cls-14" transform="matrix(0.2053, 0.9787, -0.9787, 0.2053, 56.5267, 227.1504)">%</text><text class="cls-14" transform="matrix(0.2681, 0.9634, -0.9634, 0.2681, 59.8427, 242.0566)"> </text><text class="cls-14" transform="translate(61.0345 246.333) rotate(72.8112)"> </text><text class="cls-14" transform="translate(62.3529 250.5889) rotate(71.1713)"> </text><text class="cls-14" transform="translate(63.7875 254.793) rotate(69.5368)"> </text><text class="cls-14" transform="translate(65.348 258.9697) rotate(67.897)"> </text><text class="cls-14" transform="translate(67.0238 263.0898) rotate(66.2625)"> </text><text class="cls-14" transform="translate(68.8109 267.1523) rotate(64.6329)"> </text><text class="cls-14" transform="matrix(0.454, 0.891, -0.891, 0.454, 70.7225, 271.1797)"> </text><text class="cls-14" transform="translate(72.744 275.1426) rotate(61.3685)"> </text><text class="cls-14" transform="matrix(0.5039, 0.8638, -0.8638, 0.5039, 74.8739, 279.041)"> </text><text class="cls-14" transform="matrix(0.5283, 0.8491, -0.8491, 0.5283, 77.1249, 282.8965)"> </text><text class="cls-14" transform="matrix(0.552, 0.8338, -0.8338, 0.552, 79.4657, 286.6582)"> </text><text class="cls-14" transform="matrix(0.5754, 0.8179, -0.8179, 0.5754, 81.9257, 290.3701)"> </text><text class="cls-14" transform="matrix(0.5983, 0.8013, -0.8013, 0.5983, 84.4872, 294.0078)"> </text><text class="cls-14" transform="matrix(0.6207, 0.7841, -0.7841, 0.6207, 87.1483, 297.5693)"> </text><text class="cls-14" transform="matrix(0.6425, 0.7663, -0.7663, 0.6425, 89.9071, 301.0527)"> </text><text class="cls-14" transform="translate(92.7621 304.4541) rotate(48.4056)"> </text><text class="cls-14" transform="matrix(0.6846, 0.7289, -0.7289, 0.6846, 95.7098, 307.7734)"> </text><text class="cls-14" transform="matrix(0.7049, 0.7093, -0.7093, 0.7049, 98.7499, 311.0078)"> </text><text class="cls-14" transform="translate(101.8788 314.1553) rotate(43.5699)"> </text><text class="cls-14" transform="translate(105.119 317.2344) rotate(41.9466)"> </text><text class="cls-14" transform="translate(108.5692 320.4189) rotate(39.1896)">1</text><text class="cls-14" transform="translate(116.892 327.1787) rotate(35.2887)">9</text><text class="cls-14" transform="matrix(0.8621, 0.5068, -0.5068, 0.8621, 125.8168, 333.5693)">%</text><text class="cls-14" transform="matrix(0.8929, 0.4503, -0.4503, 0.8929, 139.0653, 341.1445)"> </text><text class="cls-14" transform="matrix(0.9053, 0.4248, -0.4248, 0.9053, 143.0219, 343.1377)"> </text><text class="cls-14" transform="translate(147.0673 345.0342) rotate(23.4963)"> </text><text class="cls-14" transform="translate(151.1483 346.8076) rotate(21.8618)"> </text><text class="cls-14" transform="translate(155.2894 348.4668) rotate(20.2207)"> </text><text class="cls-14" transform="translate(159.4598 350.001) rotate(18.5851)"> </text><text class="cls-14" transform="translate(163.6849 351.4199) rotate(16.944)"> </text><text class="cls-14" transform="matrix(0.9645, 0.264, -0.264, 0.9645, 167.9344, 352.7139)"> </text><text class="cls-14" transform="translate(172.2347 353.8887) rotate(13.6691)"> </text><text class="cls-14" transform="matrix(0.978, 0.2085, -0.2085, 0.978, 176.5531, 354.9375)"> </text><text class="cls-14" transform="matrix(0.9835, 0.1807, -0.1807, 0.9835, 180.8885, 355.8603)"> </text><text class="cls-14" transform="translate(185.267 356.6621) rotate(8.7772)"> </text><text class="cls-14" transform="translate(189.6566 357.3398) rotate(7.1538)"> </text><text class="cls-14" transform="translate(194.0863 357.8935) rotate(5.5273)"> </text><text class="cls-14" transform="matrix(0.9977, 0.0684, -0.0684, 0.9977, 198.4896, 358.3203)"> </text><text class="cls-14" transform="matrix(0.9992, 0.0404, -0.0404, 0.9992, 202.9286, 358.6211)"> </text><text class="cls-14" transform="translate(207.2889 358.79) rotate(0.9289)"> </text><text class="cls-14" transform="matrix(0.9999, -0.0162, 0.0162, 0.9999, 211.7748, 358.8555)"> </text><text class="cls-14" transform="translate(216.1791 358.7861) rotate(-2.4488)"> </text><text class="cls-14" transform="translate(220.6224 358.5957) rotate(-4.0567)"> </text><text class="cls-14" transform="translate(225.0336 358.2812) rotate(-5.6633)"> </text><text class="cls-14" transform="matrix(0.9919, -0.1269, 0.1269, 0.9919, 229.474, 357.8398)"> </text><text class="cls-14" transform="matrix(0.9879, -0.1549, 0.1549, 0.9879, 233.8773, 357.2734)"> </text><text class="cls-14" transform="translate(238.2728 356.583) rotate(-10.5432)"> </text><text class="cls-14" transform="matrix(0.9775, -0.211, 0.211, 0.9775, 242.6566, 355.7656)"> </text><text class="cls-14" transform="translate(246.9994 354.8252) rotate(-13.8144)"> </text><text class="cls-14" transform="translate(251.3285 353.7598) rotate(-15.4544)"> </text><text class="cls-14" transform="translate(255.6078 352.5762) rotate(-17.0894)"> </text><text class="cls-14" transform="matrix(0.947, -0.3211, 0.3211, 0.947, 259.8666, 351.2646)"> </text><text class="cls-14" transform="translate(264.0717 349.8379) rotate(-20.3636)"> </text><text class="cls-14" transform="translate(268.2533 348.2842) rotate(-22.0045)"> </text><text class="cls-14" transform="translate(272.3773 346.6162) rotate(-23.6391)"> </text><text class="cls-14" transform="translate(276.4427 344.835) rotate(-25.2686)"> </text><text class="cls-14" transform="translate(280.473 342.9287) rotate(-26.904)"> </text><text class="cls-14" transform="matrix(0.8785, -0.4777, 0.4777, 0.8785, 284.4408, 340.915)"> </text><text class="cls-14" transform="translate(288.5863 338.7324) rotate(-31.305)">3</text><text class="cls-14" transform="matrix(0.8169, -0.5768, 0.5768, 0.8169, 297.7572, 333.1289)">0</text><text class="cls-14" transform="translate(306.2963 327.0088) rotate(-38.0875)">.</text><text class="cls-14" transform="translate(310.4594 323.8174) rotate(-40.9539)">5</text><text class="cls-14" transform="matrix(0.6977, -0.7164, 0.7164, 0.6977, 318.7699, 316.6875)">%</text><text class="cls-14" transform="translate(92.2147 287.6299) rotate(-124.8702)"> </text><text class="cls-14" transform="translate(89.8588 284.2549) rotate(-123.2675)"> </text><text class="cls-14" transform="translate(87.5961 280.8125) rotate(-121.6613)"> </text><text class="cls-14" transform="matrix(-0.5009, -0.8655, 0.8655, -0.5009, 85.4427, 277.3252)"> </text><text class="cls-14" transform="translate(83.3705 273.75) rotate(-118.447)"> </text><text class="cls-14" transform="matrix(-0.4515, -0.8923, 0.8923, -0.4515, 81.4091, 270.1387)"> </text><text class="cls-14" transform="matrix(-0.4262, -0.9046, 0.9046, -0.4262, 79.5472, 266.4658)"> </text><text class="cls-14" transform="matrix(-0.4005, -0.9163, 0.9163, -0.4005, 77.786, 262.7353)"> </text><text class="cls-14" transform="translate(76.1381 258.9717) rotate(-111.9932)"> </text><text class="cls-14" transform="translate(74.5931 255.1553) rotate(-110.3746)"> </text><text class="cls-14" transform="translate(73.1532 251.2852) rotate(-108.7513)"> </text><text class="cls-14" transform="translate(71.8275 247.3926) rotate(-107.1332)"> </text><text class="cls-14" transform="matrix(-0.2676, -0.9635, 0.9635, -0.2676, 70.6166, 243.4766)"> </text><text class="cls-14" transform="translate(69.5062 239.4863) rotate(-103.8923)"> </text><text class="cls-14" transform="translate(68.5184 235.5078) rotate(-102.2821)"> </text><text class="cls-14" transform="translate(67.6395 231.4853) rotate(-100.6666)"> </text><text class="cls-14" transform="translate(66.8763 227.4512) rotate(-99.0589)"> </text><text class="cls-14" transform="translate(66.2235 223.3769) rotate(-97.4477)"> </text><text class="cls-14" transform="translate(65.6869 219.2949) rotate(-95.8441)"> </text><text class="cls-14" transform="translate(65.265 215.206) rotate(-94.249)"> </text><text class="cls-14" transform="matrix(-0.0463, -0.9989, 0.9989, -0.0463, 64.9564, 211.084)"> </text><text class="cls-14" transform="translate(64.7621 206.958) rotate(-91.0662)"> </text><text class="cls-14" transform="matrix(0.0162, -0.9999, 0.9999, 0.0162, 64.6654, 202.9018)"> </text><text class="cls-14" transform="translate(64.7157 198.7261) rotate(-87.9141)"> </text><text class="cls-14" transform="matrix(0.064, -0.9979, 0.9979, 0.064, 64.8627, 194.6143)"> </text><text class="cls-14" transform="matrix(0.0918, -0.9958, 0.9958, 0.0918, 65.1229, 190.5034)"> </text><text class="cls-14" transform="matrix(0.1197, -0.9928, 0.9928, 0.1197, 65.4984, 186.395)"> </text><text class="cls-14" transform="translate(65.9901 182.292) rotate(-81.5154)"> </text><text class="cls-14" transform="translate(66.5936 178.2236) rotate(-79.9059)"> </text><text class="cls-14" transform="translate(67.308 174.1919) rotate(-78.3008)"> </text><text class="cls-14" transform="translate(68.1434 170.1426) rotate(-76.6775)"> </text><text class="cls-14" transform="translate(69.0897 166.1343) rotate(-75.0586)"> </text><text class="cls-14" transform="translate(70.1434 162.1689) rotate(-73.4446)"> </text><text class="cls-14" transform="translate(71.3138 158.2207) rotate(-71.8245)"> </text><text class="cls-14" transform="matrix(0.3388, -0.9409, 0.9409, 0.3388, 72.601, 154.293)"> </text><text class="cls-14" transform="translate(73.9838 150.4399) rotate(-68.5895)"> </text><text class="cls-14" transform="translate(75.4921 146.5854) rotate(-66.9638)"> </text><text class="cls-14" transform="translate(77.0941 142.8101) rotate(-65.3543)"> </text><text class="cls-14" transform="matrix(0.4425, -0.8968, 0.8968, 0.4425, 78.8099, 139.0635)"> </text><text class="cls-14" transform="matrix(0.4675, -0.884, 0.884, 0.4675, 80.6273, 135.374)"> </text><text class="cls-14" transform="matrix(0.4922, -0.8705, 0.8705, 0.4922, 82.557, 131.7183)"> </text><text class="cls-14" transform="translate(84.5721 128.1479) rotate(-58.9112)"> </text><text class="cls-14" transform="translate(86.6981 124.6157) rotate(-57.3034)"> </text><text class="cls-14" transform="matrix(0.5635, -0.8261, 0.8261, 0.5635, 88.9198, 121.1494)"> </text><text class="cls-14" transform="translate(91.2347 117.749) rotate(-54.0991)"> </text><text class="cls-14" transform="matrix(0.6087, -0.7934, 0.7934, 0.6087, 93.6425, 114.4185)"> </text><text class="cls-14" transform="translate(96.1571 111.1362) rotate(-50.8959)"> </text><text class="cls-14" transform="translate(98.744 107.9482) rotate(-49.303)"> </text><text class="cls-14" transform="matrix(0.673, -0.7396, 0.7396, 0.673, 101.4349, 104.8144)"> </text><text class="cls-14" transform="translate(104.1937 101.7773) rotate(-46.1098)"> </text><text class="cls-14" transform="translate(107.0551 98.7993) rotate(-44.5087)"> </text><text class="cls-14" transform="translate(109.9979 95.9018) rotate(-42.908)"> </text><text class="cls-14" transform="translate(113.0013 93.106) rotate(-41.3167)"> </text><text class="cls-14" transform="matrix(0.7692, -0.639, 0.639, 0.7692, 116.1029, 90.376)"> </text><text class="cls-14" transform="translate(119.2592 87.749) rotate(-38.1197)"> </text><text class="cls-14" transform="translate(122.5116 85.1943) rotate(-36.5123)"> </text><text class="cls-14" transform="matrix(0.82, -0.5723, 0.5723, 0.82, 125.8148, 82.7441)"> </text><text class="cls-14" transform="matrix(0.8357, -0.5492, 0.5492, 0.8357, 129.1884, 80.3867)"> </text><text class="cls-14" transform="translate(132.4613 78.144) rotate(-30.635)">3</text><text class="cls-14" transform="translate(140.7235 73.2236) rotate(-26.8056)">7</text><text class="cls-14" transform="translate(149.4496 68.6875) rotate(-22.125)">%</text><text class="cls-14" transform="translate(162.6732 63.4683) rotate(-18.574)"> </text><text class="cls-14" transform="translate(166.5726 62.1543) rotate(-16.9554)"> </text><text class="cls-14" transform="translate(170.5204 60.9477) rotate(-15.3315)"> </text><text class="cls-14" transform="translate(174.4877 59.8564) rotate(-13.714)"> </text><text class="cls-14" transform="matrix(0.9778, -0.2097, 0.2097, 0.9778, 178.472, 58.8804)"> </text><text class="cls-14" transform="translate(182.4984 58.0142) rotate(-10.487)"> </text><text class="cls-14" transform="matrix(0.988, -0.1542, 0.1542, 0.988, 186.5658, 57.2583)"> </text><text class="cls-14" transform="translate(190.6151 56.623) rotate(-7.2671)"> </text><text class="cls-14" transform="matrix(0.9951, -0.0987, 0.0987, 0.9951, 194.7025, 56.0986)"> </text><text class="cls-14" transform="translate(198.8241 55.6875) rotate(-4.0567)"> </text><text class="cls-14" transform="translate(202.9213 55.3935) rotate(-2.4712)"> </text><text class="cls-14" transform="translate(207.0546 55.2143) rotate(-0.9286)"> </text><text class="cls-14" transform="matrix(0.9999, 0.0162, -0.0162, 0.9999, 211.1229, 55.1357)"> </text><text class="cls-14" transform="matrix(0.9992, 0.0396, -0.0396, 0.9992, 215.2806, 55.1919)"> </text><text class="cls-14" transform="translate(219.3881 55.3516) rotate(3.8529)"> </text><text class="cls-14" transform="matrix(0.9955, 0.095, -0.095, 0.9955, 223.4955, 55.625)"> </text><text class="cls-14" transform="translate(227.599 56.0137) rotate(7.0525)"> </text><text class="cls-14" transform="translate(231.6996 56.5171) rotate(8.665)"> </text><text class="cls-14" transform="translate(235.764 57.1338) rotate(10.274)"> </text><text class="cls-14" transform="translate(239.8197 57.8652) rotate(11.8899)"> </text></g><g id="Outside_Labels" data-name="Outside Labels"><text class="cls-15" transform="translate(14.955 170.4517) rotate(-79.4904)">4</text><text class="cls-15" transform="translate(16.81 160.7031) rotate(-77.3821)">.</text><text class="cls-15" transform="matrix(0.2542, -0.9672, 0.9672, 0.2542, 17.768, 156.1787)">5</text><text class="cls-15" transform="translate(20.1703 146.7183) rotate(-71.7803)">%</text></g></g></g></svg>