<svg xmlns="http://www.w3.org/2000/svg" xmlns:xlink="http://www.w3.org/1999/xlink" viewBox="0 0 640 446.7734"><defs><style>.cls-1{fill:none;}.cls-16,.cls-2{fill:#fff;}.cls-3{clip-path:url(#clip-path);}.cls-11,.cls-4{fill:#ffa600;}.cls-4,.cls-5,.cls-6,.cls-7,.cls-8{fill-rule:evenodd;}.cls-12,.cls-17,.cls-5{fill:#003f5c;}.cls-13,.cls-6{fill:#bc5090;}.cls-14,.cls-7{fill:#ef5675;}.cls-15,.cls-8{fill:#ff764a;}.cls-9{font-size:28px;}.cls-10,.cls-16,.cls-17,.cls-9{font-family:Georgia;}.cls-10,.cls-16,.cls-17{font-size:20px;}</style><clipPath id="clip-path"><path class="cls-1" d="M188.4129,48.9664C82.5887,65.7273,10.3887,165.1021,27.15,270.9263S143.2853,448.95,249.1094,432.19,427.1336,316.0538,410.3727,210.23,294.237,32.2055,188.4129,48.9664Zm48.9639,309.1465a119,119,0,1,1,98.9193-136.1506A119,119,0,0,1,237.3768,358.1129Z"/></clipPath></defs><title>12</title><g id="Layer_2" data-name="Layer 2"><g id="Age"><g id="background"><rect class="cls-2" y="15.0593" width="640" height="430"/></g><g id="Chart"><g class="cls-3"><path class="cls-4" d="M218.7643,240.5775,33.63,214.5585a175.4562,175.4562,0,0,1,14.3436-50.022Z"/><path class="cls-5" d="M218.7643,240.5775,47.9736,164.5365C89.97,70.2114,200.48,27.7905,294.8052,69.7867c45.2761,20.1582,76.686,52.1212,96.0509,97.7421Z"/><path class="cls-6" d="M218.7643,240.5775l172.0918-73.0487c40.3437,95.0437-4,204.7968-99.0432,245.1405a179.6045,179.6045,0,0,1-63.2642,14.6057Z"/><path class="cls-7" d="M218.7643,240.5775l9.7844,186.6975C150.185,431.3819,82.49,390.7067,49.3267,319.5875Z"/><path class="cls-8" d="M218.7643,240.5775l-169.4376,79.01c-15.709-33.688-20.87-68.22-15.6967-105.029Z"/></g></g><g id="Headline"><text id="Headline-2" data-name="Headline" class="cls-9" transform="translate(195.6753 42.7743) rotate(-3.8974)">A</text><text class="cls-9" transform="translate(213.4439 41.5727) rotate(0.8395)">g</text><text class="cls-9" transform="matrix(0.9973, 0.0741, -0.0741, 0.9973, 226.9862, 41.722)">e</text><text/></g><g id="Legend"><text class="cls-10" transform="translate(489.1832 398.3858)">56-65</text><text class="cls-10" transform="translate(488.9862 364.614)">46-55</text><text class="cls-10" transform="translate(488.9862 330.614)">36-45</text><text class="cls-10" transform="translate(487.7142 296.8486)">26-35</text><text class="cls-10" transform="translate(487.7142 259.8486)">18-25</text><rect id="Swatch_1" data-name="Swatch 1" class="cls-11" x="450.6435" y="240.5766" width="24.7508" height="24.7508" transform="translate(715.9709 -210.0669) rotate(90)"/><rect id="Swatch_2" data-name="Swatch 2" class="cls-12" x="450.6435" y="276.8826" width="24.7508" height="24.7508" transform="translate(752.277 -173.7609) rotate(90)"/><rect id="Swatch_3" data-name="Swatch 3" class="cls-13" x="450.6435" y="310.9541" width="24.7508" height="24.7508" transform="translate(786.3484 -139.6894) rotate(90)"/><rect id="Swatch_4" data-name="Swatch 4" class="cls-14" x="450.6435" y="345.0256" width="24.7508" height="24.7508" transform="translate(820.4199 -105.6179) rotate(90)"/><rect id="Swatch_5" data-name="Swatch 5" class="cls-15" x="450.2275" y="379.5186" width="24.7508" height="24.7508" transform="translate(854.4969 -70.709) rotate(90)"/></g><g id="Inner_Labels" data-name="Inner Labels"><text class="cls-16" transform="translate(63.3446 219.2269) rotate(96.8721)"> </text><text class="cls-16" transform="matrix(-0.0881, 0.9961, -0.9961, -0.0881, 62.7504, 224.1888)"> </text><text class="cls-16" transform="translate(62.3153 229.1336) rotate(93.2532)"> </text><text class="cls-16" transform="matrix(-0.0255, 0.9997, -0.9997, -0.0255, 62.036, 234.0907)"> </text><text class="cls-16" transform="matrix(0.0162, 0.9999, -0.9999, 0.0162, 61.8871, 239.1991)"> </text><text class="cls-16" transform="translate(61.9408 244.0077) rotate(87.9026)"> </text><text class="cls-16" transform="translate(62.1254 248.9881) rotate(86.1014)"> </text><text class="cls-16" transform="translate(62.4642 253.9305) rotate(84.3028)"> </text><text class="cls-16" transform="matrix(0.153, 0.9882, -0.9882, 0.153, 62.9149, 259.1981)">9</text><text class="cls-16" transform="matrix(0.2462, 0.9692, -0.9692, 0.2462, 64.7279, 271.3778)">%</text><text class="cls-16" transform="matrix(0.3158, 0.9488, -0.9488, 0.3158, 69.1532, 287.8495)"> </text><text class="cls-16" transform="matrix(0.3458, 0.9383, -0.9383, 0.3458, 70.7201, 292.5506)"> </text><text class="cls-16" transform="translate(72.4515 297.2411) rotate(67.9296)"> </text><text class="cls-16" transform="translate(74.3148 301.8328) rotate(66.1086)"> </text><text class="cls-16" transform="translate(76.3441 306.4041) rotate(64.2726)"> </text><text class="cls-16" transform="translate(78.4994 310.8719) rotate(62.4541)"> </text><text class="cls-16" transform="translate(80.8041 315.286) rotate(60.6312)"> </text><text class="cls-16" transform="matrix(0.5178, 0.8555, -0.8555, 0.5178, 83.2445, 319.617)"> </text><text class="cls-16" transform="translate(85.8324 323.8875) rotate(56.9912)"> </text><text class="cls-16" transform="matrix(0.571, 0.821, -0.821, 0.571, 88.534, 328.0428)"> </text><text class="cls-16" transform="matrix(0.5966, 0.8025, -0.8025, 0.5966, 91.3798, 332.1287)"> </text><text class="cls-16" transform="translate(94.3505 336.1229) rotate(51.5592)"> </text><text class="cls-16" transform="matrix(0.6461, 0.7633, -0.7633, 0.6461, 97.4437, 340.0155)"> </text><text class="cls-16" transform="translate(100.6566 343.8084) rotate(47.9461)"> </text><text class="cls-16" transform="translate(103.9867 347.494) rotate(46.1419)"> </text><text class="cls-16" transform="translate(107.43 351.075) rotate(44.3384)"> </text><text class="cls-16" transform="translate(111.0062 354.5662) rotate(42.5232)"> </text><text class="cls-16" transform="translate(114.6698 357.9237) rotate(40.7184)"> </text><text class="cls-16" transform="matrix(0.7781, 0.6281, -0.6281, 0.7781, 118.4398, 361.1649)"> </text><text class="cls-16" transform="matrix(0.7976, 0.6032, -0.6032, 0.7976, 122.3124, 364.287)"> </text><text class="cls-16" transform="translate(126.2855 367.2899) rotate(35.2887)"> </text><text class="cls-16" transform="translate(130.556 370.4032) rotate(32.1895)">1</text><text class="cls-16" transform="matrix(0.8846, 0.4663, -0.4663, 0.8846, 140.7435, 376.7821)">9</text><text class="cls-16" transform="matrix(0.9248, 0.3803, -0.3803, 0.9248, 151.5848, 382.5789)">%</text><text class="cls-16" transform="translate(167.4232 388.8407) rotate(18.2089)"> </text><text class="cls-16" transform="matrix(0.9595, 0.2818, -0.2818, 0.9595, 172.1776, 390.4002)"> </text><text class="cls-16" transform="matrix(0.968, 0.2511, -0.2511, 0.968, 176.9398, 391.7977)"> </text><text class="cls-16" transform="matrix(0.9755, 0.22, -0.22, 0.9755, 181.764, 393.0467)"> </text><text class="cls-16" transform="matrix(0.982, 0.1888, -0.1888, 0.982, 186.618, 394.1375)"> </text><text class="cls-16" transform="matrix(0.9875, 0.1575, -0.1575, 0.9875, 191.4969, 395.0731)"> </text><text class="cls-16" transform="translate(196.4296 395.8563) rotate(7.2329)"> </text><text class="cls-16" transform="translate(201.3505 396.4793) rotate(5.4256)"> </text><text class="cls-16" transform="translate(206.3173 396.9481) rotate(3.615)"> </text><text class="cls-16" transform="translate(211.2655 397.2596) rotate(1.8249)"> </text><text class="cls-16" transform="translate(216.1761 397.3778) rotate(0.9289)"> </text><text class="cls-16" transform="translate(221.1517 397.4168) rotate(-1.7234)"> </text><text class="cls-16" transform="translate(226.14 397.2655) rotate(-3.5251)"> </text><text class="cls-16" transform="translate(231.0902 396.9578) rotate(-5.3239)"> </text><text class="cls-16" transform="translate(236.0609 396.492) rotate(-7.1425)"> </text><text class="cls-16" transform="translate(240.9877 395.8719) rotate(-8.9574)"> </text><text class="cls-16" transform="matrix(0.9824, -0.187, 0.187, 0.9824, 245.8959, 395.0955)"> </text><text class="cls-16" transform="matrix(0.9759, -0.2183, 0.2183, 0.9759, 250.7836, 394.1639)"> </text><text class="cls-16" transform="translate(255.6478 393.0731) rotate(-14.4397)"> </text><text class="cls-16" transform="translate(260.4828 391.825) rotate(-16.2772)"> </text><text class="cls-16" transform="translate(265.2582 390.4276) rotate(-18.109)"> </text><text class="cls-16" transform="translate(269.9691 388.8846) rotate(-19.9337)"> </text><text class="cls-16" transform="translate(274.6713 387.1776) rotate(-21.7733)"> </text><text class="cls-16" transform="translate(279.3011 385.3241) rotate(-23.6068)"> </text><text class="cls-16" transform="matrix(0.9031, -0.4294, 0.4294, 0.9031, 283.8568, 383.3309)"> </text><text class="cls-16" transform="matrix(0.889, -0.4579, 0.4579, 0.889, 288.3382, 381.1981)"> </text><text class="cls-16" transform="matrix(0.874, -0.486, 0.486, 0.874, 292.766, 378.9139)"> </text><text class="cls-16" transform="translate(297.1097 376.495) rotate(-30.8943)"> </text><text class="cls-16" transform="matrix(0.8414, -0.5403, 0.5403, 0.8414, 301.3685, 373.9452)"> </text><text class="cls-16" transform="translate(305.5648 371.2479) rotate(-34.5265)"> </text><text class="cls-16" transform="matrix(0.8055, -0.5926, 0.5926, 0.8055, 309.6673, 368.4227)"> </text><text class="cls-16" transform="matrix(0.7864, -0.6177, 0.6177, 0.7864, 313.6742, 365.4715)"> </text><text class="cls-16" transform="translate(317.5834 362.3983) rotate(-39.9598)"> </text><text class="cls-16" transform="translate(321.391 359.2039) rotate(-41.7656)"> </text><text class="cls-16" transform="translate(325.0961 355.8924) rotate(-43.5699)"> </text><text class="cls-16" transform="translate(328.973 352.3055) rotate(-46.6541)">3</text><text class="cls-16" transform="matrix(0.629, -0.7774, 0.7774, 0.629, 337.2103, 343.536)">0</text><text class="cls-16" transform="matrix(0.5846, -0.8113, 0.8113, 0.5846, 344.5199, 334.3514)">.</text><text class="cls-16" transform="matrix(0.5383, -0.8428, 0.8428, 0.5383, 348.0013, 329.6375)">5</text><text class="cls-16" transform="translate(354.684 319.3094) rotate(-62.8568)">%</text><text class="cls-16" transform="translate(99.4506 326.2274) rotate(-124.7843)"> </text><text class="cls-16" transform="matrix(-0.5448, -0.8386, 0.8386, -0.5448, 96.8461, 322.4852)"> </text><text class="cls-16" transform="matrix(-0.5185, -0.8551, 0.8551, -0.5185, 94.3563, 318.66)"> </text><text class="cls-16" transform="translate(91.9833 314.7537) rotate(-119.4446)"> </text><text class="cls-16" transform="translate(89.7425 310.7928) rotate(-117.6653)"> </text><text class="cls-16" transform="translate(87.6219 306.7577) rotate(-115.8798)"> </text><text class="cls-16" transform="matrix(-0.4081, -0.9129, 0.9129, -0.4081, 85.6239, 302.6493)"> </text><text class="cls-16" transform="matrix(-0.3795, -0.9252, 0.9252, -0.3795, 83.7626, 298.494)"> </text><text class="cls-16" transform="matrix(-0.3503, -0.9366, 0.9366, -0.3503, 82.0262, 294.2733)"> </text><text class="cls-16" transform="translate(80.4193 289.9852) rotate(-108.7069)"> </text><text class="cls-16" transform="translate(78.951 285.6629) rotate(-106.9109)"> </text><text class="cls-16" transform="matrix(-0.2608, -0.9654, 0.9654, -0.2608, 77.6219, 281.3075)"> </text><text class="cls-16" transform="matrix(-0.2304, -0.9731, 0.9731, -0.2304, 76.4257, 276.8963)"> </text><text class="cls-16" transform="translate(75.371 272.4559) rotate(-101.5308)"> </text><text class="cls-16" transform="translate(74.4559 267.993) rotate(-99.7454)"> </text><text class="cls-16" transform="matrix(-0.1386, -0.9903, 0.9903, -0.1386, 73.6815, 263.5077)"> </text><text class="cls-16" transform="matrix(-0.1077, -0.9942, 0.9942, -0.1077, 73.0433, 258.9774)"> </text><text class="cls-16" transform="translate(72.5467 254.4325) rotate(-94.4075)"> </text><text class="cls-16" transform="matrix(-0.0463, -0.9989, 0.9989, -0.0463, 72.1942, 249.9022)"> </text><text class="cls-16" transform="translate(71.9794 245.3299) rotate(-90.9286)"> </text><text class="cls-16" transform="matrix(0.0162, -0.9999, 0.9999, 0.0162, 71.8993, 240.7718)"> </text><text class="cls-16" transform="translate(71.9667 236.1908) rotate(-87.3926)"> </text><text class="cls-16" transform="matrix(0.0763, -0.9971, 0.9971, 0.0763, 72.1713, 231.6219)"> </text><text class="cls-16" transform="matrix(0.1069, -0.9943, 0.9943, 0.1069, 72.5131, 227.0902)"> </text><text class="cls-16" transform="matrix(0.1378, -0.9905, 0.9905, 0.1378, 72.9989, 222.5394)"> </text><text class="cls-16" transform="translate(73.6219 218.0311) rotate(-80.2993)"> </text><text class="cls-16" transform="translate(74.39 213.5111) rotate(-78.5026)"> </text><text class="cls-16" transform="translate(75.2899 209.0667) rotate(-76.7218)"> </text><text class="cls-16" transform="matrix(0.2601, -0.9656, 0.9656, 0.2601, 76.3363, 204.6151)"> </text><text class="cls-16" transform="translate(77.5165 200.2171) rotate(-73.1336)"> </text><text class="cls-16" transform="translate(78.8378 195.847) rotate(-71.3375)"> </text><text class="cls-16" transform="translate(80.2987 191.5077) rotate(-69.537)"> </text><text class="cls-16" transform="matrix(0.3786, -0.9256, 0.9256, 0.3786, 81.8812, 187.2557)"> </text><text class="cls-16" transform="translate(83.6117 183.0145) rotate(-65.9558)"> </text><text class="cls-16" transform="matrix(0.4358, -0.9, 0.9, 0.4358, 85.4691, 178.8402)"> </text><text class="cls-16" transform="translate(87.4525 174.7347) rotate(-62.3784)"> </text><text class="cls-16" transform="translate(89.5585 170.701) rotate(-60.5989)"> </text><text class="cls-16" transform="translate(91.7992 166.7166) rotate(-58.8138)"> </text><text class="cls-16" transform="translate(94.159 162.8099) rotate(-57.0336)"> </text><text class="cls-16" transform="translate(96.6366 158.9832) rotate(-55.2588)"> </text><text class="cls-16" transform="translate(99.2284 155.2386) rotate(-53.4877)"> </text><text class="cls-16" transform="translate(101.9486 151.557) rotate(-51.709)"> </text><text class="cls-16" transform="matrix(0.6437, -0.7653, 0.7653, 0.6437, 104.7797, 147.9642)"> </text><text class="cls-16" transform="translate(107.7025 144.4837) rotate(-48.1703)"> </text><text class="cls-16" transform="translate(110.7484 141.0745) rotate(-46.398)"> </text><text class="cls-16" transform="translate(113.8968 137.763) rotate(-44.6261)"> </text><text class="cls-16" transform="translate(117.1473 134.5492) rotate(-42.8545)"> </text><text class="cls-16" transform="matrix(0.7537, -0.6573, 0.6573, 0.7537, 120.4755, 131.4549)"> </text><text class="cls-16" transform="matrix(0.7736, -0.6336, 0.6336, 0.7736, 123.9193, 128.4471)"> </text><text class="cls-16" transform="matrix(0.7929, -0.6093, 0.6093, 0.7929, 127.4574, 125.5438)"> </text><text class="cls-16" transform="translate(131.0633 122.7674) rotate(-35.7724)"> </text><text class="cls-16" transform="matrix(0.8291, -0.559, 0.559, 0.8291, 134.7801, 120.0853)"> </text><text class="cls-16" transform="matrix(0.8461, -0.533, 0.533, 0.8461, 138.559, 117.5321)"> </text><text class="cls-16" transform="matrix(0.8623, -0.5065, 0.5065, 0.8623, 142.4213, 115.0946)"> </text><text class="cls-16" transform="matrix(0.8775, -0.4795, 0.4795, 0.8775, 146.3387, 112.7879)"> </text><text class="cls-16" transform="translate(150.3583 110.5872) rotate(-26.8604)"> </text><text class="cls-16" transform="matrix(0.9058, -0.4238, 0.4238, 0.9058, 154.4276, 108.5223)"> </text><text class="cls-16" transform="translate(158.5428 106.5916) rotate(-23.2884)"> </text><text class="cls-16" transform="translate(162.5448 104.7655) rotate(-20.2977)">3</text><text class="cls-16" transform="matrix(0.9611, -0.2762, 0.2762, 0.9611, 172.5209, 101.0433)">7</text><text class="cls-16" transform="matrix(0.9822, -0.188, 0.188, 0.9822, 182.9584, 97.8983)">%</text><text class="cls-16" transform="matrix(0.9927, -0.1204, 0.1204, 0.9927, 198.4916, 95.1058)"> </text><text class="cls-16" transform="matrix(0.996, -0.0896, 0.0896, 0.996, 203.0199, 94.5531)"> </text><text class="cls-16" transform="translate(207.5624 94.1395) rotate(-3.3779)"> </text><text class="cls-16" transform="matrix(0.9996, -0.0283, 0.0283, 0.9996, 212.1146, 93.8665)"> </text><text class="cls-16" transform="matrix(0.9999, 0.0162, -0.0162, 0.9999, 216.5756, 93.6991)"> </text><text class="cls-16" transform="matrix(0.9995, 0.0328, -0.0328, 0.9995, 221.2631, 93.7401)"> </text><text class="cls-16" transform="translate(225.8187 93.8861) rotate(3.6377)"> </text><text class="cls-16" transform="matrix(0.9956, 0.0942, -0.0942, 0.9956, 230.3656, 94.1707)"> </text><text class="cls-16" transform="translate(234.9027 94.596) rotate(7.1767)"> </text><text class="cls-16" transform="matrix(0.9878, 0.1559, -0.1559, 0.9878, 239.4574, 95.1659)"> </text><text class="cls-16" transform="matrix(0.9825, 0.1864, -0.1864, 0.9825, 243.9398, 95.869)"> </text><text class="cls-16" transform="matrix(0.9761, 0.2171, -0.2171, 0.9761, 248.434, 96.7171)"> </text><text class="cls-16" transform="translate(252.8783 97.701) rotate(14.3286)"> </text><text class="cls-16" transform="translate(257.2982 98.8265) rotate(16.1222)"> </text><text class="cls-16" transform="translate(261.6927 100.0916) rotate(17.9207)"> </text><text class="cls-16" transform="translate(266.0287 101.4901) rotate(19.7128)"> </text><text class="cls-16" transform="translate(270.3314 103.0277) rotate(21.5094)"> </text><text class="cls-16" transform="translate(274.5736 104.6952) rotate(23.2995)"> </text><text class="cls-16" transform="translate(278.7767 106.5008) rotate(25.0936)"> </text><text class="cls-16" transform="translate(282.9105 108.432) rotate(26.8823)"> </text></g><g id="Outside_Labels" data-name="Outside Labels"><text class="cls-17" transform="translate(22.1601 209.0653) rotate(-79.333)">4</text><text class="cls-17" transform="matrix(0.2251, -0.9743, 0.9743, 0.2251, 24.2582, 198.2215)">.</text><text class="cls-17" transform="matrix(0.2631, -0.9648, 0.9648, 0.2631, 25.3647, 193.1903)">5</text><text class="cls-17" transform="translate(27.9316 183.3612) rotate(-70.9613)">%</text></g></g></g></svg>