<svg xmlns="http://www.w3.org/2000/svg" xmlns:xlink="http://www.w3.org/1999/xlink" viewBox="0 0 643.3052 447.2122"><defs><style>.cls-1{fill:none;}.cls-12,.cls-2{fill:#fff;}.cls-3{clip-path:url(#clip-path);}.cls-14,.cls-4,.cls-9{fill:#003f5c;}.cls-4,.cls-5,.cls-6{fill-rule:evenodd;}.cls-11,.cls-5{fill:#ffa600;}.cls-10,.cls-6{fill:#7a5195;}.cls-7{font-size:28px;}.cls-12,.cls-13,.cls-7,.cls-8{font-family:Georgia;}.cls-12,.cls-8{font-size:20px;}.cls-13{font-size:16px;}.cls-14{stroke:#003f5c;stroke-linecap:round;stroke-miterlimit:10;stroke-width:3px;}</style><clipPath id="clip-path"><path class="cls-1" d="M13.1068,227.0452c-7.4739,106.8823,73.1124,199.5863,179.9947,207.06s199.5862-73.1124,207.06-179.9947S327.0492,54.5245,220.167,47.0505,20.5807,120.163,13.1068,227.0452ZM325.3444,248.879A119,119,0,1,1,214.9353,121.8678,119,119,0,0,1,325.3444,248.879Z"/></clipPath></defs><title>13</title><g id="Layer_2" data-name="Layer 2"><g id="Gender_Identity" data-name="Gender Identity"><g id="background"><rect class="cls-2" x="3.3052" y="16.2938" width="640" height="430"/></g><g id="Chart"><g class="cls-3"><path class="cls-4" d="M206.6345,240.5748,139.6362,415.1111C43.2425,378.109-4.904,269.97,32.0981,173.5766S177.2389,29.0363,273.6327,66.0384c42.4132,16.281,72.1931,41.7153,94.9085,81.06Z"/><path class="cls-5" d="M206.6345,240.5748l161.9067-93.4769a180.6949,180.6949,0,0,1,14.8615,32.6107Z"/><path class="cls-6" d="M206.6345,240.5748l176.7682-60.8662c33.6155,97.6264-18.2757,204.019-115.9021,237.6344-42.9556,14.7908-85.4511,14.0491-127.8644-2.2319Z"/></g></g><g id="Headline"><text id="Headline-2" data-name="Headline" class="cls-7" transform="translate(116.0968 62.6579) rotate(-24.0902)">G</text><text class="cls-7" transform="matrix(0.9428, -0.3333, 0.3333, 0.9428, 133.7995, 54.85)">e</text><text class="cls-7" transform="translate(145.7166 50.5462) rotate(-15.3656)">n</text><text class="cls-7" transform="translate(160.759 46.3845) rotate(-10.9192)">d</text><text class="cls-7" transform="matrix(0.9928, -0.1201, 0.1201, 0.9928, 175.7223, 43.514)">e</text><text class="cls-7" transform="translate(188.4573 41.9829) rotate(-3.5291)">r</text><text class="cls-7" transform="translate(199.4143 41.3477) rotate(-1.087)"> </text><text class="cls-7" transform="matrix(0.9998, 0.0219, -0.0219, 0.9998, 205.6484, 41.1763)">I</text><text class="cls-7" transform="matrix(0.9964, 0.0849, -0.0849, 0.9964, 215.8039, 41.2923)">d</text><text class="cls-7" transform="matrix(0.988, 0.1544, -0.1544, 0.988, 230.9837, 42.6007)">e</text><text class="cls-7" transform="matrix(0.9745, 0.2246, -0.2246, 0.9745, 243.5336, 44.4761)">n</text><text class="cls-7" transform="translate(258.9055 48.1045) rotate(16.5551)">t</text><text class="cls-7" transform="translate(267.6723 50.7153) rotate(18.9936)">i</text><text class="cls-7" transform="translate(274.9496 53.1918) rotate(21.4312)">t</text><text class="cls-7" transform="matrix(0.9091, 0.4166, -0.4166, 0.9091, 283.3355, 56.4018)">y</text><text/></g><g id="Legend"><text class="cls-8" transform="translate(491.8755 330.3545)">Non-Binary <tspan x="0" y="24">&amp; Other</tspan></text><text class="cls-8" transform="translate(490.6035 296.589)">Men</text><text class="cls-8" transform="translate(490.6035 259.589)">Women</text><rect id="Swatch_1" data-name="Swatch 1" class="cls-9" x="453.5327" y="240.3171" width="24.7508" height="24.7508" transform="translate(718.6006 -213.2157) rotate(90)"/><rect id="Swatch_2" data-name="Swatch 2" class="cls-10" x="453.5327" y="276.6231" width="24.7508" height="24.7508" transform="translate(754.9066 -176.9096) rotate(90)"/><rect id="Swatch_3" data-name="Swatch 3" class="cls-11" x="453.5327" y="310.6946" width="24.7508" height="24.7508" transform="translate(788.9781 -142.8381) rotate(90)"/></g><g id="Inner_Labels" data-name="Inner Labels"><text class="cls-12" transform="translate(51.2177 219.2269) rotate(96.8721)"> </text><text class="cls-12" transform="matrix(-0.0881, 0.9961, -0.9961, -0.0881, 50.6234, 224.1888)"> </text><text class="cls-12" transform="translate(50.1884 229.1336) rotate(93.2532)"> </text><text class="cls-12" transform="matrix(-0.0255, 0.9997, -0.9997, -0.0255, 49.9091, 234.0907)"> </text><text class="cls-12" transform="matrix(0.0162, 0.9999, -0.9999, 0.0162, 49.7601, 239.1991)"> </text><text class="cls-12" transform="translate(49.8139 244.0077) rotate(87.9026)"> </text><text class="cls-12" transform="translate(49.9984 248.9881) rotate(86.1014)"> </text><text class="cls-12" transform="translate(50.3373 253.9305) rotate(84.3028)"> </text><text class="cls-12" transform="matrix(0.1308, 0.9914, -0.9914, 0.1308, 50.8353, 258.8905)"> </text><text class="cls-12" transform="matrix(0.1623, 0.9867, -0.9867, 0.1623, 51.4901, 263.8387)"> </text><text class="cls-12" transform="translate(52.2977 268.7371) rotate(78.8392)"> </text><text class="cls-12" transform="translate(53.2689 273.6434) rotate(77.0017)"> </text><text class="cls-12" transform="matrix(0.256, 0.9667, -0.9667, 0.256, 54.392, 278.495)"> </text><text class="cls-12" transform="matrix(0.2866, 0.958, -0.958, 0.2866, 55.663, 283.2899)"> </text><text class="cls-12" transform="translate(57.0995 288.0789) rotate(71.5036)"> </text><text class="cls-12" transform="translate(58.6727 292.7772) rotate(69.6802)"> </text><text class="cls-12" transform="translate(60.411 297.4627) rotate(67.8422)"> </text><text class="cls-12" transform="matrix(0.4064, 0.9137, -0.9137, 0.4064, 62.2821, 302.0516)"> </text><text class="cls-12" transform="matrix(0.4355, 0.9002, -0.9002, 0.4355, 64.3173, 306.62)"> </text><text class="cls-12" transform="translate(66.4789 311.0838) rotate(62.3672)"> </text><text class="cls-12" transform="matrix(0.4917, 0.8707, -0.8707, 0.4917, 68.7904, 315.495)"> </text><text class="cls-12" transform="translate(71.2367 319.8221) rotate(58.7275)"> </text><text class="cls-12" transform="translate(73.8309 324.0877) rotate(56.9045)"> </text><text class="cls-12" transform="translate(76.5394 328.2391) rotate(55.0977)"> </text><text class="cls-12" transform="matrix(0.5979, 0.8016, -0.8016, 0.5979, 79.3905, 332.3211)"> </text><text class="cls-12" transform="translate(82.3676 336.3084) rotate(51.4732)"> </text><text class="cls-12" transform="matrix(0.6472, 0.7623, -0.7623, 0.6472, 85.4662, 340.1971)"> </text><text class="cls-12" transform="matrix(0.6709, 0.7415, -0.7415, 0.6709, 88.6845, 343.9852)"> </text><text class="cls-12" transform="matrix(0.6939, 0.72, -0.72, 0.6939, 92.0199, 347.6668)"> </text><text class="cls-12" transform="translate(95.4891 351.2635) rotate(44.242)"> </text><text class="cls-12" transform="translate(99.0502 354.7274) rotate(42.4379)"> </text><text class="cls-12" transform="translate(102.7196 358.0789) rotate(40.6333)"> </text><text class="cls-12" transform="translate(106.494 361.3153) rotate(38.8257)"> </text><text class="cls-12" transform="translate(110.3715 364.4325) rotate(37.0163)"> </text><text class="cls-12" transform="translate(114.349 367.4295) rotate(35.2032)"> </text><text class="cls-12" transform="translate(118.3993 370.283) rotate(33.3969)"> </text><text class="cls-12" transform="translate(122.5682 373.0291) rotate(31.5754)"> </text><text class="cls-12" transform="translate(126.8026 375.6278) rotate(29.7586)"> </text><text class="cls-12" transform="translate(131.1259 378.0975) rotate(27.9367)"> </text><text class="cls-12" transform="matrix(0.898, 0.4401, -0.4401, 0.898, 135.5336, 380.4315)"> </text><text class="cls-12" transform="translate(139.9974 382.617) rotate(24.2846)"> </text><text class="cls-12" transform="translate(144.5389 384.6629) rotate(22.4546)"> </text><text class="cls-12" transform="translate(149.1298 386.5594) rotate(20.6282)"> </text><text class="cls-12" transform="translate(153.7929 388.3114) rotate(18.7957)"> </text><text class="cls-12" transform="translate(158.5258 389.9188) rotate(16.9554)"> </text><text class="cls-12" transform="matrix(0.9653, 0.261, -0.261, 0.9653, 163.2675, 391.3621)"> </text><text class="cls-12" transform="matrix(0.9732, 0.2299, -0.2299, 0.9732, 168.101, 392.6668)"> </text><text class="cls-12" transform="translate(172.9364 393.8055) rotate(11.4638)"> </text><text class="cls-12" transform="translate(177.7987 394.7899) rotate(9.6439)"> </text><text class="cls-12" transform="translate(182.7138 395.6219) rotate(7.8196)"> </text><text class="cls-12" transform="translate(187.6498 396.2977) rotate(6.0028)"> </text><text class="cls-12" transform="translate(192.6019 396.8162) rotate(4.1925)"> </text><text class="cls-12" transform="translate(197.5678 397.1776) rotate(2.3923)"> </text><text class="cls-12" transform="translate(202.4242 397.369) rotate(0.9289)"> </text><text class="cls-12" transform="translate(207.4486 397.4334) rotate(-1.1564)"> </text><text class="cls-12" transform="translate(212.4164 397.3309) rotate(-2.9472)"> </text><text class="cls-12" transform="translate(217.3803 397.0731) rotate(-4.747)"> </text><text class="cls-12" transform="translate(222.3334 396.659) rotate(-6.5553)"> </text><text class="cls-12" transform="translate(227.2738 396.0887) rotate(-8.372)"> </text><text class="cls-12" transform="translate(232.1996 395.3612) rotate(-10.1952)"> </text><text class="cls-12" transform="translate(237.1039 394.4764) rotate(-12.0244)"> </text><text class="cls-12" transform="translate(241.9847 393.4354) rotate(-13.8592)"> </text><text class="cls-12" transform="translate(247.1371 392.2411) rotate(-16.9889)">3</text><text class="cls-12" transform="matrix(0.931, -0.365, 0.365, 0.931, 258.6234, 388.701)">6</text><text class="cls-12" transform="translate(270.0834 384.284) rotate(-26.8491)">%</text><text class="cls-12" transform="translate(285.1879 376.3778) rotate(-30.9807)"> </text><text class="cls-12" transform="matrix(0.8137, -0.5812, 0.5812, 0.8137, 290.1478, 373.6795)">M</text><text class="cls-12" transform="translate(305.9174 362.0926) rotate(-41.039)">e</text><text class="cls-12" transform="translate(313.767 355.2772) rotate(-45.2026)">n</text><text class="cls-12" transform="translate(87.3236 326.2274) rotate(-124.7843)"> </text><text class="cls-12" transform="matrix(-0.5448, -0.8386, 0.8386, -0.5448, 84.7191, 322.4852)"> </text><text class="cls-12" transform="matrix(-0.5185, -0.8551, 0.8551, -0.5185, 82.2294, 318.66)"> </text><text class="cls-12" transform="translate(79.8563 314.7537) rotate(-119.4446)"> </text><text class="cls-12" transform="translate(77.6156 310.7928) rotate(-117.6653)"> </text><text class="cls-12" transform="translate(75.495 306.7577) rotate(-115.8798)"> </text><text class="cls-12" transform="matrix(-0.4081, -0.9129, 0.9129, -0.4081, 73.497, 302.6493)"> </text><text class="cls-12" transform="matrix(-0.3795, -0.9252, 0.9252, -0.3795, 71.6356, 298.494)"> </text><text class="cls-12" transform="matrix(-0.3503, -0.9366, 0.9366, -0.3503, 69.8993, 294.2733)"> </text><text class="cls-12" transform="translate(68.2924 289.9852) rotate(-108.7069)"> </text><text class="cls-12" transform="translate(66.8241 285.6629) rotate(-106.9109)"> </text><text class="cls-12" transform="matrix(-0.2608, -0.9654, 0.9654, -0.2608, 65.495, 281.3075)"> </text><text class="cls-12" transform="matrix(-0.2304, -0.9731, 0.9731, -0.2304, 64.2987, 276.8963)"> </text><text class="cls-12" transform="translate(63.244 272.4559) rotate(-101.5308)"> </text><text class="cls-12" transform="translate(62.329 267.993) rotate(-99.7454)"> </text><text class="cls-12" transform="matrix(-0.1386, -0.9903, 0.9903, -0.1386, 61.5546, 263.5077)"> </text><text class="cls-12" transform="matrix(-0.1077, -0.9942, 0.9942, -0.1077, 60.9164, 258.9774)"> </text><text class="cls-12" transform="translate(60.4198 254.4325) rotate(-94.4075)"> </text><text class="cls-12" transform="matrix(-0.0463, -0.9989, 0.9989, -0.0463, 60.0673, 249.9022)"> </text><text class="cls-12" transform="translate(59.8524 245.3299) rotate(-90.9286)"> </text><text class="cls-12" transform="matrix(0.0162, -0.9999, 0.9999, 0.0162, 59.7723, 240.7718)"> </text><text class="cls-12" transform="translate(59.8397 236.1908) rotate(-87.3926)"> </text><text class="cls-12" transform="matrix(0.0763, -0.9971, 0.9971, 0.0763, 60.0443, 231.6219)"> </text><text class="cls-12" transform="matrix(0.1069, -0.9943, 0.9943, 0.1069, 60.3861, 227.0902)"> </text><text class="cls-12" transform="matrix(0.1378, -0.9905, 0.9905, 0.1378, 60.872, 222.5394)"> </text><text class="cls-12" transform="translate(61.495 218.0311) rotate(-80.2993)"> </text><text class="cls-12" transform="translate(62.2631 213.5111) rotate(-78.5026)"> </text><text class="cls-12" transform="translate(63.163 209.0667) rotate(-76.7218)"> </text><text class="cls-12" transform="matrix(0.2601, -0.9656, 0.9656, 0.2601, 64.2094, 204.6151)"> </text><text class="cls-12" transform="translate(65.3895 200.2171) rotate(-73.1336)"> </text><text class="cls-12" transform="translate(66.7108 195.847) rotate(-71.3375)"> </text><text class="cls-12" transform="translate(68.1718 191.5077) rotate(-69.537)"> </text><text class="cls-12" transform="matrix(0.3786, -0.9256, 0.9256, 0.3786, 69.7543, 187.2557)"> </text><text class="cls-12" transform="translate(71.4847 183.0145) rotate(-65.9558)"> </text><text class="cls-12" transform="matrix(0.4358, -0.9, 0.9, 0.4358, 73.3422, 178.8402)"> </text><text class="cls-12" transform="translate(75.3256 174.7347) rotate(-62.3784)"> </text><text class="cls-12" transform="translate(77.4315 170.701) rotate(-60.5989)"> </text><text class="cls-12" transform="translate(79.6722 166.7166) rotate(-58.8138)"> </text><text class="cls-12" transform="translate(82.0321 162.8099) rotate(-57.0336)"> </text><text class="cls-12" transform="translate(84.5097 158.9832) rotate(-55.2588)"> </text><text class="cls-12" transform="translate(87.1014 155.2386) rotate(-53.4877)"> </text><text class="cls-12" transform="translate(89.8217 151.557) rotate(-51.709)"> </text><text class="cls-12" transform="matrix(0.6437, -0.7653, 0.7653, 0.6437, 92.6527, 147.9642)"> </text><text class="cls-12" transform="translate(95.5756 144.4837) rotate(-48.1703)"> </text><text class="cls-12" transform="translate(98.6215 141.0746) rotate(-46.398)"> </text><text class="cls-12" transform="translate(101.7699 137.763) rotate(-44.6261)"> </text><text class="cls-12" transform="translate(105.0204 134.5492) rotate(-42.8545)"> </text><text class="cls-12" transform="matrix(0.7537, -0.6573, 0.6573, 0.7537, 108.3485, 131.4549)"> </text><text class="cls-12" transform="matrix(0.7736, -0.6336, 0.6336, 0.7736, 111.7924, 128.4471)"> </text><text class="cls-12" transform="matrix(0.7929, -0.6093, 0.6093, 0.7929, 115.3305, 125.5438)"> </text><text class="cls-12" transform="translate(118.9364 122.7674) rotate(-35.7724)"> </text><text class="cls-12" transform="matrix(0.8291, -0.559, 0.559, 0.8291, 122.6532, 120.0853)"> </text><text class="cls-12" transform="matrix(0.8461, -0.533, 0.533, 0.8461, 126.432, 117.5321)"> </text><text class="cls-12" transform="matrix(0.8623, -0.5065, 0.5065, 0.8623, 130.2943, 115.0946)"> </text><text class="cls-12" transform="matrix(0.8775, -0.4795, 0.4795, 0.8775, 134.2118, 112.7879)"> </text><text class="cls-12" transform="translate(138.0272 110.5951) rotate(-25.6725)">6</text><text class="cls-12" transform="translate(147.6058 105.9652) rotate(-21.4984)">1</text><text class="cls-12" transform="matrix(0.9595, -0.2818, 0.2818, 0.9595, 157.3402, 101.973)">%</text><text class="cls-12" transform="translate(172.5297 97.6991) rotate(-12.4277)"> </text><text class="cls-12" transform="matrix(0.9905, -0.1378, 0.1378, 0.9905, 176.5438, 96.4925)">W</text><text class="cls-12" transform="translate(195.0975 94.0872) rotate(-2.358)">o</text><text class="cls-12" transform="matrix(0.9988, 0.0488, -0.0488, 0.9988, 205.1312, 93.4867)">m</text><text class="cls-12" transform="matrix(0.9907, 0.1359, -0.1359, 0.9907, 221.9857, 94.4525)">e</text><text class="cls-12" transform="matrix(0.9789, 0.2043, -0.2043, 0.9789, 231.0082, 95.6312)">n</text><text class="cls-12" transform="translate(242.101 98.0296) rotate(14.8749)"> </text><text class="cls-12" transform="translate(246.5053 99.1947) rotate(16.6669)"> </text><text class="cls-12" transform="matrix(0.9485, 0.3167, -0.3167, 0.9485, 250.8812, 100.5013)"> </text><text class="cls-12" transform="translate(255.2015 101.9388) rotate(20.2535)"> </text><text class="cls-12" transform="translate(259.4877 103.5155) rotate(22.048)"> </text><text class="cls-12" transform="translate(263.7084 105.221) rotate(23.8363)"> </text><text class="cls-12" transform="matrix(0.9016, 0.4325, -0.4325, 0.9016, 267.892, 107.0648)"> </text><text class="cls-12" transform="translate(272.0053 109.033) rotate(27.4155)"> </text><text class="cls-12" transform="translate(276.0726 111.1385) rotate(29.2065)"> </text><text class="cls-12" transform="matrix(0.8573, 0.5148, -0.5148, 0.8573, 280.0404, 113.3519)"> </text><text class="cls-12" transform="translate(283.9555 115.6986) rotate(32.7612)"> </text><text class="cls-12" transform="translate(287.7914 118.162) rotate(34.5372)"> </text><text class="cls-12" transform="translate(291.5687 120.7567) rotate(36.3195)"> </text><text class="cls-12" transform="matrix(0.7871, 0.6169, -0.6169, 0.7871, 295.2377, 123.4481)"> </text><text class="cls-12" transform="translate(298.8412 126.2674) rotate(39.8634)"> </text><text class="cls-12" transform="matrix(0.7474, 0.6644, -0.6644, 0.7474, 302.3529, 129.1956)"> </text><text class="cls-12" transform="translate(305.7523 132.2108) rotate(43.3988)"> </text><text class="cls-12" transform="matrix(0.705, 0.7092, -0.7092, 0.705, 309.0765, 135.3485)"> </text><text class="cls-12" transform="matrix(0.6827, 0.7307, -0.7307, 0.6827, 312.3012, 138.5872)"> </text><text class="cls-12" transform="translate(315.4242 141.9246) rotate(48.7157)"> </text><text class="cls-13" transform="translate(431.3408 130.7379)">3% Non-Binary<tspan x="26.5586" y="19.2002">&amp; Other</tspan></text><path class="cls-14" d="M383.105,161.8573l36.48-16.7272a2.3684,2.3684,0,0,0,2.8467.73,2.42,2.42,0,0,0-2.0172-4.3992,2.3685,2.3685,0,0,0-1.3042,2.6337"/></g></g></g></svg>