<svg xmlns="http://www.w3.org/2000/svg" xmlns:xlink="http://www.w3.org/1999/xlink" viewBox="0 0 640 400"><defs><style>.cls-1{fill:none;}.cls-11,.cls-12,.cls-2{fill:#fff;}.cls-3{clip-path:url(#clip-path);}.cls-13,.cls-4,.cls-8{fill:#003f5c;}.cls-4,.cls-5,.cls-6{fill-rule:evenodd;}.cls-10,.cls-5{fill:#ffa600;}.cls-6,.cls-9{fill:#7a5195;}.cls-12,.cls-7{font-size:18px;}.cls-11,.cls-12,.cls-7{font-family:Georgia;}.cls-11{font-size:20px;}.cls-13{stroke:#003f5c;stroke-linecap:round;stroke-miterlimit:10;stroke-width:3px;}</style><clipPath id="clip-path"><path class="cls-1" d="M9.5741,183.8724C2.1,290.7546,82.6865,383.4586,189.5688,390.9326S389.155,317.82,396.6289,210.9379,323.5165,11.3516,216.6343,3.8777,17.048,76.99,9.5741,183.8724Zm312.2375,21.8337A119,119,0,1,1,211.4025,78.695,119,119,0,0,1,321.8116,205.7061Z"/></clipPath></defs><g id="Layer_2" data-name="Layer 2"><g id="Gender_Identity" data-name="Gender Identity"><g id="background"><rect class="cls-2" width="640" height="400"/></g><g id="Chart"><g class="cls-3"><path class="cls-4" d="M203.1017,197.4019,136.1035,371.9383C39.71,334.9362-8.4367,226.7975,28.5654,130.4037S173.7062-14.1365,270.1,22.8656c42.4132,16.2809,72.1931,41.7153,94.9084,81.06Z"/><path class="cls-5" d="M203.1017,197.4019l161.9067-93.4768A180.6953,180.6953,0,0,1,379.87,136.5358Z"/><path class="cls-6" d="M203.1017,197.4019,379.87,136.5358c33.6154,97.6264-18.2757,204.0189-115.9021,237.6344-42.9556,14.7908-85.4511,14.049-127.8644-2.2319Z"/></g></g><g id="Legend"><text class="cls-7" transform="translate(488.3428 287.1816)">Non-Binary <tspan x="0" y="20">&amp; Other</tspan></text><text class="cls-7" transform="translate(487.0708 253.4162)">Men</text><text class="cls-7" transform="translate(487.0708 216.4162)">Women</text><rect id="Swatch_1" data-name="Swatch 1" class="cls-8" x="450" y="197.1442" width="24.7508" height="24.7508" transform="translate(671.895 -252.8558) rotate(90)"/><rect id="Swatch_2" data-name="Swatch 2" class="cls-9" x="450" y="233.4503" width="24.7508" height="24.7508" transform="translate(708.201 -216.5498) rotate(90)"/><rect id="Swatch_3" data-name="Swatch 3" class="cls-10" x="450" y="267.5217" width="24.7508" height="24.7508" transform="translate(742.2725 -182.4783) rotate(90)"/></g><g id="Inner_Labels" data-name="Inner Labels"><text class="cls-11" transform="translate(47.6849 176.0541) rotate(96.8721)"> </text><text class="cls-11" transform="matrix(-0.0881, 0.9961, -0.9961, -0.0881, 47.0907, 181.016)"> </text><text class="cls-11" transform="translate(46.6556 185.9608) rotate(93.2532)"> </text><text class="cls-11" transform="matrix(-0.0255, 0.9997, -0.9997, -0.0255, 46.3763, 190.9178)"> </text><text class="cls-11" transform="matrix(0.0162, 0.9999, -0.9999, 0.0162, 46.2274, 196.0262)"> </text><text class="cls-11" transform="translate(46.2811 200.8348) rotate(87.9026)"> </text><text class="cls-11" transform="translate(46.4657 205.8153) rotate(86.1014)"> </text><text class="cls-11" transform="translate(46.8046 210.7577) rotate(84.3028)"> </text><text class="cls-11" transform="matrix(0.1308, 0.9914, -0.9914, 0.1308, 47.3026, 215.7176)"> </text><text class="cls-11" transform="matrix(0.1623, 0.9867, -0.9867, 0.1623, 47.9574, 220.6659)"> </text><text class="cls-11" transform="translate(48.765 225.5643) rotate(78.8392)"> </text><text class="cls-11" transform="translate(49.7362 230.4706) rotate(77.0017)"> </text><text class="cls-11" transform="matrix(0.256, 0.9667, -0.9667, 0.256, 50.8593, 235.3221)"> </text><text class="cls-11" transform="matrix(0.2866, 0.958, -0.958, 0.2866, 52.1302, 240.117)"> </text><text class="cls-11" transform="translate(53.5668 244.9061) rotate(71.5036)"> </text><text class="cls-11" transform="translate(55.14 249.6043) rotate(69.6802)"> </text><text class="cls-11" transform="translate(56.8783 254.2899) rotate(67.8422)"> </text><text class="cls-11" transform="matrix(0.4064, 0.9137, -0.9137, 0.4064, 58.7494, 258.8788)"> </text><text class="cls-11" transform="matrix(0.4355, 0.9002, -0.9002, 0.4355, 60.7845, 263.4471)"> </text><text class="cls-11" transform="translate(62.9462 267.911) rotate(62.3672)"> </text><text class="cls-11" transform="matrix(0.4917, 0.8707, -0.8707, 0.4917, 65.2577, 272.3221)"> </text><text class="cls-11" transform="translate(67.704 276.6493) rotate(58.7275)"> </text><text class="cls-11" transform="translate(70.2982 280.9149) rotate(56.9045)"> </text><text class="cls-11" transform="translate(73.0067 285.0663) rotate(55.0977)"> </text><text class="cls-11" transform="matrix(0.5979, 0.8016, -0.8016, 0.5979, 75.8578, 289.1483)"> </text><text class="cls-11" transform="translate(78.8348 293.1356) rotate(51.4732)"> </text><text class="cls-11" transform="matrix(0.6472, 0.7623, -0.7623, 0.6472, 81.9335, 297.0243)"> </text><text class="cls-11" transform="matrix(0.6709, 0.7415, -0.7415, 0.6709, 85.1517, 300.8124)"> </text><text class="cls-11" transform="matrix(0.6939, 0.72, -0.72, 0.6939, 88.4872, 304.494)"> </text><text class="cls-11" transform="translate(91.9564 308.0907) rotate(44.242)"> </text><text class="cls-11" transform="translate(95.5175 311.5545) rotate(42.4379)"> </text><text class="cls-11" transform="translate(99.1869 314.9061) rotate(40.6333)"> </text><text class="cls-11" transform="translate(102.9613 318.1424) rotate(38.8257)"> </text><text class="cls-11" transform="translate(106.8387 321.2596) rotate(37.0163)"> </text><text class="cls-11" transform="translate(110.8163 324.2567) rotate(35.2032)"> </text><text class="cls-11" transform="translate(114.8666 327.1102) rotate(33.3969)"> </text><text class="cls-11" transform="translate(119.0355 329.8563) rotate(31.5754)"> </text><text class="cls-11" transform="translate(123.2699 332.4549) rotate(29.7586)"> </text><text class="cls-11" transform="translate(127.5931 334.9247) rotate(27.9367)"> </text><text class="cls-11" transform="matrix(0.898, 0.4401, -0.4401, 0.898, 132.0009, 337.2586)"> </text><text class="cls-11" transform="translate(136.4647 339.4442) rotate(24.2846)"> </text><text class="cls-11" transform="translate(141.0062 341.4901) rotate(22.4546)"> </text><text class="cls-11" transform="translate(145.597 343.3866) rotate(20.6282)"> </text><text class="cls-11" transform="translate(150.2601 345.1385) rotate(18.7957)"> </text><text class="cls-11" transform="translate(154.993 346.7459) rotate(16.9554)"> </text><text class="cls-11" transform="matrix(0.9653, 0.261, -0.261, 0.9653, 159.7347, 348.1893)"> </text><text class="cls-11" transform="matrix(0.9732, 0.2299, -0.2299, 0.9732, 164.5682, 349.494)"> </text><text class="cls-11" transform="translate(169.4037 350.6327) rotate(11.4638)"> </text><text class="cls-11" transform="translate(174.266 351.617) rotate(9.6439)"> </text><text class="cls-11" transform="translate(179.181 352.4491) rotate(7.8196)"> </text><text class="cls-11" transform="translate(184.1171 353.1249) rotate(6.0028)"> </text><text class="cls-11" transform="translate(189.0692 353.6434) rotate(4.1925)"> </text><text class="cls-11" transform="translate(194.035 354.0047) rotate(2.3923)"> </text><text class="cls-11" transform="translate(198.8915 354.1961) rotate(0.9289)"> </text><text class="cls-11" transform="translate(203.9159 354.2606) rotate(-1.1564)"> </text><text class="cls-11" transform="translate(208.8837 354.1581) rotate(-2.9472)"> </text><text class="cls-11" transform="translate(213.8475 353.9002) rotate(-4.747)"> </text><text class="cls-11" transform="translate(218.8007 353.4862) rotate(-6.5553)"> </text><text class="cls-11" transform="translate(223.7411 352.9159) rotate(-8.372)"> </text><text class="cls-11" transform="translate(228.6669 352.1883) rotate(-10.1952)"> </text><text class="cls-11" transform="translate(233.5712 351.3036) rotate(-12.0244)"> </text><text class="cls-11" transform="translate(238.452 350.2626) rotate(-13.8592)"> </text><text class="cls-11" transform="translate(243.6044 349.0682) rotate(-16.9889)">3</text><text class="cls-11" transform="matrix(0.931, -0.365, 0.365, 0.931, 255.0907, 345.5282)">6</text><text class="cls-11" transform="translate(266.5507 341.1112) rotate(-26.8491)">%</text><text class="cls-11" transform="translate(281.6552 333.2049) rotate(-30.9807)"> </text><text class="cls-11" transform="matrix(0.8137, -0.5812, 0.5812, 0.8137, 286.6151, 330.5067)">M</text><text class="cls-11" transform="translate(302.3846 318.9198) rotate(-41.039)">e</text><text class="cls-11" transform="translate(310.2343 312.1043) rotate(-45.2026)">n</text><text class="cls-12" transform="translate(83.7816 283.035) rotate(-124.8702)"> </text><text class="cls-12" transform="translate(81.4257 279.66) rotate(-123.2675)"> </text><text class="cls-12" transform="translate(79.163 276.2176) rotate(-121.6613)"> </text><text class="cls-12" transform="matrix(-0.5009, -0.8655, 0.8655, -0.5009, 77.0096, 272.7303)"> </text><text class="cls-12" transform="translate(74.9374 269.1551) rotate(-118.447)"> </text><text class="cls-12" transform="matrix(-0.4515, -0.8923, 0.8923, -0.4515, 72.976, 265.5438)"> </text><text class="cls-12" transform="matrix(-0.4262, -0.9046, 0.9046, -0.4262, 71.1141, 261.8709)"> </text><text class="cls-12" transform="matrix(-0.4005, -0.9163, 0.9163, -0.4005, 69.3529, 258.1405)"> </text><text class="cls-12" transform="translate(67.705 254.3768) rotate(-111.9932)"> </text><text class="cls-12" transform="translate(66.16 250.5604) rotate(-110.3746)"> </text><text class="cls-12" transform="translate(64.7201 246.6903) rotate(-108.7513)"> </text><text class="cls-12" transform="translate(63.3944 242.7977) rotate(-107.1332)"> </text><text class="cls-12" transform="matrix(-0.2676, -0.9635, 0.9635, -0.2676, 62.1835, 238.8817)"> </text><text class="cls-12" transform="translate(61.0731 234.8915) rotate(-103.8923)"> </text><text class="cls-12" transform="translate(60.0853 230.9129) rotate(-102.2821)"> </text><text class="cls-12" transform="translate(59.2064 226.8905) rotate(-100.6666)"> </text><text class="cls-12" transform="translate(58.4432 222.8563) rotate(-99.0589)"> </text><text class="cls-12" transform="translate(57.7904 218.7821) rotate(-97.4477)"> </text><text class="cls-12" transform="translate(57.2538 214.7001) rotate(-95.8441)"> </text><text class="cls-12" transform="translate(56.8319 210.6112) rotate(-94.249)"> </text><text class="cls-12" transform="matrix(-0.0463, -0.9989, 0.9989, -0.0463, 56.5233, 206.4891)"> </text><text class="cls-12" transform="translate(56.329 202.3631) rotate(-91.0662)"> </text><text class="cls-12" transform="matrix(0.0162, -0.9999, 0.9999, 0.0162, 56.2323, 198.307)"> </text><text class="cls-12" transform="translate(56.2826 194.1312) rotate(-87.9141)"> </text><text class="cls-12" transform="matrix(0.064, -0.9979, 0.9979, 0.064, 56.4296, 190.0194)"> </text><text class="cls-12" transform="matrix(0.0918, -0.9958, 0.9958, 0.0918, 56.6898, 185.9085)"> </text><text class="cls-12" transform="matrix(0.1197, -0.9928, 0.9928, 0.1197, 57.0653, 181.8001)"> </text><text class="cls-12" transform="translate(57.557 177.6971) rotate(-81.5154)"> </text><text class="cls-12" transform="translate(58.1605 173.6288) rotate(-79.9059)"> </text><text class="cls-12" transform="translate(58.8749 169.597) rotate(-78.3008)"> </text><text class="cls-12" transform="translate(59.7103 165.5477) rotate(-76.6775)"> </text><text class="cls-12" transform="translate(60.6566 161.5394) rotate(-75.0586)"> </text><text class="cls-12" transform="translate(61.7103 157.5741) rotate(-73.4446)"> </text><text class="cls-12" transform="translate(62.8807 153.6258) rotate(-71.8245)"> </text><text class="cls-12" transform="matrix(0.3388, -0.9409, 0.9409, 0.3388, 64.1678, 149.6981)"> </text><text class="cls-12" transform="translate(65.5507 145.8451) rotate(-68.5895)"> </text><text class="cls-12" transform="translate(67.059 141.9906) rotate(-66.9638)"> </text><text class="cls-12" transform="translate(68.661 138.2152) rotate(-65.3543)"> </text><text class="cls-12" transform="matrix(0.4425, -0.8968, 0.8968, 0.4425, 70.3768, 134.4686)"> </text><text class="cls-12" transform="matrix(0.4675, -0.884, 0.884, 0.4675, 72.1942, 130.7792)"> </text><text class="cls-12" transform="matrix(0.4922, -0.8705, 0.8705, 0.4922, 74.1239, 127.1234)"> </text><text class="cls-12" transform="translate(76.139 123.5531) rotate(-58.9112)"> </text><text class="cls-12" transform="translate(78.265 120.0209) rotate(-57.3034)"> </text><text class="cls-12" transform="matrix(0.5635, -0.8261, 0.8261, 0.5635, 80.4867, 116.5545)"> </text><text class="cls-12" transform="translate(82.8016 113.1542) rotate(-54.0991)"> </text><text class="cls-12" transform="matrix(0.6087, -0.7934, 0.7934, 0.6087, 85.2094, 109.8236)"> </text><text class="cls-12" transform="translate(87.724 106.5414) rotate(-50.8959)"> </text><text class="cls-12" transform="translate(90.3109 103.3534) rotate(-49.303)"> </text><text class="cls-12" transform="matrix(0.673, -0.7396, 0.7396, 0.673, 93.0018, 100.2196)"> </text><text class="cls-12" transform="translate(95.7606 97.1825) rotate(-46.1098)"> </text><text class="cls-12" transform="translate(98.6219 94.2044) rotate(-44.5087)"> </text><text class="cls-12" transform="translate(101.5648 91.307) rotate(-42.908)"> </text><text class="cls-12" transform="translate(104.5682 88.5111) rotate(-41.3167)"> </text><text class="cls-12" transform="matrix(0.7692, -0.639, 0.639, 0.7692, 107.6698, 85.7811)"> </text><text class="cls-12" transform="translate(110.826 83.1542) rotate(-38.1197)"> </text><text class="cls-12" transform="translate(113.9066 80.6415) rotate(-35.4501)">6</text><text class="cls-12" transform="translate(121.7328 75.0477) rotate(-31.7046)">1</text><text class="cls-12" transform="matrix(0.8902, -0.4555, 0.4555, 0.8902, 129.7567, 69.953)">%</text><text class="cls-12" transform="translate(142.4686 63.6102) rotate(-23.5628)"> </text><text class="cls-12" transform="translate(145.8412 61.8607) rotate(-19.481)">W</text><text class="cls-12" transform="translate(161.7836 56.3739) rotate(-14.3952)">o</text><text class="cls-12" transform="translate(170.5033 53.9764) rotate(-9.6439)">m</text><text class="cls-12" transform="translate(185.5458 51.5399) rotate(-5.098)">e</text><text class="cls-12" transform="translate(193.7284 50.765) rotate(-1.553)">n</text><text class="cls-12" transform="translate(203.955 50.5536) rotate(1.1567)"> </text><text class="cls-12" transform="translate(208.0839 50.6332) rotate(2.7431)"> </text><text class="cls-12" transform="translate(212.2108 50.8285) rotate(4.3398)"> </text><text class="cls-12" transform="translate(216.3094 51.1361) rotate(5.934)"> </text><text class="cls-12" transform="translate(220.4042 51.558) rotate(7.538)"> </text><text class="cls-12" transform="translate(224.494 52.0965) rotate(9.1488)"> </text><text class="cls-12" transform="translate(228.5458 52.7455) rotate(10.7568)"> </text><text class="cls-12" transform="translate(232.5907 53.5111) rotate(12.3719)"> </text><text class="cls-12" transform="translate(236.6229 54.3919) rotate(13.9933)"> </text><text class="cls-12" transform="translate(240.6132 55.3832) rotate(15.6099)"> </text><text class="cls-12" transform="translate(244.5878 56.4906) rotate(17.2332)"> </text><text class="cls-12" transform="translate(248.5155 57.7054) rotate(18.8507)"> </text><text class="cls-12" transform="translate(252.3993 59.0267) rotate(20.4632)"> </text><text class="cls-12" transform="translate(256.2567 60.4632) rotate(22.0812)"> </text><text class="cls-12" transform="translate(260.0897 62.0155) rotate(23.7049)"> </text><text class="cls-12" transform="translate(263.8417 63.66) rotate(25.3125)"> </text><text class="cls-12" transform="translate(267.5653 65.4168) rotate(26.9256)"> </text><text class="cls-12" transform="matrix(0.8784, 0.4778, -0.4778, 0.8784, 271.2567, 67.2884)"> </text><text class="cls-12" transform="translate(274.8632 69.2459) rotate(30.1488)"> </text><text class="cls-12" transform="translate(278.4305 71.3153) rotate(31.7589)"> </text><text class="cls-7" transform="translate(420.9722 87.5651)">3% Non-Binary<tspan x="29.8784" y="20">&amp; Other</tspan></text><path class="cls-13" d="M379.5723,118.6845l36.48-16.7273a2.3683,2.3683,0,0,0,2.8467.73,2.42,2.42,0,0,0-2.0171-4.3992,2.3683,2.3683,0,0,0-1.3042,2.6337"/></g></g></g></svg>