<svg xmlns="http://www.w3.org/2000/svg" xmlns:xlink="http://www.w3.org/1999/xlink" viewBox="0 0 640 420"><defs><style>.cls-1{fill:none;}.cls-11,.cls-2{fill:#fff;}.cls-3{clip-path:url(#clip-path);}.cls-10,.cls-13,.cls-4{fill:#003f5c;}.cls-4,.cls-5,.cls-6{fill-rule:evenodd;}.cls-5,.cls-9{fill:#ef5675;}.cls-6,.cls-8{fill:#ffa600;}.cls-11,.cls-7{font-size:18px;}.cls-11,.cls-12,.cls-7{font-family:Georgia;}.cls-12{font-size:16px;}.cls-13{stroke:#003f5c;stroke-linecap:round;stroke-miterlimit:10;stroke-width:3px;}</style><clipPath id="clip-path"><path class="cls-1" d="M359.3416,335.2731c64.48-85.5684,47.3852-207.207-38.1832-271.6874S113.9514,16.2005,49.471,101.7689,2.0858,308.9759,87.6542,373.4563,294.8612,420.8415,359.3416,335.2731ZM109.3687,146.905A119,119,0,1,1,132.79,313.5586,119,119,0,0,1,109.3687,146.905Z"/></clipPath></defs><g id="Layer_2" data-name="Layer 2"><g id="Education_Level" data-name="Education Level"><g id="background"><rect class="cls-2" width="640" height="420"/></g><g id="Chart"><g class="cls-3"><path class="cls-4" d="M204.4044,218.5235,355.6531,108.6349c60.69,83.5324,42.1723,200.4476-41.36,261.1374s-200.4475,42.1723-261.1374-41.36S10.9833,127.9646,94.5157,67.2748c66.8259-48.5519,152.9514-48.5519,219.7773,0Z"/><path class="cls-5" d="M204.4044,218.5235,314.293,67.2748a164.3116,164.3116,0,0,1,24.5946,21.38Z"/><path class="cls-6" d="M204.4044,218.5235,338.8876,88.6545a196.9973,196.9973,0,0,1,16.7655,19.98Z"/></g></g><g id="Legend"><text class="cls-7" transform="translate(488.3428 308.3808)">College, <tspan x="0" y="20">University,</tspan><tspan x="0" y="40">Post-Graduate</tspan></text><text class="cls-7" transform="translate(487.0708 274.6154)">Tech College</text><text class="cls-7" transform="translate(487.0708 237.6154)">High School</text><rect id="Swatch_1" data-name="Swatch 1" class="cls-8" x="450" y="218.3434" width="24.7508" height="24.7508" transform="translate(693.0942 -231.6566) rotate(90)"/><rect id="Swatch_2" data-name="Swatch 2" class="cls-9" x="450" y="254.6494" width="24.7508" height="24.7508" transform="translate(729.4002 -195.3506) rotate(90)"/><rect id="Swatch_3" data-name="Swatch 3" class="cls-10" x="450" y="288.7209" width="24.7508" height="24.7508" transform="translate(763.4717 -161.2791) rotate(90)"/></g><g id="Inner_Labels" data-name="Inner Labels"><text class="cls-11" transform="translate(48.2864 196.9567) rotate(96.9735)"> </text><text class="cls-11" transform="translate(47.7463 201.3903) rotate(95.3469)"> </text><text class="cls-11" transform="translate(47.3352 205.798) rotate(93.7397)"> </text><text class="cls-11" transform="translate(47.0457 210.2409) rotate(92.1313)"> </text><text class="cls-11" transform="translate(46.8987 214.5582) rotate(90.9286)"> </text><text class="cls-11" transform="matrix(0.018, 0.9998, -0.9998, 0.018, 46.842, 219.0519)"> </text><text class="cls-11" transform="translate(46.9221 223.4577) rotate(87.3814)"> </text><text class="cls-11" transform="translate(47.1267 227.8981) rotate(85.7734)"> </text><text class="cls-11" transform="matrix(0.1018, 0.9948, -0.9948, 0.1018, 47.4558, 232.3375)"> </text><text class="cls-11" transform="translate(47.9124 236.7731) rotate(82.5299)"> </text><text class="cls-11" transform="translate(48.49 241.1725) rotate(80.9074)"> </text><text class="cls-11" transform="translate(49.1941 245.5631) rotate(79.2768)"> </text><text class="cls-11" transform="matrix(0.2141, 0.9768, -0.9768, 0.2141, 50.0261, 249.9469)"> </text><text class="cls-11" transform="translate(50.9773 254.2829) rotate(76.0067)"> </text><text class="cls-11" transform="translate(52.0569 258.6051) rotate(74.3676)"> </text><text class="cls-11" transform="matrix(0.3161, 0.9487, -0.9487, 0.3161, 53.2654, 263.1539)">9</text><text class="cls-11" transform="translate(56.6887 273.359) rotate(67.6111)">5</text><text class="cls-11" transform="translate(60.7976 283.4977) rotate(62.7591)">%</text><text class="cls-11" transform="matrix(0.5141, 0.8577, -0.8577, 0.5141, 67.9592, 297.0016)"> </text><text class="cls-11" transform="matrix(0.559, 0.8291, -0.8291, 0.559, 70.3308, 301.1237)">C</text><text class="cls-11" transform="translate(77.2068 311.2204) rotate(51.902)">o</text><text class="cls-11" transform="matrix(0.6552, 0.7555, -0.7555, 0.6552, 83.4724, 319.1061)">l</text><text class="cls-11" transform="translate(86.9622 323.1237) rotate(47.135)">l</text><text class="cls-11" transform="matrix(0.7133, 0.7009, -0.7009, 0.7133, 90.6697, 327.1686)">e</text><text class="cls-11" transform="matrix(0.7539, 0.657, -0.657, 0.7539, 97.2424, 333.6149)">g</text><text class="cls-11" transform="matrix(0.7918, 0.6108, -0.6108, 0.7918, 104.532, 339.9391)">e</text><text class="cls-11" transform="matrix(0.8185, 0.5745, -0.5745, 0.8185, 111.7078, 345.4108)">,</text><text class="cls-11" transform="translate(115.7825 348.2643) rotate(33.3432)"> </text><text class="cls-11" transform="matrix(0.8671, 0.4981, -0.4981, 0.8671, 119.7717, 351.0397)">U</text><text class="cls-11" transform="translate(132.3054 358.1305) rotate(25.1487)">n</text><text class="cls-11" transform="matrix(0.9267, 0.3757, -0.3757, 0.9267, 142.3528, 362.7555)">i</text><text class="cls-11" transform="translate(147.5559 364.9039) rotate(19.3261)">v</text><text class="cls-11" transform="translate(156.489 368.0163) rotate(15.8881)">e</text><text class="cls-11" transform="matrix(0.9752, 0.2211, -0.2211, 0.9752, 165.2766, 370.486)">r</text><text class="cls-11" transform="translate(172.8596 372.2008) rotate(9.8462)">s</text><text class="cls-11" transform="translate(180.8035 373.5455) rotate(7.3572)">i</text><text class="cls-11" transform="translate(186.2712 374.2555) rotate(5.1765)">t</text><text class="cls-11" transform="matrix(0.9992, 0.0404, -0.0404, 0.9992, 192.8313, 374.8737)">y</text><text class="cls-11" transform="matrix(0.9999, -0.0162, 0.0162, 0.9999, 202.1174, 375.2184)">,</text><text class="cls-11" transform="translate(206.8933 375.1657) rotate(-1.9279)"> </text><text class="cls-11" transform="matrix(0.9964, -0.0843, 0.0843, 0.9964, 211.6228, 375.0797)">P</text><text class="cls-11" transform="translate(223.1755 374.0592) rotate(-8.8336)">o</text><text class="cls-11" transform="translate(233.2576 372.4479) rotate(-12.2258)">s</text><text class="cls-11" transform="translate(241.1755 370.7067) rotate(-14.9195)">t</text><text class="cls-11" transform="translate(247.4646 369.0299) rotate(-17.4103)">-</text><text class="cls-11" transform="translate(254.5095 366.9098) rotate(-21.2778)">G</text><text class="cls-11" transform="translate(267.2039 361.8366) rotate(-25.2572)">r</text><text class="cls-11" transform="translate(274.2849 358.5084) rotate(-28.4358)">a</text><text class="cls-11" transform="matrix(0.8463, -0.5327, 0.5327, 0.8463, 282.7625, 353.9205)">d</text><text class="cls-11" transform="translate(292.032 348.0592) rotate(-36.1906)">u</text><text class="cls-11" transform="matrix(0.7669, -0.6418, 0.6418, 0.7669, 300.8201, 341.5807)">a</text><text class="cls-11" transform="translate(308.0408 335.4772) rotate(-42.8433)">t</text><text class="cls-11" transform="translate(312.8787 331.0202) rotate(-45.6827)">e</text><text class="cls-11" transform="translate(319.1277 324.5446) rotate(-48.1601)"> </text><text class="cls-11" transform="translate(322.0896 321.234) rotate(-49.7735)"> </text><text class="cls-11" transform="translate(324.9568 317.8405) rotate(-51.3881)"> </text><text class="cls-11" transform="matrix(0.6017, -0.7987, 0.7987, 0.6017, 327.7302, 314.3668)"> </text><text class="cls-11" transform="translate(330.406 310.8131) rotate(-54.6249)"> </text><text class="cls-11" transform="translate(332.9822 307.1813) rotate(-56.2477)"> </text><text class="cls-11" transform="matrix(0.5318, -0.8469, 0.8469, 0.5318, 335.4578, 303.4733)"> </text><text class="cls-11" transform="translate(337.8152 299.7174) rotate(-59.4941)"> </text><text class="cls-11" transform="translate(340.0681 295.8903) rotate(-61.1189)"> </text><text class="cls-11" transform="matrix(0.4579, -0.889, 0.889, 0.4579, 342.2156, 291.9948)"> </text><text class="cls-11" transform="translate(344.2546 288.0319) rotate(-64.3827)"> </text><text class="cls-11" transform="matrix(0.4066, -0.9136, 0.9136, 0.4066, 346.1716, 284.0309)"> </text><text class="cls-11" transform="matrix(0.3803, -0.9248, 0.9248, 0.3803, 347.9773, 279.9684)"> </text><text class="cls-11" transform="matrix(0.3537, -0.9353, 0.9353, 0.3537, 349.6716, 275.8444)"> </text><text class="cls-11" transform="translate(351.2517 271.6637) rotate(-70.9286)"> </text></g><text class="cls-12" transform="translate(369.8361 24.5098)">3% Technical College<tspan x="22.4102" y="18">(or equivalent)</tspan></text><path class="cls-13" d="M334.3209,71.3483l42.53-29.6377a2.3683,2.3683,0,0,0,2.888.5447,2.42,2.42,0,0,0-2.2975-4.2595,2.3685,2.3685,0,0,0-1.1311,2.7126"/><text class="cls-12" transform="translate(417.2407 74.2329)">2% High School <tspan x="5.6602" y="18">(or equivalent)</tspan></text><path class="cls-13" d="M356.5332,93.4945l51.8116-11.2974a2.3684,2.3684,0,0,0,2.1919,1.9577,2.42,2.42,0,0,0,.2319-4.8341,2.3684,2.3684,0,0,0-2.3693,1.7389"/></g></g></svg>