<svg xmlns="http://www.w3.org/2000/svg" xmlns:xlink="http://www.w3.org/1999/xlink" viewBox="0 0 666.2914 478.4354"><defs><style>.cls-1{fill:none;}.cls-13,.cls-2{fill:#fff;}.cls-3{clip-path:url(#clip-path);}.cls-10,.cls-14,.cls-4{fill:#003f5c;}.cls-4,.cls-5,.cls-6{fill-rule:evenodd;}.cls-5{fill:#ef5675;}.cls-11,.cls-6{fill:#ffa600;}.cls-7{font-size:16px;}.cls-13,.cls-7,.cls-8,.cls-9{font-family:Georgia;}.cls-8{font-size:28px;}.cls-13,.cls-9{font-size:20px;}.cls-12{fill:#7a5195;}.cls-14{stroke:#003f5c;stroke-linecap:round;stroke-miterlimit:10;stroke-width:3px;}</style><clipPath id="clip-path"><path class="cls-1" d="M385.8605,365.1521c64.48-85.5684,47.3852-207.207-38.1832-271.6874S140.47,46.08,75.99,131.6479s-47.3852,207.207,38.1832,271.6874S321.38,450.7205,385.8605,365.1521ZM135.8876,176.784a119,119,0,1,1,23.4216,166.6536A119,119,0,0,1,135.8876,176.784Z"/></clipPath></defs><title>15</title><g id="Layer_2" data-name="Layer 2"><g id="Education_Level" data-name="Education Level"><g id="background"><rect class="cls-2" x="26.2914" width="640" height="450"/></g><g id="Chart"><g class="cls-3"><path class="cls-4" d="M230.9233,248.4025,382.172,138.5139c60.69,83.5324,42.1723,200.4476-41.36,261.1374s-200.4475,42.1723-261.1374-41.36-42.1722-200.4476,41.36-261.1374c66.8259-48.5519,152.9514-48.5519,219.7773,0Z"/><path class="cls-5" d="M230.9233,248.4025,340.8119,97.1538a164.3066,164.3066,0,0,1,24.5946,21.38Z"/><path class="cls-6" d="M230.9233,248.4025,365.4065,118.5336a196.9721,196.9721,0,0,1,16.7655,19.98Z"/></g></g><g id="Headline"><text id="Sub_Headline" data-name="Sub Headline" class="cls-7" transform="translate(164.9928 62.0216) rotate(-17.3949)">H</text><text class="cls-7" transform="matrix(0.9664, -0.2571, 0.2571, 0.9664, 177.1365, 58.3044)">i</text><text class="cls-7" transform="translate(181.4481 57.1258) rotate(-13.0825)">g</text><text class="cls-7" transform="translate(189.0791 55.3331) rotate(-10.6218)">h</text><text class="cls-7" transform="translate(197.9213 53.6851) rotate(-8.2307)">e</text><text class="cls-7" transform="matrix(0.9942, -0.1077, 0.1077, 0.9942, 205.3112, 52.6184)">s</text><text class="cls-7" transform="translate(211.9527 51.9068) rotate(-4.452)">t</text><text class="cls-7" transform="translate(217.29 51.4981) rotate(-3.1501)"> </text><text class="cls-7" transform="translate(220.9009 51.2405) rotate(-1.1951)">C</text><text class="cls-7" transform="translate(230.8342 51.0444) rotate(1.4015)">o</text><text class="cls-7" transform="translate(239.0425 51.1585) rotate(4.5446)">m</text><text class="cls-7" transform="translate(252.679 52.3003) rotate(7.7924)">p</text><text class="cls-7" transform="translate(261.4866 53.54) rotate(9.7178)">l</text><text class="cls-7" transform="matrix(0.9801, 0.1986, -0.1986, 0.9801, 265.7925, 54.2506)">e</text><text class="cls-7" transform="matrix(0.9731, 0.2303, -0.2303, 0.9731, 273.121, 55.7494)">t</text><text class="cls-7" transform="translate(278.2635 56.9435) rotate(15.1868)">e</text><text class="cls-7" transform="translate(285.4403 58.8694) rotate(17.5763)">d</text><text id="Headline-2" data-name="Headline" class="cls-8" transform="translate(137.6495 46.0882) rotate(-22.2694)">E</text><text class="cls-8" transform="translate(153.7282 39.5123) rotate(-18.0429)">d</text><text class="cls-8" transform="translate(168.1505 34.7808) rotate(-14.0935)">u</text><text class="cls-8" transform="translate(183.011 31.0789) rotate(-10.5595)">c</text><text class="cls-8" transform="matrix(0.9919, -0.1268, 0.1268, 0.9919, 194.781, 28.8432)">a</text><text class="cls-8" transform="matrix(0.9971, -0.0766, 0.0766, 0.9971, 208.1407, 27.1764)">t</text><text class="cls-8" transform="translate(217.2783 26.4785) rotate(-2.243)">i</text><text class="cls-8" transform="translate(224.805 26.0439) rotate(0.8396)">o</text><text class="cls-8" transform="translate(239.1021 26.1662) rotate(4.358)">n</text><text class="cls-8" transform="translate(254.9567 27.4798) rotate(7.1888)"> </text><text class="cls-8" transform="translate(261.0368 28.1012) rotate(10.0777)">L</text><text class="cls-8" transform="translate(276.8254 30.934) rotate(13.8035)">e</text><text class="cls-8" transform="translate(289.255 33.9595) rotate(17.177)">v</text><text class="cls-8" transform="translate(301.8333 37.8301) rotate(20.5502)">e</text><text class="cls-8" transform="matrix(0.9192, 0.3938, -0.3938, 0.9192, 313.9118, 42.4108)">l</text></g><g id="Legend"><text class="cls-9" transform="translate(514.8617 338.2598)">College, <tspan x="0" y="24">University,</tspan><tspan x="0" y="48">Post-Graduate</tspan></text><text class="cls-9" transform="translate(513.5897 304.4944)">Tech College</text><text class="cls-9" transform="translate(513.5897 267.4944)">High School</text><rect id="Swatch_1" data-name="Swatch 1" class="cls-10" x="476.5189" y="248.2224" width="24.7508" height="24.7508" transform="translate(749.4921 -228.2965) rotate(90)"/><rect id="Swatch_2" data-name="Swatch 2" class="cls-11" x="476.5189" y="284.5284" width="24.7508" height="24.7508" transform="translate(785.7981 -191.9905) rotate(90)"/><rect id="Swatch_3" data-name="Swatch 3" class="cls-12" x="476.5189" y="318.5999" width="24.7508" height="24.7508" transform="translate(819.8696 -157.919) rotate(90)"/></g><g id="Inner_Labels" data-name="Inner Labels"><text class="cls-13" transform="translate(74.7965 226.8713) rotate(96.8721)"> </text><text class="cls-13" transform="matrix(-0.0881, 0.9961, -0.9961, -0.0881, 74.2023, 231.8332)"> </text><text class="cls-13" transform="translate(73.7672 236.7781) rotate(93.2532)"> </text><text class="cls-13" transform="matrix(-0.0255, 0.9997, -0.9997, -0.0255, 73.4879, 241.7351)"> </text><text class="cls-13" transform="matrix(0.0162, 0.9999, -0.9999, 0.0162, 73.339, 246.8435)"> </text><text class="cls-13" transform="translate(73.3927 251.6521) rotate(87.9026)"> </text><text class="cls-13" transform="translate(73.5773 256.6326) rotate(86.1014)"> </text><text class="cls-13" transform="translate(73.9161 261.5749) rotate(84.3028)"> </text><text class="cls-13" transform="matrix(0.1308, 0.9914, -0.9914, 0.1308, 74.4142, 266.5349)"> </text><text class="cls-13" transform="matrix(0.1623, 0.9867, -0.9867, 0.1623, 75.069, 271.4831)"> </text><text class="cls-13" transform="translate(75.8766 276.3816) rotate(78.8392)"> </text><text class="cls-13" transform="translate(76.8478 281.2878) rotate(77.0017)"> </text><text class="cls-13" transform="matrix(0.256, 0.9667, -0.9667, 0.256, 77.9708, 286.1394)"> </text><text class="cls-13" transform="matrix(0.2866, 0.958, -0.958, 0.2866, 79.2418, 290.9343)"> </text><text class="cls-13" transform="translate(80.6783 295.7234) rotate(71.5036)"> </text><text class="cls-13" transform="translate(82.2794 300.7497) rotate(68.3803)">9</text><text class="cls-13" transform="translate(86.7355 311.9119) rotate(63.9675)">5</text><text class="cls-13" transform="translate(92.0641 322.9841) rotate(58.5436)">%</text><text class="cls-13" transform="translate(101.149 337.3913) rotate(54.4319)"> </text><text class="cls-13" transform="matrix(0.629, 0.7774, -0.7774, 0.629, 104.1837, 341.8122)">C</text><text class="cls-13" transform="translate(112.8458 352.3992) rotate(46.4301)">o</text><text class="cls-13" transform="matrix(0.7281, 0.6855, -0.6855, 0.7281, 120.6446, 360.4783)">l</text><text class="cls-13" transform="matrix(0.7535, 0.6574, -0.6574, 0.7535, 124.9942, 364.5671)">l</text><text class="cls-13" transform="matrix(0.7864, 0.6177, -0.6177, 0.7864, 129.6017, 368.6394)">e</text><text class="cls-13" transform="translate(137.7027 374.989) rotate(34.3108)">g</text><text class="cls-13" transform="matrix(0.8621, 0.5068, -0.5068, 0.8621, 146.67, 381.0701)">e</text><text class="cls-13" transform="matrix(0.8866, 0.4625, -0.4625, 0.8866, 155.3902, 386.1238)">,</text><text class="cls-13" transform="translate(160.3336 388.6921) rotate(25.6072)"> </text><text class="cls-13" transform="translate(165.2032 391.1951) rotate(21.7076)">U</text><text class="cls-13" transform="translate(180.2184 397.0417) rotate(16.3884)">n</text><text class="cls-13" transform="translate(192.1202 400.4304) rotate(12.9311)">i</text><text class="cls-13" transform="translate(198.2276 401.8767) rotate(9.8807)">v</text><text class="cls-13" transform="translate(208.6354 403.6638) rotate(6.0701)">e</text><text class="cls-13" transform="translate(218.8058 404.7058) rotate(2.6292)">r</text><text class="cls-13" transform="matrix(0.9999, -0.0162, 0.0162, 0.9999, 227.5079, 405.1228)">s</text><text class="cls-13" transform="matrix(0.9983, -0.0575, 0.0575, 0.9983, 236.4493, 404.9665)">i</text><text class="cls-13" transform="translate(242.5919 404.6169) rotate(-5.7192)">t</text><text class="cls-13" transform="translate(249.9601 403.907) rotate(-8.9574)">y</text><text class="cls-13" transform="translate(260.0753 402.2449) rotate(-11.9013)">,</text><text class="cls-13" transform="translate(265.5333 401.0867) rotate(-13.8479)"> </text><text class="cls-13" transform="matrix(0.9554, -0.2952, 0.2952, 0.9554, 270.7364, 399.9001)">P</text><text class="cls-13" transform="translate(283.13 396.0076) rotate(-21.6853)">o</text><text class="cls-13" transform="matrix(0.9028, -0.4301, 0.4301, 0.9028, 293.6935, 391.7478)">s</text><text class="cls-13" transform="translate(301.8888 387.8035) rotate(-28.4903)">t</text><text class="cls-13" transform="translate(308.296 384.324) rotate(-31.2621)">-</text><text class="cls-13" transform="matrix(0.8137, -0.5812, 0.5812, 0.8137, 315.3722, 380.1492)">G</text><text class="cls-13" transform="matrix(0.7667, -0.642, 0.642, 0.7667, 327.6974, 371.1609)">r</text><text class="cls-13" transform="matrix(0.7258, -0.6879, 0.6879, 0.7258, 334.4249, 365.5437)">a</text><text class="cls-13" transform="translate(342.2599 358.1179) rotate(-47.6364)">d</text><text class="cls-13" transform="translate(350.4991 349.0378) rotate(-52.0944)">u</text><text class="cls-13" transform="translate(357.9767 339.3484) rotate(-56.2908)">a</text><text class="cls-13" transform="translate(363.7931 330.5232) rotate(-59.5704)">t</text><text class="cls-13" transform="matrix(0.4574, -0.8893, 0.8893, 0.4574, 367.5577, 324.1638)">e</text><text class="cls-13" transform="translate(372.0997 315.1833) rotate(-65.5837)"> </text><text class="cls-13" transform="matrix(0.3843, -0.9232, 0.9232, 0.3843, 374.1437, 310.6736)"> </text><text class="cls-13" transform="translate(376.0607 306.0622) rotate(-69.2392)"> </text><text class="cls-13" transform="translate(377.8243 301.404) rotate(-71.072)"> </text><text class="cls-13" transform="translate(379.4337 296.7048) rotate(-72.9006)"> </text><text class="cls-13" transform="translate(380.8966 291.9392) rotate(-74.7349)"> </text><text class="cls-13" transform="matrix(0.2323, -0.9726, 0.9726, 0.2323, 382.2042, 287.1394)"> </text><text class="cls-13" transform="translate(383.3614 282.279) rotate(-78.4018)"> </text><text class="cls-13" transform="matrix(0.1699, -0.9855, 0.9855, 0.1699, 384.3575, 277.4216)"> </text><text class="cls-13" transform="translate(385.2003 272.5085) rotate(-82.0455)"> </text><text class="cls-13" transform="matrix(0.1069, -0.9943, 0.9943, 0.1069, 385.8868, 267.5769)"> </text><text class="cls-13" transform="matrix(0.0755, -0.9971, 0.9971, 0.0755, 386.4181, 262.6277)"> </text><text class="cls-13" transform="translate(386.7911 257.6638) rotate(-87.4723)"> </text><text class="cls-13" transform="matrix(0.0162, -0.9999, 0.9999, 0.0162, 386.9991, 252.7703)"> </text><text class="cls-13" transform="translate(387.0694 247.7244) rotate(-91.0433)"> </text></g><text class="cls-7" transform="translate(396.355 54.3888)">3% Technical College<tspan x="22.4102" y="19.2002">(or equivalent)</tspan></text><path class="cls-14" d="M360.84,101.2273,403.37,71.59a2.3684,2.3684,0,0,0,2.888.5448,2.42,2.42,0,0,0-2.2975-4.26,2.3684,2.3684,0,0,0-1.131,2.7126"/><text class="cls-7" transform="translate(443.7596 104.1119)">2% High School <tspan x="5.6602" y="19.2002">(or equivalent)</tspan></text><path class="cls-14" d="M383.0521,123.3735l51.8116-11.2974a2.3684,2.3684,0,0,0,2.1919,1.9577,2.42,2.42,0,0,0,.2319-4.8341,2.3685,2.3685,0,0,0-2.3693,1.7389"/></g></g></svg>