<svg xmlns="http://www.w3.org/2000/svg" xmlns:xlink="http://www.w3.org/1999/xlink" viewBox="0 0 640 420"><defs><style>.cls-1{fill:none;}.cls-17,.cls-18,.cls-2{fill:#fff;}.cls-3{clip-path:url(#clip-path);}.cls-11,.cls-4{fill:#003f5c;}.cls-4,.cls-5,.cls-6,.cls-7,.cls-8,.cls-9{fill-rule:evenodd;}.cls-12,.cls-5{fill:#7a5195;}.cls-13,.cls-6{fill:#374c80;}.cls-14,.cls-7{fill:#ff764a;}.cls-15,.cls-8{fill:#ef5675;}.cls-16,.cls-9{fill:#ffa600;}.cls-10,.cls-18{font-size:18px;}.cls-10,.cls-17,.cls-18{font-family:Georgia;}.cls-17{font-size:20px;}</style><clipPath id="clip-path"><path class="cls-1" d="M38.8094,317.2829c62.9773,86.6807,184.299,105.8962,270.98,42.9189s105.8961-184.2989,42.9189-270.98S168.4091-16.674,81.7284,46.3033-24.1678,230.6022,38.8094,317.2829ZM292.0318,133.3061A119,119,0,1,1,125.8123,106.98,119,119,0,0,1,292.0318,133.3061Z"/></clipPath></defs><g id="Layer_2" data-name="Layer 2"><g id="Geographical_Location" data-name="Geographical Location"><g id="background"><rect class="cls-2" width="640" height="420"/></g><g id="Chart"><g class="cls-3"><path class="cls-4" d="M195.7569,203.25,256.623,380.0182C158.9966,413.6337,52.6041,361.7425,18.9886,264.1161S37.2643,60.0972,134.8907,26.4817c44.42-15.295,84.0052-14.604,127.8644,2.2319Z"/><path class="cls-5" d="M195.7569,203.25,262.7551,28.7136c96.3937,37.0021,144.54,145.1408,107.5381,241.5346a199.2163,199.2163,0,0,1-12.63,26.4786Z"/><path class="cls-6" d="M195.7569,203.25l161.9066,93.4768C345.4282,317.919,332.4279,333.14,313.4107,348.54Z"/><path class="cls-7" d="M195.7569,203.25,313.4107,348.54a183.741,183.741,0,0,1-29.8844,19.78Z"/><path class="cls-8" d="M195.7569,203.25l87.7694,165.07a174.5728,174.5728,0,0,1-20.7712,9.466Z"/><path class="cls-9" d="M195.7569,203.25l66.9982,174.5363c-1.8315.7031-4.2772,1.5932-6.1321,2.2319Z"/></g></g><g id="Legend"><text class="cls-10" transform="translate(489.1833 397.6705)">South America</text><text class="cls-10" transform="translate(489.307 362.4836)">Asia</text><text class="cls-10" transform="translate(489.11 328.7118)">Middle East</text><text class="cls-10" transform="translate(489.11 294.7118)">Oceana</text><text class="cls-10" transform="translate(487.838 260.9464)">Europe</text><text class="cls-10" transform="translate(487.838 223.9464)">North America</text><rect id="Swatch_1" data-name="Swatch 1" class="cls-11" x="450.7673" y="204.6744" width="24.7508" height="24.7508" transform="translate(680.1925 -246.0928) rotate(90)"/><rect id="Swatch_2" data-name="Swatch 2" class="cls-12" x="450.7673" y="240.9805" width="24.7508" height="24.7508" transform="translate(716.4985 -209.7868) rotate(90)"/><rect id="Swatch_3" data-name="Swatch 3" class="cls-13" x="450.7673" y="275.0519" width="24.7508" height="24.7508" transform="translate(750.57 -175.7153) rotate(90)"/><rect id="Swatch_4" data-name="Swatch 4" class="cls-14" x="450.7673" y="309.1234" width="24.7508" height="24.7508" transform="translate(784.6415 -141.6438) rotate(90)"/><rect id="Swatch_5" data-name="Swatch 5" class="cls-15" x="450.3513" y="343.6164" width="24.7508" height="24.7508" transform="translate(818.7184 -106.7349) rotate(90)"/><rect id="Swatch_6" data-name="Swatch 6" class="cls-16" x="450.2275" y="378.1093" width="24.7508" height="24.7508" transform="translate(853.0876 -72.1183) rotate(90)"/></g><g id="Inner_Labels" data-name="Inner Labels"><text class="cls-17" transform="translate(40.3422 181.9015) rotate(96.8721)"> </text><text class="cls-17" transform="matrix(-0.0881, 0.9961, -0.9961, -0.0881, 39.748, 186.8634)"> </text><text class="cls-17" transform="translate(39.3129 191.8082) rotate(93.2532)"> </text><text class="cls-17" transform="matrix(-0.0255, 0.9997, -0.9997, -0.0255, 39.0336, 196.7652)"> </text><text class="cls-17" transform="matrix(0.0162, 0.9999, -0.9999, 0.0162, 38.8847, 201.8736)"> </text><text class="cls-17" transform="translate(38.9384 206.6822) rotate(87.9026)"> </text><text class="cls-17" transform="translate(39.123 211.6627) rotate(86.1014)"> </text><text class="cls-17" transform="translate(39.4618 216.6051) rotate(84.3028)"> </text><text class="cls-17" transform="matrix(0.1308, 0.9914, -0.9914, 0.1308, 39.9599, 221.5651)"> </text><text class="cls-17" transform="matrix(0.1623, 0.9867, -0.9867, 0.1623, 40.6147, 226.5133)"> </text><text class="cls-17" transform="translate(41.4223 231.4117) rotate(78.8392)"> </text><text class="cls-17" transform="translate(42.3935 236.318) rotate(77.0017)"> </text><text class="cls-17" transform="matrix(0.256, 0.9667, -0.9667, 0.256, 43.5165, 241.1695)"> </text><text class="cls-17" transform="matrix(0.2866, 0.958, -0.958, 0.2866, 44.7875, 245.9645)"> </text><text class="cls-17" transform="translate(46.2241 250.7535) rotate(71.5036)"> </text><text class="cls-17" transform="translate(47.7973 255.4518) rotate(69.6802)"> </text><text class="cls-17" transform="translate(49.5356 260.1373) rotate(67.8422)"> </text><text class="cls-17" transform="matrix(0.4064, 0.9137, -0.9137, 0.4064, 51.4067, 264.7262)"> </text><text class="cls-17" transform="matrix(0.4355, 0.9002, -0.9002, 0.4355, 53.4418, 269.2945)"> </text><text class="cls-17" transform="translate(55.6034 273.7584) rotate(62.3672)"> </text><text class="cls-17" transform="matrix(0.4917, 0.8707, -0.8707, 0.4917, 57.915, 278.1695)"> </text><text class="cls-17" transform="translate(60.3613 282.4967) rotate(58.7275)"> </text><text class="cls-17" transform="translate(62.9555 286.7623) rotate(56.9045)"> </text><text class="cls-17" transform="translate(65.664 290.9137) rotate(55.0977)"> </text><text class="cls-17" transform="matrix(0.5979, 0.8016, -0.8016, 0.5979, 68.5151, 294.9957)"> </text><text class="cls-17" transform="translate(71.4921 298.983) rotate(51.4732)"> </text><text class="cls-17" transform="matrix(0.6472, 0.7623, -0.7623, 0.6472, 74.5908, 302.8717)"> </text><text class="cls-17" transform="matrix(0.6709, 0.7415, -0.7415, 0.6709, 77.809, 306.6598)"> </text><text class="cls-17" transform="matrix(0.6939, 0.72, -0.72, 0.6939, 81.1445, 310.3414)"> </text><text class="cls-17" transform="translate(84.6137 313.9381) rotate(44.242)"> </text><text class="cls-17" transform="translate(88.1747 317.402) rotate(42.4379)"> </text><text class="cls-17" transform="translate(91.8442 320.7535) rotate(40.6333)"> </text><text class="cls-17" transform="translate(95.6186 323.9899) rotate(38.8257)"> </text><text class="cls-17" transform="translate(99.496 327.107) rotate(37.0163)"> </text><text class="cls-17" transform="translate(103.4736 330.1041) rotate(35.2032)"> </text><text class="cls-18" transform="translate(76.4389 288.8824) rotate(-124.8702)"> </text><text class="cls-18" transform="translate(74.0829 285.5074) rotate(-123.2675)"> </text><text class="cls-18" transform="translate(71.8202 282.0651) rotate(-121.6613)"> </text><text class="cls-18" transform="matrix(-0.5009, -0.8655, 0.8655, -0.5009, 69.6669, 278.5777)"> </text><text class="cls-18" transform="translate(67.5947 275.0026) rotate(-118.447)"> </text><text class="cls-18" transform="matrix(-0.4515, -0.8923, 0.8923, -0.4515, 65.6332, 271.3912)"> </text><text class="cls-18" transform="matrix(-0.4262, -0.9046, 0.9046, -0.4262, 63.7714, 267.7184)"> </text><text class="cls-18" transform="matrix(-0.4005, -0.9163, 0.9163, -0.4005, 62.0102, 263.9879)"> </text><text class="cls-18" transform="translate(60.3622 260.2242) rotate(-111.9932)"> </text><text class="cls-18" transform="translate(58.8173 256.4078) rotate(-110.3746)"> </text><text class="cls-18" transform="translate(57.3774 252.5377) rotate(-108.7513)"> </text><text class="cls-18" transform="translate(56.0517 248.6451) rotate(-107.1332)"> </text><text class="cls-18" transform="matrix(-0.2676, -0.9635, 0.9635, -0.2676, 54.8408, 244.7291)"> </text><text class="cls-18" transform="translate(53.7304 240.7389) rotate(-103.8923)"> </text><text class="cls-18" transform="translate(52.7426 236.7604) rotate(-102.2821)"> </text><text class="cls-18" transform="translate(51.8637 232.7379) rotate(-100.6666)"> </text><text class="cls-18" transform="translate(51.1005 228.7037) rotate(-99.0589)"> </text><text class="cls-18" transform="translate(50.4477 224.6295) rotate(-97.4477)"> </text><text class="cls-18" transform="translate(49.9111 220.5475) rotate(-95.8441)"> </text><text class="cls-18" transform="translate(49.4892 216.4586) rotate(-94.249)"> </text><text class="cls-18" transform="matrix(-0.0463, -0.9989, 0.9989, -0.0463, 49.1806, 212.3365)"> </text><text class="cls-18" transform="translate(48.9863 208.2106) rotate(-91.0662)"> </text><text class="cls-18" transform="matrix(0.0162, -0.9999, 0.9999, 0.0162, 48.8896, 204.1544)"> </text><text class="cls-18" transform="translate(48.9399 199.9786) rotate(-87.9141)"> </text><text class="cls-18" transform="matrix(0.064, -0.9979, 0.9979, 0.064, 49.0868, 195.8668)"> </text><text class="cls-18" transform="matrix(0.0918, -0.9958, 0.9958, 0.0918, 49.3471, 191.756)"> </text><text class="cls-18" transform="matrix(0.1197, -0.9928, 0.9928, 0.1197, 49.7226, 187.6476)"> </text><text class="cls-18" transform="translate(50.2143 183.5445) rotate(-81.5154)"> </text><text class="cls-18" transform="translate(50.8178 179.4762) rotate(-79.9059)"> </text><text class="cls-18" transform="translate(51.5322 175.4444) rotate(-78.3008)"> </text><text class="cls-18" transform="translate(52.3676 171.3951) rotate(-76.6775)"> </text><text class="cls-18" transform="translate(53.2075 167.5128) rotate(-73.9783)">6</text><text class="cls-18" transform="matrix(0.3388, -0.9409, 0.9409, 0.3388, 55.8442, 158.2701)">2</text><text class="cls-18" transform="translate(58.9501 149.2945) rotate(-65.5729)">%</text><text class="cls-18" transform="translate(64.9521 136.4283) rotate(-62.0415)"> </text><text class="cls-18" transform="matrix(0.5199, -0.8542, 0.8542, 0.5199, 66.643, 132.9176)">N</text><text class="cls-18" transform="translate(73.5483 121.6778) rotate(-54.3351)">o</text><text class="cls-18" transform="matrix(0.6268, -0.7792, 0.7792, 0.6268, 78.9716, 114.1554)">r</text><text class="cls-18" transform="translate(83.3803 108.6832) rotate(-48.6833)">t</text><text class="cls-18" transform="translate(87.1601 104.2804) rotate(-45.6084)">h</text><text class="cls-18" transform="translate(94.2621 97.1163) rotate(-42.8863)"> </text><text class="cls-18" transform="matrix(0.7676, -0.641, 0.641, 0.7676, 97.0658, 94.358)">A</text><text class="cls-18" transform="translate(105.7109 86.9864) rotate(-34.7197)">m</text><text class="cls-18" transform="translate(118.287 78.4127) rotate(-30.181)">e</text><text class="cls-18" transform="translate(125.4614 74.2486) rotate(-27.1978)">r</text><text class="cls-18" transform="translate(131.7221 71.0475) rotate(-24.8537)">i</text><text class="cls-18" transform="translate(136.1913 68.9352) rotate(-22.3448)">c</text><text class="cls-18" transform="translate(143.3134 65.9791) rotate(-19.1384)">a</text><text class="cls-18" transform="translate(151.5771 63.1583) rotate(-16.6332)"> </text><text class="cls-18" transform="translate(155.5068 61.9811) rotate(-15.0199)"> </text><text class="cls-18" transform="matrix(0.9728, -0.2318, 0.2318, 0.9728, 159.4828, 60.9108)"> </text><text class="cls-18" transform="translate(163.5033 59.9493) rotate(-11.7777)"> </text><text class="cls-18" transform="translate(167.5385 59.1056) rotate(-10.1613)"> </text><text class="cls-18" transform="translate(171.5854 58.3766) rotate(-8.5519)"> </text><text class="cls-18" transform="translate(175.6425 57.7628) rotate(-6.9511)"> </text><text class="cls-18" transform="translate(179.7363 57.2613) rotate(-5.3469)"> </text><text class="cls-18" transform="translate(183.8359 56.8746) rotate(-3.751)"> </text><text class="cls-18" transform="translate(187.9389 56.6027) rotate(-2.1653)"> </text><text class="cls-18" transform="translate(192.1049 56.4562) rotate(-0.9286)"> </text><text class="cls-18" transform="matrix(0.9998, 0.0174, -0.0174, 0.9998, 196.1987, 56.3985)"> </text><text class="cls-18" transform="translate(200.2988 56.4669) rotate(2.5733)"> </text><text class="cls-18" transform="matrix(0.9974, 0.0727, -0.0727, 0.9974, 204.4306, 56.6495)"> </text><text class="cls-18" transform="matrix(0.9949, 0.1004, -0.1004, 0.9949, 208.5312, 56.9449)"> </text><text class="cls-18" transform="translate(212.6288 57.3556) rotate(7.3685)"> </text><text class="cls-18" transform="translate(216.7236 57.8819) rotate(8.9803)"> </text><text class="cls-18" transform="translate(220.7802 58.5196) rotate(10.5883)"> </text><text class="cls-18" transform="translate(224.8281 59.2731) rotate(12.2037)"> </text><text class="cls-18" transform="matrix(0.971, 0.239, -0.239, 0.971, 228.8642, 60.1432)"> </text><text class="cls-18" transform="translate(232.8593 61.1227) rotate(15.4431)"> </text><text class="cls-18" transform="translate(236.8105 62.2115) rotate(17.0554)"> </text><text class="cls-18" transform="translate(240.746 63.4152) rotate(18.6733)"> </text><text class="cls-18" transform="translate(244.6581 64.734) rotate(20.2976)"> </text><text class="cls-18" transform="matrix(0.9277, 0.3732, -0.3732, 0.9277, 248.5204, 66.1598)"> </text><text class="cls-18" transform="matrix(0.9169, 0.3992, -0.3992, 0.9169, 252.3349, 67.6901)"> </text><text class="cls-18" transform="translate(256.1191 69.3346) rotate(25.1486)"> </text><text class="cls-18" transform="translate(259.8486 71.0817) rotate(26.762)"> </text><text class="cls-18" transform="translate(263.5195 72.9303) rotate(28.3715)"> </text><text class="cls-18" transform="matrix(0.8661, 0.4998, -0.4998, 0.8661, 267.1572, 74.8907)"> </text><text class="cls-18" transform="matrix(0.8519, 0.5238, -0.5238, 0.8519, 270.7079, 76.9361)"> </text><text class="cls-18" transform="translate(274.2206 79.0914) rotate(33.1924)"> </text><text class="cls-18" transform="translate(277.5947 81.2081) rotate(35.8686)">2</text><text class="cls-18" transform="translate(285.3964 86.8214) rotate(39.6706)">7</text><text class="cls-18" transform="translate(293.1269 93.3102) rotate(42.4912)">.</text><text class="cls-18" transform="matrix(0.7041, 0.7101, -0.7101, 0.7041, 296.4687, 96.2721)">5</text><text class="cls-18" transform="translate(303.2441 102.941) rotate(49.8161)">%</text><text class="cls-18" transform="translate(312.3124 113.901) rotate(53.3271)"> </text><text class="cls-18" transform="translate(314.7538 116.9991) rotate(56.302)">E</text><text class="cls-18" transform="translate(320.9452 126.2911) rotate(60.3822)">u</text><text class="cls-18" transform="translate(325.8134 134.9147) rotate(63.6736)">r</text><text class="cls-18" transform="matrix(0.3931, 0.9195, -0.9195, 0.3931, 328.9345, 141.1217)">o</text><text class="cls-18" transform="translate(332.5663 149.5533) rotate(70.5744)">p</text><text class="cls-18" transform="translate(335.8134 158.7853) rotate(74.1113)">e</text><text class="cls-18" transform="translate(338.0654 166.839) rotate(76.5428)"> </text><text class="cls-18" transform="translate(339.0302 170.8575) rotate(78.1659)"> </text><text class="cls-18" transform="translate(339.872 174.8634) rotate(79.7715)"> </text><text class="cls-18" transform="translate(340.6103 178.9376) rotate(81.3914)"> </text><text class="cls-18" transform="translate(341.2284 182.9933) rotate(82.9922)"> </text><text class="cls-18" transform="translate(341.7343 187.0851) rotate(84.5974)"> </text><text class="cls-18" transform="translate(342.1249 191.1842) rotate(86.1919)"> </text><text class="cls-18" transform="translate(342.4003 195.2862) rotate(87.7777)"> </text><text class="cls-18" transform="matrix(0.0162, 0.9999, -0.9999, 0.0162, 342.5546, 199.4459)"> </text><text class="cls-18" transform="translate(342.6132 203.5436) rotate(90.9411)"> </text><text class="cls-18" transform="matrix(-0.0439, 0.999, -0.999, -0.0439, 342.5497, 207.6451)"> </text><text class="cls-18" transform="translate(342.37 211.7779) rotate(94.1138)"> </text><text class="cls-18" transform="translate(342.0771 215.8815) rotate(95.708)"> </text><text class="cls-18" transform="translate(341.6708 219.9791) rotate(97.312)"> </text><text class="cls-18" transform="translate(341.1493 224.0748) rotate(98.9238)"> </text><text class="cls-18" transform="matrix(-0.1828, 0.9832, -0.9832, -0.1828, 340.5165, 228.1334)"> </text><text class="cls-18" transform="translate(339.7656 232.1813) rotate(102.1475)"> </text><text class="cls-18" transform="matrix(-0.2378, 0.9713, -0.9713, -0.2378, 338.9062, 236.192)"> </text><text class="cls-18" transform="translate(337.9238 240.2174) rotate(105.3875)"> </text></g></g></g></svg>