<svg xmlns="http://www.w3.org/2000/svg" xmlns:xlink="http://www.w3.org/1999/xlink" viewBox="0 0 656.4179 457.1632"><defs><style>.cls-1{fill:none;}.cls-18,.cls-2{fill:#fff;}.cls-3{clip-path:url(#clip-path);}.cls-12,.cls-4{fill:#003f5c;}.cls-4,.cls-5,.cls-6,.cls-7,.cls-8,.cls-9{fill-rule:evenodd;}.cls-13,.cls-5{fill:#7a5195;}.cls-14,.cls-6{fill:#374c80;}.cls-15,.cls-7{fill:#ff764a;}.cls-16,.cls-8{fill:#ef5675;}.cls-17,.cls-9{fill:#ffa600;}.cls-10{font-size:28px;}.cls-10,.cls-11,.cls-18{font-family:Georgia;}.cls-11,.cls-18{font-size:20px;}</style><clipPath id="clip-path"><path class="cls-1" d="M55.2274,354.6083c62.9772,86.6807,184.2989,105.8962,270.98,42.919s105.8962-184.299,42.919-270.98S184.827,20.6514,98.1463,83.6287-7.75,267.9276,55.2274,354.6083ZM308.45,170.6315A119,119,0,1,1,142.23,144.3049,119,119,0,0,1,308.45,170.6315Z"/></clipPath></defs><title>16</title><g id="Layer_2" data-name="Layer 2"><g id="Geographical_Location" data-name="Geographical Location"><g id="background"><rect class="cls-2" x="16.4179" y="7.1632" width="640" height="450"/></g><g id="Chart"><g class="cls-3"><path class="cls-4" d="M212.1748,240.5754,273.041,417.3436C175.4146,450.9591,69.022,399.068,35.4066,301.4416S53.6822,97.4226,151.3086,63.8072c44.42-15.2951,84.0053-14.6041,127.8644,2.2318Z"/><path class="cls-5" d="M212.1748,240.5754,279.173,66.039c96.3938,37.0021,144.54,145.1408,107.5382,241.5346a199.2175,199.2175,0,0,1-12.63,26.4787Z"/><path class="cls-6" d="M212.1748,240.5754l161.9067,93.4769c-12.2353,21.1922-25.2356,36.4135-44.2529,51.8134Z"/><path class="cls-7" d="M212.1748,240.5754l117.6538,145.29a183.74,183.74,0,0,1-29.8843,19.78Z"/><path class="cls-8" d="M212.1748,240.5754l87.77,165.07a174.5583,174.5583,0,0,1-20.7713,9.466Z"/><path class="cls-9" d="M212.1748,240.5754,279.173,415.1117c-1.8315.7031-4.2771,1.5932-6.132,2.2319Z"/></g></g><g id="Headline"><text id="Headline-2" data-name="Headline" class="cls-10" transform="matrix(0.8251, -0.565, 0.565, 0.8251, 88.3125, 77.3086)">G</text><text class="cls-10" transform="translate(104.3327 66.4545) rotate(-29.9348)">e</text><text class="cls-10" transform="translate(115.3413 60.054) rotate(-26.1436)">o</text><text class="cls-10" transform="matrix(0.9256, -0.3786, 0.3786, 0.9256, 128.1392, 53.7562)">g</text><text class="cls-10" transform="translate(140.6576 48.6571) rotate(-18.8294)">r</text><text class="cls-10" transform="translate(150.824 45.1261) rotate(-15.421)">a</text><text class="cls-10" transform="translate(163.5948 41.5383) rotate(-11.4186)">p</text><text class="cls-10" transform="matrix(0.9922, -0.1244, 0.1244, 0.9922, 178.3665, 38.5152)">h</text><text class="cls-10" transform="translate(193.85 36.6688) rotate(-3.9314)">i</text><text class="cls-10" transform="matrix(0.9998, -0.021, 0.021, 0.9998, 201.4624, 36.0783)">c</text><text class="cls-10" transform="matrix(0.9992, 0.0398, -0.0398, 0.9992, 213.4346, 35.7842)">a</text><text class="cls-10" transform="translate(226.9189 36.3818) rotate(5.1781)">l</text><text class="cls-10" transform="translate(234.4786 37.0702) rotate(7.1213)"> </text><text class="cls-10" transform="translate(240.5274 37.6682) rotate(10.2464)">L</text><text class="cls-10" transform="matrix(0.9682, 0.2503, -0.2503, 0.9682, 256.2673, 40.5128)">o</text><text class="cls-10" transform="translate(270.1186 44.1069) rotate(18.1969)">c</text><text class="cls-10" transform="matrix(0.9287, 0.3707, -0.3707, 0.9287, 281.4798, 47.7928)">a</text><text class="cls-10" transform="translate(293.9369 52.812) rotate(24.9176)">t</text><text class="cls-10" transform="translate(302.2653 56.6867) rotate(27.2932)">i</text><text class="cls-10" transform="matrix(0.8628, 0.5056, -0.5056, 0.8628, 309.0156, 60.0463)">o</text><text class="cls-10" transform="translate(321.2973 67.1761) rotate(34.5445)">n</text><text/></g><g id="Legend"><text class="cls-11" transform="translate(505.6013 434.9959)">South America</text><text class="cls-11" transform="translate(505.7249 399.809)">Asia</text><text class="cls-11" transform="translate(505.5279 366.0372)">Middle East</text><text class="cls-11" transform="translate(505.5279 332.0373)">Oceana</text><text class="cls-11" transform="translate(504.256 298.2718)">Europe</text><text class="cls-11" transform="translate(504.256 261.2718)">North America</text><rect id="Swatch_1" data-name="Swatch 1" class="cls-12" x="467.1852" y="241.9998" width="24.7508" height="24.7508" transform="translate(733.9358 -225.1854) rotate(90)"/><rect id="Swatch_2" data-name="Swatch 2" class="cls-13" x="467.1852" y="278.3059" width="24.7508" height="24.7508" transform="translate(770.2419 -188.8793) rotate(90)"/><rect id="Swatch_3" data-name="Swatch 3" class="cls-14" x="467.1852" y="312.3774" width="24.7508" height="24.7508" transform="translate(804.3134 -154.8078) rotate(90)"/><rect id="Swatch_4" data-name="Swatch 4" class="cls-15" x="467.1852" y="346.4489" width="24.7508" height="24.7508" transform="translate(838.3848 -120.7364) rotate(90)"/><rect id="Swatch_5" data-name="Swatch 5" class="cls-16" x="466.7692" y="380.9418" width="24.7508" height="24.7508" transform="translate(872.4618 -85.8274) rotate(90)"/><rect id="Swatch_6" data-name="Swatch 6" class="cls-17" x="466.6455" y="415.4347" width="24.7508" height="24.7508" transform="translate(906.831 -51.2108) rotate(90)"/></g><g id="Inner_Labels" data-name="Inner Labels"><text class="cls-18" transform="translate(56.7602 219.2269) rotate(96.8721)"> </text><text class="cls-18" transform="matrix(-0.0881, 0.9961, -0.9961, -0.0881, 56.1659, 224.1888)"> </text><text class="cls-18" transform="translate(55.7309 229.1336) rotate(93.2532)"> </text><text class="cls-18" transform="matrix(-0.0255, 0.9997, -0.9997, -0.0255, 55.4516, 234.0907)"> </text><text class="cls-18" transform="matrix(0.0162, 0.9999, -0.9999, 0.0162, 55.3026, 239.1991)"> </text><text class="cls-18" transform="translate(55.3564 244.0077) rotate(87.9026)"> </text><text class="cls-18" transform="translate(55.5409 248.9881) rotate(86.1014)"> </text><text class="cls-18" transform="translate(55.8798 253.9305) rotate(84.3028)"> </text><text class="cls-18" transform="matrix(0.1308, 0.9914, -0.9914, 0.1308, 56.3778, 258.8905)"> </text><text class="cls-18" transform="matrix(0.1623, 0.9867, -0.9867, 0.1623, 57.0326, 263.8387)"> </text><text class="cls-18" transform="translate(57.8402 268.7371) rotate(78.8392)"> </text><text class="cls-18" transform="translate(58.8114 273.6434) rotate(77.0017)"> </text><text class="cls-18" transform="matrix(0.256, 0.9667, -0.9667, 0.256, 59.9345, 278.495)"> </text><text class="cls-18" transform="matrix(0.2866, 0.958, -0.958, 0.2866, 61.2055, 283.2899)"> </text><text class="cls-18" transform="translate(62.642 288.0789) rotate(71.5036)"> </text><text class="cls-18" transform="translate(64.2152 292.7772) rotate(69.6802)"> </text><text class="cls-18" transform="translate(65.9535 297.4627) rotate(67.8422)"> </text><text class="cls-18" transform="matrix(0.4064, 0.9137, -0.9137, 0.4064, 67.8246, 302.0516)"> </text><text class="cls-18" transform="matrix(0.4355, 0.9002, -0.9002, 0.4355, 69.8598, 306.62)"> </text><text class="cls-18" transform="translate(72.0214 311.0838) rotate(62.3672)"> </text><text class="cls-18" transform="matrix(0.4917, 0.8707, -0.8707, 0.4917, 74.3329, 315.495)"> </text><text class="cls-18" transform="translate(76.7792 319.8221) rotate(58.7275)"> </text><text class="cls-18" transform="translate(79.3734 324.0877) rotate(56.9045)"> </text><text class="cls-18" transform="translate(82.0819 328.2391) rotate(55.0977)"> </text><text class="cls-18" transform="matrix(0.5979, 0.8016, -0.8016, 0.5979, 84.933, 332.3211)"> </text><text class="cls-18" transform="translate(87.9101 336.3084) rotate(51.4732)"> </text><text class="cls-18" transform="matrix(0.6472, 0.7623, -0.7623, 0.6472, 91.0087, 340.1971)"> </text><text class="cls-18" transform="matrix(0.6709, 0.7415, -0.7415, 0.6709, 94.227, 343.9852)"> </text><text class="cls-18" transform="matrix(0.6939, 0.72, -0.72, 0.6939, 97.5624, 347.6668)"> </text><text class="cls-18" transform="translate(101.0316 351.2635) rotate(44.242)"> </text><text class="cls-18" transform="translate(104.5927 354.7274) rotate(42.4379)"> </text><text class="cls-18" transform="translate(108.2621 358.0789) rotate(40.6333)"> </text><text class="cls-18" transform="translate(112.0365 361.3153) rotate(38.8257)"> </text><text class="cls-18" transform="translate(115.914 364.4325) rotate(37.0163)"> </text><text class="cls-18" transform="translate(119.8915 367.4295) rotate(35.2032)"> </text><text class="cls-18" transform="translate(92.8661 326.2274) rotate(-124.7843)"> </text><text class="cls-18" transform="matrix(-0.5448, -0.8386, 0.8386, -0.5448, 90.2616, 322.4852)"> </text><text class="cls-18" transform="matrix(-0.5185, -0.8551, 0.8551, -0.5185, 87.7719, 318.66)"> </text><text class="cls-18" transform="translate(85.3988 314.7537) rotate(-119.4446)"> </text><text class="cls-18" transform="translate(83.1581 310.7928) rotate(-117.6653)"> </text><text class="cls-18" transform="translate(81.0375 306.7577) rotate(-115.8798)"> </text><text class="cls-18" transform="matrix(-0.4081, -0.9129, 0.9129, -0.4081, 79.0395, 302.6493)"> </text><text class="cls-18" transform="matrix(-0.3795, -0.9252, 0.9252, -0.3795, 77.1781, 298.494)"> </text><text class="cls-18" transform="matrix(-0.3503, -0.9366, 0.9366, -0.3503, 75.4418, 294.2733)"> </text><text class="cls-18" transform="translate(73.8349 289.9852) rotate(-108.7069)"> </text><text class="cls-18" transform="translate(72.3666 285.6629) rotate(-106.9109)"> </text><text class="cls-18" transform="matrix(-0.2608, -0.9654, 0.9654, -0.2608, 71.0375, 281.3075)"> </text><text class="cls-18" transform="matrix(-0.2304, -0.9731, 0.9731, -0.2304, 69.8412, 276.8963)"> </text><text class="cls-18" transform="translate(68.7865 272.4559) rotate(-101.5308)"> </text><text class="cls-18" transform="translate(67.8715 267.993) rotate(-99.7454)"> </text><text class="cls-18" transform="matrix(-0.1386, -0.9903, 0.9903, -0.1386, 67.0971, 263.5077)"> </text><text class="cls-18" transform="matrix(-0.1077, -0.9942, 0.9942, -0.1077, 66.4589, 258.9774)"> </text><text class="cls-18" transform="translate(65.9623 254.4325) rotate(-94.4075)"> </text><text class="cls-18" transform="matrix(-0.0463, -0.9989, 0.9989, -0.0463, 65.6098, 249.9022)"> </text><text class="cls-18" transform="translate(65.3949 245.3299) rotate(-90.9286)"> </text><text class="cls-18" transform="matrix(0.0162, -0.9999, 0.9999, 0.0162, 65.3149, 240.7718)"> </text><text class="cls-18" transform="translate(65.3822 236.1908) rotate(-87.3926)"> </text><text class="cls-18" transform="matrix(0.0763, -0.9971, 0.9971, 0.0763, 65.5868, 231.6219)"> </text><text class="cls-18" transform="matrix(0.1069, -0.9943, 0.9943, 0.1069, 65.9286, 227.0902)"> </text><text class="cls-18" transform="matrix(0.1378, -0.9905, 0.9905, 0.1378, 66.4145, 222.5394)"> </text><text class="cls-18" transform="translate(67.0375 218.0311) rotate(-80.2993)"> </text><text class="cls-18" transform="translate(67.8056 213.5111) rotate(-78.5026)"> </text><text class="cls-18" transform="translate(68.7055 209.0667) rotate(-76.7218)"> </text><text class="cls-18" transform="matrix(0.2601, -0.9656, 0.9656, 0.2601, 69.7519, 204.6151)"> </text><text class="cls-18" transform="translate(70.932 200.2171) rotate(-73.1336)"> </text><text class="cls-18" transform="translate(72.2533 195.847) rotate(-71.3375)"> </text><text class="cls-18" transform="translate(73.5678 191.6566) rotate(-68.3476)">6</text><text class="cls-18" transform="matrix(0.4358, -0.9, 0.9, 0.4358, 77.4823, 181.7362)">2</text><text class="cls-18" transform="matrix(0.5141, -0.8577, 0.8577, 0.5141, 81.933, 172.2098)">%</text><text class="cls-18" transform="translate(90.1903 158.7767) rotate(-55.1621)"> </text><text class="cls-18" transform="translate(92.4897 155.1454) rotate(-51.4525)">N</text><text class="cls-18" transform="matrix(0.6864, -0.7272, 0.7272, 0.6864, 101.6723, 143.7279)">o</text><text class="cls-18" transform="translate(108.7397 136.2747) rotate(-43.1748)">r</text><text class="cls-18" transform="translate(114.4159 130.9569) rotate(-40.4085)">t</text><text class="cls-18" transform="matrix(0.7987, -0.6017, 0.6017, 0.7987, 119.2558, 126.7249)">h</text><text class="cls-18" transform="translate(128.2411 120.0536) rotate(-33.9671)"> </text><text class="cls-18" transform="translate(131.7602 117.5135) rotate(-30.6027)">A</text><text class="cls-18" transform="translate(142.5155 110.9808) rotate(-24.8642)">m</text><text class="cls-18" transform="translate(157.9052 104.0072) rotate(-19.7902)">e</text><text class="cls-18" transform="translate(166.5258 100.912) rotate(-16.4775)">r</text><text class="cls-18" transform="translate(174.0351 98.7098) rotate(-13.8592)">i</text><text class="cls-18" transform="translate(179.328 97.3538) rotate(-11.0826)">c</text><text class="cls-18" transform="translate(187.727 95.6766) rotate(-7.5379)">a</text><text class="cls-18" transform="translate(197.3056 94.4627) rotate(-4.8038)"> </text><text class="cls-18" transform="translate(201.8554 94.0765) rotate(-3.0377)"> </text><text class="cls-18" transform="translate(206.4159 93.8304) rotate(-1.2814)"> </text><text class="cls-18" transform="matrix(0.9999, 0.0162, -0.0162, 0.9999, 210.9413, 93.7039)"> </text><text class="cls-18" transform="translate(215.5634 93.7581) rotate(2.222)"> </text><text class="cls-18" transform="translate(220.1396 93.932) rotate(3.9888)"> </text><text class="cls-18" transform="translate(224.6806 94.2435) rotate(5.7541)"> </text><text class="cls-18" transform="translate(229.2108 94.6956) rotate(7.5267)"> </text><text class="cls-18" transform="translate(233.7567 95.2933) rotate(9.3177)"> </text><text class="cls-18" transform="translate(238.2597 96.0277) rotate(11.1044)"> </text><text class="cls-18" transform="matrix(0.9748, 0.2232, -0.2232, 0.9748, 242.7411, 96.9032)"> </text><text class="cls-18" transform="translate(247.1757 97.9139) rotate(14.6853)"> </text><text class="cls-18" transform="translate(251.5868 99.0658) rotate(16.4776)"> </text><text class="cls-18" transform="matrix(0.9496, 0.3136, -0.3136, 0.9496, 255.9687, 100.3578)"> </text><text class="cls-18" transform="translate(260.2939 101.7811) rotate(20.0659)"> </text><text class="cls-18" transform="translate(264.5858 103.3451) rotate(21.8612)"> </text><text class="cls-18" transform="translate(268.8153 105.037) rotate(23.6504)"> </text><text class="cls-18" transform="translate(273.0038 106.868) rotate(25.4431)"> </text><text class="cls-18" transform="translate(277.1249 108.8241) rotate(27.2304)"> </text><text class="cls-18" transform="translate(281.1747 110.9027) rotate(29.0112)"> </text><text class="cls-18" transform="matrix(0.859, 0.512, -0.512, 0.859, 285.1747, 113.117)"> </text><text class="cls-18" transform="matrix(0.8427, 0.5385, -0.5385, 0.8427, 289.0995, 115.451)"> </text><text class="cls-18" transform="translate(292.9442 117.9032) rotate(34.3543)"> </text><text class="cls-18" transform="translate(296.706 120.4701) rotate(36.1266)"> </text><text class="cls-18" transform="matrix(0.789, 0.6144, -0.6144, 0.789, 300.4071, 123.1663)"> </text><text class="cls-18" transform="translate(304.0185 125.9735) rotate(39.6816)"> </text><text class="cls-18" transform="translate(307.456 128.703) rotate(42.6302)">2</text><text class="cls-18" transform="translate(315.3144 135.8958) rotate(46.8361)">7</text><text class="cls-18" transform="matrix(0.6432, 0.7657, -0.7657, 0.6432, 322.9247, 144.118)">.</text><text class="cls-18" transform="translate(326.162 147.8304) rotate(53.0157)">5</text><text class="cls-18" transform="matrix(0.5284, 0.849, -0.849, 0.5284, 332.6151, 156.1576)">%</text><text class="cls-18" transform="translate(340.8085 169.6571) rotate(62.0198)"> </text><text class="cls-18" transform="matrix(0.4173, 0.9087, -0.9087, 0.4173, 342.9608, 173.4266)">E</text><text class="cls-18" transform="translate(348.1288 184.6888) rotate(69.89)">u</text><text class="cls-18" transform="translate(351.8691 195.0077) rotate(73.5556)">r</text><text class="cls-18" transform="translate(354.0956 202.3519) rotate(77.08)">o</text><text class="cls-18" transform="translate(356.4052 212.2796) rotate(81.2)">p</text><text class="cls-18" transform="translate(358.0556 223.0037) rotate(85.0825)">e</text><text class="cls-18" transform="translate(358.8026 232.2523) rotate(87.7328)"> </text><text class="cls-18" transform="matrix(0.0162, 0.9999, -0.9999, 0.0162, 358.9706, 236.867)"> </text><text class="cls-18" transform="translate(359.0331 241.3988) rotate(91.2359)"> </text><text class="cls-18" transform="translate(358.9384 245.9637) rotate(92.9922)"> </text><text class="cls-18" transform="translate(358.703 250.5252) rotate(94.7587)"> </text><text class="cls-18" transform="translate(358.329 255.078) rotate(96.5335)"> </text><text class="cls-18" transform="translate(357.8163 259.5897) rotate(98.3043)"> </text><text class="cls-18" transform="translate(357.1601 264.117) rotate(100.0942)"> </text><text class="cls-18" transform="translate(356.3661 268.5985) rotate(101.8785)"> </text><text class="cls-18" transform="translate(355.4316 273.0623) rotate(103.6693)"> </text><text class="cls-18" transform="translate(354.3564 277.5008) rotate(105.4654)"> </text><text class="cls-18" transform="matrix(-0.2968, 0.9549, -0.9549, -0.2968, 353.1396, 281.9159)"> </text><text class="cls-18" transform="translate(351.7899 286.2733) rotate(109.0607)"> </text><text class="cls-18" transform="translate(350.3085 290.5711) rotate(110.8486)"> </text><text class="cls-18" transform="matrix(-0.385, 0.9229, -0.9229, -0.385, 348.6884, 294.8368)"> </text><text class="cls-18" transform="translate(346.9286 299.0633) rotate(114.4379)"> </text><text class="cls-18" transform="matrix(-0.4418, 0.8971, -0.8971, -0.4418, 345.0556, 303.1971)"> </text><text class="cls-18" transform="translate(343.0331 307.3133) rotate(118.0128)"> </text><text class="cls-18" transform="translate(340.9013 311.3309) rotate(119.7915)"> </text></g></g></g></svg>