<svg xmlns="http://www.w3.org/2000/svg" xmlns:xlink="http://www.w3.org/1999/xlink" viewBox="0 0 640 426.4653"><defs><style>.cls-1{fill:none;}.cls-15,.cls-2{fill:#fff;}.cls-3{clip-path:url(#clip-path);}.cls-10,.cls-4{fill:#ffa600;}.cls-4,.cls-5,.cls-6,.cls-7,.cls-8{fill-rule:evenodd;}.cls-11,.cls-5{fill:#bc5090;}.cls-12,.cls-6{fill:#003f5c;}.cls-13,.cls-7{fill:#7a5195;}.cls-14,.cls-8{fill:#ff764a;}.cls-15,.cls-9{font-size:18px;font-family:Georgia;}</style><clipPath id="clip-path"><path class="cls-1" d="M271.5407,25.8415C168.0483-1.8893,61.6709,59.5277,33.94,163.02S67.6265,372.89,171.1189,400.6207s209.87-33.6863,237.6005-137.1787S375.0332,53.5722,271.5407,25.8415ZM190.53,328.1762A119,119,0,1,1,336.275,244.0305,119,119,0,0,1,190.53,328.1762Z"/></clipPath></defs><g id="Layer_2" data-name="Layer 2"><g id="Hours_Worked" data-name="Hours Worked"><g id="background"><rect class="cls-2" y="8.2311" width="640" height="410"/></g><g id="Chart"><g class="cls-3"><path class="cls-4" d="M221.3329,213.2319l-158.5457-99.07c2.1886-3.5025,3.0333-4.7787,5.4022-8.1619Z"/><path class="cls-5" d="M221.3329,213.2319,68.1894,106a180.7005,180.7005,0,0,1,23.2745-27.251Z"/><path class="cls-6" d="M221.3329,213.2319,91.4639,78.7486C165.737,7.024,284.0915,9.09,355.8162,83.3629s69.6588,192.6276-4.6143,264.3523S158.5743,417.3739,86.85,343.1009h0Z"/><path class="cls-7" d="M221.3329,213.2319,86.85,343.1009c-57.38-59.4185-69.366-144.7058-30.587-217.6385Z"/><path class="cls-8" d="M221.3329,213.2319l-165.07-87.7695c1.9389-3.6466,4.3359-7.7984,6.5246-11.3009Z"/></g></g><g id="Legend"><text class="cls-9" transform="translate(488.9558 371.9386)">51-60 hrs</text><text class="cls-9" transform="translate(488.9558 336.9386)">41-50 hrs</text><text class="cls-9" transform="translate(488.9558 302.9386)">31-40 hrs</text><text class="cls-9" transform="translate(487.6838 269.1732)">21-30 hrs</text><text class="cls-9" transform="translate(487.6838 232.1732)">0-20 hrs</text><rect id="Swatch_1" data-name="Swatch 1" class="cls-10" x="450.6131" y="212.9012" width="24.7508" height="24.7508" transform="translate(688.2651 -237.7119) rotate(90)"/><rect id="Swatch_2" data-name="Swatch 2" class="cls-11" x="450.6131" y="249.2073" width="24.7508" height="24.7508" transform="translate(724.5712 -201.4058) rotate(90)"/><rect id="Swatch_3" data-name="Swatch 3" class="cls-12" x="450.6131" y="283.2788" width="24.7508" height="24.7508" transform="translate(758.6427 -167.3344) rotate(90)"/><rect id="Swatch_4" data-name="Swatch 4" class="cls-13" x="450.6131" y="317.3503" width="24.7508" height="24.7508" transform="translate(792.7141 -133.2629) rotate(90)"/><rect id="Swatch_5" data-name="Swatch 5" class="cls-14" x="450" y="353.0714" width="24.7508" height="24.7508" transform="translate(827.8222 -96.9286) rotate(90)"/></g><g id="Inner_Labels" data-name="Inner Labels"><text class="cls-15" transform="translate(161.7356 78.8839) rotate(-21.8944)">7</text><text class="cls-15" transform="translate(170.9651 75.1622) rotate(-18.0535)">5</text><text class="cls-15" transform="matrix(0.9727, -0.232, 0.232, 0.9727, 179.9822, 72.0987)">%</text><text class="cls-15" transform="matrix(0.9852, -0.1714, 0.1714, 0.9852, 193.8425, 68.9435)"> </text><text class="cls-15" transform="translate(197.7922 68.2159) rotate(-7.6282)">s</text><text class="cls-15" transform="translate(205.1575 67.2394) rotate(-5.0413)">t</text><text class="cls-15" transform="matrix(0.9992, -0.0392, 0.0392, 0.9992, 210.9426, 66.6842)">a</text><text class="cls-15" transform="matrix(0.9997, 0.0233, -0.0233, 0.9997, 219.5115, 66.3087)">n</text><text class="cls-15" transform="translate(229.6091 66.5314) rotate(5.1772)">d</text><text class="cls-15" transform="translate(239.4148 67.4239) rotate(8.766)">a</text><text class="cls-15" transform="translate(247.9626 68.753) rotate(11.8226)">r</text><text class="cls-15" transform="matrix(0.9654, 0.2608, -0.2608, 0.9654, 254.7419, 70.1149)">d</text><text class="cls-15" transform="translate(264.3279 72.7701) rotate(17.8539)"> </text><text class="cls-15" transform="matrix(0.9411, 0.338, -0.338, 0.9411, 268.2185, 74.005)">f</text><text class="cls-15" transform="matrix(0.922, 0.3871, -0.3871, 0.922, 273.3513, 75.774)">u</text><text class="cls-15" transform="translate(282.5154 79.6822) rotate(25.6616)">l</text><text class="cls-15" transform="translate(286.9041 81.7853) rotate(27.5673)">l</text><text class="cls-15" transform="translate(291.2712 84.0675) rotate(29.3361)"> </text><text class="cls-15" transform="translate(294.8123 86.0338) rotate(31.2834)">t</text><text class="cls-15" transform="matrix(0.8348, 0.5506, -0.5506, 0.8348, 299.8689, 89.11)">i</text><text class="cls-15" transform="translate(303.9324 91.5543) rotate(37.3056)">m</text><text class="cls-15" transform="matrix(0.7451, 0.6669, -0.6669, 0.7451, 315.9802, 100.879)">e</text><text class="cls-15" transform="translate(322.1941 106.4938) rotate(44.2313)"> </text><text class="cls-15" transform="matrix(0.676, 0.7369, -0.7369, 0.676, 325.074, 109.1026)">w</text><text class="cls-15" transform="translate(333.6238 118.4884) rotate(51.6983)">o</text><text class="cls-15" transform="translate(339.3406 125.7574) rotate(54.8396)">r</text><text class="cls-15" transform="translate(343.3699 131.4044) rotate(57.9826)">k</text><text class="cls-15" transform="translate(348.2517 139.296) rotate(60.7287)">l</text><text class="cls-15" transform="translate(350.6306 143.4088) rotate(63.4775)">o</text><text class="cls-15" transform="translate(354.7595 151.671) rotate(66.9747)">a</text><text class="cls-15" transform="translate(358.1404 159.5333) rotate(70.5855)">d</text></g><g id="Outside_Labels" data-name="Outside Labels"><text class="cls-9" transform="translate(46.7166 119.7726) rotate(-61.1623)"> </text><text class="cls-9" transform="translate(48.7342 116.1041) rotate(-59.9489)"> </text><text class="cls-9" transform="translate(50.8275 112.483) rotate(-58.7382)"> </text><text class="cls-9" transform="translate(53.0032 108.8956) rotate(-57.5243)"> </text><text class="cls-9" transform="matrix(0.5547, -0.8321, 0.8321, 0.5547, 55.2537, 105.3575)"> </text><text class="cls-9" transform="translate(57.5867 101.8546) rotate(-55.0977)"> </text><text class="cls-9" transform="matrix(0.5893, -0.8079, 0.8079, 0.5893, 59.97, 98.4357)"> </text><text class="cls-9" transform="matrix(0.6062, -0.7953, 0.7953, 0.6062, 62.4451, 95.0392)"> </text><text class="cls-9" transform="translate(64.9905 91.6974) rotate(-51.4738)"> </text><text class="cls-9" transform="translate(67.6048 88.4122) rotate(-50.2649)"> </text><text class="cls-9" transform="matrix(0.6553, -0.7554, 0.7554, 0.6553, 70.2859, 85.1832)"> </text><text class="cls-9" transform="matrix(0.6711, -0.7414, 0.7414, 0.6711, 73.0345, 82.0128)"> </text><text class="cls-9" transform="translate(75.8489 78.902) rotate(-46.6436)"> </text><text class="cls-9" transform="translate(78.7274 75.8512) rotate(-45.4378)"> </text><text class="cls-9" transform="translate(81.6693 72.8609) rotate(-44.2316)"> </text><text class="cls-9" transform="matrix(0.7311, -0.6823, 0.6823, 0.7311, 84.6741, 69.9337)"> </text><text class="cls-9" transform="translate(87.7401 67.0704) rotate(-41.8188)"> </text><text class="cls-9" transform="matrix(0.7591, -0.6509, 0.6509, 0.7591, 90.8665, 64.2711)"> </text><text class="cls-9" transform="translate(94.0521 61.5377) rotate(-39.4036)"> </text><text class="cls-9" transform="matrix(0.7859, -0.6184, 0.6184, 0.7859, 97.2811, 58.8829)"> </text><text class="cls-9" transform="matrix(0.7987, -0.6017, 0.6017, 0.7987, 100.5667, 56.295)"> </text><text class="cls-9" transform="translate(103.9227 53.7648) rotate(-35.7827)"> </text><text class="cls-9" transform="matrix(0.8234, -0.5674, 0.5674, 0.8234, 107.3338, 51.3043)"> </text><text class="cls-9" transform="translate(110.7684 48.9357) rotate(-33.3644)"> </text><text class="cls-9" transform="translate(114.2855 46.6178) rotate(-32.147)"> </text><text class="cls-9" transform="translate(117.8231 44.3927) rotate(-30.9379)"> </text><text class="cls-9" transform="translate(121.4261 42.2316) rotate(-29.7208)"> </text><text class="cls-9" transform="matrix(0.8788, -0.4772, 0.4772, 0.8788, 125.0794, 40.1446)"> </text><text class="cls-9" transform="translate(128.763 38.1417) rotate(-27.2848)"> </text><text class="cls-9" transform="translate(132.4778 36.2237) rotate(-26.0708)"> </text><text class="cls-9" transform="translate(136.2371 34.3829) rotate(-24.8537)"> </text><text class="cls-9" transform="matrix(0.9162, -0.4008, 0.4008, 0.9162, 140.0584, 32.6114)"> </text><text class="cls-9" transform="matrix(0.9245, -0.3812, 0.3812, 0.9245, 143.888, 30.9342)"> </text><text class="cls-9" transform="translate(147.7601 29.336) rotate(-21.1903)"> </text><text class="cls-9" transform="translate(151.6722 27.8175) rotate(-19.9668)"> </text><text class="cls-9" transform="translate(155.6253 26.3795) rotate(-18.74)"> </text><text class="cls-9" transform="translate(159.5809 25.0353) rotate(-17.5215)"> </text><text class="cls-9" transform="matrix(0.9598, -0.2807, 0.2807, 0.9598, 163.5735, 23.7735)"> </text><text class="cls-9" transform="translate(167.6028 22.5939) rotate(-15.0755)"> </text><text class="cls-9" transform="translate(171.6673 21.4977) rotate(-13.8481)"> </text><text class="cls-9" transform="translate(175.7283 20.4942) rotate(-12.629)"> </text><text class="cls-9" transform="matrix(0.9802, -0.1978, 0.1978, 0.9802, 179.8226, 19.5758)"> </text><text class="cls-9" transform="translate(183.9105 18.7491) rotate(-10.1949)"> </text><text class="cls-9" transform="translate(188.0486 18.0035) rotate(-8.9747)"> </text><text class="cls-9" transform="translate(192.1776 17.3492) rotate(-7.7633)"> </text><text class="cls-9" transform="translate(196.3543 16.7789) rotate(-6.5445)"> </text><text class="cls-9" transform="translate(200.5208 16.2994) rotate(-5.3353)"> </text><text class="cls-9" transform="translate(204.6927 15.9083) rotate(-4.1304)"> </text><text class="cls-9" transform="translate(208.8904 15.6041) rotate(-2.9243)"> </text><text class="cls-9" transform="translate(213.053 15.3893) rotate(-1.7344)"> </text><text class="cls-9" transform="matrix(0.9999, -0.0162, 0.0162, 0.9999, 217.3065, 15.2745)"> </text><text class="cls-9" transform="matrix(0.9999, 0.0162, -0.0162, 0.9999, 221.4202, 15.2081)"> </text><text class="cls-9" transform="translate(225.6649 15.2657) rotate(1.8479)"> </text><text class="cls-9" transform="translate(229.8484 15.399) rotate(3.0435)"> </text><text class="cls-9" transform="matrix(0.9973, 0.074, -0.074, 0.9973, 234.0291, 15.6202)"> </text><text class="cls-9" transform="translate(238.2078 15.9283) rotate(5.4481)"> </text><text class="cls-9" transform="translate(242.3807 16.3243) rotate(6.6573)"> </text><text class="cls-9" transform="matrix(0.9906, 0.137, -0.137, 0.9906, 246.5662, 16.8116)"> </text><text class="cls-9" transform="translate(250.7264 17.3859) rotate(9.0929)"> </text><text class="cls-9" transform="translate(254.8572 18.0455) rotate(10.3074)"> </text><text class="cls-9" transform="translate(258.9783 18.7926) rotate(11.5254)"> </text><text class="cls-9" transform="matrix(0.9754, 0.2206, -0.2206, 0.9754, 263.0897, 19.63)"> </text><text class="cls-9" transform="matrix(0.9704, 0.2414, -0.2414, 0.9704, 267.1873, 20.5558)"> </text><text class="cls-9" transform="translate(271.2352 21.5602) rotate(15.1868)"> </text><text class="cls-9" transform="translate(275.2859 22.6583) rotate(16.4111)"> </text><text class="cls-9" transform="translate(279.3026 23.8395) rotate(17.6324)"> </text><text class="cls-9" transform="matrix(0.9463, 0.3233, -0.3233, 0.9463, 283.3192, 25.1153)"> </text><text class="cls-9" transform="translate(287.282 26.4664) rotate(20.0826)"> </text><text class="cls-9" transform="translate(291.2049 27.899) rotate(21.3006)"> </text><text class="cls-9" transform="translate(295.1268 29.4264) rotate(22.5262)"> </text><text class="cls-9" transform="matrix(0.9153, 0.4027, -0.4027, 0.9153, 299.0057, 31.0333)"> </text><text class="cls-9" transform="translate(302.826 32.713) rotate(24.963)"> </text><text class="cls-9" transform="translate(306.6365 34.4855) rotate(26.185)"> </text><text class="cls-9" transform="translate(310.4051 36.3365) rotate(27.4041)"> </text><text class="cls-9" transform="translate(314.1277 38.2648) rotate(28.6207)"> </text><text class="cls-9" transform="matrix(0.8675, 0.4975, -0.4975, 0.8675, 317.8035, 40.2701)"> </text><text class="cls-9" transform="translate(321.4354 42.3487) rotate(31.046)"> </text><text class="cls-9" transform="matrix(0.8456, 0.5338, -0.5338, 0.8456, 325.0477, 44.5226)"> </text><text class="cls-9" transform="matrix(0.8342, 0.5515, -0.5515, 0.8342, 328.5789, 46.7491)"> </text><text class="cls-9" transform="translate(332.0897 49.0694) rotate(34.6873)"> </text><text class="cls-9" transform="matrix(0.8101, 0.5863, -0.5863, 0.8101, 335.533, 51.4518)"> </text><text class="cls-9" transform="matrix(0.7976, 0.6032, -0.6032, 0.7976, 338.9246, 53.9034)"> </text><text class="cls-9" transform="translate(342.2752 56.4357) rotate(38.3126)"> </text><text class="cls-9" transform="translate(345.5721 59.0382) rotate(39.5215)"> </text><text class="cls-9" transform="matrix(0.7578, 0.6525, -0.6525, 0.7578, 348.8104, 61.7076)"> </text><text class="cls-9" transform="translate(351.991 64.4444) rotate(41.9359)"> </text><text class="cls-9" transform="matrix(0.7297, 0.6838, -0.6838, 0.7297, 355.1121, 67.2472)"> </text><text class="cls-9" transform="translate(358.1746 70.1144) rotate(44.3489)"> </text><text class="cls-9" transform="matrix(0.7002, 0.7139, -0.7139, 0.7002, 361.1756, 73.0455)"> </text><text class="cls-9" transform="translate(364.1141 76.0392) rotate(46.7609)"> </text><text class="cls-9" transform="translate(366.9881 79.0943) rotate(47.9676)"> </text><text class="cls-9" transform="translate(369.7986 82.2101) rotate(49.1746)"> </text><text class="cls-9" transform="translate(372.5447 85.3854) rotate(50.3826)"> </text><text class="cls-9" transform="matrix(0.6213, 0.7836, -0.7836, 0.6213, 375.2234, 88.6188)"> </text><text class="cls-9" transform="matrix(0.6046, 0.7965, -0.7965, 0.6046, 377.8221, 91.8942)"> </text><text class="cls-9" transform="translate(380.3533 95.2262) rotate(54.0024)"> </text><text class="cls-9" transform="translate(382.825 98.6276) rotate(55.2157)"> </text><text class="cls-9" transform="matrix(0.553, 0.8332, -0.8332, 0.553, 385.2176, 102.068)"> </text><text class="cls-9" transform="matrix(0.5353, 0.8447, -0.8447, 0.5353, 387.5389, 105.5607)"> </text><text class="cls-9" transform="matrix(0.5173, 0.8558, -0.8558, 0.5173, 389.7859, 109.1046)"> </text><text class="cls-9" transform="translate(391.9608 112.6998) rotate(60.0681)"> </text><text class="cls-9" transform="matrix(0.4805, 0.877, -0.877, 0.4805, 394.0516, 116.3273)"> </text><text class="cls-9" transform="translate(396.0662 120.003) rotate(62.4979)"> </text><text class="cls-9" transform="translate(398.0067 123.7257) rotate(63.7168)"> </text><text class="cls-9" transform="translate(399.869 127.4947) rotate(64.9389)"> </text><text class="cls-9" transform="translate(401.6385 131.274) rotate(66.1529)"> </text><text class="cls-9" transform="translate(403.3377 135.1134) rotate(67.3755)"> </text><text class="cls-9" transform="translate(404.9568 138.9947) rotate(68.6007)"> </text><text class="cls-9" transform="translate(406.4822 142.8834) rotate(69.8182)"> </text><text class="cls-9" transform="translate(407.9285 146.8111) rotate(71.0384)"> </text><text class="cls-9" transform="translate(409.2986 150.796) rotate(72.2679)"> </text><text class="cls-9" transform="matrix(0.2842, 0.9588, -0.9588, 0.2842, 410.575, 154.7828)"> </text><text class="cls-9" transform="translate(411.7684 158.8053) rotate(74.7127)"> </text><text class="cls-9" transform="translate(412.8699 162.8273) rotate(75.9283)"> </text><text class="cls-9" transform="translate(413.8973 166.9191) rotate(77.1581)"> </text><text class="cls-9" transform="translate(414.8309 171.0079) rotate(78.3788)"> </text><text class="cls-9" transform="translate(415.6727 175.0904) rotate(79.5915)"> </text><text class="cls-9" transform="translate(416.4334 179.2233) rotate(80.8116)"> </text><text class="cls-9" transform="translate(417.1053 183.3658) rotate(82.0284)"> </text><text class="cls-9" transform="translate(417.6883 187.5187) rotate(83.2409)"> </text><text class="cls-9" transform="translate(418.1834 191.6798) rotate(84.4497)"> </text><text class="cls-9" transform="translate(418.5906 195.8678) rotate(85.6598)"> </text><text class="cls-9" transform="translate(418.909 200.0406) rotate(86.8606)"> </text><text class="cls-9" transform="translate(419.1414 204.2389) rotate(88.061)"> </text><text class="cls-9" transform="translate(419.2781 208.4332) rotate(89.0712)"> </text><text class="cls-9" transform="matrix(-0.0162, 0.9999, -0.9999, -0.0162, 419.3602, 212.546)"> </text><text class="cls-9" transform="matrix(-0.0285, 0.9996, -0.9996, -0.0285, 419.3094, 216.8092)"> </text><text class="cls-9" transform="translate(419.1922 221.0172) rotate(92.8337)"> </text><text class="cls-9" transform="matrix(-0.0704, 0.9975, -0.9975, -0.0704, 418.9861, 225.2027)"> </text><text class="cls-9" transform="matrix(-0.0913, 0.9958, -0.9958, -0.0913, 418.6922, 229.3863)"> </text><text class="cls-9" transform="matrix(-0.1123, 0.9937, -0.9937, -0.1123, 418.3104, 233.5631)"> </text><text class="cls-9" transform="translate(417.8416 237.732) rotate(97.6618)"> </text><text class="cls-9" transform="matrix(-0.1543, 0.988, -0.988, -0.1543, 417.2859, 241.8785)"> </text><text class="cls-9" transform="translate(416.6385 246.0338) rotate(100.0939)"> </text><text class="cls-9" transform="translate(415.908 250.1412) rotate(101.3066)"> </text><text class="cls-9" transform="matrix(-0.2169, 0.9762, -0.9762, -0.2169, 415.0877, 254.2565)"> </text><text class="cls-9" transform="translate(414.1776 258.3609) rotate(103.7534)"> </text><text class="cls-9" transform="translate(413.1815 262.4332) rotate(104.975)"> </text><text class="cls-9" transform="matrix(-0.279, 0.9603, -0.9603, -0.279, 412.0984, 266.4908)"> </text><text class="cls-9" transform="translate(410.9315 270.5113) rotate(107.4219)"> </text><text class="cls-9" transform="translate(409.6815 274.5006) rotate(108.6407)"> </text><text class="cls-9" transform="matrix(-0.3398, 0.9405, -0.9405, -0.3398, 408.3387, 278.4869)"> </text><text class="cls-9" transform="translate(406.9129 282.4342) rotate(111.0909)"> </text><text class="cls-9" transform="translate(405.408 286.3443) rotate(112.3119)"> </text><text class="cls-9" transform="translate(403.8211 290.2135) rotate(113.5299)"> </text><text class="cls-9" transform="translate(402.1414 294.0758) rotate(114.7557)"> </text><text class="cls-9" transform="translate(400.3983 297.8619) rotate(115.9673)"> </text><text class="cls-9" transform="translate(398.5604 301.6383) rotate(117.1869)"> </text><text class="cls-9" transform="translate(396.6463 305.3678) rotate(118.4036)"> </text><text class="cls-9" transform="matrix(-0.4942, 0.8693, -0.8693, -0.4942, 394.6551, 309.0533)"> </text><text class="cls-9" transform="translate(392.5789 312.7076) rotate(120.8351)"> </text><text class="cls-9" transform="translate(390.4285 316.3121) rotate(122.0496)"> </text><text class="cls-9" transform="translate(388.2039 319.8688) rotate(123.2625)"> </text><text class="cls-9" transform="translate(385.9061 323.3736) rotate(124.4723)"> </text><text class="cls-9" transform="matrix(-0.5833, 0.8122, -0.8122, -0.5833, 383.5281, 326.8414)"> </text><text class="cls-9" transform="matrix(-0.6003, 0.7998, -0.7998, -0.6003, 381.0877, 330.2418)"> </text><text class="cls-9" transform="translate(378.5779 333.5875) rotate(128.0986)"> </text><text class="cls-9" transform="translate(375.9881 336.8932) rotate(129.3075)"> </text><text class="cls-9" transform="translate(373.3318 340.1422) rotate(130.5158)"> </text><text class="cls-9" transform="matrix(-0.6655, 0.7464, -0.7464, -0.6655, 370.6063, 343.3336)"> </text><text class="cls-9" transform="translate(367.8143 346.4645) rotate(132.9296)"> </text><text class="cls-9" transform="matrix(-0.6964, 0.7177, -0.7177, -0.6964, 364.9578, 349.5377)"> </text><text class="cls-9" transform="matrix(-0.7113, 0.7029, -0.7029, -0.7113, 362.0399, 352.5494)"> </text><text class="cls-9" transform="matrix(-0.7259, 0.6878, -0.6878, -0.7259, 359.0545, 355.4996)"> </text><text class="cls-9" transform="translate(356.0125 358.3844) rotate(137.7538)"> </text><text class="cls-9" transform="matrix(-0.7543, 0.6566, -0.6566, -0.7543, 352.9061, 361.2076)"> </text><text class="cls-9" transform="matrix(-0.7679, 0.6405, -0.6405, -0.7679, 349.742, 363.9635)"> </text><text class="cls-9" transform="matrix(-0.7813, 0.6242, -0.6242, -0.7813, 346.5184, 366.6559)"> </text><text class="cls-9" transform="translate(343.2381 369.2779) rotate(142.5875)"> </text><text class="cls-9" transform="translate(339.9324 371.8102) rotate(143.7876)"> </text><text class="cls-9" transform="translate(336.5389 374.2945) rotate(145.001)"> </text><text class="cls-9" transform="matrix(-0.8311, 0.5561, -0.5561, -0.8311, 333.0936, 376.7106)"> </text><text class="cls-9" transform="translate(329.6248 379.0328) rotate(147.422)"> </text><text class="cls-9" transform="matrix(-0.8539, 0.5204, -0.5204, -0.8539, 326.074, 381.3043)"> </text><text class="cls-9" transform="matrix(-0.8647, 0.5022, -0.5022, -0.8647, 322.5037, 383.4811)"> </text><text class="cls-9" transform="translate(318.8856 385.5846) rotate(151.0643)"> </text><text class="cls-9" transform="matrix(-0.8852, 0.4651, -0.4651, -0.8852, 315.2176, 387.6139)"> </text><text class="cls-9" transform="translate(311.5037 389.568) rotate(153.4989)"> </text><text class="cls-9" transform="translate(307.743 391.444) rotate(154.7206)"> </text><text class="cls-9" transform="translate(303.9539 393.235) rotate(155.9397)"> </text><text class="cls-9" transform="translate(300.1229 394.9469) rotate(157.1612)"> </text><text class="cls-9" transform="matrix(-0.9297, 0.3684, -0.3684, -0.9297, 296.2654, 396.5738)"> </text><text class="cls-9" transform="translate(292.366 398.1207) rotate(159.6034)"> </text><text class="cls-9" transform="translate(288.4276 399.5865) rotate(160.829)"> </text><text class="cls-9" transform="translate(284.4861 400.9586) rotate(162.0462)"> </text><text class="cls-9" transform="translate(280.4881 402.2555) rotate(163.2718)"> </text><text class="cls-9" transform="matrix(-0.9636, 0.2674, -0.2674, -0.9636, 276.4891, 403.4596)"> </text><text class="cls-9" transform="translate(272.4383 404.5856) rotate(165.7162)"> </text><text class="cls-9" transform="matrix(-0.9741, 0.2261, -0.2261, -0.9741, 268.3885, 405.6178)"> </text><text class="cls-9" transform="translate(264.2879 406.5719) rotate(168.1607)"> </text><text class="cls-9" transform="translate(260.1912 407.4322) rotate(169.3778)"> </text><text class="cls-9" transform="matrix(-0.9866, 0.1634, -0.1634, -0.9866, 256.0643, 408.2076)"> </text><text class="cls-9" transform="translate(251.9256 408.8942) rotate(171.8137)"> </text><text class="cls-9" transform="translate(247.7772 409.4928) rotate(173.0266)"> </text><text class="cls-9" transform="matrix(-0.9949, 0.1004, -0.1004, -0.9949, 243.6219, 410.0026)"> </text><text class="cls-9" transform="translate(239.4383 410.4254) rotate(175.4447)"> </text><text class="cls-9" transform="matrix(-0.9983, 0.0585, -0.0585, -0.9983, 235.2713, 410.7604)"> </text><text class="cls-9" transform="matrix(-0.9993, 0.0376, -0.0376, -0.9993, 231.076, 411.0074)"> </text><text class="cls-9" transform="translate(226.8787 411.1666) rotate(179.0418)"> </text><text class="cls-9" transform="translate(222.7693 411.2652) rotate(-179.0712)"> </text><text class="cls-9" transform="translate(218.4876 411.2223) rotate(-178.577)"> </text><text class="cls-9" transform="translate(214.2952 411.1197) rotate(-177.3816)"> </text><text class="cls-9" transform="translate(210.1063 410.9313) rotate(-176.181)"> </text><text class="cls-9" transform="translate(205.9007 410.651) rotate(-174.9701)"> </text><text class="cls-9" transform="matrix(-0.9941, -0.1086, 0.1086, -0.9941, 201.7386, 410.2867)"> </text><text class="cls-9" transform="translate(197.5628 409.8317) rotate(-172.5526)"> </text><text class="cls-9" transform="matrix(-0.9886, -0.1506, 0.1506, -0.9886, 193.4139, 409.2916)"> </text><text class="cls-9" transform="translate(189.2532 408.6588) rotate(-170.1196)"> </text><text class="cls-9" transform="translate(185.14 407.944) rotate(-168.9068)"> </text><text class="cls-9" transform="matrix(-0.977, -0.2133, 0.2133, -0.977, 181.0189, 407.1373)"> </text><text class="cls-9" transform="translate(176.9285 406.2467) rotate(-166.4646)"> </text><text class="cls-9" transform="translate(172.8318 405.2623) rotate(-165.2371)"> </text><text class="cls-9" transform="translate(168.7884 404.1969) rotate(-164.0172)"> </text><text class="cls-9" transform="translate(164.7596 403.0455) rotate(-162.7943)"> </text><text class="cls-9" transform="matrix(-0.9487, -0.3161, 0.3161, -0.9487, 160.7474, 401.8043)"> </text><text class="cls-9" transform="matrix(-0.9418, -0.3362, 0.3362, -0.9418, 156.7908, 400.4889)"> </text><text class="cls-9" transform="translate(152.8353 399.0777) rotate(-159.1288)"> </text><text class="cls-9" transform="translate(148.9183 397.5865) rotate(-157.9073)"> </text><text class="cls-9" transform="translate(145.0252 396.0065) rotate(-156.684)"> </text><text class="cls-9" transform="matrix(-0.9097, -0.4153, 0.4153, -0.9097, 141.1717, 394.3483)"> </text><text class="cls-9" transform="translate(137.3616 392.61) rotate(-154.2458)"> </text><text class="cls-9" transform="translate(133.5945 390.7965) rotate(-153.0309)"> </text><text class="cls-9" transform="translate(129.8558 388.8951) rotate(-151.8135)"> </text><text class="cls-9" transform="matrix(-0.8712, -0.491, 0.491, -0.8712, 126.1458, 386.9078)"> </text><text class="cls-9" transform="matrix(-0.8605, -0.5094, 0.5094, -0.8605, 122.4837, 384.8443)"> </text><text class="cls-9" transform="translate(118.8856 382.7184) rotate(-148.166)"> </text><text class="cls-9" transform="matrix(-0.8382, -0.5453, 0.5453, -0.8382, 115.3211, 380.5065)"> </text><text class="cls-9" transform="matrix(-0.8265, -0.5629, 0.5629, -0.8265, 111.8069, 378.2223)"> </text><text class="cls-9" transform="translate(108.3294 375.8561) rotate(-144.528)"> </text><text class="cls-9" transform="matrix(-0.802, -0.5973, 0.5973, -0.802, 104.9197, 373.4274)"> </text><text class="cls-9" transform="translate(101.5643 370.9303) rotate(-142.1158)"> </text><text class="cls-9" transform="matrix(-0.7761, -0.6306, 0.6306, -0.7761, 98.2484, 368.3531)"> </text><text class="cls-9" transform="translate(94.9896 365.7067) rotate(-139.6982)"> </text><text class="cls-9" transform="matrix(-0.7488, -0.6627, 0.6627, -0.7488, 91.7884, 362.9938)"> </text><text class="cls-9" transform="translate(88.6453 360.2135) rotate(-137.2842)"> </text><text class="cls-9" transform="matrix(-0.7203, -0.6937, 0.6937, -0.7203, 85.5618, 357.3697)"> </text><text class="cls-9" transform="matrix(-0.7055, -0.7087, 0.7087, -0.7055, 82.5399, 354.4615)"> </text><text class="cls-9" transform="matrix(-0.6905, -0.7234, 0.7234, -0.6905, 79.5794, 351.4899)"> </text><text class="cls-9" transform="translate(76.6819 348.4567) rotate(-132.4597)"> </text><text class="cls-9" transform="matrix(-0.6594, -0.7518, 0.7518, -0.6594, 73.848, 345.3629)"> </text><text class="cls-9" transform="translate(71.0799 342.2076) rotate(-130.0452)"> </text><text class="cls-9" transform="translate(68.3777 338.9947) rotate(-128.8364)"> </text><text class="cls-9" transform="matrix(-0.6105, -0.792, 0.792, -0.6105, 65.7425, 335.7242)"> </text><text class="cls-9" transform="matrix(-0.5937, -0.8047, 0.8047, -0.5937, 63.1868, 332.4117)"> </text><text class="cls-9" transform="translate(60.7005 329.0445) rotate(-125.2138)"> </text><text class="cls-9" transform="translate(58.2728 325.608) rotate(-123.9995)"> </text><text class="cls-9" transform="matrix(-0.5416, -0.8406, 0.8406, -0.5416, 55.9378, 322.149)"> </text><text class="cls-9" transform="translate(53.6546 318.607) rotate(-121.5746)"> </text><text class="cls-9" transform="translate(51.4642 315.0455) rotate(-120.3648)"> </text><text class="cls-9" transform="translate(49.3445 311.5387) rotate(-118.3497)">2</text><text class="cls-9" transform="translate(44.7191 303.0104) rotate(-115.3885)">0</text><text class="cls-9" transform="translate(40.1038 293.4537) rotate(-111.7681)">%</text><text class="cls-9" transform="translate(34.8724 280.0436) rotate(-109.0831)"> </text><text class="cls-9" transform="matrix(-0.3068, -0.9518, 0.9518, -0.3068, 33.5052, 276.0983)"> </text><text class="cls-9" transform="translate(32.2142 272.0983) rotate(-106.6389)"> </text><text class="cls-9" transform="translate(30.9876 268.193) rotate(-104.5962)">4</text><text class="cls-9" transform="matrix(-0.2093, -0.9779, 0.9779, -0.2093, 28.5247, 258.6539)">1</text><text class="cls-9" transform="translate(26.9686 251.2779) rotate(-100.3808)"> </text><text class="cls-9" transform="translate(26.202 247.1949) rotate(-98.8282)">-</text><text class="cls-9" transform="matrix(-0.1267, -0.9919, 0.9919, -0.1267, 25.2108, 240.7233)"> </text><text class="cls-9" transform="translate(24.6434 236.652) rotate(-95.3466)">5</text><text class="cls-9" transform="translate(23.762 227.5358) rotate(-92.4996)">0</text><text class="cls-9" transform="matrix(-0.0162, -0.9999, 0.9999, -0.0162, 23.369, 216.7037)"> </text><text class="cls-9" transform="matrix(0.0287, -0.9996, 0.9996, 0.0287, 23.262, 212.6783)">h</text><text class="cls-9" transform="translate(23.5818 202.4957) rotate(-85.8867)">r</text><text class="cls-9" transform="translate(24.0828 195.4064) rotate(-83.783)">s</text><text class="cls-9" transform="matrix(0.1376, -0.9905, 0.9905, 0.1376, 24.9261, 187.879)"> </text></g></g></g></svg>