<svg xmlns="http://www.w3.org/2000/svg" xmlns:xlink="http://www.w3.org/1999/xlink" viewBox="0 0 640 453.2871"><defs><style>.cls-1{fill:none;}.cls-16,.cls-2{fill:#fff;}.cls-3{clip-path:url(#clip-path);}.cls-11,.cls-4{fill:#ffa600;}.cls-4,.cls-5,.cls-6,.cls-7,.cls-8{fill-rule:evenodd;}.cls-12,.cls-5{fill:#bc5090;}.cls-13,.cls-6{fill:#003f5c;}.cls-14,.cls-7{fill:#7a5195;}.cls-15,.cls-8{fill:#ff764a;}.cls-9{font-size:30.3532px;}.cls-10,.cls-16,.cls-9{font-family:Georgia;}.cls-10,.cls-16{font-size:20px;}</style><clipPath id="clip-path"><path class="cls-1" d="M271.5407,46.98C168.0483,19.2489,61.6709,80.6659,33.94,184.1584s33.6863,209.87,137.1787,237.6,209.87-33.6863,237.6005-137.1787S375.0332,74.71,271.5407,46.98ZM190.53,349.3144A119,119,0,1,1,336.275,265.1687,119,119,0,0,1,190.53,349.3144Z"/></clipPath></defs><title>2</title><g id="Layer_2" data-name="Layer 2"><g id="Hours_Worked" data-name="Hours Worked"><g id="background"><rect class="cls-2" width="640" height="440"/></g><g id="Chart"><g class="cls-3"><path class="cls-4" d="M221.3329,234.37,62.7872,135.3c2.1886-3.5025,3.0333-4.7787,5.4022-8.1619Z"/><path class="cls-5" d="M221.3329,234.37,68.1894,127.1378a180.7005,180.7005,0,0,1,23.2745-27.251Z"/><path class="cls-6" d="M221.3329,234.37,91.4639,99.8868c74.2731-71.7246,192.6276-69.6588,264.3523,4.6143s69.6588,192.6276-4.6143,264.3522S158.5743,438.5121,86.85,364.2391h0Z"/><path class="cls-7" d="M221.3329,234.37,86.85,364.2391c-57.38-59.4185-69.366-144.7058-30.587-217.6385Z"/><path class="cls-8" d="M221.3329,234.37l-165.07-87.77c1.9389-3.6466,4.3359-7.7984,6.5246-11.3009Z"/></g></g><g id="Headline"><text id="Headline-2" data-name="Headline" class="cls-9" transform="matrix(0.9221, -0.3869, 0.3869, 0.9221, 129.4229, 47.5022)">H</text><text class="cls-9" transform="matrix(0.9544, -0.2987, 0.2987, 0.9544, 151.1863, 38.5229)">o</text><text class="cls-9" transform="matrix(0.9746, -0.224, 0.224, 0.9746, 165.8597, 33.8691)">u</text><text class="cls-9" transform="matrix(0.9876, -0.1571, 0.1571, 0.9876, 182.0415, 30.2081)">r</text><text class="cls-9" transform="matrix(0.995, -0.0996, 0.0996, 0.995, 193.5719, 28.3425)">s</text><text class="cls-9" transform="matrix(0.9986, -0.0537, 0.0537, 0.9986, 206.0534, 27.1467)"> </text><text class="cls-9" transform="matrix(0.9996, 0.0288, -0.0288, 0.9996, 212.3187, 26.3078)">W</text><text class="cls-9" transform="matrix(0.9912, 0.1322, -0.1322, 0.9912, 240.5988, 27.3956)">o</text><text class="cls-9" transform="matrix(0.9804, 0.1968, -0.1968, 0.9804, 255.9849, 29.4844)">r</text><text class="cls-9" transform="matrix(0.9654, 0.2606, -0.2606, 0.9654, 267.3751, 31.6795)">k</text><text class="cls-9" transform="matrix(0.9446, 0.3282, -0.3282, 0.9446, 282.188, 35.674)">e</text><text class="cls-9" transform="matrix(0.918, 0.3966, -0.3966, 0.918, 295.1969, 40.1049)">d</text></g><g id="Legend"><text class="cls-10" transform="translate(488.9558 393.0768)">51-60 hrs</text><text class="cls-10" transform="translate(488.9558 358.0768)">41-50 hrs</text><text class="cls-10" transform="translate(488.9558 324.0768)">31-40 hrs</text><text class="cls-10" transform="translate(487.6838 290.3114)">21-30 hrs</text><text class="cls-10" transform="translate(487.6838 253.3114)">0-20 hrs</text><rect id="Swatch_1" data-name="Swatch 1" class="cls-11" x="450.6131" y="234.0394" width="24.7508" height="24.7508" transform="translate(709.4033 -216.5737) rotate(90)"/><rect id="Swatch_2" data-name="Swatch 2" class="cls-12" x="450.6131" y="270.3455" width="24.7508" height="24.7508" transform="translate(745.7094 -180.2677) rotate(90)"/><rect id="Swatch_3" data-name="Swatch 3" class="cls-13" x="450.6131" y="304.4169" width="24.7508" height="24.7508" transform="translate(779.7808 -146.1962) rotate(90)"/><rect id="Swatch_4" data-name="Swatch 4" class="cls-14" x="450.6131" y="338.4884" width="24.7508" height="24.7508" transform="translate(813.8523 -112.1247) rotate(90)"/><rect id="Swatch_5" data-name="Swatch 5" class="cls-15" x="450" y="374.2096" width="24.7508" height="24.7508" transform="translate(848.9603 -75.7904) rotate(90)"/></g><g id="Inner_Labels" data-name="Inner Labels"><text class="cls-16" transform="translate(161.6809 100.0231) rotate(-21.6853)">7</text><text class="cls-16" transform="translate(171.9412 95.9259) rotate(-17.4213)">5</text><text class="cls-16" transform="matrix(0.9771, -0.2129, 0.2129, 0.9771, 181.929, 92.6373)">%</text><text class="cls-16" transform="translate(197.3738 89.4542) rotate(-8.372)"> </text><text class="cls-16" transform="translate(201.78 88.756) rotate(-5.8893)">s</text><text class="cls-16" transform="translate(209.97 87.9225) rotate(-3.0377)">t</text><text class="cls-16" transform="matrix(0.9999, 0.0162, -0.0162, 0.9999, 216.3025, 87.4479)">a</text><text class="cls-16" transform="translate(225.9236 87.483) rotate(4.0343)">n</text><text class="cls-16" transform="translate(237.075 88.2516) rotate(8.3153)">d</text><text class="cls-16" transform="matrix(0.977, 0.2133, -0.2133, 0.977, 247.8767, 89.8346)">a</text><text class="cls-16" transform="translate(257.2332 91.8912) rotate(15.7103)">r</text><text class="cls-16" transform="translate(264.6296 93.8986) rotate(19.3704)">d</text><text class="cls-16" transform="matrix(0.9245, 0.3811, -0.3811, 0.9245, 275.0173, 97.6315)"> </text><text class="cls-16" transform="matrix(0.9099, 0.4147, -0.4147, 0.9099, 279.2039, 99.3346)">f</text><text class="cls-16" transform="translate(284.7156 101.7521) rotate(27.8392)">u</text><text class="cls-16" transform="translate(294.447 106.9669) rotate(31.0245)">l</text><text class="cls-16" transform="matrix(0.8374, 0.5467, -0.5467, 0.8374, 299.0964, 109.7569)">l</text><text class="cls-16" transform="translate(303.6345 112.7228) rotate(35.0744)"> </text><text class="cls-16" transform="translate(307.3367 115.2911) rotate(37.2307)">t</text><text class="cls-16" transform="translate(312.5574 119.2628) rotate(39.5749)">i</text><text class="cls-16" transform="matrix(0.7207, 0.6933, -0.6933, 0.7207, 316.7683, 122.4269)">m</text><text class="cls-16" transform="matrix(0.6574, 0.7535, -0.7535, 0.6574, 328.8425, 134.2379)">e</text><text class="cls-16" transform="translate(334.8904 141.2423) rotate(51.5487)"> </text><text class="cls-16" transform="matrix(0.5714, 0.8207, -0.8207, 0.5714, 337.7097, 144.5148)">w</text><text class="cls-16" transform="matrix(0.5021, 0.8648, -0.8648, 0.5021, 345.7058, 156.0929)">o</text><text class="cls-16" transform="matrix(0.4483, 0.8939, -0.8939, 0.4483, 350.8367, 164.9772)">r</text><text class="cls-16" transform="translate(354.3308 171.8253) rotate(66.8763)">k</text><text class="cls-16" transform="matrix(0.3431, 0.9393, -0.9393, 0.3431, 358.3162, 181.2989)">l</text><text class="cls-16" transform="matrix(0.2924, 0.9563, -0.9563, 0.2924, 360.2, 186.2208)">o</text><text class="cls-16" transform="translate(363.1941 195.9903) rotate(76.8785)">a</text><text class="cls-16" transform="translate(365.3914 205.2223) rotate(80.8737)">d</text></g><g id="Outside_Labels" data-name="Outside Labels"><text class="cls-10" transform="translate(43.2044 138.9913) rotate(-61.0972)"> </text><text class="cls-10" transform="matrix(0.5037, -0.8639, 0.8639, 0.5037, 45.4886, 134.8507)"> </text><text class="cls-10" transform="matrix(0.5239, -0.8518, 0.8518, 0.5239, 47.8856, 130.7379)"> </text><text class="cls-10" transform="translate(50.367 126.7027) rotate(-57.0611)"> </text><text class="cls-10" transform="translate(52.9388 122.7306) rotate(-55.7211)"> </text><text class="cls-10" transform="matrix(0.5824, -0.8129, 0.8129, 0.5824, 55.6116, 118.8082)"> </text><text class="cls-10" transform="translate(58.3743 114.9518) rotate(-53.0375)"> </text><text class="cls-10" transform="matrix(0.6198, -0.7848, 0.7848, 0.6198, 61.2234, 111.1632)"> </text><text class="cls-10" transform="matrix(0.638, -0.77, 0.77, 0.638, 64.1712, 107.4293)"> </text><text class="cls-10" transform="matrix(0.6559, -0.7549, 0.7549, 0.6559, 67.2049, 103.7672)"> </text><text class="cls-10" transform="translate(70.3089 100.1925) rotate(-47.6793)"> </text><text class="cls-10" transform="translate(73.4954 96.6915) rotate(-46.3447)"> </text><text class="cls-10" transform="translate(76.7884 93.2389) rotate(-45)"> </text><text class="cls-10" transform="matrix(0.7234, -0.6905, 0.6905, 0.7234, 80.1351, 89.8917)"> </text><text class="cls-10" transform="translate(83.5584 86.6222) rotate(-42.3313)"> </text><text class="cls-10" transform="matrix(0.7548, -0.6559, 0.6559, 0.7548, 87.0721, 83.4205)"> </text><text class="cls-10" transform="translate(90.6605 80.3014) rotate(-39.6496)"> </text><text class="cls-10" transform="matrix(0.7846, -0.6199, 0.6199, 0.7846, 94.3084, 77.277)"> </text><text class="cls-10" transform="translate(98.0272 74.337) rotate(-36.9735)"> </text><text class="cls-10" transform="matrix(0.8128, -0.5826, 0.5826, 0.8128, 101.8162, 71.4835)"> </text><text class="cls-10" transform="matrix(0.8262, -0.5634, 0.5634, 0.8262, 105.6741, 68.7174)"> </text><text class="cls-10" transform="translate(109.5989 66.0406) rotate(-32.9443)"> </text><text class="cls-10" transform="translate(113.5892 63.4527) rotate(-31.5965)"> </text><text class="cls-10" transform="matrix(0.8638, -0.5039, 0.5039, 0.8638, 117.6111, 60.9777)"> </text><text class="cls-10" transform="translate(121.7288 58.5753) rotate(-28.9028)"> </text><text class="cls-10" transform="translate(125.8729 56.2862) rotate(-27.5564)"> </text><text class="cls-10" transform="matrix(0.8972, -0.4416, 0.4416, 0.8972, 130.076, 54.0914)"> </text><text class="cls-10" transform="translate(134.3372 51.9928) rotate(-24.8537)"> </text><text class="cls-10" transform="matrix(0.917, -0.3988, 0.3988, 0.917, 138.6365, 50.0006)"> </text><text class="cls-10" transform="translate(142.9901 48.1061) rotate(-22.1472)"> </text><text class="cls-10" transform="matrix(0.9349, -0.355, 0.355, 0.9349, 147.3792, 46.319)"> </text><text class="cls-10" transform="translate(151.8182 44.6319) rotate(-19.4367)"> </text><text class="cls-10" transform="matrix(0.9506, -0.3105, 0.3105, 0.9506, 156.2708, 43.0592)"> </text><text class="cls-10" transform="matrix(0.9577, -0.2877, 0.2877, 0.9577, 160.8074, 41.5773)"> </text><text class="cls-10" transform="translate(165.3358 40.2159) rotate(-15.3706)"> </text><text class="cls-10" transform="translate(169.9075 38.9576) rotate(-14.0158)"> </text><text class="cls-10" transform="translate(174.5042 37.8087) rotate(-12.663)"> </text><text class="cls-10" transform="translate(179.1414 36.7667) rotate(-11.3068)"> </text><text class="cls-10" transform="translate(183.7996 35.8346) rotate(-9.9532)"> </text><text class="cls-10" transform="translate(188.4568 35.0157) rotate(-8.6086)"> </text><text class="cls-10" transform="matrix(0.992, -0.1263, 0.1263, 0.992, 193.1702, 34.3019)"> </text><text class="cls-10" transform="translate(197.8797 33.7013) rotate(-5.9118)"> </text><text class="cls-10" transform="translate(202.5823 33.213) rotate(-4.5777)"> </text><text class="cls-10" transform="translate(207.3172 32.8336) rotate(-3.2415)"> </text><text class="cls-10" transform="translate(212.0428 32.5646) rotate(-1.9159)"> </text><text class="cls-10" transform="matrix(0.9999, -0.0162, 0.0162, 0.9999, 216.8167, 32.4191)"> </text><text class="cls-10" transform="matrix(0.9999, 0.0162, -0.0162, 0.9999, 221.5291, 32.3468)"> </text><text class="cls-10" transform="matrix(0.9994, 0.0358, -0.0358, 0.9994, 226.283, 32.4142)"> </text><text class="cls-10" transform="translate(231.0301 32.5841) rotate(3.3831)"> </text><text class="cls-10" transform="translate(235.7684 32.8634) rotate(4.719)"> </text><text class="cls-10" transform="translate(240.4988 33.2526) rotate(6.0588)"> </text><text class="cls-10" transform="matrix(0.9917, 0.1288, -0.1288, 0.9917, 245.2176, 33.753)"> </text><text class="cls-10" transform="translate(249.9236 34.3624) rotate(8.7495)"> </text><text class="cls-10" transform="translate(254.5955 35.0807) rotate(10.0937)"> </text><text class="cls-10" transform="matrix(0.9801, 0.1986, -0.1986, 0.9801, 259.2899, 35.9156)"> </text><text class="cls-10" transform="translate(263.9285 36.8546) rotate(12.8029)"> </text><text class="cls-10" transform="matrix(0.9696, 0.2446, -0.2446, 0.9696, 268.5652, 37.9069)"> </text><text class="cls-10" transform="matrix(0.9636, 0.2674, -0.2674, 0.9636, 273.1424, 39.0607)"> </text><text class="cls-10" transform="translate(277.7176 40.3292) rotate(16.8666)"> </text><text class="cls-10" transform="translate(282.2654 41.7071) rotate(18.225)"> </text><text class="cls-10" transform="translate(286.7674 43.1886) rotate(19.5803)"> </text><text class="cls-10" transform="translate(291.241 44.7784) rotate(20.937)"> </text><text class="cls-10" transform="matrix(0.9253, 0.3793, -0.3793, 0.9253, 295.6678, 46.4713)"> </text><text class="cls-10" transform="translate(300.077 48.2779) rotate(23.6503)"> </text><text class="cls-10" transform="translate(304.3992 50.17) rotate(24.9959)"> </text><text class="cls-10" transform="translate(308.7039 52.1759) rotate(26.3486)"> </text><text class="cls-10" transform="matrix(0.8854, 0.4648, -0.4648, 0.8854, 312.9529, 54.2794)"> </text><text class="cls-10" transform="translate(317.1785 56.4967) rotate(29.0543)"> </text><text class="cls-10" transform="matrix(0.8625, 0.506, -0.506, 0.8625, 321.3123, 58.7916)"> </text><text class="cls-10" transform="matrix(0.8504, 0.5262, -0.5262, 0.8504, 325.4178, 61.2003)"> </text><text class="cls-10" transform="translate(329.4305 63.6808) rotate(33.0845)"> </text><text class="cls-10" transform="translate(333.4109 66.2731) rotate(34.4298)"> </text><text class="cls-10" transform="matrix(0.8113, 0.5846, -0.5846, 0.8113, 337.327, 68.9562)"> </text><text class="cls-10" transform="translate(341.1756 71.7281) rotate(37.1129)"> </text><text class="cls-10" transform="matrix(0.7831, 0.6218, -0.6218, 0.7831, 344.9559, 74.5875)"> </text><text class="cls-10" transform="matrix(0.7684, 0.64, -0.64, 0.7684, 348.6815, 77.5445)"> </text><text class="cls-10" transform="translate(352.3358 80.587) rotate(41.1355)"> </text><text class="cls-10" transform="translate(355.9022 83.7018) rotate(42.4702)"> </text><text class="cls-10" transform="matrix(0.7217, 0.6922, -0.6922, 0.7217, 359.3953, 86.8971)"> </text><text class="cls-10" transform="matrix(0.7053, 0.7089, -0.7089, 0.7053, 362.8387, 90.1993)"> </text><text class="cls-10" transform="translate(366.1776 93.5543) rotate(46.4833)"> </text><text class="cls-10" transform="matrix(0.6715, 0.741, -0.741, 0.6715, 369.4373, 96.9864)"> </text><text class="cls-10" transform="matrix(0.654, 0.7565, -0.7565, 0.654, 372.6307, 100.5079)"> </text><text class="cls-10" transform="translate(375.741 104.1051) rotate(50.4999)"> </text><text class="cls-10" transform="translate(378.7567 107.7604) rotate(51.8377)"> </text><text class="cls-10" transform="translate(381.6863 111.4874) rotate(53.1768)"> </text><text class="cls-10" transform="matrix(0.5804, 0.8143, -0.8143, 0.5804, 384.5301, 115.2843)"> </text><text class="cls-10" transform="matrix(0.5612, 0.8277, -0.8277, 0.5612, 387.285, 119.15)"> </text><text class="cls-10" transform="translate(389.9539 123.0817) rotate(57.2065)"> </text><text class="cls-10" transform="matrix(0.5218, 0.8531, -0.8531, 0.5218, 392.5193, 127.0631)"> </text><text class="cls-10" transform="translate(394.9949 131.1085) rotate(59.8947)"> </text><text class="cls-10" transform="matrix(0.4811, 0.8767, -0.8767, 0.4811, 397.3777, 135.2154)"> </text><text class="cls-10" transform="matrix(0.4603, 0.8878, -0.8878, 0.4603, 399.6658, 139.3834)"> </text><text class="cls-10" transform="translate(401.8514 143.5934) rotate(63.9458)"> </text><text class="cls-10" transform="translate(403.9285 147.8434) rotate(65.2941)"> </text><text class="cls-10" transform="translate(405.9109 152.1495) rotate(66.646)"> </text><text class="cls-10" transform="matrix(0.3746, 0.9272, -0.9272, 0.3746, 407.7947, 156.5084)"> </text><text class="cls-10" transform="translate(409.577 160.921) rotate(69.3605)"> </text><text class="cls-10" transform="translate(411.2459 165.3483) rotate(70.7126)"> </text><text class="cls-10" transform="matrix(0.3079, 0.9514, -0.9514, 0.3079, 412.8133, 169.8243)"> </text><text class="cls-10" transform="translate(414.2723 174.3292) rotate(73.4223)"> </text><text class="cls-10" transform="translate(415.6287 178.881) rotate(74.7798)"> </text><text class="cls-10" transform="translate(416.8797 183.4762) rotate(76.1406)"> </text><text class="cls-10" transform="translate(418.0154 188.0777) rotate(77.4939)"> </text><text class="cls-10" transform="matrix(0.1935, 0.9811, -0.9811, 0.1935, 419.0418, 192.7003)"> </text><text class="cls-10" transform="translate(419.9627 197.3629) rotate(80.1982)"> </text><text class="cls-10" transform="translate(420.7723 202.0445) rotate(81.5487)"> </text><text class="cls-10" transform="translate(421.4676 206.7223) rotate(82.8909)"> </text><text class="cls-10" transform="translate(422.0565 211.4357) rotate(84.2352)"> </text><text class="cls-10" transform="translate(422.534 216.1417) rotate(85.5699)"> </text><text class="cls-10" transform="matrix(0.054, 0.9985, -0.9985, 0.054, 422.9002, 220.8805)"> </text><text class="cls-10" transform="matrix(0.0309, 0.9995, -0.9995, 0.0309, 423.157, 225.608)"> </text><text class="cls-10" transform="translate(423.285 230.3859) rotate(89.0712)"> </text><text class="cls-10" transform="matrix(-0.0162, 0.9999, -0.9999, -0.0162, 423.3455, 235.0978)"> </text><text class="cls-10" transform="translate(423.2703 239.8478) rotate(92.1991)"> </text><text class="cls-10" transform="translate(423.0897 244.6124) rotate(93.536)"> </text><text class="cls-10" transform="translate(422.7977 249.3282) rotate(94.8656)"> </text><text class="cls-10" transform="matrix(-0.1081, 0.9941, -0.9941, -0.1081, 422.3973, 254.0558)"> </text><text class="cls-10" transform="translate(421.8856 258.7696) rotate(97.549)"> </text><text class="cls-10" transform="translate(421.2596 263.4933) rotate(98.9015)"> </text><text class="cls-10" transform="translate(420.5281 268.1808) rotate(100.2514)"> </text><text class="cls-10" transform="matrix(-0.201, 0.9796, -0.9796, -0.201, 419.6873, 272.8331)"> </text><text class="cls-10" transform="translate(418.7332 277.4845) rotate(102.9537)"> </text><text class="cls-10" transform="translate(417.6727 282.0997) rotate(104.3061)"> </text><text class="cls-10" transform="translate(416.4969 286.7101) rotate(105.666)"> </text><text class="cls-10" transform="translate(415.2176 291.2775) rotate(107.022)"> </text><text class="cls-10" transform="matrix(-0.3152, 0.949, -0.949, -0.3152, 413.8328, 295.8028)"> </text><text class="cls-10" transform="translate(412.3348 300.3185) rotate(109.7348)"> </text><text class="cls-10" transform="translate(410.7322 304.7862) rotate(111.0909)"> </text><text class="cls-10" transform="translate(409.0291 309.2062) rotate(112.4436)"> </text><text class="cls-10" transform="translate(407.2186 313.5929) rotate(113.7981)"> </text><text class="cls-10" transform="translate(405.3084 317.9278) rotate(115.1485)"> </text><text class="cls-10" transform="translate(403.2918 322.2257) rotate(116.5011)"> </text><text class="cls-10" transform="translate(401.1766 326.4689) rotate(117.8496)"> </text><text class="cls-10" transform="translate(398.9568 330.67) rotate(119.2011)"> </text><text class="cls-10" transform="translate(396.6414 334.8146) rotate(120.5484)"> </text><text class="cls-10" transform="translate(394.2332 338.8976) rotate(121.8933)"> </text><text class="cls-10" transform="translate(391.7332 342.9191) rotate(123.2355)"> </text><text class="cls-10" transform="translate(389.1297 346.8917) rotate(124.5798)"> </text><text class="cls-10" transform="matrix(-0.5867, 0.8098, -0.8098, -0.5867, 386.4363, 350.8009)"> </text><text class="cls-10" transform="translate(383.6551 354.6417) rotate(127.2626)"> </text><text class="cls-10" transform="matrix(-0.6239, 0.7815, -0.7815, -0.6239, 380.7859, 358.4152)"> </text><text class="cls-10" transform="matrix(-0.642, 0.7667, -0.7667, -0.642, 377.8299, 362.1173)"> </text><text class="cls-10" transform="translate(374.7674 365.7775) rotate(131.2851)"> </text><text class="cls-10" transform="matrix(-0.6771, 0.7359, -0.7359, -0.6771, 371.6443, 369.3361)"> </text><text class="cls-10" transform="translate(368.4402 372.8214) rotate(133.9538)"> </text><text class="cls-10" transform="translate(365.1414 376.2413) rotate(135.2935)"> </text><text class="cls-10" transform="translate(361.7645 379.5861) rotate(136.6329)"> </text><text class="cls-10" transform="matrix(-0.7428, 0.6696, -0.6696, -0.7428, 358.3231, 382.838)"> </text><text class="cls-10" transform="matrix(-0.7582, 0.652, -0.652, -0.7582, 354.7938, 386.0216)"> </text><text class="cls-10" transform="matrix(-0.7733, 0.6341, -0.6341, -0.7733, 351.1883, 389.1222)"> </text><text class="cls-10" transform="matrix(-0.7879, 0.6158, -0.6158, -0.7879, 347.5242, 392.128)"> </text><text class="cls-10" transform="translate(343.7899 395.048) rotate(143.3269)"> </text><text class="cls-10" transform="matrix(-0.8158, 0.5783, -0.5783, -0.8158, 339.9852, 397.8829)"> </text><text class="cls-10" transform="translate(336.1121 400.628) rotate(146.0112)"> </text><text class="cls-10" transform="matrix(-0.842, 0.5394, -0.5394, -0.842, 332.1727, 403.2862)"> </text><text class="cls-10" transform="translate(328.2 405.8321) rotate(148.6946)"> </text><text class="cls-10" transform="translate(324.1317 408.3077) rotate(150.0466)"> </text><text class="cls-10" transform="translate(320.034 410.67) rotate(151.3906)"> </text><text class="cls-10" transform="translate(315.8592 412.9474) rotate(152.7425)"> </text><text class="cls-10" transform="matrix(-0.8995, 0.4369, -0.4369, -0.8995, 311.6443, 415.1212)"> </text><text class="cls-10" transform="translate(307.3875 417.1886) rotate(155.4416)"> </text><text class="cls-10" transform="translate(303.0574 419.1691) rotate(156.7992)"> </text><text class="cls-10" transform="translate(298.7098 421.0343) rotate(158.1497)"> </text><text class="cls-10" transform="translate(294.3113 422.7999) rotate(159.5036)"> </text><text class="cls-10" transform="matrix(-0.9447, 0.3278, -0.3278, -0.9447, 289.8602, 424.463)"> </text><text class="cls-10" transform="translate(285.3602 426.0255) rotate(162.2236)"> </text><text class="cls-10" transform="matrix(-0.9592, 0.2827, -0.2827, -0.9592, 280.8494, 427.4728)"> </text><text class="cls-10" transform="matrix(-0.9656, 0.2599, -0.2599, -0.9656, 276.2938, 428.8165)"> </text><text class="cls-10" transform="matrix(-0.9715, 0.2371, -0.2371, -0.9715, 271.7303, 430.045)"> </text><text class="cls-10" transform="matrix(-0.9768, 0.2141, -0.2141, -0.9768, 267.1258, 431.17)"> </text><text class="cls-10" transform="matrix(-0.9816, 0.1909, -0.1909, -0.9816, 262.4783, 432.1896)"> </text><text class="cls-10" transform="translate(257.8309 433.0958) rotate(170.3447)"> </text><text class="cls-10" transform="translate(253.1453 433.8937) rotate(171.6954)"> </text><text class="cls-10" transform="translate(248.4627 434.5773) rotate(173.0383)"> </text><text class="cls-10" transform="matrix(-0.9952, 0.0979, -0.0979, -0.9952, 243.7459, 435.1544)"> </text><text class="cls-10" transform="matrix(-0.9972, 0.0747, -0.0747, -0.9972, 239.0359, 435.6183)"> </text><text class="cls-10" transform="matrix(-0.9987, 0.0514, -0.0514, -0.9987, 234.2957, 435.9747)"> </text><text class="cls-10" transform="matrix(-0.9996, 0.0283, -0.0283, -0.9996, 229.5643, 436.2189)"> </text><text class="cls-10" transform="translate(224.7615 436.3273) rotate(179.0712)"> </text><text class="cls-10" transform="translate(220.0726 436.38) rotate(-178.9797)"> </text><text class="cls-10" transform="matrix(-0.9992, -0.0409, 0.0409, -0.9992, 215.3245, 436.297)"> </text><text class="cls-10" transform="translate(210.5638 436.1007) rotate(-176.3169)"> </text><text class="cls-10" transform="translate(205.8304 435.798) rotate(-174.9816)"> </text><text class="cls-10" transform="translate(201.1268 435.3859) rotate(-173.6476)"> </text><text class="cls-10" transform="translate(196.3953 434.8605) rotate(-172.2988)"> </text><text class="cls-10" transform="translate(191.6971 434.2257) rotate(-170.9521)"> </text><text class="cls-10" transform="matrix(-0.9836, -0.1805, 0.1805, -0.9836, 187.0125, 433.4816)"> </text><text class="cls-10" transform="translate(182.3465 432.6251) rotate(-168.2498)"> </text><text class="cls-10" transform="matrix(-0.974, -0.2267, 0.2267, -0.974, 177.6976, 431.6593)"> </text><text class="cls-10" transform="translate(173.0692 430.5821) rotate(-165.538)"> </text><text class="cls-10" transform="translate(168.4818 429.4015) rotate(-164.184)"> </text><text class="cls-10" transform="matrix(-0.9554, -0.2952, 0.2952, -0.9554, 163.9178, 428.1085)"> </text><text class="cls-10" transform="translate(159.3802 426.7071) rotate(-161.4703)"> </text><text class="cls-10" transform="translate(154.888 425.2032) rotate(-160.1164)"> </text><text class="cls-10" transform="translate(150.4246 423.59) rotate(-158.7601)"> </text><text class="cls-10" transform="matrix(-0.9232, -0.3843, 0.3843, -0.9232, 145.993, 421.8683)"> </text><text class="cls-10" transform="translate(141.6297 420.0528) rotate(-156.0543)"> </text><text class="cls-10" transform="matrix(-0.9041, -0.4274, 0.4274, -0.9041, 137.283, 418.1232)"> </text><text class="cls-10" transform="matrix(-0.8937, -0.4486, 0.4486, -0.8937, 132.9915, 416.0958)"> </text><text class="cls-10" transform="translate(128.7552 413.9718) rotate(-151.9983)"> </text><text class="cls-10" transform="translate(124.576 411.7491) rotate(-150.6528)"> </text><text class="cls-10" transform="translate(120.4227 409.4152) rotate(-149.2996)"> </text><text class="cls-10" transform="translate(116.3626 407.0069) rotate(-147.961)"> </text><text class="cls-10" transform="translate(112.3323 404.4845) rotate(-146.6137)"> </text><text class="cls-10" transform="translate(108.366 401.8722) rotate(-145.2691)"> </text><text class="cls-10" transform="translate(104.4651 399.1691) rotate(-143.9276)"> </text><text class="cls-10" transform="matrix(-0.7943, -0.6076, 0.6076, -0.7943, 100.6312, 396.378)"> </text><text class="cls-10" transform="translate(96.866 393.4991) rotate(-141.2486)"> </text><text class="cls-10" transform="translate(93.1707 390.5343) rotate(-139.9119)"> </text><text class="cls-10" transform="translate(89.5325 387.4737) rotate(-138.5711)"> </text><text class="cls-10" transform="translate(85.9686 384.3282) rotate(-137.231)"> </text><text class="cls-10" transform="translate(82.493 381.1153) rotate(-135.8964)"> </text><text class="cls-10" transform="translate(79.0799 377.8077) rotate(-134.5573)"> </text><text class="cls-10" transform="translate(75.7449 374.423) rotate(-133.2172)"> </text><text class="cls-10" transform="translate(72.5027 370.9737) rotate(-131.8829)"> </text><text class="cls-10" transform="matrix(-0.6501, -0.7599, 0.7599, -0.6501, 69.3406, 367.4484)"> </text><text class="cls-10" transform="matrix(-0.632, -0.7749, 0.7749, -0.632, 66.2361, 363.8204)"> </text><text class="cls-10" transform="matrix(-0.6138, -0.7895, 0.7895, -0.6138, 63.2405, 360.1495)"> </text><text class="cls-10" transform="translate(60.3294 356.4064) rotate(-126.5233)"> </text><text class="cls-10" transform="translate(57.5047 352.5948) rotate(-125.1818)"> </text><text class="cls-10" transform="matrix(-0.5568, -0.8306, 0.8306, -0.5568, 54.7684, 348.714)"> </text><text class="cls-10" transform="matrix(-0.5373, -0.8434, 0.8434, -0.5373, 52.1317, 344.7823)"> </text><text class="cls-10" transform="matrix(-0.5173, -0.8558, 0.8558, -0.5173, 49.5853, 340.7872)"> </text><text class="cls-10" transform="translate(47.1204 336.7111) rotate(-119.8022)"> </text><text class="cls-10" transform="translate(44.7689 332.6075) rotate(-118.4582)"> </text><text class="cls-10" transform="translate(42.4715 328.505) rotate(-116.2176)">2</text><text class="cls-10" transform="matrix(-0.3896, -0.921, 0.921, -0.3896, 37.6033, 318.6671)">0</text><text class="cls-10" transform="matrix(-0.3241, -0.946, 0.946, -0.3241, 32.8358, 307.6036)">%</text><text class="cls-10" transform="translate(27.7298 292.2501) rotate(-105.9329)"> </text><text class="cls-10" transform="translate(26.429 287.6974) rotate(-104.5792)"> </text><text class="cls-10" transform="translate(25.2318 283.0987) rotate(-103.2221)"> </text><text class="cls-10" transform="translate(24.0926 278.5421) rotate(-100.9588)">4</text><text class="cls-10" transform="matrix(-0.1423, -0.9898, 0.9898, -0.1423, 22.0076, 267.6193)">1</text><text class="cls-10" transform="translate(20.827 259.2081) rotate(-96.3076)"> </text><text class="cls-10" transform="matrix(-0.0802, -0.9968, 0.9968, -0.0802, 20.2884, 254.5216)">-</text><text class="cls-10" transform="matrix(-0.0506, -0.9987, 0.9987, -0.0506, 19.7147, 247.173)"> </text><text class="cls-10" transform="matrix(-0.0162, -0.9999, 0.9999, -0.0162, 19.4349, 242.4659)">5</text><text class="cls-10" transform="translate(19.2508 232.0865) rotate(-87.6533)">0</text><text class="cls-10" transform="matrix(0.0821, -0.9966, 0.9966, 0.0821, 19.8201, 219.9703)"> </text><text class="cls-10" transform="matrix(0.1218, -0.9926, 0.9926, 0.1218, 20.1351, 215.2887)">h</text><text class="cls-10" transform="translate(21.5711 203.8942) rotate(-80.232)">r</text><text class="cls-10" transform="translate(22.9295 195.9611) rotate(-77.8749)">s</text><text class="cls-10" transform="translate(24.7503 187.6276) rotate(-75.9842)"> </text></g></g></g></svg>