<svg xmlns="http://www.w3.org/2000/svg" xmlns:xlink="http://www.w3.org/1999/xlink" viewBox="0 0 646.0141 480.2021"><defs><style>.cls-1,.cls-16{fill:none;}.cls-17,.cls-2{fill:#fff;}.cls-3{clip-path:url(#clip-path);}.cls-10,.cls-15,.cls-18,.cls-4{fill:#003f5c;}.cls-4,.cls-5,.cls-6,.cls-7{fill-rule:evenodd;}.cls-11,.cls-5{fill:#7a5195;}.cls-12,.cls-6{fill:#ffa600;}.cls-13,.cls-7{fill:#ff764a;}.cls-8{font-size:32.4709px;}.cls-14,.cls-17,.cls-18,.cls-8,.cls-9{font-family:Georgia;}.cls-17,.cls-18,.cls-9{font-size:20px;}.cls-14{font-size:16px;}.cls-15,.cls-16{stroke:#003f5c;stroke-miterlimit:10;}.cls-15{stroke-width:2px;}.cls-16{stroke-linecap:round;stroke-width:4px;}</style><clipPath id="clip-path"><path class="cls-1" d="M280.1466,65.0348c-103.4924-27.7307-209.87,33.6863-237.6,137.1788s33.6863,209.87,137.1787,237.6,209.87-33.6863,237.6005-137.1788S383.639,92.7656,280.1466,65.0348ZM199.1362,367.37a119,119,0,1,1,145.7447-84.1457A119,119,0,0,1,199.1362,367.37Z"/></clipPath></defs><title>4</title><g id="Layer_2" data-name="Layer 2"><g id="Type_of_Role" data-name="Type of Role"><g id="background"><rect class="cls-2" x="6.0141" y="0.2021" width="640" height="480"/></g><g id="Chart"><g class="cls-3"><path class="cls-4" d="M229.9388,252.4253,71.393,153.3549C126.1081,65.7925,241.4468,39.1645,329.0092,93.88S443.2,263.9333,388.4846,351.4957h0Z"/><path class="cls-5" d="M229.9388,252.4253l158.5458,99.07c-37.2063,59.5424-98.2153,91.3017-168.33,87.6271Z"/><path class="cls-6" d="M229.9388,252.4253l-9.7844,186.6975a172.6449,172.6449,0,0,1-44.8756-7.9128Z"/><path class="cls-7" d="M229.9388,252.4253,175.2788,431.21C76.5387,401.0222,20.9662,296.5054,51.154,197.7653a184.9127,184.9127,0,0,1,20.239-44.41Z"/></g></g><g id="Headline"><text id="Headline-2" data-name="Headline" class="cls-8" transform="translate(146.2951 43.7171) rotate(-19.5483)">T</text><text class="cls-8" transform="matrix(0.9654, -0.2609, 0.2609, 0.9654, 164.2579, 37.3805)">y</text><text class="cls-8" transform="matrix(0.982, -0.189, 0.189, 0.982, 178.7117, 33.3872)">p</text><text class="cls-8" transform="matrix(0.9931, -0.1171, 0.1171, 0.9931, 195.9615, 30.0829)">e</text><text class="cls-8" transform="translate(210.8954 28.4049) rotate(-3.8745)"> </text><text class="cls-8" transform="translate(218.04 27.8044) rotate(-1.0186)">o</text><text class="cls-8" transform="translate(234.696 27.6114) rotate(2.5236)">f</text><text class="cls-8" transform="matrix(0.9966, 0.0827, -0.0827, 0.9966, 244.7251, 28.0699)"> </text><text class="cls-8" transform="translate(251.6972 28.3764) rotate(8.4629)">R</text><text class="cls-8" transform="matrix(0.9728, 0.2316, -0.2316, 0.9728, 273.0891, 31.6238)">o</text><text class="cls-8" transform="matrix(0.958, 0.2869, -0.2869, 0.958, 289.3297, 35.5872)">l</text><text class="cls-8" transform="translate(297.5638 37.9435) rotate(19.7338)">e</text></g><g id="Legend"><text class="cls-9" transform="translate(494.5843 373.5261)">work solo</text><text class="cls-9" transform="translate(494.5843 339.5262)">other</text><text class="cls-9" transform="translate(493.3123 305.7607)">lead a team</text><text class="cls-9" transform="translate(493.3123 268.7607)">in a team</text><rect id="Swatch_1" data-name="Swatch 1" class="cls-10" x="456.2416" y="249.4887" width="24.7508" height="24.7508" transform="translate(730.4811 -206.7529) rotate(90)"/><rect id="Swatch_2" data-name="Swatch 2" class="cls-11" x="456.2416" y="285.7948" width="24.7508" height="24.7508" transform="translate(766.7872 -170.4468) rotate(90)"/><rect id="Swatch_3" data-name="Swatch 3" class="cls-12" x="456.2416" y="319.8663" width="24.7508" height="24.7508" transform="translate(800.8586 -136.3753) rotate(90)"/><rect id="Swatch_4" data-name="Swatch 4" class="cls-13" x="456.2416" y="353.9378" width="24.7508" height="24.7508" transform="translate(834.9301 -102.3039) rotate(90)"/></g><g id="Call_Outs" data-name="Call Outs"><text class="cls-14" transform="translate(434.9934 36.0225)">Effectively, 71% of <tspan x="13.5117" y="19.2002">all respondents</tspan><tspan x="17.8008" y="38.4004">work in teams</tspan></text><path class="cls-15" d="M436.5659,70.8718a2.42,2.42,0,0,0-2.9788-3.8143,2.3856,2.3856,0,0,0-.6775,2.877L381.7748,109.869l.7009.8975L433.6105,70.832A2.3855,2.3855,0,0,0,436.5659,70.8718Z"/><path id="Master_Segmented_Path" data-name="Master Segmented Path" class="cls-1" d="M441.9587,243.0341a207.9482,207.9482,0,0,0-4.2057-41.72,205.88,205.88,0,0,0-31.1486-74.022,207.6153,207.6153,0,0,0-91.079-75.0014,205.4391,205.4391,0,0,0-38.8582-12.0623,209.0314,209.0314,0,0,0-83.44,0,205.8795,205.8795,0,0,0-74.0221,31.1486,207.6153,207.6153,0,0,0-75.0014,91.079A205.4329,205.4329,0,0,0,32.1415,201.314a209.027,209.027,0,0,0,0,83.44A205.8769,205.8769,0,0,0,63.29,358.7762a207.6153,207.6153,0,0,0,91.079,75.0014A205.4411,205.4411,0,0,0,193.2272,445.84a209.0265,209.0265,0,0,0,83.44,0,205.8769,205.8769,0,0,0,74.0221-31.1485,207.6153,207.6153,0,0,0,75.0014-91.079,205.4413,205.4413,0,0,0,12.0623-38.8582A207.9472,207.9472,0,0,0,441.9587,243.0341Z"/><path id="Path_1" data-name="Path 1" class="cls-16" d="M188.2157,455.23a209.0318,209.0318,0,0,0,83.44,0,205.8753,205.8753,0,0,0,74.022-31.1486,207.616,207.616,0,0,0,75.0014-91.0789,205.4436,205.4436,0,0,0,12.0623-38.8582,209.0318,209.0318,0,0,0,0-83.44,205.878,205.878,0,0,0-31.1486-74.022,207.617,207.617,0,0,0-91.079-75.0015,205.4474,205.4474,0,0,0-38.8581-12.0622,209.0318,209.0318,0,0,0-83.44,0,205.8748,205.8748,0,0,0-74.0221,31.1486,208.0374,208.0374,0,0,0-30.6371,25.2779"/></g><g id="Inner_Labels" data-name="Inner Labels"><text class="cls-17" transform="matrix(0.9864, 0.1644, -0.1644, 0.9864, 201.5827, 406.7252)"> </text><text class="cls-17" transform="matrix(0.9914, 0.131, -0.131, 0.9914, 206.8092, 407.5885)"> </text><text class="cls-17" transform="translate(212.0309 408.2702) rotate(5.6068)"> </text><text class="cls-17" transform="translate(217.3048 408.7799) rotate(3.683)"> </text><text class="cls-17" transform="translate(222.5661 409.111) rotate(1.7796)"> </text><text class="cls-17" transform="matrix(0.9997, -0.0237, 0.0237, 0.9997, 228.1007, 409.3512)">1</text><text class="cls-17" transform="matrix(0.9949, -0.1008, 0.1008, 0.9949, 240.1339, 409.0446)">7</text><text class="cls-17" transform="translate(252.7736 407.8278) rotate(-11.2845)">%</text><text class="cls-17" transform="translate(269.4377 404.2653) rotate(-15.4317)"> </text><text class="cls-17" transform="translate(274.2736 402.9332) rotate(-17.4438)">l</text><text class="cls-17" transform="translate(280.1769 401.1207) rotate(-20.4412)">e</text><text class="cls-17" transform="translate(289.8361 397.5045) rotate(-24.3069)">a</text><text class="cls-17" transform="translate(299.6525 393.0719) rotate(-28.5127)">d</text><text class="cls-17" transform="translate(310.1212 387.2663) rotate(-31.6726)"> </text><text class="cls-17" transform="translate(314.5988 384.568) rotate(-34.5372)">a</text><text class="cls-17" transform="matrix(0.7945, -0.6073, 0.6073, 0.7945, 323.1759, 378.5729)"> </text><text class="cls-17" transform="translate(327.2248 375.4987) rotate(-39.617)">t</text><text class="cls-17" transform="translate(332.9279 370.8092) rotate(-42.8005)">e</text><text class="cls-17" transform="matrix(0.6869, -0.7267, 0.7267, 0.6869, 340.4689, 363.8063)">a</text><text class="cls-17" transform="translate(348.1896 355.8278) rotate(-52.0091)">m</text><text class="cls-17" transform="translate(170.319 118.0719) rotate(-21.7515)">5</text><text class="cls-17" transform="translate(180.2013 114.1051) rotate(-17.5657)">0</text><text class="cls-17" transform="translate(190.1774 110.7926) rotate(-12.4391)">%</text><text class="cls-17" transform="translate(205.609 107.5705) rotate(-8.5184)"> </text><text class="cls-17" transform="matrix(0.9963, -0.0855, 0.0855, 0.9963, 209.8605, 106.7599)">w</text><text class="cls-17" transform="translate(223.921 105.6735) rotate(-0.9286)">o</text><text class="cls-17" transform="translate(234.1388 105.588) rotate(3.1851)">r</text><text class="cls-17" transform="translate(241.8293 105.9621) rotate(6.6575)">k</text><text class="cls-17" transform="matrix(0.9862, 0.1656, -0.1656, 0.9862, 252.0558, 107.2194)"> </text><text class="cls-17" transform="translate(256.5226 107.9557) rotate(11.5086)">i</text><text class="cls-17" transform="translate(261.8019 108.9293) rotate(14.7859)">n</text><text class="cls-17" transform="translate(272.7853 111.9137) rotate(17.8873)"> </text><text class="cls-17" transform="matrix(0.9357, 0.3527, -0.3527, 0.9357, 276.9962, 113.1959)">a</text><text class="cls-17" transform="translate(286.0324 116.6588) rotate(23.42)"> </text><text class="cls-17" transform="translate(290.1789 118.4264) rotate(25.5964)">t</text><text class="cls-17" transform="translate(296.0236 121.1725) rotate(28.6638)">e</text><text class="cls-17" transform="translate(304.0714 125.5465) rotate(32.3193)">a</text><text class="cls-17" transform="translate(312.0675 130.3678) rotate(37.4124)">m</text></g><g id="Outside_Labels" data-name="Outside Labels"><text class="cls-18" transform="translate(51.8103 157.0465) rotate(-61.0972)"> </text><text class="cls-18" transform="matrix(0.5037, -0.8639, 0.8639, 0.5037, 54.0944, 152.9059)"> </text><text class="cls-18" transform="matrix(0.5239, -0.8518, 0.8518, 0.5239, 56.4914, 148.7931)"> </text><text class="cls-18" transform="translate(58.9729 144.758) rotate(-57.0611)"> </text><text class="cls-18" transform="translate(61.5446 140.7858) rotate(-55.7211)"> </text><text class="cls-18" transform="matrix(0.5824, -0.8129, 0.8129, 0.5824, 64.2175, 136.8634)"> </text><text class="cls-18" transform="translate(66.9802 133.007) rotate(-53.0375)"> </text><text class="cls-18" transform="matrix(0.6198, -0.7848, 0.7848, 0.6198, 69.8293, 129.2184)"> </text><text class="cls-18" transform="matrix(0.638, -0.77, 0.77, 0.638, 72.7771, 125.4845)"> </text><text class="cls-18" transform="matrix(0.6559, -0.7549, 0.7549, 0.6559, 75.8108, 121.8224)"> </text><text class="cls-18" transform="translate(78.9148 118.2477) rotate(-47.6793)"> </text><text class="cls-18" transform="translate(82.1013 114.7467) rotate(-46.3447)"> </text><text class="cls-18" transform="translate(85.3943 111.2941) rotate(-45)"> </text><text class="cls-18" transform="matrix(0.7234, -0.6905, 0.6905, 0.7234, 88.7409, 107.9469)"> </text><text class="cls-18" transform="translate(92.1643 104.6774) rotate(-42.3313)"> </text><text class="cls-18" transform="matrix(0.7548, -0.6559, 0.6559, 0.7548, 95.6779, 101.4757)"> </text><text class="cls-18" transform="translate(99.2663 98.3566) rotate(-39.6496)"> </text><text class="cls-18" transform="matrix(0.7846, -0.6199, 0.6199, 0.7846, 102.9143, 95.3322)"> </text><text class="cls-18" transform="translate(106.633 92.3922) rotate(-36.9735)"> </text><text class="cls-18" transform="matrix(0.8128, -0.5826, 0.5826, 0.8128, 110.4221, 89.5387)"> </text><text class="cls-18" transform="matrix(0.8262, -0.5634, 0.5634, 0.8262, 114.28, 86.7726)"> </text><text class="cls-18" transform="translate(118.2048 84.0958) rotate(-32.9443)"> </text><text class="cls-18" transform="translate(122.195 81.508) rotate(-31.5965)"> </text><text class="cls-18" transform="matrix(0.8638, -0.5039, 0.5039, 0.8638, 126.217, 79.0329)"> </text><text class="cls-18" transform="translate(130.3347 76.6305) rotate(-28.9028)"> </text><text class="cls-18" transform="translate(134.4787 74.3414) rotate(-27.5564)"> </text><text class="cls-18" transform="matrix(0.8972, -0.4416, 0.4416, 0.8972, 138.6819, 72.1466)"> </text><text class="cls-18" transform="translate(142.9431 70.048) rotate(-24.8537)"> </text><text class="cls-18" transform="matrix(0.917, -0.3988, 0.3988, 0.917, 147.2424, 68.0558)"> </text><text class="cls-18" transform="translate(151.5959 66.1613) rotate(-22.1472)"> </text><text class="cls-18" transform="matrix(0.9349, -0.355, 0.355, 0.9349, 155.9851, 64.3742)"> </text><text class="cls-18" transform="translate(160.424 62.6872) rotate(-19.4367)"> </text><text class="cls-18" transform="matrix(0.9506, -0.3105, 0.3105, 0.9506, 164.8767, 61.1144)"> </text><text class="cls-18" transform="matrix(0.9577, -0.2877, 0.2877, 0.9577, 169.4133, 59.6325)"> </text><text class="cls-18" transform="translate(173.9416 58.2711) rotate(-15.3706)"> </text><text class="cls-18" transform="translate(178.5134 57.0128) rotate(-14.0158)"> </text><text class="cls-18" transform="translate(183.1101 55.8639) rotate(-12.663)"> </text><text class="cls-18" transform="translate(187.7473 54.8219) rotate(-11.3068)"> </text><text class="cls-18" transform="translate(192.4055 53.8898) rotate(-9.9532)"> </text><text class="cls-18" transform="translate(197.0627 53.0709) rotate(-8.6086)"> </text><text class="cls-18" transform="matrix(0.992, -0.1263, 0.1263, 0.992, 201.7761, 52.3571)"> </text><text class="cls-18" transform="translate(206.4856 51.7565) rotate(-5.9118)"> </text><text class="cls-18" transform="translate(211.1882 51.2682) rotate(-4.5777)"> </text><text class="cls-18" transform="translate(215.9231 50.8888) rotate(-3.2415)"> </text><text class="cls-18" transform="translate(220.6486 50.6198) rotate(-1.9159)"> </text><text class="cls-18" transform="matrix(0.9999, -0.0162, 0.0162, 0.9999, 225.4226, 50.4743)"> </text><text class="cls-18" transform="matrix(0.9999, 0.0162, -0.0162, 0.9999, 230.135, 50.402)"> </text><text class="cls-18" transform="matrix(0.9994, 0.0358, -0.0358, 0.9994, 234.8889, 50.4694)"> </text><text class="cls-18" transform="translate(239.636 50.6393) rotate(3.3831)"> </text><text class="cls-18" transform="translate(244.3742 50.9186) rotate(4.719)"> </text><text class="cls-18" transform="translate(249.1047 51.3078) rotate(6.0588)"> </text><text class="cls-18" transform="matrix(0.9917, 0.1288, -0.1288, 0.9917, 253.8235, 51.8082)"> </text><text class="cls-18" transform="translate(258.5295 52.4176) rotate(8.7495)"> </text><text class="cls-18" transform="translate(263.2014 53.1359) rotate(10.0937)"> </text><text class="cls-18" transform="matrix(0.9801, 0.1986, -0.1986, 0.9801, 267.8957, 53.9708)"> </text><text class="cls-18" transform="translate(272.5344 54.9098) rotate(12.8029)"> </text><text class="cls-18" transform="matrix(0.9696, 0.2446, -0.2446, 0.9696, 277.1711, 55.9621)"> </text><text class="cls-18" transform="matrix(0.9636, 0.2674, -0.2674, 0.9636, 281.7483, 57.1159)"> </text><text class="cls-18" transform="translate(286.3235 58.3844) rotate(16.8666)"> </text><text class="cls-18" transform="translate(290.8713 59.7623) rotate(18.225)"> </text><text class="cls-18" transform="translate(295.3733 61.2438) rotate(19.5803)"> </text><text class="cls-18" transform="translate(299.8469 62.8336) rotate(20.937)"> </text><text class="cls-18" transform="matrix(0.9253, 0.3793, -0.3793, 0.9253, 304.2736, 64.5265)"> </text><text class="cls-18" transform="translate(308.6828 66.3331) rotate(23.6503)"> </text><text class="cls-18" transform="translate(313.0051 68.2252) rotate(24.9959)"> </text><text class="cls-18" transform="translate(317.3098 70.2311) rotate(26.3486)"> </text><text class="cls-18" transform="matrix(0.8854, 0.4648, -0.4648, 0.8854, 321.5588, 72.3346)"> </text><text class="cls-18" transform="translate(325.7844 74.5519) rotate(29.0543)"> </text><text class="cls-18" transform="matrix(0.8625, 0.506, -0.506, 0.8625, 329.9182, 76.8468)"> </text><text class="cls-18" transform="matrix(0.8504, 0.5262, -0.5262, 0.8504, 334.0236, 79.2555)"> </text><text class="cls-18" transform="translate(338.0363 81.736) rotate(33.0845)"> </text><text class="cls-18" transform="translate(342.0168 84.3283) rotate(34.4298)"> </text><text class="cls-18" transform="matrix(0.8113, 0.5846, -0.5846, 0.8113, 345.9328, 87.0114)"> </text><text class="cls-18" transform="translate(349.7815 89.7833) rotate(37.1129)"> </text><text class="cls-18" transform="matrix(0.7831, 0.6218, -0.6218, 0.7831, 353.5617, 92.6427)"> </text><text class="cls-18" transform="matrix(0.7684, 0.64, -0.64, 0.7684, 357.2873, 95.5997)"> </text><text class="cls-18" transform="translate(360.9416 98.6422) rotate(41.1355)"> </text><text class="cls-18" transform="translate(364.508 101.757) rotate(42.4702)"> </text><text class="cls-18" transform="matrix(0.7217, 0.6922, -0.6922, 0.7217, 368.0012, 104.9523)"> </text><text class="cls-18" transform="matrix(0.7053, 0.7089, -0.7089, 0.7053, 371.4445, 108.2545)"> </text><text class="cls-18" transform="translate(374.7834 111.6095) rotate(46.4833)"> </text><text class="cls-18" transform="matrix(0.6715, 0.741, -0.741, 0.6715, 378.0432, 115.0416)"> </text><text class="cls-18" transform="matrix(0.654, 0.7565, -0.7565, 0.654, 381.2365, 118.5631)"> </text><text class="cls-18" transform="translate(384.3469 122.1603) rotate(50.4999)"> </text><text class="cls-18" transform="translate(387.3625 125.8156) rotate(51.8377)"> </text><text class="cls-18" transform="translate(390.2922 129.5426) rotate(53.1768)"> </text><text class="cls-18" transform="matrix(0.5804, 0.8143, -0.8143, 0.5804, 393.136, 133.3395)"> </text><text class="cls-18" transform="matrix(0.5612, 0.8277, -0.8277, 0.5612, 395.8908, 137.2052)"> </text><text class="cls-18" transform="translate(398.5598 141.1369) rotate(57.2065)"> </text><text class="cls-18" transform="matrix(0.5218, 0.8531, -0.8531, 0.5218, 401.1252, 145.1183)"> </text><text class="cls-18" transform="translate(403.6008 149.1637) rotate(59.8947)"> </text><text class="cls-18" transform="matrix(0.4811, 0.8767, -0.8767, 0.4811, 405.9836, 153.2706)"> </text><text class="cls-18" transform="matrix(0.4603, 0.8878, -0.8878, 0.4603, 408.2717, 157.4386)"> </text><text class="cls-18" transform="translate(410.4572 161.6486) rotate(63.9458)"> </text><text class="cls-18" transform="translate(412.5344 165.8986) rotate(65.2941)"> </text><text class="cls-18" transform="translate(414.5168 170.2047) rotate(66.646)"> </text><text class="cls-18" transform="matrix(0.3746, 0.9272, -0.9272, 0.3746, 416.4006, 174.5636)"> </text><text class="cls-18" transform="translate(418.1828 178.9762) rotate(69.3605)"> </text><text class="cls-18" transform="translate(419.8518 183.4035) rotate(70.7126)"> </text><text class="cls-18" transform="matrix(0.3079, 0.9514, -0.9514, 0.3079, 421.4192, 187.8795)"> </text><text class="cls-18" transform="translate(422.8781 192.3844) rotate(73.4223)"> </text><text class="cls-18" transform="translate(424.2346 196.9362) rotate(74.7798)"> </text><text class="cls-18" transform="translate(425.4856 201.5314) rotate(76.1406)"> </text><text class="cls-18" transform="translate(426.6213 206.133) rotate(77.4939)"> </text><text class="cls-18" transform="matrix(0.1935, 0.9811, -0.9811, 0.1935, 427.6477, 210.7555)"> </text><text class="cls-18" transform="translate(428.5686 215.4181) rotate(80.1982)"> </text><text class="cls-18" transform="translate(429.3781 220.0997) rotate(81.5487)"> </text><text class="cls-18" transform="translate(430.0735 224.7775) rotate(82.8909)"> </text><text class="cls-18" transform="translate(430.6623 229.4909) rotate(84.2352)"> </text><text class="cls-18" transform="translate(431.1399 234.1969) rotate(85.5699)"> </text><text class="cls-18" transform="matrix(0.054, 0.9985, -0.9985, 0.054, 431.5061, 238.9357)"> </text><text class="cls-18" transform="matrix(0.0309, 0.9995, -0.9995, 0.0309, 431.7629, 243.6632)"> </text><text class="cls-18" transform="translate(431.8908 248.4411) rotate(89.0712)"> </text><text class="cls-18" transform="matrix(-0.0162, 0.9999, -0.9999, -0.0162, 431.9514, 253.153)"> </text><text class="cls-18" transform="translate(431.8762 257.903) rotate(92.1991)"> </text><text class="cls-18" transform="translate(431.6955 262.6676) rotate(93.536)"> </text><text class="cls-18" transform="translate(431.4035 267.3834) rotate(94.8656)"> </text><text class="cls-18" transform="matrix(-0.1081, 0.9941, -0.9941, -0.1081, 431.0031, 272.111)"> </text><text class="cls-18" transform="translate(430.4914 276.8248) rotate(97.549)"> </text><text class="cls-18" transform="translate(429.8654 281.5485) rotate(98.9015)"> </text><text class="cls-18" transform="translate(429.134 286.236) rotate(100.2514)"> </text><text class="cls-18" transform="matrix(-0.201, 0.9796, -0.9796, -0.201, 428.2932, 290.8883)"> </text><text class="cls-18" transform="translate(427.3391 295.5397) rotate(102.9537)"> </text><text class="cls-18" transform="translate(426.2785 300.1549) rotate(104.3061)"> </text><text class="cls-18" transform="translate(425.1028 304.7653) rotate(105.666)"> </text><text class="cls-18" transform="translate(423.8235 309.3327) rotate(107.022)"> </text><text class="cls-18" transform="matrix(-0.3152, 0.949, -0.949, -0.3152, 422.4387, 313.858)"> </text><text class="cls-18" transform="translate(420.9406 318.3737) rotate(109.7348)"> </text><text class="cls-18" transform="translate(419.3381 322.8414) rotate(111.0909)"> </text><text class="cls-18" transform="translate(417.635 327.2614) rotate(112.4436)"> </text><text class="cls-18" transform="translate(415.8244 331.6481) rotate(113.7981)"> </text><text class="cls-18" transform="translate(413.9143 335.983) rotate(115.1485)"> </text><text class="cls-18" transform="translate(411.8977 340.2809) rotate(116.5011)"> </text><text class="cls-18" transform="translate(409.7824 344.5241) rotate(117.8496)"> </text><text class="cls-18" transform="translate(407.5627 348.7252) rotate(119.2011)"> </text><text class="cls-18" transform="translate(405.2473 352.8698) rotate(120.5484)"> </text><text class="cls-18" transform="translate(402.8391 356.9528) rotate(121.8933)"> </text><text class="cls-18" transform="translate(400.3391 360.9743) rotate(123.2355)"> </text><text class="cls-18" transform="translate(397.7356 364.9469) rotate(124.5798)"> </text><text class="cls-18" transform="matrix(-0.5867, 0.8098, -0.8098, -0.5867, 395.0422, 368.8561)"> </text><text class="cls-18" transform="translate(392.261 372.6969) rotate(127.2626)"> </text><text class="cls-18" transform="matrix(-0.6239, 0.7815, -0.7815, -0.6239, 389.3918, 376.4704)"> </text><text class="cls-18" transform="matrix(-0.642, 0.7667, -0.7667, -0.642, 386.4358, 380.1725)"> </text><text class="cls-18" transform="translate(383.3733 383.8327) rotate(131.2851)"> </text><text class="cls-18" transform="matrix(-0.6771, 0.7359, -0.7359, -0.6771, 380.2502, 387.3913)"> </text><text class="cls-18" transform="translate(377.0461 390.8766) rotate(133.9538)"> </text><text class="cls-18" transform="translate(373.7473 394.2965) rotate(135.2935)"> </text><text class="cls-18" transform="translate(370.3703 397.6413) rotate(136.6329)"> </text><text class="cls-18" transform="matrix(-0.7428, 0.6696, -0.6696, -0.7428, 366.9289, 400.8932)"> </text><text class="cls-18" transform="matrix(-0.7582, 0.652, -0.652, -0.7582, 363.3996, 404.0768)"> </text><text class="cls-18" transform="matrix(-0.7733, 0.6341, -0.6341, -0.7733, 359.7942, 407.1774)"> </text><text class="cls-18" transform="matrix(-0.7879, 0.6158, -0.6158, -0.7879, 356.1301, 410.1832)"> </text><text class="cls-18" transform="translate(352.3957 413.1032) rotate(143.3269)"> </text><text class="cls-18" transform="matrix(-0.8158, 0.5783, -0.5783, -0.8158, 348.591, 415.9381)"> </text><text class="cls-18" transform="translate(344.718 418.6832) rotate(146.0112)"> </text><text class="cls-18" transform="matrix(-0.842, 0.5394, -0.5394, -0.842, 340.7785, 421.3414)"> </text><text class="cls-18" transform="translate(336.8059 423.8873) rotate(148.6946)"> </text><text class="cls-18" transform="translate(332.7375 426.3629) rotate(150.0466)"> </text><text class="cls-18" transform="translate(328.6399 428.7252) rotate(151.3906)"> </text><text class="cls-18" transform="translate(324.4651 431.0026) rotate(152.7425)"> </text><text class="cls-18" transform="matrix(-0.8995, 0.4369, -0.4369, -0.8995, 320.2502, 433.1764)"> </text><text class="cls-18" transform="translate(315.9934 435.2438) rotate(155.4416)"> </text><text class="cls-18" transform="translate(311.6633 437.2243) rotate(156.7992)"> </text><text class="cls-18" transform="translate(307.3156 439.0895) rotate(158.1497)"> </text><text class="cls-18" transform="translate(302.9172 440.8551) rotate(159.5036)"> </text><text class="cls-18" transform="matrix(-0.9447, 0.3278, -0.3278, -0.9447, 298.466, 442.5182)"> </text><text class="cls-18" transform="translate(293.966 444.0807) rotate(162.2236)"> </text><text class="cls-18" transform="matrix(-0.9592, 0.2827, -0.2827, -0.9592, 289.4553, 445.528)"> </text><text class="cls-18" transform="matrix(-0.9656, 0.2599, -0.2599, -0.9656, 284.8996, 446.8717)"> </text><text class="cls-18" transform="matrix(-0.9715, 0.2371, -0.2371, -0.9715, 280.3361, 448.1002)"> </text><text class="cls-18" transform="matrix(-0.9768, 0.2141, -0.2141, -0.9768, 275.7317, 449.2252)"> </text><text class="cls-18" transform="matrix(-0.9816, 0.1909, -0.1909, -0.9816, 271.0842, 450.2448)"> </text><text class="cls-18" transform="translate(266.4367 451.151) rotate(170.3447)"> </text><text class="cls-18" transform="translate(261.7512 451.9489) rotate(171.6954)"> </text><text class="cls-18" transform="translate(257.0686 452.6325) rotate(173.0383)"> </text><text class="cls-18" transform="matrix(-0.9952, 0.0979, -0.0979, -0.9952, 252.3518, 453.2096)"> </text><text class="cls-18" transform="matrix(-0.9972, 0.0747, -0.0747, -0.9972, 247.6418, 453.6735)"> </text><text class="cls-18" transform="matrix(-0.9987, 0.0514, -0.0514, -0.9987, 242.9016, 454.0299)"> </text><text class="cls-18" transform="matrix(-0.9996, 0.0283, -0.0283, -0.9996, 238.1701, 454.2741)"> </text><text class="cls-18" transform="translate(233.3674 454.3825) rotate(179.0712)"> </text><text class="cls-18" transform="translate(228.6784 454.4352) rotate(-178.9797)"> </text><text class="cls-18" transform="matrix(-0.9992, -0.0409, 0.0409, -0.9992, 223.9304, 454.3522)"> </text><text class="cls-18" transform="translate(219.1696 454.1559) rotate(-176.3169)"> </text><text class="cls-18" transform="translate(214.4362 453.8532) rotate(-174.9816)"> </text><text class="cls-18" transform="translate(209.7326 453.4411) rotate(-173.6476)"> </text><text class="cls-18" transform="translate(205.0012 452.9157) rotate(-172.2988)"> </text><text class="cls-18" transform="translate(200.3029 452.2809) rotate(-170.9521)"> </text><text class="cls-18" transform="matrix(-0.9836, -0.1805, 0.1805, -0.9836, 195.6184, 451.5368)"> </text><text class="cls-18" transform="translate(190.9524 450.6803) rotate(-168.2498)"> </text><text class="cls-18" transform="matrix(-0.974, -0.2267, 0.2267, -0.974, 186.3034, 449.7145)"> </text><text class="cls-18" transform="translate(181.675 448.6373) rotate(-165.538)"> </text><text class="cls-18" transform="translate(177.0876 447.4567) rotate(-164.184)"> </text><text class="cls-18" transform="matrix(-0.9554, -0.2952, 0.2952, -0.9554, 172.5236, 446.1637)"> </text><text class="cls-18" transform="translate(167.9861 444.7623) rotate(-161.4703)"> </text><text class="cls-18" transform="translate(163.4939 443.2584) rotate(-160.1164)"> </text><text class="cls-18" transform="translate(159.0305 441.6452) rotate(-158.7601)"> </text><text class="cls-18" transform="matrix(-0.9232, -0.3843, 0.3843, -0.9232, 154.5988, 439.9235)"> </text><text class="cls-18" transform="translate(150.2356 438.108) rotate(-156.0543)"> </text><text class="cls-18" transform="matrix(-0.9041, -0.4274, 0.4274, -0.9041, 145.8889, 436.1784)"> </text><text class="cls-18" transform="matrix(-0.8937, -0.4486, 0.4486, -0.8937, 141.5974, 434.151)"> </text><text class="cls-18" transform="translate(137.3611 432.027) rotate(-151.9983)"> </text><text class="cls-18" transform="translate(133.1819 429.8043) rotate(-150.6528)"> </text><text class="cls-18" transform="translate(129.0285 427.4704) rotate(-149.2996)"> </text><text class="cls-18" transform="translate(124.9685 425.0622) rotate(-147.961)"> </text><text class="cls-18" transform="translate(120.9382 422.5397) rotate(-146.6137)"> </text><text class="cls-18" transform="translate(116.9719 419.9274) rotate(-145.2691)"> </text><text class="cls-18" transform="translate(113.071 417.2243) rotate(-143.9276)"> </text><text class="cls-18" transform="matrix(-0.7943, -0.6076, 0.6076, -0.7943, 109.237, 414.4332)"> </text><text class="cls-18" transform="translate(105.4719 411.5543) rotate(-141.2486)"> </text><text class="cls-18" transform="translate(101.7766 408.5895) rotate(-139.9119)"> </text><text class="cls-18" transform="translate(98.1384 405.5289) rotate(-138.5711)"> </text><text class="cls-18" transform="translate(94.5744 402.3834) rotate(-137.231)"> </text><text class="cls-18" transform="translate(91.0988 399.1705) rotate(-135.8964)"> </text><text class="cls-18" transform="translate(87.6858 395.8629) rotate(-134.5573)"> </text><text class="cls-18" transform="translate(84.3508 392.4782) rotate(-133.2172)"> </text><text class="cls-18" transform="translate(81.1086 389.0289) rotate(-131.8829)"> </text><text class="cls-18" transform="matrix(-0.6501, -0.7599, 0.7599, -0.6501, 77.9465, 385.5036)"> </text><text class="cls-18" transform="matrix(-0.632, -0.7749, 0.7749, -0.632, 74.842, 381.8756)"> </text><text class="cls-18" transform="matrix(-0.6138, -0.7895, 0.7895, -0.6138, 71.8464, 378.2047)"> </text><text class="cls-18" transform="translate(68.9353 374.4616) rotate(-126.5233)"> </text><text class="cls-18" transform="translate(66.1106 370.65) rotate(-125.1818)"> </text><text class="cls-18" transform="matrix(-0.5568, -0.8306, 0.8306, -0.5568, 63.3742, 366.7692)"> </text><text class="cls-18" transform="matrix(-0.5373, -0.8434, 0.8434, -0.5373, 60.7375, 362.8375)"> </text><text class="cls-18" transform="matrix(-0.5173, -0.8558, 0.8558, -0.5173, 58.1911, 358.8424)"> </text><text class="cls-18" transform="translate(55.7263 354.7663) rotate(-119.8022)"> </text><text class="cls-18" transform="translate(53.3391 350.7291) rotate(-117.5673)">2</text><text class="cls-18" transform="translate(48.2458 340.9879) rotate(-114.4161)">9</text><text class="cls-18" transform="translate(43.5837 330.945) rotate(-110.5401)">%</text><text class="cls-18" transform="translate(38.0417 315.737) rotate(-107.5603)"> </text><text class="cls-18" transform="translate(36.5144 311.32) rotate(-104.8079)">w</text><text class="cls-18" transform="translate(32.8557 297.2663) rotate(-101.2283)">o</text><text class="cls-18" transform="matrix(-0.1491, -0.9888, 0.9888, -0.1491, 30.8147, 286.8454)">r</text><text class="cls-18" transform="matrix(-0.1034, -0.9946, 0.9946, -0.1034, 29.5813, 278.8834)">k</text><text class="cls-18" transform="translate(28.5412 268.3678) rotate(-93.7854)"> </text><text class="cls-18" transform="matrix(-0.0336, -0.9994, 0.9994, -0.0336, 28.1975, 263.6608)">s</text><text class="cls-18" transform="translate(27.865 255.1842) rotate(-89.0712)">o</text><text class="cls-18" transform="translate(28.0676 244.5236) rotate(-86.9961)">l</text><text class="cls-18" transform="matrix(0.0922, -0.9957, 0.9957, 0.0922, 28.3078, 238.9318)">o</text></g></g></g></svg>