<svg xmlns="http://www.w3.org/2000/svg" xmlns:xlink="http://www.w3.org/1999/xlink" viewBox="0 0 640 450"><defs><style>.cls-1,.cls-15{fill:none;}.cls-16,.cls-2{fill:#fff;}.cls-3{clip-path:url(#clip-path);}.cls-14,.cls-17,.cls-18,.cls-4,.cls-9{fill:#003f5c;}.cls-4,.cls-5,.cls-6,.cls-7{fill-rule:evenodd;}.cls-10,.cls-5{fill:#7a5195;}.cls-11,.cls-6{fill:#ffa600;}.cls-12,.cls-7{fill:#ff764a;}.cls-16,.cls-18,.cls-8{font-size:18px;}.cls-13,.cls-16,.cls-17,.cls-18,.cls-8{font-family:Georgia;}.cls-13{font-size:16px;}.cls-14,.cls-15{stroke:#003f5c;stroke-miterlimit:10;}.cls-14{stroke-width:2px;}.cls-15{stroke-linecap:round;stroke-width:4px;}.cls-17{font-size:20px;}</style><clipPath id="clip-path"><path class="cls-1" d="M273.905,34.9538C170.4126,7.2231,64.0352,68.64,36.3045,172.1325s33.6863,209.87,137.1787,237.6005,209.87-33.6863,237.6005-137.1787S377.3974,62.6845,273.905,34.9538Zm-81.01,302.3348a119,119,0,1,1,145.7447-84.1457A119,119,0,0,1,192.8946,337.2886Z"/></clipPath></defs><g id="Layer_2" data-name="Layer 2"><g id="Type_of_Role" data-name="Type of Role"><g id="background"><rect class="cls-2" width="640" height="450"/></g><g id="Chart"><g class="cls-3"><path class="cls-4" d="M223.6972,222.3442l-158.5458-99.07c54.7151-87.5624,170.0538-114.19,257.6162-59.4753s114.19,170.0537,59.4754,257.6161h0Z"/><path class="cls-5" d="M223.6972,222.3442l158.5458,99.07c-37.2063,59.5425-98.2153,91.3017-168.33,87.6272Z"/><path class="cls-6" d="M223.6972,222.3442l-9.7844,186.6976a172.6533,172.6533,0,0,1-44.8756-7.9128Z"/><path class="cls-7" d="M223.6972,222.3442l-54.66,178.7848C70.2971,370.9411,14.7246,266.4243,44.9124,167.6842a184.9127,184.9127,0,0,1,20.239-44.41Z"/></g></g><g id="Legend"><text class="cls-8" transform="translate(488.3427 343.4451)">Work solo</text><text class="cls-8" transform="translate(488.3427 309.4451)">Other</text><text class="cls-8" transform="translate(487.0707 275.6797)">Lead a team</text><text class="cls-8" transform="translate(487.0707 238.6797)">Work in a team</text><rect id="Swatch_1" data-name="Swatch 1" class="cls-9" x="450" y="219.4077" width="24.7508" height="24.7508" transform="translate(694.1585 -230.5923) rotate(90)"/><rect id="Swatch_2" data-name="Swatch 2" class="cls-10" x="450" y="255.7137" width="24.7508" height="24.7508" transform="translate(730.4645 -194.2863) rotate(90)"/><rect id="Swatch_3" data-name="Swatch 3" class="cls-11" x="450" y="289.7852" width="24.7508" height="24.7508" transform="translate(764.536 -160.2148) rotate(90)"/><rect id="Swatch_4" data-name="Swatch 4" class="cls-12" x="450" y="323.8567" width="24.7508" height="24.7508" transform="translate(798.6075 -126.1433) rotate(90)"/></g><g id="Call_Outs" data-name="Call Outs"><text class="cls-13" transform="translate(439.2456 28.2953)">Effectively, 71% of <tspan x="13.5117" y="18">all respondents</tspan><tspan x="17.8008" y="36">work in teams</tspan></text><path class="cls-14" d="M430.3243,40.7908a2.42,2.42,0,0,0-2.9788-3.8143,2.3854,2.3854,0,0,0-.6775,2.877L375.5332,79.788l.7009.8975,51.1348-39.9346A2.3855,2.3855,0,0,0,430.3243,40.7908Z"/><path id="Path_1" data-name="Path 1" class="cls-15" d="M181.9741,425.1492a209.0314,209.0314,0,0,0,83.44,0,205.8795,205.8795,0,0,0,74.0221-31.1486,207.6153,207.6153,0,0,0,75.0014-91.079A205.4391,205.4391,0,0,0,426.5,264.0634a209.0314,209.0314,0,0,0,0-83.44,205.8795,205.8795,0,0,0-31.1486-74.0221A207.6153,207.6153,0,0,0,304.2723,31.6a205.4391,205.4391,0,0,0-38.8582-12.0623,209.0314,209.0314,0,0,0-83.44,0A205.8795,205.8795,0,0,0,107.952,50.6862a208.0317,208.0317,0,0,0-30.6371,25.278"/></g><g id="Inner_Labels" data-name="Inner Labels"><text class="cls-16" transform="translate(195.3074 376.6354) rotate(9.5655)"> </text><text class="cls-16" transform="translate(199.9822 377.4166) rotate(7.8303)"> </text><text class="cls-16" transform="translate(204.6414 378.0514) rotate(6.1156)"> </text><text class="cls-16" transform="matrix(0.9971, 0.0767, -0.0767, 0.9971, 209.3435, 378.5495)"> </text><text class="cls-16" transform="matrix(0.9989, 0.0471, -0.0471, 0.9989, 214.0227, 378.903)"> </text><text class="cls-16" transform="translate(218.7395 379.1198) rotate(0.9982)"> </text><text class="cls-16" transform="matrix(0.9999, -0.0162, 0.0162, 0.9999, 223.4753, 379.2047)"> </text><text class="cls-16" transform="translate(228.3611 379.195) rotate(-3.5024)">1</text><text class="cls-16" transform="translate(239.073 378.526) rotate(-7.4697)">7</text><text class="cls-16" transform="translate(250.3201 377.1061) rotate(-12.3933)">%</text><text class="cls-16" transform="translate(265.2107 373.6432) rotate(-16.1107)"> </text><text class="cls-16" transform="translate(269.7712 372.402) rotate(-19.0498)">L</text><text class="cls-16" transform="translate(280.5984 368.6032) rotate(-22.8717)">e</text><text class="cls-16" transform="translate(289.0701 365.0202) rotate(-26.3156)">a</text><text class="cls-16" transform="translate(297.7292 360.7389) rotate(-30.0832)">d</text><text class="cls-16" transform="matrix(0.8397, -0.543, 0.543, 0.8397, 306.9304, 355.3151)"> </text><text class="cls-16" transform="matrix(0.8146, -0.58, 0.58, 0.8146, 310.8669, 352.8219)">a</text><text class="cls-16" transform="translate(318.4695 347.3375) rotate(-38.0022)"> </text><text class="cls-16" transform="translate(322.0525 344.5534) rotate(-39.9915)">t</text><text class="cls-16" transform="matrix(0.7333, -0.6799, 0.6799, 0.7333, 327.1082, 340.3414)">e</text><text class="cls-16" transform="translate(333.8445 334.0836) rotate(-46.2381)">a</text><text class="cls-16" transform="matrix(0.6284, -0.7779, 0.7779, 0.6284, 340.7781, 327.0006)">m</text><text class="cls-16" transform="translate(164.1135 87.9972) rotate(-21.9601)">5</text><text class="cls-16" transform="matrix(0.95, -0.3121, 0.3121, 0.95, 173.012, 84.3903)">0</text><text class="cls-16" transform="matrix(0.9722, -0.2342, 0.2342, 0.9722, 182.0193, 81.3082)">%</text><text class="cls-16" transform="translate(195.8684 78.1203) rotate(-10.004)"> </text><text class="cls-16" transform="translate(199.5374 77.216) rotate(-5.9567)">W</text><text class="cls-16" transform="translate(216.3518 75.6061) rotate(-0.9525)">o</text><text class="cls-16" transform="translate(225.6003 75.4713) rotate(2.1426)">r</text><text class="cls-16" transform="matrix(0.9958, 0.0918, -0.0918, 0.9958, 232.5515, 75.6886)">k</text><text class="cls-16" transform="matrix(0.9906, 0.1364, -0.1364, 0.9906, 241.7712, 76.589)"> </text><text class="cls-16" transform="translate(245.8484 77.1398) rotate(9.6331)">i</text><text class="cls-16" transform="translate(250.6443 77.8722) rotate(12.5847)">n</text><text class="cls-16" transform="translate(260.6306 80.171) rotate(15.3762)"> </text><text class="cls-16" transform="translate(264.4958 81.173) rotate(17.8759)">a</text><text class="cls-16" transform="translate(272.78 83.8903) rotate(20.3746)"> </text><text class="cls-16" transform="translate(276.6082 85.2907) rotate(22.3447)">t</text><text class="cls-16" transform="translate(282.0046 87.466) rotate(25.1158)">e</text><text class="cls-16" transform="matrix(0.8794, 0.476, -0.476, 0.8794, 289.4988, 90.9596)">a</text><text class="cls-16" transform="matrix(0.8384, 0.5451, -0.5451, 0.8384, 296.9783, 94.8229)">m</text></g><g id="Outside_Labels" data-name="Outside Labels"><text class="cls-17" transform="translate(45.5687 126.9655) rotate(-61.0972)"> </text><text class="cls-17" transform="matrix(0.5037, -0.8639, 0.8639, 0.5037, 47.8528, 122.8248)"> </text><text class="cls-17" transform="matrix(0.5239, -0.8518, 0.8518, 0.5239, 50.2498, 118.7121)"> </text><text class="cls-17" transform="translate(52.7313 114.6769) rotate(-57.0611)"> </text><text class="cls-17" transform="translate(55.303 110.7047) rotate(-55.7211)"> </text><text class="cls-17" transform="matrix(0.5824, -0.8129, 0.8129, 0.5824, 57.9759, 106.7824)"> </text><text class="cls-17" transform="translate(60.7386 102.9259) rotate(-53.0375)"> </text><text class="cls-17" transform="matrix(0.6198, -0.7848, 0.7848, 0.6198, 63.5877, 99.1373)"> </text><text class="cls-17" transform="matrix(0.638, -0.77, 0.77, 0.638, 66.5355, 95.4035)"> </text><text class="cls-17" transform="matrix(0.6559, -0.7549, 0.7549, 0.6559, 69.5692, 91.7413)"> </text><text class="cls-17" transform="translate(72.6732 88.1666) rotate(-47.6793)"> </text><text class="cls-17" transform="translate(75.8597 84.6657) rotate(-46.3447)"> </text><text class="cls-17" transform="translate(79.1526 81.213) rotate(-45)"> </text><text class="cls-17" transform="matrix(0.7234, -0.6905, 0.6905, 0.7234, 82.4993, 77.8659)"> </text><text class="cls-17" transform="translate(85.9227 74.5963) rotate(-42.3313)"> </text><text class="cls-17" transform="matrix(0.7548, -0.6559, 0.6559, 0.7548, 89.4363, 71.3947)"> </text><text class="cls-17" transform="translate(93.0247 68.2755) rotate(-39.6496)"> </text><text class="cls-17" transform="matrix(0.7846, -0.6199, 0.6199, 0.7846, 96.6727, 65.2511)"> </text><text class="cls-17" transform="translate(100.3914 62.3112) rotate(-36.9735)"> </text><text class="cls-17" transform="matrix(0.8128, -0.5826, 0.5826, 0.8128, 104.1805, 59.4577)"> </text><text class="cls-17" transform="matrix(0.8262, -0.5634, 0.5634, 0.8262, 108.0384, 56.6915)"> </text><text class="cls-17" transform="translate(111.9632 54.0148) rotate(-32.9443)"> </text><text class="cls-17" transform="translate(115.9534 51.4269) rotate(-31.5965)"> </text><text class="cls-17" transform="matrix(0.8638, -0.5039, 0.5039, 0.8638, 119.9754, 48.9518)"> </text><text class="cls-17" transform="translate(124.0931 46.5495) rotate(-28.9028)"> </text><text class="cls-17" transform="translate(128.2371 44.2604) rotate(-27.5564)"> </text><text class="cls-17" transform="matrix(0.8972, -0.4416, 0.4416, 0.8972, 132.4402, 42.0656)"> </text><text class="cls-17" transform="translate(136.7015 39.9669) rotate(-24.8537)"> </text><text class="cls-17" transform="matrix(0.917, -0.3988, 0.3988, 0.917, 141.0008, 37.9747)"> </text><text class="cls-17" transform="translate(145.3543 36.0802) rotate(-22.1472)"> </text><text class="cls-17" transform="matrix(0.9349, -0.355, 0.355, 0.9349, 149.7435, 34.2931)"> </text><text class="cls-17" transform="translate(154.1824 32.6061) rotate(-19.4367)"> </text><text class="cls-17" transform="matrix(0.9506, -0.3105, 0.3105, 0.9506, 158.6351, 31.0333)"> </text><text class="cls-17" transform="matrix(0.9577, -0.2877, 0.2877, 0.9577, 163.1717, 29.5514)"> </text><text class="cls-17" transform="translate(167.7 28.1901) rotate(-15.3706)"> </text><text class="cls-17" transform="translate(172.2718 26.9318) rotate(-14.0158)"> </text><text class="cls-17" transform="translate(176.8685 25.7829) rotate(-12.663)"> </text><text class="cls-17" transform="translate(181.5057 24.7409) rotate(-11.3068)"> </text><text class="cls-17" transform="translate(186.1639 23.8087) rotate(-9.9532)"> </text><text class="cls-17" transform="translate(190.8211 22.9899) rotate(-8.6086)"> </text><text class="cls-17" transform="matrix(0.992, -0.1263, 0.1263, 0.992, 195.5345, 22.276)"> </text><text class="cls-17" transform="translate(200.244 21.6754) rotate(-5.9118)"> </text><text class="cls-17" transform="translate(204.9466 21.1872) rotate(-4.5777)"> </text><text class="cls-17" transform="translate(209.6815 20.8078) rotate(-3.2415)"> </text><text class="cls-17" transform="translate(214.407 20.5387) rotate(-1.9159)"> </text><text class="cls-17" transform="matrix(0.9999, -0.0162, 0.0162, 0.9999, 219.181, 20.3932)"> </text><text class="cls-17" transform="matrix(0.9999, 0.0162, -0.0162, 0.9999, 223.8934, 20.3209)"> </text><text class="cls-17" transform="matrix(0.9994, 0.0358, -0.0358, 0.9994, 228.6473, 20.3883)"> </text><text class="cls-17" transform="translate(233.3943 20.5582) rotate(3.3831)"> </text><text class="cls-17" transform="translate(238.1326 20.8375) rotate(4.719)"> </text><text class="cls-17" transform="translate(242.8631 21.2267) rotate(6.0588)"> </text><text class="cls-17" transform="matrix(0.9917, 0.1288, -0.1288, 0.9917, 247.5818, 21.7272)"> </text><text class="cls-17" transform="translate(252.2879 22.3366) rotate(8.7495)"> </text><text class="cls-17" transform="translate(256.9598 23.0548) rotate(10.0937)"> </text><text class="cls-17" transform="matrix(0.9801, 0.1986, -0.1986, 0.9801, 261.6541, 23.8898)"> </text><text class="cls-17" transform="translate(266.2928 24.8288) rotate(12.8029)"> </text><text class="cls-17" transform="matrix(0.9696, 0.2446, -0.2446, 0.9696, 270.9295, 25.881)"> </text><text class="cls-17" transform="matrix(0.9636, 0.2674, -0.2674, 0.9636, 275.5067, 27.0348)"> </text><text class="cls-17" transform="translate(280.0818 28.3034) rotate(16.8666)"> </text><text class="cls-17" transform="translate(284.6297 29.6813) rotate(18.225)"> </text><text class="cls-17" transform="translate(289.1317 31.1627) rotate(19.5803)"> </text><text class="cls-17" transform="translate(293.6053 32.7526) rotate(20.937)"> </text><text class="cls-17" transform="matrix(0.9253, 0.3793, -0.3793, 0.9253, 298.032, 34.4455)"> </text><text class="cls-17" transform="translate(302.4412 36.2521) rotate(23.6503)"> </text><text class="cls-17" transform="translate(306.7635 38.1442) rotate(24.9959)"> </text><text class="cls-17" transform="translate(311.0682 40.15) rotate(26.3486)"> </text><text class="cls-17" transform="matrix(0.8854, 0.4648, -0.4648, 0.8854, 315.3172, 42.2536)"> </text><text class="cls-17" transform="translate(319.5428 44.4708) rotate(29.0543)"> </text><text class="cls-17" transform="matrix(0.8625, 0.506, -0.506, 0.8625, 323.6766, 46.7658)"> </text><text class="cls-17" transform="matrix(0.8504, 0.5262, -0.5262, 0.8504, 327.782, 49.1745)"> </text><text class="cls-17" transform="translate(331.7947 51.6549) rotate(33.0845)"> </text><text class="cls-17" transform="translate(335.7752 54.2472) rotate(34.4298)"> </text><text class="cls-17" transform="matrix(0.8113, 0.5846, -0.5846, 0.8113, 339.6912, 56.9303)"> </text><text class="cls-17" transform="translate(343.5399 59.7023) rotate(37.1129)"> </text><text class="cls-17" transform="matrix(0.7831, 0.6218, -0.6218, 0.7831, 347.3201, 62.5617)"> </text><text class="cls-17" transform="matrix(0.7684, 0.64, -0.64, 0.7684, 351.0457, 65.5187)"> </text><text class="cls-17" transform="translate(354.7 68.5612) rotate(41.1355)"> </text><text class="cls-17" transform="translate(358.2664 71.6759) rotate(42.4702)"> </text><text class="cls-17" transform="matrix(0.7217, 0.6922, -0.6922, 0.7217, 361.7596, 74.8712)"> </text><text class="cls-17" transform="matrix(0.7053, 0.7089, -0.7089, 0.7053, 365.2029, 78.1735)"> </text><text class="cls-17" transform="translate(368.5418 81.5285) rotate(46.4833)"> </text><text class="cls-17" transform="matrix(0.6715, 0.741, -0.741, 0.6715, 371.8016, 84.9606)"> </text><text class="cls-17" transform="matrix(0.654, 0.7565, -0.7565, 0.654, 374.9949, 88.4821)"> </text><text class="cls-17" transform="translate(378.1053 92.0792) rotate(50.4999)"> </text><text class="cls-17" transform="translate(381.1209 95.7345) rotate(51.8377)"> </text><text class="cls-17" transform="translate(384.0506 99.4616) rotate(53.1768)"> </text><text class="cls-17" transform="matrix(0.5804, 0.8143, -0.8143, 0.5804, 386.8943, 103.2584)"> </text><text class="cls-17" transform="matrix(0.5612, 0.8277, -0.8277, 0.5612, 389.6492, 107.1242)"> </text><text class="cls-17" transform="translate(392.3182 111.0558) rotate(57.2065)"> </text><text class="cls-17" transform="matrix(0.5218, 0.8531, -0.8531, 0.5218, 394.8836, 115.0372)"> </text><text class="cls-17" transform="translate(397.3592 119.0827) rotate(59.8947)"> </text><text class="cls-17" transform="matrix(0.4811, 0.8767, -0.8767, 0.4811, 399.742, 123.1896)"> </text><text class="cls-17" transform="matrix(0.4603, 0.8878, -0.8878, 0.4603, 402.0301, 127.3576)"> </text><text class="cls-17" transform="translate(404.2156 131.5675) rotate(63.9458)"> </text><text class="cls-17" transform="translate(406.2928 135.8175) rotate(65.2941)"> </text><text class="cls-17" transform="translate(408.2752 140.1237) rotate(66.646)"> </text><text class="cls-17" transform="matrix(0.3746, 0.9272, -0.9272, 0.3746, 410.159, 144.4826)"> </text><text class="cls-17" transform="translate(411.9412 148.8952) rotate(69.3605)"> </text><text class="cls-17" transform="translate(413.6102 153.3224) rotate(70.7126)"> </text><text class="cls-17" transform="matrix(0.3079, 0.9514, -0.9514, 0.3079, 415.1776, 157.7985)"> </text><text class="cls-17" transform="translate(416.6365 162.3034) rotate(73.4223)"> </text><text class="cls-17" transform="translate(417.993 166.8551) rotate(74.7798)"> </text><text class="cls-17" transform="translate(419.244 171.4503) rotate(76.1406)"> </text><text class="cls-17" transform="translate(420.3797 176.0519) rotate(77.4939)"> </text><text class="cls-17" transform="matrix(0.1935, 0.9811, -0.9811, 0.1935, 421.4061, 180.6745)"> </text><text class="cls-17" transform="translate(422.327 185.3371) rotate(80.1982)"> </text><text class="cls-17" transform="translate(423.1365 190.0187) rotate(81.5487)"> </text><text class="cls-17" transform="translate(423.8318 194.6964) rotate(82.8909)"> </text><text class="cls-17" transform="translate(424.4207 199.4098) rotate(84.2352)"> </text><text class="cls-17" transform="translate(424.8983 204.1159) rotate(85.5699)"> </text><text class="cls-17" transform="matrix(0.054, 0.9985, -0.9985, 0.054, 425.2645, 208.8546)"> </text><text class="cls-17" transform="matrix(0.0309, 0.9995, -0.9995, 0.0309, 425.5213, 213.5822)"> </text><text class="cls-17" transform="translate(425.6492 218.36) rotate(89.0712)"> </text><text class="cls-17" transform="matrix(-0.0162, 0.9999, -0.9999, -0.0162, 425.7098, 223.0719)"> </text><text class="cls-17" transform="translate(425.6346 227.8219) rotate(92.1991)"> </text><text class="cls-17" transform="translate(425.4539 232.5866) rotate(93.536)"> </text><text class="cls-17" transform="translate(425.1619 237.3024) rotate(94.8656)"> </text><text class="cls-17" transform="matrix(-0.1081, 0.9941, -0.9941, -0.1081, 424.7615, 242.0299)"> </text><text class="cls-17" transform="translate(424.2498 246.7438) rotate(97.549)"> </text><text class="cls-17" transform="translate(423.6238 251.4674) rotate(98.9015)"> </text><text class="cls-17" transform="translate(422.8924 256.1549) rotate(100.2514)"> </text><text class="cls-17" transform="matrix(-0.201, 0.9796, -0.9796, -0.201, 422.0516, 260.8073)"> </text><text class="cls-17" transform="translate(421.0975 265.4586) rotate(102.9537)"> </text><text class="cls-17" transform="translate(420.0369 270.0739) rotate(104.3061)"> </text><text class="cls-17" transform="translate(418.8611 274.6842) rotate(105.666)"> </text><text class="cls-17" transform="translate(417.5818 279.2516) rotate(107.022)"> </text><text class="cls-17" transform="matrix(-0.3152, 0.949, -0.949, -0.3152, 416.1971, 283.777)"> </text><text class="cls-17" transform="translate(414.699 288.2926) rotate(109.7348)"> </text><text class="cls-17" transform="translate(413.0965 292.7604) rotate(111.0909)"> </text><text class="cls-17" transform="translate(411.3934 297.1803) rotate(112.4436)"> </text><text class="cls-17" transform="translate(409.5828 301.567) rotate(113.7981)"> </text><text class="cls-17" transform="translate(407.6727 305.902) rotate(115.1485)"> </text><text class="cls-17" transform="translate(405.6561 310.1998) rotate(116.5011)"> </text><text class="cls-17" transform="translate(403.5408 314.443) rotate(117.8496)"> </text><text class="cls-17" transform="translate(401.3211 318.6442) rotate(119.2011)"> </text><text class="cls-17" transform="translate(399.0057 322.7887) rotate(120.5484)"> </text><text class="cls-17" transform="translate(396.5975 326.8717) rotate(121.8933)"> </text><text class="cls-17" transform="translate(394.0975 330.8932) rotate(123.2355)"> </text><text class="cls-17" transform="translate(391.494 334.8659) rotate(124.5798)"> </text><text class="cls-17" transform="matrix(-0.5867, 0.8098, -0.8098, -0.5867, 388.8006, 338.775)"> </text><text class="cls-17" transform="translate(386.0193 342.6159) rotate(127.2626)"> </text><text class="cls-17" transform="matrix(-0.6239, 0.7815, -0.7815, -0.6239, 383.1502, 346.3893)"> </text><text class="cls-17" transform="matrix(-0.642, 0.7667, -0.7667, -0.642, 380.1942, 350.0914)"> </text><text class="cls-17" transform="translate(377.1317 353.7516) rotate(131.2851)"> </text><text class="cls-17" transform="matrix(-0.6771, 0.7359, -0.7359, -0.6771, 374.0086, 357.3102)"> </text><text class="cls-17" transform="translate(370.8045 360.7955) rotate(133.9538)"> </text><text class="cls-17" transform="translate(367.5057 364.2155) rotate(135.2935)"> </text><text class="cls-17" transform="translate(364.1287 367.5602) rotate(136.6329)"> </text><text class="cls-17" transform="matrix(-0.7428, 0.6696, -0.6696, -0.7428, 360.6873, 370.8122)"> </text><text class="cls-17" transform="matrix(-0.7582, 0.652, -0.652, -0.7582, 357.158, 373.9957)"> </text><text class="cls-17" transform="matrix(-0.7733, 0.6341, -0.6341, -0.7733, 353.5526, 377.0963)"> </text><text class="cls-17" transform="matrix(-0.7879, 0.6158, -0.6158, -0.7879, 349.8885, 380.1022)"> </text><text class="cls-17" transform="translate(346.1541 383.0221) rotate(143.3269)"> </text><text class="cls-17" transform="matrix(-0.8158, 0.5783, -0.5783, -0.8158, 342.3494, 385.8571)"> </text><text class="cls-17" transform="translate(338.4764 388.6022) rotate(146.0112)"> </text><text class="cls-17" transform="matrix(-0.842, 0.5394, -0.5394, -0.842, 334.5369, 391.2604)"> </text><text class="cls-17" transform="translate(330.5643 393.8063) rotate(148.6946)"> </text><text class="cls-17" transform="translate(326.4959 396.2819) rotate(150.0466)"> </text><text class="cls-17" transform="translate(322.3983 398.6442) rotate(151.3906)"> </text><text class="cls-17" transform="translate(318.2234 400.9215) rotate(152.7425)"> </text><text class="cls-17" transform="matrix(-0.8995, 0.4369, -0.4369, -0.8995, 314.0086, 403.0954)"> </text><text class="cls-17" transform="translate(309.7518 405.1627) rotate(155.4416)"> </text><text class="cls-17" transform="translate(305.4217 407.1432) rotate(156.7992)"> </text><text class="cls-17" transform="translate(301.074 409.0084) rotate(158.1497)"> </text><text class="cls-17" transform="translate(296.6756 410.7741) rotate(159.5036)"> </text><text class="cls-17" transform="matrix(-0.9447, 0.3278, -0.3278, -0.9447, 292.2244, 412.4372)"> </text><text class="cls-17" transform="translate(287.7244 413.9997) rotate(162.2236)"> </text><text class="cls-17" transform="matrix(-0.9592, 0.2827, -0.2827, -0.9592, 283.2137, 415.4469)"> </text><text class="cls-17" transform="matrix(-0.9656, 0.2599, -0.2599, -0.9656, 278.658, 416.7907)"> </text><text class="cls-17" transform="matrix(-0.9715, 0.2371, -0.2371, -0.9715, 274.0945, 418.0192)"> </text><text class="cls-17" transform="matrix(-0.9768, 0.2141, -0.2141, -0.9768, 269.4901, 419.1442)"> </text><text class="cls-17" transform="matrix(-0.9816, 0.1909, -0.1909, -0.9816, 264.8426, 420.1637)"> </text><text class="cls-17" transform="translate(260.1951 421.07) rotate(170.3447)"> </text><text class="cls-17" transform="translate(255.5096 421.8678) rotate(171.6954)"> </text><text class="cls-17" transform="translate(250.827 422.5514) rotate(173.0383)"> </text><text class="cls-17" transform="matrix(-0.9952, 0.0979, -0.0979, -0.9952, 246.1102, 423.1286)"> </text><text class="cls-17" transform="matrix(-0.9972, 0.0747, -0.0747, -0.9972, 241.4002, 423.5924)"> </text><text class="cls-17" transform="matrix(-0.9987, 0.0514, -0.0514, -0.9987, 236.66, 423.9489)"> </text><text class="cls-17" transform="matrix(-0.9996, 0.0283, -0.0283, -0.9996, 231.9285, 424.193)"> </text><text class="cls-17" transform="translate(227.1258 424.3014) rotate(179.0712)"> </text><text class="cls-17" transform="translate(222.4368 424.3541) rotate(-178.9797)"> </text><text class="cls-17" transform="matrix(-0.9992, -0.0409, 0.0409, -0.9992, 217.6888, 424.2711)"> </text><text class="cls-17" transform="translate(212.928 424.0748) rotate(-176.3169)"> </text><text class="cls-17" transform="translate(208.1946 423.7721) rotate(-174.9816)"> </text><text class="cls-17" transform="translate(203.491 423.36) rotate(-173.6476)"> </text><text class="cls-17" transform="translate(198.7596 422.8346) rotate(-172.2988)"> </text><text class="cls-17" transform="translate(194.0613 422.1998) rotate(-170.9521)"> </text><text class="cls-17" transform="matrix(-0.9836, -0.1805, 0.1805, -0.9836, 189.3768, 421.4557)"> </text><text class="cls-17" transform="translate(184.7108 420.5993) rotate(-168.2498)"> </text><text class="cls-17" transform="matrix(-0.974, -0.2267, 0.2267, -0.974, 180.0618, 419.6334)"> </text><text class="cls-17" transform="translate(175.4334 418.5563) rotate(-165.538)"> </text><text class="cls-17" transform="translate(170.846 417.3756) rotate(-164.184)"> </text><text class="cls-17" transform="matrix(-0.9554, -0.2952, 0.2952, -0.9554, 166.282, 416.0827)"> </text><text class="cls-17" transform="translate(161.7444 414.6813) rotate(-161.4703)"> </text><text class="cls-17" transform="translate(157.2523 413.1774) rotate(-160.1164)"> </text><text class="cls-17" transform="translate(152.7889 411.5641) rotate(-158.7601)"> </text><text class="cls-17" transform="matrix(-0.9232, -0.3843, 0.3843, -0.9232, 148.3572, 409.8424)"> </text><text class="cls-17" transform="translate(143.994 408.027) rotate(-156.0543)"> </text><text class="cls-17" transform="matrix(-0.9041, -0.4274, 0.4274, -0.9041, 139.6473, 406.0973)"> </text><text class="cls-17" transform="matrix(-0.8937, -0.4486, 0.4486, -0.8937, 135.3558, 404.07)"> </text><text class="cls-17" transform="translate(131.1194 401.9459) rotate(-151.9983)"> </text><text class="cls-17" transform="translate(126.9402 399.7233) rotate(-150.6528)"> </text><text class="cls-17" transform="translate(122.7869 397.3893) rotate(-149.2996)"> </text><text class="cls-17" transform="translate(118.7269 394.9811) rotate(-147.961)"> </text><text class="cls-17" transform="translate(114.6966 392.4586) rotate(-146.6137)"> </text><text class="cls-17" transform="translate(110.7303 389.8463) rotate(-145.2691)"> </text><text class="cls-17" transform="translate(106.8294 387.1432) rotate(-143.9276)"> </text><text class="cls-17" transform="matrix(-0.7943, -0.6076, 0.6076, -0.7943, 102.9954, 384.3522)"> </text><text class="cls-17" transform="translate(99.2303 381.4733) rotate(-141.2486)"> </text><text class="cls-17" transform="translate(95.535 378.5084) rotate(-139.9119)"> </text><text class="cls-17" transform="translate(91.8968 375.4479) rotate(-138.5711)"> </text><text class="cls-17" transform="translate(88.3328 372.3024) rotate(-137.231)"> </text><text class="cls-17" transform="translate(84.8572 369.0895) rotate(-135.8964)"> </text><text class="cls-17" transform="translate(81.4442 365.7819) rotate(-134.5573)"> </text><text class="cls-17" transform="translate(78.1092 362.3971) rotate(-133.2172)"> </text><text class="cls-17" transform="translate(74.867 358.9479) rotate(-131.8829)"> </text><text class="cls-17" transform="matrix(-0.6501, -0.7599, 0.7599, -0.6501, 71.7049, 355.4225)"> </text><text class="cls-17" transform="matrix(-0.632, -0.7749, 0.7749, -0.632, 68.6004, 351.7946)"> </text><text class="cls-17" transform="matrix(-0.6138, -0.7895, 0.7895, -0.6138, 65.6048, 348.1237)"> </text><text class="cls-17" transform="translate(62.6937 344.3805) rotate(-126.5233)"> </text><text class="cls-17" transform="translate(59.869 340.569) rotate(-125.1818)"> </text><text class="cls-17" transform="matrix(-0.5568, -0.8306, 0.8306, -0.5568, 57.1326, 336.6881)"> </text><text class="cls-17" transform="matrix(-0.5373, -0.8434, 0.8434, -0.5373, 54.4959, 332.7565)"> </text><text class="cls-17" transform="matrix(-0.5173, -0.8558, 0.8558, -0.5173, 51.9495, 328.7614)"> </text><text class="cls-17" transform="translate(49.4847 324.6852) rotate(-119.8022)"> </text><text class="cls-18" transform="translate(51.535 318.3112) rotate(-117.7246)">2</text><text class="cls-18" transform="translate(47.0403 309.7848) rotate(-114.8921)">9</text><text class="cls-18" transform="translate(42.8904 301.0426) rotate(-111.3994)">%</text><text class="cls-18" transform="translate(37.765 287.6559) rotate(-108.7179)"> </text><text class="cls-18" transform="translate(36.3392 284.0377) rotate(-105.6434)">W</text><text class="cls-18" transform="translate(31.8607 267.6256) rotate(-101.8115)">o</text><text class="cls-18" transform="translate(29.9622 258.4664) rotate(-99.4192)">r</text><text class="cls-18" transform="matrix(-0.1227, -0.9924, 0.9924, -0.1227, 28.7835, 251.5504)">k</text><text class="cls-18" transform="translate(27.6746 242.2428) rotate(-95.0978)"> </text><text class="cls-18" transform="matrix(-0.0597, -0.9982, 0.9982, -0.0597, 27.2825, 238.1754)">s</text><text class="cls-18" transform="translate(26.8123 230.7741) rotate(-91.0206)">o</text><text class="cls-18" transform="matrix(0.0177, -0.9998, 0.9998, 0.0177, 26.68, 221.3576)">l</text><text class="cls-18" transform="translate(26.72 216.4962) rotate(-86.9393)">o</text></g></g></g></svg>