<svg xmlns="http://www.w3.org/2000/svg" xmlns:xlink="http://www.w3.org/1999/xlink" viewBox="0 0 648 480.5934"><defs><style>.cls-1{fill:none;}.cls-16,.cls-2{fill:#fff;}.cls-3{clip-path:url(#clip-path);}.cls-11,.cls-4{fill:#ffa600;}.cls-4,.cls-5,.cls-6,.cls-7,.cls-8{fill-rule:evenodd;}.cls-12,.cls-5{fill:#ef5675;}.cls-13,.cls-6{fill:#003f5c;}.cls-14,.cls-7{fill:#7a5195;}.cls-15,.cls-8{fill:#374c80;}.cls-9{font-size:28px;}.cls-10,.cls-16,.cls-17,.cls-18,.cls-9{font-family:Georgia;}.cls-10,.cls-16{font-size:20px;}.cls-17{font-size:19.5938px;}.cls-18{font-size:12.736px;}</style><clipPath id="clip-path"><path class="cls-1" d="M280.4384,62.437c-103.4924-27.7307-209.87,33.6863-237.6,137.1788s33.6863,209.87,137.1787,237.6,209.87-33.6863,237.6-137.1787S383.9309,90.1678,280.4384,62.437Zm-81.01,302.3348a119,119,0,1,1,145.7446-84.1457A119,119,0,0,1,199.4281,364.7718Z"/></clipPath></defs><title>5</title><g id="Layer_2" data-name="Layer 2"><g id="Length_of_Time_in_Role" data-name="Length of Time in Role"><g id="background"><rect class="cls-2" x="8" width="640" height="450"/></g><g id="Chart"><g class="cls-3"><path class="cls-4" d="M230.2306,249.8275l-158.5457-99.07c19.6974-31.5225,43.1819-52.668,76.5906-68.9625Z"/><path class="cls-5" d="M230.2306,249.8275,148.2755,81.7946c92.802-45.2626,204.7255-6.7243,249.988,86.0778A180.6992,180.6992,0,0,1,410.8141,201.44Z"/><path class="cls-6" d="M230.2306,249.8275,410.8141,201.44c26.7235,99.7335-32.4628,202.2471-132.1963,228.9706-39.8934,10.6894-76.8279,8.7538-115.3854-6.0471Z"/><path class="cls-7" d="M230.2306,249.8275,163.2324,424.3638C89.9731,396.2422,44.6749,331.55,43.3053,253.09Z"/><path class="cls-8" d="M230.2306,249.8275,43.3053,253.09c-.6487-37.165,8.6821-70.8107,28.38-102.3332Z"/></g></g><g id="Headline"><text id="Headline-2" data-name="Headline" class="cls-9" transform="translate(103.2112 68.3199) rotate(-32.7)">L</text><text class="cls-9" transform="translate(116.7378 59.6675) rotate(-28.9866)">e</text><text class="cls-9" transform="translate(127.8267 53.4387) rotate(-25.3033)">n</text><text class="cls-9" transform="matrix(0.9303, -0.3669, 0.3669, 0.9303, 142.0253, 46.7369)">g</text><text class="cls-9" transform="translate(154.6739 41.7938) rotate(-18.586)">t</text><text class="cls-9" transform="translate(163.1244 38.8333) rotate(-15.393)">h</text><text class="cls-9" transform="translate(178.246 34.7761) rotate(-12.5619)"> </text><text class="cls-9" transform="matrix(0.9852, -0.1716, 0.1716, 0.9852, 184.2418, 33.3268)">o</text><text class="cls-9" transform="translate(198.4539 30.9115) rotate(-6.9275)">f</text><text class="cls-9" transform="translate(207.0792 29.8766) rotate(-4.995)"> </text><text class="cls-9" transform="translate(213.1514 29.1952) rotate(-2.0849)">T</text><text class="cls-9" transform="translate(229.7659 28.6937) rotate(0.9706)">i</text><text class="cls-9" transform="translate(237.0879 28.5011) rotate(4.9348)">m</text><text class="cls-9" transform="translate(260.608 30.7154) rotate(9.594)">e</text><text class="cls-9" transform="translate(273.3879 32.9377) rotate(12.0807)"> </text><text class="cls-9" transform="translate(279.5833 34.2449) rotate(13.9151)">i</text><text class="cls-9" transform="translate(286.9287 35.9327) rotate(16.9604)">n</text><text class="cls-9" transform="translate(302.0934 40.6683) rotate(19.8219)"> </text><text class="cls-9" transform="translate(307.8463 42.5265) rotate(23.0677)">R</text><text class="cls-9" transform="matrix(0.8884, 0.459, -0.459, 0.8884, 325.0248, 49.8962)">o</text><text class="cls-9" transform="translate(337.8185 56.5872) rotate(30.1456)">l</text><text class="cls-9" transform="translate(344.2959 60.2593) rotate(32.7796)">e</text><text class="cls-9" transform="matrix(0.8167, 0.5771, -0.5771, 0.8167, 355.1664, 67.3327)"> </text></g><g id="Legend"><text class="cls-10" transform="translate(496.5699 406.7611)">10+ yrs</text><text class="cls-10" transform="translate(496.5702 374.6307)">5 - 10 yrs</text><text class="cls-10" transform="translate(496.5702 340.6308)">2 - 5 yrs</text><text class="cls-10" transform="translate(495.2982 306.8653)">1 - 2 yrs</text><text class="cls-10" transform="translate(495.2982 269.8653)">&lt; 1 yr</text><rect id="Swatch_1" data-name="Swatch 1" class="cls-11" x="458.2275" y="250.5934" width="24.7508" height="24.7508" transform="translate(733.5717 -207.6342) rotate(90)"/><rect id="Swatch_2" data-name="Swatch 2" class="cls-12" x="458.2275" y="286.8994" width="24.7508" height="24.7508" transform="translate(769.8777 -171.3281) rotate(90)"/><rect id="Swatch_3" data-name="Swatch 3" class="cls-13" x="458.2275" y="320.9709" width="24.7508" height="24.7508" transform="translate(803.9492 -137.2566) rotate(90)"/><rect id="Swatch_4" data-name="Swatch 4" class="cls-14" x="458.2275" y="355.0424" width="24.7508" height="24.7508" transform="translate(838.0207 -103.1852) rotate(90)"/><rect id="Swatch_5" data-name="Swatch 5" class="cls-15" x="458.2275" y="389.1139" width="24.7508" height="24.7508" transform="translate(872.0922 -69.1137) rotate(90)"/></g><g id="Inner_Labels" data-name="Inner Labels"><text class="cls-16" transform="translate(73.52 260.7905) rotate(85.1734)"> </text><text class="cls-16" transform="translate(73.9248 266.3931) rotate(81.955)">1</text><text class="cls-16" transform="translate(75.6899 278.5903) rotate(77.4378)">9</text><text class="cls-16" transform="translate(78.375 290.9058) rotate(71.8691)">%</text><text class="cls-16" transform="translate(84.0166 307.3237) rotate(67.6004)"> </text><text class="cls-16" transform="translate(86.0786 312.5083) rotate(64.3709)">5</text><text class="cls-16" transform="translate(91.3848 323.3091) rotate(61.1407)"> </text><text class="cls-16" transform="matrix(0.5199, 0.8542, -0.8542, 0.5199, 93.9873, 328.062)">-</text><text class="cls-16" transform="translate(98.2134 334.9292) rotate(56.2162)"> </text><text class="cls-16" transform="translate(101.2534 339.5952) rotate(53.0157)">1</text><text class="cls-16" transform="translate(108.7065 349.4214) rotate(48.5335)">0</text><text class="cls-16" transform="matrix(0.703, 0.7112, -0.7112, 0.703, 116.7602, 358.3677)"> </text><text class="cls-16" transform="matrix(0.7383, 0.6745, -0.6745, 0.7383, 120.6059, 362.3227)">y</text><text class="cls-16" transform="translate(128.5786 369.561) rotate(38.5363)">e</text><text class="cls-16" transform="translate(136.8921 376.1509) rotate(34.6016)">a</text><text class="cls-16" transform="translate(145.916 382.3071) rotate(30.9595)">r</text><text class="cls-16" transform="translate(153.6577 386.9321) rotate(27.5783)">s</text><text class="cls-16" transform="translate(161.9106 391.1743) rotate(24.8756)"> </text><text class="cls-16" transform="translate(166.7012 393.3872) rotate(22.9374)"> </text><text class="cls-16" transform="translate(171.5767 395.4409) rotate(20.9922)"> </text><text class="cls-16" transform="translate(176.5078 397.3247) rotate(19.0498)"> </text><text class="cls-16" transform="matrix(0.9558, 0.294, -0.294, 0.9558, 181.5185, 399.0474)"> </text><text class="cls-16" transform="translate(186.5747 400.5952) rotate(15.1539)"> </text><text class="cls-16" transform="translate(191.6728 401.9673) rotate(13.2116)"> </text><text class="cls-16" transform="translate(196.8096 403.1655) rotate(11.2736)"> </text><text class="cls-16" transform="translate(202.0102 404.1938) rotate(9.3285)"> </text><text class="cls-16" transform="translate(207.2095 405.0395) rotate(7.4018)"> </text><text class="cls-16" transform="translate(212.4653 405.7143) rotate(5.4709)"> </text><text class="cls-16" transform="translate(217.7124 406.2095) rotate(3.5587)"> </text><text class="cls-16" transform="translate(222.9756 406.5298) rotate(1.6558)"> </text><text class="cls-16" transform="matrix(0.9999, -0.0162, 0.0162, 0.9999, 228.375, 406.7026)"> </text><text class="cls-16" transform="translate(233.4922 406.646) rotate(-2.1205)"> </text><text class="cls-16" transform="matrix(0.9975, -0.0702, 0.0702, 0.9975, 238.7539, 406.4429)"> </text><text class="cls-16" transform="translate(244.0322 406.064) rotate(-5.9455)"> </text><text class="cls-16" transform="translate(249.2637 405.5122) rotate(-7.8649)"> </text><text class="cls-16" transform="matrix(0.9854, -0.1702, 0.1702, 0.9854, 254.5049, 404.7798)"> </text><text class="cls-16" transform="translate(259.7187 403.8706) rotate(-11.7441)"> </text><text class="cls-16" transform="translate(264.8769 402.7925) rotate(-13.681)"> </text><text class="cls-16" transform="translate(270.0283 401.5298) rotate(-15.6325)"> </text><text class="cls-16" transform="translate(275.4307 400.0903) rotate(-18.8729)">3</text><text class="cls-16" transform="matrix(0.9184, -0.3955, 0.3955, 0.9184, 286.8135, 396.1675)">5</text><text class="cls-16" transform="translate(298.1142 391.3774) rotate(-28.7289)">%</text><text class="cls-16" transform="translate(312.959 382.9751) rotate(-32.8582)"> </text><text class="cls-16" transform="translate(317.4346 380.1724) rotate(-35.9547)">2</text><text class="cls-16" transform="matrix(0.7767, -0.6299, 0.6299, 0.7767, 326.8447, 373.2261)"> </text><text class="cls-16" transform="translate(330.831 370.02) rotate(-41.3809)">-</text><text class="cls-16" transform="translate(336.6367 364.8618) rotate(-43.7191)"> </text><text class="cls-16" transform="translate(340.5039 361.2661) rotate(-46.8038)">5</text><text class="cls-16" transform="translate(348.4512 352.6577) rotate(-49.8903)"> </text><text class="cls-16" transform="matrix(0.6061, -0.7954, 0.7954, 0.6061, 351.8428, 348.7124)">y</text><text class="cls-16" transform="matrix(0.5523, -0.8336, 0.8336, 0.5523, 358.167, 340.3745)">e</text><text class="cls-16" transform="translate(363.8398 331.7876) rotate(-60.3059)">a</text><text class="cls-16" transform="translate(369.0723 322.519) rotate(-63.8586)">r</text><text class="cls-16" transform="matrix(0.3885, -0.9215, 0.9215, 0.3885, 372.9023, 314.6948)">s</text><text class="cls-16" transform="matrix(0.5918, -0.8061, 0.8061, 0.5918, 110.3584, 164.959)"> </text><text class="cls-16" transform="matrix(0.6164, -0.7874, 0.7874, 0.6164, 113.0478, 161.2891)"> </text><text class="cls-16" transform="translate(115.8647 157.6841) rotate(-50.1687)"> </text><text class="cls-16" transform="translate(118.7915 154.1699) rotate(-48.3952)"> </text><text class="cls-16" transform="matrix(0.6868, -0.7268, 0.7268, 0.6868, 121.8237, 150.7495)"> </text><text class="cls-16" transform="matrix(0.7088, -0.7054, 0.7054, 0.7088, 124.9404, 147.4443)"> </text><text class="cls-16" transform="translate(128.1777 144.2173) rotate(-43.0895)"> </text><text class="cls-16" transform="translate(131.5132 141.0923) rotate(-41.3167)"> </text><text class="cls-16" transform="translate(134.9453 138.0698) rotate(-39.5426)"> </text><text class="cls-16" transform="matrix(0.7904, -0.6126, 0.6126, 0.7904, 138.4497, 135.1714)"> </text><text class="cls-16" transform="matrix(0.809, -0.5878, 0.5878, 0.809, 142.0659, 132.3633)"> </text><text class="cls-16" transform="translate(145.749 129.6826) rotate(-34.2254)"> </text><text class="cls-16" transform="translate(149.5171 127.1138) rotate(-32.4488)"> </text><text class="cls-16" transform="matrix(0.8601, -0.5101, 0.5101, 0.8601, 153.3682, 124.6611)"> </text><text class="cls-16" transform="translate(157.2993 122.3257) rotate(-28.8809)"> </text><text class="cls-16" transform="matrix(0.8902, -0.4555, 0.4555, 0.8902, 161.2842, 120.1221)"> </text><text class="cls-16" transform="translate(165.3433 118.041) rotate(-25.3123)"> </text><text class="cls-16" transform="matrix(0.9169, -0.3991, 0.3991, 0.9169, 169.4746, 116.0815)"> </text><text class="cls-16" transform="matrix(0.9289, -0.3702, 0.3702, 0.9289, 173.6509, 114.2602)"> </text><text class="cls-16" transform="translate(177.8935 112.5649) rotate(-19.9334)"> </text><text class="cls-16" transform="translate(182.1738 111.0083) rotate(-18.1422)"> </text><text class="cls-16" transform="translate(186.5156 109.5815) rotate(-16.3445)"> </text><text class="cls-16" transform="translate(190.8892 108.2944) rotate(-14.5512)"> </text><text class="cls-16" transform="translate(195.2925 107.1475) rotate(-12.7631)"> </text><text class="cls-16" transform="translate(199.7476 106.1338) rotate(-10.97)"> </text><text class="cls-16" transform="matrix(0.9872, -0.1596, 0.1596, 0.9872, 204.227, 105.2617)"> </text><text class="cls-16" transform="matrix(0.9917, -0.1288, 0.1288, 0.9917, 208.7256, 104.5298)"> </text><text class="cls-16" transform="translate(213.0781 103.8701) rotate(-4.4418)">2</text><text class="cls-16" transform="translate(223.7588 103.081) rotate(-0.9286)">8</text><text class="cls-16" transform="translate(234.2285 102.8164) rotate(4.6794)">%</text><text class="cls-16" transform="translate(249.9541 104.2808) rotate(8.5858)"> </text><text class="cls-16" transform="translate(254.3115 104.8423) rotate(11.5649)">1</text><text class="cls-16" transform="matrix(0.9679, 0.2512, -0.2512, 0.9679, 264.8965, 107.0825)"> </text><text class="cls-16" transform="translate(269.2353 108.1743) rotate(16.8334)">-</text><text class="cls-16" transform="translate(276.082 110.2671) rotate(19.1272)"> </text><text class="cls-16" transform="translate(280.2559 111.6133) rotate(22.1143)">2</text><text class="cls-16" transform="translate(290.2676 115.7607) rotate(25.1044)"> </text><text class="cls-16" transform="translate(294.2969 117.5723) rotate(27.8175)">y</text><text class="cls-16" transform="translate(302.5478 121.9097) rotate(31.4237)">e</text><text class="cls-16" transform="translate(310.3594 126.6558) rotate(35.0634)">a</text><text class="cls-16" transform="translate(318.1914 132.168) rotate(38.4194)">r</text><text class="cls-16" transform="translate(324.2656 136.9639) rotate(41.5093)">s</text><text class="cls-16" transform="translate(330.457 142.4878) rotate(43.9856)"> </text></g><g id="Outside_Labels" data-name="Outside Labels"><text class="cls-17" transform="translate(55.7197 156.3854) rotate(-61.0975)"> </text><text class="cls-17" transform="matrix(0.5037, -0.8639, 0.8639, 0.5037, 57.958, 152.3292)"> </text><text class="cls-17" transform="translate(60.3076 148.2994) rotate(-58.4035)"> </text><text class="cls-17" transform="translate(62.7266 144.3624) rotate(-57.0662)"> </text><text class="cls-17" transform="translate(65.2568 140.4552) rotate(-55.7211)"> </text><text class="cls-17" transform="matrix(0.5824, -0.8129, 0.8129, 0.5824, 67.876, 136.6124)"> </text><text class="cls-18" transform="translate(70.5449 132.8346) rotate(-52.5445)">&lt;</text><text class="cls-17" transform="translate(75.4414 126.4361) rotate(-50.1903)">1</text><text class="cls-17" transform="translate(80.7793 120.0753) rotate(-48.3306)"> </text><text class="cls-17" transform="matrix(0.6909, -0.723, 0.723, 0.6909, 83.7988, 116.6144)">y</text><text class="cls-17" transform="translate(90.3545 109.7506) rotate(-43.5967)">e</text><text class="cls-17" transform="matrix(0.7563, -0.6542, 0.6542, 0.7563, 97.0957, 103.3189)">a</text><text class="cls-17" transform="translate(104.4619 96.9713) rotate(-38.323)">r</text><text class="cls-17" transform="translate(110.6826 92.0846) rotate(-36.518)"> </text><text class="cls-17" transform="matrix(0.8174, -0.5761, 0.5761, 0.8174, 114.418, 89.318)"> </text><text class="cls-17" transform="matrix(0.8306, -0.5568, 0.5568, 0.8306, 118.2051, 86.6476)"> </text><text class="cls-17" transform="translate(122.0723 84.0543) rotate(-32.492)"> </text><text class="cls-17" transform="translate(126.0019 81.5499) rotate(-31.1434)"> </text><text class="cls-17" transform="translate(129.9648 79.1549) rotate(-29.802)"> </text><text class="cls-17" transform="translate(134 76.8419) rotate(-28.4529)"> </text><text class="cls-17" transform="matrix(0.8902, -0.4555, 0.4555, 0.8902, 138.0967, 74.6212)"> </text><text class="cls-17" transform="translate(142.2353 72.5025) rotate(-25.7491)"> </text><text class="cls-17" transform="matrix(0.9106, -0.4132, 0.4132, 0.9106, 146.3945, 70.4957)"> </text><text class="cls-17" transform="translate(150.6406 68.567) rotate(-23.0473)"> </text><text class="cls-17" transform="translate(154.9062 66.7511) rotate(-21.6965)"> </text><text class="cls-17" transform="translate(159.2226 65.0333) rotate(-20.3418)"> </text><text class="cls-17" transform="translate(163.5889 63.4142) rotate(-18.9833)"> </text><text class="cls-17" transform="matrix(0.953, -0.3029, 0.3029, 0.953, 167.9658, 61.9068)"> </text><text class="cls-17" transform="matrix(0.9599, -0.2802, 0.2802, 0.9599, 172.4082, 60.4937)"> </text><text class="cls-17" transform="translate(176.8594 59.1939) rotate(-14.919)"> </text><text class="cls-17" transform="matrix(0.9721, -0.2345, 0.2345, 0.9721, 181.3525, 57.9957)"> </text><text class="cls-17" transform="translate(185.8691 56.9049) rotate(-12.209)"> </text><text class="cls-17" transform="matrix(0.9821, -0.1884, 0.1884, 0.9821, 190.4062, 55.9225)"> </text><text class="cls-17" transform="translate(194.9639 55.0465) rotate(-9.5094)"> </text><text class="cls-17" transform="translate(199.5576 54.277) rotate(-8.158)"> </text><text class="cls-17" transform="translate(204.1475 53.6178) rotate(-6.8155)"> </text><text class="cls-17" transform="translate(208.7725 53.0641) rotate(-5.4711)"> </text><text class="cls-17" transform="translate(213.3896 52.6207) rotate(-4.1363)"> </text><text class="cls-17" transform="translate(218.0391 52.2843) rotate(-2.7999)"> </text><text class="cls-17" transform="translate(222.6777 52.0562) rotate(-1.4739)"> </text><text class="cls-17" transform="translate(227.3633 51.9674) rotate(-0.9291)"> </text><text class="cls-17" transform="translate(231.9775 51.9225) rotate(1.1679)"> </text><text class="cls-17" transform="translate(236.626 52.0167) rotate(2.494)"> </text><text class="cls-17" transform="translate(241.248 52.2164) rotate(3.8192)"> </text><text class="cls-17" transform="translate(245.8828 52.5255) rotate(5.1542)"> </text><text class="cls-17" transform="translate(250.5264 52.943) rotate(6.4991)"> </text><text class="cls-17" transform="translate(255.1377 53.4679) rotate(7.8421)"> </text><text class="cls-17" transform="matrix(0.9872, 0.1598, -0.1598, 0.9872, 259.7578, 54.1026)"> </text><text class="cls-17" transform="translate(264.3428 54.8438) rotate(10.5433)"> </text><text class="cls-17" transform="translate(268.8916 55.6896) rotate(11.8899)"> </text><text class="cls-17" transform="matrix(0.9734, 0.2291, -0.2291, 0.9734, 273.4414, 56.6466)"> </text><text class="cls-17" transform="translate(277.9531 57.7076) rotate(14.596)"> </text><text class="cls-17" transform="translate(282.4619 58.8805) rotate(15.955)"> </text><text class="cls-17" transform="translate(286.9297 60.1563) rotate(17.3107)"> </text><text class="cls-17" transform="matrix(0.9474, 0.32, -0.32, 0.9474, 291.3535, 61.5338)"> </text><text class="cls-17" transform="translate(295.7666 63.0245) rotate(20.022)"> </text><text class="cls-17" transform="translate(300.1338 64.6148) rotate(21.3775)"> </text><text class="cls-17" transform="translate(304.4541 66.3048) rotate(22.7293)"> </text><text class="cls-17" transform="translate(308.7588 68.107) rotate(24.0883)"> </text><text class="cls-17" transform="translate(312.9766 69.9918) rotate(25.4325)"> </text><text class="cls-17" transform="translate(317.1748 71.9874) rotate(26.784)"> </text><text class="cls-17" transform="matrix(0.8819, 0.4715, -0.4715, 0.8819, 321.3213, 74.0792)"> </text><text class="cls-17" transform="translate(325.4414 76.2813) rotate(29.4884)"> </text><text class="cls-17" transform="translate(329.4736 78.5602) rotate(30.8298)"> </text><text class="cls-17" transform="matrix(0.8464, 0.5326, -0.5326, 0.8464, 333.4766, 80.9483)"> </text><text class="cls-17" transform="translate(337.3867 83.4078) rotate(33.5149)"> </text><text class="cls-17" transform="matrix(0.8206, 0.5716, -0.5716, 0.8206, 341.2666, 85.9762)"> </text><text class="cls-17" transform="matrix(0.8069, 0.5906, -0.5906, 0.8069, 345.082, 88.6324)"> </text><text class="cls-17" transform="translate(348.832 91.3756) rotate(37.5415)"> </text><text class="cls-17" transform="matrix(0.7785, 0.6277, -0.6277, 0.7785, 352.5137, 94.2042)"> </text><text class="cls-17" transform="translate(356.1416 97.1285) rotate(40.2217)"> </text><text class="cls-17" transform="translate(359.6992 100.1354) rotate(41.5624)"> </text><text class="cls-17" transform="matrix(0.7326, 0.6807, -0.6807, 0.7326, 363.1709, 103.212)"> </text><text class="cls-17" transform="matrix(0.7165, 0.6976, -0.6976, 0.7165, 366.5684, 106.3678)"> </text><text class="cls-17" transform="translate(369.9043 109.6144) rotate(45.5711)"> </text><text class="cls-17" transform="translate(373.1641 112.9391) rotate(46.9106)"> </text><text class="cls-17" transform="translate(376.334 116.3248) rotate(48.2451)"> </text><text class="cls-17" transform="matrix(0.6484, 0.7613, -0.7613, 0.6484, 379.4228, 119.7853)"> </text><text class="cls-17" transform="matrix(0.6304, 0.7762, -0.7762, 0.6304, 382.4336, 123.3175)"> </text><text class="cls-17" transform="translate(385.3721 126.9352) rotate(52.2607)"> </text><text class="cls-17" transform="matrix(0.5934, 0.8049, -0.8049, 0.5934, 388.2178, 130.609)"> </text><text class="cls-17" transform="matrix(0.5745, 0.8185, -0.8185, 0.5745, 390.9648, 134.3341)"> </text><text class="cls-17" transform="matrix(0.5551, 0.8318, -0.8318, 0.5551, 393.6377, 138.1417)"> </text><text class="cls-17" transform="translate(396.2236 142.0147) rotate(57.6268)"> </text><text class="cls-17" transform="translate(398.7197 145.9503) rotate(58.9762)"> </text><text class="cls-17" transform="matrix(0.4952, 0.8688, -0.8688, 0.4952, 401.1064, 149.9171)"> </text><text class="cls-17" transform="translate(403.4023 153.943) rotate(61.6617)"> </text><text class="cls-17" transform="translate(405.6162 158.0445) rotate(63.0148)"> </text><text class="cls-17" transform="translate(407.7266 162.1866) rotate(64.3659)"> </text><text class="cls-17" transform="translate(409.7324 166.3673) rotate(65.7152)"> </text><text class="cls-17" transform="translate(411.6533 170.6197) rotate(67.0734)"> </text><text class="cls-17" transform="translate(413.46 174.8893) rotate(68.4246)"> </text><text class="cls-17" transform="translate(415.1699 179.2101) rotate(69.7797)"> </text><text class="cls-17" transform="matrix(0.3233, 0.9463, -0.9463, 0.3233, 416.7803, 183.5802)"> </text><text class="cls-17" transform="translate(418.2773 187.963) rotate(72.4893)"> </text><text class="cls-17" transform="matrix(0.2782, 0.9605, -0.9605, 0.2782, 419.6767, 192.3907)"> </text><text class="cls-17" transform="translate(420.9726 196.8634) rotate(75.2034)"> </text><text class="cls-17" transform="translate(422.1562 201.3419) rotate(76.5543)"> </text><text class="cls-17" transform="matrix(0.2095, 0.9778, -0.9778, 0.2095, 423.2383, 205.8614)"> </text><text class="cls-17" transform="matrix(0.1862, 0.9825, -0.9825, 0.1862, 424.2158, 210.4215)"> </text><text class="cls-17" transform="translate(425.083 214.982) rotate(80.6146)"> </text><text class="cls-17" transform="translate(425.8398 219.5602) rotate(81.9604)"> </text><text class="cls-17" transform="translate(426.4922 224.1734) rotate(83.3088)"> </text><text class="cls-17" transform="translate(427.0312 228.7618) rotate(84.6417)"> </text><text class="cls-17" transform="translate(427.4678 233.4024) rotate(85.9828)"> </text><text class="cls-17" transform="translate(427.7939 238.0343) rotate(87.3131)"> </text><text class="cls-17" transform="translate(428.0127 242.6749) rotate(88.639)"> </text><text class="cls-17" transform="translate(428.0869 247.2838) rotate(89.0714)"> </text><text class="cls-17" transform="matrix(-0.0224, 0.9997, -0.9997, -0.0224, 428.1279, 251.9752)"> </text><text class="cls-17" transform="matrix(-0.0455, 0.999, -0.999, -0.0455, 428.0244, 256.6212)"> </text><text class="cls-17" transform="translate(427.8154 261.2613) rotate(93.9385)"> </text><text class="cls-17" transform="translate(427.4951 265.9132) rotate(95.2787)"> </text><text class="cls-17" transform="translate(427.0703 270.5138) rotate(96.6125)"> </text><text class="cls-17" transform="translate(426.5351 275.1427) rotate(97.9606)"> </text><text class="cls-17" transform="matrix(-0.1617, 0.9868, -0.9868, -0.1617, 425.8935, 279.7403)"> </text><text class="cls-17" transform="translate(425.1435 284.3224) rotate(100.656)"> </text><text class="cls-17" transform="translate(424.2812 288.9063) rotate(102.0127)"> </text><text class="cls-17" transform="matrix(-0.2312, 0.9729, -0.9729, -0.2312, 423.3164, 293.4532)"> </text><text class="cls-17" transform="translate(422.2451 297.961) rotate(104.7187)"> </text><text class="cls-17" transform="translate(421.0625 302.4659) rotate(106.0769)"> </text><text class="cls-17" transform="translate(419.7773 306.9298) rotate(107.4328)"> </text><text class="cls-17" transform="translate(418.3896 311.3478) rotate(108.7839)"> </text><text class="cls-17" transform="translate(416.8916 315.7599) rotate(110.1432)"> </text><text class="cls-17" transform="translate(415.292 320.1222) rotate(111.4986)"> </text><text class="cls-17" transform="translate(413.5937 324.4366) rotate(112.8494)"> </text><text class="cls-17" transform="translate(411.79 328.7198) rotate(114.203)"> </text><text class="cls-17" transform="translate(409.8896 332.9503) rotate(115.5525)"> </text><text class="cls-17" transform="translate(407.8848 337.1456) rotate(116.9041)"> </text><text class="cls-17" transform="translate(405.7842 341.2843) rotate(118.2515)"> </text><text class="cls-17" transform="matrix(-0.494, 0.8695, -0.8695, -0.494, 403.582, 345.3849)"> </text><text class="cls-17" transform="matrix(-0.5143, 0.8576, -0.8576, -0.5143, 401.2881, 349.4269)"> </text><text class="cls-17" transform="translate(398.9004 353.4093) rotate(122.2929)"> </text><text class="cls-17" transform="translate(396.4248 357.3312) rotate(123.6336)"> </text><text class="cls-17" transform="matrix(-0.5733, 0.8194, -0.8194, -0.5733, 393.8476, 361.2042)"> </text><text class="cls-17" transform="matrix(-0.5923, 0.8057, -0.8057, -0.5923, 391.1836, 365.0138)"> </text><text class="cls-17" transform="matrix(-0.611, 0.7917, -0.7917, -0.611, 388.4336, 368.7589)"> </text><text class="cls-17" transform="matrix(-0.6293, 0.7772, -0.7772, -0.6293, 385.5957, 372.4337)"> </text><text class="cls-17" transform="matrix(-0.6472, 0.7623, -0.7623, -0.6472, 382.6777, 376.0411)"> </text><text class="cls-17" transform="matrix(-0.6649, 0.7469, -0.7469, -0.6649, 379.6631, 379.5938)"> </text><text class="cls-17" transform="translate(376.5684 383.0714) rotate(133.0144)"> </text><text class="cls-17" transform="matrix(-0.699, 0.7151, -0.7151, -0.699, 373.4043, 386.463)"> </text><text class="cls-17" transform="translate(370.165 389.7784) rotate(135.6828)"> </text><text class="cls-17" transform="matrix(-0.7317, 0.6816, -0.6816, -0.7317, 366.8213, 393.046)"> </text><text class="cls-17" transform="matrix(-0.7474, 0.6644, -0.6644, -0.7474, 363.4277, 396.2071)"> </text><text class="cls-17" transform="translate(359.9619 399.2911) rotate(139.6981)"> </text><text class="cls-17" transform="translate(356.4228 402.2931) rotate(141.0345)"> </text><text class="cls-17" transform="translate(352.7978 405.2257) rotate(142.3779)"> </text><text class="cls-17" transform="matrix(-0.8061, 0.5918, -0.5918, -0.8061, 349.1338, 408.0509)"> </text><text class="cls-17" transform="matrix(-0.8197, 0.5728, -0.5728, -0.8197, 345.3867, 410.8028)"> </text><text class="cls-17" transform="translate(341.5752 413.4688) rotate(146.3986)"> </text><text class="cls-17" transform="translate(337.6953 416.046) rotate(147.7451)"> </text><text class="cls-17" transform="matrix(-0.858, 0.5137, -0.5137, -0.858, 333.7705, 418.5235)"> </text><text class="cls-17" transform="translate(329.7832 420.9142) rotate(150.4357)"> </text><text class="cls-17" transform="translate(325.7519 423.2013) rotate(151.7799)"> </text><text class="cls-17" transform="matrix(-0.892, 0.452, -0.452, -0.892, 321.6611, 425.3976)"> </text><text class="cls-17" transform="translate(317.5137 427.5001) rotate(154.48)"> </text><text class="cls-17" transform="matrix(-0.9124, 0.4094, -0.4094, -0.9124, 313.3125, 429.506)"> </text><text class="cls-17" transform="translate(309.0723 431.4103) rotate(157.1885)"> </text><text class="cls-17" transform="translate(304.7803 433.2149) rotate(158.5456)"> </text><text class="cls-17" transform="translate(300.456 434.9171) rotate(159.9006)"> </text><text class="cls-17" transform="translate(296.1162 436.506) rotate(161.2487)"> </text><text class="cls-17" transform="translate(291.6953 438.0089) rotate(162.6116)"> </text><text class="cls-17" transform="matrix(-0.9611, 0.2762, -0.2762, -0.9611, 287.2617, 439.3976)"> </text><text class="cls-17" transform="matrix(-0.9674, 0.2534, -0.2534, -0.9674, 282.8047, 440.6788)"> </text><text class="cls-17" transform="translate(278.3027 441.8585) rotate(166.6774)"> </text><text class="cls-17" transform="translate(273.7803 442.9308) rotate(168.0313)"> </text><text class="cls-17" transform="matrix(-0.9829, 0.1843, -0.1843, -0.9829, 269.2539, 443.8917)"> </text><text class="cls-17" transform="translate(264.6904 444.7491) rotate(170.727)"> </text><text class="cls-17" transform="translate(260.0908 445.5001) rotate(172.0787)"> </text><text class="cls-17" transform="translate(255.4941 446.1417) rotate(173.4214)"> </text><text class="cls-17" transform="translate(250.8633 446.6759) rotate(174.7666)"> </text><text class="cls-17" transform="matrix(-0.9977, 0.068, -0.068, -0.9977, 246.2392, 447.1007)"> </text><text class="cls-17" transform="translate(241.625 447.4161) rotate(177.4271)"> </text><text class="cls-17" transform="translate(236.9814 447.6251) rotate(178.7528)"> </text><text class="cls-17" transform="translate(232.3506 447.7628) rotate(-179.0714)"> </text><text class="cls-17" transform="translate(227.6816 447.7228) rotate(-178.6053)"> </text><text class="cls-17" transform="matrix(-0.9989, -0.0475, 0.0475, -0.9989, 223.0361, 447.6104)"> </text><text class="cls-17" transform="translate(218.3789 447.3897) rotate(-175.9431)"> </text><text class="cls-17" transform="translate(213.751 447.0636) rotate(-174.608)"> </text><text class="cls-17" transform="matrix(-0.9931, -0.1173, 0.1173, -0.9931, 209.1123, 446.6251)"> </text><text class="cls-17" transform="translate(204.5049 446.0831) rotate(-171.9205)"> </text><text class="cls-17" transform="matrix(-0.9865, -0.1638, 0.1638, -0.9865, 199.9131, 445.4317)"> </text><text class="cls-17" transform="translate(195.3135 444.67) rotate(-169.2204)"> </text><text class="cls-17" transform="translate(190.7695 443.8058) rotate(-167.8744)"> </text><text class="cls-17" transform="translate(186.2275 442.8302) rotate(-166.5207)"> </text><text class="cls-17" transform="matrix(-0.9667, -0.2561, 0.2561, -0.9667, 181.7041, 441.7462)"> </text><text class="cls-17" transform="translate(177.2197 440.5606) rotate(-163.8117)"> </text><text class="cls-17" transform="translate(172.7617 439.2667) rotate(-162.4563)"> </text><text class="cls-17" transform="translate(168.3096 437.8604) rotate(-161.0936)"> </text><text class="cls-17" transform="translate(163.9219 436.3585) rotate(-159.7407)"> </text><text class="cls-17" transform="translate(159.5625 434.7501) rotate(-158.3857)"> </text><text class="cls-17" transform="matrix(-0.9207, -0.3903, 0.3903, -0.9207, 155.2344, 433.0353)"> </text><text class="cls-17" transform="matrix(-0.9113, -0.4118, 0.4118, -0.9113, 150.9726, 431.2306)"> </text><text class="cls-17" transform="translate(146.7295 429.3146) rotate(-154.3275)"> </text><text class="cls-17" transform="translate(142.54 427.3019) rotate(-152.9765)"> </text><text class="cls-17" transform="matrix(-0.8799, -0.4752, 0.4752, -0.8799, 138.4043, 425.1935)"> </text><text class="cls-17" transform="matrix(-0.8685, -0.4957, 0.4957, -0.8685, 134.3252, 422.9923)"> </text><text class="cls-17" transform="matrix(-0.8566, -0.5161, 0.5161, -0.8566, 130.2734, 420.6798)"> </text><text class="cls-17" transform="matrix(-0.8442, -0.536, 0.536, -0.8442, 126.2959, 418.2853)"> </text><text class="cls-17" transform="matrix(-0.8314, -0.5556, 0.5556, -0.8314, 122.3799, 415.7999)"> </text><text class="cls-17" transform="translate(118.5127 413.2159) rotate(-144.9046)"> </text><text class="cls-17" transform="translate(114.707 410.544) rotate(-143.5625)"> </text><text class="cls-17" transform="matrix(-0.7904, -0.6126, 0.6126, -0.7904, 110.9707, 407.7853)"> </text><text class="cls-17" transform="translate(107.2988 404.9435) rotate(-140.8846)"> </text><text class="cls-17" transform="matrix(-0.761, -0.6488, 0.6488, -0.761, 103.6992, 402.0167)"> </text><text class="cls-17" transform="translate(100.1553 398.9952) rotate(-138.2079)"> </text><text class="cls-17" transform="matrix(-0.7298, -0.6837, 0.6837, -0.7298, 96.6816, 395.8917)"> </text><text class="cls-17" transform="translate(93.2969 392.7218) rotate(-135.5339)"> </text><text class="cls-17" transform="translate(89.9863 389.4747) rotate(-134.1993)"> </text><text class="cls-17" transform="translate(86.7402 386.1378) rotate(-132.8593)"> </text><text class="cls-17" transform="translate(83.5723 382.7247) rotate(-131.5196)"> </text><text class="cls-17" transform="matrix(-0.6452, -0.764, 0.764, -0.6452, 80.4951, 379.2521)"> </text><text class="cls-17" transform="matrix(-0.6272, -0.7788, 0.7788, -0.6272, 77.501, 375.7071)"> </text><text class="cls-17" transform="matrix(-0.6089, -0.7933, 0.7933, -0.6089, 74.5879, 372.0919)"> </text><text class="cls-17" transform="translate(71.7578 368.4054) rotate(-126.169)"> </text><text class="cls-17" transform="matrix(-0.5711, -0.8209, 0.8209, -0.5711, 69.0137, 364.6534)"> </text><text class="cls-17" transform="matrix(-0.5517, -0.834, 0.834, -0.5517, 66.3555, 360.8351)"> </text><text class="cls-17" transform="matrix(-0.5319, -0.8468, 0.8468, -0.5319, 63.7861, 356.9503)"> </text><text class="cls-17" transform="translate(61.3242 353.0362) rotate(-120.797)"> </text><text class="cls-17" transform="translate(58.9346 349.0274) rotate(-119.445)"> </text><text class="cls-17" transform="translate(56.6543 344.9894) rotate(-118.0998)"> </text><text class="cls-17" transform="translate(54.4658 340.8956) rotate(-116.7514)"> </text><text class="cls-17" transform="translate(52.373 336.7423) rotate(-115.3998)"> </text><text class="cls-17" transform="translate(50.373 332.5362) rotate(-114.0447)"> </text><text class="cls-17" transform="matrix(-0.3858, -0.9226, 0.9226, -0.3858, 48.4873, 328.3087)"> </text><text class="cls-17" transform="translate(46.6894 324.0118) rotate(-111.3388)"> </text><text class="cls-17" transform="matrix(-0.3417, -0.9398, 0.9398, -0.3417, 44.9971, 319.6827)"> </text><text class="cls-17" transform="translate(43.4101 315.3224) rotate(-108.6295)"> </text><text class="cls-17" transform="translate(41.9297 310.9317) rotate(-107.2771)"> </text><text class="cls-17" transform="translate(40.5488 306.4962) rotate(-105.9217)"> </text><text class="cls-17" transform="translate(39.2705 302.0157) rotate(-104.5621)"> </text><text class="cls-17" transform="translate(38.1035 297.5304) rotate(-103.2109)"> </text><text class="cls-17" transform="matrix(-0.2055, -0.9787, 0.9787, -0.2055, 37.04, 293.004)"> </text><text class="cls-17" transform="matrix(-0.1822, -0.9833, 0.9833, -0.1822, 36.0801, 288.4356)"> </text><text class="cls-17" transform="translate(35.2334 283.8692) rotate(-99.1493)"> </text><text class="cls-17" transform="translate(34.4961 279.3048) rotate(-97.8081)"> </text><text class="cls-17" transform="translate(33.8623 274.6847) rotate(-96.4595)"> </text><text class="cls-17" transform="translate(33.3389 270.0714) rotate(-95.1203)"> </text><text class="cls-17" transform="translate(32.9238 265.4454) rotate(-93.7849)"> </text><text class="cls-17" transform="translate(32.6152 260.8087) rotate(-92.4549)"> </text><text class="cls-17" transform="translate(32.416 256.1622) rotate(-91.1283)"> </text><text class="cls-17" transform="translate(32.293 251.5494) rotate(-89.0714)"> </text><text class="cls-17" transform="translate(32.3066 246.8995) rotate(-87.9705)">1</text><text class="cls-17" transform="translate(32.5498 238.6505) rotate(-85.089)">0</text><text class="cls-18" transform="matrix(0.1355, -0.9908, 0.9908, 0.1355, 33.6103, 226.8243)">+</text><text class="cls-17" transform="matrix(0.1671, -0.9859, 0.9859, 0.1671, 34.7275, 218.8409)"> </text><text class="cls-17" transform="translate(35.4512 214.2882) rotate(-78.323)">y</text><text class="cls-17" transform="translate(37.3711 204.9933) rotate(-75.5828)">e</text><text class="cls-17" transform="translate(39.6787 195.984) rotate(-72.8117)">a</text><text class="cls-17" transform="translate(42.5693 186.6979) rotate(-70.2431)">r</text><text class="cls-17" transform="translate(45.2334 179.2589) rotate(-67.875)">s</text></g></g></g></svg>