<svg xmlns="http://www.w3.org/2000/svg" xmlns:xlink="http://www.w3.org/1999/xlink" viewBox="0 0 620 500"><defs><style>.cls-1{fill:none;}.cls-13,.cls-14,.cls-2{fill:#fff;}.cls-3{clip-path:url(#clip-path);}.cls-16,.cls-4,.cls-9{fill:#003f5c;}.cls-4,.cls-5,.cls-6,.cls-7{fill-rule:evenodd;}.cls-10,.cls-5{fill:#ff764a;}.cls-11,.cls-6{fill:#7a5195;}.cls-12,.cls-7{fill:#ffa600;}.cls-14,.cls-8{font-size:18px;}.cls-13,.cls-14,.cls-15,.cls-8{font-family:Georgia;}.cls-13{font-size:20px;}.cls-15{font-size:16px;}.cls-16{stroke:#003f5c;stroke-miterlimit:10;stroke-width:2px;}</style><clipPath id="clip-path"><path class="cls-1" d="M6.5761,245.1509c18.6052,105.5155,119.2249,175.97,224.74,157.365s175.97-119.225,157.365-224.74S269.4565,1.8052,163.941,20.4105-12.0291,139.6354,6.5761,245.1509ZM314.8209,190.799A119,119,0,1,1,176.9647,94.271,119,119,0,0,1,314.8209,190.799Z"/></clipPath></defs><g id="Layer_2" data-name="Layer 2"><g id="Official_Role_Breakdown" data-name="Official Role Breakdown"><g id="background"><rect class="cls-2" width="620" height="500"/></g><g id="Chart"><g class="cls-3"><path class="cls-4" d="M199.5382,209.8l16.2941,186.2423c-102.8588,8.999-193.5374-67.0894-202.5364-169.9482S80.3854,32.5561,183.2442,23.5571c61.7152-5.3993,116.7463,16.8347,157.39,63.59Z"/><path class="cls-5" d="M199.5382,209.8,340.634,87.1468a169.0648,169.0648,0,0,1,22.4177,32.0157Z"/><path class="cls-6" d="M199.5382,209.8l163.5135-90.637c50.0574,90.306,17.43,204.093-72.8765,254.15a177.7246,177.7246,0,0,1-54.9645,20.0054Z"/><path class="cls-7" d="M199.5382,209.8l35.6725,183.5188c-6.0813,1.1821-13.2068,2.1836-19.3784,2.7235Z"/></g></g><g id="Legend"><text class="cls-8" transform="translate(488.5702 335.9167)">Not expected</text><text class="cls-8" transform="translate(488.5702 301.9167)">Part of role</text><text class="cls-8" transform="translate(487.2982 268.1513)">Expected</text><text class="cls-8" transform="translate(487.2982 231.1513)">All of role</text><rect id="Swatch_1" data-name="Swatch 1" class="cls-9" x="450.2275" y="211.8793" width="24.7508" height="24.7508" transform="translate(686.8576 -238.3482) rotate(90)"/><rect id="Swatch_2" data-name="Swatch 2" class="cls-10" x="450.2275" y="248.1853" width="24.7508" height="24.7508" transform="translate(723.1636 -202.0422) rotate(90)"/><rect id="Swatch_3" data-name="Swatch 3" class="cls-11" x="450.2275" y="282.2568" width="24.7508" height="24.7508" transform="translate(757.2351 -167.9707) rotate(90)"/><rect id="Swatch_4" data-name="Swatch 4" class="cls-12" x="450.2275" y="316.3283" width="24.7508" height="24.7508" transform="translate(791.3066 -133.8992) rotate(90)"/></g><g id="Inner_Labels" data-name="Inner Labels"><text class="cls-13" transform="translate(41.5051 190.5404) rotate(96.8721)"> </text><text class="cls-13" transform="matrix(-0.0881, 0.9961, -0.9961, -0.0881, 40.9109, 195.5023)"> </text><text class="cls-13" transform="translate(40.4758 200.4471) rotate(93.2532)"> </text><text class="cls-13" transform="matrix(-0.0255, 0.9997, -0.9997, -0.0255, 40.1965, 205.4041)"> </text><text class="cls-13" transform="matrix(0.0162, 0.9999, -0.9999, 0.0162, 40.0476, 210.5125)"> </text><text class="cls-13" transform="translate(40.1013 215.3211) rotate(87.9026)"> </text><text class="cls-13" transform="translate(40.2859 220.3016) rotate(86.1014)"> </text><text class="cls-13" transform="translate(40.6247 225.244) rotate(84.3028)"> </text><text class="cls-13" transform="matrix(0.1308, 0.9914, -0.9914, 0.1308, 41.1228, 230.2039)"> </text><text class="cls-13" transform="matrix(0.1623, 0.9867, -0.9867, 0.1623, 41.7776, 235.1522)"> </text><text class="cls-13" transform="translate(42.5852 240.0506) rotate(78.8392)"> </text><text class="cls-13" transform="translate(43.5564 244.9569) rotate(77.0017)"> </text><text class="cls-13" transform="matrix(0.256, 0.9667, -0.9667, 0.256, 44.6794, 249.8084)"> </text><text class="cls-13" transform="matrix(0.2866, 0.958, -0.958, 0.2866, 45.9504, 254.6034)"> </text><text class="cls-13" transform="translate(47.387 259.3924) rotate(71.5036)"> </text><text class="cls-13" transform="translate(48.9602 264.0907) rotate(69.6802)"> </text><text class="cls-13" transform="translate(50.6985 268.7762) rotate(67.8422)"> </text><text class="cls-13" transform="matrix(0.4064, 0.9137, -0.9137, 0.4064, 52.5696, 273.3651)"> </text><text class="cls-13" transform="matrix(0.4355, 0.9002, -0.9002, 0.4355, 54.6047, 277.9334)"> </text><text class="cls-13" transform="translate(56.7663 282.3973) rotate(62.3672)"> </text><text class="cls-13" transform="matrix(0.4917, 0.8707, -0.8707, 0.4917, 59.0779, 286.8084)"> </text><text class="cls-13" transform="translate(61.5242 291.1356) rotate(58.7275)"> </text><text class="cls-13" transform="translate(64.1184 295.4012) rotate(56.9045)"> </text><text class="cls-13" transform="translate(66.8269 299.5526) rotate(55.0977)"> </text><text class="cls-13" transform="matrix(0.5979, 0.8016, -0.8016, 0.5979, 69.678, 303.6346)"> </text><text class="cls-13" transform="translate(72.655 307.6219) rotate(51.4732)"> </text><text class="cls-13" transform="matrix(0.6472, 0.7623, -0.7623, 0.6472, 75.7537, 311.5106)"> </text><text class="cls-13" transform="matrix(0.6709, 0.7415, -0.7415, 0.6709, 78.9719, 315.2987)"> </text><text class="cls-13" transform="matrix(0.6939, 0.72, -0.72, 0.6939, 82.3074, 318.9803)"> </text><text class="cls-13" transform="translate(85.7766 322.577) rotate(44.242)"> </text><text class="cls-13" transform="translate(89.3376 326.0409) rotate(42.4379)"> </text><text class="cls-13" transform="translate(93.0071 329.3924) rotate(40.6333)"> </text><text class="cls-13" transform="translate(96.7815 332.6287) rotate(38.8257)"> </text><text class="cls-13" transform="translate(100.6589 335.7459) rotate(37.0163)"> </text><text class="cls-13" transform="translate(104.6365 338.743) rotate(35.2032)"> </text><text class="cls-13" transform="translate(108.6868 341.5965) rotate(33.3969)"> </text><text class="cls-13" transform="translate(112.8557 344.3426) rotate(31.5754)"> </text><text class="cls-13" transform="translate(117.0901 346.9412) rotate(29.7586)"> </text><text class="cls-13" transform="translate(121.4133 349.411) rotate(27.9367)"> </text><text class="cls-13" transform="matrix(0.898, 0.4401, -0.4401, 0.898, 125.821, 351.745)"> </text><text class="cls-13" transform="translate(130.2849 353.9305) rotate(24.2846)"> </text><text class="cls-13" transform="translate(134.8264 355.9764) rotate(22.4546)"> </text><text class="cls-13" transform="translate(139.4172 357.8729) rotate(20.6282)"> </text><text class="cls-13" transform="translate(144.0803 359.6248) rotate(18.7957)"> </text><text class="cls-13" transform="translate(148.8132 361.2323) rotate(16.9554)"> </text><text class="cls-13" transform="matrix(0.9653, 0.261, -0.261, 0.9653, 153.5549, 362.6756)"> </text><text class="cls-13" transform="matrix(0.9732, 0.2299, -0.2299, 0.9732, 158.3884, 363.9803)"> </text><text class="cls-13" transform="translate(163.2239 365.119) rotate(11.4638)"> </text><text class="cls-13" transform="translate(168.0862 366.1034) rotate(9.6439)"> </text><text class="cls-13" transform="translate(173.0012 366.9354) rotate(7.8196)"> </text><text class="cls-13" transform="translate(177.9372 367.6112) rotate(6.0028)"> </text><text class="cls-13" transform="translate(182.8894 368.1297) rotate(4.1925)"> </text><text class="cls-13" transform="translate(187.8552 368.4911) rotate(2.3923)"> </text><text class="cls-13" transform="translate(192.7117 368.6825) rotate(0.9289)"> </text><text class="cls-13" transform="translate(197.7361 368.7469) rotate(-1.1564)"> </text><text class="cls-13" transform="translate(202.7038 368.6444) rotate(-2.9472)"> </text><text class="cls-13" transform="translate(207.6677 368.3866) rotate(-4.747)"> </text><text class="cls-13" transform="translate(212.6208 367.9725) rotate(-6.5553)"> </text><text class="cls-13" transform="translate(217.5613 367.4022) rotate(-8.372)"> </text><text class="cls-13" transform="translate(222.4871 366.6746) rotate(-10.1952)"> </text><text class="cls-13" transform="translate(227.3913 365.7899) rotate(-12.0244)"> </text><text class="cls-13" transform="translate(232.2722 364.7489) rotate(-13.8592)"> </text><text class="cls-13" transform="translate(237.0974 363.5555) rotate(-15.6878)"> </text><text class="cls-13" transform="matrix(0.9536, -0.3011, 0.3011, 0.9536, 241.8904, 362.2059)"> </text><text class="cls-13" transform="translate(246.6238 360.7098) rotate(-19.3487)"> </text><text class="cls-13" transform="matrix(0.924, -0.3823, 0.3823, 0.924, 251.6404, 359.0282)">3</text><text class="cls-13" transform="matrix(0.8919, -0.4523, 0.4523, 0.8919, 262.7497, 354.3993)">0</text><text class="cls-13" transform="translate(273.7292 348.911) rotate(-32.3087)">%</text><text class="cls-13" transform="translate(288.0193 339.5994) rotate(-36.4263)"> </text><text class="cls-13" transform="matrix(0.7694, -0.6388, 0.6388, 0.7694, 292.3581, 336.5106)">P</text><text class="cls-13" transform="matrix(0.7191, -0.6949, 0.6949, 0.7191, 302.2722, 328.1912)">a</text><text class="cls-13" transform="matrix(0.6751, -0.7378, 0.7378, 0.6751, 309.8933, 320.7616)">r</text><text class="cls-13" transform="translate(315.6697 314.408) rotate(-50.4253)">t</text><text class="cls-13" transform="translate(320.2136 308.8719) rotate(-52.6523)"> </text><text class="cls-13" transform="translate(323.4665 304.7186) rotate(-55.6561)">o</text><text class="cls-13" transform="matrix(0.5151, -0.8571, 0.8571, 0.5151, 329.7751, 295.3514)">f</text><text class="cls-13" transform="translate(333.2234 289.5731) rotate(-61.1516)"> </text><text class="cls-13" transform="translate(335.8142 285.0106) rotate(-64.1635)">o</text><text class="cls-13" transform="translate(340.6746 274.7899) rotate(-67.5344)">f</text><text class="cls-13" transform="matrix(0.3413, -0.94, 0.94, 0.3413, 343.2761, 268.4813)">f</text><text class="cls-13" transform="matrix(0.302, -0.9533, 0.9533, 0.302, 345.5798, 262.0985)">i</text><text class="cls-13" transform="translate(347.5046 256.1219) rotate(-75.3253)">c</text><text class="cls-13" transform="translate(349.8581 246.9305) rotate(-78.2217)">i</text><text class="cls-13" transform="translate(351.1872 240.7821) rotate(-81.3007)">a</text><text class="cls-13" transform="matrix(0.0985, -0.9951, 0.9951, 0.0985, 352.7087, 230.367)">l</text><text class="cls-13" transform="translate(353.283 224.4608) rotate(-86.339)"> </text><text class="cls-13" transform="matrix(0.0212, -0.9998, 0.9998, 0.0212, 353.6374, 219.3709)">r</text><text class="cls-13" transform="translate(353.8464 210.5902) rotate(-92.4025)">o</text><text class="cls-13" transform="translate(353.2898 199.328) rotate(-95.5726)">l</text><text class="cls-13" transform="matrix(-0.1483, -0.9889, 0.9889, -0.1483, 352.7351, 193.2196)">e</text><text class="cls-14" transform="translate(50.5788 225.0692) rotate(-93.117)">6</text><text class="cls-14" transform="matrix(0.0162, -0.9999, 0.9999, 0.0162, 50.0071, 215.5047)">5</text><text class="cls-14" transform="translate(50.0183 205.9378) rotate(-84.8795)">%</text><text class="cls-14" transform="translate(51.4314 191.783) rotate(-81.3578)"> </text><text class="cls-14" transform="matrix(0.22, -0.9755, 0.9755, 0.22, 51.7463, 188.0125)">W</text><text class="cls-14" transform="translate(55.574 171.6229) rotate(-72.0683)">h</text><text class="cls-14" transform="translate(58.6379 162.1414) rotate(-68.3038)">o</text><text class="cls-14" transform="translate(62.1233 153.5033) rotate(-65.5401)">l</text><text class="cls-14" transform="translate(64.0657 149.1195) rotate(-62.9657)">e</text><text class="cls-14" transform="matrix(0.4917, -0.8707, 0.8707, 0.4917, 67.904, 141.6829)"> </text><text class="cls-14" transform="translate(69.8083 138.1698) rotate(-57.9395)">o</text><text class="cls-14" transform="translate(74.7644 130.3289) rotate(-55.0763)">f</text><text class="cls-14" transform="translate(77.9841 125.7318) rotate(-53.1874)"> </text><text class="cls-14" transform="translate(80.3054 122.5164) rotate(-50.6069)">o</text><text class="cls-14" transform="translate(86.241 115.3485) rotate(-47.7431)">f</text><text class="cls-14" transform="translate(89.9773 111.2274) rotate(-45.587)">f</text><text class="cls-14" transform="matrix(0.7249, -0.6888, 0.6888, 0.7249, 93.8801, 107.2445)">i</text><text class="cls-14" transform="matrix(0.7539, -0.657, 0.657, 0.7539, 97.4138, 103.8324)">c</text><text class="cls-14" transform="matrix(0.7816, -0.6237, 0.6237, 0.7816, 103.343, 98.6981)">i</text><text class="cls-14" transform="matrix(0.8095, -0.5871, 0.5871, 0.8095, 107.1296, 95.6087)">a</text><text class="cls-14" transform="matrix(0.8356, -0.5493, 0.5493, 0.8356, 114.2146, 90.5155)">l</text><text class="cls-14" transform="matrix(0.8521, -0.5235, 0.5235, 0.8521, 118.3201, 87.8197)"> </text><text class="cls-14" transform="matrix(0.8678, -0.4968, 0.4968, 0.8678, 121.7947, 85.6717)">j</text><text class="cls-14" transform="translate(125.9768 83.2039) rotate(-27.0234)">o</text><text class="cls-14" transform="translate(134.1628 79.0042) rotate(-23.3434)">b</text><text class="cls-14" transform="translate(143.114 75.2054) rotate(-20.6504)"> </text><text class="cls-14" transform="translate(146.779 73.7376) rotate(-17.9208)">d</text><text class="cls-14" transform="matrix(0.9687, -0.2482, 0.2482, 0.9687, 156.1438, 70.7205)">e</text><text class="cls-14" transform="matrix(0.9806, -0.1961, 0.1961, 0.9806, 164.154, 68.6678)">s</text><text class="cls-14" transform="translate(171.3928 67.2049) rotate(-8.3381)">c</text><text class="cls-14" transform="translate(179.0715 66.0794) rotate(-5.4712)">r</text><text class="cls-14" transform="translate(186.1125 65.4207) rotate(-3.14)">i</text><text class="cls-14" transform="translate(191.0027 65.1375) rotate(-0.9286)">p</text><text class="cls-14" transform="translate(200.821 65.0711) rotate(2.6864)">t</text><text class="cls-14" transform="translate(206.7615 65.3534) rotate(4.8038)">i</text><text class="cls-14" transform="translate(211.6238 65.6991) rotate(7.5602)">o</text><text class="cls-14" transform="matrix(0.9805, 0.1964, -0.1964, 0.9805, 220.7175, 66.8719)">n</text><text class="cls-15" transform="translate(400.0618 74.3209)">3.5% Not part of <tspan x="-2.6172" y="18">role, but expected</tspan></text><text class="cls-15" transform="translate(174.4241 456.4115)">1.5% Not part of <tspan x="-2.5742" y="18">role, not expected</tspan></text><path class="cls-16" d="M358.46,99.1169,372.12,90.3712l13.66-8.7456a2.531,2.531,0,0,0,.6575.45,2.4391,2.4391,0,0,0,.7493.2169,2.31,2.31,0,0,0,1.5319-.3513,2.42,2.42,0,1,0-2.6094-4.0759,2.3094,2.3094,0,0,0-.96,1.2442,2.44,2.44,0,0,0-.1167.7714,2.5291,2.5291,0,0,0,.1336.7855l-13.6605,8.7457-13.6605,8.7457"/><path class="cls-16" d="M226.2711,400.4007l2.93,15.9535,2.93,15.9535a2.5272,2.5272,0,0,0-.6654.4384,2.44,2.44,0,0,0-.4842.6117,2.31,2.31,0,0,0-.2542,1.5509,2.42,2.42,0,1,0,4.76-.8741,2.3088,2.3088,0,0,0-.7887-1.3594,2.4337,2.4337,0,0,0-.67-.4,2.528,2.528,0,0,0-.7777-.1735l-2.93-15.9535-2.93-15.9535"/></g></g></g></svg>