<svg xmlns="http://www.w3.org/2000/svg" xmlns:xlink="http://www.w3.org/1999/xlink" viewBox="0 0 635.3242 520"><defs><style>.cls-1{fill:none;}.cls-14,.cls-2{fill:#fff;}.cls-3{clip-path:url(#clip-path);}.cls-10,.cls-16,.cls-4{fill:#003f5c;}.cls-4,.cls-5,.cls-6,.cls-7{fill-rule:evenodd;}.cls-11,.cls-5{fill:#ff764a;}.cls-12,.cls-6{fill:#7a5195;}.cls-13,.cls-7{fill:#ffa600;}.cls-8{font-size:28px;}.cls-14,.cls-15,.cls-8,.cls-9{font-family:Georgia;}.cls-14,.cls-9{font-size:20px;}.cls-15{font-size:16px;}.cls-16{stroke:#003f5c;stroke-miterlimit:10;stroke-width:2px;}</style><clipPath id="clip-path"><path class="cls-1" d="M21.9,265.4819c18.6052,105.5155,119.225,175.97,224.7405,157.3649s175.97-119.2249,157.3649-224.74-119.2249-175.97-224.74-157.365S3.2951,159.9664,21.9,265.4819ZM330.1451,211.13a119,119,0,1,1-137.8562-96.528A119,119,0,0,1,330.1451,211.13Z"/></clipPath></defs><title>6</title><g id="Layer_2" data-name="Layer 2"><g id="Official_Role_Breakdown" data-name="Official Role Breakdown"><g id="background"><rect class="cls-2" x="15.3242" width="620" height="520"/></g><g id="Chart"><g class="cls-3"><path class="cls-4" d="M214.8625,230.13l16.2941,186.2424C128.2978,425.3717,37.6191,349.2833,28.62,246.4245S95.71,52.8871,198.5684,43.8881c61.7153-5.3994,116.7463,16.8346,157.39,63.59Z"/><path class="cls-5" d="M214.8625,230.13,355.9583,107.4777a169.0618,169.0618,0,0,1,22.4176,32.0158Z"/><path class="cls-6" d="M214.8625,230.13l163.5134-90.6369c50.0574,90.3059,17.43,204.0929-72.8765,254.15a177.7279,177.7279,0,0,1-54.9645,20.0054Z"/><path class="cls-7" d="M214.8625,230.13l35.6724,183.5189c-6.0813,1.1821-13.2068,2.1835-19.3783,2.7235Z"/></g></g><g id="Headline"><text id="Headline-2" data-name="Headline" class="cls-8" transform="matrix(0.7968, -0.6042, 0.6042, 0.7968, 80.368, 75.2618)">O</text><text class="cls-8" transform="matrix(0.8365, -0.548, 0.548, 0.8365, 96.4022, 63.3207)">f</text><text class="cls-8" transform="translate(103.5774 58.6074) rotate(-30.8273)">f</text><text class="cls-8" transform="translate(110.9671 54.1964) rotate(-28.5421)">i</text><text class="cls-8" transform="translate(117.6185 50.4995) rotate(-25.7728)">c</text><text class="cls-8" transform="translate(128.5616 45.2608) rotate(-22.994)">i</text><text class="cls-8" transform="matrix(0.9395, -0.3426, 0.3426, 0.9395, 135.4787, 42.2241)">a</text><text class="cls-8" transform="matrix(0.9558, -0.2939, 0.2939, 0.9558, 148.1709, 37.6623)">l</text><text class="cls-8" transform="translate(155.4467 35.4302) rotate(-15.1202)"> </text><text class="cls-8" transform="translate(161.1656 33.6562) rotate(-11.6206)">R</text><text class="cls-8" transform="translate(179.4831 29.944) rotate(-7.0179)">o</text><text class="cls-8" transform="translate(193.8077 28.2576) rotate(-3.9877)">l</text><text class="cls-8" transform="translate(201.2013 27.6601) rotate(-1.178)">e</text><text class="cls-8" transform="translate(214.1795 27.4592) rotate(1.4524)"> </text><text class="cls-8" transform="matrix(0.9966, 0.0824, -0.0824, 0.9966, 220.242, 27.4273)">B</text><text class="cls-8" transform="translate(237.6409 28.9533) rotate(8.6486)">r</text><text class="cls-8" transform="translate(248.2937 30.5217) rotate(11.963)">e</text><text class="cls-8" transform="translate(260.7773 33.1321) rotate(15.6375)">a</text><text class="cls-8" transform="translate(273.5768 36.6703) rotate(19.5071)">k</text><text class="cls-8" transform="translate(286.9074 41.3384) rotate(23.6371)">d</text><text class="cls-8" transform="translate(300.8427 47.4232) rotate(27.7713)">o</text><text class="cls-8" transform="matrix(0.8435, 0.5371, -0.5371, 0.8435, 313.3752, 53.8475)">w</text><text class="cls-8" transform="translate(329.8976 64.4199) rotate(37.3877)">n</text></g><g id="Legend"><text class="cls-9" transform="translate(503.8944 356.2476)">not expected</text><text class="cls-9" transform="translate(503.8944 322.2477)">part of role</text><text class="cls-9" transform="translate(502.6224 288.4822)">expected</text><text class="cls-9" transform="translate(502.6224 251.4822)">all of role</text><rect id="Swatch_1" data-name="Swatch 1" class="cls-10" x="465.5518" y="232.2103" width="24.7508" height="24.7508" transform="translate(722.5128 -233.3415) rotate(90)"/><rect id="Swatch_2" data-name="Swatch 2" class="cls-11" x="465.5518" y="268.5163" width="24.7508" height="24.7508" transform="translate(758.8188 -197.0355) rotate(90)"/><rect id="Swatch_3" data-name="Swatch 3" class="cls-12" x="465.5518" y="302.5878" width="24.7508" height="24.7508" transform="translate(792.8903 -162.964) rotate(90)"/><rect id="Swatch_4" data-name="Swatch 4" class="cls-13" x="465.5518" y="336.6593" width="24.7508" height="24.7508" transform="translate(826.9618 -128.8925) rotate(90)"/></g><g id="Inner_Labels" data-name="Inner Labels"><text class="cls-14" transform="translate(56.8293 210.8713) rotate(96.8721)"> </text><text class="cls-14" transform="matrix(-0.0881, 0.9961, -0.9961, -0.0881, 56.2351, 215.8332)"> </text><text class="cls-14" transform="translate(55.8001 220.7781) rotate(93.2532)"> </text><text class="cls-14" transform="matrix(-0.0255, 0.9997, -0.9997, -0.0255, 55.5208, 225.7351)"> </text><text class="cls-14" transform="matrix(0.0162, 0.9999, -0.9999, 0.0162, 55.3718, 230.8435)"> </text><text class="cls-14" transform="translate(55.4255 235.6521) rotate(87.9026)"> </text><text class="cls-14" transform="translate(55.6101 240.6326) rotate(86.1014)"> </text><text class="cls-14" transform="translate(55.949 245.5749) rotate(84.3028)"> </text><text class="cls-14" transform="matrix(0.1308, 0.9914, -0.9914, 0.1308, 56.447, 250.5349)"> </text><text class="cls-14" transform="matrix(0.1623, 0.9867, -0.9867, 0.1623, 57.1018, 255.4831)"> </text><text class="cls-14" transform="translate(57.9094 260.3816) rotate(78.8392)"> </text><text class="cls-14" transform="translate(58.8806 265.2878) rotate(77.0017)"> </text><text class="cls-14" transform="matrix(0.256, 0.9667, -0.9667, 0.256, 60.0037, 270.1394)"> </text><text class="cls-14" transform="matrix(0.2866, 0.958, -0.958, 0.2866, 61.2747, 274.9343)"> </text><text class="cls-14" transform="translate(62.7112 279.7234) rotate(71.5036)"> </text><text class="cls-14" transform="translate(64.2844 284.4216) rotate(69.6802)"> </text><text class="cls-14" transform="translate(66.0227 289.1072) rotate(67.8422)"> </text><text class="cls-14" transform="matrix(0.4064, 0.9137, -0.9137, 0.4064, 67.8938, 293.696)"> </text><text class="cls-14" transform="matrix(0.4355, 0.9002, -0.9002, 0.4355, 69.929, 298.2644)"> </text><text class="cls-14" transform="translate(72.0906 302.7283) rotate(62.3672)"> </text><text class="cls-14" transform="matrix(0.4917, 0.8707, -0.8707, 0.4917, 74.4021, 307.1394)"> </text><text class="cls-14" transform="translate(76.8484 311.4665) rotate(58.7275)"> </text><text class="cls-14" transform="translate(79.4426 315.7322) rotate(56.9045)"> </text><text class="cls-14" transform="translate(82.1511 319.8835) rotate(55.0977)"> </text><text class="cls-14" transform="matrix(0.5979, 0.8016, -0.8016, 0.5979, 85.0022, 323.9656)"> </text><text class="cls-14" transform="translate(87.9793 327.9529) rotate(51.4732)"> </text><text class="cls-14" transform="matrix(0.6472, 0.7623, -0.7623, 0.6472, 91.0779, 331.8415)"> </text><text class="cls-14" transform="matrix(0.6709, 0.7415, -0.7415, 0.6709, 94.2961, 335.6296)"> </text><text class="cls-14" transform="matrix(0.6939, 0.72, -0.72, 0.6939, 97.6316, 339.3113)"> </text><text class="cls-14" transform="translate(101.1008 342.9079) rotate(44.242)"> </text><text class="cls-14" transform="translate(104.6619 346.3718) rotate(42.4379)"> </text><text class="cls-14" transform="translate(108.3313 349.7234) rotate(40.6333)"> </text><text class="cls-14" transform="translate(112.1057 352.9597) rotate(38.8257)"> </text><text class="cls-14" transform="translate(115.9832 356.0769) rotate(37.0163)"> </text><text class="cls-14" transform="translate(119.9607 359.074) rotate(35.2032)"> </text><text class="cls-14" transform="translate(124.011 361.9275) rotate(33.3969)"> </text><text class="cls-14" transform="translate(128.1799 364.6736) rotate(31.5754)"> </text><text class="cls-14" transform="translate(132.4143 367.2722) rotate(29.7586)"> </text><text class="cls-14" transform="translate(136.7376 369.7419) rotate(27.9367)"> </text><text class="cls-14" transform="matrix(0.898, 0.4401, -0.4401, 0.898, 141.1453, 372.0759)"> </text><text class="cls-14" transform="translate(145.6091 374.2615) rotate(24.2846)"> </text><text class="cls-14" transform="translate(150.1506 376.3074) rotate(22.4546)"> </text><text class="cls-14" transform="translate(154.7415 378.2038) rotate(20.6282)"> </text><text class="cls-14" transform="translate(159.4045 379.9558) rotate(18.7957)"> </text><text class="cls-14" transform="translate(164.1375 381.5632) rotate(16.9554)"> </text><text class="cls-14" transform="matrix(0.9653, 0.261, -0.261, 0.9653, 168.8792, 383.0066)"> </text><text class="cls-14" transform="matrix(0.9732, 0.2299, -0.2299, 0.9732, 173.7126, 384.3113)"> </text><text class="cls-14" transform="translate(178.5481 385.4499) rotate(11.4638)"> </text><text class="cls-14" transform="translate(183.4104 386.4343) rotate(9.6439)"> </text><text class="cls-14" transform="translate(188.3254 387.2663) rotate(7.8196)"> </text><text class="cls-14" transform="translate(193.2615 387.9421) rotate(6.0028)"> </text><text class="cls-14" transform="translate(198.2136 388.4607) rotate(4.1925)"> </text><text class="cls-14" transform="translate(203.1794 388.822) rotate(2.3923)"> </text><text class="cls-14" transform="translate(208.0359 389.0134) rotate(0.9289)"> </text><text class="cls-14" transform="translate(213.0603 389.0779) rotate(-1.1564)"> </text><text class="cls-14" transform="translate(218.0281 388.9753) rotate(-2.9472)"> </text><text class="cls-14" transform="translate(222.9919 388.7175) rotate(-4.747)"> </text><text class="cls-14" transform="translate(227.9451 388.3035) rotate(-6.5553)"> </text><text class="cls-14" transform="translate(232.8855 387.7331) rotate(-8.372)"> </text><text class="cls-14" transform="translate(237.8113 387.0056) rotate(-10.1952)"> </text><text class="cls-14" transform="translate(242.7156 386.1208) rotate(-12.0244)"> </text><text class="cls-14" transform="translate(247.5964 385.0798) rotate(-13.8592)"> </text><text class="cls-14" transform="translate(252.4216 383.8865) rotate(-15.6878)"> </text><text class="cls-14" transform="matrix(0.9536, -0.3011, 0.3011, 0.9536, 257.2146, 382.5369)"> </text><text class="cls-14" transform="translate(261.948 381.0408) rotate(-19.3487)"> </text><text class="cls-14" transform="translate(266.6423 379.3894) rotate(-21.1795)"> </text><text class="cls-14" transform="translate(271.2957 377.5837) rotate(-23.0142)"> </text><text class="cls-14" transform="translate(275.8767 375.6355) rotate(-24.8424)"> </text><text class="cls-14" transform="matrix(0.8936, -0.4488, 0.4488, 0.8936, 280.3826, 373.5476)"> </text><text class="cls-14" transform="translate(284.8357 371.3074) rotate(-28.4903)"> </text><text class="cls-14" transform="translate(289.2068 368.9314) rotate(-30.3109)"> </text><text class="cls-14" transform="matrix(0.8347, -0.5508, 0.5508, 0.8347, 293.8171, 366.323)">3</text><text class="cls-14" transform="matrix(0.7902, -0.6129, 0.6129, 0.7902, 303.8416, 359.6736)">0</text><text class="cls-14" transform="translate(313.5779 352.2146) rotate(-43.1748)">%</text><text class="cls-14" transform="matrix(0.6785, -0.7346, 0.7346, 0.6785, 325.8494, 340.3826)"> </text><text class="cls-14" transform="matrix(0.6375, -0.7704, 0.7704, 0.6375, 329.4949, 336.5486)">p</text><text class="cls-14" transform="translate(337.1912 327.1706) rotate(-54.5605)">a</text><text class="cls-14" transform="matrix(0.5286, -0.8489, 0.8489, 0.5286, 343.3123, 318.491)">r</text><text class="cls-14" transform="translate(347.8513 311.1472) rotate(-61.0109)">t</text><text class="cls-14" transform="matrix(0.4501, -0.893, 0.893, 0.4501, 351.2947, 304.8806)"> </text><text class="cls-14" transform="matrix(0.4024, -0.9155, 0.9155, 0.4024, 353.7263, 300.2068)">o</text><text class="cls-14" transform="translate(358.197 289.8454) rotate(-69.6362)">f</text><text class="cls-14" transform="translate(360.5271 283.5046) rotate(-71.8138)"> </text><text class="cls-14" transform="matrix(0.2702, -0.9628, 0.9628, 0.2702, 362.1589, 278.6355)">r</text><text class="cls-14" transform="matrix(0.2074, -0.9783, 0.9783, 0.2074, 364.5574, 270.1755)">o</text><text class="cls-14" transform="translate(366.8093 259.1423) rotate(-81.2337)">l</text><text class="cls-14" transform="matrix(0.101, -0.9949, 0.9949, 0.101, 367.7869, 253.0613)">e</text><text class="cls-14" transform="matrix(-0.0508, -0.9987, 0.9987, -0.0508, 65.886, 245.4343)">6</text><text class="cls-14" transform="translate(65.323 234.7683) rotate(-88.8207)">5</text><text class="cls-14" transform="matrix(0.1085, -0.9941, 0.9941, 0.1085, 65.3943, 224.2302)">%</text><text class="cls-14" transform="matrix(0.1758, -0.9844, 0.9844, 0.1758, 67.2766, 208.5984)"> </text><text class="cls-14" transform="translate(67.866 204.3074) rotate(-76.2304)">w</text><text class="cls-14" transform="matrix(0.3202, -0.9474, 0.9474, 0.3202, 71.2395, 190.6931)">h</text><text class="cls-14" transform="translate(74.7649 180.2414) rotate(-67.1611)">o</text><text class="cls-14" transform="translate(78.8284 170.7371) rotate(-64.0981)">l</text><text class="cls-14" transform="matrix(0.481, -0.8767, 0.8767, 0.481, 81.0935, 165.9358)">e</text><text class="cls-14" transform="matrix(0.5214, -0.8533, 0.8533, 0.5214, 85.5911, 157.8357)"> </text><text class="cls-14" transform="matrix(0.5635, -0.8261, 0.8261, 0.5635, 87.8167, 154.032)">o</text><text class="cls-14" transform="translate(93.6628 145.5432) rotate(-52.5227)">f</text><text class="cls-14" transform="matrix(0.6369, -0.7709, 0.7709, 0.6369, 97.4524, 140.6174)"> </text><text class="cls-14" transform="matrix(0.6747, -0.7381, 0.7381, 0.6747, 100.1931, 137.1663)">o</text><text class="cls-14" transform="matrix(0.7144, -0.6997, 0.6997, 0.7144, 107.1873, 129.5828)">f</text><text class="cls-14" transform="matrix(0.743, -0.6693, 0.6693, 0.743, 111.5896, 125.262)">f</text><text class="cls-14" transform="translate(116.1677 121.137) rotate(-39.7458)">i</text><text class="cls-14" transform="translate(120.3254 117.6174) rotate(-37.0053)">c</text><text class="cls-14" transform="translate(127.2712 112.4177) rotate(-34.2578)">i</text><text class="cls-14" transform="translate(131.7322 109.301) rotate(-31.316)">a</text><text class="cls-14" transform="translate(140.0081 104.3186) rotate(-28.3928)">l</text><text class="cls-14" transform="matrix(0.8954, -0.4454, 0.4454, 0.8954, 144.7791, 101.7424)"> </text><text class="cls-14" transform="translate(148.8557 99.6995) rotate(-24.4599)">j</text><text class="cls-14" transform="translate(153.7234 97.3992) rotate(-21.3774)">o</text><text class="cls-14" transform="translate(163.2043 93.657) rotate(-17.2883)">b</text><text class="cls-14" transform="translate(173.4822 90.5325) rotate(-14.317)"> </text><text class="cls-14" transform="translate(177.7166 89.3489) rotate(-11.2845)">d</text><text class="cls-14" transform="translate(188.4275 87.2239) rotate(-7.3685)">e</text><text class="cls-14" transform="translate(197.5364 86.0476) rotate(-4.0001)">s</text><text class="cls-14" transform="translate(205.7019 85.4704) rotate(-0.9286)">c</text><text class="cls-14" transform="matrix(0.9992, 0.0411, -0.0411, 0.9992, 214.3025, 85.3415)">r</text><text class="cls-14" transform="translate(222.114 85.6809) rotate(4.9283)">i</text><text class="cls-14" transform="translate(227.5037 86.0544) rotate(8.1129)">p</text><text class="cls-14" transform="translate(238.2937 87.6443) rotate(11.4974)">t</text><text class="cls-14" transform="translate(244.7263 88.9568) rotate(13.8702)">i</text><text class="cls-14" transform="translate(250.0027 90.1789) rotate(16.9668)">o</text><text class="cls-14" transform="translate(259.7429 93.1077) rotate(21.1685)">n</text><text class="cls-15" transform="translate(416.7961 94.6519)">3.5% not part of <tspan x="-4.0273" y="19.2002">role, but expected</tspan></text><text class="cls-15" transform="translate(191.1584 476.7425)">1.5% not part of <tspan x="-3.9844" y="19.2002">role, not expected</tspan></text><path class="cls-16" d="M373.7841,119.4479l13.66-8.7457,13.6605-8.7457a2.53,2.53,0,0,0,.6575.45,2.4341,2.4341,0,0,0,.7494.2169,2.3084,2.3084,0,0,0,1.5318-.3512,2.42,2.42,0,1,0-2.6094-4.0759,2.3085,2.3085,0,0,0-.96,1.2442,2.4368,2.4368,0,0,0-.1166.7713,2.5291,2.5291,0,0,0,.1335.7856l-13.6605,8.7457L373.17,118.4888"/><path class="cls-16" d="M241.5953,420.7317l2.93,15.9534,2.9295,15.9535a2.53,2.53,0,0,0-.6653.4385,2.4347,2.4347,0,0,0-.4842.6116,2.31,2.31,0,0,0-.2543,1.551,2.42,2.42,0,1,0,4.76-.8741,2.3094,2.3094,0,0,0-.7887-1.3595,2.4371,2.4371,0,0,0-.67-.4,2.5307,2.5307,0,0,0-.7777-.1734L245.6449,436.48l-2.93-15.9535"/></g></g></g></svg>