<svg xmlns="http://www.w3.org/2000/svg" xmlns:xlink="http://www.w3.org/1999/xlink" viewBox="0 0 643.106 440"><defs><style>.cls-1{fill:none;}.cls-15,.cls-2{fill:#fff;}.cls-3{clip-path:url(#clip-path);}.cls-11,.cls-4{fill:#ffa600;}.cls-4,.cls-5,.cls-6,.cls-7{fill-rule:evenodd;}.cls-12,.cls-5{fill:#ff764a;}.cls-13,.cls-6{fill:#7a5195;}.cls-14,.cls-7{fill:#003f5c;}.cls-8{font-size:28px;}.cls-15,.cls-8,.cls-9{font-family:Georgia;}.cls-15,.cls-9{font-size:20px;}.cls-10{letter-spacing:-0.02em;}</style><clipPath id="clip-path"><path class="cls-1" d="M398.4173,280.4333c27.7307-103.4924-33.6863-209.87-137.1787-237.6s-209.87,33.6863-237.6,137.1787,33.6863,209.87,137.1787,237.6005S370.6866,383.9257,398.4173,280.4333Zm-302.3348-81.01a119,119,0,1,1,84.1457,145.7447A119,119,0,0,1,96.0825,199.4229Z"/></clipPath></defs><title>7</title><g id="Layer_2" data-name="Layer 2"><g id="Actual_Role_Breakdown" data-name="Actual Role Breakdown"><g id="background"><rect class="cls-2" x="3.106" width="640" height="440"/></g><g id="Chart"><g class="cls-3"><path class="cls-4" d="M211.0269,230.2255,310.0972,71.68c21.015,13.1316,35.3243,26.2437,50.2376,46.0342Z"/><path class="cls-5" d="M211.0269,230.2255,360.3348,117.7139c22.37,29.6858,34.5975,62.39,37.19,99.47Z"/><path class="cls-6" d="M211.0269,230.2255l186.4983-13.0412c5.1858,74.16-28.64,137.7773-93.0215,174.9479Z"/><path class="cls-7" d="M211.0269,230.2255l93.4768,161.9067C215.0851,443.758,100.746,413.121,49.12,323.7024S28.1314,119.9446,117.55,68.3188C178.3546,33.2132,250.5548,34.4735,310.0972,71.68Z"/></g></g><g id="Headline"><text id="Headline-2" data-name="Headline" class="cls-8" transform="translate(82.4206 71.5741) rotate(-36.3818)">A</text><text class="cls-8" transform="translate(96.8622 61.0296) rotate(-32.193)">c</text><text class="cls-8" transform="translate(107.1061 54.6083) rotate(-29.2037)">t</text><text class="cls-8" transform="translate(114.8492 50.1441) rotate(-25.7563)">u</text><text class="cls-8" transform="translate(128.5859 43.5211) rotate(-21.7034)">a</text><text class="cls-8" transform="matrix(0.947, -0.3211, 0.3211, 0.947, 141.1359, 38.5938)">l</text><text class="cls-8" transform="translate(148.3265 36.1602) rotate(-16.745)"> </text><text class="cls-8" transform="translate(154.009 34.2167) rotate(-13.1999)">R</text><text class="cls-8" transform="translate(172.1909 30.0067) rotate(-8.5461)">o</text><text class="cls-8" transform="matrix(0.9954, -0.0953, 0.0953, 0.9954, 186.4749, 27.939)">l</text><text class="cls-8" transform="translate(193.8526 27.1492) rotate(-2.6174)">e</text><text class="cls-8" transform="translate(206.6349 26.575) rotate(0.8397)"> </text><text class="cls-8" transform="translate(212.8593 26.4408) rotate(3.3336)">B</text><text class="cls-8" transform="translate(230.3054 27.5459) rotate(7.2901)">r</text><text class="cls-8" transform="translate(240.9921 28.8613) rotate(10.6336)">e</text><text class="cls-8" transform="translate(253.5172 31.1772) rotate(14.3392)">a</text><text class="cls-8" transform="translate(266.4002 34.4257) rotate(18.2522)">k</text><text class="cls-8" transform="matrix(0.9244, 0.3815, -0.3815, 0.9244, 279.8192, 38.7968)">d</text><text class="cls-8" transform="translate(293.8829 44.586) rotate(26.6077)">o</text><text class="cls-8" transform="translate(306.5381 50.7488) rotate(31.3779)">w</text><text class="cls-8" transform="translate(323.2426 60.9875) rotate(36.3263)">n</text></g><g id="Legend"><text class="cls-9" transform="translate(491.6763 353.8158)">3<tspan class="cls-10" x="10" y="0">/</tspan><tspan x="11.2207" y="0">4 +</tspan></text><text class="cls-9" transform="translate(491.6763 319.8159)">1/2 - 3<tspan class="cls-10" x="48.75" y="0">/</tspan><tspan x="49.9707" y="0">4</tspan></text><text class="cls-9" transform="translate(490.4044 286.0505)">1<tspan class="cls-10" x="10" y="0">/</tspan><tspan x="11.2207" y="0">4 - 1/2</tspan></text><text class="cls-9" transform="translate(490.4044 249.0505)">&lt; 1<tspan class="cls-10" x="27.6855" y="0">/</tspan><tspan x="28.9063" y="0">4</tspan></text><rect id="Swatch_1" data-name="Swatch 1" class="cls-11" x="453.3336" y="229.7785" width="24.7508" height="24.7508" transform="translate(707.8628 -223.5551) rotate(90)"/><rect id="Swatch_2" data-name="Swatch 2" class="cls-12" x="453.3336" y="266.0845" width="24.7508" height="24.7508" transform="translate(744.1689 -187.2491) rotate(90)"/><rect id="Swatch_3" data-name="Swatch 3" class="cls-13" x="453.3336" y="300.156" width="24.7508" height="24.7508" transform="translate(778.2403 -153.1776) rotate(90)"/><rect id="Swatch_4" data-name="Swatch 4" class="cls-14" x="453.3336" y="334.2275" width="24.7508" height="24.7508" transform="translate(812.3118 -119.1061) rotate(90)"/></g><g id="Inner_Labels" data-name="Inner Labels"><text class="cls-15" transform="translate(55.6112 208.8713) rotate(96.8721)"> </text><text class="cls-15" transform="matrix(-0.0881, 0.9961, -0.9961, -0.0881, 55.0169, 213.8332)"> </text><text class="cls-15" transform="translate(54.5819 218.7781) rotate(93.2532)"> </text><text class="cls-15" transform="matrix(-0.0255, 0.9997, -0.9997, -0.0255, 54.3026, 223.7351)"> </text><text class="cls-15" transform="matrix(0.0162, 0.9999, -0.9999, 0.0162, 54.1536, 228.8435)"> </text><text class="cls-15" transform="translate(54.2074 233.6521) rotate(87.9026)"> </text><text class="cls-15" transform="translate(54.3919 238.6326) rotate(86.1014)"> </text><text class="cls-15" transform="translate(54.7308 243.5749) rotate(84.3028)"> </text><text class="cls-15" transform="matrix(0.1308, 0.9914, -0.9914, 0.1308, 55.2288, 248.5349)"> </text><text class="cls-15" transform="matrix(0.1623, 0.9867, -0.9867, 0.1623, 55.8836, 253.4831)"> </text><text class="cls-15" transform="translate(56.6912 258.3816) rotate(78.8392)"> </text><text class="cls-15" transform="translate(57.6624 263.2878) rotate(77.0017)"> </text><text class="cls-15" transform="matrix(0.256, 0.9667, -0.9667, 0.256, 58.7855, 268.1394)"> </text><text class="cls-15" transform="matrix(0.2866, 0.958, -0.958, 0.2866, 60.0565, 272.9343)"> </text><text class="cls-15" transform="translate(61.493 277.7234) rotate(71.5036)"> </text><text class="cls-15" transform="translate(63.0662 282.4216) rotate(69.6802)"> </text><text class="cls-15" transform="translate(64.8045 287.1072) rotate(67.8422)"> </text><text class="cls-15" transform="matrix(0.4064, 0.9137, -0.9137, 0.4064, 66.6756, 291.696)"> </text><text class="cls-15" transform="matrix(0.4355, 0.9002, -0.9002, 0.4355, 68.7108, 296.2644)"> </text><text class="cls-15" transform="translate(70.8724 300.7283) rotate(62.3672)"> </text><text class="cls-15" transform="matrix(0.4917, 0.8707, -0.8707, 0.4917, 73.1839, 305.1394)"> </text><text class="cls-15" transform="translate(75.6302 309.4665) rotate(58.7275)"> </text><text class="cls-15" transform="translate(78.2244 313.7322) rotate(56.9045)"> </text><text class="cls-15" transform="translate(80.9329 317.8835) rotate(55.0977)"> </text><text class="cls-15" transform="matrix(0.5979, 0.8016, -0.8016, 0.5979, 83.784, 321.9656)"> </text><text class="cls-15" transform="translate(86.7611 325.9529) rotate(51.4732)"> </text><text class="cls-15" transform="matrix(0.6472, 0.7623, -0.7623, 0.6472, 89.8597, 329.8415)"> </text><text class="cls-15" transform="matrix(0.6709, 0.7415, -0.7415, 0.6709, 93.078, 333.6296)"> </text><text class="cls-15" transform="matrix(0.6939, 0.72, -0.72, 0.6939, 96.4134, 337.3113)"> </text><text class="cls-15" transform="translate(99.8826 340.9079) rotate(44.242)"> </text><text class="cls-15" transform="translate(103.4437 344.3718) rotate(42.4379)"> </text><text class="cls-15" transform="translate(107.1131 347.7234) rotate(40.6333)"> </text><text class="cls-15" transform="translate(110.8875 350.9597) rotate(38.8257)"> </text><text class="cls-15" transform="translate(114.765 354.0769) rotate(37.0163)"> </text><text class="cls-15" transform="translate(118.7425 357.074) rotate(35.2032)"> </text><text class="cls-15" transform="translate(122.7928 359.9275) rotate(33.3969)"> </text><text class="cls-15" transform="translate(126.9617 362.6736) rotate(31.5754)"> </text><text class="cls-15" transform="translate(131.1961 365.2722) rotate(29.7586)"> </text><text class="cls-15" transform="translate(135.5194 367.7419) rotate(27.9367)"> </text><text class="cls-15" transform="matrix(0.898, 0.4401, -0.4401, 0.898, 139.9271, 370.0759)"> </text><text class="cls-15" transform="translate(144.3909 372.2615) rotate(24.2846)"> </text><text class="cls-15" transform="translate(148.9325 374.3074) rotate(22.4546)"> </text><text class="cls-15" transform="translate(153.5233 376.2038) rotate(20.6282)"> </text><text class="cls-15" transform="translate(158.1864 377.9558) rotate(18.7957)"> </text><text class="cls-15" transform="translate(162.9193 379.5632) rotate(16.9554)"> </text><text class="cls-15" transform="matrix(0.9653, 0.261, -0.261, 0.9653, 167.661, 381.0066)"> </text><text class="cls-15" transform="matrix(0.9732, 0.2299, -0.2299, 0.9732, 172.4945, 382.3113)"> </text><text class="cls-15" transform="translate(177.3299 383.4499) rotate(11.4638)"> </text><text class="cls-15" transform="translate(182.1922 384.4343) rotate(9.6439)"> </text><text class="cls-15" transform="translate(187.1073 385.2663) rotate(7.8196)"> </text><text class="cls-15" transform="translate(192.0433 385.9421) rotate(6.0028)"> </text><text class="cls-15" transform="translate(196.9954 386.4607) rotate(4.1925)"> </text><text class="cls-15" transform="translate(201.9613 386.822) rotate(2.3923)"> </text><text class="cls-15" transform="translate(206.8177 387.0134) rotate(0.9289)"> </text><text class="cls-15" transform="translate(211.8421 387.0779) rotate(-1.1564)"> </text><text class="cls-15" transform="translate(216.8099 386.9753) rotate(-2.9472)"> </text><text class="cls-15" transform="translate(221.7738 386.7175) rotate(-4.747)"> </text><text class="cls-15" transform="translate(226.7269 386.3035) rotate(-6.5553)"> </text><text class="cls-15" transform="translate(231.6673 385.7331) rotate(-8.372)"> </text><text class="cls-15" transform="translate(236.5931 385.0056) rotate(-10.1952)"> </text><text class="cls-15" transform="translate(241.4974 384.1208) rotate(-12.0244)"> </text><text class="cls-15" transform="translate(246.3783 383.0798) rotate(-13.8592)"> </text><text class="cls-15" transform="translate(251.2034 381.8865) rotate(-15.6878)"> </text><text class="cls-15" transform="matrix(0.9536, -0.3011, 0.3011, 0.9536, 255.9964, 380.5369)"> </text><text class="cls-15" transform="translate(260.7298 379.0408) rotate(-19.3487)"> </text><text class="cls-15" transform="translate(265.4242 377.3894) rotate(-21.1795)"> </text><text class="cls-15" transform="translate(270.0775 375.5837) rotate(-23.0142)"> </text><text class="cls-15" transform="translate(274.6585 373.6355) rotate(-24.8424)"> </text><text class="cls-15" transform="matrix(0.8936, -0.4488, 0.4488, 0.8936, 279.1644, 371.5476)"> </text><text class="cls-15" transform="translate(283.6175 369.3074) rotate(-28.4903)"> </text><text class="cls-15" transform="translate(287.9886 366.9314) rotate(-30.3109)"> </text><text class="cls-15" transform="translate(292.2767 364.4226) rotate(-32.1254)"> </text><text class="cls-15" transform="matrix(0.8296, -0.5584, 0.5584, 0.8296, 296.4993, 361.7683)"> </text><text class="cls-15" transform="translate(300.6331 358.9841) rotate(-35.7617)"> </text><text class="cls-15" transform="matrix(0.7788, -0.6272, 0.6272, 0.7788, 304.9495, 355.9675)">3</text><text class="cls-15" transform="matrix(0.7288, -0.6848, 0.6848, 0.7288, 314.3031, 348.3962)">0</text><text class="cls-15" transform="matrix(0.6615, -0.75, 0.75, 0.6615, 323.2845, 340.0564)">%</text><text class="cls-15" transform="matrix(0.6061, -0.7954, 0.7954, 0.6061, 334.3909, 327.1111)"> </text><text class="cls-15" transform="translate(337.6009 322.989) rotate(-55.538)">1</text><text class="cls-15" transform="matrix(0.5337, -0.8457, 0.8457, 0.5337, 343.3245, 314.4988)">/</text><text class="cls-15" transform="translate(344.39 312.9558) rotate(-59.9601)">2</text><text class="cls-15" transform="translate(349.5218 303.9304) rotate(-62.8137)"> </text><text class="cls-15" transform="matrix(0.4198, -0.9076, 0.9076, 0.4198, 351.8831, 299.3826)">-</text><text class="cls-15" transform="translate(355.1019 292.3445) rotate(-67.5344)"> </text><text class="cls-15" transform="translate(357.1615 287.5066) rotate(-70.4193)">3</text><text class="cls-15" transform="matrix(0.2983, -0.9545, 0.9545, 0.2983, 360.5101, 277.8347)">/</text><text class="cls-15" transform="translate(361.012 276.4939) rotate(-74.7131)">4</text><text class="cls-15" transform="translate(91.7171 315.8718) rotate(-124.7843)"> </text><text class="cls-15" transform="matrix(-0.5448, -0.8386, 0.8386, -0.5448, 89.1126, 312.1296)"> </text><text class="cls-15" transform="matrix(-0.5185, -0.8551, 0.8551, -0.5185, 86.6229, 308.3044)"> </text><text class="cls-15" transform="translate(84.2498 304.3982) rotate(-119.4446)"> </text><text class="cls-15" transform="translate(82.0091 300.4372) rotate(-117.6653)"> </text><text class="cls-15" transform="translate(79.8885 296.4021) rotate(-115.8798)"> </text><text class="cls-15" transform="matrix(-0.4081, -0.9129, 0.9129, -0.4081, 77.8905, 292.2937)"> </text><text class="cls-15" transform="matrix(-0.3795, -0.9252, 0.9252, -0.3795, 76.0291, 288.1384)"> </text><text class="cls-15" transform="matrix(-0.3503, -0.9366, 0.9366, -0.3503, 74.2928, 283.9177)"> </text><text class="cls-15" transform="translate(72.6859 279.6296) rotate(-108.7069)"> </text><text class="cls-15" transform="translate(71.2176 275.3074) rotate(-106.9109)"> </text><text class="cls-15" transform="matrix(-0.2608, -0.9654, 0.9654, -0.2608, 69.8885, 270.9519)"> </text><text class="cls-15" transform="matrix(-0.2304, -0.9731, 0.9731, -0.2304, 68.6922, 266.5408)"> </text><text class="cls-15" transform="translate(67.6375 262.1003) rotate(-101.5308)"> </text><text class="cls-15" transform="translate(66.7225 257.6374) rotate(-99.7454)"> </text><text class="cls-15" transform="matrix(-0.1386, -0.9903, 0.9903, -0.1386, 65.9481, 253.1521)"> </text><text class="cls-15" transform="matrix(-0.1077, -0.9942, 0.9942, -0.1077, 65.3099, 248.6218)"> </text><text class="cls-15" transform="translate(64.8133 244.0769) rotate(-94.4075)"> </text><text class="cls-15" transform="matrix(-0.0463, -0.9989, 0.9989, -0.0463, 64.4608, 239.5466)"> </text><text class="cls-15" transform="translate(64.2459 234.9744) rotate(-90.9286)"> </text><text class="cls-15" transform="matrix(0.0162, -0.9999, 0.9999, 0.0162, 64.1659, 230.4163)"> </text><text class="cls-15" transform="translate(64.2332 225.8352) rotate(-87.3926)"> </text><text class="cls-15" transform="matrix(0.0763, -0.9971, 0.9971, 0.0763, 64.4378, 221.2663)"> </text><text class="cls-15" transform="matrix(0.1069, -0.9943, 0.9943, 0.1069, 64.7796, 216.7346)"> </text><text class="cls-15" transform="matrix(0.1378, -0.9905, 0.9905, 0.1378, 65.2655, 212.1838)"> </text><text class="cls-15" transform="translate(65.8885 207.6755) rotate(-80.2993)"> </text><text class="cls-15" transform="translate(66.6566 203.1555) rotate(-78.5026)"> </text><text class="cls-15" transform="translate(67.5565 198.7112) rotate(-76.7218)"> </text><text class="cls-15" transform="matrix(0.2601, -0.9656, 0.9656, 0.2601, 68.6029, 194.2595)"> </text><text class="cls-15" transform="translate(69.783 189.8616) rotate(-73.1336)"> </text><text class="cls-15" transform="translate(70.9647 185.6365) rotate(-70.1437)">6</text><text class="cls-15" transform="matrix(0.4087, -0.9127, 0.9127, 0.4087, 74.5575, 175.5989)">7</text><text class="cls-15" transform="matrix(0.4894, -0.872, 0.872, 0.4894, 78.8866, 165.5896)">%</text><text class="cls-15" transform="matrix(0.5478, -0.8366, 0.8366, 0.5478, 86.764, 151.9167)"> </text><text class="cls-15" transform="translate(89.1302 148.1721) rotate(-54.0561)">3</text><text class="cls-15" transform="matrix(0.6167, -0.7872, 0.7872, 0.6167, 94.869, 140.3801)">/</text><text class="cls-15" transform="matrix(0.6437, -0.7653, 0.7653, 0.6437, 95.3807, 139.5891)">4</text><text class="cls-15" transform="translate(101.6073 132.2678) rotate(-47.2097)"> </text><text class="cls-15" transform="translate(104.5369 128.9792) rotate(-44.3491)">o</text><text class="cls-15" transform="translate(111.8988 121.8157) rotate(-40.8682)">r</text><text class="cls-15" transform="matrix(0.7828, -0.6223, 0.6223, 0.7828, 117.8367, 116.7141)"> </text><text class="cls-15" transform="translate(120.9974 113.8791) rotate(-34.3541)">m</text><text class="cls-15" transform="translate(134.9925 104.4607) rotate(-29.1085)">o</text><text class="cls-15" transform="translate(143.9759 99.4856) rotate(-25.5962)">r</text><text class="cls-15" transform="translate(150.8963 96.1306) rotate(-22.2896)">e</text></g></g></g></svg>