<svg xmlns="http://www.w3.org/2000/svg" xmlns:xlink="http://www.w3.org/1999/xlink" viewBox="0 0 640 410"><defs><style>.cls-1{fill:none;}.cls-13,.cls-2{fill:#fff;}.cls-3{clip-path:url(#clip-path);}.cls-4,.cls-9{fill:#ffa600;}.cls-4,.cls-5,.cls-6,.cls-7{fill-rule:evenodd;}.cls-10,.cls-5{fill:#ff764a;}.cls-11,.cls-6{fill:#7a5195;}.cls-12,.cls-7{fill:#003f5c;}.cls-13,.cls-8{font-size:18px;font-family:Georgia;}</style><clipPath id="clip-path"><path class="cls-1" d="M395.0837,250.5543c27.7307-103.4924-33.6863-209.87-137.1787-237.6S48.0352,46.64,20.3045,150.1325s33.6863,209.87,137.1787,237.6005S367.353,354.0467,395.0837,250.5543Zm-302.3348-81.01a119,119,0,1,1,84.1457,145.7447A119,119,0,0,1,92.7489,169.5439Z"/></clipPath></defs><g id="Layer_2" data-name="Layer 2"><g id="Actual_Role_Breakdown" data-name="Actual Role Breakdown"><g id="background"><rect class="cls-2" width="640" height="410"/></g><g id="Chart"><g class="cls-3"><path class="cls-4" d="M207.6933,200.3465l99.07-158.5458c21.0149,13.1316,35.3243,26.2437,50.2375,46.0342Z"/><path class="cls-5" d="M207.6933,200.3465,357.0012,87.8349c22.37,29.6858,34.5975,62.39,37.19,99.47Z"/><path class="cls-6" d="M207.6933,200.3465l186.4983-13.0412c5.1858,74.16-28.64,137.7773-93.0214,174.9479Z"/><path class="cls-7" d="M207.6933,200.3465,301.17,362.2532c-89.4186,51.6258-203.7578,20.9887-255.3836-68.43S24.7978,90.0656,114.2164,38.44C175.0211,3.3342,247.2212,4.5945,306.7637,41.8007Z"/></g></g><g id="Legend"><text class="cls-8" transform="translate(488.3428 323.9368)">3/4 or more</text><text class="cls-8" transform="translate(488.3428 289.9369)">1/2 to 3/4</text><text class="cls-8" transform="translate(487.0708 256.1714)">1/4 to 1/2</text><text class="cls-8" transform="translate(487.0708 219.1714)">Less than 1/4</text><rect id="Swatch_1" data-name="Swatch 1" class="cls-9" x="450" y="199.8995" width="24.7508" height="24.7508" transform="translate(674.6502 -250.1005) rotate(90)"/><rect id="Swatch_2" data-name="Swatch 2" class="cls-10" x="450" y="236.2055" width="24.7508" height="24.7508" transform="translate(710.9563 -213.7945) rotate(90)"/><rect id="Swatch_3" data-name="Swatch 3" class="cls-11" x="450" y="270.277" width="24.7508" height="24.7508" transform="translate(745.0278 -179.723) rotate(90)"/><rect id="Swatch_4" data-name="Swatch 4" class="cls-12" x="450" y="304.3485" width="24.7508" height="24.7508" transform="translate(779.0993 -145.6515) rotate(90)"/></g><g id="Inner_Labels" data-name="Inner Labels"><text class="cls-13" transform="translate(52.2864 178.9567) rotate(96.9735)"> </text><text class="cls-13" transform="translate(51.7463 183.3903) rotate(95.3469)"> </text><text class="cls-13" transform="translate(51.3352 187.798) rotate(93.7397)"> </text><text class="cls-13" transform="translate(51.0457 192.2409) rotate(92.1313)"> </text><text class="cls-13" transform="translate(50.8987 196.5582) rotate(90.9286)"> </text><text class="cls-13" transform="matrix(0.018, 0.9998, -0.9998, 0.018, 50.842, 201.0519)"> </text><text class="cls-13" transform="translate(50.9221 205.4577) rotate(87.3814)"> </text><text class="cls-13" transform="translate(51.1267 209.8981) rotate(85.7734)"> </text><text class="cls-13" transform="matrix(0.1018, 0.9948, -0.9948, 0.1018, 51.4558, 214.3375)"> </text><text class="cls-13" transform="translate(51.9124 218.7731) rotate(82.5299)"> </text><text class="cls-13" transform="translate(52.49 223.1725) rotate(80.9074)"> </text><text class="cls-13" transform="translate(53.1941 227.5631) rotate(79.2768)"> </text><text class="cls-13" transform="matrix(0.2141, 0.9768, -0.9768, 0.2141, 54.0261, 231.9469)"> </text><text class="cls-13" transform="translate(54.9773 236.2829) rotate(76.0067)"> </text><text class="cls-13" transform="translate(56.0569 240.6051) rotate(74.3676)"> </text><text class="cls-13" transform="matrix(0.2968, 0.9549, -0.9549, 0.2968, 57.2542, 244.8795)"> </text><text class="cls-13" transform="matrix(0.324, 0.9461, -0.9461, 0.324, 58.5774, 249.1315)"> </text><text class="cls-13" transform="matrix(0.3509, 0.9364, -0.9364, 0.3509, 60.0178, 253.3327)"> </text><text class="cls-13" transform="translate(61.5842 257.5075) rotate(67.8201)"> </text><text class="cls-13" transform="translate(63.2644 261.6266) rotate(66.1855)"> </text><text class="cls-13" transform="translate(65.0696 265.7116) rotate(64.5455)"> </text><text class="cls-13" transform="matrix(0.4552, 0.8904, -0.8904, 0.4552, 66.9739, 269.7086)"> </text><text class="cls-13" transform="translate(69.0007 273.6705) rotate(61.2926)"> </text><text class="cls-13" transform="translate(71.135 277.5641) rotate(59.6679)"> </text><text class="cls-13" transform="matrix(0.5294, 0.8484, -0.8484, 0.5294, 73.3914, 281.4166)"> </text><text class="cls-13" transform="translate(75.7371 285.1745) rotate(56.4201)"> </text><text class="cls-13" transform="translate(78.2014 288.8834) rotate(54.797)"> </text><text class="cls-13" transform="matrix(0.5994, 0.8005, -0.8005, 0.5994, 80.7678, 292.5182)"> </text><text class="cls-13" transform="translate(83.4338 296.0768) rotate(51.5592)"> </text><text class="cls-13" transform="translate(86.197 299.5553) rotate(49.9439)"> </text><text class="cls-13" transform="translate(89.0559 302.9538) rotate(48.331)"> </text><text class="cls-13" transform="translate(92.0085 306.2692) rotate(46.7185)"> </text><text class="cls-13" transform="translate(95.0525 309.4996) rotate(45.1064)"> </text><text class="cls-13" transform="translate(98.2068 312.6647) rotate(43.4844)"> </text><text class="cls-13" transform="matrix(0.7446, 0.6675, -0.6675, 0.7446, 101.4294, 315.7174)"> </text><text class="cls-13" transform="translate(104.7366 318.6803) rotate(40.2585)"> </text><text class="cls-13" transform="matrix(0.781, 0.6245, -0.6245, 0.781, 108.1277, 321.5504)"> </text><text class="cls-13" transform="translate(111.6008 324.3258) rotate(37.0267)"> </text><text class="cls-13" transform="translate(115.1531 327.0026) rotate(35.4076)"> </text><text class="cls-13" transform="matrix(0.8311, 0.5561, -0.5561, 0.8311, 118.7834, 329.5817)"> </text><text class="cls-13" transform="translate(122.4656 332.0426) rotate(32.1685)"> </text><text class="cls-13" transform="matrix(0.8613, 0.5081, -0.5081, 0.8613, 126.2444, 334.4186)"> </text><text class="cls-13" transform="matrix(0.8754, 0.4835, -0.4835, 0.8754, 130.0706, 336.6735)"> </text><text class="cls-13" transform="translate(133.9646 338.8239) rotate(27.2848)"> </text><text class="cls-13" transform="translate(137.9255 340.8639) rotate(25.6506)"> </text><text class="cls-13" transform="translate(141.925 342.7829) rotate(24.0228)"> </text><text class="cls-13" transform="translate(145.9871 344.5914) rotate(22.3892)"> </text><text class="cls-13" transform="translate(150.1086 346.2877) rotate(20.7497)"> </text><text class="cls-13" transform="matrix(0.9449, 0.3275, -0.3275, 0.9449, 154.261, 347.86)"> </text><text class="cls-13" transform="translate(158.4685 349.3161) rotate(17.4767)"> </text><text class="cls-13" transform="translate(162.7302 350.6569) rotate(15.8323)"> </text><text class="cls-13" transform="matrix(0.9695, 0.2452, -0.2452, 0.9695, 167.0144, 351.8688)"> </text><text class="cls-13" transform="translate(171.3171 352.9567) rotate(12.5621)"> </text><text class="cls-13" transform="translate(175.6677 353.9245) rotate(10.9254)"> </text><text class="cls-13" transform="translate(180.0334 354.7653) rotate(9.2955)"> </text><text class="cls-13" transform="translate(184.4099 355.4811) rotate(7.6728)"> </text><text class="cls-13" transform="translate(188.8264 356.0729) rotate(6.0476)"> </text><text class="cls-13" transform="translate(193.2507 356.5407) rotate(4.4307)"> </text><text class="cls-13" transform="matrix(0.9988, 0.0492, -0.0492, 0.9988, 197.6785, 356.8834)"> </text><text class="cls-13" transform="translate(202.1086 357.0993) rotate(1.2251)"> </text><text class="cls-13" transform="matrix(0.9999, -0.0162, 0.0162, 0.9999, 206.6174, 357.2135)"> </text><text class="cls-13" transform="translate(210.9226 357.1647) rotate(-1.9387)"> </text><text class="cls-13" transform="translate(215.3445 357.0133) rotate(-3.536)"> </text><text class="cls-13" transform="matrix(0.996, -0.0896, 0.0896, 0.996, 219.7673, 356.7389)"> </text><text class="cls-13" transform="matrix(0.993, -0.1179, 0.1179, 0.993, 224.2175, 356.3375)"> </text><text class="cls-13" transform="matrix(0.9893, -0.146, 0.146, 0.9893, 228.6326, 355.8112)"> </text><text class="cls-13" transform="translate(233.0115 355.1647) rotate(-10.0154)"> </text><text class="cls-13" transform="matrix(0.9794, -0.202, 0.202, 0.9794, 237.4109, 354.3844)"> </text><text class="cls-13" transform="translate(241.7664 353.486) rotate(-13.2892)"> </text><text class="cls-13" transform="translate(246.1082 352.4577) rotate(-14.9307)"> </text><text class="cls-13" transform="translate(250.4031 351.3112) rotate(-16.5659)"> </text><text class="cls-13" transform="matrix(0.95, -0.3123, 0.3123, 0.95, 254.6511, 350.0465)"> </text><text class="cls-13" transform="translate(258.9021 348.6471) rotate(-19.8457)"> </text><text class="cls-13" transform="translate(263.072 347.1403) rotate(-21.4766)"> </text><text class="cls-13" transform="translate(267.2156 345.5094) rotate(-23.1135)"> </text><text class="cls-13" transform="translate(271.2996 343.7633) rotate(-24.7441)"> </text><text class="cls-13" transform="matrix(0.8959, -0.4443, 0.4443, 0.8959, 275.3503, 341.8942)"> </text><text class="cls-13" transform="translate(279.3386 339.9147) rotate(-28.0128)"> </text><text class="cls-13" transform="translate(283.2615 337.8278) rotate(-29.6398)"> </text><text class="cls-13" transform="translate(287.1189 335.6315) rotate(-31.2621)"> </text><text class="cls-13" transform="translate(290.906 333.3288) rotate(-32.8798)"> </text><text class="cls-13" transform="matrix(0.8241, -0.5665, 0.5665, 0.8241, 294.6462, 330.9098)"> </text><text class="cls-13" transform="translate(298.5623 328.2926) rotate(-37.2737)">3</text><text class="cls-13" transform="matrix(0.7527, -0.6584, 0.6584, 0.7527, 307.0984, 321.7682)">0</text><text class="cls-13" transform="matrix(0.6949, -0.7191, 0.7191, 0.6949, 315.3796, 314.6071)">%</text><text class="cls-13" transform="translate(325.8386 303.5231) rotate(-49.6343)"> </text><text class="cls-13" transform="translate(328.9275 299.9811) rotate(-52.3947)">1</text><text class="cls-13" transform="matrix(0.5595, -0.8288, 0.8288, 0.5595, 335.4158, 291.485)">/</text><text class="cls-13" transform="translate(340.4402 284.0631) rotate(-59.5591)">2</text><text class="cls-13" transform="translate(345.6814 274.9879) rotate(-62.335)"> </text><text class="cls-13" transform="translate(347.7957 270.983) rotate(-64.3385)">t</text><text class="cls-13" transform="translate(350.7117 264.9928) rotate(-67.4245)">o</text><text class="cls-13" transform="matrix(0.3398, -0.9405, 0.9405, 0.3398, 354.5027, 255.6911)"> </text><text class="cls-13" transform="translate(356.1628 251.278) rotate(-72.9336)">3</text><text class="cls-13" transform="translate(359.2498 241.0768) rotate(-76.5427)">/</text><text class="cls-13" transform="translate(361.3503 232.3385) rotate(-80.1537)">4</text><text class="cls-13" transform="translate(88.3743 285.9733) rotate(-124.8702)"> </text><text class="cls-13" transform="translate(86.0183 282.5983) rotate(-123.2675)"> </text><text class="cls-13" transform="translate(83.7556 279.1559) rotate(-121.6613)"> </text><text class="cls-13" transform="matrix(-0.5009, -0.8655, 0.8655, -0.5009, 81.6023, 275.6686)"> </text><text class="cls-13" transform="translate(79.53 272.0934) rotate(-118.447)"> </text><text class="cls-13" transform="matrix(-0.4515, -0.8923, 0.8923, -0.4515, 77.5686, 268.4821)"> </text><text class="cls-13" transform="matrix(-0.4262, -0.9046, 0.9046, -0.4262, 75.7068, 264.8092)"> </text><text class="cls-13" transform="matrix(-0.4005, -0.9163, 0.9163, -0.4005, 73.9456, 261.0788)"> </text><text class="cls-13" transform="translate(72.2976 257.3151) rotate(-111.9932)"> </text><text class="cls-13" transform="translate(70.7527 253.4987) rotate(-110.3746)"> </text><text class="cls-13" transform="translate(69.3127 249.6286) rotate(-108.7513)"> </text><text class="cls-13" transform="translate(67.9871 245.736) rotate(-107.1332)"> </text><text class="cls-13" transform="matrix(-0.2676, -0.9635, 0.9635, -0.2676, 66.7761, 241.82)"> </text><text class="cls-13" transform="translate(65.6658 237.8297) rotate(-103.8923)"> </text><text class="cls-13" transform="translate(64.678 233.8512) rotate(-102.2821)"> </text><text class="cls-13" transform="translate(63.7991 229.8288) rotate(-100.6666)"> </text><text class="cls-13" transform="translate(63.0359 225.7946) rotate(-99.0589)"> </text><text class="cls-13" transform="translate(62.3831 221.7204) rotate(-97.4477)"> </text><text class="cls-13" transform="translate(61.8464 217.6383) rotate(-95.8441)"> </text><text class="cls-13" transform="translate(61.4246 213.5495) rotate(-94.249)"> </text><text class="cls-13" transform="matrix(-0.0463, -0.9989, 0.9989, -0.0463, 61.116, 209.4274)"> </text><text class="cls-13" transform="translate(60.9216 205.3014) rotate(-91.0662)"> </text><text class="cls-13" transform="matrix(0.0162, -0.9999, 0.9999, 0.0162, 60.825, 201.2453)"> </text><text class="cls-13" transform="translate(60.8752 197.0695) rotate(-87.9141)"> </text><text class="cls-13" transform="matrix(0.064, -0.9979, 0.9979, 0.064, 61.0222, 192.9577)"> </text><text class="cls-13" transform="matrix(0.0918, -0.9958, 0.9958, 0.0918, 61.2825, 188.8468)"> </text><text class="cls-13" transform="matrix(0.1197, -0.9928, 0.9928, 0.1197, 61.658, 184.7384)"> </text><text class="cls-13" transform="translate(62.1497 180.6354) rotate(-81.5154)"> </text><text class="cls-13" transform="translate(62.7532 176.567) rotate(-79.9059)"> </text><text class="cls-13" transform="translate(63.4675 172.5353) rotate(-78.3008)"> </text><text class="cls-13" transform="translate(64.197 168.6325) rotate(-75.6048)">6</text><text class="cls-13" transform="translate(66.5613 159.3248) rotate(-71.758)">7</text><text class="cls-13" transform="translate(69.5364 149.9381) rotate(-67.0626)">%</text><text class="cls-13" transform="translate(75.2209 136.88) rotate(-63.51)"> </text><text class="cls-13" transform="matrix(0.4875, -0.8731, 0.8731, 0.4875, 76.9216, 133.297)">3</text><text class="cls-13" transform="translate(81.637 124.8717) rotate(-57.3895)">/</text><text class="cls-13" transform="translate(85.8967 118.1413) rotate(-53.9594)">4</text><text class="cls-13" transform="translate(91.6877 110.2824) rotate(-51.292)"> </text><text class="cls-13" transform="translate(94.1116 107.1481) rotate(-48.7154)">o</text><text class="cls-13" transform="translate(100.2551 100.1823) rotate(-45.5656)">r</text><text class="cls-13" transform="matrix(0.7263, -0.6873, 0.6873, 0.7263, 105.2068, 95.1632)"> </text><text class="cls-13" transform="translate(107.8542 92.379) rotate(-39.703)">m</text><text class="cls-13" transform="translate(119.6218 82.7384) rotate(-34.9885)">o</text><text class="cls-13" transform="translate(127.2214 77.4435) rotate(-31.834)">r</text><text class="cls-13" transform="matrix(0.8758, -0.4827, 0.4827, 0.8758, 133.1165, 73.7501)">e</text></g></g></g></svg>