<svg xmlns="http://www.w3.org/2000/svg" xmlns:xlink="http://www.w3.org/1999/xlink" viewBox="0 0 640 435.9991"><defs><style>.cls-1{fill:none;}.cls-12,.cls-2{fill:#fff;}.cls-3{clip-path:url(#clip-path);}.cls-4,.cls-9{fill:#003f5c;}.cls-4,.cls-5,.cls-6{fill-rule:evenodd;}.cls-10,.cls-5{fill:#ffa600;}.cls-11,.cls-6{fill:#7a5195;}.cls-7{font-size:28px;}.cls-12,.cls-7,.cls-8{font-family:Georgia;}.cls-12,.cls-8{font-size:20px;}</style><clipPath id="clip-path"><path class="cls-1" d="M179.7462,35.2281C73.9221,51.989,1.722,151.3638,18.4829,257.188s116.1357,178.0241,221.96,161.2632,178.0241-116.1357,161.2632-221.96S285.57,18.4673,179.7462,35.2281ZM228.71,344.3746A119,119,0,1,1,327.6294,208.224,119,119,0,0,1,228.71,344.3746Z"/></clipPath></defs><title>8</title><g id="Layer_2" data-name="Layer 2"><g id="Work_Location" data-name="Work Location"><g id="background"><rect class="cls-2" width="640" height="430"/></g><g id="Chart"><g class="cls-3"><path class="cls-4" d="M210.0976,226.8392,24.9633,200.82C39.3332,98.5734,133.87,27.335,236.1166,41.7049S409.6018,150.6113,395.232,252.8581c-3.4488,24.5393-9.6072,42.9446-21.6209,64.6181Z"/><path class="cls-5" d="M210.0976,226.8392l163.5135,90.637c-34.0391,61.408-93.3023,96.3167-163.5135,96.3167Z"/><path class="cls-6" d="M210.0976,226.8392V413.7929c-103.2517,0-186.9537-83.702-186.9537-186.9537A196.9905,196.9905,0,0,1,24.9633,200.82Z"/></g></g><g id="Headline"><text id="Headline-2" data-name="Headline" class="cls-7" transform="translate(124.5594 43.5362) rotate(-21.1586)">W</text><text class="cls-7" transform="translate(149.007 34.3364) rotate(-15.4323)">o</text><text class="cls-7" transform="matrix(0.9787, -0.2055, 0.2055, 0.9787, 162.8186, 30.5576)">r</text><text class="cls-7" transform="translate(173.3014 28.278) rotate(-8.2981)">k</text><text class="cls-7" transform="matrix(0.9956, -0.0939, 0.0939, 0.9956, 187.5405, 26.2905)"> </text><text class="cls-7" transform="translate(193.5833 25.5638) rotate(-2.255)">L</text><text class="cls-7" transform="translate(209.5872 24.9343) rotate(1.957)">o</text><text class="cls-7" transform="matrix(0.9951, 0.0985, -0.0985, 0.9951, 223.9064, 25.4364)">c</text><text class="cls-7" transform="translate(235.7959 26.5668) rotate(9.2397)">a</text><text class="cls-7" transform="matrix(0.9765, 0.2154, -0.2154, 0.9765, 249.0513, 28.7668)">t</text><text class="cls-7" transform="translate(257.9841 30.7416) rotate(14.8465)">i</text><text class="cls-7" transform="translate(265.3092 32.5666) rotate(17.9919)">o</text><text class="cls-7" transform="matrix(0.9255, 0.3787, -0.3787, 0.9255, 278.819, 36.8903)">n</text></g><g id="Legend"><text class="cls-8" transform="translate(488.5702 317.3467)">Combo</text><text class="cls-8" transform="translate(487.2982 283.5813)">Remote</text><text class="cls-8" transform="translate(487.2982 246.5813)">Onsite</text><rect id="Swatch_1" data-name="Swatch 1" class="cls-9" x="450.2275" y="227.3093" width="24.7508" height="24.7508" transform="translate(702.2876 -222.9182) rotate(90)"/><rect id="Swatch_2" data-name="Swatch 2" class="cls-10" x="450.2275" y="263.6154" width="24.7508" height="24.7508" transform="translate(738.5937 -186.6122) rotate(90)"/><rect id="Swatch_3" data-name="Swatch 3" class="cls-11" x="450.2275" y="297.6869" width="24.7508" height="24.7508" transform="translate(772.6652 -152.5407) rotate(90)"/></g><g id="Inner_Labels" data-name="Inner Labels"><text class="cls-12" transform="translate(54.678 205.4886) rotate(96.8721)"> </text><text class="cls-12" transform="matrix(-0.0881, 0.9961, -0.9961, -0.0881, 54.0837, 210.4505)"> </text><text class="cls-12" transform="translate(53.6487 215.3953) rotate(93.2532)"> </text><text class="cls-12" transform="matrix(-0.0255, 0.9997, -0.9997, -0.0255, 53.3694, 220.3524)"> </text><text class="cls-12" transform="matrix(0.0162, 0.9999, -0.9999, 0.0162, 53.2205, 225.4608)"> </text><text class="cls-12" transform="translate(53.2742 230.2694) rotate(87.9026)"> </text><text class="cls-12" transform="matrix(0.0902, 0.9959, -0.9959, 0.0902, 53.3938, 235.5623)">2</text><text class="cls-12" transform="translate(54.5022 247.5506) rotate(80.356)">7</text><text class="cls-12" transform="translate(56.5666 260.078) rotate(74.8357)">%</text><text class="cls-12" transform="translate(61.2571 276.4842) rotate(70.6739)"> </text><text class="cls-12" transform="matrix(0.3871, 0.922, -0.922, 0.3871, 62.9353, 281.5858)">C</text><text class="cls-12" transform="matrix(0.4603, 0.8878, -0.8878, 0.4603, 68.2888, 294.1444)">o</text><text class="cls-12" transform="matrix(0.5443, 0.8389, -0.8389, 0.5443, 73.637, 304.7078)">m</text><text class="cls-12" transform="translate(83.9822 320.2645) rotate(51.3881)">b</text><text class="cls-12" transform="translate(91.3547 329.3514) rotate(48.1066)">i</text><text class="cls-12" transform="matrix(0.7108, 0.7034, -0.7034, 0.7108, 95.5769, 334.1659)">n</text><text class="cls-12" transform="translate(104.5339 342.9471) rotate(40.462)">a</text><text class="cls-12" transform="translate(112.6086 349.7577) rotate(37.1985)">t</text><text class="cls-12" transform="matrix(0.8215, 0.5702, -0.5702, 0.8215, 118.364, 354.1034)">i</text><text class="cls-12" transform="matrix(0.8521, 0.5233, -0.5233, 0.8521, 123.5398, 357.7625)">o</text><text class="cls-12" transform="translate(133.406 363.8104) rotate(27.1322)">n</text><text class="cls-12" transform="translate(144.4031 369.3192) rotate(23.9021)"> </text><text class="cls-12" transform="matrix(0.9267, 0.3757, -0.3757, 0.9267, 148.9612, 371.3368)"> </text><text class="cls-12" transform="translate(153.5671 373.201) rotate(20.2425)"> </text><text class="cls-12" transform="translate(158.2449 374.9237) rotate(18.408)"> </text><text class="cls-12" transform="translate(162.9626 376.492) rotate(16.5773)"> </text><text class="cls-12" transform="translate(167.7478 377.9129) rotate(14.7407)"> </text><text class="cls-12" transform="matrix(0.9747, 0.2234, -0.2234, 0.9747, 172.5657, 379.1776)"> </text><text class="cls-12" transform="translate(177.4128 380.287) rotate(11.0822)"> </text><text class="cls-12" transform="matrix(0.987, 0.1609, -0.1609, 0.987, 182.2859, 381.2391)"> </text><text class="cls-12" transform="matrix(0.9916, 0.1294, -0.1294, 0.9916, 187.2121, 382.0389)"> </text><text class="cls-12" transform="translate(192.1277 382.6786) rotate(5.6291)"> </text><text class="cls-12" transform="matrix(0.9978, 0.0666, -0.0666, 0.9978, 197.0896, 383.1659)"> </text><text class="cls-12" transform="translate(202.0334 383.493) rotate(2.0296)"> </text><text class="cls-12" transform="translate(206.8957 383.6375) rotate(0.9289)"> </text><text class="cls-12" transform="translate(211.949 383.6854) rotate(-1.5307)"> </text><text class="cls-12" transform="translate(216.9109 383.5516) rotate(-3.3214)"> </text><text class="cls-12" transform="matrix(0.996, -0.0892, 0.0892, 0.996, 221.866, 383.2616)"> </text><text class="cls-12" transform="translate(227.1218 382.8661) rotate(-8.2138)">1</text><text class="cls-12" transform="matrix(0.9755, -0.22, 0.22, 0.9755, 239.0505, 381.1209)">7</text><text class="cls-12" transform="matrix(0.9497, -0.313, 0.313, 0.9497, 251.4646, 378.3856)">%</text><text class="cls-12" transform="matrix(0.9245, -0.3811, 0.3811, 0.9245, 267.5915, 372.8231)"> </text><text class="cls-12" transform="matrix(0.8982, -0.4396, 0.4396, 0.8982, 272.6462, 370.8787)">R</text><text class="cls-12" transform="translate(285.9509 364.2303) rotate(-30.721)">e</text><text class="cls-12" transform="matrix(0.8085, -0.5885, 0.5885, 0.8085, 295.1804, 358.9071)">m</text><text class="cls-12" transform="matrix(0.7479, -0.6638, 0.6638, 0.7479, 310.1404, 347.7498)">o</text><text class="cls-12" transform="translate(318.5544 340.1825) rotate(-45)">t</text><text class="cls-12" transform="translate(323.7917 334.9813) rotate(-48.1809)">e</text><text class="cls-12" transform="matrix(0.63, -0.7766, 0.7766, 0.63, 330.4353, 327.4549)"> </text><text class="cls-12" transform="translate(90.7839 312.4891) rotate(-124.7843)"> </text><text class="cls-12" transform="matrix(-0.5448, -0.8386, 0.8386, -0.5448, 88.1794, 308.7469)"> </text><text class="cls-12" transform="matrix(-0.5185, -0.8551, 0.8551, -0.5185, 85.6897, 304.9217)"> </text><text class="cls-12" transform="translate(83.3166 301.0155) rotate(-119.4446)"> </text><text class="cls-12" transform="translate(81.0759 297.0545) rotate(-117.6653)"> </text><text class="cls-12" transform="translate(78.9553 293.0194) rotate(-115.8798)"> </text><text class="cls-12" transform="matrix(-0.4081, -0.9129, 0.9129, -0.4081, 76.9573, 288.911)"> </text><text class="cls-12" transform="matrix(-0.3795, -0.9252, 0.9252, -0.3795, 75.0959, 284.7557)"> </text><text class="cls-12" transform="matrix(-0.3503, -0.9366, 0.9366, -0.3503, 73.3596, 280.535)"> </text><text class="cls-12" transform="translate(71.7527 276.2469) rotate(-108.7069)"> </text><text class="cls-12" transform="translate(70.2844 271.9246) rotate(-106.9109)"> </text><text class="cls-12" transform="matrix(-0.2608, -0.9654, 0.9654, -0.2608, 68.9553, 267.5692)"> </text><text class="cls-12" transform="matrix(-0.2304, -0.9731, 0.9731, -0.2304, 67.759, 263.158)"> </text><text class="cls-12" transform="translate(66.7043 258.7176) rotate(-101.5308)"> </text><text class="cls-12" transform="translate(65.7893 254.2547) rotate(-99.7454)"> </text><text class="cls-12" transform="matrix(-0.1386, -0.9903, 0.9903, -0.1386, 65.0149, 249.7694)"> </text><text class="cls-12" transform="matrix(-0.1077, -0.9942, 0.9942, -0.1077, 64.3767, 245.2391)"> </text><text class="cls-12" transform="translate(63.8801 240.6942) rotate(-94.4075)"> </text><text class="cls-12" transform="matrix(-0.0463, -0.9989, 0.9989, -0.0463, 63.5276, 236.1639)"> </text><text class="cls-12" transform="translate(63.3127 231.5916) rotate(-90.9286)"> </text><text class="cls-12" transform="matrix(0.0162, -0.9999, 0.9999, 0.0162, 63.2327, 227.0335)"> </text><text class="cls-12" transform="translate(63.3 222.4525) rotate(-87.3926)"> </text><text class="cls-12" transform="matrix(0.0763, -0.9971, 0.9971, 0.0763, 63.5046, 217.8836)"> </text><text class="cls-12" transform="matrix(0.1069, -0.9943, 0.9943, 0.1069, 63.8464, 213.3519)"> </text><text class="cls-12" transform="matrix(0.1378, -0.9905, 0.9905, 0.1378, 64.3323, 208.8011)"> </text><text class="cls-12" transform="translate(64.9553 204.2928) rotate(-80.2993)"> </text><text class="cls-12" transform="translate(65.7234 199.7728) rotate(-78.5026)"> </text><text class="cls-12" transform="translate(66.6233 195.3285) rotate(-76.7218)"> </text><text class="cls-12" transform="matrix(0.2601, -0.9656, 0.9656, 0.2601, 67.6697, 190.8768)"> </text><text class="cls-12" transform="translate(68.8498 186.4788) rotate(-73.1336)"> </text><text class="cls-12" transform="translate(70.1711 182.1087) rotate(-71.3375)"> </text><text class="cls-12" transform="translate(71.6321 177.7694) rotate(-69.537)"> </text><text class="cls-12" transform="matrix(0.3786, -0.9256, 0.9256, 0.3786, 73.2146, 173.5174)"> </text><text class="cls-12" transform="translate(74.9451 169.2762) rotate(-65.9558)"> </text><text class="cls-12" transform="matrix(0.4358, -0.9, 0.9, 0.4358, 76.8025, 165.1019)"> </text><text class="cls-12" transform="translate(78.7859 160.9964) rotate(-62.3784)"> </text><text class="cls-12" transform="translate(80.8918 156.9627) rotate(-60.5989)"> </text><text class="cls-12" transform="translate(83.1326 152.9784) rotate(-58.8138)"> </text><text class="cls-12" transform="translate(85.4924 149.0716) rotate(-57.0336)"> </text><text class="cls-12" transform="translate(87.97 145.245) rotate(-55.2588)"> </text><text class="cls-12" transform="translate(90.5618 141.5003) rotate(-53.4877)"> </text><text class="cls-12" transform="translate(93.282 137.8187) rotate(-51.709)"> </text><text class="cls-12" transform="matrix(0.6437, -0.7653, 0.7653, 0.6437, 96.113, 134.2259)"> </text><text class="cls-12" transform="translate(99.0359 130.7454) rotate(-48.1703)"> </text><text class="cls-12" transform="translate(102.0818 127.3363) rotate(-46.398)"> </text><text class="cls-12" transform="translate(105.2302 124.0247) rotate(-44.6261)"> </text><text class="cls-12" transform="translate(108.4807 120.8109) rotate(-42.8545)"> </text><text class="cls-12" transform="matrix(0.7537, -0.6573, 0.6573, 0.7537, 111.8088, 117.7166)"> </text><text class="cls-12" transform="matrix(0.7736, -0.6336, 0.6336, 0.7736, 115.2527, 114.7088)"> </text><text class="cls-12" transform="matrix(0.7929, -0.6093, 0.6093, 0.7929, 118.7908, 111.8055)"> </text><text class="cls-12" transform="translate(122.3967 109.0291) rotate(-35.7724)"> </text><text class="cls-12" transform="matrix(0.8291, -0.559, 0.559, 0.8291, 126.1135, 106.347)"> </text><text class="cls-12" transform="matrix(0.8461, -0.533, 0.533, 0.8461, 129.8923, 103.7938)"> </text><text class="cls-12" transform="matrix(0.8623, -0.5065, 0.5065, 0.8623, 133.7546, 101.3563)"> </text><text class="cls-12" transform="matrix(0.8775, -0.4795, 0.4795, 0.8775, 137.6721, 99.0496)"> </text><text class="cls-12" transform="translate(141.6916 96.849) rotate(-26.8604)"> </text><text class="cls-12" transform="matrix(0.9058, -0.4238, 0.4238, 0.9058, 145.761, 94.784)"> </text><text class="cls-12" transform="translate(149.8762 92.8534) rotate(-23.2884)"> </text><text class="cls-12" transform="translate(154.0603 91.0477) rotate(-21.4984)"> </text><text class="cls-12" transform="translate(158.3118 89.369) rotate(-19.7015)"> </text><text class="cls-12" transform="translate(162.4114 87.7996) rotate(-16.711)">5</text><text class="cls-12" transform="matrix(0.9762, -0.2169, 0.2169, 0.9762, 172.5994, 84.7176)">6</text><text class="cls-12" transform="translate(182.8498 82.2913) rotate(-7.4138)">%</text><text class="cls-12" transform="translate(198.5154 80.4305) rotate(-3.5244)"> </text><text class="cls-12" transform="matrix(0.9999, 0.0162, -0.0162, 0.9999, 202.696, 79.8792)">O</text><text class="cls-12" transform="matrix(0.9963, 0.0857, -0.0857, 0.9963, 216.9665, 80.0409)">n</text><text class="cls-12" transform="matrix(0.9885, 0.151, -0.151, 0.9885, 228.1912, 81.0404)">s</text><text class="cls-12" transform="translate(236.3445 82.3099) rotate(11.3739)">i</text><text class="cls-12" transform="matrix(0.9714, 0.2376, -0.2376, 0.9714, 241.7624, 83.3817)">t</text><text class="cls-12" transform="translate(248.0554 84.8704) rotate(16.8334)">e</text></g></g></g></svg>