<svg xmlns="http://www.w3.org/2000/svg" xmlns:xlink="http://www.w3.org/1999/xlink" viewBox="0 0 640 400"><defs><style>.cls-1{fill:none;}.cls-11,.cls-2{fill:#fff;}.cls-3{clip-path:url(#clip-path);}.cls-4,.cls-8{fill:#003f5c;}.cls-4,.cls-5,.cls-6{fill-rule:evenodd;}.cls-5,.cls-9{fill:#ffa600;}.cls-10,.cls-6{fill:#7a5195;}.cls-11,.cls-7{font-size:18px;font-family:Georgia;}</style><clipPath id="clip-path"><path class="cls-1" d="M179.7462,5.3491C73.9221,22.11,1.722,121.4848,18.4829,227.309s116.1357,178.0241,221.96,161.2632,178.0241-116.1357,161.2632-221.96S285.57-11.4118,179.7462,5.3491ZM228.71,314.4956A119,119,0,1,1,327.6294,178.345,119,119,0,0,1,228.71,314.4956Z"/></clipPath></defs><g id="Layer_2" data-name="Layer 2"><g id="Work_Location" data-name="Work Location"><g id="background"><rect class="cls-2" width="640" height="400"/></g><g id="Chart"><g class="cls-3"><path class="cls-4" d="M210.0976,196.96,24.9633,170.9413C39.3332,68.6944,133.87-2.544,236.1166,11.8259S409.6018,120.7323,395.232,222.9791c-3.4488,24.5393-9.6072,42.9446-21.6209,64.6181Z"/><path class="cls-5" d="M210.0976,196.96l163.5135,90.637c-34.0391,61.408-93.3023,96.3167-163.5135,96.3167Z"/><path class="cls-6" d="M210.0976,196.96V383.9139c-103.2517,0-186.9537-83.702-186.9537-186.9537a196.9893,196.9893,0,0,1,1.8194-26.0189Z"/></g></g><g id="Legend"><text class="cls-7" transform="translate(488.5702 287.4677)">Combo</text><text class="cls-7" transform="translate(487.2982 253.7023)">Remote</text><text class="cls-7" transform="translate(487.2982 216.7023)">Onsite</text><rect id="Swatch_1" data-name="Swatch 1" class="cls-8" x="450.2275" y="197.4303" width="24.7508" height="24.7508" transform="translate(672.4086 -252.7972) rotate(90)"/><rect id="Swatch_2" data-name="Swatch 2" class="cls-9" x="450.2275" y="233.7364" width="24.7508" height="24.7508" transform="translate(708.7147 -216.4912) rotate(90)"/><rect id="Swatch_3" data-name="Swatch 3" class="cls-10" x="450.2275" y="267.8079" width="24.7508" height="24.7508" transform="translate(742.7862 -182.4197) rotate(90)"/></g><g id="Inner_Labels" data-name="Inner Labels"><text class="cls-11" transform="translate(54.6868 175.574) rotate(96.9735)"> </text><text class="cls-11" transform="translate(54.1467 180.0076) rotate(95.3469)"> </text><text class="cls-11" transform="translate(53.7356 184.4153) rotate(93.7397)"> </text><text class="cls-11" transform="translate(53.446 188.8581) rotate(92.1313)"> </text><text class="cls-11" transform="translate(53.2991 193.1755) rotate(90.9286)"> </text><text class="cls-11" transform="matrix(0.018, 0.9998, -0.9998, 0.018, 53.2424, 197.6692)"> </text><text class="cls-11" transform="translate(53.3225 202.0749) rotate(87.3814)"> </text><text class="cls-11" transform="translate(53.5271 206.5154) rotate(85.7734)"> </text><text class="cls-11" transform="matrix(0.1018, 0.9948, -0.9948, 0.1018, 53.8562, 210.9548)"> </text><text class="cls-11" transform="translate(54.3127 215.3904) rotate(82.5299)"> </text><text class="cls-11" transform="translate(54.8904 219.7898) rotate(80.9074)"> </text><text class="cls-11" transform="translate(55.573 224.4431) rotate(78.1213)">2</text><text class="cls-11" transform="translate(57.8088 234.9949) rotate(74.0891)">7</text><text class="cls-11" transform="matrix(0.3559, 0.9345, -0.9345, 0.3559, 60.8581, 245.8923)">%</text><text class="cls-11" transform="translate(66.469 260.1023) rotate(65.4416)"> </text><text class="cls-11" transform="translate(68.3777 264.4831) rotate(62.3672)">C</text><text class="cls-11" transform="matrix(0.5263, 0.8503, -0.8503, 0.5263, 74.0906, 275.2732)">o</text><text class="cls-11" transform="matrix(0.598, 0.8015, -0.8015, 0.598, 79.5701, 284.3074)">m</text><text class="cls-11" transform="matrix(0.6658, 0.7461, -0.7461, 0.6658, 89.6799, 297.5857)">b</text><text class="cls-11" transform="translate(96.717 305.362) rotate(45.32)">i</text><text class="cls-11" transform="matrix(0.7399, 0.6727, -0.6727, 0.7399, 100.6829, 309.4587)">n</text><text class="cls-11" transform="translate(108.9963 316.9568) rotate(38.4942)">a</text><text class="cls-11" transform="translate(116.4358 322.8142) rotate(35.5684)">t</text><text class="cls-11" transform="translate(121.6721 326.5417) rotate(33.3969)">i</text><text class="cls-11" transform="translate(126.3855 329.7048) rotate(30.5162)">o</text><text class="cls-11" transform="matrix(0.8944, 0.4472, -0.4472, 0.8944, 135.2854, 334.9441)">n</text><text class="cls-11" transform="translate(145.1658 339.7859) rotate(23.6826)"> </text><text class="cls-11" transform="translate(149.2395 341.573) rotate(22.0487)"> </text><text class="cls-11" transform="translate(153.3743 343.2439) rotate(20.4082)"> </text><text class="cls-11" transform="translate(157.5378 344.7917) rotate(18.7733)"> </text><text class="cls-11" transform="translate(161.7571 346.2243) rotate(17.1334)"> </text><text class="cls-11" transform="translate(166.0002 347.531) rotate(15.4987)"> </text><text class="cls-11" transform="translate(170.2947 348.7204) rotate(13.8592)"> </text><text class="cls-11" transform="translate(174.6081 349.782) rotate(12.2259)"> </text><text class="cls-11" transform="translate(178.968 350.7243) rotate(10.588)"> </text><text class="cls-11" transform="translate(183.3415 351.5417) rotate(8.9574)"> </text><text class="cls-11" transform="matrix(0.9918, 0.1277, -0.1277, 0.9918, 187.7268, 352.2312)"> </text><text class="cls-11" transform="translate(192.1516 352.7986) rotate(5.7079)"> </text><text class="cls-11" transform="translate(196.552 353.238) rotate(4.1022)"> </text><text class="cls-11" transform="translate(200.9875 353.5544) rotate(2.4937)"> </text><text class="cls-11" transform="translate(205.3904 353.7439) rotate(0.9289)"> </text><text class="cls-11" transform="matrix(0.9999, -0.0162, 0.0162, 0.9999, 209.8757, 353.822)"> </text><text class="cls-11" transform="matrix(0.9992, -0.0396, 0.0396, 0.9992, 214.2351, 353.7605)"> </text><text class="cls-11" transform="translate(218.6824 353.5827) rotate(-3.8762)"> </text><text class="cls-11" transform="translate(223.0974 353.2829) rotate(-5.4827)"> </text><text class="cls-11" transform="matrix(0.9923, -0.1238, 0.1238, 0.9923, 227.5417, 352.8552)"> </text><text class="cls-11" transform="translate(231.949 352.3035) rotate(-8.7321)"> </text><text class="cls-11" transform="matrix(0.9837, -0.1799, 0.1799, 0.9837, 236.3494, 351.6267)"> </text><text class="cls-11" transform="matrix(0.9738, -0.2276, 0.2276, 0.9738, 240.991, 350.8406)">1</text><text class="cls-11" transform="translate(251.4597 348.3777) rotate(-17.1776)">7</text><text class="cls-11" transform="translate(262.3162 345.0779) rotate(-22.1256)">%</text><text class="cls-11" transform="translate(276.408 339.1482) rotate(-25.8365)"> </text><text class="cls-11" transform="translate(280.7673 337.154) rotate(-29.1087)">R</text><text class="cls-11" transform="matrix(0.8363, -0.5482, 0.5482, 0.8363, 292.3318, 330.6062)">e</text><text class="cls-11" transform="matrix(0.7879, -0.6158, 0.6158, 0.7879, 300.3572, 325.4822)">m</text><text class="cls-11" transform="translate(313.3845 315.0876) rotate(-42.9508)">o</text><text class="cls-11" transform="matrix(0.6947, -0.7193, 0.7193, 0.6947, 320.7537, 308.1482)">t</text><text class="cls-11" transform="matrix(0.6581, -0.7529, 0.7529, 0.6581, 325.3601, 303.4089)">e</text><text class="cls-11" transform="translate(331.2263 296.6179) rotate(-51.3131)"> </text><text class="cls-11" transform="translate(90.7746 282.5906) rotate(-124.8702)"> </text><text class="cls-11" transform="translate(88.4187 279.2156) rotate(-123.2675)"> </text><text class="cls-11" transform="translate(86.156 275.7732) rotate(-121.6613)"> </text><text class="cls-11" transform="matrix(-0.5009, -0.8655, 0.8655, -0.5009, 84.0027, 272.2859)"> </text><text class="cls-11" transform="translate(81.9304 268.7107) rotate(-118.447)"> </text><text class="cls-11" transform="matrix(-0.4515, -0.8923, 0.8923, -0.4515, 79.969, 265.0993)"> </text><text class="cls-11" transform="matrix(-0.4262, -0.9046, 0.9046, -0.4262, 78.1072, 261.4265)"> </text><text class="cls-11" transform="matrix(-0.4005, -0.9163, 0.9163, -0.4005, 76.3459, 257.696)"> </text><text class="cls-11" transform="translate(74.698 253.9324) rotate(-111.9932)"> </text><text class="cls-11" transform="translate(73.1531 250.116) rotate(-110.3746)"> </text><text class="cls-11" transform="translate(71.7131 246.2458) rotate(-108.7513)"> </text><text class="cls-11" transform="translate(70.3874 242.3533) rotate(-107.1332)"> </text><text class="cls-11" transform="matrix(-0.2676, -0.9635, 0.9635, -0.2676, 69.1765, 238.4372)"> </text><text class="cls-11" transform="translate(68.0662 234.447) rotate(-103.8923)"> </text><text class="cls-11" transform="translate(67.0784 230.4685) rotate(-102.2821)"> </text><text class="cls-11" transform="translate(66.1995 226.446) rotate(-100.6666)"> </text><text class="cls-11" transform="translate(65.4363 222.4118) rotate(-99.0589)"> </text><text class="cls-11" transform="translate(64.7834 218.3376) rotate(-97.4477)"> </text><text class="cls-11" transform="translate(64.2468 214.2556) rotate(-95.8441)"> </text><text class="cls-11" transform="translate(63.8249 210.1667) rotate(-94.249)"> </text><text class="cls-11" transform="matrix(-0.0463, -0.9989, 0.9989, -0.0463, 63.5163, 206.0447)"> </text><text class="cls-11" transform="translate(63.322 201.9187) rotate(-91.0662)"> </text><text class="cls-11" transform="matrix(0.0162, -0.9999, 0.9999, 0.0162, 63.2253, 197.8625)"> </text><text class="cls-11" transform="translate(63.2756 193.6868) rotate(-87.9141)"> </text><text class="cls-11" transform="matrix(0.064, -0.9979, 0.9979, 0.064, 63.4226, 189.5749)"> </text><text class="cls-11" transform="matrix(0.0918, -0.9958, 0.9958, 0.0918, 63.6829, 185.4641)"> </text><text class="cls-11" transform="matrix(0.1197, -0.9928, 0.9928, 0.1197, 64.0583, 181.3557)"> </text><text class="cls-11" transform="translate(64.55 177.2527) rotate(-81.5154)"> </text><text class="cls-11" transform="translate(65.1536 173.1843) rotate(-79.9059)"> </text><text class="cls-11" transform="translate(65.8679 169.1526) rotate(-78.3008)"> </text><text class="cls-11" transform="translate(66.7034 165.1033) rotate(-76.6775)"> </text><text class="cls-11" transform="translate(67.6496 161.095) rotate(-75.0586)"> </text><text class="cls-11" transform="translate(68.7034 157.1296) rotate(-73.4446)"> </text><text class="cls-11" transform="translate(69.8738 153.1814) rotate(-71.8245)"> </text><text class="cls-11" transform="matrix(0.3388, -0.9409, 0.9409, 0.3388, 71.1609, 149.2536)"> </text><text class="cls-11" transform="translate(72.5437 145.4006) rotate(-68.5895)"> </text><text class="cls-11" transform="translate(74.052 141.5461) rotate(-66.9638)"> </text><text class="cls-11" transform="translate(75.654 137.7707) rotate(-65.3543)"> </text><text class="cls-11" transform="matrix(0.4425, -0.8968, 0.8968, 0.4425, 77.3699, 134.0242)"> </text><text class="cls-11" transform="matrix(0.4675, -0.884, 0.884, 0.4675, 79.1872, 130.3347)"> </text><text class="cls-11" transform="matrix(0.4922, -0.8705, 0.8705, 0.4922, 81.1169, 126.6789)"> </text><text class="cls-11" transform="translate(83.1321 123.1086) rotate(-58.9112)"> </text><text class="cls-11" transform="translate(85.258 119.5764) rotate(-57.3034)"> </text><text class="cls-11" transform="matrix(0.5635, -0.8261, 0.8261, 0.5635, 87.4797, 116.1101)"> </text><text class="cls-11" transform="translate(89.7947 112.7097) rotate(-54.0991)"> </text><text class="cls-11" transform="matrix(0.6087, -0.7934, 0.7934, 0.6087, 92.2024, 109.3791)"> </text><text class="cls-11" transform="translate(94.717 106.0969) rotate(-50.8959)"> </text><text class="cls-11" transform="translate(97.3039 102.9089) rotate(-49.303)"> </text><text class="cls-11" transform="matrix(0.673, -0.7396, 0.7396, 0.673, 99.9949, 99.7751)"> </text><text class="cls-11" transform="translate(102.7537 96.738) rotate(-46.1098)"> </text><text class="cls-11" transform="translate(105.615 93.76) rotate(-44.5087)"> </text><text class="cls-11" transform="translate(108.5579 90.8625) rotate(-42.908)"> </text><text class="cls-11" transform="translate(111.5613 88.0666) rotate(-41.3167)"> </text><text class="cls-11" transform="matrix(0.7692, -0.639, 0.639, 0.7692, 114.6628, 85.3367)"> </text><text class="cls-11" transform="translate(117.8191 82.7097) rotate(-38.1197)"> </text><text class="cls-11" transform="translate(121.0715 80.155) rotate(-36.5123)"> </text><text class="cls-11" transform="matrix(0.82, -0.5723, 0.5723, 0.82, 124.3747, 77.7048)"> </text><text class="cls-11" transform="matrix(0.8357, -0.5492, 0.5492, 0.8357, 127.7483, 75.3474)"> </text><text class="cls-11" transform="translate(131.1897 73.0813) rotate(-31.7046)"> </text><text class="cls-11" transform="matrix(0.8652, -0.5014, 0.5014, 0.8652, 134.698, 70.9109)"> </text><text class="cls-11" transform="translate(138.0842 68.8596) rotate(-27.4152)">5</text><text class="cls-11" transform="translate(146.6057 64.4202) rotate(-23.6503)">6</text><text class="cls-11" transform="translate(155.2712 60.4963) rotate(-19.0169)">%</text><text class="cls-11" transform="translate(168.7541 56.0032) rotate(-15.4653)"> </text><text class="cls-11" transform="translate(172.4675 54.8264) rotate(-12.1591)">O</text><text class="cls-11" transform="translate(184.9412 52.1692) rotate(-7.7068)">n</text><text class="cls-11" transform="translate(195.029 50.8332) rotate(-4.3057)">s</text><text class="cls-11" transform="translate(202.4578 50.2937) rotate(-1.916)">i</text><text class="cls-11" transform="matrix(0.9999, 0.0162, -0.0162, 0.9999, 207.3367, 50.071)">t</text><text class="cls-11" transform="matrix(0.9987, 0.0504, -0.0504, 0.9987, 213.28, 50.0925)">e</text></g></g></g></svg>