<svg xmlns="http://www.w3.org/2000/svg" viewBox="0 0 640 300"><defs><style>.cls-1,.cls-10,.cls-13,.cls-15,.cls-17,.cls-19{fill:#fff;}.cls-2{font-size:18px;}.cls-10,.cls-13,.cls-15,.cls-17,.cls-19,.cls-2{font-family:Georgia;}.cls-3,.cls-9{fill:#003f5c;}.cls-11,.cls-4{fill:#7a5195;}.cls-5{fill:#ff764a;}.cls-6{fill:#bc5090;}.cls-16,.cls-7{fill:#374c80;}.cls-8{fill:#ffa600;}.cls-11,.cls-12,.cls-14,.cls-16,.cls-18,.cls-9{stroke:#fff;stroke-miterlimit:10;stroke-width:2px;}.cls-10{font-size:40px;}.cls-12{fill:#b230a5;}.cls-13{font-size:26px;}.cls-14{fill:#ff8500;}.cls-15{font-size:28px;}.cls-17{font-size:33px;}.cls-18{fill:#fa0;}.cls-19{font-size:10px;}</style></defs><g id="Layer_2" data-name="Layer 2"><g id="Actual_Role_Breakdown" data-name="Actual Role Breakdown"><g id="background"><rect class="cls-1" width="640" height="300"/></g><g id="Legend"><text class="cls-2" transform="translate(468.9556 277.3018)">None </text><text class="cls-2" transform="translate(468.9558 246.0088)">Other</text><text class="cls-2" transform="translate(468.3428 213.2317)">Bonus Payments</text><path d="M478.749,151.8364a3.7725,3.7725,0,0,1-.3818,1.7271,3.4675,3.4675,0,0,1-1.06,1.2431,4.57,4.57,0,0,1-1.4678.7207,6.1445,6.1445,0,0,1-1.6962.2286h-1.3975v3.7793a1.325,1.325,0,0,0,.1016.54.691.691,0,0,0,.4169.3564,2.735,2.735,0,0,0,.5577.1143,7.0723,7.0723,0,0,0,.7343.0615v.624h-5.3525v-.624c.1406-.0117.3447-.0322.61-.0615a2.097,2.097,0,0,0,.5585-.1143.7631.7631,0,0,0,.3829-.3339,1.19,1.19,0,0,0,.1181-.5625v-9a1.639,1.639,0,0,0-.0879-.5537.6413.6413,0,0,0-.4131-.3691,3.6892,3.6892,0,0,0-.664-.1621c-.2188-.0322-.4082-.0547-.5664-.0664v-.624h5.6953a4.4989,4.4989,0,0,1,2.8262.8388A2.69,2.69,0,0,1,478.749,151.8364Zm-2.6719,2.1265a2.3607,2.3607,0,0,0,.3956-.874,3.9331,3.9331,0,0,0,.0966-.813,4.62,4.62,0,0,0-.1181-1.02,2.3836,2.3836,0,0,0-.4092-.9052,2.0441,2.0441,0,0,0-.8086-.6416,3.0055,3.0055,0,0,0-1.248-.2285h-1.2393v5.51h.8965a3.4688,3.4688,0,0,0,1.5429-.2949A2.2563,2.2563,0,0,0,476.0771,153.9629Z"/><path d="M486.5889,153.6816a1.4567,1.4567,0,0,1-.22.7959.7441.7441,0,0,1-.6767.3467,1.0252,1.0252,0,0,1-.751-.2549.7723.7723,0,0,1-.26-.5625,1.7672,1.7672,0,0,1,.0313-.3515c.0195-.1055.0391-.211.0566-.3164a1.9465,1.9465,0,0,0-.9668.334,2.8561,2.8561,0,0,0-.94.9492v5.0449a.955.955,0,0,0,.1182.501.7222.7222,0,0,0,.374.29,2.3435,2.3435,0,0,0,.5674.1318c.23.0293.4316.05.6015.0616v.58h-4.57v-.58c.1348-.0118.2735-.0235.418-.0352a1.6009,1.6009,0,0,0,.373-.07.6352.6352,0,0,0,.3653-.2764.9973.9973,0,0,0,.1181-.5136V154.41a1.2082,1.2082,0,0,0-.1279-.5362,1.0614,1.0614,0,0,0-.3555-.4209,1.1784,1.1784,0,0,0-.3955-.1533,3.5062,3.5062,0,0,0-.4922-.0664v-.58l2.8829-.1934.123.1231v1.2212h.044a3.9407,3.9407,0,0,1,1.2128-1.0806,2.5651,2.5651,0,0,1,1.2217-.3691,1.1976,1.1976,0,0,1,.9014.36A1.3373,1.3373,0,0,1,486.5889,153.6816Z"/><path d="M495.7822,156.8105a5.7361,5.7361,0,0,1-.29,1.7979,4.29,4.29,0,0,1-.8272,1.498,3.8556,3.8556,0,0,1-1.4072,1.0459,4.5231,4.5231,0,0,1-1.7949.3428,4.0564,4.0564,0,0,1-1.5762-.3125,3.95,3.95,0,0,1-1.3281-.9092,4.3476,4.3476,0,0,1-.91-1.4365,5.0805,5.0805,0,0,1-.3388-1.9033,4.7266,4.7266,0,0,1,1.1836-3.3223,4.3317,4.3317,0,0,1,6.1054-.0654A4.4994,4.4994,0,0,1,495.7822,156.8105Zm-1.8193.0176a7.8227,7.8227,0,0,0-.1328-1.3935,4.3827,4.3827,0,0,0-.3955-1.2432,2.4316,2.4316,0,0,0-.7393-.874,1.858,1.858,0,0,0-1.1191-.33,1.9743,1.9743,0,0,0-1.1573.3335,2.4651,2.4651,0,0,0-.7793.9141,4.0454,4.0454,0,0,0-.3964,1.2216,8.0687,8.0687,0,0,0-.1143,1.3272,8.2806,8.2806,0,0,0,.1367,1.56,4.5,4.5,0,0,0,.4356,1.2783,2.4913,2.4913,0,0,0,.7529.8838,1.8935,1.8935,0,0,0,1.1221.32,1.96,1.96,0,0,0,1.7441-1.0634A5.6825,5.6825,0,0,0,493.9629,156.8281Z"/><path d="M503.4814,148.6812a1.0583,1.0583,0,0,1-.2109.6679.7605.7605,0,0,1-.6416.2725.9686.9686,0,0,1-.4785-.1143,1.4809,1.4809,0,0,1-.3828-.3076,2.8486,2.8486,0,0,1-.3252-.4394q-.1494-.2461-.2549-.3956-.5889.0264-.91.82a7.3012,7.3012,0,0,0-.32,2.53v.8858H502.19v.8432H499.957v6.2227a.9372.9372,0,0,0,.1192.501.712.712,0,0,0,.373.29,2.6429,2.6429,0,0,0,.5625.127c.2344.0332.4365.0546.6065.0664v.58h-4.57v-.58c.1347-.0118.2744-.0235.4169-.0352a1.5916,1.5916,0,0,0,.3741-.07.6244.6244,0,0,0,.3642-.2773.9758.9758,0,0,0,.1192-.5137v-6.3106h-1.7139v-.8432h1.7139v-.5528a4.8254,4.8254,0,0,1,1.0234-3.1982,3.2089,3.2089,0,0,1,2.5625-1.2236,1.8965,1.8965,0,0,1,1.1777.3076A.9189.9189,0,0,1,503.4814,148.6812Z"/><path d="M510.583,159.1924a4.4378,4.4378,0,0,1-1.459,1.6523,3.673,3.673,0,0,1-2.1006.6153,4.2662,4.2662,0,0,1-1.832-.3692,3.5925,3.5925,0,0,1-1.2969-1.0019,4.2389,4.2389,0,0,1-.76-1.4766,6.2025,6.2025,0,0,1-.251-1.7842,5.2412,5.2412,0,0,1,.2685-1.6572,4.6632,4.6632,0,0,1,.7862-1.4629,3.8,3.8,0,0,1,1.2431-1.0054,3.579,3.579,0,0,1,1.6661-.3828,4.0069,4.0069,0,0,1,1.6259.2989,2.8927,2.8927,0,0,1,1.0987.8168,3.2473,3.2473,0,0,1,.6015,1.16,5.055,5.055,0,0,1,.1983,1.45v.58h-5.7393a6.8893,6.8893,0,0,0,.1621,1.5508A3.7268,3.7268,0,0,0,505.31,159.4a2.4511,2.4511,0,0,0,.8965.8066,2.771,2.771,0,0,0,1.3183.295,2.4271,2.4271,0,0,0,1.3486-.3663,3.627,3.627,0,0,0,1.0948-1.3212Zm-1.9424-3.3047a7.0311,7.0311,0,0,0-.084-1.0518,3.2017,3.2017,0,0,0-.2675-.9375,1.7891,1.7891,0,0,0-.5537-.6572,1.5116,1.5116,0,0,0-.9053-.2534,1.882,1.882,0,0,0-1.5332.7661,3.5674,3.5674,0,0,0-.6641,2.1338Z"/><path d="M517.3066,156.9863a2.2151,2.2151,0,0,1,.5538.73,2.3744,2.3744,0,0,1,.1933,1.0108,2.4616,2.4616,0,0,1-.9014,1.9687,3.8509,3.8509,0,0,1-3.7265.4922,3.8468,3.8468,0,0,1-.9092-.501l-.1758.5713h-.6592l-.0878-3.0146H512.2a3.3705,3.3705,0,0,0,.2988.8027,3.864,3.864,0,0,0,.5537.8291,3.03,3.03,0,0,0,.8223.6523,2.18,2.18,0,0,0,1.0762.2647,1.9631,1.9631,0,0,0,1.3008-.3848,1.3572,1.3572,0,0,0,.457-1.1006,1.3365,1.3365,0,0,0-.1445-.6377,1.4249,1.4249,0,0,0-.4268-.47,3.3609,3.3609,0,0,0-.7119-.3642q-.4219-.1626-.94-.3213a8.6361,8.6361,0,0,1-.919-.3389,3.6422,3.6422,0,0,1-.8652-.5049,2.477,2.477,0,0,1-.6328-.7558,2.158,2.158,0,0,1-.2461-1.0547,2.371,2.371,0,0,1,.791-1.8018,2.9816,2.9816,0,0,1,2.1181-.7378,4.3275,4.3275,0,0,1,1.042.1319,3.6123,3.6123,0,0,1,.8653.3164l.2021-.4571h.6328l.1319,2.7857h-.6065a2.7946,2.7946,0,0,0-.7959-1.5225,2.0652,2.0652,0,0,0-1.4892-.5864,1.6573,1.6573,0,0,0-1.1338.3628,1.1251,1.1251,0,0,0-.4131.876,1.44,1.44,0,0,0,.1357.6591,1.224,1.224,0,0,0,.4092.4483,3.3807,3.3807,0,0,0,.6631.3291q.4014.1553.9893.3476a8.5726,8.5726,0,0,1,1.0947.4307A3.6057,3.6057,0,0,1,517.3066,156.9863Z"/><path d="M525.085,156.9863a2.2148,2.2148,0,0,1,.5537.73,2.3744,2.3744,0,0,1,.1933,1.0108,2.4664,2.4664,0,0,1-.9,1.9687,3.8509,3.8509,0,0,1-3.7265.4922,3.8183,3.8183,0,0,1-.91-.501l-.1758.5713H519.46l-.0879-3.0146h.6064a3.3705,3.3705,0,0,0,.2988.8027,3.8644,3.8644,0,0,0,.5538.8291,3.054,3.054,0,0,0,.8212.6523,2.19,2.19,0,0,0,1.0772.2647,1.9631,1.9631,0,0,0,1.3008-.3848,1.3569,1.3569,0,0,0,.457-1.1006,1.3138,1.3138,0,0,0-.1455-.6377,1.4,1.4,0,0,0-.4258-.47,3.356,3.356,0,0,0-.7119-.3642q-.4218-.1626-.94-.3213a8.4689,8.4689,0,0,1-.918-.3389,3.61,3.61,0,0,1-.8662-.5049,2.477,2.477,0,0,1-.6328-.7558,2.158,2.158,0,0,1-.2461-1.0547,2.3714,2.3714,0,0,1,.791-1.8018,2.9817,2.9817,0,0,1,2.1182-.7378,4.3084,4.3084,0,0,1,1.041.1319,3.59,3.59,0,0,1,.8662.3164l.2021-.4571h.6329l.1318,2.7857h-.6065a2.8058,2.8058,0,0,0-.7949-1.5225,2.0708,2.0708,0,0,0-1.49-.5864,1.6573,1.6573,0,0,0-1.1338.3628,1.1251,1.1251,0,0,0-.4131.876,1.4144,1.4144,0,0,0,.1367.6591,1.2048,1.2048,0,0,0,.4082.4483,3.3361,3.3361,0,0,0,.6641.3291q.3984.1553.9883.3476a8.4429,8.4429,0,0,1,1.0937.4307A3.5749,3.5749,0,0,1,525.085,156.9863Z"/><path d="M531.3428,161.2314h-4.1836v-.58c.1347-.0118.2744-.0235.417-.0352a1.5917,1.5917,0,0,0,.374-.07.627.627,0,0,0,.3643-.2764.9786.9786,0,0,0,.1191-.5136V154.41a1.062,1.062,0,0,0-.127-.5137,1.1425,1.1425,0,0,0-.3564-.3906,1.6237,1.6237,0,0,0-.4834-.1807,3.6863,3.6863,0,0,0-.58-.0918v-.58l3.0586-.1934.1231.1231v7.0659a1.005,1.005,0,0,0,.1171.51.7048.7048,0,0,0,.3711.2988,2.9024,2.9024,0,0,0,.376.127,2.23,2.23,0,0,0,.41.0664Zm-1.0987-12.19a1.2727,1.2727,0,0,1-.33.874,1.0372,1.0372,0,0,1-.8125.3741,1.0217,1.0217,0,0,1-.7774-.3565,1.1565,1.1565,0,0,1-.33-.8125,1.2062,1.2062,0,0,1,.33-.8437,1.019,1.019,0,0,1,.7774-.36,1.0853,1.0853,0,0,1,.8222.3389A1.1105,1.1105,0,0,1,530.2441,149.0415Z"/><path d="M540.87,156.8105a5.7361,5.7361,0,0,1-.29,1.7979,4.29,4.29,0,0,1-.8272,1.498,3.8556,3.8556,0,0,1-1.4072,1.0459,4.5235,4.5235,0,0,1-1.7949.3428,4.0564,4.0564,0,0,1-1.5762-.3125,3.95,3.95,0,0,1-1.3281-.9092,4.3476,4.3476,0,0,1-.91-1.4365,5.0805,5.0805,0,0,1-.3388-1.9033,4.7266,4.7266,0,0,1,1.1836-3.3223,4.3317,4.3317,0,0,1,6.1054-.0654A4.4994,4.4994,0,0,1,540.87,156.8105Zm-1.8193.0176a7.8227,7.8227,0,0,0-.1328-1.3935,4.3827,4.3827,0,0,0-.3955-1.2432,2.4316,2.4316,0,0,0-.7393-.874,1.858,1.858,0,0,0-1.1191-.33,1.9743,1.9743,0,0,0-1.1573.3335,2.4651,2.4651,0,0,0-.7793.9141,4.0454,4.0454,0,0,0-.3964,1.2216,8.0687,8.0687,0,0,0-.1143,1.3272,8.2806,8.2806,0,0,0,.1367,1.56,4.497,4.497,0,0,0,.4356,1.2783,2.4913,2.4913,0,0,0,.7529.8838,1.8935,1.8935,0,0,0,1.1221.32,1.96,1.96,0,0,0,1.7441-1.0634A5.6825,5.6825,0,0,0,539.0508,156.8281Z"/><path d="M551.69,161.2314h-4.2364v-.58c.1348-.0118.2832-.0235.4434-.0352a1.6638,1.6638,0,0,0,.4-.07.6329.6329,0,0,0,.3652-.2773.9954.9954,0,0,0,.1182-.5137v-4.4561a2.101,2.101,0,0,0-.4365-1.4238,1.3568,1.3568,0,0,0-1.0606-.501,2.4458,2.4458,0,0,0-.8555.1446,3.1,3.1,0,0,0-.6875.3564,1.97,1.97,0,0,0-.4619.4346,4.09,4.09,0,0,0-.251.374v4.9834a.902.902,0,0,0,.1231.4922.7907.7907,0,0,0,.3691.2988,1.7215,1.7215,0,0,0,.4.1318,3.5786,3.5786,0,0,0,.4434.0616v.58h-4.2451v-.58c.1347-.0118.2744-.0235.417-.0352a1.5917,1.5917,0,0,0,.374-.07.6267.6267,0,0,0,.3642-.2764.9776.9776,0,0,0,.1192-.5136V154.41a1.2036,1.2036,0,0,0-.127-.5489,1.0989,1.0989,0,0,0-.3564-.4082,1.1793,1.1793,0,0,0-.3955-.1533,3.5082,3.5082,0,0,0-.4922-.0664v-.58l2.8828-.1934.123.1231v1.2212h.044q.2109-.2109.5273-.5049a4.5911,4.5911,0,0,1,.5977-.479,3.15,3.15,0,0,1,.7734-.3516,3.3734,3.3734,0,0,1,1.0108-.1406,2.1894,2.1894,0,0,1,1.85.7778,3.2834,3.2834,0,0,1,.6025,2.0694v4.5088a1.0115,1.0115,0,0,0,.1055.4961.6933.6933,0,0,0,.36.2949,2.29,2.29,0,0,0,.3653.123,2.8076,2.8076,0,0,0,.4258.0528Z"/><path d="M560.9619,161.0732c-.2754.1-.5166.18-.7256.2422a2.52,2.52,0,0,1-.707.0918,1.7269,1.7269,0,0,1-1.0938-.32,1.4789,1.4789,0,0,1-.5234-.9365h-.0527a4.2762,4.2762,0,0,1-1.2266.9668,3.4329,3.4329,0,0,1-1.5771.334,2.2358,2.2358,0,0,1-1.6045-.5977,2.0631,2.0631,0,0,1-.628-1.5644,2.6646,2.6646,0,0,1,.1407-.8965,2.2341,2.2341,0,0,1,1.0019-1.1826,5.17,5.17,0,0,1,.6768-.3291q.3955-.1494,1.6035-.5538a11.9777,11.9777,0,0,0,1.6309-.6328v-.87a3.5174,3.5174,0,0,0-.0489-.4394,1.8187,1.8187,0,0,0-.206-.6153,1.7536,1.7536,0,0,0-.4971-.5674,1.4908,1.4908,0,0,0-.9092-.2407,2.0517,2.0517,0,0,0-.751.1353,1.3711,1.3711,0,0,0-.4882.2861,2.3527,2.3527,0,0,0,.0839.5186,2.7367,2.7367,0,0,1,.0831.6328.7577.7577,0,0,1-.2764.5625,1.0958,1.0958,0,0,1-.7695.2549.721.721,0,0,1-.6465-.3116,1.233,1.233,0,0,1,.08-1.4726,2.8407,2.8407,0,0,1,.7421-.6587,4.0021,4.0021,0,0,1,.958-.417,3.7294,3.7294,0,0,1,1.0987-.1719,7.1778,7.1778,0,0,1,1.2871.1016,2.3593,2.3593,0,0,1,.998.4346,2.0322,2.0322,0,0,1,.6817.8833,3.7854,3.7854,0,0,1,.2324,1.4365q0,1.2568-.0264,2.2275-.0262.9727-.0263,2.1231a1.0636,1.0636,0,0,0,.1191.5449.9536.9536,0,0,0,.3643.3428.8975.8975,0,0,0,.417.0879c.1914.0058.3857.0087.5849.0087Zm-3.0674-4.6406q-.747.22-1.3095.4317a5.2979,5.2979,0,0,0-1.0459.5283,2.3941,2.3941,0,0,0-.6944.709,1.8064,1.8064,0,0,0-.2549.9736,1.37,1.37,0,0,0,.3829,1.0742,1.3932,1.3932,0,0,0,.9707.3438,1.9966,1.9966,0,0,0,1.0986-.3037,3.2227,3.2227,0,0,0,.8-.7178Z"/><path d="M565.8838,161.2314h-4.2275v-.58c.1347-.0118.2783-.0244.4306-.0391a2.0631,2.0631,0,0,0,.3779-.0664.652.652,0,0,0,.3692-.2773.9613.9613,0,0,0,.123-.5147V149.71a1.3152,1.3152,0,0,0-.1367-.5937,1.137,1.137,0,0,0-.3555-.4355,1.8041,1.8041,0,0,0-.58-.1934,5.2765,5.2765,0,0,0-.6768-.1055V147.82l3.2608-.1933.123.1318v11.8911a1.0046,1.0046,0,0,0,.1143.5059.7328.7328,0,0,0,.3691.3027,2.0618,2.0618,0,0,0,.3818.1318,2.8434,2.8434,0,0,0,.4268.0616Z"/><path d="M481.1484,175.07a5.99,5.99,0,0,1-.5976,2.76,5.6483,5.6483,0,0,1-1.5557,1.916,6.7562,6.7562,0,0,1-2.1709,1.1162,8.4377,8.4377,0,0,1-2.4873.3691h-5.168v-.624a5.86,5.86,0,0,0,.6631-.0478,2.1022,2.1022,0,0,0,.541-.11.7543.7543,0,0,0,.3829-.3388,1.1493,1.1493,0,0,0,.1181-.54v-9a1.3735,1.3735,0,0,0-.1006-.5361.7608.7608,0,0,0-.4-.3779,2.3936,2.3936,0,0,0-.5888-.1934,4.883,4.883,0,0,0-.5449-.0791v-.624h5.4492a7.2868,7.2868,0,0,1,2.2148.3466,6.6291,6.6291,0,0,1,1.8985.9366,5.3933,5.3933,0,0,1,1.7226,2.0478A6.6655,6.6655,0,0,1,481.1484,175.07Zm-2.1533-.0049a7.2286,7.2286,0,0,0-.334-2.27,5.2093,5.2093,0,0,0-.9756-1.7695,4.2871,4.2871,0,0,0-1.49-1.1328,4.5751,4.5751,0,0,0-1.9639-.4131c-.24,0-.5107.0049-.8134.0127-.3008.01-.5254.0166-.6719.0224v9.5811a1.2262,1.2262,0,0,0,.4658,1.1064,2.6417,2.6417,0,0,0,1.4326.3076,4.5126,4.5126,0,0,0,1.9512-.3955,3.5108,3.5108,0,0,0,1.3535-1.0976,4.8763,4.8763,0,0,0,.7949-1.708A8.971,8.971,0,0,0,478.9951,175.0654Z"/><path d="M490.1572,179.1924a4.4378,4.4378,0,0,1-1.459,1.6523,3.6726,3.6726,0,0,1-2.1005.6153,4.2667,4.2667,0,0,1-1.8321-.3692,3.5913,3.5913,0,0,1-1.2968-1.0019,4.2374,4.2374,0,0,1-.76-1.4766,6.2025,6.2025,0,0,1-.251-1.7842,5.2385,5.2385,0,0,1,.2686-1.6572,4.661,4.661,0,0,1,.7861-1.4629,3.8023,3.8023,0,0,1,1.2432-1.0059,3.5786,3.5786,0,0,1,1.666-.3828,4.0077,4.0077,0,0,1,1.626.2989,2.8942,2.8942,0,0,1,1.0986.8173,3.2473,3.2473,0,0,1,.6015,1.16,5.0515,5.0515,0,0,1,.1983,1.45v.58H484.207a6.8893,6.8893,0,0,0,.1621,1.5508,3.7268,3.7268,0,0,0,.5147,1.2236,2.4511,2.4511,0,0,0,.8965.8066,2.7713,2.7713,0,0,0,1.3183.295,2.4277,2.4277,0,0,0,1.3487-.3663,3.6279,3.6279,0,0,0,1.0947-1.3212Zm-1.9424-3.3047a7.0436,7.0436,0,0,0-.0839-1.0518,3.2047,3.2047,0,0,0-.2676-.9375,1.7891,1.7891,0,0,0-.5537-.6572,1.5118,1.5118,0,0,0-.9053-.2539,1.8827,1.8827,0,0,0-1.5332.7666,3.5674,3.5674,0,0,0-.6641,2.1338Z"/><path d="M499.72,173.1016a2.1672,2.1672,0,0,0-.7509.2861,1.68,1.68,0,0,0-.6114.76q-.5185,1.1776-1.0722,2.457-.5538,1.2774-1.1514,2.6846-.1758.4043-.374.958-.1963.5537-.3643,1.0634H494.71q-.835-2.0653-1.5381-3.7666-.7032-1.6992-1.459-3.4843a1.32,1.32,0,0,0-.5664-.6289,2.3137,2.3137,0,0,0-.7871-.2852v-.58H494.37v.6153a3.1859,3.1859,0,0,0-.6592.1093c-.2636.0674-.3955.16-.3955.2764a.57.57,0,0,0,.044.1367c.0293.0733.0586.1563.0879.25q.3588.895,1.0166,2.502t1.0693,2.59q.3163-.7544.7949-1.8779.48-1.125,1.0332-2.5117.0879-.2373.167-.4434a1.1553,1.1553,0,0,0,.0791-.417.3444.3444,0,0,0-.1445-.2676,1.4942,1.4942,0,0,0-.3477-.206,2.2345,2.2345,0,0,0-.3955-.1318q-.1934-.0439-.3164-.0616v-.5625H499.72Z"/><path d="M507.7969,179.1924a4.4378,4.4378,0,0,1-1.459,1.6523,3.6732,3.6732,0,0,1-2.1006.6153,4.2768,4.2768,0,0,1-1.833-.3692,3.6051,3.6051,0,0,1-1.2959-1.0019,4.273,4.273,0,0,1-.7607-1.4766,6.2688,6.2688,0,0,1-.25-1.7842,5.2944,5.2944,0,0,1,.2675-1.6572,4.7044,4.7044,0,0,1,.7871-1.4629,3.7865,3.7865,0,0,1,1.2442-1.0059,3.569,3.569,0,0,1,1.665-.3828,4.0077,4.0077,0,0,1,1.626.2989,2.8927,2.8927,0,0,1,1.0986.8173,3.28,3.28,0,0,1,.6026,1.16,5.1263,5.1263,0,0,1,.1972,1.45v.58h-5.7392a6.7732,6.7732,0,0,0,.1631,1.5508,3.6854,3.6854,0,0,0,.5136,1.2236,2.4527,2.4527,0,0,0,.8965.8066,2.7717,2.7717,0,0,0,1.3184.295,2.4352,2.4352,0,0,0,1.35-.3663,3.6455,3.6455,0,0,0,1.0937-1.3212Zm-1.9424-3.3047a7.2983,7.2983,0,0,0-.083-1.0518,3.2628,3.2628,0,0,0-.2686-.9375,1.7872,1.7872,0,0,0-.5537-.6572,1.5116,1.5116,0,0,0-.9053-.2539,1.887,1.887,0,0,0-1.5341.7666,3.58,3.58,0,0,0-.6631,2.1338Z"/><path d="M512.8594,181.2314h-4.2276v-.58c.1348-.0118.2784-.0244.4307-.0391a2.0646,2.0646,0,0,0,.3779-.0664.6523.6523,0,0,0,.3692-.2773.9613.9613,0,0,0,.123-.5147V169.71a1.3412,1.3412,0,0,0-.1357-.5938,1.1575,1.1575,0,0,0-.3565-.4355,1.8066,1.8066,0,0,0-.58-.1934,5.2944,5.2944,0,0,0-.6768-.1055v-.5625l3.2607-.1933.1231.1318v11.8916a1.0056,1.0056,0,0,0,.1142.5059.7334.7334,0,0,0,.3692.3027,2.0214,2.0214,0,0,0,.3828.1318,2.7916,2.7916,0,0,0,.4258.0616Z"/><path d="M522.4043,176.8105a5.7086,5.7086,0,0,1-.291,1.7979,4.29,4.29,0,0,1-.8262,1.498,3.8432,3.8432,0,0,1-1.4082,1.0459,4.5131,4.5131,0,0,1-1.7949.3428,4.0465,4.0465,0,0,1-1.5742-.3125,3.9409,3.9409,0,0,1-1.3282-.9092,4.3351,4.3351,0,0,1-.9111-1.4365,5.0985,5.0985,0,0,1-.3389-1.9033,4.7271,4.7271,0,0,1,1.1836-3.3223,4.3306,4.3306,0,0,1,6.1055-.0654A4.4994,4.4994,0,0,1,522.4043,176.8105Zm-1.8193.0176a7.9026,7.9026,0,0,0-.1319-1.3935,4.4107,4.4107,0,0,0-.3965-1.2432,2.4142,2.4142,0,0,0-.74-.874,1.8542,1.8542,0,0,0-1.1172-.33,1.9752,1.9752,0,0,0-1.1582.334,2.456,2.456,0,0,0-.7793.9141,4.0455,4.0455,0,0,0-.3965,1.2216,8.0792,8.0792,0,0,0-.1142,1.3272,8.3645,8.3645,0,0,0,.1367,1.56,4.4693,4.4693,0,0,0,.4355,1.2783,2.4915,2.4915,0,0,0,.753.8838,1.8961,1.8961,0,0,0,1.123.32,1.9575,1.9575,0,0,0,1.7422-1.0634A5.662,5.662,0,0,0,520.585,176.8281Z"/><path d="M531.5713,173.5938a4.4968,4.4968,0,0,1,.8037,1.4287,5.5645,5.5645,0,0,1,.2861,1.8584,4.9583,4.9583,0,0,1-.3427,1.8759,4.5875,4.5875,0,0,1-.9053,1.4463,4.2632,4.2632,0,0,1-1.31.9317,3.6756,3.6756,0,0,1-1.5293.3252,3.9387,3.9387,0,0,1-1.2832-.1758,3.0372,3.0372,0,0,1-.8174-.4131h-.07v2.6074a1.04,1.04,0,0,0,.1231.5293.7115.7115,0,0,0,.3779.3076,3.8842,3.8842,0,0,0,.6016.1543,4.4043,4.4043,0,0,0,.6464.084v.58H523.31v-.58q.2724-.0175.5273-.0439a2.4365,2.4365,0,0,0,.457-.0879.5948.5948,0,0,0,.3692-.3076,1.1875,1.1875,0,0,0,.1055-.5186v-9.22a1.0663,1.0663,0,0,0-.1319-.51,1.1265,1.1265,0,0,0-.3428-.3955,1.2633,1.2633,0,0,0-.4394-.1631,4.2761,4.2761,0,0,0-.5449-.0742v-.58l2.9531-.1933.123.1054v.9756l.07.0176a3.793,3.793,0,0,1,1.1337-.8789,2.8976,2.8976,0,0,1,1.3448-.3516,3.2179,3.2179,0,0,1,1.4814.3428A3.6512,3.6512,0,0,1,531.5713,173.5938Zm-1.4326,6.2314a3.9663,3.9663,0,0,0,.5185-1.2656,7.1349,7.1349,0,0,0,.167-1.6084,6.5171,6.5171,0,0,0-.1406-1.3272,3.7873,3.7873,0,0,0-.4395-1.1777,2.4572,2.4572,0,0,0-.7822-.8262,2.2889,2.2889,0,0,0-2.2676-.0312,3.3756,3.3756,0,0,0-.791.6816v5.124a1.94,1.94,0,0,0,.2588.4922,2.3511,2.3511,0,0,0,.4.44,2.5237,2.5237,0,0,0,.5889.3564,1.9549,1.9549,0,0,0,.7734.1358,1.8983,1.8983,0,0,0,.9492-.2588A2.2039,2.2039,0,0,0,530.1387,179.8252Z"/><path d="M548.7627,181.2314h-4.2188v-.58c.1348-.0118.2706-.0235.4092-.0352a1.5841,1.5841,0,0,0,.3643-.07.6244.6244,0,0,0,.3642-.2773.9758.9758,0,0,0,.1192-.5137v-4.4736a2.1307,2.1307,0,0,0-.418-1.4112,1.3063,1.3063,0,0,0-1.041-.4961,2.4378,2.4378,0,0,0-.8086.1319,2.55,2.55,0,0,0-.6943.3691,2.2791,2.2791,0,0,0-.4268.417,4.2306,4.2306,0,0,0-.2588.374v5.001a1.0741,1.0741,0,0,0,.1055.5059.6871.6871,0,0,0,.36.3027,3.0148,3.0148,0,0,0,.3653.1191,2.7005,2.7005,0,0,0,.4258.0567v.58h-4.1309v-.58c.1348-.0118.2656-.0235.3906-.0352a1.54,1.54,0,0,0,.3477-.07.6329.6329,0,0,0,.3652-.2773.9954.9954,0,0,0,.1182-.5137v-4.4736a2.1308,2.1308,0,0,0-.419-1.4112,1.3127,1.3127,0,0,0-1.0429-.4961,2.3707,2.3707,0,0,0-.8106.1367,2.6637,2.6637,0,0,0-.6972.3731,2.1187,2.1187,0,0,0-.4317.4355q-.1758.2418-.2637.3643v4.9658a.9482.9482,0,0,0,.1231.501.7724.7724,0,0,0,.3691.3076,1.81,1.81,0,0,0,.378.1318,2.9351,2.9351,0,0,0,.4306.0616v.58h-4.21v-.58c.1347-.0118.2744-.0235.417-.0352a1.5917,1.5917,0,0,0,.374-.07.6267.6267,0,0,0,.3642-.2764.9776.9776,0,0,0,.1192-.5136V174.375a1.012,1.012,0,0,0-.127-.5049,1.1727,1.1727,0,0,0-.3564-.3818,1.4708,1.4708,0,0,0-.4131-.1709,2.5736,2.5736,0,0,0-.51-.084v-.58l2.9-.1933.1231.123v1.2393h.0615q.22-.22.5361-.5186a4.7937,4.7937,0,0,1,.5889-.4834,2.8092,2.8092,0,0,1,.7685-.3515,3.4135,3.4135,0,0,1,.9981-.1407,2.3619,2.3619,0,0,1,1.45.4522,2.5864,2.5864,0,0,1,.87,1.0947q.3163-.3076.5566-.54a4.6112,4.6112,0,0,1,.6368-.4971,2.9155,2.9155,0,0,1,.7851-.3691,3.3708,3.3708,0,0,1,1.0049-.1407,2.2075,2.2075,0,0,1,1.7373.7207,3.257,3.257,0,0,1,.6406,2.2149v4.4033a1.0741,1.0741,0,0,0,.1055.5059.6871.6871,0,0,0,.36.3027,2.4974,2.4974,0,0,0,.3995.1191,3.8257,3.8257,0,0,0,.4443.0567Z"/><path d="M557.49,179.1924a4.4375,4.4375,0,0,1-1.4589,1.6523,3.6732,3.6732,0,0,1-2.1006.6153,4.2765,4.2765,0,0,1-1.833-.3692,3.6043,3.6043,0,0,1-1.2959-1.0019,4.2732,4.2732,0,0,1-.7608-1.4766,6.2724,6.2724,0,0,1-.25-1.7842,5.2946,5.2946,0,0,1,.2676-1.6572,4.7044,4.7044,0,0,1,.7871-1.4629,3.7872,3.7872,0,0,1,1.2441-1.0059,3.5694,3.5694,0,0,1,1.6651-.3828,4.0077,4.0077,0,0,1,1.626.2989,2.8942,2.8942,0,0,1,1.0986.8173,3.2812,3.2812,0,0,1,.6025,1.16,5.1226,5.1226,0,0,1,.1973,1.45v.58H551.54a6.7788,6.7788,0,0,0,.1631,1.5508,3.6835,3.6835,0,0,0,.5137,1.2236,2.4511,2.4511,0,0,0,.8965.8066,2.7713,2.7713,0,0,0,1.3183.295,2.4358,2.4358,0,0,0,1.35-.3663,3.6465,3.6465,0,0,0,1.0937-1.3212Zm-1.9423-3.3047a7.2991,7.2991,0,0,0-.0831-1.0518,3.2629,3.2629,0,0,0-.2685-.9375,1.7881,1.7881,0,0,0-.5537-.6572,1.5118,1.5118,0,0,0-.9053-.2539,1.8872,1.8872,0,0,0-1.5342.7666,3.5808,3.5808,0,0,0-.6631,2.1338Z"/><path d="M568.0635,181.2314h-4.2364v-.58c.1348-.0118.2823-.0235.4444-.0352a1.6732,1.6732,0,0,0,.3994-.07.6247.6247,0,0,0,.3643-.2773.9768.9768,0,0,0,.1191-.5137v-4.4561a2.106,2.106,0,0,0-.4355-1.4238,1.3578,1.3578,0,0,0-1.0625-.501,2.4473,2.4473,0,0,0-.8545.1446,3.0511,3.0511,0,0,0-.6866.3564,1.9754,1.9754,0,0,0-.4629.4346,4.0636,4.0636,0,0,0-.2509.374v4.9834a.9019.9019,0,0,0,.123.4922.7905.7905,0,0,0,.3692.2988,1.7418,1.7418,0,0,0,.3994.1318,3.647,3.647,0,0,0,.4443.0616v.58h-4.2451v-.58c.1348-.0118.2734-.0235.418-.0352a1.6029,1.6029,0,0,0,.373-.07.6347.6347,0,0,0,.3652-.2764.9963.9963,0,0,0,.1182-.5136V174.41a1.18,1.18,0,0,0-.1279-.5489,1.08,1.08,0,0,0-.3555-.4082,1.1793,1.1793,0,0,0-.3955-.1533,3.5062,3.5062,0,0,0-.4922-.0664v-.58l2.8828-.1933.1231.123v1.2217h.0439q.2109-.2109.5274-.5049a4.6,4.6,0,0,1,.5976-.48,3.1456,3.1456,0,0,1,.7735-.3515,3.3689,3.3689,0,0,1,1.0107-.1407,2.1928,2.1928,0,0,1,1.8506.7783,3.2948,3.2948,0,0,1,.6015,2.0694v4.5088a1.0115,1.0115,0,0,0,.1055.4961.6932.6932,0,0,0,.36.2949,2.3467,2.3467,0,0,0,.3642.123,2.8591,2.8591,0,0,0,.4268.0528Z"/><path d="M574.48,180.8535q-.5714.2373-1.0811.3994a4.1466,4.1466,0,0,1-1.248.1631,1.8676,1.8676,0,0,1-1.5332-.55,2.4,2.4,0,0,1-.4443-1.5508v-5.8711h-1.5645v-.8437h1.6v-2.6983h1.6v2.6983h2.4873v.8437h-2.47v4.8428a8.3934,8.3934,0,0,0,.04.9092,1.6726,1.6726,0,0,0,.1885.6377.9051.9051,0,0,0,.4219.3867,1.8037,1.8037,0,0,0,.7558.1318c.1465,0,.3624-.0136.6456-.039a2.8984,2.8984,0,0,0,.6025-.1016Z"/><text class="cls-2" transform="translate(467.0708 127.4663)">Vacation Time</text><text class="cls-2" transform="translate(467.0708 90.4663)">Health Insurance</text><rect id="Swatch_1" data-name="Swatch 1" class="cls-3" x="430" y="71.1943" width="24.7508" height="24.7508" transform="translate(525.9451 -358.8057) rotate(90)"/><rect id="Swatch_2" data-name="Swatch 2" class="cls-4" x="430" y="107.5003" width="24.7508" height="24.7508" transform="translate(562.2511 -322.4997) rotate(90)"/><rect id="Swatch_3" data-name="Swatch 3" class="cls-5" x="430" y="141.5718" width="24.7508" height="24.7508" transform="translate(596.3226 -288.4282) rotate(90)"/><rect id="Swatch_4" data-name="Swatch 4" class="cls-6" x="430" y="193.6433" width="24.7508" height="24.7508" transform="translate(648.3941 -236.3567) rotate(90)"/><rect id="Swatch_5" data-name="Swatch 5" class="cls-7" x="430" y="226.1416" width="24.7508" height="24.7508" transform="translate(680.8924 -203.8584) rotate(90)"/><rect id="Swatch_6" data-name="Swatch 6" class="cls-8" x="430" y="258.6398" width="24.7508" height="24.7508" transform="translate(713.3906 -171.3602) rotate(90)"/></g><g id="Circles"><path class="cls-9" d="M196.05,131.4293a85.9831,85.9831,0,1,1-85.9839-85.9841A85.9848,85.9848,0,0,1,196.05,131.4293Z"/><text class="cls-10" transform="translate(71.2003 146.1559)">80%</text><path class="cls-11" d="M388.0618,112.8285a85.9831,85.9831,0,1,1-85.984-85.9832A85.9844,85.9844,0,0,1,388.0618,112.8285Z"/><text class="cls-10" transform="translate(265.6749 129.6906)">80%</text><path class="cls-12" d="M259.225,68.4605a55.889,55.889,0,1,1-55.8871-55.89A55.8883,55.8883,0,0,1,259.225,68.4605Z"/><text class="cls-13" transform="translate(178.0733 76.0007)">52%</text><path class="cls-14" d="M230.4436,226.0361a60.1882,60.1882,0,1,1-60.1863-60.1881A60.1875,60.1875,0,0,1,230.4436,226.0361Z"/><text class="cls-15" transform="translate(143.1007 238.9357)">56%</text><circle class="cls-16" cx="276.2838" cy="217.4112" r="60.1882" transform="translate(-30.3072 389.4644) rotate(-67.5)"/><text class="cls-17" transform="translate(244.2178 226.0363)">66%</text><path class="cls-18" d="M344.0934,192.42a10.7479,10.7479,0,1,1-10.75-10.7477A10.7473,10.7473,0,0,1,344.0934,192.42Z"/><text class="cls-19" transform="translate(326.4464 195.0441)">5%</text></g></g></g></svg>