<svg xmlns="http://www.w3.org/2000/svg" viewBox="0 0 623.2954 436.4529"><defs><style>.cls-1{font-size:28px;}.cls-1,.cls-2,.cls-3{font-family:Georgia;}.cls-2{font-size:20px;}.cls-3{font-size:19.5px;}.cls-10,.cls-4{fill:#003f5c;}.cls-12,.cls-5{fill:#7a5195;}.cls-6{fill:#ff764a;}.cls-7{fill:#bc5090;}.cls-17,.cls-8{fill:#374c80;}.cls-9{fill:#ffa600;}.cls-10,.cls-12,.cls-14,.cls-16,.cls-17,.cls-18{stroke:#fff;stroke-miterlimit:10;}.cls-10{stroke-width:2.4348px;}.cls-11{font-size:33.7249px;}.cls-11,.cls-13,.cls-15,.cls-19{fill:#fff;font-family:Amble-Regular, Amble Regular;}.cls-12{stroke-width:2.4348px;}.cls-13{font-size:34.0803px;}.cls-14{fill:#b230a5;stroke-width:2.1527px;}.cls-15{font-size:26.9799px;}.cls-16{fill:#ff8500;stroke-width:2.4075px;}.cls-17{stroke-width:3.9026px;}.cls-18{fill:#fa0;stroke-width:2.4094px;}.cls-19{font-size:9.0451px;}</style></defs><title>9</title><g id="Layer_2" data-name="Layer 2"><g id="Actual_Role_Breakdown" data-name="Actual Role Breakdown"><g id="Headline"><text id="Headline-2" data-name="Headline" class="cls-1" transform="translate(105.2912 54.6999) rotate(-29.5286)">A</text><text class="cls-1" transform="translate(120.7776 45.9443) rotate(-24.8665)">d</text><text class="cls-1" transform="translate(134.5206 39.5366) rotate(-20.5526)">d</text><text class="cls-1" transform="matrix(0.9548, -0.2972, 0.2972, 0.9548, 148.9576, 34.2225)">i</text><text class="cls-1" transform="translate(156.3007 31.9098) rotate(-14.886)">t</text><text class="cls-1" transform="translate(165.1604 29.5596) rotate(-12.4837)">i</text><text class="cls-1" transform="translate(172.5024 27.8196) rotate(-9.3624)">o</text><text class="cls-1" transform="translate(186.5056 25.4515) rotate(-5.1477)">n</text><text class="cls-1" transform="translate(202.1499 24.057) rotate(-1.0984)">a</text><text class="cls-1" transform="matrix(0.9995, 0.0313, -0.0313, 0.9995, 215.6223, 23.8592)">l</text><text class="cls-1" transform="matrix(0.9979, 0.0652, -0.0652, 0.9979, 223.2203, 24.1008)"> </text><text class="cls-1" transform="matrix(0.9924, 0.123, -0.123, 0.9924, 229.2597, 24.3057)">B</text><text class="cls-1" transform="matrix(0.9805, 0.1964, -0.1964, 0.9805, 246.5327, 26.5019)">e</text><text class="cls-1" transform="translate(258.9936 28.9127) rotate(15.3648)">n</text><text class="cls-1" transform="translate(274.0978 33.0864) rotate(19.4025)">e</text><text class="cls-1" transform="translate(286.2373 37.4059) rotate(22.4423)">f</text><text class="cls-1" transform="matrix(0.908, 0.4189, -0.4189, 0.908, 294.1986, 40.6937)">i</text><text class="cls-1" transform="translate(301.2143 43.9025) rotate(27.1624)">t</text><text class="cls-1" transform="matrix(0.8654, 0.5011, -0.5011, 0.8654, 309.2813, 47.9891)">s</text></g><g id="Legend"><text class="cls-2" transform="translate(475.293 384.439)">None </text><text class="cls-2" transform="translate(475.2932 353.146)">Other</text><text class="cls-2" transform="translate(474.6802 320.3689)">Bonus Payments</text><text class="cls-2" transform="translate(474.6802 268.3689)">Professional<tspan x="0" y="24">Development</tspan></text><text class="cls-2" transform="translate(473.4082 234.6035)">Vacation Time</text><text class="cls-3" transform="translate(473.4082 197.6035)">Health Insurance</text><rect id="Swatch_1" data-name="Swatch 1" class="cls-4" x="436.3374" y="178.3315" width="24.7508" height="24.7508" transform="translate(639.4197 -258.0059) rotate(90)"/><rect id="Swatch_2" data-name="Swatch 2" class="cls-5" x="436.3374" y="214.6376" width="24.7508" height="24.7508" transform="translate(675.7258 -221.6999) rotate(90)"/><rect id="Swatch_3" data-name="Swatch 3" class="cls-6" x="436.3374" y="248.709" width="24.7508" height="24.7508" transform="translate(709.7973 -187.6284) rotate(90)"/><rect id="Swatch_4" data-name="Swatch 4" class="cls-7" x="436.3374" y="300.7805" width="24.7508" height="24.7508" transform="translate(761.8687 -135.5569) rotate(90)"/><rect id="Swatch_5" data-name="Swatch 5" class="cls-8" x="436.3374" y="333.2788" width="24.7508" height="24.7508" transform="translate(794.367 -103.0587) rotate(90)"/><rect id="Swatch_6" data-name="Swatch 6" class="cls-9" x="436.3374" y="365.777" width="24.7508" height="24.7508" transform="translate(826.8652 -70.5604) rotate(90)"/></g><g id="Circles"><path class="cls-10" d="M193.9692,192.6559A96.3759,96.3759,0,1,1,97.5923,96.2788,96.3778,96.3778,0,0,1,193.9692,192.6559Z"/><text class="cls-11" transform="translate(68.6646 198.0518)">80%</text><path class="cls-12" d="M409.1893,171.8068a96.3759,96.3759,0,1,1-96.377-96.376A96.3774,96.3774,0,0,1,409.1893,171.8068Z"/><text class="cls-13" transform="translate(284.5952 178.2754)">80%</text><path class="cls-14" d="M264.78,122.0761a62.6444,62.6444,0,1,1-62.6423-62.6453A62.6437,62.6437,0,0,1,264.78,122.0761Z"/><text class="cls-15" transform="translate(177.6118 130.5273)">52%</text><path class="cls-16" d="M232.52,298.6979a67.4632,67.4632,0,1,1-67.461-67.4631A67.4625,67.4625,0,0,1,232.52,298.6979Z"/><text class="cls-15" transform="translate(140.5904 305.4253)">56%</text><circle class="cls-17" cx="283.9006" cy="289.0305" r="67.4632" transform="translate(-91.7729 440.7132) rotate(-67.5)"/><text class="cls-15" transform="translate(259.3755 298.6987)">66%</text><path class="cls-18" d="M359.9064,261.0182a12.047,12.047,0,1,1-12.0493-12.0468A12.0463,12.0463,0,0,1,359.9064,261.0182Z"/><text class="cls-19" transform="translate(341.9605 263.9595)">5%</text></g></g></g></svg>