<svg id="Layer_1" data-name="Layer 1" xmlns="http://www.w3.org/2000/svg" viewBox="0 0 131.02 132.59"><defs><style>.cls-1{fill:#fdb913;}.cls-2{fill:#131a1d;}</style></defs><title>wtd_logo</title><path class="cls-1" d="M.93,130.12l.87-.08c.45-.05.76-.21.76-.73V117.09L1.06,117v-2.23H8.57c3.86,0,6.22,1.84,6.22,5.36,0,4-2.84,6-6.8,6H5.76v3.81l2.52.08v2.23H.93Zm6.72-6.54c2.28,0,3.83-.79,3.83-3.12,0-2.7-1.55-3.12-4.12-3.12H5.76v6.25Z"/><path class="cls-1" d="M24.18,132.59c-4.67,0-7.62-3-7.62-9,0-6.72,4.23-9.09,7.9-9.09,3.91,0,7.43,2.42,7.43,9.09C31.9,129.57,28.78,132.59,24.18,132.59Zm.18-2.65c3.33,0,4.28-3.15,4.28-6.3,0-2.68-.71-6.46-4.33-6.46-3.36,0-4.46,3.13-4.46,6.25S20.58,129.93,24.36,129.93Z"/><path class="cls-1" d="M33.44,130.12l.87-.08c.45-.05.76-.21.76-.73V117.09l-1.5-.08v-2.23h7.17c3.86,0,6.3,1.26,6.3,4.83a4.83,4.83,0,0,1-3.15,4.62,2.53,2.53,0,0,1,1.5,1.6L47.27,130l1.5.05v2.23H42.29v-2.13L43,130c.6-.08.74-.31.5-.84l-1.23-2.63c-.37-.81-.74-1.21-1.65-1.21H38.27v4.57L40,130v2.23H33.44Zm7.12-7.25c2.23,0,3.23-1,3.23-2.89,0-2.36-1.37-2.65-3.6-2.65H38.27v5.54Z"/><path class="cls-1" d="M54.49,117.38h-2c-.55,0-.6.37-.6.81v1.23l-2.68-.18v-4.46H62.89v4.46l-2.68.18V118.2c0-.5-.05-.81-.76-.81H57.67v12.55l2.07.08v2.23H52.34v-2.13l1.39-.08c.5-.05.76-.21.76-.73Z"/><path class="cls-1" d="M64.38,132.25v-2.13l.87-.08c.45-.05.76-.21.76-.73V117.09l-1.5-.08v-2.23h6.33v2.13L70,117c-.45.05-.76.21-.76.84v11.71h4.36c.55,0,.6-.34.6-.84v-1.84l2.68.18v5.2Z"/><path class="cls-1" d="M84.14,117.07l-1.65-.16v-2.13h6l5.36,15.15h0l1.5.08v2.23H88.61v-2.13l1-.08c.55-.05.81-.21.63-.79l-.55-1.63H83.54l-.79,2.31,1.58.08v2.23H78.26v-2.13l.87-.08c.45-.05.6-.24.79-.73Zm0,8.14h4.88l-2.36-7.48h-.08Z"/><path class="cls-1" d="M96.83,130.12l.95-.08c.45,0,.68-.21.68-.73V117.09L97,117v-2.23h4.73l7.43,12.05h.05v-9.74l-1.73-.08v-2.23h6.41v2.13l-.95.08c-.39,0-.63.26-.63.81v14.44h-3.07L101.6,120h-.05v9.93l1.71.08v2.23H96.83Z"/><path class="cls-1" d="M115.5,130.12l.87-.08c.45-.05.76-.21.76-.73V117.09l-1.5-.08v-2.23h7.2c5,0,8.19,2.65,8.19,8.11,0,6.88-3.83,9.35-8.06,9.35H115.5Zm4.83-.39H123c2.94,0,4.78-2.15,4.78-6.35,0-4.73-2.28-6-5.12-6h-2.34Z"/><path class="cls-2" d="M37.72,3.76c-.94.09-1.25.58-1.48,1.61L30.6,29.79H24.46L19.76,9.86h-.13L15.05,29.79H8.74L2.55,3.94,0,3.81V0H11.11V3.63l-1.48.13c-1,.09-1.57.49-1.34,1.57l3.9,17.29h.18L17,2.37H22.8l4.84,20.34h.09L31.54,4l-2.42-.18V0H39.2V3.63Z"/><path class="cls-2" d="M41.38,26.16,42.86,26c.76-.09,1.3-.36,1.3-1.25V3.94L41.6,3.81V0H53.83c6.59,0,10.75,2.15,10.75,8.24a8.25,8.25,0,0,1-5.38,7.88,4.32,4.32,0,0,1,2.55,2.73l3.23,7,2.55.09v3.81H56.48V26.16l1.3-.13c1-.13,1.25-.54.85-1.43l-2.11-4.48c-.63-1.39-1.25-2.06-2.82-2.06H49.62v7.8l2.91.13v3.81H41.38ZM53.52,13.8c3.81,0,5.51-1.75,5.51-4.93,0-4-2.33-4.52-6.14-4.52H49.62V13.8Z"/><path class="cls-2" d="M72.67,3.94l-2.55-.13V0H81V3.63l-1.48.13c-.76.09-1.3.36-1.3,1.43V25.85l2.55.13v3.81H69.89V26.16L71.37,26c.85-.09,1.3-.36,1.3-1.48Z"/><path class="cls-2" d="M92.36,4.44H88.86c-.94,0-1,.63-1,1.39V7.93l-4.57-.31V0h23.43V7.62l-4.57.31V5.82c0-.85-.09-1.39-1.3-1.39h-3V25.85l3.54.13v3.81H88.68V26.16L91.06,26c.85-.09,1.3-.36,1.3-1.25Z"/><path class="cls-2" d="M109.05,29.79V26.16l1.48-.13c.76-.09,1.3-.36,1.3-1.25V3.94l-2.55-.13V0H129.8V7.44l-4.57.31V6c0-.85-.09-1.39-1.3-1.39H117.3v7.66h10.35V16.8H117.3v8.38h7.21c1.17,0,1.25-.54,1.25-1.43V21.5l4.57.31v8Z"/><path class="cls-2" d="M60.53,41.44H57c-.94,0-1,.63-1,1.39v2.11l-4.57-.31V37H74.87v7.62l-4.57.31V42.82c0-.85-.09-1.39-1.3-1.39H66V62.85l3.54.13v3.81H56.86V63.16L59.23,63c.85-.09,1.3-.36,1.3-1.25Z"/><path class="cls-2" d="M98.11,53.8H85.43v9L88,63v3.81H77.19V63.16L78.67,63c.76-.09,1.3-.36,1.3-1.25V40.94l-2.55-.13V37H88.25v3.63l-1.48.13c-.85.09-1.34.36-1.34,1.48v6.94H98.11V40.94l-2.55-.13V37H106.4v3.63l-1.48.13c-.76.09-1.3.36-1.3,1.43V62.85l2.55.13v3.81H95.33V63.16L96.81,63c.85-.09,1.3-.36,1.3-1.48Z"/><path class="cls-2" d="M109.05,66.79V63.16l1.48-.13c.76-.09,1.3-.36,1.3-1.25V40.94l-2.55-.13V37h20.52v7.44l-4.57.31V43c0-.85-.09-1.39-1.3-1.39H117.3v7.66h10.35V53.8H117.3v8.38h7.21c1.17,0,1.25-.54,1.25-1.43V58.5l4.57.31v8Z"/><path class="cls-2" d="M24.87,100.16l1.48-.13c.76-.09,1.3-.36,1.3-1.25V77.94l-2.55-.13V74H37.37c8.56,0,14,4.52,14,13.84,0,11.74-6.54,15.95-13.75,15.95H24.87Zm8.24-.67h4.57c5,0,8.15-3.67,8.15-10.84,0-8.06-3.9-10.3-8.74-10.3h-4Z"/><path class="cls-2" d="M67.49,104.37c-8,0-13-5.2-13-15.41,0-11.47,7.21-15.5,13.48-15.5,6.68,0,12.68,4.12,12.68,15.5C80.66,99.22,75.33,104.37,67.49,104.37Zm.31-4.52c5.69,0,7.3-5.38,7.3-10.75,0-4.57-1.21-11-7.39-11-5.73,0-7.62,5.33-7.62,10.66C60.1,93.85,61.35,99.85,67.81,99.85Z"/><path class="cls-2" d="M97.88,77.9c-5.64,0-8.47,4-8.47,10.8,0,7,2.33,11.38,8.56,11.24a11.44,11.44,0,0,0,3.27-.4c.81-.27.94-.63.94-1.48V94.47l4.57.31v7.75a20.45,20.45,0,0,1-8.87,1.84c-9.09,0-14.07-5.11-14.07-15.32,0-11.69,7.17-15.59,14.07-15.59a20.59,20.59,0,0,1,8.42,1.84v7.62l-4.57.31V79.73c0-.85-.13-1.21-.94-1.48A10.58,10.58,0,0,0,97.88,77.9Z"/><path class="cls-2" d="M124.91,95.46c0-2.82-2.55-3.63-5.69-4.48-4.44-1.21-8.56-3-8.56-8.74,0-5.47,4.21-8.78,10.39-8.78a19.55,19.55,0,0,1,8.42,1.84V82l-4.57.31v-2.6c0-.85-.13-1.21-.94-1.48a10.58,10.58,0,0,0-2.91-.36c-2.64,0-4.7,1.08-4.7,3.85s2.6,3.54,6,4.57c4.08,1.3,8.38,3.14,8.38,8.92s-4.66,9.14-10.84,9.14a20.41,20.41,0,0,1-9-1.84V95.46l4.57-.31v2.73c0,.85.13,1.21.94,1.48a11.32,11.32,0,0,0,3.23.4C122.49,99.76,124.91,98.82,124.91,95.46Z"/></svg>