<?xml version="1.0" encoding="UTF-8"?>
<svg width="32px" height="32px" viewBox="0 0 32 32" version="1.1" xmlns="http://www.w3.org/2000/svg" xmlns:xlink="http://www.w3.org/1999/xlink">
    <!-- Generator: Sketch 47.1 (45422) - http://www.bohemiancoding.com/sketch -->
    <title>Shape</title>
    <desc>Created with Sketch.</desc>
    <defs></defs>
    <g id="Home" stroke="none" stroke-width="1" fill="none" fill-rule="evenodd">
        <g id="Mobile" transform="translate(-58.000000, -702.000000)" fill-rule="nonzero" fill="#000000">
            <g id="Group-7" transform="translate(40.000000, 696.000000)">
                <path d="M35.442984,19.2497582 L36.8216767,23.3715492 L32.5498725,24.8002462 L31.1711798,20.6784552 L35.442984,19.2497582 Z M38.400387,36.6584319 C27.3994196,39.9587221 22.6418583,37.4013544 19.3415681,26.400387 C16.0412779,15.3994196 18.5986456,10.6418583 29.599613,7.34156812 C40.6005804,4.0412779 45.3581417,6.59864565 48.6584319,17.599613 C51.9587221,28.6005804 49.4013544,33.3581417 38.400387,36.6584319 Z M44.1580361,22.6429137 C43.8794402,21.7714085 42.9293567,21.3142254 42.0578514,21.5928213 L39.9862407,22.2857394 L38.607548,18.1639484 L40.6791588,17.4710303 C41.550664,17.1924344 42.007847,16.2423508 41.7292511,15.3708456 C41.4506552,14.4993404 40.5005716,14.0421574 39.6290664,14.3207533 L37.5574557,15.0136714 L36.8431072,12.8634823 C36.5645112,11.9919771 35.6144277,11.534794 34.7429225,11.8133899 C33.8714173,12.0919859 33.4142342,13.0420694 33.6928301,13.9135746 L34.4071787,16.0637637 L30.1353744,17.4996042 L29.4210259,15.3494152 C29.14243,14.47791 28.1923464,14.0207269 27.3208412,14.2993228 C26.449336,14.5779188 25.992153,15.5280023 26.2707489,16.3995075 L26.9850974,18.5496966 L24.9134867,19.2426147 C24.0419815,19.5212106 23.5847984,20.4712941 23.8633943,21.3427994 C24.0919859,22.0071435 24.7348995,22.4428961 25.3992437,22.47147 C25.7064135,22.5143309 25.949292,22.4000352 28.0351898,21.7071171 L29.4138824,25.8289081 L27.3422717,26.5218262 C26.4707665,26.8004221 26.0135834,27.7505057 26.2921793,28.6220109 C26.5207709,29.286355 27.1636845,29.7221076 27.8280287,29.7506816 C28.1351986,29.7935425 28.3780771,29.6792467 30.4639748,28.9863286 L31.1783233,31.1365177 C31.4426323,31.9080141 32.306994,32.465206 33.278508,32.1866101 C34.1500132,31.9080141 34.6071963,30.9579306 34.3286003,30.0864254 L33.6142518,27.9362363 L37.886056,26.5003958 L38.6004045,28.6505848 C38.8647135,29.4220812 39.7290752,29.9792731 40.7005892,29.7006772 C41.5720944,29.4220812 42.0292775,28.4719977 41.7506816,27.6004925 L41.036333,25.4503034 L43.1079438,24.7573853 C43.979449,24.457359 44.4366321,23.5072754 44.1580361,22.6429137 Z" id="Shape"></path>
            </g>
        </g>
    </g>
</svg>