<svg viewBox="0 55 660 350" fill="none" xmlns="http://www.w3.org/2000/svg">

  <defs>
    <style type="text/css">
      <![CDATA[
        @import url(/_static/survey/css/2025-svg.css);
      ]]>
    </style>
  </defs>

  <g id="2025-contractor-type-contract-length">

    <g class="title">
      <text font-size="14"><tspan x="40" y="33">Typical contract length</tspan></text>
      <text font-size="12" class="subtitle"><tspan x="40" y="49">Contractors</tspan></text>
    </g>

    <g class="donut-chart">

      <!-- Long term only (30.1%): 229.8°→338.2° -->
      <path d="M231.181 117.431 A150 150 0 0 1 467.234 176.198 L383.694 209.679 A60 60 0 0 0 289.273 186.172 Z" fill="#00AEFF" stroke="white" stroke-width="2"/>

      <!-- Not specified (28.7%): 338.2°→441.5° -->
      <path d="M467.234 176.198 A150 150 0 0 1 350.223 380.345 L336.889 291.338 A60 60 0 0 0 383.694 209.679 Z" fill="#BBBBBB" stroke="white" stroke-width="2"/>

      <!-- Mixed lengths (25.0%): 441.5°→531.5° -->
      <path d="M350.223 380.345 A150 150 0 0 1 179.655 254.223 L268.662 240.889 A60 60 0 0 0 336.889 291.338 Z" fill="#7EA4FF" stroke="white" stroke-width="2"/>

      <!-- Short term only (10.0%): 531.5°→567.5° -->
      <path d="M179.655 254.223 A150 150 0 0 1 194.924 162.784 L274.770 204.314 A60 60 0 0 0 268.662 240.889 Z" fill="#FFA600" stroke="white" stroke-width="2"/>

      <!-- Medium term only (6.2%): 567.5°→589.8° -->
      <path d="M194.924 162.784 A150 150 0 0 1 231.181 117.431 L289.273 186.172 A60 60 0 0 0 274.770 204.314 Z" fill="#FFD080" stroke="white" stroke-width="2"/>

      <!-- Connectors and labels -->
      <path d="M378.4 51.6 C378.4 51.6 369.1 67.0 365.0 83.5" stroke="#252521" stroke-dasharray="1 3"/>
      <path d="M496.1 327.5 C496.1 327.5 475.5 316.5 460.7 308.1" stroke="#252521" stroke-dasharray="1 3"/>
      <path d="M211.2 385.2 C211.2 385.2 226.9 368.7 237.0 355.0" stroke="#252521" stroke-dasharray="1 3"/>
      <path d="M137.6 203.0 C137.6 203.0 160.3 204.0 177.1 206.8" stroke="#252521" stroke-dasharray="1 3"/>
      <path d="M176.2 116.6 C176.2 116.6 195.2 125.8 208.5 136.5" stroke="#252521" stroke-dasharray="1 3"/>

      <!-- Labels -->
      <text font-size="10"><tspan x="381" y="50">Long term only (30.1%)</tspan></text>
      <text font-size="10"><tspan x="499" y="325">Not specified (28.7%)</tspan></text>
      <text font-size="10"><tspan x="111" y="383">Mixed lengths (25.0%)</tspan></text>
      <text font-size="10"><tspan x="28" y="201">Short term only (10.0%)</tspan></text>
      <text font-size="10"><tspan x="61" y="115">Medium term only (6.2%)</tspan></text>

      <!-- Inner percentage labels for large segments -->
      <text font-size="14" class="value-labels-inner"><tspan x="337" y="130">30.1%</tspan></text>
      <text font-size="14" class="value-labels-inner"><tspan x="405" y="292">28.7%</tspan></text>
      <text font-size="14" class="value-labels-inner"><tspan x="245" y="325">25.0%</tspan></text>
      <text font-size="14" class="value-labels-inner"><tspan x="202" y="219">10.0%</tspan></text>

    </g>

  </g>

</svg>