<svg viewBox="0 55 660 251" fill="none" xmlns="http://www.w3.org/2000/svg">

  <defs>
    <style type="text/css">
      <![CDATA[
        @import url(/_static/survey/css/2025-svg.css);
      ]]>
    </style>
    <filter id="label-bg" x="-15%" y="-40%" width="130%" height="180%">
      <feMorphology in="SourceAlpha" operator="dilate" radius="3" result="expanded"/>
      <feGaussianBlur in="expanded" stdDeviation="5" result="blurred"/>
      <feComponentTransfer in="blurred" result="rounded">
        <feFuncA type="linear" slope="20" intercept="-5"/>
      </feComponentTransfer>
      <feFlood flood-color="white" flood-opacity="0.8" result="color"/>
      <feComposite in="color" in2="rounded" operator="in" result="bg"/>
      <feMerge>
        <feMergeNode in="bg"/>
        <feMergeNode in="SourceGraphic"/>
      </feMerge>
    </filter>
  </defs>

  <g id="2025-salary-satisfaction">

    <g class="title">
      <text font-size="14"><tspan x="40" y="33">Salary satisfaction</tspan></text>
      <text font-size="12" class="subtitle"><tspan x="40" y="49">Employees</tspan></text>
    </g>

    <g class="donut-chart" transform="translate(0 20)">

      <!-- Very unsatisfied (2.8%): 180.0°→185.1° -->
      <path d="M180.000 262.000 A150 150 0 0 1 180.589 248.724 L270.235 256.690 A60 60 0 0 0 270.000 262.000 Z" fill="#C2255C" stroke="white" stroke-width="2"/>

      <!-- Unsatisfied (14.0%): 185.1°→210.2° -->
      <path d="M180.589 248.724 A150 150 0 0 1 200.374 186.521 L278.150 231.808 A60 60 0 0 0 270.235 256.690 Z" fill="#E4774E" stroke="white" stroke-width="2"/>

      <!-- Neutral (17.2%): 210.2°→241.2° -->
      <path d="M200.374 186.521 A150 150 0 0 1 257.702 130.573 L301.081 209.429 A60 60 0 0 0 278.150 231.808 Z" fill="#E9C168" stroke="white" stroke-width="2"/>

      <!-- Satisfied (45.4%): 241.2°→322.9° -->
      <path d="M257.702 130.573 A150 150 0 0 1 449.691 171.589 L377.876 225.836 A60 60 0 0 0 301.081 209.429 Z" fill="#82A555" stroke="white" stroke-width="2"/>

      <!-- Very satisfied (20.6%): 322.9°→360.0° -->
      <path d="M449.691 171.589 A150 150 0 0 1 480.000 262.000 L390.000 262.000 A60 60 0 0 0 377.876 225.836 Z" fill="#087F5B" stroke="white" stroke-width="2"/>

      <!-- Inner percentage labels -->
      <text font-size="14" class="value-labels-inner"><tspan x="207" y="234">14.0%</tspan></text>
      <text font-size="14" class="value-labels-inner"><tspan x="235" y="188">17.2%</tspan></text>
      <text font-size="14" class="value-labels-inner"><tspan x="335" y="159">45.4%</tspan></text>
      <text font-size="14" class="value-labels-inner"><tspan x="416" y="232">20.6%</tspan></text>

    </g>

    <g class="legend">
      <rect x="262" y="70" width="384" height="20" fill="white" stroke="#CCCCCC" stroke-width="1" rx="2"/>
      <circle cx="275" cy="80" r="6" fill="#C2255C"/>
      <text font-size="10" fill="#252521"><tspan x="285" y="84">Very unsatisfied</tspan></text>
      <circle cx="370" cy="80" r="6" fill="#E4774E"/>
      <text font-size="10" fill="#252521"><tspan x="380" y="84">Unsatisfied</tspan></text>
      <circle cx="444" cy="80" r="6" fill="#E9C168"/>
      <text font-size="10" fill="#252521"><tspan x="454" y="84">Neutral</tspan></text>
      <circle cx="504" cy="80" r="6" fill="#82A555"/>
      <text font-size="10" fill="#252521"><tspan x="514" y="84">Satisfied</tspan></text>
      <circle cx="568" cy="80" r="6" fill="#087F5B"/>
      <text font-size="10" fill="#252521"><tspan x="578" y="84">Very satisfied</tspan></text>
    </g>

  </g>

</svg>
