<svg viewBox="0 55 660 238" fill="none" xmlns="http://www.w3.org/2000/svg">

  <defs>
    <style type="text/css">
      <![CDATA[
        @import url(/_static/survey/css/2025-svg.css);
      ]]>
    </style>
    <filter id="label-bg" x="-15%" y="-40%" width="130%" height="180%">
      <feMorphology in="SourceAlpha" operator="dilate" radius="3" result="expanded"/>
      <feGaussianBlur in="expanded" stdDeviation="5" result="blurred"/>
      <feComponentTransfer in="blurred" result="rounded">
        <feFuncA type="linear" slope="20" intercept="-5"/>
      </feComponentTransfer>
      <feFlood flood-color="white" flood-opacity="0.8" result="color"/>
      <feComposite in="color" in2="rounded" operator="in" result="bg"/>
      <feMerge>
        <feMergeNode in="bg"/>
        <feMergeNode in="SourceGraphic"/>
      </feMerge>
    </filter>
  </defs>

  <g id="2025-contract-search-confidence-ec-contractor">

    <g class="title">
      <text font-size="14"><tspan x="40" y="33">Contract search confidence — as contractor</tspan></text>
      <text font-size="12" class="subtitle"><tspan x="40" y="49">Employee-contractors (n=17) — ability to secure a new contract with favorable terms</tspan></text>
    </g>

    <g class="donut-chart">

      <!-- Not confident at all: 5.9% — t=180 to 190.6 -->
      <path d="M 180,269 A 150 150 0 0 1 182.6,241.4 L 271.0,258.0 A 60 60 0 0 0 270,269 Z" fill="#C2255C" stroke="white" stroke-width="2"/>

      <!-- Not confident: 23.5% — t=190.6 to 233.0 -->
      <path d="M 182.6,241.4 A 150 150 0 0 1 239.7,149.2 L 293.9,221.1 A 60 60 0 0 0 271.0,258.0 Z" fill="#E4774E" stroke="white" stroke-width="2"/>

      <!-- Neutral: 41.2% — t=233.0 to 307.1 -->
      <path d="M 239.7,149.2 A 150 150 0 0 1 420.5,149.4 L 366.2,221.1 A 60 60 0 0 0 293.9,221.1 Z" fill="#E9C168" stroke="white" stroke-width="2"/>

      <!-- Confident: 29.4% — t=307.1 to 360.0 -->
      <path d="M 420.5,149.4 A 150 150 0 0 1 480,269 L 390,269 A 60 60 0 0 0 366.2,221.1 Z" fill="#82A555" stroke="white" stroke-width="2"/>

      <!-- Inner value labels (≥12% only) -->
      <text font-size="12" text-anchor="middle" class="value-labels-inner"><tspan x="241" y="218">23.5%</tspan></text>
      <text font-size="14" text-anchor="middle" class="value-labels-inner"><tspan x="330" y="169">41.2%</tspan></text>
      <text font-size="14" text-anchor="middle" class="value-labels-inner"><tspan x="424" y="227">29.4%</tspan></text>

    </g>

    <g class="legend">
      <rect x="261" y="70" width="384" height="20" fill="white" stroke="#CCCCCC" stroke-width="1" rx="2"/>
      <circle cx="274" cy="80" r="6" fill="#C2255C"/>
      <text font-size="10" fill="#252521"><tspan x="284" y="84">Not all all</tspan></text>
      <circle cx="345" cy="80" r="6" fill="#E4774E"/>
      <text font-size="10" fill="#252521"><tspan x="355" y="84">Not confident</tspan></text>
      <circle cx="434" cy="80" r="6" fill="#E9C168"/>
      <text font-size="10" fill="#252521"><tspan x="444" y="84">Neutral</tspan></text>
      <circle cx="494" cy="80" r="6" fill="#82A555"/>
      <text font-size="10" fill="#252521"><tspan x="504" y="84">Confident</tspan></text>
      <circle cx="561" cy="80" r="6" fill="#087F5B"/>
      <text font-size="10" fill="#252521"><tspan x="571" y="84">Very confident</tspan></text>
    </g>

  </g>

</svg>
