<svg viewBox="0 0 660 500" fill="none" xmlns="http://www.w3.org/2000/svg">

  <defs>
    <style type="text/css">
      <![CDATA[
        @import url(/_static/survey/css/2025-svg.css);
        .bars rect {
          fill-opacity: 0.8;
        }
        .bars rect:hover {
          fill-opacity: 1;
        }
      ]]>
    </style>
  </defs>

  <g id="2025-primary-role-categories-v2" class="scale-single-series">
    <g class="chart-header">
      <g class="chart-title">
        <text x="20" y="35" class="title-text">Primary role categories</text>
        <text x="20" y="55" class="subtitle-text">All respondents (755)</text>
      </g>

      <g class="legend">
        <g class="legend-row">
          <g class="legend-item">
            <rect class="legend-item-container" x="552" y="20" width="88"/>
            <circle class="series-a" cx="565" cy="31"/>
            <text class="legend-label" x="573" y="35">Respondents</text>
          </g>
        </g>
      </g>
    </g>

    <g class="chart-area bar-chart-horizontal scale-single-series" transform="translate(0 35)">
      <g font-size="10" text-anchor="end">
        <text><tspan x="100" y="74">Technical</tspan><tspan x="100" y="86">writer</tspan></text>
        <text><tspan x="100" y="112">Project /</tspan><tspan x="100" y="124">product manager</tspan></text>
        <text><tspan x="100" y="156">Editor</tspan></text>
        <text><tspan x="100" y="194">DocOps</tspan></text>
        <text><tspan x="100" y="232">Other</tspan></text>
        <text><tspan x="100" y="264">Manager or</tspan><tspan x="100" y="276">team leader</tspan></text>
        <text><tspan x="100" y="302">Developer /</tspan><tspan x="100" y="314">engineer</tspan></text>
        <text><tspan x="100" y="346">Programmer-</tspan><tspan x="100" y="358">writer</tspan></text>
        <text><tspan x="100" y="384">Support</tspan></text>
        <text><tspan x="100" y="422">UX writer</tspan></text>
      </g>

      <g class="tracks">
        <rect class="track" x="108" y="62" width="500" height="28"/>
        <rect class="track" x="108" y="100" width="500" height="28"/>
        <rect class="track" x="108" y="138" width="500" height="28"/>
        <rect class="track" x="108" y="176" width="500" height="28"/>
        <rect class="track" x="108" y="214" width="500" height="28"/>
        <rect class="track" x="108" y="252" width="500" height="28"/>
        <rect class="track" x="108" y="290" width="500" height="28"/>
        <rect class="track" x="108" y="328" width="500" height="28"/>
        <rect class="track" x="108" y="366" width="500" height="28"/>
        <rect class="track" x="108" y="404" width="500" height="28"/>
      </g>

      <g class="bars series-a">
        <rect x="108" y="62" width="500" height="28"/>
        <rect x="108" y="100" width="432.9" height="28"/>
        <rect x="108" y="138" width="417.1" height="28"/>
        <rect x="108" y="176" width="317.1" height="28"/>
        <rect x="108" y="214" width="317.1" height="28"/>
        <rect x="108" y="252" width="250" height="28"/>
        <rect x="108" y="290" width="250" height="28"/>
        <rect x="108" y="328" width="217.1" height="28"/>
        <rect x="108" y="366" width="182.9" height="28"/>
        <rect x="108" y="404" width="182.9" height="28"/>
      </g>

      <polygon points="589,62 594,62 590,90 585,90" fill="white"/>
      <polygon points="597,62 602,62 598,90 593,90" fill="white"/>

      <g class="value-labels-outer" text-anchor="end">
        <text><tspan x="640" y="80">81.2%</tspan></text>
        <text><tspan x="640" y="118">2.6%</tspan></text>
        <text><tspan x="640" y="156">2.5%</tspan></text>
        <text><tspan x="640" y="194">1.9%</tspan></text>
        <text><tspan x="640" y="232">1.9%</tspan></text>
        <text><tspan x="640" y="270">1.5%</tspan></text>
        <text><tspan x="640" y="308">1.5%</tspan></text>
        <text><tspan x="640" y="346">1.3%</tspan></text>
        <text><tspan x="640" y="384">1.1%</tspan></text>
        <text><tspan x="640" y="422">1.1%</tspan></text>
      </g>
    </g>
  </g>

</svg>
