<svg viewBox="0 0 660 500" fill="none" xmlns="http://www.w3.org/2000/svg">

  <defs>
    <style type="text/css">
      <![CDATA[
        @import url(/_static/survey/css/2025-svg.css);
        .bars rect {
          fill-opacity: 0.8;
        }
        .bars rect:hover {
          fill-opacity: 1;
        }
      ]]>
    </style>
  </defs>

  <g id="2025-job-titles-excl-tw-v2" class="scale-single-series">
    <g class="chart-header">
      <g class="chart-title">
        <text x="20" y="35" class="title-text">Job titles</text>
        <text x="20" y="55" class="subtitle-text">All respondents, top 10 titles excluding “Technical Writer” shown</text>
      </g>

      <g class="legend">
        <g class="legend-row">
          <g class="legend-item">
            <rect class="legend-item-container" x="552" y="20" width="88"/>
            <circle class="series-a" cx="565" cy="31"/>
            <text class="legend-label" x="573" y="35">Respondents</text>
          </g>
        </g>
      </g>
    </g>

    <g class="chart-area bar-chart-horizontal scale-single-series" transform="translate(0 35)">
      <g font-size="10" text-anchor="end">
        <text><tspan x="100" y="74">Technical</tspan><tspan x="100" y="86">Writing Manager</tspan></text>
        <text><tspan x="100" y="112">Documentation</tspan><tspan x="100" y="124">Manager</tspan></text>
        <text><tspan x="100" y="150">Documentation</tspan><tspan x="100" y="162">Specialist</tspan></text>
        <text><tspan x="100" y="188">Documentation</tspan><tspan x="100" y="200">Engineer</tspan></text>
        <text><tspan x="100" y="226">Technical</tspan><tspan x="100" y="238">Author</tspan></text>
        <text><tspan x="100" y="264">Content</tspan><tspan x="100" y="276">Developer</tspan></text>
        <text><tspan x="100" y="302">Content</tspan><tspan x="100" y="314">Strategist</tspan></text>
        <text><tspan x="100" y="340">Documentation</tspan><tspan x="100" y="352">Head</tspan></text>
        <text><tspan x="100" y="378">Sr Documentation</tspan><tspan x="100" y="390">Manager</tspan></text>
        <text><tspan x="100" y="416">Technical</tspan><tspan x="100" y="428">Content Writer</tspan></text>
      </g>

      <g class="tracks">
        <rect class="track" x="108" y="62" width="500" height="28"/>
        <rect class="track" x="108" y="100" width="500" height="28"/>
        <rect class="track" x="108" y="138" width="500" height="28"/>
        <rect class="track" x="108" y="176" width="500" height="28"/>
        <rect class="track" x="108" y="214" width="500" height="28"/>
        <rect class="track" x="108" y="252" width="500" height="28"/>
        <rect class="track" x="108" y="290" width="500" height="28"/>
        <rect class="track" x="108" y="328" width="500" height="28"/>
        <rect class="track" x="108" y="366" width="500" height="28"/>
        <rect class="track" x="108" y="404" width="500" height="28"/>
      </g>

      <g class="bars series-a">
        <rect x="108" y="62" width="500" height="28"/>
        <rect x="108" y="100" width="318.2" height="28"/>
        <rect x="108" y="138" width="318.2" height="28"/>
        <rect x="108" y="176" width="272.7" height="28"/>
        <rect x="108" y="214" width="272.7" height="28"/>
        <rect x="108" y="252" width="227.3" height="28"/>
        <rect x="108" y="290" width="227.3" height="28"/>
        <rect x="108" y="328" width="227.3" height="28"/>
        <rect x="108" y="366" width="227.3" height="28"/>
        <rect x="108" y="404" width="181.8" height="28"/>
      </g>

      <g class="value-labels-outer" text-anchor="end">
        <text><tspan x="640" y="80">11</tspan></text>
        <text><tspan x="640" y="118">7</tspan></text>
        <text><tspan x="640" y="156">7</tspan></text>
        <text><tspan x="640" y="194">6</tspan></text>
        <text><tspan x="640" y="232">6</tspan></text>
        <text><tspan x="640" y="270">5</tspan></text>
        <text><tspan x="640" y="308">5</tspan></text>
        <text><tspan x="640" y="346">5</tspan></text>
        <text><tspan x="640" y="384">5</tspan></text>
        <text><tspan x="640" y="422">4</tspan></text>
      </g>
    </g>
  </g>

</svg>
