<svg viewBox="0 35 660 237" fill="none" xmlns="http://www.w3.org/2000/svg">

  <defs>
    <style type="text/css">
      <![CDATA[
        @import url(/_static/survey/css/2025-svg.css);
      ]]>
    </style>
    <filter id="label-bg" x="-15%" y="-40%" width="130%" height="180%">
      <feMorphology in="SourceAlpha" operator="dilate" radius="3" result="expanded"/>
      <feGaussianBlur in="expanded" stdDeviation="5" result="blurred"/>
      <feComponentTransfer in="blurred" result="rounded">
        <feFuncA type="linear" slope="20" intercept="-5"/>
      </feComponentTransfer>
      <feFlood flood-color="white" flood-opacity="0.8" result="color"/>
      <feComposite in="color" in2="rounded" operator="in" result="bg"/>
      <feMerge>
        <feMergeNode in="bg"/>
        <feMergeNode in="SourceGraphic"/>
      </feMerge>
    </filter>
  </defs>

  <g id="2025-overall-satisfaction-contractors">

    <g class="title">
      <text font-size="14"><tspan x="40" y="33">Overall satisfaction</tspan></text>
      <text font-size="12" class="subtitle"><tspan x="40" y="49">Contractors</tspan></text>
    </g>

    <g class="donut-chart" transform="translate(0 20)">

      <!-- Very unsatisfied (11.2%): 180.0°→200.2° -->
      <path d="M180.000 236.000 A150 150 0 0 1 189.271 184.082 L273.709 215.233 A60 60 0 0 0 270.000 236.000 Z" fill="#C2255C" stroke="white" stroke-width="2"/>

      <!-- Unsatisfied (12.5%): 200.2°→222.8° -->
      <path d="M189.271 184.082 A150 150 0 0 1 219.852 134.180 L285.941 195.272 A60 60 0 0 0 273.709 215.233 Z" fill="#E4774E" stroke="white" stroke-width="2"/>

      <!-- Neutral (18.8%): 222.8°→256.5° -->
      <path d="M219.852 134.180 A150 150 0 0 1 294.983 90.145 L315.993 177.658 A60 60 0 0 0 285.941 195.272 Z" fill="#E9C168" stroke="white" stroke-width="2"/>

      <!-- Satisfied (33.8%): 256.5°→317.2° -->
      <path d="M294.983 90.145 A150 150 0 0 1 440.148 134.180 L374.059 195.272 A60 60 0 0 0 315.993 177.658 Z" fill="#82A555" stroke="white" stroke-width="2"/>

      <!-- Very satisfied (23.8%): 317.2°→360.0° -->
      <path d="M440.148 134.180 A150 150 0 0 1 480.000 236.000 L390.000 236.000 A60 60 0 0 0 374.059 195.272 Z" fill="#087F5B" stroke="white" stroke-width="2"/>

      <!-- Inner percentage labels -->
      <text font-size="14" class="value-labels-inner"><tspan x="204" y="222">11.2%</tspan></text>
      <text font-size="14" class="value-labels-inner"><tspan x="218" y="184">12.5%</tspan></text>
      <text font-size="14" class="value-labels-inner"><tspan x="256" y="146">18.8%</tspan></text>
      <text font-size="14" class="value-labels-inner"><tspan x="344" y="136">33.8%</tspan></text>
      <text font-size="14" class="value-labels-inner"><tspan x="414" y="201">23.8%</tspan></text>

    </g>

    <g class="legend">
      <rect x="262" y="50" width="384" height="20" fill="white" stroke="#CCCCCC" stroke-width="1" rx="2"/>
      <circle cx="275" cy="60" r="6" fill="#C2255C"/>
      <text font-size="10" fill="#252521"><tspan x="285" y="64">Very unsatisfied</tspan></text>
      <circle cx="370" cy="60" r="6" fill="#E4774E"/>
      <text font-size="10" fill="#252521"><tspan x="380" y="64">Unsatisfied</tspan></text>
      <circle cx="444" cy="60" r="6" fill="#E9C168"/>
      <text font-size="10" fill="#252521"><tspan x="454" y="64">Neutral</tspan></text>
      <circle cx="504" cy="60" r="6" fill="#82A555"/>
      <text font-size="10" fill="#252521"><tspan x="514" y="64">Satisfied</tspan></text>
      <circle cx="568" cy="60" r="6" fill="#087F5B"/>
      <text font-size="10" fill="#252521"><tspan x="578" y="64">Very satisfied</tspan></text>
    </g>

  </g>

</svg>
