<svg viewBox="0 65 660 325" fill="none" xmlns="http://www.w3.org/2000/svg">

  <defs>
    <style type="text/css">
      <![CDATA[
        @import url(/_static/survey/css/2025-svg.css);
      ]]>
    </style>
    <clipPath id="clip-col0"><rect x="72.0"  y="216.7" width="62.3" height="138.8" rx="2"/></clipPath>
    <clipPath id="clip-col1"><rect x="152.3" y="194.5" width="62.3" height="161.0" rx="2"/></clipPath>
    <clipPath id="clip-col2"><rect x="232.6" y="163.7" width="62.3" height="191.8" rx="2"/></clipPath>
    <clipPath id="clip-col3"><rect x="312.9" y="250.5" width="62.2" height="105.0" rx="2"/></clipPath>
    <clipPath id="clip-col4"><rect x="393.1" y="152.1" width="62.3" height="203.4" rx="2"/></clipPath>
    <clipPath id="clip-col5"><rect x="473.4" y="199.5" width="62.3" height="156.0" rx="2"/></clipPath>
    <clipPath id="clip-col6"><rect x="553.7" y="204.5" width="62.3" height="151.0" rx="2"/></clipPath>
  </defs>

  <g id="2025-basis-of-employment-history">

    <g class="title">
      <text font-size="14"><tspan x="40" y="33">Basis of employment</tspan></text>
      <text font-size="12" class="subtitle"><tspan x="40" y="49">Respondents by survey year (2019-2025)</tspan></text>
    </g>

    <g class="bar-chart-vertical scale-employment-history">

      <g class="y-axis">
        <g class="gridlines">
          <path d="M68 355.5H620" stroke="#F0F0F0"/>
          <path d="M68 305.5H620" stroke="#F0F0F0"/>
          <path d="M68 255.5H620" stroke="#F0F0F0"/>
          <path d="M68 205.5H620" stroke="#F0F0F0"/>
          <path d="M68 155.5H620" stroke="#F0F0F0"/>
        </g>
        <g class="axis-labels">
          <text font-size="10"><tspan x="45" y="358.0">0</tspan></text>
          <text font-size="10"><tspan x="40" y="308.0">250</tspan></text>
          <text font-size="10"><tspan x="40" y="258.0">500</tspan></text>
          <text font-size="10"><tspan x="40" y="208.0">750</tspan></text>
          <text font-size="10"><tspan x="40" y="158.0">1,000</tspan></text>
        </g>
      </g>

      <g class="data-series">
        <g class="a">
          <g class="axis-labels">
            <text font-size="10" text-anchor="middle"><tspan x="103.1" y="374.0">2019</tspan></text>
            <text font-size="10" text-anchor="middle"><tspan x="183.4" y="374.0">2020</tspan></text>
            <text font-size="10" text-anchor="middle"><tspan x="263.7" y="374.0">2021</tspan></text>
            <text font-size="10" text-anchor="middle"><tspan x="344.0" y="374.0">2022</tspan></text>
            <text font-size="10" text-anchor="middle"><tspan x="424.3" y="374.0">2023</tspan></text>
            <text font-size="10" text-anchor="middle"><tspan x="504.6" y="374.0">2024</tspan></text>
            <text font-size="10" text-anchor="middle"><tspan x="584.9" y="374.0">2025</tspan></text>
          </g>
          <g class="bars">
            <g clip-path="url(#clip-col0)">
              <path class="employees" d="M134.3 227.1H72.0V355.5H134.3V227.1Z"/>
              <path class="contractors" d="M134.3 216.7H72.0V225.1H134.3V216.7Z"/>
            </g>
            <g clip-path="url(#clip-col1)">
              <path class="employees" d="M214.6 207.9H152.3V355.5H214.6V207.9Z"/>
              <path class="contractors" d="M214.6 194.5H152.3V205.9H214.6V194.5Z"/>
            </g>
            <g clip-path="url(#clip-col2)">
              <path class="employees" d="M294.9 180.1H232.6V355.5H294.9V180.1Z"/>
              <path class="contractors" d="M294.9 163.7H232.6V178.1H294.9V163.7Z"/>
            </g>
            <g clip-path="url(#clip-col3)">
              <path class="employees" d="M375.1 259.3H312.9V355.5H375.1V259.3Z"/>
              <path class="contractors" d="M375.1 250.5H312.9V257.3H375.1V250.5Z"/>
            </g>
            <g clip-path="url(#clip-col4)">
              <path class="employees" d="M455.4 169.9H393.1V355.5H455.4V169.9Z"/>
              <path class="contractors" d="M455.4 152.1H393.1V167.9H455.4V152.1Z"/>
            </g>
            <g clip-path="url(#clip-col5)">
              <path class="employees" d="M535.7 220.3H473.4V355.5H535.7V220.3Z"/>
              <path class="contractors" d="M535.7 207.1H473.4V218.3H535.7V207.1Z"/>
              <path class="employee-contractors" d="M535.7 199.5H473.4V205.1H535.7V199.5Z"/>
            </g>
            <g clip-path="url(#clip-col6)">
              <path class="employees" d="M616.0 222.5H553.7V355.5H616.0V222.5Z"/>
              <path class="contractors" d="M616.0 213.3H553.7V220.5H616.0V213.3Z"/>
              <path class="employee-contractors" d="M616.0 204.5H553.7V211.3H616.0V204.5Z"/>
            </g>
          </g>
        </g>
      </g>

      <!-- Legend (right-aligned, 15px margins, boxed in top right corner) -->
      <g class="legend scale-employment-history">
        <rect x="348" y="85" width="295" height="20" fill="white" stroke="#CCCCCC" stroke-width="1" rx="2"/>
        <circle class="employees" cx="365" cy="95" r="6"/>
        <text font-size="10" fill="#252521"><tspan x="374" y="99">Employees</tspan></text>
        <circle class="contractors" cx="439" cy="95" r="6"/>
        <text font-size="10" fill="#252521"><tspan x="448" y="99">Contractors</tspan></text>
        <circle class="employee-contractors" cx="521" cy="95" r="6"/>
        <text font-size="10" fill="#252521"><tspan x="530" y="99">Employee-contractors</tspan></text>
      </g>

    </g>

  </g>

</svg>
