<svg viewBox="0 65 660 295" fill="none" xmlns="http://www.w3.org/2000/svg">

  <defs>
    <style type="text/css">
      <![CDATA[
        @import url(/_static/survey/css/2025-svg.css);
      ]]>
    </style>
  </defs>

  <g id="2025-hours-worked-employees">

    <g class="title">
      <text font-size="14"><tspan x="40" y="33">Weekly hours worked</tspan></text>
      <text font-size="12" class="subtitle"><tspan x="40" y="49">Employees only (n=675)</tspan></text>
    </g>

    <g class="bar-chart-vertical">

      <g class="y-axis">
        <g class="gridlines">
          <path d="M68.5 319.5H620.5"/>
          <path d="M68.5 242.5H620.5"/>
          <path d="M68.5 165.5H620.5"/>
          
        </g>
        <g class="axis-labels">
          <text font-size="10"><tspan x="46.4883" y="323.384">0%</tspan></text>
          <text font-size="10"><tspan x="40.4824" y="246.384">25%</tspan></text>
          <text font-size="10"><tspan x="40.4824" y="169.384">50%</tspan></text>
          
        </g>
      </g>

      <g class="data-series">
        <g class="a">
          <g class="axis-labels">
            <text font-size="12" text-anchor="middle"><tspan x="110.3" y="337.384">1–20</tspan></text>
            <text font-size="12" text-anchor="middle"><tspan x="204.0" y="337.384">21–30</tspan></text>
            <text font-size="12" text-anchor="middle"><tspan x="297.7" y="337.384">31–40</tspan></text>
            <text font-size="12" text-anchor="middle"><tspan x="391.3" y="337.384">41–50</tspan></text>
            <text font-size="12" text-anchor="middle"><tspan x="485.0" y="337.384">51–60</tspan></text>
            <text font-size="12" text-anchor="middle"><tspan x="578.7" y="337.384">60+</tspan></text>
          </g>
          <g class="bars">
            <rect x="72.5"  y="318.1" width="75.7" height="1.9"   rx="2"/>
            <rect x="166.2" y="316.3" width="75.6" height="3.7"   rx="2"/>
            <rect x="259.8" y="112.4" width="75.7" height="207.6" rx="2"/>
            <rect x="353.5" y="228.8" width="75.7" height="91.2"  rx="2"/>
            <rect x="447.2" y="312.6" width="75.6" height="7.4"   rx="2"/>
            <rect x="540.8" y="320.0" width="75.7" height="0.0"   rx="2"/>
          </g>
          <g class="value-labels">
          </g>
        </g>
      </g>

      <g class="legend">
        <rect x="565" y="80" width="80" height="20" fill="white" stroke="#CCCCCC" stroke-width="1" rx="2"/>
        <circle cx="579" cy="90" r="6" fill="#00AEFF"/>
        <text font-size="10" fill="#252521"><tspan x="589" y="94">Employees</tspan></text>
      </g>

    </g>

  </g>

</svg>
