<svg viewBox="0 40 660 420" fill="none" xmlns="http://www.w3.org/2000/svg">

  <defs>
    <style type="text/css">
      <![CDATA[
        @import url(/_static/survey/css/2025-svg.css);
      ]]>
    </style>
  </defs>

  <g id="2025-job-titles-excl-tw" class="scale-single-series">

    <g class="title">
      <text font-size="14"><tspan x="40" y="25">Job titles</tspan></text>
      <text font-size="12" class="subtitle"><tspan x="40" y="41">All respondents, titles not containing &#x201C;Technical Writer&#x201D;, with 4 or more respondents shown</tspan></text>
    </g>

    <g class="bar-chart-horizontal scale-single-series">

      <g class="gridlines">
        <line x1="341.3" y1="62" x2="341.3" y2="432" stroke="#F2F4F6" stroke-width="1"/>
        <line x1="454.7" y1="62" x2="454.7" y2="432" stroke="#F2F4F6" stroke-width="1"/>
        <line x1="568.0" y1="62" x2="568.0" y2="432" stroke="#F2F4F6" stroke-width="1"/>
      </g>

      <line x1="228" y1="62" x2="228" y2="432" stroke="#D8D8D5" stroke-width="1"/>

      <g font-size="10" text-anchor="end" fill="#50514F">
        <text><tspan x="222" y="80">Technical Writing Manager</tspan></text>
        <text><tspan x="222" y="118">Documentation Manager</tspan></text>
        <text><tspan x="222" y="156">Documentation Specialist</tspan></text>
        <text><tspan x="222" y="194">Documentation Engineer</tspan></text>
        <text><tspan x="222" y="232">Technical Author</tspan></text>
        <text><tspan x="222" y="270">Content Developer</tspan></text>
        <text><tspan x="222" y="308">Content Strategist</tspan></text>
        <text><tspan x="222" y="346">Documentation Head</tspan></text>
        <text><tspan x="222" y="384">Senior Documentation Manager</tspan></text>
        <text><tspan x="222" y="422">Technical Content Writer</tspan></text>
      </g>

      <g class="series-a">
        <rect x="228" y="62" width="249.3" height="28"/>
        <rect x="228" y="100" width="158.7" height="28"/>
        <rect x="228" y="138" width="158.7" height="28"/>
        <rect x="228" y="176" width="136.0" height="28"/>
        <rect x="228" y="214" width="136.0" height="28"/>
        <rect x="228" y="252" width="113.3" height="28"/>
        <rect x="228" y="290" width="113.3" height="28"/>
        <rect x="228" y="328" width="113.3" height="28"/>
        <rect x="228" y="366" width="113.3" height="28"/>
        <rect x="228" y="404" width="90.7" height="28"/>
      </g>

      <g font-size="9" text-anchor="start" fill="#50514F">
        <text><tspan x="481.3" y="80">11</tspan></text>
        <text><tspan x="390.7" y="118">7</tspan></text>
        <text><tspan x="390.7" y="156">7</tspan></text>
        <text><tspan x="368.0" y="194">6</tspan></text>
        <text><tspan x="368.0" y="232">6</tspan></text>
        <text><tspan x="345.3" y="270">5</tspan></text>
        <text><tspan x="345.3" y="308">5</tspan></text>
        <text><tspan x="345.3" y="346">5</tspan></text>
        <text><tspan x="345.3" y="384">5</tspan></text>
        <text><tspan x="322.7" y="422">4</tspan></text>
      </g>

      <g font-size="9" text-anchor="middle" fill="#999999">
        <text><tspan x="228" y="448">0</tspan></text>
        <text><tspan x="341.3" y="448">5</tspan></text>
        <text><tspan x="454.7" y="448">10</tspan></text>
        <text><tspan x="568.0" y="448">15</tspan></text>
      </g>

    </g>

  </g>

</svg>
