<svg viewBox="0 55 660 223" fill="none" xmlns="http://www.w3.org/2000/svg">

  <defs>
    <style type="text/css">
      <![CDATA[
        @import url(/_static/survey/css/2025-svg.css);
      ]]>
    </style>
    <filter id="label-bg" x="-15%" y="-40%" width="130%" height="180%">
      <feMorphology in="SourceAlpha" operator="dilate" radius="3" result="expanded"/>
      <feGaussianBlur in="expanded" stdDeviation="5" result="blurred"/>
      <feComponentTransfer in="blurred" result="rounded">
        <feFuncA type="linear" slope="20" intercept="-5"/>
      </feComponentTransfer>
      <feFlood flood-color="white" flood-opacity="0.8" result="color"/>
      <feComposite in="color" in2="rounded" operator="in" result="bg"/>
      <feMerge>
        <feMergeNode in="bg"/>
        <feMergeNode in="SourceGraphic"/>
      </feMerge>
    </filter>
  </defs>

  <g id="2025-earnings-change-contractors">

    <g class="title">
      <text font-size="14"><tspan x="40" y="33">Earnings change</tspan></text>
      <text font-size="12" class="subtitle"><tspan x="40" y="49">Contractors (n=80)</tspan></text>
    </g>

    <g class="donut-chart" transform="translate(0 35)">

      <!-- Decrease: 21.25% — theta 180 to 141.750 -->
      <path d="M180 222 A150 150 0 0 1 212.20 129.14 L282.88 184.85 A60 60 0 0 0 270 222 Z" fill="#E4774E" stroke="white" stroke-width="2"/>

      <!-- No change: 36.25% — theta 141.750 to 76.500 -->
      <path d="M212.20 129.14 A150 150 0 0 1 365.02 76.14 L344.01 163.66 A60 60 0 0 0 282.88 184.85 Z" fill="#E9C168" stroke="white" stroke-width="2"/>

      <!-- Increase: 42.5% — theta 76.500 to 0 -->
      <path d="M365.02 76.14 A150 150 0 0 1 480 222 L390 222 A60 60 0 0 0 344.01 163.66 Z" fill="#82A555" stroke="white" stroke-width="2"/>

      <!-- Inner value labels -->
      <text font-size="14" class="value-labels-inner" text-anchor="middle"><tspan x="413" y="157">42.5%</tspan></text>
      <text font-size="14" class="value-labels-inner" text-anchor="middle"><tspan x="296" y="123">36.2%</tspan></text>
      <text font-size="14" class="value-labels-inner" text-anchor="middle"><tspan x="231" y="188">21.2%</tspan></text>

    </g>

    <g class="legend">
      <rect x="438" y="70" width="207" height="20" fill="white" stroke="#CCCCCC" stroke-width="1" rx="2"/>
      <circle cx="451" cy="80" r="6" fill="#E4774E"/>
      <text font-size="10" fill="#252521"><tspan x="461" y="84">Decrease</tspan></text>
      <circle cx="515" cy="80" r="6" fill="#E9C168"/>
      <text font-size="10" fill="#252521"><tspan x="525" y="84">No change</tspan></text>
      <circle cx="584" cy="80" r="6" fill="#82A555"/>
      <text font-size="10" fill="#252521"><tspan x="594" y="84">Increase</tspan></text>
    </g>

  </g>

</svg>
