<svg viewBox="0 55 660 391" fill="none" xmlns="http://www.w3.org/2000/svg">

  <defs>
    <style type="text/css">
      <![CDATA[
        @import url(/_static/survey/css/2025-svg.css);
      ]]>
    </style>
  </defs>

  <g id="2025-satisfaction-factors-contracts-contractors">

    <g class="title">
      <text font-size="14"><tspan x="40" y="33">Satisfaction factors: contracts and projects</tspan></text>
      <text font-size="12" class="subtitle"><tspan x="40" y="49">Contractors</tspan></text>
    </g>

    <g class="bar-chart-horizontal">

      <g class="legend">
        <circle cx="235" cy="419" r="6" fill="#E4774E"/>
        <circle cx="319" cy="419" r="6" fill="#E9C168"/>
        <circle cx="397" cy="419" r="6" fill="#82A555"/>
        <text font-size="10"><tspan x="245" y="423">Disagree</tspan></text>
        <text font-size="10"><tspan x="329" y="423">Neutral</tspan></text>
        <text font-size="10"><tspan x="407" y="423">Agree</tspan></text>
      </g>

      <g class="row-0">
        <text font-size="10"><tspan x="189" y="99">My hours are reasonable</tspan></text>
        <rect x="314" y="82" width="4" height="27" rx="5" fill="#E4774E"/>
        <rect x="320" y="82" width="20" height="27" rx="5" fill="#E9C168"/>
        <rect x="342" y="82" width="298" height="27" rx="5" fill="#82A555"/>
        <text font-size="12" class="value-labels-inner"><tspan x="473" y="100">92.5%</tspan></text>
      </g>

      <g class="row-1">
        <text font-size="10"><tspan x="138" y="138">I have flexibility in my hours</tspan></text>
        <rect x="298" y="121" width="20" height="27" rx="5" fill="#E4774E"/>
        <rect x="320" y="121" width="20" height="27" rx="5" fill="#E9C168"/>
        <rect x="342" y="121" width="282" height="27" rx="5" fill="#82A555"/>
        <text font-size="12" class="value-labels-inner"><tspan x="465" y="139">87.5%</tspan></text>
      </g>

      <g class="row-2">
        <text font-size="10"><tspan x="120" y="177">My responsibilities are reasonable</tspan></text>
        <rect x="300" y="160" width="16" height="27" rx="5" fill="#E4774E"/>
        <rect x="318" y="160" width="24" height="27" rx="5" fill="#E9C168"/>
        <rect x="344" y="160" width="282" height="27" rx="5" fill="#82A555"/>
        <text font-size="12" class="value-labels-inner"><tspan x="467" y="178">87.5%</tspan></text>
      </g>

      <g class="row-3">
        <text font-size="10"><tspan x="153" y="216">My workload is manageable</tspan></text>
        <rect x="288" y="199" width="20" height="27" rx="5" fill="#E4774E"/>
        <rect x="310" y="199" width="40" height="27" rx="5" fill="#E9C168"/>
        <rect x="352" y="199" width="261" height="27" rx="5" fill="#82A555"/>
        <text font-size="12" class="value-labels-inner"><tspan x="312" y="217">12.5%</tspan></text>
        <text font-size="12" class="value-labels-inner"><tspan x="464" y="217">81.2%</tspan></text>
      </g>

      <g class="row-4">
        <text font-size="10"><tspan x="30" y="248">I have opportunities for</tspan><tspan x="48" y="259">career advancement</tspan></text>
        <rect x="148" y="238" width="130" height="27" rx="5" fill="#E4774E"/>
        <rect x="280" y="238" width="101" height="27" rx="5" fill="#E9C168"/>
        <rect x="383" y="238" width="91" height="27" rx="5" fill="#82A555"/>
        <text font-size="12" class="value-labels-inner"><tspan x="195" y="256">40.3%</tspan></text>
        <text font-size="12" class="value-labels-inner"><tspan x="312" y="256">31.3%</tspan></text>
        <text font-size="12" class="value-labels-inner"><tspan x="410" y="256">28.4%</tspan></text>
      </g>

      <g class="row-5">
        <text font-size="10"><tspan x="75" y="287">I have opportunities for</tspan><tspan x="75" y="298">professional development</tspan></text>
        <rect x="205" y="277" width="93" height="27" rx="5" fill="#E4774E"/>
        <rect x="300" y="277" width="61" height="27" rx="5" fill="#E9C168"/>
        <rect x="363" y="277" width="168" height="27" rx="5" fill="#82A555"/>
        <text font-size="12" class="value-labels-inner"><tspan x="233" y="295">29.0%</tspan></text>
        <text font-size="12" class="value-labels-inner"><tspan x="312" y="295">18.8%</tspan></text>
        <text font-size="12" class="value-labels-inner"><tspan x="429" y="295">52.2%</tspan></text>
      </g>

      <g class="row-6">
        <text font-size="10"><tspan x="131" y="326">My work is sufficiently</tspan><tspan x="121" y="337">interesting / challenging</tspan></text>
        <rect x="256" y="316" width="52" height="27" rx="5" fill="#E4774E"/>
        <rect x="310" y="316" width="40" height="27" rx="5" fill="#E9C168"/>
        <rect x="352" y="316" width="229" height="27" rx="5" fill="#82A555"/>
        <text font-size="12" class="value-labels-inner"><tspan x="264" y="334">16.2%</tspan></text>
        <text font-size="12" class="value-labels-inner"><tspan x="312" y="334">12.5%</tspan></text>
        <text font-size="12" class="value-labels-inner"><tspan x="448" y="334">71.2%</tspan></text>
      </g>

      <g class="row-7">
        <text font-size="10"><tspan x="42" y="365">I&#x2019;m satisfied with the</tspan><tspan x="57" y="376">systems and toolsets I use</tspan></text>
        <rect x="197" y="355" width="89" height="27" rx="5" fill="#E4774E"/>
        <rect x="288" y="355" width="84" height="27" rx="5" fill="#E9C168"/>
        <rect x="374" y="355" width="149" height="27" rx="5" fill="#82A555"/>
        <text font-size="12" class="value-labels-inner"><tspan x="223" y="373">27.5%</tspan></text>
        <text font-size="12" class="value-labels-inner"><tspan x="312" y="373">26.2%</tspan></text>
        <text font-size="12" class="value-labels-inner"><tspan x="430" y="373">46.2%</tspan></text>
      </g>

    </g>

  </g>

</svg>