<svg viewBox="0 55 660 350" fill="none" xmlns="http://www.w3.org/2000/svg">

  <defs>
    <style type="text/css">
      <![CDATA[
        @import url(/_static/survey/css/2025-svg.css);
      ]]>
    </style>
  </defs>

  <g id="2025-contractor-type-products-services">

    <g class="title">
      <text font-size="14"><tspan x="40" y="33">Products and/or services provided</tspan></text>
      <text font-size="12" class="subtitle"><tspan x="40" y="49">Contractors</tspan></text>
    </g>

    <g class="donut-chart">

      <!-- Offering neither (71.3%): 229.8°→486.5° -->
      <path d="M231.181 117.431 A150 150 0 1 1 238.819 352.610 L292.327 280.244 A60 60 0 1 0 289.273 186.172 Z" fill="#BBBBBB" stroke="white" stroke-width="2"/>

      <!-- Offering a service (22.5%): 486.5°→567.5° -->
      <path d="M238.819 352.610 A150 150 0 0 1 194.924 162.784 L274.770 204.314 A60 60 0 0 0 292.327 280.244 Z" fill="#00AEFF" stroke="white" stroke-width="2"/>

      <!-- Offering both (5.0%): 567.5°→585.5° -->
      <path d="M194.924 162.784 A150 150 0 0 1 222.826 125.049 L285.931 189.220 A60 60 0 0 0 274.770 204.314 Z" fill="#7EA4FF" stroke="white" stroke-width="2"/>

      <!-- Offering a product (1.2%): 585.5°→589.8° -->
      <path d="M222.826 125.049 A150 150 0 0 1 231.181 117.431 L289.273 186.172 A60 60 0 0 0 285.931 189.220 Z" fill="#FFA600" stroke="white" stroke-width="2"/>

      <!-- Connectors and labels -->
      <path d="M520.9 227.9 C520.9 227.9 497.9 226.5 480.9 227.0" stroke="#252521" stroke-dasharray="1 3"/>
      <path d="M139.8 276.4 C139.8 276.4 162.4 270.3 178.9 266.5" stroke="#252521" stroke-dasharray="1 3"/>
      <path d="M171.8 122.2 C171.8 122.2 191.3 130.9 205.0 141.0" stroke="#252521" stroke-dasharray="1 3"/>
      <path d="M196.3 95.1 C196.3 95.1 213.5 106.4 224.9 118.9" stroke="#252521" stroke-dasharray="1 3"/>

      <!-- Labels -->
      <text font-size="10"><tspan x="524" y="226">Offering neither (71.3%)</tspan></text>
      <text font-size="10"><tspan x="15" y="274">Offering a service (22.5%)</tspan></text>
      <text font-size="10"><tspan x="72" y="120">Offering both (5.0%)</tspan></text>
      <text font-size="10"><tspan x="71" y="93">Offering a product (1.2%)</tspan></text>

      <!-- Inner percentage labels for large segments -->
      <text font-size="14" class="value-labels-inner"><tspan x="420" y="233">71.3%</tspan></text>
      <text font-size="14" class="value-labels-inner"><tspan x="203" y="262">22.5%</tspan></text>

    </g>

  </g>

</svg>