<svg xmlns="http://www.w3.org/2000/svg" viewBox="0 40 660 345">
  <title>Salary (USD) by industry — Europe</title>
  <text x="330" y="25" text-anchor="middle" font-family="sans-serif" font-size="14" fill="#252521">Salary (USD) by industry — Europe</text>

  <!-- Grid lines -->
  <line x1="306.2" y1="97" x2="306.2" y2="356" stroke="#E8E8E8" stroke-width="1"/>
  <line x1="412.5" y1="97" x2="412.5" y2="356" stroke="#E8E8E8" stroke-width="1"/>
  <line x1="518.8" y1="97" x2="518.8" y2="356" stroke="#E8E8E8" stroke-width="1"/>
  <line x1="625.0" y1="97" x2="625.0" y2="356" stroke="#E8E8E8" stroke-width="1"/>

  <!-- Axes -->
  <line x1="200" y1="97" x2="200" y2="356" stroke="#CCCCCC" stroke-width="1"/>
  <line x1="200" y1="356" x2="625.0" y2="356" stroke="#CCCCCC" stroke-width="1"/>

  <!-- Bars -->
  <rect x="200" y="97" width="425" height="18" fill="#F0F0F0"/>
  <rect x="489.6" y="97" width="3" height="18" fill="#1A4A8C"/>
  <text x="195" y="110" text-anchor="end" font-family="sans-serif" font-size="11" fill="#252521">Business services</text>
  <text x="498.1" y="110" font-family="sans-serif" font-size="10" fill="#666666">$82.2K</text>
  <rect x="200" y="137" width="425" height="18" fill="#F0F0F0"/>
  <rect x="456.0" y="137" width="3" height="18" fill="#1A4A8C"/>
  <text x="195" y="150" text-anchor="end" font-family="sans-serif" font-size="11" fill="#252521">Security</text>
  <text x="464.5" y="150" font-family="sans-serif" font-size="10" fill="#666666">$72.7K</text>
  <rect x="200" y="177" width="425" height="18" fill="#F0F0F0"/>
  <rect x="448.6" y="177" width="3" height="18" fill="#1A4A8C"/>
  <text x="195" y="190" text-anchor="end" font-family="sans-serif" font-size="11" fill="#252521">Manufacturing</text>
  <text x="457.1" y="190" font-family="sans-serif" font-size="10" fill="#666666">$70.6K</text>
  <rect x="200" y="217" width="425" height="18" fill="#F0F0F0"/>
  <rect x="383.1" y="217" width="149.0" height="18" fill="#A8C8E8"/>
  <rect x="438.5" y="217" width="3" height="18" fill="#1A4A8C"/>
  <text x="195" y="230" text-anchor="end" font-family="sans-serif" font-size="11" fill="#252521">Software</text>
  <text x="447.0" y="230" font-family="sans-serif" font-size="10" fill="#252521">$67.8K</text>
  <rect x="200" y="257" width="425" height="18" fill="#F0F0F0"/>
  <rect x="438.1" y="257" width="3" height="18" fill="#1A4A8C"/>
  <text x="195" y="270" text-anchor="end" font-family="sans-serif" font-size="11" fill="#252521">Finance</text>
  <text x="446.6" y="270" font-family="sans-serif" font-size="10" fill="#666666">$67.6K</text>
  <rect x="200" y="297" width="425" height="18" fill="#F0F0F0"/>
  <rect x="431.9" y="297" width="3" height="18" fill="#1A4A8C"/>
  <text x="195" y="310" text-anchor="end" font-family="sans-serif" font-size="11" fill="#252521">Data/analytics</text>
  <text x="440.4" y="310" font-family="sans-serif" font-size="10" fill="#666666">$65.9K</text>
  <rect x="200" y="337" width="425" height="18" fill="#F0F0F0"/>
  <rect x="369.6" y="337" width="130.5" height="18" fill="#A8C8E8"/>
  <rect x="411.2" y="337" width="3" height="18" fill="#1A4A8C"/>
  <text x="195" y="350" text-anchor="end" font-family="sans-serif" font-size="11" fill="#252521">Telecoms</text>
  <text x="419.7" y="350" font-family="sans-serif" font-size="10" fill="#252521">$60.1K</text>

  <!-- X-axis ticks and labels -->
  <line x1="306.2" y1="356" x2="306.2" y2="361" stroke="#CCCCCC" stroke-width="1"/>
  <text x="306.2" y="373" text-anchor="middle" font-family="sans-serif" font-size="10" fill="#888888">$30K</text>
  <line x1="412.5" y1="356" x2="412.5" y2="361" stroke="#CCCCCC" stroke-width="1"/>
  <text x="412.5" y="373" text-anchor="middle" font-family="sans-serif" font-size="10" fill="#888888">$60K</text>
  <line x1="518.8" y1="356" x2="518.8" y2="361" stroke="#CCCCCC" stroke-width="1"/>
  <text x="518.8" y="373" text-anchor="middle" font-family="sans-serif" font-size="10" fill="#888888">$90K</text>
  <line x1="625.0" y1="356" x2="625.0" y2="361" stroke="#CCCCCC" stroke-width="1"/>
  <text x="625.0" y="373" text-anchor="middle" font-family="sans-serif" font-size="10" fill="#888888">$120K</text>

  <!-- Legend -->
  <rect x="502" y="55" width="143" height="36" fill="white" stroke="#CCCCCC" stroke-width="1" rx="2"/>
  <rect x="514" y="60" width="3" height="10" fill="#1A4A8C"/>
  <text x="524" y="69" font-family="sans-serif" font-size="10" fill="#252521">Median</text>
  <circle cx="516" cy="79" r="5" fill="#A8C8E8"/>
  <text x="524" y="83" font-family="sans-serif" font-size="10" fill="#252521">25th–75th percentile</text>
</svg>