<svg viewBox="0 55 660 385" fill="none" xmlns="http://www.w3.org/2000/svg">

  <defs>
    <style type="text/css">
      <![CDATA[
        @import url(/_static/survey/css/2025-svg.css);
      ]]>
    </style>
    <filter id="label-bg" x="-15%" y="-40%" width="130%" height="180%">
      <feMorphology in="SourceAlpha" operator="dilate" radius="3" result="expanded"/>
      <feGaussianBlur in="expanded" stdDeviation="5" result="blurred"/>
      <feComponentTransfer in="blurred" result="rounded">
        <feFuncA type="linear" slope="20" intercept="-5"/>
      </feComponentTransfer>
      <feFlood flood-color="white" flood-opacity="0.8" result="color"/>
      <feComposite in="color" in2="rounded" operator="in" result="bg"/>
      <feMerge>
        <feMergeNode in="bg"/>
        <feMergeNode in="SourceGraphic"/>
      </feMerge>
    </filter>
  </defs>

  <g id="2025-contractor-preferred-term">

    <g class="title">
      <text font-size="14"><tspan x="40" y="33">Preferred term</tspan></text>
      <text font-size="12" class="subtitle"><tspan x="40" y="49">Contractors</tspan></text>
    </g>

    <g class="donut-chart scale-preferred-term" transform="translate(0 35)">

      <!-- Contractor (68.8%): 229.8°→477.5° -->
      <path class="slice contractor" d="M231.181 117.431 A150 150 0 1 1 258.784 365.076 L300.314 285.230 A60 60 0 1 0 289.273 186.172 Z"/>

      <!-- Self-employed (12.5%): 477.5°→522.5° -->
      <path class="slice self-employed" d="M258.784 365.076 A150 150 0 0 1 184.958 277.156 L270.783 250.062 A60 60 0 0 0 300.314 285.230 Z"/>

      <!-- Freelancer (11.2%): 522.5°→562.8° -->
      <path class="slice freelancer" d="M184.958 277.156 A150 150 0 0 1 189.721 173.873 L272.688 208.749 A60 60 0 0 0 270.783 250.062 Z"/>

      <!-- Other (7.5%): 562.8°→589.8° -->
      <path class="slice other" d="M189.721 173.873 A150 150 0 0 1 231.181 117.431 L289.273 186.172 A60 60 0 0 0 272.688 208.749 Z"/>

      <!-- Inner percentage labels for large segments -->
      <text font-size="14" class="value-labels-inner" text-anchor="middle"><tspan x="435" y="246">68.8%</tspan></text>
      <text font-size="14" class="value-labels-inner" text-anchor="middle"><tspan x="243" y="309">12.5%</tspan></text>
      <text font-size="14" class="value-labels-inner" text-anchor="middle"><tspan x="226" y="234">11.2%</tspan></text>

    </g>

    <g class="legend scale-preferred-term">
      <rect x="351" y="70" width="294" height="20" fill="white" stroke="#CCCCCC" stroke-width="1" rx="2"/>
      <circle class="swatch contractor" cx="369" cy="80" r="6"/>
      <text font-size="10" fill="#252521"><tspan x="379" y="84">Contractor</tspan></text>
      <circle class="swatch self-employed" cx="443" cy="80" r="6"/>
      <text font-size="10" fill="#252521"><tspan x="453" y="84">Self-employed</tspan></text>
      <circle class="swatch freelancer" cx="534" cy="80" r="6"/>
      <text font-size="10" fill="#252521"><tspan x="544" y="84">Freelancer</tspan></text>
      <circle class="swatch other" cx="604" cy="80" r="6"/>
      <text font-size="10" fill="#252521"><tspan x="614" y="84">Other</tspan></text>
    </g>

  </g>

</svg>
