<svg viewBox="0 40 660 445" fill="none" xmlns="http://www.w3.org/2000/svg">

  <defs>
    <style type="text/css">
      <![CDATA[
        @import url(/_static/survey/css/2025-svg.css);
      ]]>
    </style>
  </defs>
  <g id="2025-additional-role-categories" class="scale-single-series">
    <g class="title">
      <text font-size="14"><tspan x="40" y="25">Additional role categories</tspan></text>
      <text font-size="12" class="subtitle"><tspan x="40" y="41">All respondents (n=755) - top 10 of 19 categories</tspan></text>
    </g>

    <g class="gridlines">
      <line x1="345" y1="62" x2="345" y2="432" stroke="#F2F4F6" stroke-width="1"/>
      <line x1="461" y1="62" x2="461" y2="432" stroke="#F2F4F6" stroke-width="1"/>
      <line x1="578" y1="62" x2="578" y2="432" stroke="#F2F4F6" stroke-width="1"/>
    </g>

    <line x1="228" y1="62" x2="228" y2="432" stroke="#D8D8D5" stroke-width="1"/>

    <g font-size="10" text-anchor="end" fill="#50514F">
      <text><tspan x="222" y="80">Editor</tspan></text>
      <text><tspan x="222" y="118">Information architecture</tspan></text>
      <text><tspan x="222" y="156">UX writer</tspan></text>
      <text><tspan x="222" y="194">DocOps</tspan></text>
      <text><tspan x="222" y="232">Mentoring</tspan></text>
      <text><tspan x="222" y="270">Subject matter expert</tspan></text>
      <text><tspan x="222" y="308">Content producer</tspan></text>
      <text><tspan x="222" y="346">Testing / QA</tspan></text>
      <text><tspan x="222" y="384">Manager or team leader</tspan></text>
      <text><tspan x="222" y="422">Project or product manager</tspan></text>
    </g>

      <g class="series-a">
      <rect x="228" y="62" width="313" height="28"/>
      <rect x="228" y="100" width="261" height="28"/>
      <rect x="228" y="138" width="200" height="28"/>
      <rect x="228" y="176" width="188" height="28"/>
      <rect x="228" y="214" width="141" height="28"/>
      <rect x="228" y="252" width="140" height="28"/>
      <rect x="228" y="290" width="138" height="28"/>
      <rect x="228" y="328" width="127" height="28"/>
      <rect x="228" y="366" width="117" height="28"/>
      <rect x="228" y="404" width="110" height="28"/>
    </g>

    <g font-size="9" text-anchor="start" fill="#50514F">
      <text><tspan x="546" y="80">53.6%</tspan></text>
      <text><tspan x="494" y="118">44.8%</tspan></text>
      <text><tspan x="433" y="156">34.3%</tspan></text>
      <text><tspan x="421" y="194">32.2%</tspan></text>
      <text><tspan x="374" y="232">24.2%</tspan></text>
      <text><tspan x="373" y="270">24.0%</tspan></text>
      <text><tspan x="371" y="308">23.7%</tspan></text>
      <text><tspan x="360" y="346">21.7%</tspan></text>
      <text><tspan x="350" y="384">20.0%</tspan></text>
      <text><tspan x="343" y="422">18.8%</tspan></text>
    </g>

    <g font-size="9" text-anchor="middle" fill="#999999">
      <text><tspan x="228" y="452">0%</tspan></text>
      <text><tspan x="345" y="452">20%</tspan></text>
      <text><tspan x="461" y="452">40%</tspan></text>
      <text><tspan x="578" y="452">60%</tspan></text>
    </g>

  </g>

</svg>
