<svg viewBox="0 55 660 300" fill="none" xmlns="http://www.w3.org/2000/svg">

  <defs>
    <style type="text/css">
      <![CDATA[
        @import url(/_static/survey/css/2025-svg.css);
      ]]>
    </style>
  </defs>

  <g id="2025-time-in-role-contractors">

    <g class="title">
      <text font-size="14"><tspan x="40" y="33.054">Length of time contracting</tspan></text>
      <text font-size="12" class="subtitle"><tspan x="40" y="49.054">Contractors (n=80)</tspan></text>
    </g>

    <g class="bar-chart-vertical">

      <g class="y-axis">

        <g class="gridlines">
          <path d="M68.5 319.5H620.5"/>
          <path d="M68.5 242.5H620.5"/>
          <path d="M68.5 165.5H620.5"/>
          <path d="M68.5 87.5H620.5"/>
        </g>

        <g class="axis-labels">
          <text font-size="10"><tspan x="46.4883" y="323.384">0%</tspan></text>
          <text font-size="10"><tspan x="40.4824" y="246.384">10%</tspan></text>
          <text font-size="10"><tspan x="40.4824" y="169.384">20%</tspan></text>
          <text font-size="10"><tspan x="40.4824" y="92.3843">30%</tspan></text>
        </g>

      </g>

      <g class="data-series">

        <g class="a">

          <g class="axis-labels">
            <text font-size="10"><tspan x="100.177" y="337.384">0-1 year</tspan></text>
            <text font-size="10"><tspan x="207.574" y="337.384">1-2 years</tspan></text>
            <text font-size="10"><tspan x="317.974" y="337.384">2-5 years</tspan></text>
            <text font-size="10"><tspan x="425.371" y="337.384">5-10 years</tspan></text>
            <text font-size="10"><tspan x="538.774" y="337.384">10+ years</tspan></text>
          </g>

          <g class="bars">
            <!-- 0-1 year: 16.2% = 126px -->
            <path d="M174.5 194H72.5V320H174.5V194Z"/>
            <!-- 1-2 years: 20.0% = 155px -->
            <path d="M284.5 165H183.5V320H284.5V165Z"/>
            <!-- 2-5 years: 23.8% = 184px -->
            <path d="M395.5 136H293.5V320H395.5V136Z"/>
            <!-- 5-10 years: 20.0% = 155px -->
            <path d="M505.5 165H404.5V320H505.5V165Z"/>
            <!-- 10+ years: 20.0% = 155px -->
            <path d="M616.5 165H514.5V320H616.5V165Z"/>
          </g>

        </g>

      </g>

    </g>

  </g>

</svg>
