<svg viewBox="0 55 660 385" fill="none" xmlns="http://www.w3.org/2000/svg">

  <defs>
    <style type="text/css">
      <![CDATA[
        @import url(/_static/survey/css/2025-svg.css);
      ]]>
    </style>
    <filter id="label-bg" x="-15%" y="-40%" width="130%" height="180%">
      <feMorphology in="SourceAlpha" operator="dilate" radius="3" result="expanded"/>
      <feGaussianBlur in="expanded" stdDeviation="5" result="blurred"/>
      <feComponentTransfer in="blurred" result="rounded">
        <feFuncA type="linear" slope="20" intercept="-5"/>
      </feComponentTransfer>
      <feFlood flood-color="white" flood-opacity="0.8" result="color"/>
      <feComposite in="color" in2="rounded" operator="in" result="bg"/>
      <feMerge>
        <feMergeNode in="bg"/>
        <feMergeNode in="SourceGraphic"/>
      </feMerge>
    </filter>
  </defs>

  <g id="2025-contractor-type-products-services">

    <g class="title">
      <text font-size="14"><tspan x="40" y="33">Products and/or services provided</tspan></text>
      <text font-size="12" class="subtitle"><tspan x="40" y="49">Contractors</tspan></text>
    </g>

    <g class="donut-chart" transform="translate(0 35)">

      <!-- Offering neither (71.3%): 229.8°→486.5° -->
      <path d="M231.181 117.431 A150 150 0 1 1 238.819 352.610 L292.327 280.244 A60 60 0 1 0 289.273 186.172 Z" fill="#BBBBBB" stroke="white" stroke-width="2"/>

      <!-- Offering a service (22.5%): 486.5°→567.5° -->
      <path d="M238.819 352.610 A150 150 0 0 1 194.924 162.784 L274.770 204.314 A60 60 0 0 0 292.327 280.244 Z" fill="#00AEFF" stroke="white" stroke-width="2"/>

      <!-- Offering both (5.0%): 567.5°→585.5° -->
      <path d="M194.924 162.784 A150 150 0 0 1 222.826 125.049 L285.931 189.220 A60 60 0 0 0 274.770 204.314 Z" fill="#7EA4FF" stroke="white" stroke-width="2"/>

      <!-- Offering a product (1.2%): 585.5°→589.8° -->
      <path d="M222.826 125.049 A150 150 0 0 1 231.181 117.431 L289.273 186.172 A60 60 0 0 0 285.931 189.220 Z" fill="#FFA600" stroke="white" stroke-width="2"/>

      <!-- Inner percentage labels for large segments -->
      <text font-size="14" class="value-labels-inner" text-anchor="middle"><tspan x="435" y="247">71.3%</tspan></text>
      <text font-size="14" class="value-labels-inner" text-anchor="middle"><tspan x="228" y="264">22.5%</tspan></text>

    </g>

    <g class="legend">
      <rect x="422" y="70" width="223" height="20" fill="white" stroke="#CCCCCC" stroke-width="1" rx="2"/>
      <circle cx="435" cy="80" r="6" fill="#FFA600"/>
      <text font-size="10" fill="#252521"><tspan x="445" y="84">Product</tspan></text>
      <circle cx="493" cy="80" r="6" fill="#00AEFF"/>
      <text font-size="10" fill="#252521"><tspan x="503" y="84">Service</tspan></text>
      <circle cx="550" cy="80" r="6" fill="#7EA4FF"/>
      <text font-size="10" fill="#252521"><tspan x="560" y="84">Both</tspan></text>
      <circle cx="596" cy="80" r="6" fill="#BBBBBB"/>
      <text font-size="10" fill="#252521"><tspan x="606" y="84">Neither</tspan></text>
    </g>

  </g>

</svg>
