<svg viewBox="0 55 660 385" fill="none" xmlns="http://www.w3.org/2000/svg">

  <defs>
    <style type="text/css">
      <![CDATA[
        @import url(/_static/survey/css/2025-svg.css);
      ]]>
    </style>
    <filter id="label-bg" x="-15%" y="-40%" width="130%" height="180%">
      <feMorphology in="SourceAlpha" operator="dilate" radius="3" result="expanded"/>
      <feGaussianBlur in="expanded" stdDeviation="5" result="blurred"/>
      <feComponentTransfer in="blurred" result="rounded">
        <feFuncA type="linear" slope="20" intercept="-5"/>
      </feComponentTransfer>
      <feFlood flood-color="white" flood-opacity="0.8" result="color"/>
      <feComposite in="color" in2="rounded" operator="in" result="bg"/>
      <feMerge>
        <feMergeNode in="bg"/>
        <feMergeNode in="SourceGraphic"/>
      </feMerge>
    </filter>
  </defs>

  <g id="2025-contractor-type-clients">

    <g class="title">
      <text font-size="14"><tspan x="40" y="33">Typical client configuration</tspan></text>
      <text font-size="12" class="subtitle"><tspan x="40" y="49">Contractors</tspan></text>
    </g>

    <g class="donut-chart" transform="translate(0 35)">

      <!-- Single client (57.5%): 229.8°→436.8° -->
      <path d="M231.181 117.431 A150 150 0 1 1 362.253 378.037 L341.701 290.415 A60 60 0 1 0 289.273 186.172 Z" fill="#00AEFF" stroke="white" stroke-width="2"/>

      <!-- Multiple clients (23.8%): 436.8°→522.5° -->
      <path d="M362.253 378.037 A150 150 0 0 1 184.958 277.156 L270.783 250.062 A60 60 0 0 0 341.701 290.415 Z" fill="#7EA4FF" stroke="white" stroke-width="2"/>

      <!-- Not specified (12.5%): 522.5°→567.5° -->
      <path d="M184.958 277.156 A150 150 0 0 1 194.924 162.784 L274.770 204.314 A60 60 0 0 0 270.783 250.062 Z" fill="#BBBBBB" stroke="white" stroke-width="2"/>

      <!-- Both (6.2%): 567.5°→589.8° -->
      <path d="M194.924 162.784 A150 150 0 0 1 231.181 117.431 L289.273 186.172 A60 60 0 0 0 274.770 204.314 Z" fill="#FFA600" stroke="white" stroke-width="2"/>

      <!-- Inner percentage labels for large segments -->
      <text font-size="14" class="value-labels-inner" text-anchor="middle"><tspan x="424" y="203">57.5%</tspan></text>
      <text font-size="14" class="value-labels-inner" text-anchor="middle"><tspan x="278" y="331">23.8%</tspan></text>
      <text font-size="14" class="value-labels-inner" text-anchor="middle"><tspan x="225" y="228">12.5%</tspan></text>

    </g>

    <g class="legend">
      <rect x="398" y="70" width="247" height="20" fill="white" stroke="#CCCCCC" stroke-width="1" rx="2"/>
      <circle cx="411" cy="80" r="6" fill="#00AEFF"/>
      <text font-size="10" fill="#252521"><tspan x="421" y="84">Single</tspan></text>
      <circle cx="463" cy="80" r="6" fill="#7EA4FF"/>
      <text font-size="10" fill="#252521"><tspan x="473" y="84">Multiple</tspan></text>
      <circle cx="524" cy="80" r="6" fill="#FFA600"/>
      <text font-size="10" fill="#252521"><tspan x="534" y="84">Both</tspan></text>
      <circle cx="569" cy="80" r="6" fill="#BBBBBB"/>
      <text font-size="10" fill="#252521"><tspan x="579" y="84">Not specified</tspan></text>
    </g>

  </g>

</svg>
