<svg viewBox="0 40 660 320" fill="none" xmlns="http://www.w3.org/2000/svg">

  <defs>
    <style type="text/css">
      <![CDATA[
        @import url(/_static/survey/css/2025-svg.css);
      ]]>
    </style>
  </defs>

  <g id="2025-hours-worked-contractors">

    <g class="title">
      <text font-size="14"><tspan x="40" y="33">Weekly hours worked</tspan></text>
      <text font-size="12" class="subtitle"><tspan x="40" y="49">Contractors only (n=46)</tspan></text>
    </g>

    <g class="bar-chart-vertical">

      <g class="y-axis">
        <g class="gridlines">
          <path d="M68.5 319.5H620.5"/>
          <path d="M68.5 242.5H620.5"/>
          <path d="M68.5 165.5H620.5"/>
          <path d="M68.5 87.5H620.5"/>
        </g>
        <g class="axis-labels">
          <text font-size="10"><tspan x="46.4883" y="323.384">0%</tspan></text>
          <text font-size="10"><tspan x="40.4824" y="246.384">25%</tspan></text>
          <text font-size="10"><tspan x="40.4824" y="169.384">50%</tspan></text>
          <text font-size="10"><tspan x="40.4824" y="92.3843">75%</tspan></text>
        </g>
      </g>

      <g class="data-series">
        <g class="a">
          <g class="axis-labels">
            <text font-size="12"><tspan x="110.3" y="337.384">1–20</tspan></text>
            <text font-size="12"><tspan x="204.0" y="337.384">21–30</tspan></text>
            <text font-size="12"><tspan x="297.7" y="337.384">31–40</tspan></text>
            <text font-size="12"><tspan x="391.3" y="337.384">41–50</tspan></text>
            <text font-size="12"><tspan x="485.0" y="337.384">51–60</tspan></text>
            <text font-size="12"><tspan x="578.7" y="337.384">60+</tspan></text>
          </g>
          <g class="bars">
            <path d="M148.2 272.4H72.5V320H148.2V272.4Z"/>
            <path d="M241.8 279.2H166.2V320H241.8V279.2Z"/>
            <path d="M335.5 164.8H259.8V320H335.5V164.8Z"/>
            <path d="M429.2 259.0H353.5V320H429.2V259.0Z"/>
            <path d="M522.8 312.8H447.2V320H522.8V312.8Z"/>
            <path d="M616.5 320.0H540.8V320H616.5V320.0Z"/>
          </g>
          <g class="value-labels">
          </g>
        </g>
      </g>

    </g>

  </g>

</svg>
