<svg viewBox="0 40 660 648" fill="none" xmlns="http://www.w3.org/2000/svg">

  <defs>
    <style type="text/css">
      <![CDATA[
        @import url(/_static/survey/css/2025-svg.css);
      ]]>
    </style>
  </defs>

  <g id="2025-job-titles" class="scale-single-series">

    <g class="title">
      <text font-size="14"><tspan x="40" y="25">Job titles</tspan></text>
      <text font-size="12" class="subtitle"><tspan x="40" y="41">All respondents, titles with 5 or more respondents shown</tspan></text>
    </g>

    <g class="bar-chart-horizontal scale-single-series">

      <g class="gridlines">
        <line x1="341.3" y1="62" x2="341.3" y2="660" stroke="#F2F4F6" stroke-width="1"/>
        <line x1="454.7" y1="62" x2="454.7" y2="660" stroke="#F2F4F6" stroke-width="1"/>
        <line x1="568.0" y1="62" x2="568.0" y2="660" stroke="#F2F4F6" stroke-width="1"/>
      </g>

      <line x1="228" y1="62" x2="228" y2="660" stroke="#D8D8D5" stroke-width="1"/>

      <g font-size="10" text-anchor="end" fill="#50514F">
        <text><tspan x="222" y="80">Technical Writer</tspan></text>
        <text><tspan x="222" y="118">Senior Technical Writer</tspan></text>
        <text><tspan x="222" y="156">Lead Technical Writer</tspan></text>
        <text><tspan x="222" y="194">Staff Technical Writer</tspan></text>
        <text><tspan x="222" y="232">Principal Technical Writer</tspan></text>
        <text><tspan x="222" y="270">Technical Writer II</tspan></text>
        <text><tspan x="222" y="308">Technical Writing Manager</tspan></text>
        <text><tspan x="222" y="346">Documentation Manager</tspan></text>
        <text><tspan x="222" y="384">Documentation Specialist</tspan></text>
        <text><tspan x="222" y="422">Documentation Engineer</tspan></text>
        <text><tspan x="222" y="460">Technical Author</tspan></text>
        <text><tspan x="222" y="498">Content Developer</tspan></text>
        <text><tspan x="222" y="536">Content Strategist</tspan></text>
        <text><tspan x="222" y="574">Documentation Head</tspan></text>
        <text><tspan x="222" y="612">Senior Documentation Manager</tspan></text>
        <text><tspan x="222" y="650">Technical Writer I</tspan></text>
      </g>

      <g class="series-a">
        <rect x="228" y="62" width="340.0" height="28"/>
        <rect x="228" y="100" width="340.0" height="28"/>
        <rect x="228" y="138" width="328.7" height="28"/>
        <rect x="228" y="176" width="204.0" height="28"/>
        <rect x="228" y="214" width="192.7" height="28"/>
        <rect x="228" y="252" width="192.7" height="28"/>
        <rect x="228" y="290" width="124.7" height="28"/>
        <rect x="228" y="328" width="79.3" height="28"/>
        <rect x="228" y="366" width="79.3" height="28"/>
        <rect x="228" y="404" width="68.0" height="28"/>
        <rect x="228" y="442" width="68.0" height="28"/>
        <rect x="228" y="480" width="56.7" height="28"/>
        <rect x="228" y="518" width="56.7" height="28"/>
        <rect x="228" y="556" width="56.7" height="28"/>
        <rect x="228" y="594" width="56.7" height="28"/>
        <rect x="228" y="632" width="56.7" height="28"/>
      </g>

      <polygon points="544,62 549,62 547,90 542,90" fill="white"/>
      <polygon points="553,62 558,62 556,90 551,90" fill="white"/>
      <polygon points="544,100 549,100 547,128 542,128" fill="white"/>
      <polygon points="553,100 558,100 556,128 551,128" fill="white"/>

      <g font-size="9" text-anchor="start" fill="#50514F">
        <text><tspan x="572" y="80">208</tspan></text>
        <text><tspan x="572" y="118">168</tspan></text>
        <text><tspan x="560.7" y="156">29</tspan></text>
        <text><tspan x="436.0" y="194">18</tspan></text>
        <text><tspan x="424.7" y="232">17</tspan></text>
        <text><tspan x="424.7" y="270">17</tspan></text>
        <text><tspan x="356.7" y="308">11</tspan></text>
        <text><tspan x="311.3" y="346">7</tspan></text>
        <text><tspan x="311.3" y="384">7</tspan></text>
        <text><tspan x="300.0" y="422">6</tspan></text>
        <text><tspan x="300.0" y="460">6</tspan></text>
        <text><tspan x="288.7" y="498">5</tspan></text>
        <text><tspan x="288.7" y="536">5</tspan></text>
        <text><tspan x="288.7" y="574">5</tspan></text>
        <text><tspan x="288.7" y="612">5</tspan></text>
        <text><tspan x="288.7" y="650">5</tspan></text>
      </g>

      <g font-size="9" text-anchor="middle" fill="#999999">
        <text><tspan x="228" y="676">0</tspan></text>
        <text><tspan x="341.3" y="676">10</tspan></text>
        <text><tspan x="454.7" y="676">20</tspan></text>
        <text><tspan x="568.0" y="676">30</tspan></text>
      </g>

    </g>

  </g>

</svg>
