<svg viewBox="0 55 660 251" fill="none" xmlns="http://www.w3.org/2000/svg">

  <defs>
    <style type="text/css">
      <![CDATA[
        @import url(/_static/survey/css/2025-svg.css);
      ]]>
    </style>
    <filter id="label-bg" x="-15%" y="-40%" width="130%" height="180%">
      <feMorphology in="SourceAlpha" operator="dilate" radius="3" result="expanded"/>
      <feGaussianBlur in="expanded" stdDeviation="5" result="blurred"/>
      <feComponentTransfer in="blurred" result="rounded">
        <feFuncA type="linear" slope="20" intercept="-5"/>
      </feComponentTransfer>
      <feFlood flood-color="white" flood-opacity="0.8" result="color"/>
      <feComposite in="color" in2="rounded" operator="in" result="bg"/>
      <feMerge>
        <feMergeNode in="bg"/>
        <feMergeNode in="SourceGraphic"/>
      </feMerge>
    </filter>
  </defs>

  <g id="2025-feedback-relevance">
    <g class="title">
      <text font-size="14"><tspan x="40" y="33">Survey feedback</tspan></text>
      <text font-size="12" class="subtitle"><tspan x="40" y="49">Questions are relevant</tspan></text>
    </g>

    <g class="donut-chart scale-feedback-likert" transform="translate(0 20)">
      <path class="slice disagree" d="M180 262 A150 150 0 0 1 180.007 260.586 L270.003 261.435 A60 60 0 0 0 270 262 Z"/>
      <path class="slice neutral" d="M180.007 260.586 A150 150 0 0 1 180.622 248.353 L270.249 256.541 A60 60 0 0 0 270.003 261.435 Z"/>
      <path class="slice agree" d="M180.622 248.353 A150 150 0 0 1 289.511 117.568 L313.804 204.227 A60 60 0 0 0 270.249 256.541 Z"/>
      <text font-size="14" text-anchor="middle" class="value-labels-inner"><tspan x="249" y="199">38.4%</tspan></text>
      <path class="slice strongly-agree" d="M289.511 117.568 A150 150 0 0 1 480 262 L390 262 A60 60 0 0 0 313.804 204.227 Z"/>
      <text font-size="14" text-anchor="middle" class="value-labels-inner"><tspan x="393" y="182">58.7%</tspan></text>
    </g>

    <g class="legend scale-feedback-likert">
      <rect x="220" y="70" width="425" height="20" fill="white" stroke="#CCCCCC" stroke-width="1" rx="2"/>
      <circle class="swatch strongly-disagree" cx="233" cy="80" r="6"/>
      <text font-size="10"><tspan x="243" y="84">Strongly disagree</tspan></text>
      <circle class="swatch disagree" cx="341" cy="80" r="6"/>
      <text font-size="10"><tspan x="351" y="84">Disagree</tspan></text>
      <circle class="swatch neutral" cx="413" cy="80" r="6"/>
      <text font-size="10"><tspan x="423" y="84">Neutral</tspan></text>
      <circle class="swatch agree" cx="470" cy="80" r="6"/>
      <text font-size="10"><tspan x="480" y="84">Agree</tspan></text>
      <circle class="swatch strongly-agree" cx="523" cy="80" r="6"/>
      <text font-size="10"><tspan x="533" y="84">Strongly agree</tspan></text>
    </g>
  </g>

</svg>
