<svg viewBox="0 0 660 275" fill="none" xmlns="http://www.w3.org/2000/svg">

  <defs>
    <style type="text/css">
      <![CDATA[
        @import url(/_static/survey/css/2025-svg.css);
      ]]>
    </style>
    <filter id="label-bg" x="-15%" y="-40%" width="130%" height="180%">
      <feMorphology in="SourceAlpha" operator="dilate" radius="3" result="expanded"/>
      <feGaussianBlur in="expanded" stdDeviation="5" result="blurred"/>
      <feComponentTransfer in="blurred" result="rounded">
        <feFuncA type="linear" slope="20" intercept="-5"/>
      </feComponentTransfer>
      <feFlood flood-color="white" flood-opacity="0.8" result="color"/>
      <feComposite in="color" in2="rounded" operator="in" result="bg"/>
      <feMerge>
        <feMergeNode in="bg"/>
        <feMergeNode in="SourceGraphic"/>
      </feMerge>
    </filter>
  </defs>

  <g id="2025-earnings-change-contractors-v2">
    <g class="chart-header">
      <g class="chart-title">
        <text x="20" y="35" class="title-text">Earnings change</text>
        <text x="20" y="55" class="subtitle-text">Contractor respondents (80)</text>
      </g>

      <g class="legend scale-three-trend">
        <g class="legend-row">
          <g class="legend-item">
            <rect class="legend-item-container" x="400" y="20" width="72"/>
            <circle class="negative" cx="413" cy="31"/>
            <text class="legend-label" x="421" y="35">Decrease</text>
          </g>

          <g class="legend-item">
            <rect class="legend-item-container" x="482" y="20" width="79"/>
            <circle class="neutral" cx="495" cy="31"/>
            <text class="legend-label" x="503" y="35">No change</text>
          </g>

          <g class="legend-item">
            <rect class="legend-item-container" x="571" y="20" width="69"/>
            <circle class="positive" cx="584" cy="31"/>
            <text class="legend-label" x="592" y="35">Increase</text>
          </g>
        </g>
      </g>
    </g>

    <g class="chart-area donut-chart scale-three-trend" transform="translate(0 33) translate(330 222) scale(1.2) translate(-330 -222)">
      <path class="slice negative" d="M180 222 A150 150 0 0 1 212.20 129.14 L282.88 184.85 A60 60 0 0 0 270 222 Z"/>
      <path class="slice neutral" d="M212.20 129.14 A150 150 0 0 1 365.02 76.14 L344.01 163.66 A60 60 0 0 0 282.88 184.85 Z"/>
      <path class="slice positive" d="M365.02 76.14 A150 150 0 0 1 480 222 L390 222 A60 60 0 0 0 344.01 163.66 Z"/>

      <text font-size="14" class="value-labels-inner" text-anchor="middle"><tspan x="413" y="157">42.5%</tspan></text>
      <text font-size="14" class="value-labels-inner" text-anchor="middle"><tspan x="296" y="123">36.2%</tspan></text>
      <text font-size="14" class="value-labels-inner" text-anchor="middle"><tspan x="231" y="188">21.2%</tspan></text>
    </g>
  </g>

</svg>
