<svg viewBox="0 25 660 421" fill="none" xmlns="http://www.w3.org/2000/svg">

  <defs>
    <style type="text/css">
      <![CDATA[
        @import url(/_static/survey/css/2025-svg.css);
      ]]>
    </style>
  </defs>

  <g id="2025-satisfaction-factors-job-employees">

    <g class="title">
      <text font-size="14"><tspan x="40" y="33">Satisfaction factors: overall job</tspan></text>
      <text font-size="12" class="subtitle"><tspan x="40" y="49">Employees</tspan></text>
    </g>

    <g class="bar-chart-horizontal">

      <g class="legend">
        <rect x="469" y="35" width="176" height="20" fill="white" stroke="#CCCCCC" stroke-width="1" rx="2"/>
        <circle cx="482" cy="45" r="6" fill="#E4774E"/>
        <circle cx="545" cy="45" r="6" fill="#E9C168"/>
        <circle cx="603" cy="45" r="6" fill="#82A555"/>
        <text font-size="10" fill="#252521"><tspan x="492" y="49">Disagree</tspan></text>
        <text font-size="10" fill="#252521"><tspan x="555" y="49">Neutral</tspan></text>
        <text font-size="10" fill="#252521"><tspan x="613" y="49">Agree</tspan></text>
      </g>

      <g class="hours">
        <text font-size="10" fill="#252521"><tspan x="160" y="99">My hours are reasonable</tspan></text>
        <rect x="295" y="82" width="23" height="27" rx="5" fill="#E4774E"/>
        <rect x="320" y="82" width="20" height="27" rx="5" fill="#E9C168"/>
        <rect x="342" y="82" width="279" height="27" rx="5" fill="#82A555"/>
        <text font-size="12" class="value-labels-inner"><tspan x="464" y="100">86.7%</tspan></text>
      </g>

      <g class="flexibility">
        <text font-size="10" fill="#252521"><tspan x="148" y="138">I have flexibility in my hours</tspan></text>
        <rect x="307" y="121" width="13" height="27" rx="5" fill="#E4774E"/>
        <rect x="322" y="121" width="17" height="27" rx="5" fill="#E9C168"/>
        <rect x="341" y="121" width="292" height="27" rx="5" fill="#82A555"/>
        <text font-size="12" class="value-labels-inner"><tspan x="469" y="139">90.7%</tspan></text>
      </g>

      <g class="responsibilities">
        <text font-size="10" fill="#252521"><tspan x="96" y="177">My responsibilities are reasonable</tspan></text>
        <rect x="268" y="160" width="41" height="27" rx="5" fill="#E4774E"/>
        <rect x="311" y="160" width="38" height="27" rx="5" fill="#E9C168"/>
        <rect x="351" y="160" width="243" height="27" rx="5" fill="#82A555"/>
        <text font-size="12" class="value-labels-inner"><tspan x="271" y="178">12.8%</tspan></text>
        <text font-size="12" class="value-labels-inner"><tspan x="312" y="178">11.7%</tspan></text>
        <text font-size="12" class="value-labels-inner"><tspan x="455" y="178">75.5%</tspan></text>
      </g>

      <g class="workload">
        <text font-size="10" fill="#252521"><tspan x="96" y="216">My workload is manageable</tspan></text>
        <rect x="245" y="199" width="57" height="27" rx="5" fill="#E4774E"/>
        <rect x="304" y="199" width="53" height="27" rx="5" fill="#E9C168"/>
        <rect x="359" y="199" width="212" height="27" rx="5" fill="#82A555"/>
        <text font-size="12" class="value-labels-inner"><tspan x="256" y="217">17.8%</tspan></text>
        <text font-size="12" class="value-labels-inner"><tspan x="313" y="217">16.4%</tspan></text>
        <text font-size="12" class="value-labels-inner"><tspan x="555" y="217">65.8%</tspan></text>
      </g>

      <g class="career">
        <text font-size="10" fill="#252521"><tspan x="40" y="249">I have opportunities for</tspan><tspan x="53" y="260">career advancement</tspan></text>
        <rect x="171" y="238" width="116" height="27" rx="5" fill="#E4774E"/>
        <rect x="289" y="238" width="83" height="27" rx="5" fill="#E9C168"/>
        <rect x="374" y="238" width="123" height="27" rx="5" fill="#82A555"/>
        <text font-size="12" class="value-labels-inner"><tspan x="211" y="256">36.1%</tspan></text>
        <text font-size="12" class="value-labels-inner"><tspan x="313" y="256">25.7%</tspan></text>
        <text font-size="12" class="value-labels-inner"><tspan x="418" y="256">38.1%</tspan></text>
      </g>

      <g class="professional">
        <text font-size="10" fill="#252521"><tspan x="100" y="288">I have opportunities for</tspan><tspan x="94" y="299">professional development</tspan></text>
        <rect x="233" y="277" width="64" height="27" rx="5" fill="#E4774E"/>
        <rect x="299" y="277" width="63" height="27" rx="5" fill="#E9C168"/>
        <rect x="364" y="277" width="195" height="27" rx="5" fill="#82A555"/>
        <text font-size="12" class="value-labels-inner"><tspan x="247" y="295">19.7%</tspan></text>
        <text font-size="12" class="value-labels-inner"><tspan x="313" y="295">19.7%</tspan></text>
        <text font-size="12" class="value-labels-inner"><tspan x="444" y="295">60.6%</tspan></text>
      </g>

      <g class="challenging">
        <text font-size="10" fill="#252521"><tspan x="130" y="327">My work is sufficiently</tspan><tspan x="120" y="338">interesting / challenging</tspan></text>
        <rect x="262" y="316" width="37" height="27" rx="5" fill="#E4774E"/>
        <rect x="301" y="316" width="58" height="27" rx="5" fill="#E9C168"/>
        <rect x="361" y="316" width="227" height="27" rx="5" fill="#82A555"/>
        <text font-size="12" class="value-labels-inner"><tspan x="263" y="334">11.6%</tspan></text>
        <text font-size="12" class="value-labels-inner"><tspan x="312" y="334">17.9%</tspan></text>
        <text font-size="12" class="value-labels-inner"><tspan x="457" y="334">70.5%</tspan></text>
      </g>

      <g class="toolset">
        <text font-size="10" fill="#252521"><tspan x="94" y="366">I&#x2019;m satisfied with the</tspan><tspan x="74" y="377">systems and toolsets I use</tspan></text>
        <rect x="219" y="355" width="75" height="27" rx="5" fill="#E4774E"/>
        <rect x="296" y="355" width="69" height="27" rx="5" fill="#E9C168"/>
        <rect x="367" y="355" width="178" height="27" rx="5" fill="#82A555"/>
        <text font-size="12" class="value-labels-inner"><tspan x="239" y="373">23.3%</tspan></text>
        <text font-size="12" class="value-labels-inner"><tspan x="313" y="373">21.3%</tspan></text>
        <text font-size="12" class="value-labels-inner"><tspan x="438" y="373">55.4%</tspan></text>
      </g>

    </g>

  </g>

</svg>
