<svg xmlns="http://www.w3.org/2000/svg" viewBox="0 40 660 265">
  <title>Salary (USD) by time in current role</title>
  <text x="330" y="25" text-anchor="middle" font-family="sans-serif" font-size="14" fill="#252521">Salary (USD) by time in current role</text>

  <!-- Grid lines -->
  <line x1="306.2" y1="97" x2="306.2" y2="276" stroke="#E8E8E8" stroke-width="1"/>
  <line x1="412.5" y1="97" x2="412.5" y2="276" stroke="#E8E8E8" stroke-width="1"/>
  <line x1="518.8" y1="97" x2="518.8" y2="276" stroke="#E8E8E8" stroke-width="1"/>
  <line x1="625.0" y1="97" x2="625.0" y2="276" stroke="#E8E8E8" stroke-width="1"/>

  <!-- Axes -->
  <line x1="200" y1="97" x2="200" y2="276" stroke="#CCCCCC" stroke-width="1"/>
  <line x1="200" y1="276" x2="625.0" y2="276" stroke="#CCCCCC" stroke-width="1"/>

  <!-- Bars -->
  <rect x="200" y="97" width="425" height="18" fill="#F0F0F0"/>
  <rect x="351.7" y="97" width="193.6" height="18" fill="#A8C8E8"/>
  <rect x="437.6" y="97" width="3" height="18" fill="#1A4A8C"/>
  <text x="195" y="110" text-anchor="end" font-family="sans-serif" font-size="11" fill="#252521">0-1 year</text>
  <text x="552.3" y="110" font-family="sans-serif" font-size="10" fill="#252521">$90K</text>
  <rect x="200" y="137" width="425" height="18" fill="#F0F0F0"/>
  <rect x="365.8" y="137" width="193.5" height="18" fill="#A8C8E8"/>
  <rect x="442.9" y="137" width="3" height="18" fill="#1A4A8C"/>
  <text x="195" y="150" text-anchor="end" font-family="sans-serif" font-size="11" fill="#252521">1-2 years</text>
  <text x="566.3" y="150" font-family="sans-serif" font-size="10" fill="#252521">$92K</text>
  <rect x="200" y="177" width="425" height="18" fill="#F0F0F0"/>
  <rect x="370.5" y="177" width="185.2" height="18" fill="#A8C8E8"/>
  <rect x="442.9" y="177" width="3" height="18" fill="#1A4A8C"/>
  <text x="195" y="190" text-anchor="end" font-family="sans-serif" font-size="11" fill="#252521">2-5 years</text>
  <text x="562.7" y="190" font-family="sans-serif" font-size="10" fill="#252521">$92K</text>
  <rect x="200" y="217" width="425" height="18" fill="#F0F0F0"/>
  <rect x="386.5" y="217" width="184.7" height="18" fill="#A8C8E8"/>
  <rect x="448.1" y="217" width="3" height="18" fill="#1A4A8C"/>
  <text x="195" y="230" text-anchor="end" font-family="sans-serif" font-size="11" fill="#252521">5-10 years</text>
  <text x="578.2" y="230" font-family="sans-serif" font-size="10" fill="#252521">$94K</text>
  <rect x="200" y="257" width="425" height="18" fill="#F0F0F0"/>
  <rect x="380.3" y="257" width="218.1" height="18" fill="#A8C8E8"/>
  <rect x="476.7" y="257" width="3" height="18" fill="#1A4A8C"/>
  <text x="195" y="270" text-anchor="end" font-family="sans-serif" font-size="11" fill="#252521">10+ years</text>
  <text x="605.4" y="270" font-family="sans-serif" font-size="10" fill="#252521">$104.7K</text>

  <!-- X-axis ticks and labels -->
  <line x1="306.2" y1="276" x2="306.2" y2="281" stroke="#CCCCCC" stroke-width="1"/>
  <text x="306.2" y="293" text-anchor="middle" font-family="sans-serif" font-size="10" fill="#888888">$40K</text>
  <line x1="412.5" y1="276" x2="412.5" y2="281" stroke="#CCCCCC" stroke-width="1"/>
  <text x="412.5" y="293" text-anchor="middle" font-family="sans-serif" font-size="10" fill="#888888">$80K</text>
  <line x1="518.8" y1="276" x2="518.8" y2="281" stroke="#CCCCCC" stroke-width="1"/>
  <text x="518.8" y="293" text-anchor="middle" font-family="sans-serif" font-size="10" fill="#888888">$120K</text>
  <line x1="625.0" y1="276" x2="625.0" y2="281" stroke="#CCCCCC" stroke-width="1"/>
  <text x="625.0" y="293" text-anchor="middle" font-family="sans-serif" font-size="10" fill="#888888">$160K</text>

  <!-- Legend -->
  <rect x="502" y="55" width="143" height="36" fill="white" stroke="#CCCCCC" stroke-width="1" rx="2"/>
  <rect x="514" y="60" width="3" height="10" fill="#1A4A8C"/>
  <text x="524" y="69" font-family="sans-serif" font-size="10" fill="#252521">Median</text>
  <circle cx="516" cy="79" r="5" fill="#A8C8E8"/>
  <text x="524" y="83" font-family="sans-serif" font-size="10" fill="#252521">25th–75th percentile</text>
</svg>