<svg viewBox="0 65 660 325" fill="none" xmlns="http://www.w3.org/2000/svg">  <defs>
    <style type="text/css">
      <![CDATA[
        @import url(/_static/survey/css/2025-svg.css);
      ]]>
    </style>
</defs>  <g id="2025-basis-of-employment-history">    <g class="title">
      <text font-size="14"><tspan x="40" y="33">Basis of employment</tspan></text>
      <text font-size="12" class="subtitle"><tspan x="40" y="49">Respondents by survey year (2019-2025)</tspan></text>
    </g>    <g class="bar-chart-vertical">      <g class="y-axis">
        <g class="gridlines">
          <path d="M68 355.5H620" stroke="#F0F0F0"/>
          <path d="M68 305.5H620" stroke="#F0F0F0"/>
          <path d="M68 255.5H620" stroke="#F0F0F0"/>
          <path d="M68 205.5H620" stroke="#F0F0F0"/>
          <path d="M68 155.5H620" stroke="#F0F0F0"/>
        </g>
        <g class="axis-labels">
          <text font-size="10"><tspan x="45" y="358.0">0</tspan></text>
          <text font-size="10"><tspan x="40" y="308.0">250</tspan></text>
          <text font-size="10"><tspan x="40" y="258.0">500</tspan></text>
          <text font-size="10"><tspan x="40" y="208.0">750</tspan></text>
          <text font-size="10"><tspan x="40" y="158.0">1,000</tspan></text>
        </g>
      </g>      <g class="data-series">
        <g class="a">
          <g class="axis-labels">
            <text font-size="10" text-anchor="middle"><tspan x="103.1" y="374.0">2019</tspan></text>
            <text font-size="10" text-anchor="middle"><tspan x="183.4" y="374.0">2020</tspan></text>
            <text font-size="10" text-anchor="middle"><tspan x="263.7" y="374.0">2021</tspan></text>
            <text font-size="10" text-anchor="middle"><tspan x="344.0" y="374.0">2022</tspan></text>
            <text font-size="10" text-anchor="middle"><tspan x="424.3" y="374.0">2023</tspan></text>
            <text font-size="10" text-anchor="middle"><tspan x="504.6" y="374.0">2024</tspan></text>
            <text font-size="10" text-anchor="middle"><tspan x="584.9" y="374.0">2025</tspan></text>
          </g>
          <g class="bars">
            <path d="M134.3 225.1H72.0V355.5H134.3V225.1Z" fill="#00AEFF"/>
            <path d="M134.3 216.7H72.0V225.1H134.3V216.7Z" fill="#FFA600"/>
            <path d="M214.6 205.9H152.3V355.5H214.6V205.9Z" fill="#00AEFF"/>
            <path d="M214.6 194.5H152.3V205.9H214.6V194.5Z" fill="#FFA600"/>
            <path d="M294.9 178.1H232.6V355.5H294.9V178.1Z" fill="#00AEFF"/>
            <path d="M294.9 163.7H232.6V178.1H294.9V163.7Z" fill="#FFA600"/>
            <path d="M375.1 257.3H312.9V355.5H375.1V257.3Z" fill="#00AEFF"/>
            <path d="M375.1 250.5H312.9V257.3H375.1V250.5Z" fill="#FFA600"/>
            <path d="M455.4 167.9H393.1V355.5H455.4V167.9Z" fill="#00AEFF"/>
            <path d="M455.4 152.1H393.1V167.9H455.4V152.1Z" fill="#FFA600"/>
            <path d="M535.7 218.3H473.4V355.5H535.7V218.3Z" fill="#00AEFF"/>
            <path d="M535.7 205.1H473.4V218.3H535.7V205.1Z" fill="#FFA600"/>
            <path d="M535.7 199.5H473.4V205.1H535.7V199.5Z" fill="#97BB50"/>
            <path d="M616.0 220.5H553.7V355.5H616.0V220.5Z" fill="#00AEFF"/>
            <path d="M616.0 211.3H553.7V220.5H616.0V211.3Z" fill="#FFA600"/>
            <path d="M616.0 204.5H553.7V211.3H616.0V204.5Z" fill="#97BB50"/>
          </g>
          
        </g>
      </g>

      <!-- Legend (right-aligned, 15px margins, boxed in top right corner) -->
      <g class="legend">
        <rect x="348" y="85" width="295" height="20" fill="white" stroke="#CCCCCC" stroke-width="1" rx="2"/>
        <circle cx="365" cy="95" r="6" fill="#00AEFF"/>
        <text font-size="10" fill="#252521"><tspan x="374" y="99">Employees</tspan></text>
        <circle cx="439" cy="95" r="6" fill="#FFA600"/>
        <text font-size="10" fill="#252521"><tspan x="448" y="99">Contractors</tspan></text>
        <circle cx="521" cy="95" r="6" fill="#97BB50"/>
        <text font-size="10" fill="#252521"><tspan x="530" y="99">Employee-contractors</tspan></text>
      </g>

    </g>

  </g>

</svg>