<svg viewBox="0 55 660 350" fill="none" xmlns="http://www.w3.org/2000/svg">

  <defs>
    <style type="text/css">
      <![CDATA[
        @import url(/_static/survey/css/2025-svg.css);
      ]]>
    </style>
  </defs>

  <g id="2025-contractor-preferred-term">

    <g class="title">
      <text font-size="14"><tspan x="40" y="33">Preferred term</tspan></text>
      <text font-size="12" class="subtitle"><tspan x="40" y="49">Contractors</tspan></text>
    </g>

    <g class="donut-chart">

      <!-- Contractor (68.8%): 229.8°→477.5° -->
      <path d="M231.181 117.431 A150 150 0 1 1 258.784 365.076 L300.314 285.230 A60 60 0 1 0 289.273 186.172 Z" fill="#00AEFF" stroke="white" stroke-width="2"/>

      <!-- Self-employed (12.5%): 477.5°→522.5° -->
      <path d="M258.784 365.076 A150 150 0 0 1 184.958 277.156 L270.783 250.062 A60 60 0 0 0 300.314 285.230 Z" fill="#7EA4FF" stroke="white" stroke-width="2"/>

      <!-- Freelancer (11.2%): 522.5°→562.8° -->
      <path d="M184.958 277.156 A150 150 0 0 1 189.721 173.873 L272.688 208.749 A60 60 0 0 0 270.783 250.062 Z" fill="#FFA600" stroke="white" stroke-width="2"/>

      <!-- Other (7.5%): 562.8°→589.8° -->
      <path d="M189.721 173.873 A150 150 0 0 1 231.181 117.431 L289.273 186.172 A60 60 0 0 0 272.688 208.749 Z" fill="#BBBBBB" stroke="white" stroke-width="2"/>

      <!-- Connectors and labels -->
      <path d="M519.8 213.2 C519.8 213.2 497.0 213.2 480.1 215.1" stroke="#252521" stroke-dasharray="1 3"/>
      <path d="M179.0 354.9 C179.0 354.9 197.8 341.3 210.8 330.4" stroke="#252521" stroke-dasharray="1 3"/>
      <path d="M135.2 225.3 C135.2 225.3 158.2 224.2 175.2 225.0" stroke="#252521" stroke-dasharray="1 3"/>
      <path d="M171.5 122.7 C171.5 122.7 191.0 131.4 204.7 141.4" stroke="#252521" stroke-dasharray="1 3"/>

      <!-- Labels -->
      <text font-size="10"><tspan x="523" y="211">Contractor (68.8%)</tspan></text>
      <text font-size="10"><tspan x="79" y="353">Self-employed (12.5%)</tspan></text>
      <text font-size="10"><tspan x="50" y="223">Freelancer (11.2%)</tspan></text>
      <text font-size="10"><tspan x="111" y="121">Other (7.5%)</tspan></text>

      <!-- Inner percentage labels for large segments -->
      <text font-size="14" class="value-labels-inner"><tspan x="419" y="225">68.8%</tspan></text>
      <text font-size="14" class="value-labels-inner"><tspan x="226" y="308">12.5%</tspan></text>
      <text font-size="14" class="value-labels-inner"><tspan x="200" y="232">11.2%</tspan></text>

    </g>

  </g>

</svg>