<svg viewBox="0 55 660 251" fill="none" xmlns="http://www.w3.org/2000/svg">

  <defs>
    <style type="text/css">
      <![CDATA[
        @import url(/_static/survey/css/2025-svg.css);
      ]]>
    </style>
    <filter id="label-bg" x="-15%" y="-40%" width="130%" height="180%">
      <feMorphology in="SourceAlpha" operator="dilate" radius="3" result="expanded"/>
      <feGaussianBlur in="expanded" stdDeviation="5" result="blurred"/>
      <feComponentTransfer in="blurred" result="rounded">
        <feFuncA type="linear" slope="20" intercept="-5"/>
      </feComponentTransfer>
      <feFlood flood-color="white" flood-opacity="0.8" result="color"/>
      <feComposite in="color" in2="rounded" operator="in" result="bg"/>
      <feMerge>
        <feMergeNode in="bg"/>
        <feMergeNode in="SourceGraphic"/>
      </feMerge>
    </filter>
  </defs>

  <g id="2025-overall-satisfaction-employees">

    <g class="title">
      <text font-size="14"><tspan x="40" y="33">Overall satisfaction</tspan></text>
      <text font-size="12" class="subtitle"><tspan x="40" y="49">Employees</tspan></text>
    </g>

    <g class="donut-chart scale-satisfaction" transform="translate(0 20)">

      <!-- Very unsatisfied (3.4%): 180.0°→186.1° -->
      <path class="slice very-unsatisfied" d="M180.000 262.000 A150 150 0 0 1 180.847 246.078 L270.339 255.631 A60 60 0 0 0 270.000 262.000 Z"/>

      <!-- Unsatisfied (14.8%): 186.1°→212.8° -->
      <path class="slice unsatisfied" d="M180.847 246.078 A150 150 0 0 1 203.845 180.853 L279.538 229.541 A60 60 0 0 0 270.339 255.631 Z"/>

      <!-- Neutral (16.1%): 212.8°→241.7° -->
      <path class="slice neutral" d="M203.845 180.853 A150 150 0 0 1 258.870 129.938 L301.548 209.175 A60 60 0 0 0 279.538 229.541 Z"/>

      <!-- Satisfied (44.3%): 241.7°→321.4° -->
      <path class="slice satisfied" d="M258.870 129.938 A150 150 0 0 1 447.245 168.439 L376.898 224.576 A60 60 0 0 0 301.548 209.175 Z"/>

      <!-- Very satisfied (21.4%): 321.4°→360.0° -->
      <path class="slice very-satisfied" d="M447.245 168.439 A150 150 0 0 1 480.000 262.000 L390.000 262.000 A60 60 0 0 0 376.898 224.576 Z"/>

      <!-- Inner percentage labels -->
      <text font-size="14" class="value-labels-inner"><tspan x="208" y="230">14.8%</tspan></text>
      <text font-size="14" class="value-labels-inner"><tspan x="237" y="186">16.1%</tspan></text>
      <text font-size="14" class="value-labels-inner"><tspan x="334" y="159">44.3%</tspan></text>
      <text font-size="14" class="value-labels-inner"><tspan x="416" y="231">21.4%</tspan></text>

    </g>

    <g class="legend scale-satisfaction">
      <rect x="262" y="70" width="384" height="20" fill="white" stroke="#CCCCCC" stroke-width="1" rx="2"/>
      <circle class="swatch very-unsatisfied" cx="275" cy="80" r="6"/>
      <text font-size="10" fill="#252521"><tspan x="285" y="84">Very unsatisfied</tspan></text>
      <circle class="swatch unsatisfied" cx="370" cy="80" r="6"/>
      <text font-size="10" fill="#252521"><tspan x="380" y="84">Unsatisfied</tspan></text>
      <circle class="swatch neutral" cx="444" cy="80" r="6"/>
      <text font-size="10" fill="#252521"><tspan x="454" y="84">Neutral</tspan></text>
      <circle class="swatch satisfied" cx="504" cy="80" r="6"/>
      <text font-size="10" fill="#252521"><tspan x="514" y="84">Satisfied</tspan></text>
      <circle class="swatch very-satisfied" cx="568" cy="80" r="6"/>
      <text font-size="10" fill="#252521"><tspan x="578" y="84">Very satisfied</tspan></text>
    </g>

  </g>

</svg>
