<svg viewBox="0 35 660 237" fill="none" xmlns="http://www.w3.org/2000/svg">

  <defs>
    <style type="text/css">
      <![CDATA[
        @import url(/_static/survey/css/2025-svg.css);
      ]]>
    </style>
    <filter id="label-bg" x="-15%" y="-40%" width="130%" height="180%">
      <feMorphology in="SourceAlpha" operator="dilate" radius="3" result="expanded"/>
      <feGaussianBlur in="expanded" stdDeviation="5" result="blurred"/>
      <feComponentTransfer in="blurred" result="rounded">
        <feFuncA type="linear" slope="20" intercept="-5"/>
      </feComponentTransfer>
      <feFlood flood-color="white" flood-opacity="0.8" result="color"/>
      <feComposite in="color" in2="rounded" operator="in" result="bg"/>
      <feMerge>
        <feMergeNode in="bg"/>
        <feMergeNode in="SourceGraphic"/>
      </feMerge>
    </filter>
  </defs>

  <g id="2025-earnings-satisfaction-contractors">

    <g class="title">
      <text font-size="14"><tspan x="40" y="33">Earnings satisfaction</tspan></text>
      <text font-size="12" class="subtitle"><tspan x="40" y="49">Contractors</tspan></text>
    </g>

    <g class="donut-chart scale-satisfaction" transform="translate(0 20)">

      <!-- Very unsatisfied (13.8%): 180.0°→204.8° -->
      <path class="slice very-unsatisfied" d="M180.000 236.000 A150 150 0 0 1 193.779 173.201 L275.511 210.880 A60 60 0 0 0 270.000 236.000 Z"/>

      <!-- Unsatisfied (16.2%): 204.8°→234.0° -->
      <path class="slice unsatisfied" d="M193.779 173.201 A150 150 0 0 1 241.832 114.647 L294.733 187.459 A60 60 0 0 0 275.511 210.880 Z"/>

      <!-- Neutral (17.5%): 234.0°→265.5° -->
      <path class="slice neutral" d="M241.832 114.647 A150 150 0 0 1 318.231 86.462 L325.292 176.185 A60 60 0 0 0 294.733 187.459 Z"/>

      <!-- Satisfied (41.2%): 265.5°→339.8° -->
      <path class="slice satisfied" d="M318.231 86.462 A150 150 0 0 1 470.729 184.082 L386.291 215.233 A60 60 0 0 0 325.292 176.185 Z"/>

      <!-- Very satisfied (11.2%): 339.8°→360.0° -->
      <path class="slice very-satisfied" d="M470.729 184.082 A150 150 0 0 1 480.000 236.000 L390.000 236.000 A60 60 0 0 0 386.291 215.233 Z"/>

      <!-- Inner percentage labels -->
      <text font-size="14" class="value-labels-inner"><tspan x="205" y="217">13.8%</tspan></text>
      <text font-size="14" class="value-labels-inner"><tspan x="227" y="171">16.2%</tspan></text>
      <text font-size="14" class="value-labels-inner"><tspan x="274" y="138">17.5%</tspan></text>
      <text font-size="14" class="value-labels-inner"><tspan x="371" y="148">41.2%</tspan></text>
      <text font-size="14" class="value-labels-inner"><tspan x="420" y="222">11.2%</tspan></text>

    </g>

    <g class="legend scale-satisfaction">
      <rect x="262" y="50" width="384" height="20" fill="white" stroke="#CCCCCC" stroke-width="1" rx="2"/>
      <circle class="swatch very-unsatisfied" cx="275" cy="60" r="6"/>
      <text font-size="10" fill="#252521"><tspan x="285" y="64">Very unsatisfied</tspan></text>
      <circle class="swatch unsatisfied" cx="370" cy="60" r="6"/>
      <text font-size="10" fill="#252521"><tspan x="380" y="64">Unsatisfied</tspan></text>
      <circle class="swatch neutral" cx="444" cy="60" r="6"/>
      <text font-size="10" fill="#252521"><tspan x="454" y="64">Neutral</tspan></text>
      <circle class="swatch satisfied" cx="504" cy="60" r="6"/>
      <text font-size="10" fill="#252521"><tspan x="514" y="64">Satisfied</tspan></text>
      <circle class="swatch very-satisfied" cx="568" cy="60" r="6"/>
      <text font-size="10" fill="#252521"><tspan x="578" y="64">Very satisfied</tspan></text>
    </g>

  </g>

</svg>
