<svg viewBox="0 0 660 500" fill="none" xmlns="http://www.w3.org/2000/svg">

  <defs>
    <style type="text/css">
      <![CDATA[
        @import url(/_static/survey/css/2025-svg.css);
        .bars rect {
          fill-opacity: 0.8;
        }
        .bars rect:hover {
          fill-opacity: 1;
        }
      ]]>
    </style>
  </defs>

  <g id="2025-additional-role-categories-v2" class="scale-single-series">
    <g class="chart-header">
      <g class="chart-title">
        <text x="20" y="35" class="title-text">Additional role categories</text>
        <text x="20" y="55" class="subtitle-text">All respondents (755), top 10 of 19 categories</text>
      </g>

      <g class="legend">
        <g class="legend-row">
          <g class="legend-item">
            <rect class="legend-item-container" x="552" y="20" width="88"/>
            <circle class="series-a" cx="565" cy="31"/>
            <text class="legend-label" x="573" y="35">Respondents</text>
          </g>
        </g>
      </g>
    </g>

    <g class="chart-area bar-chart-horizontal scale-single-series" transform="translate(0 35)">
      <g font-size="10" text-anchor="end">
        <text><tspan x="100" y="80">Editor</tspan></text>
        <text><tspan x="100" y="112">Information</tspan><tspan x="100" y="124">architecture</tspan></text>
        <text><tspan x="100" y="156">UX writer</tspan></text>
        <text><tspan x="100" y="194">DocOps</tspan></text>
        <text><tspan x="100" y="232">Mentoring</tspan></text>
        <text><tspan x="100" y="264">Subject matter</tspan><tspan x="100" y="276">expert</tspan></text>
        <text><tspan x="100" y="302">Content</tspan><tspan x="100" y="314">producer</tspan></text>
        <text><tspan x="100" y="340">Testing /</tspan><tspan x="100" y="352">QA</tspan></text>
        <text><tspan x="100" y="378">Manager or</tspan><tspan x="100" y="390">team leader</tspan></text>
        <text><tspan x="100" y="416">Project or</tspan><tspan x="100" y="428">product manager</tspan></text>
      </g>

      <g class="tracks">
        <rect class="track" x="108" y="62" width="500" height="28"/>
        <rect class="track" x="108" y="100" width="500" height="28"/>
        <rect class="track" x="108" y="138" width="500" height="28"/>
        <rect class="track" x="108" y="176" width="500" height="28"/>
        <rect class="track" x="108" y="214" width="500" height="28"/>
        <rect class="track" x="108" y="252" width="500" height="28"/>
        <rect class="track" x="108" y="290" width="500" height="28"/>
        <rect class="track" x="108" y="328" width="500" height="28"/>
        <rect class="track" x="108" y="366" width="500" height="28"/>
        <rect class="track" x="108" y="404" width="500" height="28"/>
      </g>

      <g class="bars series-a">
        <rect x="108" y="62" width="447.1" height="28"/>
        <rect x="108" y="100" width="372.9" height="28"/>
        <rect x="108" y="138" width="285.7" height="28"/>
        <rect x="108" y="176" width="268.6" height="28"/>
        <rect x="108" y="214" width="201.4" height="28"/>
        <rect x="108" y="252" width="200" height="28"/>
        <rect x="108" y="290" width="197.1" height="28"/>
        <rect x="108" y="328" width="181.4" height="28"/>
        <rect x="108" y="366" width="167.1" height="28"/>
        <rect x="108" y="404" width="157.1" height="28"/>
      </g>

      <g class="value-labels-outer" text-anchor="end">
        <text><tspan x="640" y="80">53.6%</tspan></text>
        <text><tspan x="640" y="118">44.8%</tspan></text>
        <text><tspan x="640" y="156">34.3%</tspan></text>
        <text><tspan x="640" y="194">32.2%</tspan></text>
        <text><tspan x="640" y="232">24.2%</tspan></text>
        <text><tspan x="640" y="270">24.0%</tspan></text>
        <text><tspan x="640" y="308">23.7%</tspan></text>
        <text><tspan x="640" y="346">21.7%</tspan></text>
        <text><tspan x="640" y="384">20.0%</tspan></text>
        <text><tspan x="640" y="422">18.8%</tspan></text>
      </g>
    </g>
  </g>

</svg>
