<?xml version="1.0" encoding="UTF-8" standalone="no"?>
<!-- Created with Inkscape (http://www.inkscape.org/) -->

<svg
   xmlns:dc="http://purl.org/dc/elements/1.1/"
   xmlns:cc="http://creativecommons.org/ns#"
   xmlns:rdf="http://www.w3.org/1999/02/22-rdf-syntax-ns#"
   xmlns:svg="http://www.w3.org/2000/svg"
   xmlns="http://www.w3.org/2000/svg"
   xmlns:sodipodi="http://sodipodi.sourceforge.net/DTD/sodipodi-0.dtd"
   xmlns:inkscape="http://www.inkscape.org/namespaces/inkscape"
   width="225"
   height="90"
   id="svg2"
   version="1.1"
   inkscape:version="0.48.2 r9819"
   sodipodi:docname="wtd-eu-2014-sticker.svg"
   inkscape:export-filename="/Users/troy/repo/writethedocs/wtd-eu-2014-shirt-mockup-7.png"
   inkscape:export-xdpi="95.970001"
   inkscape:export-ydpi="95.970001">
  <defs
     id="defs4" />
  <sodipodi:namedview
     id="base"
     pagecolor="#ffffff"
     bordercolor="#666666"
     borderopacity="1.0"
     inkscape:pageopacity="0.0"
     inkscape:pageshadow="2"
     inkscape:zoom="1.4"
     inkscape:cx="145.84608"
     inkscape:cy="52.220509"
     inkscape:document-units="px"
     inkscape:current-layer="layer1"
     showgrid="false"
     showguides="false"
     inkscape:guide-bbox="true"
     inkscape:window-width="1438"
     inkscape:window-height="747"
     inkscape:window-x="0"
     inkscape:window-y="0"
     inkscape:window-maximized="0"
     units="in">
    <sodipodi:guide
       orientation="1,0"
       position="262.85714,857.14286"
       id="guide3788" />
    <sodipodi:guide
       orientation="1,0"
       position="488.57143,934.28571"
       id="guide3790" />
    <sodipodi:guide
       orientation="1,0"
       position="250.51783,990.95965"
       id="guide3855" />
    <sodipodi:guide
       orientation="1,0"
       position="509.11688,978.83782"
       id="guide3857" />
    <sodipodi:guide
       orientation="0,1"
       position="38.571429,77.857143"
       id="guide3878" />
    <sodipodi:guide
       orientation="0,1"
       position="132.14286,12.142857"
       id="guide3887" />
    <sodipodi:guide
       orientation="1,0"
       position="165.35714,67.5"
       id="guide3925" />
  </sodipodi:namedview>
  <metadata
     id="metadata7">
    <rdf:RDF>
      <cc:Work
         rdf:about="">
        <dc:format>image/svg+xml</dc:format>
        <dc:type
           rdf:resource="http://purl.org/dc/dcmitype/StillImage" />
        <dc:title></dc:title>
      </cc:Work>
    </rdf:RDF>
  </metadata>
  <g
     inkscape:label="Layer 1"
     inkscape:groupmode="layer"
     id="layer1"
     transform="translate(0,-962.36)">
    <rect
       style="fill:#f2b33f;fill-opacity:1;stroke:none"
       id="rect3889"
       width="59.642868"
       height="90"
       x="165.35715"
       y="962.35999" />
    <rect
       style="fill:#363948;fill-opacity:1;stroke:none"
       id="rect3860"
       width="165"
       height="90"
       x="0"
       y="962.35999" />
    <g
       style="font-size:67.58887482px;font-style:normal;font-variant:normal;font-weight:bold;font-stretch:normal;line-height:125%;letter-spacing:0px;word-spacing:0px;fill:#000000;fill-opacity:1;stroke:none;font-family:Aleo;-inkscape-font-specification:Aleo Bold"
       id="text2996"
       transform="matrix(0.63383879,0,0,0.63383879,-156.31525,869.10193)">
      <path
         d="m 263.00644,170.28684 0,-3.99329 2.31017,0 2.8052,0 4.85135,0 8.2836,0 0,3.99329 c -2e-5,1.18813 -0.56106,1.89218 -1.68312,2.11215 -0.022,4e-5 -0.14303,0.022 -0.36303,0.066 -0.13203,0.0221 -0.37404,0.0881 -0.72605,0.19802 -0.13203,0.044 -0.34104,0.099 -0.62705,0.16501 -0.28603,0.044 -0.47305,0.077 -0.56104,0.099 l 7.02951,24.68578 c 0.24199,0.92408 0.42901,1.70514 0.56104,2.34317 0.17599,0.81407 0.341,1.70513 0.49504,2.67319 0.10998,-0.63803 0.29699,-1.5291 0.56104,-2.67319 0.17598,-0.79204 0.407,-1.5731 0.69305,-2.34317 l 9.60369,-29.24011 c 0.15398,-0.48399 0.517,-0.95702 1.08908,-1.4191 0.55,-0.43999 1.18805,-0.66 1.91414,-0.66005 l 2.67319,0 c 0.77001,5e-5 1.43006,0.18706 1.98014,0.56104 0.48399,0.33007 0.83602,0.83611 1.05608,1.51811 l 9.53768,29.24011 c 0.50599,1.47412 0.93502,3.06923 1.2871,4.78534 0.21996,-1.14407 0.38497,-1.99113 0.49503,-2.54118 0.022,-0.10999 0.19796,-0.85805 0.52804,-2.24416 l 6.99651,-24.61978 c -0.74812,-0.17597 -1.68319,-0.37398 -2.80521,-0.59404 -1.12213,-0.21997 -1.68317,-0.92402 -1.68312,-2.11215 l 0,-3.99329 8.81164,0 4.32331,0 2.8052,0 2.31017,0 0,3.99329 c -8e-5,1.18813 -0.56112,1.89218 -1.68312,2.11215 -0.0221,4e-5 -0.0661,0.011 -0.13201,0.033 -0.0441,4e-5 -0.13209,0.011 -0.26402,0.033 -0.13208,0.0221 -0.25309,0.044 -0.36303,0.066 -0.13208,0.022 -0.4181,0.077 -0.85806,0.16501 -0.4181,0.066 -0.77013,0.12105 -1.05608,0.16501 l -13.13494,42.30905 -8.2176,0 -10.65976,-33.3984 c -4e-5,-0.022 -0.0661,-0.20899 -0.19802,-0.56104 -0.11005,-0.352 -0.18705,-0.62702 -0.23102,-0.82506 -0.022,-0.066 -0.088,-0.28599 -0.19801,-0.66005 -0.11005,-0.39599 -0.18705,-0.70402 -0.23102,-0.92407 -0.044,0.22005 -0.12104,0.52808 -0.23101,0.92407 -0.11005,0.37406 -0.17605,0.59408 -0.19802,0.66005 -0.044,0.17604 -0.11004,0.41806 -0.19801,0.72605 -0.0881,0.30805 -0.15405,0.52807 -0.19802,0.66005 l -10.79177,33.3984 -8.2176,0 -13.13494,-42.30905 c -0.70406,-0.13196 -1.35311,-0.24197 -1.94714,-0.33002 -0.41804,-0.088 -0.66005,-0.13197 -0.72606,-0.13201 -1.12208,-0.21997 -1.68312,-0.92402 -1.68312,-2.11215"
         style="fill:#f2b33f;fill-opacity:1"
         id="path3001"
         inkscape:connector-curvature="0" />
      <path
         d="m 339.90199,215.17007 0,-3.96028 c 0,-1.18808 0.56104,-1.89213 1.68312,-2.11215 0.11,-0.044 0.25301,-0.077 0.42903,-0.099 0.044,1e-5 0.121,-0.011 0.23102,-0.033 0.11,-0.022 0.23101,-0.044 0.36302,-0.066 0.13201,-0.022 0.27502,-0.044 0.42903,-0.066 0.15401,-0.022 0.45103,-0.066 0.89107,-0.13201 0.44002,-0.088 0.80305,-0.16501 1.08908,-0.23102 l 0,-35.47756 c -0.30803,-0.066 -0.68206,-0.13196 -1.12209,-0.19801 -0.41803,-0.066 -0.70405,-0.10997 -0.85806,-0.13201 -0.55004,-0.10997 -0.89106,-0.17597 -1.02307,-0.19802 -0.044,5e-5 -0.099,5e-5 -0.16501,0 -0.066,-0.022 -0.12101,-0.033 -0.16501,-0.033 -0.044,-0.022 -0.077,-0.033 -0.099,-0.033 -1.12208,-0.21997 -1.68312,-0.92402 -1.68312,-2.11215 l 0,-3.99329 5.11537,0 14.42204,0 c 3.30021,5e-5 6.16041,0.35207 8.58061,1.05608 2.44215,0.70409 4.38929,1.66116 5.84143,2.8712 1.47407,1.23214 2.58514,2.71724 3.33324,4.45532 0.72601,1.71617 1.08904,3.6083 1.08908,5.67641 -4e-5,1.65016 -0.25306,3.21227 -0.75906,4.68634 -0.52808,1.51814 -1.22113,2.83823 -2.07915,3.96029 -1.01211,1.29812 -2.13419,2.35419 -3.36624,3.16823 -1.38613,0.92408 -2.91524,1.63913 -4.58733,2.14515 1.16605,0.66007 2.15612,1.59513 2.97021,2.8052 l 7.68956,11.35282 c 0.35198,0.066 0.78101,0.14302 1.28709,0.23102 0.50599,0.088 0.77001,0.13201 0.79206,0.13201 0.17597,0.022 0.34098,0.044 0.49503,0.066 0.15397,0.022 0.29698,0.044 0.42903,0.066 0.13197,0.022 0.21998,0.033 0.26402,0.033 0.26398,0.044 0.43999,0.077 0.52804,0.099 1.12204,0.22002 1.68308,0.92407 1.68312,2.11215 l 0,3.96028 -0.92407,0 -4.1913,0 -3.99329,0 c -0.81409,0 -1.48514,-0.15401 -2.01314,-0.46203 -0.57208,-0.33002 -1.04511,-0.78105 -1.4191,-1.3531 L 360.8255,197.71182 c -0.39605,-0.57203 -0.81408,-0.99006 -1.25409,-1.2541 -0.46206,-0.264 -1.14411,-0.396 -2.04615,-0.39602 l -3.39925,0 0,12.40889 c 0.55003,0.088 1.21007,0.20902 1.98015,0.36303 0.15399,0.022 0.286,0.044 0.39602,0.066 0.132,0.022 0.253,0.044 0.36303,0.066 0.10999,0.022 0.187,0.033 0.23102,0.033 0.17599,0.022 0.319,0.055 0.42903,0.099 1.12206,0.22002 1.6831,0.92407 1.68312,2.11215 l 0,3.96028 -5.08237,0 -9.10865,0 -5.11537,0 m 14.22402,-25.60984 5.18138,0 c 1.67209,2e-5 3.1682,-0.21999 4.48832,-0.66005 1.29807,-0.44001 2.34314,-1.02305 3.13523,-1.74913 0.83603,-0.77002 1.45207,-1.67209 1.84813,-2.70619 0.396,-1.03404 0.59401,-2.16712 0.59404,-3.39925 -3e-5,-2.48614 -0.81409,-4.38927 -2.44217,-5.70941 -1.67215,-1.34205 -4.16933,-2.0131 -7.49154,-2.01314 l -5.31339,0 0,16.23717"
         style="fill:#f1f1f1;fill-opacity:1"
         id="path3003"
         inkscape:connector-curvature="0" />
      <path
         d="m 386.23733,215.17007 0,-3.96028 c 0,-1.18808 0.56104,-1.89213 1.68312,-2.11215 0.11001,-0.044 0.25302,-0.077 0.42903,-0.099 0.044,1e-5 0.12101,-0.011 0.23102,-0.033 0.11,-0.022 0.23101,-0.044 0.36302,-0.066 0.13201,-0.022 0.27502,-0.044 0.42904,-0.066 0.154,-0.022 0.45102,-0.066 0.89106,-0.13201 0.44003,-0.088 0.80305,-0.16501 1.08908,-0.23102 l 0,-35.47756 c -0.30803,-0.066 -0.68206,-0.13196 -1.12208,-0.19801 -0.41804,-0.066 -0.70406,-0.10997 -0.85806,-0.13201 -0.55005,-0.10997 -0.89107,-0.17597 -1.02308,-0.19802 -0.26402,-0.044 -0.40703,-0.066 -0.42903,-0.066 -1.12208,-0.21997 -1.68312,-0.92402 -1.68312,-2.11215 l 0,-3.99329 5.11537,0 9.14166,0 5.11537,0 0,3.99329 c -2e-5,1.16613 -0.57207,1.87018 -1.71613,2.11215 l -0.39603,0.066 c -0.13202,0.0221 -0.47305,0.0881 -1.02307,0.19802 -0.15403,0.022 -0.45105,0.066 -0.89106,0.13201 -0.41805,0.0661 -0.78108,0.13205 -1.08908,0.19801 l 0,35.47756 c 0.286,0.066 0.64903,0.14302 1.08908,0.23102 0.44001,0.066 0.73703,0.11001 0.89106,0.13201 0.15399,0.022 0.297,0.044 0.42903,0.066 0.13199,0.022 0.253,0.044 0.36303,0.066 0.10999,0.022 0.18699,0.033 0.23101,0.033 0.13199,0.022 0.264,0.055 0.39603,0.099 1.14406,0.24202 1.71611,0.94607 1.71613,2.11215 l 0,3.96028 -5.11537,0 -9.14166,0 -5.11537,0"
         style="fill:#f1f1f1;fill-opacity:1"
         id="path3005"
         inkscape:connector-curvature="0" />
      <path
         d="m 408.0189,177.87738 0,-11.58383 0.99007,0 0.099,0 38.41477,0 0.033,0 1.08908,0 0,11.58383 -0.29702,0 -0.82506,0 -2.7722,0 c -0.8801,4e-5 -1.40814,-0.42899 -1.58411,-1.28709 -0.044,-0.21998 -0.15405,-1.15504 -0.33003,-2.8052 l -9.96671,0 0,34.6855 c 0.28599,0.066 0.64902,0.14302 1.08907,0.23102 0.44001,0.066 0.73703,0.11001 0.89107,0.13201 0.15398,0.022 0.29699,0.044 0.42903,0.066 0.13198,0.022 0.25299,0.044 0.36303,0.066 0.10997,0.022 0.18698,0.033 0.23101,0.033 0.17599,0.022 0.319,0.055 0.42903,0.099 1.12205,0.22002 1.68309,0.92407 1.68312,2.11215 l 0,3.96028 -5.11536,0 -9.07566,0 -5.11537,0 0,-3.96028 c -10e-6,-1.18808 0.56103,-1.89213 1.68312,-2.11215 0.11,-0.044 0.25301,-0.077 0.42903,-0.099 l 0.99008,-0.16501 c 0.15399,-0.022 0.45101,-0.066 0.89106,-0.13201 0.44002,-0.088 0.81404,-0.16501 1.12208,-0.23102 l 0,-34.6855 -9.96672,0 c -0.13201,1.25413 -0.25302,2.1892 -0.36302,2.8052 -0.17602,0.8581 -0.69306,1.28713 -1.55112,1.28709 l -2.8052,0 -0.79206,0 -0.29702,0"
         style="fill:#f1f1f1;fill-opacity:1"
         id="path3007"
         inkscape:connector-curvature="0" />
      <path
         d="m 451.05399,215.17007 0,-3.96028 c 0,-1.18808 0.56104,-1.89213 1.68313,-2.11215 0.11,-0.044 0.25301,-0.077 0.42903,-0.099 0.044,1e-5 0.121,-0.011 0.23101,-0.033 0.11001,-0.022 0.23102,-0.044 0.36303,-0.066 0.13201,-0.022 0.27502,-0.044 0.42903,-0.066 0.15401,-0.022 0.45103,-0.066 0.89107,-0.13201 0.44002,-0.088 0.80305,-0.16501 1.08907,-0.23102 l 0,-35.47756 c -0.30802,-0.066 -0.68205,-0.13196 -1.12208,-0.19801 -0.41803,-0.066 -0.70405,-0.10997 -0.85806,-0.13201 -0.55004,-0.10997 -0.89107,-0.17597 -1.02307,-0.19802 -0.044,5e-5 -0.099,5e-5 -0.16501,0 -0.066,-0.022 -0.12102,-0.033 -0.16502,-0.033 -0.044,-0.022 -0.077,-0.033 -0.099,-0.033 -1.12209,-0.21997 -1.68313,-0.92402 -1.68313,-2.11215 l 0,-3.99329 5.11537,0 30.82423,0 0,4.71934 0,2.50818 0,5.61041 -0.29702,0 -0.82506,0 -2.7722,0 c -0.8801,3e-5 -1.40814,-0.418 -1.58412,-1.2541 -0.088,-0.528 -0.25305,-1.9801 -0.49503,-4.35631 l -15.67613,0 0,13.56398 16.50119,0 0,6.9965 -16.50119,0 0,13.828 15.67613,0 c 0.24198,-2.37616 0.40699,-3.82826 0.49503,-4.35631 0.17598,-0.83605 0.70402,-1.25408 1.58412,-1.25409 l 2.7722,0 0.82506,0 0.29702,0 0,5.6104 0,2.50818 0,4.75234 -30.82423,0 -5.11537,0"
         style="fill:#f1f1f1;fill-opacity:1"
         id="path3009"
         inkscape:connector-curvature="0" />
    </g>
    <path
       inkscape:connector-curvature="0"
       id="path3012"
       style="font-size:46.0357132px;font-style:normal;font-variant:normal;font-weight:300;font-stretch:normal;text-align:start;line-height:125%;letter-spacing:0px;word-spacing:0px;writing-mode:lr-tb;text-anchor:start;fill:#f1f1f1;fill-opacity:1;stroke:#f1f1f1;stroke-width:0.63383877;stroke-opacity:1;font-family:Aleo;-inkscape-font-specification:Aleo Light"
       d="m 11.115514,1023.5385 0,-4.2886 0.199464,0 0.427435,0 15.202255,0 0.413187,0 0.213712,0 0,4.2886 -0.712385,0 c -0.389448,0 -0.598419,-0.2374 -0.626897,-0.7124 -1.3e-5,-0.019 -0.0051,-0.1044 -0.01426,-0.2565 -0.0095,-0.1614 -0.02377,-0.4368 -0.04273,-0.8263 -0.01901,-0.3989 -0.03804,-0.8073 -0.05698,-1.2253 l -6.012519,0 0,18.2228 c 0.104475,0 0.265945,0 0.484423,0.015 0.218454,0 0.375176,0 0.470169,0.015 0.189962,0.01 0.403674,0.015 0.641148,0.015 0.05698,0 0.113971,0 0.170971,0.015 0.06648,0 0.104469,0 0.113984,0 0.379922,0.01 0.56989,0.1805 0.569902,0.513 l 0,0.5841 -2.450597,0 -1.496006,0 -2.450597,0 0,-0.5841 c -7e-6,-0.3325 0.189961,-0.5034 0.569909,-0.513 0.0095,0 0.04272,0 0.09973,0 0.06648,-0.01 0.128221,-0.015 0.185215,-0.015 0.237454,0 0.451172,0 0.641146,-0.015 0.09498,-0.01 0.251704,-0.015 0.470176,-0.015 0.218452,-0.01 0.37993,-0.015 0.484417,-0.015 l 0,-18.2228 -6.041009,0 c -0.01901,0.3799 -0.03797,0.7551 -0.05698,1.1255 -0.01901,0.361 -0.03328,0.6365 -0.04273,0.8264 -0.0095,0.1806 -0.01426,0.2993 -0.01426,0.3562 -0.02852,0.475 -0.237461,0.7124 -0.626892,0.7124 l -0.712384,0" />
    <path
       inkscape:connector-curvature="0"
       id="path3014"
       style="font-size:46.0357132px;font-style:normal;font-variant:normal;font-weight:300;font-stretch:normal;text-align:start;line-height:125%;letter-spacing:0px;word-spacing:0px;writing-mode:lr-tb;text-anchor:start;fill:#f1f1f1;fill-opacity:1;stroke:#f1f1f1;stroke-width:0.63383877;stroke-opacity:1;font-family:Aleo;-inkscape-font-specification:Aleo Light"
       d="m 29.879691,1039.8948 0,-0.5841 c 0,-0.323 0.194715,-0.4939 0.584152,-0.5129 0.0095,0 0.04272,0 0.09973,0 0.05698,-0.01 0.113977,-0.015 0.170972,-0.015 0.246956,0 0.465422,0 0.655396,-0.015 0.09498,-0.01 0.251703,-0.015 0.470169,-0.015 0.218458,-0.01 0.379935,-0.015 0.484424,-0.015 l 0,-18.3368 c -0.104489,0 -0.265966,0 -0.484424,0 -0.218466,-0.01 -0.375188,-0.019 -0.470169,-0.029 -0.189974,-0.01 -0.40844,-0.014 -0.655396,-0.015 -0.05698,0 -0.113984,0 -0.170972,0 -0.05698,-0.01 -0.09024,-0.015 -0.09973,-0.015 -0.389437,-0.019 -0.584152,-0.1901 -0.584152,-0.513 l 0,-0.5699 2.464847,0 1.496006,0 2.464846,0 0,0.5699 c -1.3e-5,0.3229 -0.194728,0.4939 -0.584159,0.513 -0.0095,0 -0.04272,0.01 -0.09973,0.015 -0.05698,0 -0.11399,0 -0.170972,0 -0.246963,0 -0.465427,0.01 -0.655389,0.015 -0.09499,0.01 -0.251716,0.019 -0.470176,0.029 -0.218471,0 -0.379942,0 -0.484416,0 l 0,8.4774 12.936877,0 0,-8.4774 c -0.104501,0 -0.265972,0 -0.484418,0 -0.218484,-0.01 -0.375207,-0.019 -0.470174,-0.029 -0.189988,-0.01 -0.408453,-0.014 -0.655397,-0.015 -0.05698,0 -0.113995,0 -0.170972,0 -0.05698,-0.01 -0.09024,-0.015 -0.09973,-0.015 -0.389456,-0.019 -0.584171,-0.1901 -0.584158,-0.513 l 0,-0.5699 2.464847,0 1.496005,0 2.464847,0 0,0.5699 c -2.5e-5,0.3229 -0.194741,0.4939 -0.584152,0.513 -0.0095,0 -0.04279,0.01 -0.09974,0.015 -0.05698,0 -0.114002,0 -0.170972,0 -0.246982,0 -0.465446,0.01 -0.655395,0.015 -0.09501,0.01 -0.25173,0.019 -0.470169,0.029 -0.218485,0 -0.379962,0 -0.484424,0 l 0,18.3368 c 0.104462,0 0.265939,0 0.484424,0.015 0.218439,0 0.375163,0 0.470169,0.015 0.189949,0.01 0.408413,0.015 0.655395,0.015 0.05698,0 0.113958,0.01 0.170972,0.015 0.05698,0 0.09022,0 0.09974,0 0.389411,0.019 0.584127,0.1899 0.584152,0.5129 l 0,0.5841 -2.464847,0 -1.496005,0 -2.464847,0 0,-0.5841 c -1.3e-5,-0.323 0.194702,-0.4939 0.584158,-0.5129 0.0095,0 0.04272,0 0.09973,0 0.05698,-0.01 0.113966,-0.015 0.170972,-0.015 0.246944,0 0.465409,0 0.655397,-0.015 0.09497,-0.01 0.25169,-0.015 0.470174,-0.015 0.218446,-0.01 0.379917,-0.015 0.484418,-0.015 l 0,-8.7339 -12.936877,0 0,8.7339 c 0.104474,0 0.265945,0 0.484416,0.015 0.21846,0 0.375182,0 0.470176,0.015 0.189962,0.01 0.408426,0.015 0.655389,0.015 0.05698,0 0.113977,0.01 0.170972,0.015 0.05698,0 0.09022,0 0.09973,0 0.389431,0.019 0.584146,0.1899 0.584159,0.5129 l 0,0.5841 -2.464846,0 -1.496006,0 -2.464847,0" />
    <path
       inkscape:connector-curvature="0"
       id="path3016"
       style="font-size:46.0357132px;font-style:normal;font-variant:normal;font-weight:300;font-stretch:normal;text-align:start;line-height:125%;letter-spacing:0px;word-spacing:0px;writing-mode:lr-tb;text-anchor:start;fill:#f1f1f1;fill-opacity:1;stroke:#f1f1f1;stroke-width:0.63383877;stroke-opacity:1;font-family:Aleo;-inkscape-font-specification:Aleo Light"
       d="m 53.530815,1039.8948 0,-0.5841 c -7e-6,-0.323 0.194715,-0.4939 0.584151,-0.5129 0.0095,0 0.04272,0 0.09973,0 0.05698,-0.01 0.113977,-0.015 0.170971,-0.015 0.246957,0 0.465422,0 0.655391,-0.015 0.09498,-0.01 0.251709,-0.015 0.470174,-0.015 0.218459,-0.01 0.379936,-0.015 0.484424,-0.015 l 0,-18.3368 c -0.104488,0 -0.265965,0 -0.484424,0 -0.218465,-0.01 -0.375194,-0.019 -0.470174,-0.029 -0.189969,-0.01 -0.408434,-0.014 -0.655391,-0.015 -0.05697,0 -0.113983,0 -0.170971,0 -0.05698,-0.01 -0.09024,-0.015 -0.09973,-0.015 -0.389436,-0.019 -0.584158,-0.1901 -0.584151,-0.513 l 0,-0.5699 2.464846,0 12.366976,0 0,1.2253 0,3.0348 -0.712385,0 c -0.389457,0 -0.598421,-0.2375 -0.626899,-0.7125 -0.04754,-0.8738 -0.0855,-1.648 -0.113983,-2.3223 l -9.41771,0 0,8.3491 8.220908,0 0,1.2111 -8.220908,0 0,8.6056 9.41771,0 c -1.3e-5,-0.057 0.0044,-0.1425 0.01427,-0.2564 0.0095,-0.1235 0.01895,-0.247 0.02852,-0.3705 0.0095,-0.1329 0.0142,-0.2613 0.01426,-0.3847 0.01895,-0.4275 0.03321,-0.7409 0.04273,-0.9404 0.0095,-0.1329 0.01419,-0.2565 0.01427,-0.3704 0.02846,-0.4749 0.237442,-0.7124 0.626898,-0.7124 l 0.712385,0 0,3.0348 0,1.2395 -12.366974,0 -2.464848,0" />
    <path
       inkscape:connector-curvature="0"
       id="path3018"
       style="font-size:46.0357132px;font-style:normal;font-variant:normal;font-weight:bold;font-stretch:normal;line-height:125%;letter-spacing:0px;word-spacing:0px;fill:#f2b33f;fill-opacity:1;stroke:none;font-family:Aleo;-inkscape-font-specification:Aleo Bold"
       d="m 77.837335,1039.8948 0,-1.7097 c 0,-0.5129 0.242211,-0.8168 0.726634,-0.9118 0.04745,-0.019 0.109228,-0.034 0.185216,-0.043 0.019,0 0.05225,0 0.09974,-0.015 0.04745,-0.01 0.09973,-0.019 0.156725,-0.028 0.05698,-0.01 0.11873,-0.019 0.185222,-0.029 0.06648,-0.01 0.194714,-0.029 0.384682,-0.057 0.189968,-0.038 0.346693,-0.072 0.470174,-0.1 l 0,-15.3162 c -0.132979,-0.028 -0.294456,-0.057 -0.484417,-0.086 -0.180471,-0.028 -0.303958,-0.047 -0.370439,-0.057 -0.237465,-0.047 -0.384693,-0.076 -0.441683,-0.086 -0.01899,0 -0.04272,0 -0.07124,0 -0.02852,-0.01 -0.05225,-0.014 -0.07123,-0.015 -0.01899,-0.01 -0.03319,-0.014 -0.04273,-0.015 -0.484423,-0.095 -0.726635,-0.3989 -0.726635,-0.9118 l 0,-1.724 2.208389,0 7.736483,0 c 1.605229,0 3.05849,0.2612 4.359784,0.7837 1.31078,0.5319 2.43634,1.2585 3.37671,2.1798 0.94032,0.9214 1.66694,2.0326 2.17989,3.334 0.51289,1.3013 0.76935,2.7212 0.76938,4.2601 -3e-5,1.5388 -0.25649,2.9587 -0.76938,4.26 -0.50344,1.2728 -1.23008,2.3841 -2.17989,3.334 -0.94037,0.9403 -2.06593,1.667 -3.37671,2.1798 -1.310795,0.513 -2.764056,0.7695 -4.359784,0.7695 l -7.736483,0 -2.208389,0 m 6.169242,-3.1203 3.77563,0 c 1.025825,0 1.951926,-0.171 2.7783,-0.5129 0.835853,-0.3419 1.533974,-0.8312 2.094404,-1.4675 0.57939,-0.6459 1.02107,-1.4248 1.32503,-2.3367 0.31344,-0.9309 0.47016,-1.9661 0.47018,-3.1059 -2e-5,-1.1589 -0.15674,-2.1989 -0.47018,-3.1203 -0.30396,-0.9118 -0.74564,-1.6907 -1.32503,-2.3366 -0.56043,-0.6364 -1.258551,-1.1256 -2.094404,-1.4675 -0.826374,-0.3419 -1.752475,-0.5129 -2.7783,-0.5129 l -3.77563,0 0,14.8603" />
    <path
       inkscape:connector-curvature="0"
       id="path3020"
       style="font-size:46.0357132px;font-style:normal;font-variant:normal;font-weight:bold;font-stretch:normal;line-height:125%;letter-spacing:0px;word-spacing:0px;fill:#f2b33f;fill-opacity:1;stroke:none;font-family:Aleo;-inkscape-font-specification:Aleo Bold"
       d="m 99.32282,1029.3516 c 0,-1.5578 0.25645,-2.992 0.76937,-4.3028 0.50342,-1.3013 1.23004,-2.4412 2.17988,-3.4194 0.93085,-0.9594 2.06117,-1.7098 3.39096,-2.2512 1.32977,-0.5414 2.78304,-0.812 4.35978,-0.8121 1.59573,10e-5 3.04899,0.2707 4.35979,0.8121 1.30127,0.5414 2.42683,1.2918 3.37669,2.2512 0.93083,0.9498 1.65746,2.0896 2.1799,3.4194 0.51289,1.3297 0.76935,2.764 0.76937,4.3028 -2e-5,1.5387 -0.25648,2.9682 -0.76937,4.2885 -0.50344,1.3013 -1.23007,2.4411 -2.1799,3.4195 -0.94036,0.9688 -2.06593,1.724 -3.37669,2.2654 -1.29181,0.5319 -2.74506,0.7979 -4.35979,0.7979 -1.60525,0 -3.0585,-0.266 -4.35978,-0.7979 -1.3203,-0.5414 -2.4506,-1.2966 -3.39096,-2.2654 -0.94984,-0.9784 -1.67646,-2.1182 -2.17988,-3.4195 -0.51292,-1.3203 -0.76937,-2.7498 -0.76937,-4.2885 m 4.00359,0 c 0,1.1398 0.15672,2.1751 0.47018,3.1059 0.31344,0.9214 0.75986,1.7003 1.33928,2.3366 0.57939,0.6364 1.28228,1.1256 2.10865,1.4676 0.82635,0.3419 1.75245,0.5129 2.77829,0.5129 1.02582,0 1.95192,-0.171 2.77829,-0.5129 0.83586,-0.342 1.53399,-0.8312 2.09442,-1.4676 0.57937,-0.6458 1.02106,-1.4247 1.32502,-2.3366 0.30394,-0.9023 0.45591,-1.9376 0.45593,-3.1059 -2e-5,-1.1779 -0.15199,-2.2179 -0.45593,-3.1203 -0.30396,-0.9118 -0.74565,-1.6906 -1.32502,-2.3366 -0.57943,-0.6459 -1.27757,-1.1398 -2.09442,-1.4817 -0.82637,-0.3419 -1.75247,-0.513 -2.77829,-0.513 -1.02584,0 -1.95194,0.1711 -2.77829,0.513 -0.80738,0.3324 -1.51026,0.8264 -2.10865,1.4817 -0.57942,0.6364 -1.02584,1.4153 -1.33928,2.3366 -0.31346,0.9213 -0.47018,1.9615 -0.47018,3.1203" />
    <path
       inkscape:connector-curvature="0"
       id="path3022"
       style="font-size:46.0357132px;font-style:normal;font-variant:normal;font-weight:bold;font-stretch:normal;line-height:125%;letter-spacing:0px;word-spacing:0px;fill:#f2b33f;fill-opacity:1;stroke:none;font-family:Aleo;-inkscape-font-specification:Aleo Bold"
       d="m 121.54918,1029.3516 c 0,-1.6053 0.2612,-3.0585 0.78361,-4.3599 0.52242,-1.3107 1.2633,-2.4458 2.22265,-3.4051 0.94983,-0.9594 2.08965,-1.7003 3.41944,-2.2226 1.33927,-0.532 2.80203,-0.7978 4.38827,-0.7979 1.7572,10e-5 3.96558,0.5082 6.62516,1.5245 l 0,5.3714 -1.68122,0 c -0.37995,0 -0.60791,-0.1805 -0.68389,-0.5415 -0.0476,-0.2943 -0.13299,-1.0637 -0.25645,-2.308 -1.61475,-0.475 -2.95878,-0.7125 -4.03209,-0.7125 -0.97835,0 -1.89021,0.1757 -2.73556,0.5272 -0.81686,0.342 -1.52925,0.8359 -2.13714,1.4817 -0.58891,0.6269 -1.05433,1.4059 -1.39626,2.3366 -0.34196,0.931 -0.51293,1.9662 -0.51293,3.1061 0,1.1778 0.17097,2.2321 0.51293,3.1629 0.35142,0.9498 0.8026,1.7288 1.35351,2.3366 0.56991,0.6269 1.24904,1.1114 2.03742,1.4533 0.75987,0.3324 1.59573,0.4987 2.50758,0.4987 0.5414,0 1.02582,-0.028 1.45328,-0.086 0.40842,-0.057 0.80734,-0.152 1.19679,-0.2849 0.35145,-0.1235 0.69338,-0.2851 1.02584,-0.4845 0.31343,-0.1899 0.63637,-0.4369 0.96884,-0.7409 0.076,-0.066 0.18045,-0.1377 0.31345,-0.2137 0.095,-0.047 0.20895,-0.072 0.34195,-0.072 0.21844,10e-5 0.40365,0.081 0.55565,0.2423 l 1.553,1.6811 c -0.85488,1.0545 -1.90921,1.8665 -3.16298,2.4365 -1.23483,0.5604 -2.73557,0.8406 -4.50227,0.8406 -1.57675,0 -2.98252,-0.266 -4.21732,-0.7979 -1.26328,-0.5414 -2.33186,-1.287 -3.20571,-2.2369 -0.89286,-0.9689 -1.572,-2.1039 -2.03742,-3.4052 -0.46542,-1.3107 -0.69813,-2.7545 -0.69813,-4.3313" />
    <path
       inkscape:connector-curvature="0"
       id="path3024"
       style="font-size:46.0357132px;font-style:normal;font-variant:normal;font-weight:bold;font-stretch:normal;line-height:125%;letter-spacing:0px;word-spacing:0px;fill:#f2b33f;fill-opacity:1;stroke:none;font-family:Aleo;-inkscape-font-specification:Aleo Bold"
       d="m 140.22786,1039.0115 0,-0.5272 0,-4.9012 0.12824,0 0.34194,0 1.21104,0 c 0.37045,0 0.59365,0.1805 0.66964,0.5414 0.0664,0.4275 0.15673,1.2301 0.27071,2.4079 0.83586,0.2565 2.16564,0.3847 3.98935,0.3847 1.11131,0 1.97567,-0.266 2.59307,-0.7979 0.6079,-0.5224 0.91185,-1.2822 0.91185,-2.2796 0,-0.5414 -0.13773,-0.9926 -0.41317,-1.3535 -0.25648,-0.3325 -0.62216,-0.627 -1.09708,-0.8834 -0.42743,-0.228 -0.94985,-0.4322 -1.56725,-0.6127 -1.09233,-0.3229 -1.68596,-0.4986 -1.78095,-0.5271 -0.57941,-0.1899 -1.17307,-0.4275 -1.78096,-0.7124 -0.5984,-0.2754 -1.11606,-0.627 -1.55299,-1.0543 -0.45592,-0.4465 -0.82162,-0.9974 -1.09708,-1.6528 -0.28495,-0.6933 -0.42742,-1.5008 -0.42742,-2.4221 0,-0.7788 0.15671,-1.5291 0.47017,-2.2512 0.28495,-0.7027 0.73138,-1.3487 1.33928,-1.9376 0.56041,-0.5508 1.28228,-1.002 2.16565,-1.3535 0.85485,-0.3419 1.8332,-0.5128 2.93502,-0.5129 2.07064,10e-5 4.08907,0.3989 6.05525,1.1968 l 0,5.3998 -0.12823,0 -0.35619,0 -1.1968,0 c -0.37996,10e-5 -0.60791,-0.1804 -0.68389,-0.5414 -0.0475,-0.2754 -0.13298,-1.0637 -0.25645,-2.3651 -0.7504,-0.3323 -1.88071,-0.4987 -3.39096,-0.4987 -0.53191,0 -1.00683,0.066 -1.42476,0.1996 -0.40844,0.1329 -0.75038,0.3134 -1.02583,0.5414 -0.25646,0.2184 -0.46068,0.4986 -0.61265,0.8406 -0.14248,0.3229 -0.21371,0.6839 -0.21371,1.0827 0,0.4845 0.14247,0.8977 0.42742,1.2396 0.27545,0.3325 0.64114,0.6127 1.09707,0.8406 0.47493,0.2375 0.99733,0.4464 1.56726,0.6269 0.4844,0.152 1.07804,0.3515 1.78095,0.5985 0.56989,0.1994 1.16354,0.4416 1.78095,0.7266 0.60789,0.2754 1.13031,0.6221 1.56724,1.04 0.45592,0.4274 0.82162,0.9499 1.09707,1.5673 0.27545,0.6269 0.41318,1.3678 0.41318,2.2226 0,0.9689 -0.16147,1.8617 -0.48441,2.6785 -0.34195,0.8549 -0.81688,1.5816 -1.42477,2.18 -0.63639,0.6174 -1.40103,1.1018 -2.29387,1.4533 -0.88336,0.3514 -1.92344,0.5272 -3.12023,0.5272 l -0.42744,0 c -1.87119,0 -3.88961,-0.3705 -6.05526,-1.1114" />
    <path
       style="fill:#f1f1f1;fill-opacity:1;stroke:none"
       d="m 163.55589,1052.36 0,-90 3.31679,0 0,90 z"
       id="rect3869"
       inkscape:connector-curvature="0" />
    <text
       transform="matrix(0,-1,1,0,0,0)"
       sodipodi:linespacing="125%"
       id="text3874"
       y="213.78075"
       x="-1041.7129"
       style="font-size:48.24064255px;font-style:normal;font-variant:normal;font-weight:normal;font-stretch:normal;line-height:125%;letter-spacing:0px;word-spacing:0px;fill:#363948;fill-opacity:1;stroke:#363948;stroke-width:0.94367152;stroke-opacity:1;font-family:Sans;-inkscape-font-specification:Aleo Bold"
       xml:space="preserve"><tspan
         style="font-style:normal;font-variant:normal;font-weight:normal;font-stretch:normal;fill:#363948;fill-opacity:1;stroke:#363948;stroke-width:0.94367152;stroke-opacity:1;font-family:Aleo;-inkscape-font-specification:Aleo"
         y="213.78075"
         x="-1041.7129"
         id="tspan3876"
         sodipodi:role="line"
         dx="0 2.6611531">EU</tspan></text>
  </g>
</svg>
