<svg width="100%" height="100%" viewBox="0 0 660 417" fill="none" xmlns="http://www.w3.org/2000/svg">
  <defs>
    <style type="text/css">
      <![CDATA[
        @import url(/_static/css/survey-2022-svg.css);
      ]]>
    </style>
    
  </defs>
  <title>Respondent location - area type (2022)</title>
  <desc>Donut chart showing the area type that respondents live in: city/high density, suburban/semi-dense, or rural/low density.</desc>

	<g class="donut-chart">
		<g class="data">
			<path d="M499.104 298.817C481.424 329.412 455.664 354.55 424.646 371.477C393.628 388.403 358.549 396.466 323.254 394.781C287.958 393.096 253.807 381.728 224.543 361.924C195.278 342.119 172.03 314.641 157.345 282.501C142.659 250.362 137.104 214.8 141.287 179.712C145.47 144.625 159.23 111.365 181.06 83.5788C202.889 55.7921 231.946 34.5501 265.046 22.1803C298.146 9.81048 334.012 6.7901 368.715 13.4501L350.574 107.975C333.223 104.645 315.29 106.155 298.74 112.34C282.19 118.525 267.661 129.146 256.746 143.039C245.832 156.933 238.951 173.562 236.86 191.106C234.768 208.65 237.546 226.431 244.889 242.501C252.232 258.571 263.856 272.309 278.488 282.212C293.12 292.114 310.196 297.798 327.843 298.641C345.491 299.483 363.031 295.452 378.54 286.988C394.049 278.525 406.929 265.956 415.769 250.658L499.104 298.817Z" class="one-of-three"/>
			<path d="M368.904 13.4863C415.708 22.5173 457.497 48.5925 486.18 86.6638C514.864 124.735 528.402 172.095 524.174 219.574L428.304 211.037C430.418 187.297 423.649 163.618 409.307 144.582C394.965 125.546 374.07 112.509 350.668 107.993L368.904 13.4863Z" class="two-of-three"/>
			<path d="M524.157 219.766C521.655 247.547 513.146 274.452 499.218 298.619L415.826 250.559C422.79 238.476 427.044 225.023 428.295 211.133L524.157 219.766Z" class="three-of-three"/>	
		</g>
		<g class="connectors">
			<path d="M179.663 364.409C184.572 363.46 205.747 348.373 207.376 347.212L209.005 346.052" class="one-of-three"/>
			<path d="M511.28 86.5645C506.28 86.5645 485.504 102.197 483.906 103.4L482.308 104.602" class="two-of-three"/>
			<path d="M532.919 264.061C527.919 264.061 503.134 256.208 501.227 255.604L499.32 255" class="three-of-three"/>
		</g>
		<g class="value-labels">
			<text><tspan x="56.8086" y="367.884">City / high density</tspan><tspan x="94.7617" y="383.884">69.7%</tspan></text>
			<text><tspan x="525.165" y="79.8843">Suburban /</tspan><tspan x="525.302" y="95.8843">semi-dense</tspan><tspan x="541.161" y="111.884">23.4%</tspan></text>
			<text><tspan x="545.868" y="272.884">Rural /</tspan><tspan x="533.071" y="288.884">low density</tspan><tspan x="552.642" y="304.884">6.9%</tspan></text>
		</g>
	</g>
</svg>