<svg width="100%" height="100%" viewBox="0 0 660 417" fill="none" xmlns="http://www.w3.org/2000/svg">
  <defs>
    <style type="text/css">
      <![CDATA[
        @import url(/_static/css/survey-2021-svg.css);
      ]]>
    </style>
    
  </defs>
  <title>Work location (affected by COVID-19)</title>
  <desc>Two donut charts showing work location, pre-COVID-19 and currently, for respondents who indicated that their workplace had been affected by the pandemic.</desc> 
 
	<g class="legend">
		<g class="labels-five">
			<text><tspan x="366.561" y="42">On-site (required)</tspan></text>
			<text><tspan x="228.469" y="42">Partial</tspan></text>
			<text><tspan x="488.393" y="19">On-site (not required)</tspan></text>
			<text><tspan x="280.684" y="19">Remote (not required)</tspan></text>
			<text><tspan x="89.8516" y="19">Remote (required)</tspan></text>
		</g>
		<path d="M352 39C352 40.3261 352.527 41.5979 353.464 42.5355C354.402 43.4732 355.674 44 357 44C358.326 44 359.598 43.4732 360.536 42.5355C361.473 41.5979 362 40.3261 362 39C362 37.6739 361.473 36.4021 360.536 35.4645C359.598 34.5268 358.326 34 357 34C355.674 34 354.402 34.5268 353.464 35.4645C352.527 36.4021 352 37.6739 352 39Z" fill="#1E73BE"/>
		<path d="M214 39C214 40.3261 214.527 41.5979 215.464 42.5355C216.402 43.4732 217.674 44 219 44C220.326 44 221.598 43.4732 222.536 42.5355C223.473 41.5979 224 40.3261 224 39C224 37.6739 223.473 36.4021 222.536 35.4645C221.598 34.5268 220.326 34 219 34C217.674 34 216.402 34.5268 215.464 35.4645C214.527 36.4021 214 37.6739 214 39Z" fill="#7271C9"/>
		<path d="M474 16C474 17.3261 474.527 18.5979 475.464 19.5355C476.402 20.4732 477.674 21 479 21C480.326 21 481.598 20.4732 482.536 19.5355C483.473 18.5979 484 17.3261 484 16C484 14.6739 483.473 13.4021 482.536 12.4645C481.598 11.5268 480.326 11 479 11C477.674 11 476.402 11.5268 475.464 12.4645C474.527 13.4021 474 14.6739 474 16Z" fill="#D761B6"/>
		<path d="M266 16C266 17.3261 266.527 18.5979 267.464 19.5355C268.402 20.4732 269.674 21 271 21C272.326 21 273.598 20.4732 274.536 19.5355C275.473 18.5979 276 17.3261 276 16C276 14.6739 275.473 13.4021 274.536 12.4645C273.598 11.5268 272.326 11 271 11C269.674 11 268.402 11.5268 267.464 12.4645C266.527 13.4021 266 14.6739 266 16Z" fill="#FF6478"/>
		<path d="M75 16C75 17.3261 75.5268 18.5979 76.4645 19.5355C77.4021 20.4732 78.6739 21 80 21C81.3261 21 82.5979 20.4732 83.5355 19.5355C84.4732 18.5979 85 17.3261 85 16C85 14.6739 84.4732 13.4021 83.5355 12.4645C82.5979 11.5268 81.3261 11 80 11C78.6739 11 77.4021 11.5268 76.4645 12.4645C75.5268 13.4021 75 14.6739 75 16Z" fill="#FFA600"/>
	</g>

	<g class="donut-chart left">
		<g class="data">
			<path d="M167.468 64C208.168 63.9917 247.291 79.7394 276.636 107.942C305.982 136.144 323.27 174.612 324.877 215.28C326.484 255.949 312.286 295.661 285.258 326.091C258.23 356.522 220.471 375.308 179.897 378.511L173.699 300.006C193.986 298.404 212.865 289.011 226.379 273.796C239.893 258.58 246.992 238.724 246.188 218.39C245.385 198.056 236.741 178.822 222.068 164.721C207.396 150.62 187.834 142.746 167.484 142.75L167.468 64Z" fill="#1E73BE" stroke="white" stroke-width="2"/>
			<path d="M179.741 378.524C146.356 381.126 113.011 373.021 84.5462 355.384C56.0814 337.747 33.9785 311.497 21.4463 280.445L94.4732 250.973C100.739 266.499 111.791 279.624 126.023 288.442C140.256 297.26 156.928 301.313 173.62 300.012L179.741 378.524Z" fill="#7271C9" stroke="white" stroke-width="2"/>
			<path d="M21.3873 280.299C6.45188 243.185 6.1996 201.779 20.6817 164.486L94.0908 192.993C86.8498 211.639 86.9759 232.343 94.4436 250.9L21.3873 280.299Z" fill="#D761B6" stroke="white" stroke-width="2"/>
			<path d="M20.7388 164.339C34.4108 129.236 60.2118 100.196 93.4614 82.4873L130.481 151.994C113.856 160.848 100.955 175.368 94.1194 192.919L20.7388 164.339Z" fill="#FF6478" stroke="white" stroke-width="2"/>
			<path d="M93.6006 82.4134C116.291 70.3574 141.587 64.0359 167.281 64.0002L167.391 142.75C154.544 142.768 141.896 145.929 130.55 151.957L93.6006 82.4134Z" fill="#FFA600" stroke="white" stroke-width="2"/>
		</g>
		<g class="pie-labels">
			<text><tspan x="117.457" y="403.422">Pre-COVID-19</tspan></text>
		</g>
	</g>

	<g class="donut-chart right">
		<g class="data">
			<path d="M492.468 64C530.749 63.9922 567.723 77.9271 596.477 103.199C625.231 128.472 643.796 163.351 648.701 201.317C653.607 239.283 644.517 277.736 623.132 309.486C601.746 341.237 569.528 364.113 532.502 373.835L512.501 297.668C531.014 292.806 547.123 281.369 557.816 265.493C568.509 249.618 573.053 230.391 570.601 211.408C568.148 192.426 558.865 174.986 544.488 162.35C530.111 149.714 511.625 142.746 492.484 142.75L492.468 64Z" fill="#FF6478" stroke="white" stroke-width="2"/>
			<path d="M532.35 373.875C504.845 381.068 475.906 380.683 448.603 372.759C421.299 364.835 396.65 349.669 377.269 328.869C357.888 308.069 344.499 282.411 338.521 254.616C332.543 226.822 334.2 197.928 343.316 170.999L417.908 196.249C413.35 209.714 412.522 224.161 415.51 238.058C418.499 251.955 425.194 264.784 434.884 275.184C444.575 285.584 456.9 293.168 470.551 297.129C484.203 301.091 498.673 301.284 512.425 297.688L532.35 373.875Z" fill="#7271C9" stroke="white" stroke-width="2"/>
			<path d="M343.367 170.85C351.45 147.05 365.112 125.53 383.211 108.089C401.31 90.6473 423.321 77.7911 447.404 70.5942L469.952 146.047C457.911 149.646 446.905 156.074 437.856 164.794C428.806 173.515 421.975 184.275 417.933 196.175L343.367 170.85Z" fill="#FFA600" stroke="white" stroke-width="2"/>
			<path d="M447.555 70.5491C456.467 67.8956 465.596 66.0365 474.836 64.9937L483.668 143.247C479.048 143.768 474.483 144.698 470.027 146.025L447.555 70.5491Z" fill="#1E73BE" stroke="white" stroke-width="2"/>
			<path d="M474.993 64.9759C480.733 64.3338 486.505 64.008 492.281 64L492.391 142.75C489.503 142.754 486.617 142.917 483.746 143.238L474.993 64.9759Z" fill="#D761B6" stroke="white" stroke-width="2"/>
		</g>
		<g class="pie-labels">
			<text><tspan x="465.631" y="403.422">Current</tspan></text>
		</g>
	</g>

</svg>