<svg width="100%" height="100%" viewBox="0 0 660 405" fill="none" xmlns="http://www.w3.org/2000/svg">
  <defs>
    <style type="text/css">
      <![CDATA[
        @import url(/_static/css/survey-2022-svg.css);
      ]]>
    </style>
    
  </defs>
  <title>Chart title (2022)</title>
  <desc>Donut chart showing ...</desc>
 
		<g class="donut-chart">
		<g class="data">
			<path d="M463.353 326.217C436.108 358.695 398.904 381.271 357.515 390.442C316.126 399.612 272.868 394.864 234.454 376.934C196.04 359.004 164.619 328.895 145.068 291.28C125.517 253.665 118.929 210.649 126.327 168.907L221.1 185.703C217.401 206.574 220.695 228.083 230.47 246.89C240.246 265.697 255.956 280.752 275.163 289.717C294.37 298.682 316 301.056 336.694 296.471C357.388 291.886 375.99 280.597 389.613 264.358L463.353 326.217Z" fill="#FF6478" stroke="white" stroke-width="2"/>
			<path d="M126.36 168.717C131.187 141.641 141.76 115.912 157.367 93.2656C172.974 70.6189 193.253 51.5794 216.837 37.4296C240.422 23.2798 266.765 14.3481 294.092 11.2362C321.419 8.12425 349.096 10.9043 375.258 19.3891L345.566 110.945C332.484 106.702 318.646 105.312 304.983 106.868C291.319 108.424 278.147 112.89 266.355 119.965C254.563 127.04 244.423 136.559 236.62 147.883C228.816 159.206 223.53 172.07 221.117 185.609L126.36 168.717Z" fill="#FFA600" stroke="white" stroke-width="2"/>
			<path d="M375.441 19.4487C423.552 35.1049 463.565 69.0725 486.825 114.003C510.084 158.934 514.72 211.215 499.729 259.538L407.801 231.019C415.296 206.858 412.979 180.717 401.349 158.252C389.719 135.786 369.713 118.803 345.657 110.974L375.441 19.4487Z" fill="#7271C9" stroke="white" stroke-width="2"/>
			<path d="M499.672 259.721C495.357 273.582 489.487 286.911 482.176 299.452L399.024 250.976C402.68 244.705 405.615 238.041 407.772 231.111L499.672 259.721Z" fill="#1E73BE" stroke="white" stroke-width="2"/>
			<path d="M482.078 299.618C476.637 308.931 470.422 317.77 463.499 326.042L389.686 264.271C393.147 260.135 396.255 255.716 398.976 251.059L482.078 299.618Z" fill="#D761B6" stroke="white" stroke-width="2"/>
		</g>
		<g class="connectors">
			<path d="M154.483 48.3403C159.483 48.3403 172.843 70.6454 173.87 72.3611L174.898 74.0769" stroke="#FFA600"/>
			<path d="M487.277 60.6133C482.277 60.6133 459.177 72.5462 457.4 73.4641L455.623 74.3821" stroke="#7271C9"/>
			<path d="M516.07 270.87C511.07 270.87 479.843 283.328 478.014 282.521L476.184 281.714" stroke="#1E73BE"/>
			<path d="M488.427 341.278C483.668 342.812 471.965 306.748 470.055 306.154L468.146 305.56" stroke="#D761B6"/>
			<path d="M168.598 368.176C173.598 368.176 184.611 344.623 185.458 342.812L186.305 341" stroke="#FF6478"/>
		</g>
		<g class="value-labels">
			<text><tspan x="515.536" y="328.582">On-site</tspan><tspan x="491.599" y="346.582">(not required)</tspan>
			<tspan x="524.458" y="364.582">2.7%</tspan></text>
			<text><tspan x="85.0234" y="354.582">Remote</tspan><tspan x="62.4531" y="372.582">(not required)</tspan><tspan x="91.8203" y="390.582">41.7%</tspan></text>
			<text><tspan x="85.0938" y="34.582">Remote</tspan><tspan x="78.1875" y="52.582">(required)</tspan><tspan x="92.8438" y="70.582">27.2%</tspan></text>
			<text><tspan x="496.375" y="63.582">Partial</tspan><tspan x="497.539" y="81.582">24.8%</tspan></text>
			<text><tspan x="532.891" y="255.582">On-site</tspan><tspan x="520.188" y="273.582">(required)</tspan><tspan x="541.359" y="291.582">3.6%</tspan></text>
		</g>
	</g>

</svg>