<svg width="100%" height="100%" viewBox="0 0 660 417" fill="none" xmlns="http://www.w3.org/2000/svg">
  <defs>
    <style type="text/css">
      <![CDATA[
        @import url(/_static/css/survey-2022-svg.css);
      ]]>
    </style>
    
  </defs>
  <title>Pay transparency support (2022)</title>
  <desc>Donut chart showing level of personal support for pay transparency among respondents.</desc>
 
	<g class="donut-chart">
		<g class="data">
			<path d="M453.69 350.005C418.625 379.408 374.232 395.358 328.472 394.994C282.712 394.63 238.578 377.976 203.985 348.019C169.392 318.061 146.602 276.761 139.703 231.522C132.804 186.284 142.246 140.067 166.337 101.16L248.17 151.83C236.125 171.283 231.403 194.392 234.853 217.011C238.303 239.63 249.697 260.281 266.994 275.259C284.29 290.238 306.357 298.565 329.237 298.747C352.117 298.929 374.314 290.954 391.846 276.252L453.69 350.005Z" class="strongly-support" />
			<path d="M166.438 100.997C182.809 74.6172 205.317 52.5884 232.043 36.7894C258.768 20.9904 288.919 11.8899 319.923 10.2641C350.926 8.63839 381.863 14.5356 410.095 27.4529C438.327 40.3701 463.015 59.924 482.055 84.4469L406.029 143.473C396.509 131.212 384.165 121.435 370.049 114.976C355.933 108.518 340.465 105.569 324.963 106.382C309.461 107.195 294.386 111.745 281.023 119.645C267.66 127.544 256.406 138.559 248.221 151.748L166.438 100.997Z" class="support" />
			<path d="M482.173 84.5986C507.542 117.341 521.673 157.394 522.468 198.807C523.262 240.22 510.678 280.785 486.583 314.477L408.293 258.488C420.34 241.642 426.633 221.36 426.235 200.653C425.838 179.947 418.772 159.921 406.088 143.549L482.173 84.5986Z" class="neutral"/>
			<path d="M486.471 314.633C479.477 324.393 471.584 333.478 462.897 341.768L396.45 272.134C400.793 267.989 404.74 263.447 408.237 258.566L486.471 314.633Z" class="oppose"/>
			<path d="M462.757 341.901C459.876 344.644 456.911 347.298 453.865 349.858L391.934 276.179C393.457 274.899 394.94 273.572 396.38 272.2L462.757 341.901Z" class="strongly-oppose"/>
		</g>
		<g class="connectors">
			<path d="M170.024 356.669C175.024 356.669 192.054 337.023 193.364 335.511L194.674 334" class="strongly-support"/>
			<path d="M204.769 29.6543C209.769 29.6543 211.11 55.6197 211.213 57.617L211.317 59.6143" class="support"/>
			<path d="M545.748 143.336C540.748 143.336 514.752 143.821 512.753 143.858L510.753 143.896" class="neutral"/>
			<path d="M502.433 332.234C497.555 333.329 470.882 328.675 469.122 327.725L467.362 326.775" class="oppose"/>
			<path d="M470.191 365.042C465.191 365.042 456.052 338.982 454.719 337.491L453.386 336" class="strongly-oppose"/>
		</g>
		<g class="value-labels">
			<text><tspan x="69.5459" y="362.187">Strongly support&#10;</tspan><tspan x="102.61" y="376.187">45%</tspan></text>
			<text><tspan x="144.493" y="27.1865">Support</tspan><tspan x="150.851" y="41.1865">30.7%</tspan></text>
			<text><tspan x="550.19" y="147.187">Neutral</tspan><tspan x="553.472" y="161.187">20.4%</tspan></text>
			<text><tspan x="506.949" y="334.187">Oppose</tspan><tspan x="518.785" y="348.187">3%</tspan></text>
			<text><tspan x="475.82" y="371.187">Strongly oppose</tspan><tspan x="511.018" y="385.187">1%</tspan></text>
		</g>
	</g>

</svg>