<svg width="100%" height="100%" viewBox="0 0 660 405" fill="none" xmlns="http://www.w3.org/2000/svg">
  <defs>
    <style type="text/css">
      <![CDATA[
        @import url(/_static/css/survey-2022-svg.css);
      ]]>
    </style>
    
  </defs>
  <title>Gender identity (2022)</title>
  <desc>Donut chart showing respondent gender identity.</desc>

	<g class="donut-chart">
		<g class="data">
			<path d="M466.821 298.817C452.251 324.029 432.152 345.607 408.035 361.927C383.919 378.247 356.414 388.883 327.593 393.034C298.771 397.185 269.383 394.744 241.641 385.893C213.899 377.042 188.527 362.013 167.434 341.938C146.342 321.862 130.079 297.263 119.869 269.992C109.66 242.721 105.77 213.489 108.494 184.497C111.217 155.506 120.482 127.51 135.591 102.617C150.7 77.7243 171.26 56.5838 195.722 40.7871L247.936 121.644C235.705 129.542 225.425 140.112 217.871 152.559C210.316 165.005 205.683 179.003 204.322 193.499C202.96 207.995 204.905 222.61 210.01 236.246C215.114 249.881 223.246 262.181 233.792 272.219C244.338 282.257 257.025 289.771 270.895 294.197C284.766 298.622 299.46 299.843 313.871 297.767C328.282 295.691 342.034 290.373 354.093 282.214C366.151 274.054 376.201 263.265 383.486 250.659L466.821 298.817Z" class="one-of-four"/>
			<path d="M195.884 40.6828C229.942 18.7376 270.056 8.09807 310.513 10.2792C350.97 12.4604 389.708 27.3511 421.209 52.8308C452.71 78.3104 475.369 113.08 485.959 152.187C496.548 191.295 494.528 232.747 480.187 270.64L390.168 236.57C397.339 217.624 398.349 196.898 393.054 177.344C387.76 157.79 376.43 140.405 360.679 127.665C344.929 114.926 325.56 107.48 305.331 106.39C285.103 105.299 265.046 110.619 248.017 121.591L195.884 40.6828Z" class="two-of-four"/>
			<path d="M480.118 270.82C477.066 278.862 473.477 286.69 469.378 294.251L384.764 248.376C386.814 244.595 388.608 240.681 390.134 236.66L480.118 270.82Z" class="three-of-four"/>
			<path d="M469.286 294.42C468.52 295.829 467.736 297.229 466.935 298.619L383.542 250.56C383.943 249.865 384.335 249.165 384.718 248.46L469.286 294.42Z" class="four-of-four"/>
		</g>
		<g class="connectors">
			<path d="M134.852 330.728C139.852 330.728 157.779 311.897 159.158 310.449L160.537 309" class="one-of-four"/>
			<path d="M440.581 40.5019C435.783 39.0931 414.39 53.8698 412.745 55.0065L411.099 56.1432" class="two-of-four"/>
			<path d="M510.385 276.77C504.807 277.951 474.018 283.232 471.817 282.845L469.617 282.457" class="three-of-four"/>
			<path d="M491.967 320.309C486.967 320.309 470.573 297.955 468.828 296.978L467.083 296" class="four-of-four"/>
		</g>
		<g class="value-labels">
			<text><tspan x="73.4517" y="333.884">Woman</tspan><tspan x="78.6538" y="349.884">56.4%</tspan></text>
			<text><tspan x="452.226" y="40.8843">Man</tspan><tspan x="447.94" y="56.8843">39.1%</tspan></text>
			<text><tspan x="514.762" y="279.884">Non-binary</tspan><tspan x="536.09" y="295.884">2.1%</tspan></text>
			<text><tspan x="499.659" y="325.884">Other</tspan><tspan x="501.75" y="341.884">0.4%</tspan></text>
		</g>
	</g>
</svg>