<svg width="100%" height="100%" viewBox="0 0 660 439" fill="none" xmlns="http://www.w3.org/2000/svg">

<defs>
  <style type="text/css">
    <![CDATA[
    	@import url(/_static/css/survey-2021-svg.css);
    ]]>
  </style>
</defs>

<title>Team breakdown (2022)</title>
<desc>DDonut chart showing team breakdown: whether respondents worked solo (15.4%), as part of a team (45.3%), as part of multiple teams (21.9%), as a team leader (16.2%), or some other configuration (1.1%).</desc>
	
<g class="donut-chart">
	<g class="data">
		<path d="M337.4 44.1862C378.768 44.1778 418.761 59.0395 450.084 86.0609C481.408 113.082 501.975 150.463 508.034 191.384C514.093 232.306 505.241 274.043 483.092 308.982C460.943 343.921 426.973 369.734 387.377 381.714L362.406 299.179C382.204 293.189 399.189 280.283 410.264 262.813C421.338 245.344 425.764 224.476 422.735 204.015C419.705 183.554 409.422 164.863 393.76 151.353C378.098 137.842 358.102 130.411 337.418 130.415L337.4 44.1862Z" fill="#1E73BE" stroke="white" stroke-width="2"/>
		<path d="M387.212 381.763C348.939 393.301 307.846 391.185 270.96 375.776C234.074 360.368 203.687 332.624 184.994 297.289L261.215 256.967C270.561 274.634 285.755 288.506 304.198 296.211C322.64 303.915 343.187 304.973 362.324 299.204L387.212 381.763Z" fill="#7271C9" stroke="white" stroke-width="2"/>
		<path d="M184.913 297.137C171.182 271.118 164.336 242.02 165.024 212.608C165.713 183.197 173.914 154.451 188.847 129.103L263.141 172.874C255.675 185.548 251.574 199.921 251.23 214.626C250.885 229.332 254.309 243.881 261.174 256.891L184.913 297.137Z" fill="#D761B6" stroke="white" stroke-width="2"/>
		<path d="M188.935 128.955C203.137 104.904 222.968 84.6628 246.722 69.9713C270.477 55.2798 297.445 46.5776 325.306 44.6133L331.371 130.629C317.44 131.611 303.956 135.962 292.079 143.308C280.201 150.654 270.286 160.774 263.185 172.8L188.935 128.955Z" fill="#FF6478" stroke="white" stroke-width="2"/>
		<path d="M325.478 44.6012C329.378 44.3302 333.286 44.1918 337.196 44.1864L337.316 130.416C335.361 130.418 333.407 130.487 331.457 130.623L325.478 44.6012Z" fill="#FF8541" stroke="white" stroke-width="2"/>
	</g>
	<g class="connectors">
		<path d="M543.338 187.068C538.251 187.068 512.08 190.923 510.067 191.219L508.053 191.516" stroke="#1E73BE"/>
		<path d="M254.007 403.9C259.095 403.9 269.304 379.496 270.09 377.618L270.875 375.741" stroke="#7271C9"/>
		<path d="M129.422 211.858C134.51 211.858 160.956 212.482 162.99 212.53L165.025 212.578" stroke="#D761B6"/>
		<path d="M225.651 43.967C230.739 43.967 244.644 66.4714 245.714 68.2025L246.783 69.9336" stroke="#FF6478"/>
		<path d="M325.328 13.784C330.415 13.784 331.33 40.222 331.4 42.2557L331.471 44.2894" stroke="#FF8541"/>
	</g>
	<g class="value-labels">
		<text><tspan x="549.99" y="191.72">Team: 45.3%&#x200b;</tspan></text>
		<text><tspan x="91.4577" y="413.143">Multiple teams: 21.9%&#x200b;</tspan></text>
		<text><tspan x="16.1096" y="206.482">Manager/team </tspan><tspan x="26.9221" y="224.482">leader: 16.2%&#x200b;</tspan></text>
		<text><tspan x="77.4815" y="48.6471">Solo workers: 15.4%&#x200b;</tspan></text>
		<text><tspan x="239.572" y="14.582">Other: 1.1%&#x200b;</tspan></text>
	</g>
</g>
</svg>