<svg width="100%" height="100%" viewBox="0 0 660 672" fill="none" xmlns="http://www.w3.org/2000/svg">
  <defs>
    <style type="text/css">
      <![CDATA[
        @import url(/_static/css/survey-2021-svg.css);
      ]]>
    </style>
  </defs>
  <title>Basis of employment (2022)</title>
<desc>Donut chart showing proportion of employee respondents (93.5%) to contractor respondents (6.5%) in 2022</desc>
	<g class="donut-chart">
		<g class="data">
			<path d="M329.94 43.7143C402.292 43.6996 472.077 70.5199 525.796 118.987C579.515 167.453 613.348 234.121 620.751 306.093C628.154 378.065 608.601 450.224 565.873 508.612C523.145 566.999 460.281 607.464 389.441 622.178C318.602 636.892 244.823 624.809 182.377 588.267C119.932 551.725 73.2592 493.321 51.3882 424.355C29.5172 355.388 34.0026 280.761 63.9768 214.91C93.9509 149.06 147.283 96.6669 213.656 67.8675L271.828 201.934C238.641 216.333 211.975 242.53 196.988 275.455C182.001 308.38 179.758 345.694 190.694 380.177C201.629 414.661 224.966 443.862 256.189 462.133C287.411 480.404 324.301 486.446 359.72 479.089C395.14 471.732 426.572 451.499 447.936 422.306C469.3 393.112 479.077 357.032 475.376 321.047C471.674 285.061 454.757 251.727 427.898 227.493C401.038 203.26 366.146 189.85 329.97 189.857L329.94 43.7143Z" fill="#1E73BE" stroke="white" stroke-width="3"/>
			<path d="M213.924 67.7513C250.442 51.9491 289.803 43.7698 329.594 43.7146L329.797 189.857C309.901 189.885 290.221 193.975 271.962 201.876L213.924 67.7513Z" fill="#FFA600" stroke="white" stroke-width="3"/>
		</g>
		<g class="connectors">
			<path d="M400.272 651.369C395.309 651.369 390.479 628.044 389.875 625.128L389.272 622.213" stroke="#1E73BE"/>
			<path d="M259.728 20.6314C264.69 20.6314 269.52 43.956 270.124 46.8716L270.728 49.7872" stroke="#FFA600"/>
		</g>
		<g class="value-labels">
			<text><tspan x="407" y="657.966">Employees: 93.5%&#x200b;</tspan></text>
			<text><tspan x="111.039" y="27.966">Contractors: 6.5%&#x200b;</tspan></text>
		</g>
	</g>
</svg>