<svg width="100%" height="100%" viewBox="0 0 660 405" fill="none" xmlns="http://www.w3.org/2000/svg">
  <defs>
    <style type="text/css">
      <![CDATA[
        @import url(/_static/css/survey-2022-svg.css);
      ]]>
    </style>
    
  </defs>
  <title>Feelings about work location (unaffected by COVID-19) (2022)</title>
  <desc>Donut chart showing feelings about work location for respondents who indicated that their workplace had not been affected by the pandemic.</desc>

	<g class="donut-chart">
		<g class="data">
			<path d="M510.22 298.817C493.463 327.814 469.43 351.937 440.497 368.804C411.564 385.671 378.731 394.698 345.242 394.993C311.752 395.287 278.765 386.839 249.54 370.484C220.315 354.129 195.862 330.432 178.597 301.734C161.333 273.036 151.854 240.331 151.097 206.849C150.341 173.367 158.333 140.266 174.283 110.818C190.234 81.3698 213.591 56.5924 242.048 38.9336C270.505 21.2749 303.077 11.3459 336.545 10.1274L340.047 106.314C323.312 106.923 307.027 111.887 292.798 120.717C278.57 129.546 266.891 141.935 258.916 156.659C250.94 171.383 246.945 187.933 247.323 204.674C247.701 221.415 252.441 237.768 261.073 252.117C269.705 266.466 281.931 278.314 296.544 286.492C311.157 294.67 327.65 298.894 344.395 298.746C361.14 298.599 377.556 294.086 392.023 285.652C406.489 277.219 418.505 265.157 426.884 250.658L510.22 298.817Z" class="very-positive"/>
			<path d="M336.737 10.1205C363.413 9.17611 389.994 13.7898 414.792 23.6687C439.589 33.5475 462.061 48.4755 480.78 67.5044C499.499 86.5334 514.055 109.247 523.526 134.204C532.996 159.16 537.172 185.813 535.79 212.47L439.669 207.485C440.36 194.157 438.272 180.83 433.537 168.352C428.802 155.874 421.523 144.517 412.164 135.002C402.804 125.488 391.569 118.024 379.17 113.084C366.771 108.145 353.481 105.838 340.143 106.31L336.737 10.1205Z" class="positive"/>
			<path d="M535.78 212.662C534.632 234.372 529.815 255.73 521.534 275.831L432.541 239.166C436.682 229.115 439.09 218.436 439.664 207.581L535.78 212.662Z" class="neutral"/>
			<path d="M521.46 276.009C518.249 283.781 514.532 291.333 510.334 298.619L426.941 250.559C429.04 246.917 430.899 243.14 432.504 239.254L521.46 276.009Z" class="negative"/>
		</g>
		<g class="connectors">
			<path d="M143.56 308.46C148.56 308.46 170.841 295.061 172.555 294.031L174.269 293" class="very-positive"/>
			<path d="M484.331 30C479.331 30 460.792 48.2301 459.366 49.6324L457.94 51.0347" class="positive"/>
			<path d="M554.594 230C549.594 230 521.842 248.28 519.891 247.84L517.94 247.399" class="neutral"/>
			<path d="M537.519 292.229C532.698 290.903 502.189 288.797 500.694 287.469L499.198 286.142" class="negative"/>
		</g>
		<g class="value-labels">
			<g class="very-positive"><text><tspan x="47.0674" y="313.582">Very positive</tspan><tspan x="71.8643" y="331.582">66.1%</tspan></text></g>		
			<g class="positive"><text><tspan x="487.987" y="33.582">Positive</tspan><tspan x="493.722" y="51.582">26.4%</tspan></text></g>
			<g class="neutral"><text><tspan x="558.964" y="233.582">Neutral</tspan><tspan x="568.495" y="251.582">5.4%</tspan></text></g>
			<g class="negative"><text><tspan x="542.43" y="297.582">Negative</tspan><tspan x="556.898" y="315.582">2.1%</tspan></text></g>
		</g>
	</g>

</svg>