<svg width="100%" height="100%" viewBox="0 0 660 346" fill="none" xmlns="http://www.w3.org/2000/svg">
  <defs>
    <style type="text/css">
      <![CDATA[
        @import url(/_static/css/survey-2022-svg.css);
      ]]>
    </style>
    
  </defs>
  <title>Portion of role officially documentation-related (2022)</title>
  <desc>Donut chart showing the proportion of respondent's official job description that is related to documentation in 2022.</desc>

		<g class="donut-chart">
		<g class="data">
			<path d="M464.838 187.163C462.109 218.447 450.402 248.278 431.123 273.067C411.845 297.856 385.816 316.548 356.167 326.896C326.517 337.244 294.51 338.807 263.994 331.397C233.477 323.987 205.751 307.92 184.148 285.128C162.546 262.335 147.988 233.787 142.224 202.918C136.46 172.048 139.736 140.171 151.658 111.118C163.58 82.0663 183.64 57.0764 209.426 39.1539C235.213 21.2313 265.628 11.139 297.013 10.0907L299.734 91.5452C284.041 92.0694 268.834 97.1155 255.94 106.077C243.047 115.038 233.017 127.533 227.056 142.059C221.095 156.585 219.457 172.524 222.339 187.959C225.221 203.394 232.5 217.667 243.302 229.064C254.103 240.46 267.966 248.494 283.224 252.198C298.482 255.903 314.486 255.122 329.311 249.948C344.135 244.774 357.15 235.428 366.789 223.033C376.428 210.639 382.282 195.724 383.646 180.081L464.838 187.163Z" fill="#1E73BE" stroke="white" stroke-width="2"/>
			<path d="M297.176 10.0856C338.586 8.74389 378.953 23.2214 410.071 50.5752C441.188 77.929 460.722 116.106 464.701 157.346L383.578 165.173C381.589 144.553 371.822 125.465 356.263 111.788C340.704 98.1107 320.52 90.872 299.816 91.5428L297.176 10.0856Z" fill="#7271C9" stroke="white" stroke-width="2"/>
			<path d="M464.717 157.508C465.461 165.3 465.643 173.136 465.261 180.954L383.858 176.977C384.049 173.068 383.958 169.15 383.586 165.254L464.717 157.508Z" fill="#D761B6" stroke="white" stroke-width="2"/>
			<path d="M465.252 181.116C465.155 183.07 465.023 185.022 464.855 186.971L383.655 179.985C383.739 179.011 383.805 178.035 383.854 177.058L465.252 181.116Z" fill="#FF6478" stroke="white" stroke-width="2"/>
		</g>
		<g class="connectors">
			<path d="M146.423 290.62C151.423 290.62 170.308 272.749 171.76 271.375L173.213 270" stroke="#1E73BE"/>
			<path d="M434.247 29C429.247 29 412.066 48.5149 410.744 50.016L409.423 51.5172" stroke="#7271C9"/>
			<path d="M499.082 157.438C494.082 157.438 469.04 169.093 467.041 169.139L465.042 169.184" stroke="#D761B6"/>
			<path d="M498.49 197.116C493.49 197.116 469.019 184.273 467.024 184.137L465.028 184" stroke="#FF6478"/>
		</g>
		<g class="value-labels">
			<text ><tspan x="55" y="296">Wholly docs</tspan><tspan x="75" y="312"> 73.1%</tspan></text>
			<text><tspan x="438.051" y="32.8843">Partly docs</tspan><tspan x="458.688" y="48.8843">24%</tspan></text>
			<text><tspan x="508.704" y="151.884">Not docs, but</tspan><tspan x="507.221" y="167.884">expected 2.3%</tspan></text>
			<text><tspan x="507.152" y="203.884">Not docs, not</tspan><tspan x="505.136" y="219.884">expected 0.6%</tspan></text>
		</g>
	</g>


</svg>