<svg width="100%" height="100%" viewBox="0 0 660 350" fill="none" xmlns="http://www.w3.org/2000/svg">
  <defs>
    <style type="text/css">
      <![CDATA[
        @import url(/_static/css/survey-2022-svg.css);
      ]]>
    </style>
    
  </defs>
  <title>Job satisfaction (2022)</title>
  <desc>Donut chart showing level of satisfaction with salary and benefits for employee respondents.</desc>

	<g class="donut-chart">
		<g class="data">
			<path d="M415.158 301.433C383.086 328.325 341.994 342.025 300.201 339.757C258.408 337.49 219.039 319.425 190.065 289.22C161.092 259.015 144.68 218.928 144.153 177.077C143.626 135.227 159.023 94.7392 187.227 63.8145L248.183 119.407C234.082 134.869 226.383 155.113 226.647 176.039C226.91 196.964 235.116 217.007 249.603 232.11C264.089 247.212 283.774 256.245 304.67 257.379C325.567 258.512 346.113 251.662 362.149 238.216L415.158 301.433Z" class="satisfied"/>
			<path d="M187.338 63.6929C203.307 46.2184 222.849 32.3845 244.637 23.1305C266.425 13.8764 289.949 9.41895 313.613 10.0606C337.276 10.7023 360.524 16.4282 381.779 26.8494C403.033 37.2707 421.797 52.1433 436.795 70.4576L372.968 122.729C365.468 113.572 356.087 106.135 345.459 100.925C334.832 95.7141 323.208 92.8512 311.376 92.5303C299.545 92.2095 287.783 94.4382 276.888 99.0652C265.994 103.692 256.223 110.609 248.239 119.346L187.338 63.6929Z" class="very-satisfied"/>
			<path d="M436.9 70.585C453.016 90.3048 464.349 113.488 470.011 138.318C475.673 163.149 475.51 188.953 469.535 213.71L389.337 194.355C392.325 181.976 392.406 169.074 389.575 156.659C386.745 144.244 381.078 132.652 373.02 122.792L436.9 70.585Z" class="neutral-satisfaction"/>
			<path d="M469.496 213.871C463.036 240.52 450.037 265.139 431.673 285.502L370.407 230.251C379.588 220.069 386.088 207.76 389.318 194.436L469.496 213.871Z" class="unsatisfied"/>
			<path d="M431.563 285.625C426.509 291.217 421.078 296.457 415.307 301.308L362.224 238.154C365.109 235.729 367.824 233.109 370.351 230.312L431.563 285.625Z" class="very-unsatisfied"/>
		</g>
		<g class="connectors">
			<path d="M160.575 289.757C165.575 289.757 184.347 271.768 185.791 270.384L187.235 269" class="satisfied"/>
			<path d="M420.783 26.6613C418.316 22.3123 395.356 34.5121 393.59 35.4505L391.824 36.389" class="very-satisfied"/>
			<path d="M481.293 107.694C476.293 107.694 450.941 113.463 448.991 113.907L447.041 114.351" class="neutral-satisfaction"/>
			<path d="M483.271 234.755C478.271 234.755 450.531 233.403 448.763 232.469L446.995 231.534" class="unsatisfied"/>
			<path d="M440.486 303.393C435.486 303.393 411.637 290.879 410.248 289.44L408.86 288" class="very-unsatisfied"/>
		</g>
		<g class="value-labels">
			<text><tspan x="97.4525" y="297.56">Satisfied</tspan><tspan x="105.088" y="313.56">47.9%</tspan></text>
			<text><tspan x="428.017" y="31.8843">Very satisfied</tspan><tspan x="450.959" y="47.8843">27.3%</tspan></text>
			<text><tspan x="488.256" y="110.884">Neutral</tspan><tspan x="493.765" y="126.884">14.7%</tspan></text>
			<text><tspan x="492.141" y="236.884">Unsatisfied</tspan><tspan x="512.266" y="252.884">7.9%</tspan></text>
			<text><tspan x="448.273" y="308.884">Very unsatisfied</tspan><tspan x="482.85" y="324.884">2.2%</tspan></text>
		</g>
	</g>
</svg>