<svg width="100%" height="100%" viewBox="0 0 660 415" fill="none" xmlns="http://www.w3.org/2000/svg">
  <defs>
    <style type="text/css">
      <![CDATA[
        @import url(/_static/css/survey-2022-svg.css);
      ]]>
    </style>
    
  </defs>
  <title>Pay transparency policy (2022)</title>
  <desc>Donut chart showing type of pay transparency policy, if any, at respondent's organizations.</desc>

		<g class="donut-chart">
		<g class="data">
			<path d="M409.042 379.191C386.096 392.444 360.662 400.818 334.33 403.787C307.999 406.757 281.338 404.258 256.018 396.447C230.697 388.637 207.261 375.683 187.178 358.396C167.095 341.11 150.797 319.863 139.305 295.987C127.813 272.11 121.374 246.118 120.391 219.638C119.409 193.159 123.903 166.761 133.594 142.098C143.285 117.436 157.964 95.0399 176.71 76.3124C195.457 57.5849 217.868 42.9295 242.54 33.2637L277.649 122.882C265.313 127.715 254.108 135.042 244.734 144.406C235.361 153.77 228.022 164.968 223.177 177.299C218.331 189.63 216.084 202.829 216.575 216.069C217.066 229.309 220.286 242.305 226.032 254.243C231.778 266.181 239.927 276.805 249.968 285.448C260.01 294.091 271.728 300.568 284.388 304.474C297.049 308.379 310.379 309.628 323.545 308.144C336.71 306.659 349.428 302.472 360.9 295.845L409.042 379.191Z" class="one-of-five"/>
			<path d="M242.719 33.1938C287.893 15.5483 338.062 15.6041 383.197 33.3499C428.331 51.0957 465.104 85.2237 486.163 128.91L399.461 170.705C388.931 148.862 370.545 131.798 347.978 122.925C325.411 114.052 300.326 114.024 277.739 122.847L242.719 33.1938Z" class="two-of-five"/>
			<path d="M486.246 129.084C502.942 163.808 508.834 202.742 503.159 240.851L407.959 226.676C410.796 207.621 407.85 188.154 399.502 170.792L486.246 129.084Z" class="three-of-five"/>
			<path d="M503.131 241.041C497.73 277.07 482.215 310.827 458.39 338.388L385.574 275.444C397.487 261.663 405.244 244.785 407.945 226.771L503.131 241.041Z" class="four-of-five"/>
			<path d="M458.264 338.534C444.284 354.673 427.716 368.374 409.239 379.076L360.999 295.788C370.237 290.437 378.521 283.586 385.511 275.517L458.264 338.534Z" class="five-of-five"/>	
		</g>
		<g class="connectors">
			<path d="M116.191 318C121.191 318 144.623 306.733 146.426 305.867L148.228 305" class="one-of-five"/>
			<path d="M441.706 31C436.706 31 427.185 55.1942 426.453 57.0553L425.721 58.9164" class="two-of-five"/>
			<path d="M528.245 148.985C523.245 148.985 497.905 155.131 495.928 155.429L493.95 155.728" class="three-of-five"/>
			<path d="M519.18 282.809C514.18 282.809 489.354 274.673 487.537 273.836L485.721 273" class="four-of-five"/>
			<path d="M453.964 376.402C448.964 376.402 435.267 354.085 433.994 352.542L432.721 351" class="five-of-five"/>
		</g>
		<g class="value-labels">
			<text><tspan x="55.1572" y="324.303">No policy</tspan><tspan x="63.8232" y="338.303">52.4%</tspan></text>
			<text><tspan x="444.727" y="21.1865">Unsure</tspan><tspan x="447.457" y="35.1865">23.8%</tspan></text>
			<text><tspan x="533.91" y="152.187">Yes - partial</tspan><tspan x="552.631" y="166.187">9.5%</tspan></text>
			<text><tspan x="524.312" y="287.187">Yes - forbidden</tspan><tspan x="556.438" y="301.187">9%</tspan></text>
			<text><tspan x="460.979" y="382.187">Yes - full</tspan><tspan x="471.139" y="396.187">5.3%</tspan></text>
		</g>
	</g>

</svg>