<svg width="100%" height="100%" viewBox="0 0 660 405" fill="none" xmlns="http://www.w3.org/2000/svg">
  <defs>
    <style type="text/css">
      <![CDATA[
        @import url(/_static/css/survey-2022-svg.css);
      ]]>
    </style>
    
  </defs>
  <title>Work location (unaffected by COVID-19) (2022)</title>
  <desc>Donut chart showing work location for respondents who indicated that their workplace had not been affected by the pandemic.</desc>

		<g class="donut-chart">
		<g class="data">
			<path d="M457.237 326.217C430.225 358.418 393.417 380.893 352.433 390.21C311.449 399.528 268.541 395.176 230.262 377.819C191.984 360.462 160.437 331.055 140.441 294.086C120.444 257.118 113.096 214.621 119.518 173.085L214.638 187.793C211.427 208.561 215.101 229.809 225.099 248.293C235.098 266.777 250.871 281.481 270.01 290.16C289.149 298.838 310.603 301.014 331.095 296.355C351.587 291.696 369.991 280.459 383.497 264.359L457.237 326.217Z" class="remote-required"/>
			<path d="M119.548 172.895C125.294 135.974 141.662 101.524 166.653 73.7469C191.645 45.9697 224.18 26.0663 260.29 16.4644C296.401 6.86263 334.525 7.97755 370.012 19.6732C405.5 31.3688 436.816 53.1396 460.142 82.3298L384.95 142.415C373.287 127.82 357.629 116.934 339.885 111.087C322.141 105.239 303.079 104.681 285.024 109.482C266.969 114.283 250.701 124.235 238.205 138.123C225.71 152.012 217.526 169.237 214.653 187.697L119.548 172.895Z" class="remote-not-required"/>
			<path d="M460.262 82.48C477.43 104.009 489.78 128.97 496.477 155.68C503.174 182.389 504.064 210.224 499.085 237.307L404.421 219.903C406.911 206.362 406.466 192.444 403.117 179.09C399.769 165.735 393.594 153.254 385.01 142.49L460.262 82.48Z" class="partial"/>
			<path d="M499.05 237.496C495.755 255.319 489.959 272.587 481.834 288.789L395.796 245.645C399.858 237.544 402.756 228.91 404.404 219.998L499.05 237.496Z" class="on-site-required"/>
			<path d="M481.748 288.962C475.083 302.22 466.907 314.663 457.384 326.042L383.571 264.271C388.332 258.581 392.42 252.36 395.753 245.731L481.748 288.962Z" class="on-site-not-required"/>
		</g>
		<g class="connectors">
			<path d="M139.25 345.317C144.25 345.317 154.997 321.642 155.823 319.821L156.65 318" class="remote-required"/>
			<path d="M162.007 38C167.007 38 173.677 63.1299 174.19 65.0629L174.704 66.996" class="remote-not-required"/>
			<path d="M519.109 136.988C514.109 136.988 488.888 143.302 486.947 143.788L485.007 144.273" class="partial"/>
			<path d="M519.81 262.006C514.874 261.208 485.876 262.076 484.106 261.145L482.336 260.214" class="on-site-required"/>
			<path d="M481.981 325.244C476.981 325.244 465.592 297.198 463.921 296.099L462.25 295" class="on-site-not-required"/>			
		</g>
		<g class="value-labels">
			<text><tspan x="80" y="25">Remote</tspan><tspan x="55" y="44">(not required)</tspan><tspan x="83" y="62">36.8%</tspan></text>
			<text><tspan x="524.328" y="130.884">Partial</tspan><tspan x="526.557" y="146.884">13.6%</tspan></text>
			<text><tspan x="534.203" y="251.884">On-site</tspan><tspan x="523.586" y="267.884">(required)</tspan><tspan x="541.784" y="283.884">4.5%</tspan></text>
			<text><tspan x="508" y="317.884">On-site</tspan><tspan x="487.055" y="333.884">(not required)</tspan><tspan x="515.854" y="349.884">3.7%</tspan></text>
			<text><tspan x="111.458" y="357.884">Remote</tspan><tspan x="103.727" y="373.884">(required)</tspan><tspan x="117.063" y="389.884">41.3%</tspan></text>
		</g>
	</g>

</svg>