<svg width="100%" height="100%" viewBox="0 0 660 350" fill="none" xmlns="http://www.w3.org/2000/svg">
  <defs>
    <style type="text/css">
      <![CDATA[
        @import url(/_static/css/survey-2022-svg.css);
      ]]>
    </style>
    
  </defs>
  <title>Job satisfaction (2022)</title>
  <desc>Donut chart showing level of satisfaction with overall employment situation for employee respondents.</desc>

	<g class="donut-chart left">
		<g class="data">
			<path d="M386.027 317.878C350.586 338.349 308.801 344.917 268.788 336.307C228.775 327.697 193.39 304.523 169.506 271.285C145.622 238.048 134.944 197.12 139.545 156.45C144.146 115.781 163.698 78.2732 194.404 51.2119L248.952 113.106C233.599 126.636 223.823 145.39 221.522 165.725C219.221 186.06 224.561 206.524 236.503 223.142C248.445 239.761 266.137 251.348 286.143 255.653C306.15 259.958 327.042 256.674 344.763 246.439L386.027 317.878Z" class="satisfied"/>
			<path d="M194.528 51.1033C215.8 32.3942 241.53 19.4769 269.242 13.5954C296.953 7.7138 325.713 9.06607 352.75 17.5219C379.787 25.9778 404.192 41.2525 423.614 61.8751C443.037 82.4977 456.822 107.774 463.644 135.269L383.571 155.134C380.161 141.387 373.268 128.749 363.557 118.438C353.845 108.126 341.643 100.489 328.124 96.261C314.606 92.033 300.226 91.3569 286.37 94.2977C272.515 97.2385 259.649 103.697 249.014 113.052L194.528 51.1033Z" class="very-satisfied"/>
			<path d="M463.684 135.429C469.171 157.64 469.978 180.751 466.055 203.291C462.132 225.832 453.564 247.31 440.896 266.362L372.197 220.681C378.532 211.155 382.816 200.416 384.777 189.146C386.739 177.875 386.335 166.32 383.591 155.214L463.684 135.429Z" class="neutral-satisfaction"/>
			<path d="M440.804 266.5C427.916 285.84 411.088 302.239 391.421 314.623L347.46 244.812C357.293 238.62 365.708 230.42 372.152 220.75L440.804 266.5Z" class="unsatisfied"/>
			<path d="M391.282 314.711C389.605 315.764 387.91 316.788 386.196 317.78L344.848 246.39C345.704 245.894 346.552 245.382 347.39 244.855L391.282 314.711Z" class="very-unsatisfied"/>
		</g>
		<g class="connectors">
			<path d="M178.297 304.496C183.297 304.496 204.417 289.333 206.042 288.166L207.666 287" class="satisfied"/>
			<path d="M425.755 40.0568C421.671 37.1722 401.01 52.9558 399.421 54.1699L397.831 55.384" class="very-satisfied"/>
			<path d="M491.55 167.28C486.55 167.28 460.938 162.806 458.968 162.461L456.998 162.117" class="neutral-satisfaction"/>
			<path d="M449.098 288.103C444.098 288.103 413.79 283.866 412.395 282.433L411 281" class="unsatisfied"/>
			<path d="M399 325C395.745 325 384.344 309.671 383.672 308.336L383 307" class="very-unsatisfied"/>
		</g>
		<g class="value-labels">
			<text><tspan x="111.478" y="311.884">Satisfied</tspan><tspan x="118.457" y="327.884">46.8%</tspan></text>
			<text><tspan x="440.988" y="43.8843">Very satisfied</tspan><tspan x="463.485" y="59.8843">32.6%</tspan></text>
			<text><tspan x="501.231" y="174.884">Neutral</tspan><tspan x="506.446" y="190.884">13.2%</tspan></text>
			<text><tspan x="457.281" y="292.884">Unsatisfied</tspan><tspan x="477.406" y="308.884">6.7%</tspan></text>
			<text><tspan x="408.495" y="336.884">Very unsatisfied</tspan><tspan x="442.627" y="352.884">0.6%</tspan></text>
		</g>
	</g>
</svg>