<svg width="100%" height="100%" viewBox="0 0 660 405" fill="none" xmlns="http://www.w3.org/2000/svg">
  <defs>
    <style type="text/css">
      <![CDATA[
        @import url(/_static/css/survey-2022-svg.css);
      ]]>
    </style>
    
  </defs>
  <title>Pay transparency practise (2022)</title>
  <desc>Donut chart showing type of unofficial pay transparency practise, if any, at respondent's organizations.</desc>
 
	<g class="donut-chart">
		<g class="data">
			<path d="M458.408 298.817C441.704 327.722 417.77 351.786 388.956 368.646C360.142 385.507 327.438 394.584 294.056 394.986C260.674 395.388 227.761 387.101 198.549 370.94C169.336 354.779 144.83 331.298 127.434 302.804C110.039 274.309 100.353 241.781 99.3276 208.412C98.3023 175.043 105.973 141.981 121.586 112.472C137.199 82.9637 160.218 58.0228 188.383 40.0984C216.547 22.174 248.889 11.8825 282.233 10.2344L286.985 106.367C270.313 107.191 254.142 112.337 240.06 121.299C225.977 130.261 214.468 142.732 206.661 157.486C198.855 172.24 195.02 188.771 195.532 205.456C196.045 222.14 200.888 238.404 209.586 252.652C218.283 266.899 230.537 278.639 245.143 286.72C259.749 294.801 276.205 298.944 292.896 298.743C309.587 298.542 325.939 294.003 340.346 285.573C354.753 277.143 366.721 265.111 375.072 250.658L458.408 298.817Z" class="one-of-four"/>
			<path d="M282.426 10.2254C318.684 8.4695 354.7 17.0016 386.317 34.8372C417.934 52.6727 443.864 79.0847 461.114 111.025L376.426 156.763C367.801 140.792 354.836 127.586 339.027 118.669C323.219 109.751 305.211 105.485 287.081 106.363L282.426 10.2254Z" class="two-of-four"/>
			<path d="M461.205 111.194C475.113 137.008 482.94 165.659 484.089 194.959C485.238 224.259 479.678 253.434 467.834 280.257L379.785 241.379C385.707 227.967 388.487 213.379 387.913 198.729C387.339 184.079 383.425 169.754 376.471 156.847L461.205 111.194Z" class="three-of-four"/>
			<path d="M467.756 280.434C465.001 286.654 461.919 292.725 458.522 298.619L375.129 250.56C376.828 247.612 378.369 244.577 379.746 241.467L467.756 280.434Z" class="four-of-four"/>			
		</g>
		<g class="connectors">
			<path d="M138.484 360.621C143.484 360.621 165.681 347.083 167.389 346.041L169.096 345" class="one-of-four"/>
			<path d="M414.241 25.8047C409.241 25.8047 396.454 48.4429 395.47 50.1843L394.487 51.9257" class="two-of-four"/>
			<path d="M502.56 181.064C497.56 181.064 471.58 182.072 469.581 182.149L467.583 182.227" class="three-of-four"/>
			<path d="M483.936 300.592C478.936 300.592 455.757 288.812 453.974 287.906L452.191 287" class="four-of-four"/>
		</g>
		<g class="value-labels">
			<text><tspan x="72.3228" y="364.187">No sharing</tspan><tspan x="85.0552" y="378.187">65.9%</tspan></text>
			<text><tspan x="421.938" y="29.1865">Partial - some sharing</tspan><tspan x="464.676" y="43.1865">17.9%</tspan></text>
			<text><tspan x="511.703" y="182.187">Unsure</tspan><tspan x="515.535" y="196.187">14.5%</tspan></text>
			<text><tspan x="490.142" y="305.187">Yes - open sharing</tspan><tspan x="526.839" y="319.187">1.7%</tspan></text>
		</g>
	</g>

</svg>