<svg width="100%" height="100%" viewBox="0 0 660 417" fill="none" xmlns="http://www.w3.org/2000/svg">
  <defs>
    <style type="text/css">
      <![CDATA[
        @import url(/_static/css/survey-2022-svg.css);
      ]]>
    </style>
    
  </defs>
  <title>Work location (affected by COVID-19)</title>
  <desc>Two donut charts showing work location, pre-COVID-19 and currently, for respondents who indicated that their workplace had been affected by the pandemic.</desc> 
 
	<g class="legend">
		<g class="labels-five">
			<text><tspan x="410.561" y="41.9888">On-site (required)</tspan></text>
			<text><tspan x="183.393" y="41.9888">On-site (not required)</tspan></text>
			<text><tspan x="484" y="18.9888">Partially on-site, partially remote</tspan></text>
			<text><tspan x="255.684" y="18.9888">Remote (not required)</tspan></text>
			<text><tspan x="43.8516" y="18.9888">Remote (required)</tspan></text>
		</g>
		<path d="M396 38.5C396 39.8261 396.527 41.0979 397.464 42.0355C398.402 42.9732 399.674 43.5 401 43.5C402.326 43.5 403.598 42.9732 404.536 42.0355C405.473 41.0979 406 39.8261 406 38.5C406 37.1739 405.473 35.9021 404.536 34.9645C403.598 34.0268 402.326 33.5 401 33.5C399.674 33.5 398.402 34.0268 397.464 34.9645C396.527 35.9021 396 37.1739 396 38.5Z" class="on-site-required"/>
		<path d="M169 38.5C169 39.8261 169.527 41.0979 170.464 42.0355C171.402 42.9732 172.674 43.5 174 43.5C175.326 43.5 176.598 42.9732 177.536 42.0355C178.473 41.0979 179 39.8261 179 38.5C179 37.1739 178.473 35.9021 177.536 34.9645C176.598 34.0268 175.326 33.5 174 33.5C172.674 33.5 171.402 34.0268 170.464 34.9645C169.527 35.9021 169 37.1739 169 38.5Z" class="on-site-not-required"/>
		<path d="M470 15.5C470 16.8261 470.527 18.0979 471.464 19.0355C472.402 19.9732 473.674 20.5 475 20.5C476.326 20.5 477.598 19.9732 478.536 19.0355C479.473 18.0979 480 16.8261 480 15.5C480 14.1739 479.473 12.9021 478.536 11.9645C477.598 11.0268 476.326 10.5 475 10.5C473.674 10.5 472.402 11.0268 471.464 11.9645C470.527 12.9021 470 14.1739 470 15.5Z" class="partial"/>
		<path d="M241 15.5C241 16.8261 241.527 18.0979 242.464 19.0355C243.402 19.9732 244.674 20.5 246 20.5C247.326 20.5 248.598 19.9732 249.536 19.0355C250.473 18.0979 251 16.8261 251 15.5C251 14.1739 250.473 12.9021 249.536 11.9645C248.598 11.0268 247.326 10.5 246 10.5C244.674 10.5 243.402 11.0268 242.464 11.9645C241.527 12.9021 241 14.1739 241 15.5Z" class="remote-not-required"/>
		<path d="M29 15.5C29 16.8261 29.5268 18.0979 30.4645 19.0355C31.4021 19.9732 32.6739 20.5 34 20.5C35.3261 20.5 36.5979 19.9732 37.5355 19.0355C38.4732 18.0979 39 16.8261 39 15.5C39 14.1739 38.4732 12.9021 37.5355 11.9645C36.5979 11.0268 35.3261 10.5 34 10.5C32.6739 10.5 31.4021 11.0268 30.4645 11.9645C29.5268 12.9021 29 14.1739 29 15.5Z" class="remote-required"/>
	</g>

	<g class="donut-chart left">
		<g class="data">
			<path d="M167.468 64C208.168 63.9917 247.291 79.7394 276.636 107.942C305.982 136.144 323.27 174.612 324.877 215.28C326.484 255.949 312.286 295.661 285.258 326.091C258.23 356.522 220.471 375.308 179.897 378.511L173.699 300.006C193.986 298.404 212.865 289.011 226.379 273.796C239.893 258.58 246.992 238.724 246.188 218.39C245.385 198.056 236.741 178.822 222.068 164.721C207.396 150.62 187.834 142.746 167.484 142.75L167.468 64Z" class="on-site-required"/>
			<path d="M179.741 378.524C146.356 381.126 113.011 373.021 84.5462 355.384C56.0814 337.747 33.9785 311.497 21.4463 280.445L94.4732 250.973C100.739 266.499 111.791 279.624 126.023 288.442C140.256 297.26 156.928 301.313 173.62 300.012L179.741 378.524Z" class="partial"/>
			<path d="M21.3873 280.299C6.45188 243.185 6.1996 201.779 20.6817 164.486L94.0908 192.993C86.8498 211.639 86.9759 232.343 94.4436 250.9L21.3873 280.299Z" class="on-site-not-required"/>
			<path d="M20.7388 164.339C34.4108 129.236 60.2118 100.196 93.4614 82.4873L130.481 151.994C113.856 160.848 100.955 175.368 94.1194 192.919L20.7388 164.339Z" class="remote-not-required"/>
			<path d="M93.6006 82.4132C116.291 70.3572 141.587 64.0357 167.281 64L167.391 142.75C154.544 142.768 141.896 145.929 130.55 151.957L93.6006 82.4132Z" class="remote-required"/>
		</g>
		<g class="pie-labels">
			<text><tspan x="117.457" y="403.422">Pre-COVID-19</tspan></text>
		</g>
	</g>

	<g class="donut-chart right">
		<g class="data">
			<path d="M492.468 64C530.749 63.9922 567.723 77.9271 596.477 103.199C625.231 128.472 643.796 163.351 648.701 201.317C653.607 239.283 644.517 277.736 623.132 309.486C601.746 341.237 569.528 364.113 532.502 373.835L512.501 297.668C531.014 292.806 547.123 281.369 557.816 265.493C568.509 249.618 573.053 230.391 570.601 211.408C568.148 192.426 558.865 174.986 544.488 162.35C530.111 149.714 511.625 142.746 492.484 142.75L492.468 64Z" class="remote-not-required"/>
			<path d="M532.35 373.875C504.845 381.069 475.906 380.683 448.603 372.759C421.299 364.835 396.65 349.669 377.269 328.869C357.888 308.069 344.499 282.411 338.521 254.616C332.543 226.822 334.2 197.928 343.316 170.999L417.908 196.25C413.35 209.714 412.522 224.161 415.51 238.058C418.499 251.955 425.194 264.785 434.884 275.185C444.575 285.585 456.9 293.168 470.551 297.13C484.203 301.092 498.673 301.284 512.425 297.688L532.35 373.875Z" class="partial"/>
			<path d="M343.367 170.85C351.45 147.05 365.112 125.53 383.211 108.089C401.31 90.6473 423.321 77.7911 447.404 70.5942L469.952 146.047C457.911 149.646 446.905 156.074 437.856 164.794C428.806 173.515 421.975 184.275 417.933 196.175L343.367 170.85Z" class="remote-required"/>
			<path d="M447.555 70.5491C456.467 67.8956 465.596 66.0365 474.836 64.9937L483.668 143.247C479.048 143.768 474.483 144.698 470.027 146.025L447.555 70.5491Z" class="on-site-required"/>
			<path d="M474.993 64.9759C480.733 64.3338 486.505 64.008 492.281 64L492.391 142.75C489.503 142.754 486.617 142.917 483.746 143.238L474.993 64.9759Z" class="on-site-not-required"/>
		</g>
		<g class="pie-labels">
			<text><tspan x="465.631" y="403.422">Current</tspan></text>
		</g>
	</g>

</svg>