<svg width="100%" height="100%" viewBox="0 0 660 346" fill="none" xmlns="http://www.w3.org/2000/svg">
  <defs>
    <style type="text/css">
      <![CDATA[
        @import url(/_static/css/survey-2022-svg.css);
      ]]>
    </style>
    
  </defs>
  <title>Top role category combinations (2022)</title>
  <desc>Donut chart showing top role category combinations for respondents in 2022.  </desc>

		<g class="donut-chart">
		<g class="data">
			<path d="M422.732 297.901C403.992 313.615 381.955 324.911 358.255 330.951C334.555 336.991 309.8 337.621 285.824 332.793C261.848 327.965 239.265 317.804 219.75 303.062C200.235 288.32 184.288 269.375 173.09 247.632C161.891 225.889 155.73 201.905 155.061 177.457C154.392 153.008 159.234 128.723 169.227 106.4C179.22 84.0776 194.108 64.2897 212.788 48.5032C231.469 32.7167 253.462 21.3362 277.138 15.2051L297.569 94.1027C285.731 97.1682 274.734 102.858 265.394 110.752C256.054 118.645 248.61 128.539 243.613 139.7C238.617 150.862 236.196 163.004 236.53 175.228C236.865 187.452 239.946 199.445 245.545 210.316C251.144 221.188 259.118 230.66 268.875 238.031C278.633 245.402 289.924 250.483 301.912 252.897C313.9 255.311 326.278 254.996 338.128 251.976C349.977 248.956 360.996 243.308 370.366 235.45L422.732 297.901Z" fill="#1E73BE" stroke="white" stroke-width="2"/>
			<path d="M277.296 15.1643C315.89 5.21132 356.793 9.74387 392.272 27.905C427.751 46.066 455.346 76.5969 469.84 113.725L393.92 143.363C386.673 124.799 372.875 109.533 355.136 100.453C337.397 91.372 316.945 89.1058 297.648 94.0823L277.296 15.1643Z" fill="#7271C9" stroke="white" stroke-width="2"/>
			<path d="M469.899 113.877C480.587 141.335 483.632 171.176 478.71 200.226L398.355 186.613C400.816 172.088 399.293 157.167 393.95 143.439L469.899 113.877Z" fill="#D761B6" stroke="white" stroke-width="2"/>
			<path d="M478.683 200.386C475.185 220.909 467.788 240.572 456.892 258.311L387.446 215.656C392.894 206.786 396.593 196.955 398.342 186.693L478.683 200.386Z" fill="#FF6478" stroke="white" stroke-width="2"/>
			<path d="M456.807 258.45C451.105 267.712 444.491 276.379 437.063 284.324L377.532 228.662C381.246 224.69 384.553 220.356 387.403 215.725L456.807 258.45Z" fill="#FF8541" stroke="white" stroke-width="2"/>
			<path d="M436.952 284.443C432.53 289.162 427.832 293.615 422.881 297.776L370.44 235.388C372.916 233.308 375.265 231.081 377.476 228.721L436.952 284.443Z" fill="#FFA600" stroke="white" stroke-width="2"/>
		</g>
		<g class="connectors">
			<path d="M129.5 156C133.078 156 150.216 157.6 152.358 157.8L154.5 158" stroke="#1E73BE"/>
			<path d="M503.5 151.5C500.299 151.5 485.26 156.3 483.38 156.9L481.5 157.5" stroke="#D761B6"/>
			<path d="M462.943 60.6388C459.761 61.0645 446.398 68.5023 444.728 69.432L443.057 70.3618" stroke="#7271C9"/>
			<path d="M495.334 226.309C492.95 228.239 477.39 228.51 475.445 228.543L473.5 228.577" stroke="#FF6478"/>
			<path d="M465.008 275.885C462.763 276.981 451.353 272.76 449.926 272.232L448.5 271.705" stroke="#FF8541"/>
			<path d="M443.5 303C441.001 303 432.6 294.2 431.55 293.1L430.5 292" stroke="#FFA600"/>
		</g>
		<g class="value-labels">
			<text><tspan x="40" y="153">Writer only</tspan><tspan x="63" y="176">57.1%</tspan></text>
			<text><tspan x="469" y="57">Other combos 23.1%</tspan></text>
			<text><tspan x="507" y="152">Writer &#38; Manager</tspan><tspan x="537" y="176">8.6%</tspan></text>
			<text><tspan x="501" y="223">Writer &#38; Developer</tspan><tspan x="536" y="247">6.1%</tspan></text>
			<text><tspan x="470" y="275">Writer &#38; Educator 3.2%</tspan></text>
			<text><tspan x="450" y="312">Manager only 1.9%</tspan></text>
		</g>
	</g>	
</svg>