 <svg width="100%" height="100%" viewBox="0 0 660 417" fill="none" xmlns="http://www.w3.org/2000/svg">
  <defs>
    <style type="text/css">
      <![CDATA[
        @import url(/_static/css/survey-2022-svg.css);
      ]]>
    </style>
    
  </defs>
  <title>Feelinngs about work location (combined) (2022)</title>
  <desc>Donut chart showing feelings about work location for all respondents combined.</desc>

	<g class="donut-chart">
		<g class="data">
			<path d="M502.35 268.327C493.552 292.504 479.997 314.673 462.485 333.522C444.974 352.371 423.861 367.519 400.396 378.069C376.931 388.62 351.588 394.36 325.867 394.95C300.145 395.539 274.567 390.967 250.642 381.502C226.718 372.038 204.934 357.874 186.577 339.847C168.22 321.82 153.663 300.296 143.766 276.548C133.87 252.799 128.834 227.307 128.957 201.579C129.08 175.852 134.359 150.409 144.483 126.756L232.969 164.628C227.907 176.455 225.267 189.176 225.206 202.04C225.144 214.904 227.662 227.65 232.611 239.524C237.559 251.398 244.837 262.16 254.016 271.174C263.194 280.187 274.086 287.269 286.049 292.001C298.011 296.733 310.8 299.02 323.661 298.725C336.522 298.43 349.193 295.56 360.925 290.285C372.658 285.009 383.214 277.436 391.97 268.011C400.726 258.586 407.503 247.502 411.902 235.414L502.35 268.327Z" class="very-positive"/>
			<path d="M144.559 126.579C157.098 97.3613 176.68 71.7043 201.555 51.9004C226.43 32.0964 255.822 18.7623 287.107 13.0891C318.393 7.4159 350.596 9.58034 380.84 19.3891C411.085 29.1978 438.429 46.3453 460.43 69.2998L390.942 135.9C379.942 124.423 366.27 115.849 351.148 110.945C336.025 106.04 319.924 104.958 304.281 107.795C288.639 110.631 273.942 117.298 261.505 127.2C249.068 137.102 239.277 149.931 233.007 164.54L144.559 126.579Z" class="positive"/>
			<path d="M460.563 69.439C479.709 89.4549 494.31 113.367 503.368 139.542C512.427 165.717 515.731 193.539 513.053 221.108L417.254 211.804C418.593 198.02 416.941 184.109 412.412 171.021C407.882 157.934 400.582 145.978 391.009 135.97L460.563 69.439Z" class="neutral"/>
			<path d="M513.035 221.299C511.78 234.082 509.25 246.707 505.481 258.985L413.468 230.743C415.352 224.603 416.618 218.291 417.245 211.899L513.035 221.299Z" class="negative"/>
			<path d="M505.424 259.17C504.499 262.175 503.5 265.157 502.428 268.113L411.941 235.306C412.477 233.828 412.977 232.337 413.44 230.835L505.424 259.17Z" class="very-negative"/>
		</g>
		<g class="connectors">
			<path d="M131.965 307.889C136.965 307.889 146.545 283.719 147.282 281.859L148.019 280" class="very-positive"/>
			<path d="M169.211 46.0449C174.211 46.0449 178.833 71.6308 179.189 73.5989L179.544 75.5671" class="positive"/>
			<path d="M505.185 80.8237C500.185 80.8237 475.611 89.3142 473.72 89.9673L471.83 90.6205" class="neutral"/>
			<path d="M538.023 246.633C533.023 246.633 506.525 247.485 504.565 247.091L502.604 246.697" class="negative"/>
			<path d="M529.024 277.522C524.024 277.522 501.603 263.273 499.707 262.637L497.811 262" class="very-negative"/>
		</g>
		<g class="value-labels">
			<text><tspan x="50" y="325">Very positive</tspan><tspan x="70" y="350">50.9%</tspan></text>
			<text><tspan x="105" y="35">Positive</tspan><tspan x="115" y="55">31.4%</tspan></text>
			<text><tspan x="515.538" y="87.1865">Neutral 13.7%</tspan></text>
			<text><tspan x="548.299" y="253.187">Negative 3.2%</tspan></text>
			<text><tspan x="539.944" y="285">Very negative</tspan><tspan x="565" y="305">0.8%</tspan></text>
		</g>
	</g>
</svg>